<svg xmlns="http://www.w3.org/2000/svg" xmlns:xlink="http://www.w3.org/1999/xlink" width="24" height="24" viewBox="0 0 24 24">
  <defs>
    <clipPath id="clip-path">
      <rect id="Rectangle_1105" data-name="Rectangle 1105" width="19.996" height="20" fill="none"/>
    </clipPath>
    <clipPath id="clip-C">
      <rect width="24" height="24"/>
    </clipPath>
  </defs>
  <g id="C" clip-path="url(#clip-C)">
    <g id="Group_5484" data-name="Group 5484" transform="translate(2 2.001)">
      <g id="Group_5483" data-name="Group 5483" transform="translate(0 -0.001)" clip-path="url(#clip-path)">
        <path id="Path_30912" data-name="Path 30912" d="M19.749,5.678A7.621,7.621,0,0,0,5.009,9.553L0,14.562V20H5.713v-2.38h2.1l2.619-2.628a6.758,6.758,0,0,0,1.952.257A7.624,7.624,0,0,0,20,7.62a7.873,7.873,0,0,0-.248-1.942m-3.8,2.657a.707.707,0,0,1-.714-.714,2.859,2.859,0,0,0-2.857-2.857.714.714,0,0,1,0-1.428A4.3,4.3,0,0,1,16.663,7.62a.719.719,0,0,1-.714.714" transform="translate(0 0.001)" fill="#e4e4e4"/>
      </g>
    </g>
  </g>
</svg>
