<svg width="24" height="24" viewBox="0 0 24 24" fill="none" xmlns="http://www.w3.org/2000/svg">
<g clip-path="url(#clip0_617_16)">
<path d="M1.98272 16.5374C2.49672 16.067 3.20479 15.8897 3.8798 16.0706L3.84067 16.0601L5.71491 9.06539C6.70314 5.37726 10.3547 3.13672 14.0477 3.83269L14.323 2.80549C14.378 2.60005 14.5889 2.4783 14.7943 2.53335L15.5476 2.73519C15.7531 2.79024 15.8748 3.00111 15.8198 3.20655L15.5419 4.24353C19.0164 5.52052 21.0121 9.26377 20.0344 12.9128L18.1601 19.9075L18.121 19.897C18.7862 20.0753 19.3206 20.5854 19.5305 21.2498L19.591 21.4548L1.82531 16.6945L1.9801 16.5472L1.98272 16.5374Z" fill="#676767"/>
<path d="M10.0267 21.962C8.67029 21.5986 7.86903 20.2153 8.23144 18.8627L13.1172 20.1719C12.7548 21.5244 11.3692 22.3218 10.0128 21.9583L10.0267 21.962Z" fill="#676767"/>
</g>
<defs>
<clipPath id="clip0_617_16">
<rect width="24" height="24" fill="white"/>
</clipPath>
</defs>
</svg>
