<svg xmlns="http://www.w3.org/2000/svg" xmlns:xlink="http://www.w3.org/1999/xlink" width="24" height="24" viewBox="0 0 24 24">
  <defs>
    <clipPath id="clip-path">
      <rect id="Rectangle_1106" data-name="Rectangle 1106" width="20" height="20" fill="none"/>
    </clipPath>
    <clipPath id="clip-D">
      <rect width="24" height="24"/>
    </clipPath>
  </defs>
  <g id="D" clip-path="url(#clip-D)">
    <g id="Group_5486" data-name="Group 5486" transform="translate(2 2)">
      <g id="Group_5485" data-name="Group 5485" clip-path="url(#clip-path)">
        <path id="Path_30913" data-name="Path 30913" d="M10.4,14.43c.187.053.38.1.567.153-.013.06-.027.113-.04.167-.193-.053-.38-.1-.573-.153a1.557,1.557,0,0,1,.047-.167" transform="translate(-3.45 -4.81)" fill="#e4e4e4"/>
        <path id="Path_30914" data-name="Path 30914" d="M10,0A10,10,0,1,0,20,10,10,10,0,0,0,10,0M8.767,4.673A.884.884,0,1,1,8.04,5.68a.877.877,0,0,1,.727-1.007M9.82,15.333H8.073v-1.5H9.82Zm2.233,0H10.307v-2.5h1.747Zm.02-7.727a3.945,3.945,0,0,1-1.173.7,1.079,1.079,0,0,1-.293.047.36.36,0,0,1-.373-.28,2.784,2.784,0,0,0-.227-.547l-.02-.04c-.007.007-.007.007-.013.007.013.067.033.127.047.193.1.467.207.94.307,1.407a.55.55,0,0,0,.1.22c.22.24.433.487.647.727a1.75,1.75,0,0,1,.327.5,1.228,1.228,0,0,1,.067.347c.02.193.04.393.06.587.027.26.053.527.073.793a.387.387,0,0,1-.36.427.4.4,0,0,1-.433-.367c-.02-.187-.033-.373-.053-.567-.027-.287-.053-.58-.087-.873a.327.327,0,0,0-.047-.127,1,1,0,0,0-.127-.167,10.555,10.555,0,0,1-.72-.82.036.036,0,0,0-.027-.02,1.507,1.507,0,0,0-.173.007.03.03,0,0,0-.02.027c0,.013.007.027.007.04.053.34.107.687.167,1.033a.954.954,0,0,1-.067.547l-.58,1.42a.392.392,0,0,1-.287.253.367.367,0,0,1-.387-.12.392.392,0,0,1-.08-.413c.073-.187.147-.367.227-.553.12-.3.247-.593.373-.893a.266.266,0,0,0,.013-.127c-.067-.38-.127-.76-.187-1.14-.04-.273-.067-.547-.1-.813-.067-.527-.127-1.053-.193-1.58,0-.013-.007-.027-.007-.04-.02.013-.04.02-.06.033a1.4,1.4,0,0,0-.627.887,2.6,2.6,0,0,0-.06.907.4.4,0,0,1-.02.233c.087.027.167.047.253.073-.047.173-.093.34-.14.52.147.04.293.08.447.12-.14.513-.273,1.027-.413,1.54-.707-.193-1.407-.387-2.113-.573.14-.513.273-1.027.413-1.54.14.04.28.08.427.113l.14-.52c.133.04.26.073.393.107V9.24A3.128,3.128,0,0,1,7.18,8.127,2.064,2.064,0,0,1,8.293,6.773a2.319,2.319,0,0,1,.773-.267,1.593,1.593,0,0,1,.64.013,1.188,1.188,0,0,1,.687.473,2.522,2.522,0,0,1,.34.633l.02.06.013.013.2-.1a3.96,3.96,0,0,0,.7-.46.307.307,0,0,1,.487.113.319.319,0,0,1-.08.353m2.207,7.727H12.54V10.84h1.74Z" fill="#e4e4e4"/>
      </g>
    </g>
  </g>
</svg>
