<svg width="12" height="12" viewBox="0 0 12 12" fill="none" xmlns="http://www.w3.org/2000/svg">
<path d="M6 0C2.688 0 0 2.688 0 6C0 9.312 2.688 12 6 12C9.312 12 12 9.312 12 6C11.9952 2.688 9.312 0 6 0ZM8.568 5.832C8.664 5.928 8.664 6.0768 8.568 6.1728L6.648 8.0928C6.552 8.1888 6.4032 8.1888 6.3072 8.0928C6.2112 7.9968 6.2112 7.848 6.3072 7.752L7.8192 6.24H3.6C3.4656 6.24 3.36 6.1344 3.36 6C3.36 5.8656 3.4656 5.76 3.6 5.76H7.8192L6.3072 4.248C6.2112 4.152 6.2112 4.0032 6.3072 3.9072C6.4032 3.8112 6.552 3.8112 6.648 3.9072L8.568 5.8272V5.832Z" fill="#34A853"/>
</svg>
