<svg width="24" height="24" viewBox="0 0 24 24" fill="none" xmlns="http://www.w3.org/2000/svg">
<path fill-rule="evenodd" clip-rule="evenodd" d="M4 21.4961C4 21.3635 4.05268 21.2363 4.14645 21.1425C4.24021 21.0488 4.36739 20.9961 4.5 20.9961H19.5C19.6326 20.9961 19.7598 21.0488 19.8536 21.1425C19.9473 21.2363 20 21.3635 20 21.4961C20 21.6287 19.9473 21.7559 19.8536 21.8496C19.7598 21.9434 19.6326 21.9961 19.5 21.9961H4.5C4.36739 21.9961 4.24021 21.9434 4.14645 21.8496C4.05268 21.7559 4 21.6287 4 21.4961Z" fill="white"/>
<path fill-rule="evenodd" clip-rule="evenodd" d="M6.00391 11V21H8.50391V11H6.00391ZM5.50391 10C5.3713 10 5.24412 10.0527 5.15035 10.1464C5.05658 10.2402 5.00391 10.3674 5.00391 10.5V21.5C5.00391 21.6326 5.05658 21.7598 5.15035 21.8536C5.24412 21.9473 5.3713 22 5.50391 22H9.00391C9.13651 22 9.26369 21.9473 9.35746 21.8536C9.45123 21.7598 9.50391 21.6326 9.50391 21.5V10.5C9.50391 10.3674 9.45123 10.2402 9.35746 10.1464C9.26369 10.0527 9.13651 10 9.00391 10H5.50391Z" fill="white"/>
<path fill-rule="evenodd" clip-rule="evenodd" d="M8.5 2L16.5 5V12H14C13.8674 12 13.7402 12.0527 13.6464 12.1464C13.5527 12.2402 13.5 12.3674 13.5 12.5V21H8.5V2ZM10 6.5H11V7.5H10V6.5ZM13 6.5H12V7.5H13V6.5ZM14 6.5H15V7.5H14V6.5ZM11 8.5H10V9.5H11V8.5ZM12 8.5H13V9.5H12V8.5ZM15 8.5H14V9.5H15V8.5ZM10 10.5H11V11.5H10V10.5ZM13 10.5H12V11.5H13V10.5ZM14 10.5H15V11.5H14V10.5ZM11 12.5H10V13.5H11V12.5ZM12 12.5H13V13.5H12V12.5ZM10 14.5H11V15.5H10V14.5ZM13 14.5H12V15.5H13V14.5ZM11 16.5H10V17.5H11V16.5ZM12 16.5H13V17.5H12V16.5ZM10 18.5H11V19.5H10V18.5ZM13 18.5H12V19.5H13V18.5Z" fill="white"/>
<path fill-rule="evenodd" clip-rule="evenodd" d="M14.5 13V21H18V13H14.5ZM14 12C13.8674 12 13.7402 12.0527 13.6464 12.1464C13.5527 12.2402 13.5 12.3674 13.5 12.5V21.5C13.5 21.6326 13.5527 21.7598 13.6464 21.8536C13.7402 21.9473 13.8674 22 14 22H18.5C18.6326 22 18.7598 21.9473 18.8536 21.8536C18.9473 21.7598 19 21.6326 19 21.5V12.5C19 12.3674 18.9473 12.2402 18.8536 12.1464C18.7598 12.0527 18.6326 12 18.5 12H14Z" fill="white"/>
<path fill-rule="evenodd" clip-rule="evenodd" d="M16.9961 15H15.4961V14H16.9961V15Z" fill="white"/>
<path fill-rule="evenodd" clip-rule="evenodd" d="M16.9961 16.9961H15.4961V15.9961H16.9961V16.9961Z" fill="white"/>
<path fill-rule="evenodd" clip-rule="evenodd" d="M16.9961 19.0039H15.4961V18.0039H16.9961V19.0039Z" fill="white"/>
<path fill-rule="evenodd" clip-rule="evenodd" d="M16.9961 21H15.4961V20H16.9961V21Z" fill="white"/>
<path fill-rule="evenodd" clip-rule="evenodd" d="M7.5 6.5V10.5H6.5V6.5H7.5Z" fill="white"/>
</svg>
