<svg xmlns="http://www.w3.org/2000/svg" xmlns:xlink="http://www.w3.org/1999/xlink" width="24" height="24" viewBox="0 0 24 24">
  <defs>
    <clipPath id="clip-Languages_known">
      <rect width="24" height="24"/>
    </clipPath>
  </defs>
  <g id="Languages_known" data-name="Languages known" clip-path="url(#clip-Languages_known)">
    <g id="Group_4850" data-name="Group 4850" transform="translate(1.998 3)">
      <g id="Group_4851" data-name="Group 4851" transform="translate(0.001 0)">
        <path id="Path_29542" data-name="Path 29542" d="M16.39,3.589A9.132,9.132,0,0,0,1.88,14.682c.322.407.658.793,1.036,1.237l-2.573,2H.336l.143.307c.307.015.608.044.908.044,2.588,0,5.182.006,7.777-.008a9,9,0,0,0,3.552-.729,9.4,9.4,0,0,0,1.966-1.143,9.141,9.141,0,0,0,1.708-12.8m.715,8.684a8.147,8.147,0,0,1-7.677,5.418c-2.53.122-5.068.029-7.605.029l-.071-.193,1.287-.986c.772-.593.772-.593.1-1.265A8.461,8.461,0,0,1,.6,10.094,8.617,8.617,0,0,1,5.368,1.372a8.509,8.509,0,0,1,9.8,1.645,8.109,8.109,0,0,1,2.345,8.013,10.031,10.031,0,0,1-.407,1.243" transform="translate(0 0)" fill="#e4e4e4"/>
        <path id="Path_29543" data-name="Path 29543" d="M20.334,14.969c-.029.129-.064.257-.1.386a.043.043,0,0,1-.007.029.393.393,0,0,1-.086.25,6.715,6.715,0,0,1-1.58,2.509,6.789,6.789,0,0,1-2.144,1.444,4.142,4.142,0,0,1,.014-1.151,5.773,5.773,0,0,0,2.537-2.652h-.922a3.873,3.873,0,0,1,1.151-.608,3.58,3.58,0,0,1,.829-.186,1.484,1.484,0,0,1,.307-.021" transform="translate(-4.672 -4.269)" fill="#e4e4e4"/>
        <path id="Path_29544" data-name="Path 29544" d="M23.629,22.313l1.172.908-4.01.157a4.184,4.184,0,0,1-2.5-.858,3.743,3.743,0,0,1-.622-.586,2.768,2.768,0,0,1-.307-.407,8.143,8.143,0,0,0,4.7-4.853,10.08,10.08,0,0,0,.407-1.244,2.737,2.737,0,0,1,.493.264,3.589,3.589,0,0,1,.365.243,4.145,4.145,0,0,1,.779,5.811c-.143.186-.3.357-.472.565" transform="translate(-4.951 -4.401)" fill="#e4e4e4"/>
        <path id="Path_29545" data-name="Path 29545" d="M16.519,8.1c-.029-.093-.057-.172-.086-.257.007-.007,0-.007,0-.007a6.732,6.732,0,0,0-12.7.021s-.007,0,0,.007l-.064.193c-.007.007-.007.007-.007.014a6.886,6.886,0,0,0-.3,2,6.61,6.61,0,0,0,.3,1.966v.007l.086.257a6.721,6.721,0,0,0,12.68.014c.029-.086.057-.164.086-.25a.043.043,0,0,0,.007-.029c.036-.129.071-.257.1-.386a6.433,6.433,0,0,0,.193-1.587A6.607,6.607,0,0,0,16.519,8.1m-3.8,7.019a5.7,5.7,0,0,1-2.63.643,5.32,5.32,0,0,1-1.437-.193,5.674,5.674,0,0,1-3.724-3.1,5.761,5.761,0,0,1-.315-.851,5.691,5.691,0,0,1,0-3.1,5.761,5.761,0,0,1,.315-.851A5.7,5.7,0,0,1,8.649,4.565a5.674,5.674,0,0,1,2.881,0,5.6,5.6,0,0,1,4.031,3.96,5.521,5.521,0,0,1,.222,1.544v.007a5.521,5.521,0,0,1-.222,1.544,1.6,1.6,0,0,1-.079.243,6.223,6.223,0,0,1-.229.608,5.773,5.773,0,0,1-2.537,2.652" transform="translate(-0.958 -0.955)" fill="#e4e4e4"/>
        <path id="Path_29546" data-name="Path 29546" d="M16.119,10.25H4.3A.435.435,0,1,1,4.124,9.4a.443.443,0,0,1,.179,0H16.119a.435.435,0,1,1,.179.851.443.443,0,0,1-.179,0" transform="translate(-1.078 -2.678)" fill="#e4e4e4"/>
        <path id="Path_29547" data-name="Path 29547" d="M16.64,15.337a.04.04,0,0,1-.008.029.393.393,0,0,1-.086.25.472.472,0,0,1-.25.15.377.377,0,0,1-.179,0H4.3a.439.439,0,0,1-.436-.164.482.482,0,0,1-.078-.172.348.348,0,0,1-.007-.086v-.007a.428.428,0,0,1,.342-.422.378.378,0,0,1,.179,0H16.118a.434.434,0,0,1,.315.057.428.428,0,0,1,.2.279.317.317,0,0,1,.008.086" transform="translate(-1.078 -4.251)" fill="#e4e4e4"/>
        <path id="Path_29548" data-name="Path 29548" d="M14.249,8.579c-.029-.293-.057-.579-.1-.851A8.739,8.739,0,0,0,13.2,4.619,1.812,1.812,0,0,0,11.762,3.54a1.812,1.812,0,0,0-1.444,1.079,8.7,8.7,0,0,0-.944,3.109c-.043.272-.071.558-.1.851-.043.493-.064,1.015-.064,1.551s.021,1.051.064,1.545c.029.292.057.578.1.85a8.7,8.7,0,0,0,.944,3.1,1.806,1.806,0,0,0,1.444,1.086A1.811,1.811,0,0,0,13.2,15.634a8.734,8.734,0,0,0,.951-3.109c.043-.272.071-.558.1-.85.043-.494.064-1.016.064-1.552s-.021-1.051-.064-1.544m-.965,3.946c-.307,1.894-.944,3.145-1.523,3.145s-1.215-1.251-1.522-3.145c-.043-.272-.079-.558-.107-.85-.043-.487-.071-1.009-.071-1.552s.029-1.058.071-1.544c.029-.293.064-.579.107-.851.307-1.9.936-3.152,1.522-3.152s1.215,1.251,1.523,3.152c.043.272.079.558.107.851.043.486.071,1,.071,1.544s-.029,1.065-.071,1.552c-.029.292-.064.578-.107.85" transform="translate(-2.627 -1.01)" fill="#e4e4e4"/>
      </g>
    </g>
  </g>
</svg>
