<svg width="24" height="24" viewBox="0 0 24 24" fill="none" xmlns="http://www.w3.org/2000/svg">
<path d="M19.2963 8.66667H16.3333V6.44444C16.3333 5.2657 15.8651 4.13524 15.0316 3.30175C14.1981 2.46825 13.0676 2 11.8889 2C10.7101 2 9.57969 2.46825 8.74619 3.30175C7.9127 4.13524 7.44444 5.2657 7.44444 6.44444V8.66667H4.48148C4.08857 8.66667 3.71175 8.82275 3.43392 9.10058C3.15608 9.37841 3 9.75523 3 10.1481V20.5185C3 20.9114 3.15608 21.2883 3.43392 21.5661C3.71175 21.8439 4.08857 22 4.48148 22H19.2963C19.6892 22 20.066 21.8439 20.3439 21.5661C20.6217 21.2883 20.7778 20.9114 20.7778 20.5185V10.1481C20.7778 9.75523 20.6217 9.37841 20.3439 9.10058C20.066 8.82275 19.6892 8.66667 19.2963 8.66667ZM8.92593 6.44444C8.92593 5.65862 9.23809 4.90498 9.79376 4.34931C10.3494 3.79365 11.1031 3.48148 11.8889 3.48148C12.6747 3.48148 13.4284 3.79365 13.984 4.34931C14.5397 4.90498 14.8519 5.65862 14.8519 6.44444V8.66667H8.92593V6.44444Z" fill="#676767"/>
</svg>
