<svg xmlns="http://www.w3.org/2000/svg" xmlns:xlink="http://www.w3.org/1999/xlink" width="24" height="24" viewBox="0 0 24 24">
  <defs>
    <clipPath id="clip-Messages">
      <rect width="24" height="24"/>
    </clipPath>
  </defs>
  <g id="Messages" clip-path="url(#clip-Messages)">
    <g id="Group_5322" data-name="Group 5322" transform="translate(2 3)">
      <path id="Path_30876" data-name="Path 30876" d="M19.042,4.938V16.45a1.2,1.2,0,0,1-1.2,1.2,1.231,1.231,0,0,1-.6-.162l-.062-.05-2.838-2.375H5.718A1.9,1.9,0,0,1,3.83,13.175V11.25h8.525a1.878,1.878,0,0,0,1.888-1.887V3.05h2.9a1.889,1.889,0,0,1,1.9,1.888" transform="translate(0.957 0.762)" fill="#e4e4e4"/>
      <path id="Path_30877" data-name="Path 30877" d="M15.2,1.888v8.237a1.878,1.878,0,0,1-1.887,1.887H4.688l-2.862,2.4A1.112,1.112,0,0,1,1.2,14.6v.012a1.121,1.121,0,0,1-.6-.175A1.177,1.177,0,0,1,0,13.4V1.888A1.894,1.894,0,0,1,1.888,0H13.313A1.886,1.886,0,0,1,15.2,1.888" fill="#fff"/>
    </g>
  </g>
</svg>
