<svg width="24" height="24" viewBox="0 0 24 24" fill="none" xmlns="http://www.w3.org/2000/svg">
<path d="M20.5463 2H3.45366C2.65415 2 2 2.65415 2 3.45366V15.3131C2 16.1248 2.65415 16.7668 3.45366 16.7668H14.55L17.2635 21.467L18.5718 16.7668H20.5463C21.3459 16.7668 22 16.1248 22 15.3131V3.45366C22 2.65415 21.3459 2 20.5463 2ZM4.1805 7.80254C4.1805 7.64506 4.30164 7.51181 4.47123 7.51181H10.189C10.3586 7.51181 10.4797 7.64506 10.4797 7.80254V7.94791C10.4797 8.1175 10.3586 8.23864 10.189 8.23864H4.47123C4.30164 8.23864 4.1805 8.1175 4.1805 7.94791V7.80254ZM16.5609 11.6305C16.5609 11.788 16.4397 11.9213 16.2701 11.9213H4.47123C4.30164 11.9213 4.1805 11.788 4.1805 11.6305V11.473C4.1805 11.3156 4.30164 11.1823 4.47123 11.1823H16.2701C16.4397 11.1823 16.5609 11.3156 16.5609 11.473V11.6305ZM16.5609 9.78922C16.5609 9.9467 16.4397 10.08 16.2701 10.08H4.47123C4.30164 10.08 4.1805 9.9467 4.1805 9.78922V9.64385C4.1805 9.47426 4.30164 9.35312 4.47123 9.35312H16.2701C16.4397 9.35312 16.5609 9.47426 16.5609 9.64385V9.78922ZM20.7159 6.11872C20.7159 6.2762 20.5827 6.40945 20.4252 6.40945H4.47123C4.30164 6.40945 4.1805 6.2762 4.1805 6.11872V5.96124C4.1805 5.80376 4.30164 5.6705 4.47123 5.6705H20.4252C20.5827 5.6705 20.7159 5.80376 20.7159 5.96124V6.11872Z" fill="#676767"/>
</svg>
