<svg xmlns="http://www.w3.org/2000/svg" xmlns:xlink="http://www.w3.org/1999/xlink" width="24" height="24" viewBox="0 0 24 24">
  <defs>
    <clipPath id="clip-My_Projects">
      <rect width="24" height="24"/>
    </clipPath>
  </defs>
  <g id="My_Projects" data-name="My Projects" clip-path="url(#clip-My_Projects)">
    <g id="Group_5423" data-name="Group 5423" transform="translate(2.002 1.999)">
      <g id="Group_5424" data-name="Group 5424" transform="translate(-0.001 0.001)">
        <path id="Path_30894" data-name="Path 30894" d="M21.31,37.682l0,.007Z" transform="translate(-13.263 -23.453)" fill="#e4e4e4"/>
        <path id="Path_30895" data-name="Path 30895" d="M19.536,32.545v0" transform="translate(-12.159 -20.256)" fill="#e4e4e4"/>
        <path id="Path_30896" data-name="Path 30896" d="M8.189,31.745l.005,0Z" transform="translate(-5.097 -19.758)" fill="#e4e4e4"/>
        <path id="Path_30897" data-name="Path 30897" d="M22.73,22.21a1.8,1.8,0,0,1,1.957.277c1.147-.076,2.288-.227,3.436-.321.227-.028.513-.1.682.1a.453.453,0,0,1-.151.731c-1.152.482-2.309.957-3.455,1.439a1.8,1.8,0,1,1-2.472-2.229Z" transform="translate(-13.516 -13.716)" fill="#e4e4e4"/>
        <path id="Path_30898" data-name="Path 30898" d="M15.647,32.025q-.464.98-.929,1.952c-.4.835-1.189,2.507-1.193,2.515s0,0-.008.008c-.162-.072-.31-.151-.427-.211-.008-.008-.011-.015-.015-.015s-.076-1.5-.113-2.19l.763.363.211-.423-.083-.042a6.283,6.283,0,0,0-.683-.325c-.215-.079-.283-.174-.257-.359v-.015l1.114.536.211-.427-.895-.427c-.136-.064-.272-.128-.412-.2a.1.1,0,0,1-.045-.042v-.264l1.458.691.215-.427-1.416-.68c-.279-.136-.313-.151-.317-.393l1.82.853.2-.427-.717-.363c-.419-.208-.838-.4-1.288-.608a.086.086,0,0,1-.053-.087.563.563,0,0,0-.238-.54c-.227-.189-.438-.385-.661-.6-.083-.076-.166-.155-.253-.234l.517-1.061.5.238c.736.336,1.469.672,2.2,1a.244.244,0,0,1,.121.132c.185.563.378,1.118.574,1.677l.091.261A.178.178,0,0,1,15.647,32.025Z" transform="translate(-7.243 -17.791)" fill="#e4e4e4"/>
        <path id="Path_30899" data-name="Path 30899" d="M5.6,37.36c-.083-1.639-.264-4.924-.264-4.924a.11.11,0,0,0-.042-.079c-.4-.37-.812-.74-1.223-1.114l-.344-.31a.159.159,0,0,0-.106-.038c-.831.053-1.661.1-2.492.159-.023,0-.045,0-.068,0-.128,0-.249.015-.381.03L.617,31.1l.3,6.552,4.69-.249a.127.127,0,0,0,0-.038M4.15,31.87a.189.189,0,1,1-.189.189A.189.189,0,0,1,4.15,31.87ZM1.214,33.044l.529-.03,2.915-.155.026.472-2.723.151-.748.042Zm.019.706.846-.045L4.7,33.568l.042.483-2.39.125-1.076.057Zm.045.744,1.235-.064,2.235-.121v.483l-1.907.1-1.533.079ZM4.79,35.5,3.4,35.574l-2.069.11V35.2l1.677-.087L4.8,35.018Z" transform="translate(-0.384 -19.229)" fill="#e4e4e4"/>
        <path id="Path_30900" data-name="Path 30900" d="M19.269,13.737a9.983,9.983,0,0,1-12.163,5.83c.091-.181.491-1.031.5-1.042a8.84,8.84,0,0,0,4.071.174l-.295-1.239.993-.234.287,1.223a8.185,8.185,0,0,0,.8-.295,8.862,8.862,0,0,0,5.177-10.1l-1.1.261-.234-.989,1.054-.249c-.06-.185-.132-.366-.208-.548A8.854,8.854,0,0,0,10,1.133a9.115,9.115,0,0,0-1.4.11L8.949,2.76l-.989.234L7.6,1.461A8.859,8.859,0,0,0,1.133,10q0,.374.034.748c-.087.008-.831.147-1.125.162C.015,10.6,0,10.3,0,10A10,10,0,0,1,13.737.725a10,10,0,0,1,5.532,13.012" fill="#e4e4e4"/>
      </g>
    </g>
  </g>
</svg>
