<svg xmlns="http://www.w3.org/2000/svg" xmlns:xlink="http://www.w3.org/1999/xlink" width="24" height="24" viewBox="0 0 24 24">
  <defs>
    <clipPath id="clip-Saved_Jobs">
      <rect width="24" height="24"/>
    </clipPath>
  </defs>
  <g id="Saved_Jobs" data-name="Saved Jobs" clip-path="url(#clip-Saved_Jobs)">
    <g id="Group_5412" data-name="Group 5412" transform="translate(2 2)">
      <path id="Path_30893" data-name="Path 30893" d="M19.312,9.3l-3.637,3.037,1.171,4.618a1.858,1.858,0,0,1-.724,2,1.793,1.793,0,0,1-1.085.362,1.85,1.85,0,0,1-1-.286L9.991,16.459,6.258,18.83a1.981,1.981,0,0,1-2.238-.076,2.044,2.044,0,0,1-.771-2.161l1.076-4.266L.679,9.3A1.88,1.88,0,0,1,.1,7.252,1.86,1.86,0,0,1,1.755,5.957l4.742-.3L8.258,1.2a1.865,1.865,0,0,1,3.485.01l1.771,4.447,4.723.3A1.89,1.89,0,0,1,19.312,9.3" transform="translate(0 0)" fill="#fff"/>
    </g>
  </g>
</svg>
