<svg xmlns="http://www.w3.org/2000/svg" xmlns:xlink="http://www.w3.org/1999/xlink" width="24" height="24" viewBox="0 0 24 24">
  <defs>
    <clipPath id="clip-My_Experience">
      <rect width="24" height="24"/>
    </clipPath>
  </defs>
  <g id="My_Experience" data-name="My Experience" clip-path="url(#clip-My_Experience)">
    <g id="Group_4962" data-name="Group 4962" transform="translate(3.002 2)">
      <g id="Group_4846" data-name="Group 4846" transform="translate(-0.001 0)">
        <path id="Path_29537" data-name="Path 29537" d="M32.752,2.675a.279.279,0,0,0-.026-.089,2.739,2.739,0,0,0-.1-.344,1.835,1.835,0,0,1-.1-.266c-.016-.04-.049-.044-.08-.013A.373.373,0,0,0,32.415,2l-.775.963c-.055.067-.113.132-.167.2-.158.2-.313.392-.471.587s-.32.387-.48.581c-.058.07-.1.078-.171.024-.123-.1-.246-.2-.368-.3-.316-.259-.63-.52-.947-.778-.25-.2-.5-.4-.753-.6a.133.133,0,0,1-.017-.19c.12-.142.243-.282.36-.426.134-.165.261-.337.4-.5.224-.277.451-.552.678-.828.075-.091.151-.18.227-.27s.169-.2.252-.308A.3.3,0,0,0,30.2.1a1.5,1.5,0,0,0-.281-.079C29.745,0,29.564,0,29.385,0c-.112,0-.224.006-.335.014-.061,0-.121.019-.182.029L28.63.089a.962.962,0,0,0-.1.029c-.047.014-.093.03-.139.043s-.066.015-.1.026-.084.033-.126.051c-.023.01-.045.02-.067.031s-.049.026-.074.037c-.078.036-.158.067-.234.106a2.094,2.094,0,0,0-.179.114c-.1.066-.2.13-.289.2a1.786,1.786,0,0,0-.18.161c-.119.121-.242.24-.35.371a3.724,3.724,0,0,0-.27.387,2.982,2.982,0,0,0-.159.3,2.58,2.58,0,0,0-.116.271,2.963,2.963,0,0,1-.1.3.041.041,0,0,0,0,.018.619.619,0,0,1-.061.271.147.147,0,0,0-.013.063c-.006.137-.015.273-.015.41,0,.171.009.342.012.512a1.377,1.377,0,0,0,.053.346c.032.117.066.236.1.355a.409.409,0,0,0,.018.071c.04.09.089.177.121.269a1.112,1.112,0,0,0,.132.252.079.079,0,0,1-.006.109c-.052.061-.1.124-.154.185-.172.2-.346.4-.519.594-.194.222-.388.443-.583.664-.1.119-.213.234-.316.353-.077.089-.147.185-.224.273-.2.234-.412.464-.616.7-.067.076-.12.083-.19.008-.121-.13-.236-.264-.355-.394-.159-.174-.321-.344-.48-.519s-.334-.375-.5-.56c-.092-.1-.192-.194-.283-.295-.155-.172-.305-.35-.46-.523-.1-.109-.2-.211-.3-.319-.152-.168-.3-.342-.451-.507-.182-.194-.371-.383-.536-.593a.625.625,0,0,0-.072-.066c-.029.022-.056.037-.078.057l-.574.528c-.13.119-.258.24-.388.359-.107.1-.217.194-.325.292s-.239.224-.359.337-.235.22-.354.329-.228.2-.34.3a.089.089,0,0,0,0,.139q.266.292.532.582c.155.169.314.334.468.5s.291.33.439.493c.1.106.2.206.293.311s.187.215.282.321.2.224.307.335l.283.307c.08.086.161.171.24.259.1.115.2.232.307.348q.243.274.488.547c.067.075.063.125,0,.2-.114.123-.223.249-.334.374-.072.082-.142.164-.214.245-.1.109-.194.217-.29.326-.073.084-.144.17-.216.254s-.123.138-.184.208-.143.171-.216.255q-.226.258-.455.516c-.127.145-.255.288-.381.434-.077.089-.147.184-.225.272-.1.116-.211.227-.313.343-.162.187-.321.377-.483.565-.139.162-.283.321-.422.483-.087.1-.168.206-.254.307-.073.084-.151.164-.224.248s-.144.17-.216.254c-.169.2-.334.4-.51.592-.132.144-.257.293-.382.443a1.169,1.169,0,0,0-.278.585c-.008.049-.023.1-.032.146a1.04,1.04,0,0,0-.023.146.7.7,0,0,0,.045.347.12.12,0,0,1,.009.036,1.176,1.176,0,0,0,.07.275,1.584,1.584,0,0,0,.219.394c.089.114.2.208.3.315a1.329,1.329,0,0,0,.395.254.648.648,0,0,0,.3.094.085.085,0,0,1,.044.015.359.359,0,0,0,.2.049c.081,0,.163-.006.243,0a2.324,2.324,0,0,0,.49-.088.057.057,0,0,0,.017-.007c.076-.041.149-.086.227-.122a.956.956,0,0,0,.335-.272c.162-.2.315-.406.472-.609s.319-.412.477-.619c.135-.177.268-.356.4-.534s.257-.348.387-.521c.115-.153.234-.3.35-.457.13-.173.257-.349.388-.522s.261-.337.39-.507c.15-.2.3-.4.446-.594.062-.081.128-.159.19-.241.1-.139.2-.281.305-.42.15-.2.3-.4.453-.6.111-.145.223-.289.333-.434.033-.044.062-.091.092-.138a.1.1,0,0,1,.138-.031.291.291,0,0,1,.061.056c.063.072.123.147.187.217.125.137.256.27.38.409s.266.311.4.463c.215.239.436.474.653.712.164.178.326.357.489.535s.307.332.459.5.283.321.427.479c.165.181.333.358.5.538.068.073.133.148.2.222.089.1.175.2.264.3.11.122.222.241.333.363s.206.229.311.344a.205.205,0,0,0,.058.029.779.779,0,0,0,.015-.106.753.753,0,0,1,.052-.282.426.426,0,0,0,.024-.146.586.586,0,0,1,.055-.261.142.142,0,0,1,.186-.089,2.779,2.779,0,0,0,.32.052,3.677,3.677,0,0,1,.647.068c.07.02.086,0,.1-.067a.5.5,0,0,0,.019-.109c-.008-.3.063-.6.081-.9.006-.114.054-.153.171-.171a.612.612,0,0,0,.1-.028l.139-.046a.251.251,0,0,0,.07-.022.3.3,0,0,1,.165-.055.126.126,0,0,0,.061-.02.294.294,0,0,1,.165-.054.086.086,0,0,0,.089-.067l-.228-.248-.3-.33c-.085-.094-.168-.19-.254-.283-.1-.109-.206-.214-.307-.324s-.181-.211-.274-.315-.174-.185-.259-.28c-.157-.175-.311-.353-.471-.527s-.339-.36-.51-.541c-.061-.066-.121-.133-.181-.2-.1-.11-.2-.222-.3-.331s-.208-.222-.31-.334c-.142-.156-.28-.315-.421-.472-.118-.131-.238-.261-.357-.392-.077-.085-.151-.172-.229-.257-.095-.1-.192-.2-.287-.3-.13-.141-.259-.284-.389-.425a.154.154,0,0,1-.01-.217l.224-.3q.261-.349.524-.7c.118-.155.238-.309.356-.465.105-.141.206-.285.313-.426.19-.252.383-.5.573-.754.153-.2.3-.408.454-.613a.113.113,0,0,1,.113-.052.843.843,0,0,1,.213.063.556.556,0,0,0,.186.05c.073.011.145.029.218.042a1.167,1.167,0,0,0,.184.024c.2,0,.41,0,.615,0a.66.66,0,0,0,.111-.014c.079-.015.157-.036.236-.049a1.588,1.588,0,0,0,.2-.053c.1-.031.206-.059.307-.1a.585.585,0,0,0,.07-.024c.077-.038.151-.084.229-.117a2.531,2.531,0,0,0,.461-.273,3.8,3.8,0,0,0,.471-.42,2.579,2.579,0,0,0,.45-.587c.054-.1.1-.2.158-.292a2.005,2.005,0,0,0,.134-.323,1.65,1.65,0,0,0,.085-.3.358.358,0,0,1,.015-.034.868.868,0,0,0,.036-.124c.017-.116.032-.233.046-.349.01-.086.019-.172.026-.259a5.559,5.559,0,0,0-.075-.775M18.535,18.088a2.175,2.175,0,0,0-.1.218.1.1,0,0,1-.018.032,1.508,1.508,0,0,1-.341.28c-.119.073-.246.049-.365.084-.116-.04-.241,0-.358-.077a1.322,1.322,0,0,1-.321-.246.508.508,0,0,1-.138-.248.065.065,0,0,0-.011-.035c-.064-.077-.043-.171-.057-.269a.871.871,0,0,1,.351-.675.712.712,0,0,1,.219-.135.885.885,0,0,1,.422-.043.84.84,0,0,1,.146.028.8.8,0,0,1,.2.094,1.307,1.307,0,0,1,.224.2.639.639,0,0,1,.133.241.869.869,0,0,1,.066.211.63.63,0,0,1-.054.335" transform="translate(-14.885 0)" fill="#e4e4e4"/>
        <path id="Path_29538" data-name="Path 29538" d="M0,13.455c.018-.08.035-.158.052-.236a.655.655,0,0,0,.019-.11.382.382,0,0,1,.053-.185,1.046,1.046,0,0,1,.088-.182A.977.977,0,0,0,.3,12.6a1.47,1.47,0,0,1,.434-.438,2.462,2.462,0,0,1,.331-.181c.111-.055.235-.055.342-.112a.224.224,0,0,1,.1-.016,3.177,3.177,0,0,1,.475,0,1.1,1.1,0,0,1,.366.111,1.618,1.618,0,0,0,.164.084,1.039,1.039,0,0,1,.336.273c.283.286.564.574.846.861.07.072.065.1-.011.172-.112.1-.216.214-.326.318-.228.215-.458.427-.685.642-.072.068-.14.141-.21.21q-.288.283-.578.566c-.151.147-.3.292-.455.438-.046.044-.071.045-.115-.006-.087-.1-.172-.2-.257-.306s-.172-.211-.259-.316c-.114-.138-.23-.275-.344-.414-.059-.072-.117-.145-.171-.221a.7.7,0,0,1-.138-.268.275.275,0,0,0-.031-.057.317.317,0,0,1-.032-.076c-.017-.091-.028-.183-.044-.274C.026,13.55.012,13.5,0,13.455" transform="translate(0 -11.022)" fill="#e4e4e4"/>
        <path id="Path_29539" data-name="Path 29539" d="M209.29,241.227l-.159-.046c-.023-.007-.046-.016-.069-.025l-.1-.042-.1-.042c-.009,0-.015-.011-.024-.014l-.308-.093c-.029-.009-.058-.021-.087-.032l-.1-.04-.13-.048-.07-.024-.147-.053c-.026-.009-.053-.014-.08-.023s-.075-.027-.112-.041c-.006,0-.01-.008-.015-.01l-.288-.095c-.009,0-.019,0-.028,0l-.3-.114c-.006,0-.01-.01-.015-.01a1.979,1.979,0,0,1-.3-.1c-.036-.009-.07-.022-.105-.034a.494.494,0,0,1-.111-.042c-.1-.067-.234-.052-.334-.126a.075.075,0,0,0-.043-.016.4.4,0,0,1-.2-.076.073.073,0,0,1-.044-.074c0-.068,0-.137,0-.205,0-.124.009-.248.013-.372,0-.1.009-.109.113-.113.053,0,.106,0,.158-.005s.12-.026.18-.037a1.765,1.765,0,0,1,.22-.032.954.954,0,0,0,.338-.055.408.408,0,0,1,.128-.018c.093-.007.1-.011.13-.1a1.018,1.018,0,0,0,.064-.337.285.285,0,0,1,.024-.127.516.516,0,0,0,.046-.226.625.625,0,0,1,.051-.254.488.488,0,0,0,.023-.146c0-.031,0-.062,0-.093a.078.078,0,0,1,.093-.079l.781.032c.081,0,.092,0,.119.1a2.892,2.892,0,0,0,.116.446.344.344,0,0,1,.023.118.342.342,0,0,0,.047.187.048.048,0,0,1,.008.017c.032.147.066.293.094.441a.52.52,0,0,0,.041.15.654.654,0,0,1,.035.152c.011.048.025.095.034.143.031.166.1.325.116.494a.828.828,0,0,0,.037.133c0,.009.01.016.012.025.033.144.067.287.095.432a.333.333,0,0,0,.046.168.071.071,0,0,1,.014.034,1.137,1.137,0,0,0,.074.315c0,.01,0,.023,0,.035" transform="translate(-191.652 -221.227)" fill="#e4e4e4"/>
        <path id="Path_29540" data-name="Path 29540" d="M33.344,45.227a.14.14,0,0,1,.029.02l.28.31c.033.037.068.072.1.109.068.073.069.1,0,.169-.107.1-.217.2-.327.3l-.294.27c-.16.147-.319.294-.478.443-.12.112-.236.228-.357.339s-.224.2-.334.3c-.126.115-.247.234-.371.351-.061.057-.123.113-.185.17A.053.053,0,0,1,31.322,48c-.066-.074-.135-.145-.2-.219s-.124-.146-.187-.218-.06-.072,0-.128c.145-.135.292-.268.438-.4.039-.036.073-.076.111-.112.181-.169.358-.343.547-.5.159-.134.3-.286.455-.423.116-.1.23-.206.345-.31.023-.021.044-.044.067-.064l.419-.381a.116.116,0,0,1,.027-.013" transform="translate(-28.736 -42.074)" fill="#e4e4e4"/>
      </g>
    </g>
  </g>
</svg>
