<svg width="24" height="24" viewBox="0 0 24 24" fill="none" xmlns="http://www.w3.org/2000/svg">
<path d="M11.3736 14.1055C12.2622 13.5152 12.9372 12.6544 13.2987 11.6506C13.6601 10.6468 13.6888 9.55337 13.3805 8.53202C13.0722 7.51066 12.4432 6.6157 11.5867 5.97959C10.7302 5.34347 9.69172 5 8.62484 5C7.55796 5 6.51943 5.34347 5.66294 5.97959C4.80644 6.6157 4.17749 7.51066 3.86917 8.53202C3.56085 9.55337 3.58954 10.6468 3.95099 11.6506C4.31244 12.6544 4.98745 13.5152 5.87612 14.1055C4.36093 14.6612 3.0521 15.6674 2.12547 16.9888C2.05329 17.087 2.01037 17.2036 2.00165 17.3252C1.99294 17.4468 2.01879 17.5684 2.07622 17.6759C2.13233 17.7836 2.21662 17.8739 2.32009 17.9374C2.42355 18.0009 2.54231 18.0351 2.66368 18.0363H14.5848C14.7062 18.0351 14.8249 18.0009 14.9284 17.9374C15.0319 17.8739 15.1161 17.7836 15.1723 17.6759C15.2297 17.5684 15.2555 17.4468 15.2468 17.3252C15.2381 17.2036 15.1952 17.087 15.123 16.9888C14.1967 15.6676 12.8883 14.6615 11.3736 14.1055Z" fill="white"/>
<path d="M21.8829 16.995C20.9519 15.673 19.6409 14.6653 18.1239 14.1058C19.0149 13.5175 19.6923 12.6574 20.0554 11.6533C20.4185 10.6493 20.4478 9.55483 20.139 8.53276C19.8302 7.51069 19.1998 6.61556 18.3415 5.98048C17.4832 5.3454 16.4429 5.00428 15.3752 5.00784C14.9195 5.01043 14.466 5.07181 14.026 5.19045C13.9227 5.22147 13.8283 5.27667 13.7506 5.35146C13.6729 5.42626 13.6141 5.51849 13.5791 5.62053C13.5465 5.72133 13.5385 5.8285 13.5558 5.93302C13.5732 6.03755 13.6153 6.13638 13.6788 6.22121C14.4278 7.22723 14.8581 8.4346 14.9142 9.68753C14.9703 10.9405 14.6496 12.1815 13.9936 13.2504C13.9096 13.3924 13.881 13.5604 13.9131 13.7222C13.9453 13.884 14.0359 14.0282 14.1678 14.1274C14.4161 14.3204 14.6563 14.5206 14.8886 14.7281L14.9294 14.7689C15.813 15.5867 16.5298 16.5678 17.0402 17.6582C17.0929 17.7729 17.1777 17.8699 17.2843 17.9375C17.3908 18.005 17.5147 18.0403 17.6409 18.039H21.3411C21.4625 18.0378 21.5813 18.0036 21.6847 17.9401C21.7882 17.8766 21.8725 17.7862 21.9286 17.6786C21.9841 17.5713 22.0091 17.4509 22.0011 17.3305C21.993 17.21 21.9522 17.094 21.8829 16.995Z" fill="#E4E4E4"/>
</svg>
