<svg width="24" height="24" viewBox="0 0 24 24" fill="none" xmlns="http://www.w3.org/2000/svg">
<path d="M21.8942 19.8602C20.4726 17.4174 18.1964 15.5833 15.5017 14.7096C16.7935 13.9451 17.7977 12.7791 18.3599 11.3907C18.922 10.0023 19.0111 8.46835 18.6133 7.0246C18.2156 5.58085 17.3531 4.30722 16.1584 3.39944C14.9636 2.49167 13.5028 2 12.0004 2C10.498 2 9.0372 2.49167 7.84247 3.39944C6.64774 4.30722 5.78523 5.58085 5.38749 7.0246C4.98976 8.46835 5.07881 10.0023 5.64097 11.3907C6.20313 12.7791 7.20728 13.9451 8.49909 14.7096C5.80445 15.5833 3.52821 17.4174 2.10668 19.8602C2.0369 19.9746 2 20.1059 2 20.2398C2 20.3737 2.0369 20.5051 2.10668 20.6195C2.17173 20.7359 2.26708 20.8327 2.38269 20.8996C2.4983 20.9666 2.62988 21.0013 2.76359 21H21.2356C21.3693 21.0013 21.5009 20.9666 21.6165 20.8996C21.7321 20.8327 21.8274 20.7359 21.8925 20.6195C21.9625 20.5052 21.9997 20.374 22 20.2401C22.0003 20.1062 21.9637 19.9748 21.8942 19.8602Z" fill="white"/>
</svg>
