<svg width="16" height="10" viewBox="0 0 16 10" fill="none" xmlns="http://www.w3.org/2000/svg">
<path d="M11.5327 9.32561C11.4002 9.32561 11.2703 9.2863 11.1599 9.21212C11.0496 9.13858 10.9634 9.03396 10.9127 8.91097C10.862 8.78861 10.8487 8.65357 10.874 8.52296C10.9 8.39299 10.964 8.27317 11.0579 8.17934L14.3762 4.86101L11.0579 1.5427C10.9957 1.47993 10.9463 1.40576 10.9127 1.32461C10.8785 1.24282 10.8613 1.15533 10.8613 1.0672C10.8613 0.978443 10.8785 0.891582 10.9127 0.809797C10.9463 0.728012 10.9957 0.653838 11.0579 0.591706C11.1206 0.528941 11.1948 0.479482 11.2766 0.445881C11.3577 0.412279 11.4452 0.394531 11.5334 0.394531C11.6221 0.394531 11.7096 0.412279 11.7908 0.445881C11.8726 0.479482 11.9467 0.528941 12.0089 0.591706L15.8014 4.38426C15.8642 4.44639 15.9136 4.52056 15.9479 4.60235C15.9815 4.6835 15.9992 4.77099 15.9992 4.85975C15.9992 4.94788 15.9815 5.03537 15.9479 5.11716C15.9136 5.19831 15.8642 5.27248 15.8014 5.33525L12.0089 9.1278C11.9467 9.18993 11.8726 9.23939 11.7914 9.27363C11.7096 9.30723 11.6228 9.32434 11.534 9.32434" fill="#404040"/>
<path d="M15.3266 5.53421H6.37648C6.19833 5.53421 6.02778 5.46319 5.90161 5.33766C5.77608 5.21149 5.70508 5.04095 5.70508 4.8628C5.70508 4.68465 5.77608 4.51411 5.90161 4.38794C6.02778 4.26178 6.19833 4.19141 6.37648 4.19141H15.3266C15.5047 4.19141 15.6753 4.26178 15.8014 4.38794C15.927 4.51411 15.998 4.68465 15.998 4.8628C15.998 5.04095 15.927 5.21149 15.8014 5.33766C15.6753 5.46319 15.5047 5.53421 15.3266 5.53421Z" fill="#404040"/>
<path d="M4.54872 5.53421H3.20656C3.02841 5.53421 2.85786 5.46319 2.73169 5.33766C2.60616 5.21149 2.53516 5.04095 2.53516 4.8628C2.53516 4.68465 2.60616 4.51411 2.73169 4.38794C2.85786 4.26178 3.02841 4.19141 3.20656 4.19141H4.54936C4.72751 4.19141 4.89805 4.26178 5.02421 4.38794C5.14975 4.51411 5.22075 4.68465 5.22075 4.8628C5.22075 5.04095 5.14975 5.21149 5.02421 5.33766C4.89805 5.46319 4.72687 5.53421 4.54872 5.53421Z" fill="#404040"/>
<path d="M0.746213 5.53421H0.671404C0.493251 5.53421 0.322702 5.46319 0.196537 5.33766C0.0710058 5.21149 0 5.04095 0 4.8628C0 4.68465 0.0710058 4.51411 0.196537 4.38794C0.322702 4.26178 0.493251 4.19141 0.671404 4.19141H0.746213C0.924365 4.19141 1.09491 4.26178 1.22107 4.38794C1.3466 4.51411 1.41761 4.68465 1.41761 4.8628C1.41761 5.04095 1.3466 5.21149 1.22107 5.33766C1.09491 5.46319 0.924365 5.53421 0.746213 5.53421Z" fill="#404040"/>
</svg>
