<svg id="Layer_1" data-name="Layer 1" xmlns="http://www.w3.org/2000/svg" viewBox="0 0 1120 800"><defs><style>.cls-1{fill:#a1a8b9;}.cls-2{fill:#d7dfe6;}.cls-3{fill:#f6f8f9;}.cls-4{fill:#c4cfda;}.cls-5{fill:#d8effe;}.cls-6{fill:#bfcbd7;}.cls-7{fill:#c5d1df;}.cls-8{fill:#e6e9f1;}.cls-9{fill:#f1f4f8;}.cls-10{fill:#485577;}.cls-11{fill:#c1cdd8;}.cls-12{fill:#fecaba;}.cls-13{fill:#f4b460;}.cls-14{fill:#fec741;}.cls-15{fill:#475577;}.cls-16{fill:#c3ceda;}.cls-17{fill:#c0ccd8;}.cls-18{fill:#e5e7ee;}.cls-19{fill:#485678;}.cls-20{fill:#c2cdd9;}.cls-21{fill:#c6d0dc;}.cls-22{fill:#c6d1db;}.cls-23{fill:#ccd6df;}.cls-24{fill:#c7d2dc;}.cls-25{fill:#67738f;}.cls-26{fill:#6d7994;}.cls-27{fill:#63708c;}.cls-28{fill:#8c7575;}.cls-29{fill:#819e91;}.cls-30{fill:#173789;}.cls-31{fill:#717a90;}.cls-32{fill:#ee8318;}.cls-33{fill:#554a44;}.cls-34{fill:#c2cdd8;}.cls-35{fill:#8b7474;}.cls-36{fill:#ccd5df;}.cls-37{fill:#628877;}.cls-38{fill:#c9d3dd;}.cls-39{fill:#6d9382;}.cls-40{fill:#769588;}.cls-41{fill:#779688;}.cls-42{fill:#8da79c;}.cls-43{fill:#739586;}.cls-44{fill:#7e9b8e;}.cls-45{fill:#829e92;}.cls-46{fill:#8ca69a;}.cls-47{fill:#668878;}.cls-48{fill:#678979;}.cls-49{fill:#fefefe;}.cls-50{fill:#fbfbfc;}.cls-51{fill:#e7e9ee;}.cls-52{fill:#c5c2bf;}.cls-53{fill:#c2bebc;}.cls-54{fill:#bfbcb9;}.cls-55{fill:#866d6d;}.cls-56{fill:#876e6e;}.cls-57{fill:#887070;}.cls-58{fill:#5e6b89;}.cls-59{fill:#626d88;}.cls-60{fill:#a9b7c7;}.cls-61{fill:#fdfdfe;}.cls-62{fill:#a0aebf;}.cls-63{fill:#a0aec0;}.cls-64{fill:#a0adbf;}.cls-65{fill:#a1aec0;}.cls-66{fill:#8d9cb1;}.cls-67{fill:#b1becd;}.cls-68{fill:#283778;}.cls-69{fill:#0a237c;}.cls-70{fill:#fdfdfd;}.cls-71{fill:#8e9cb1;}.cls-72{fill:#4a587a;}.cls-73{fill:#b9c4d1;}.cls-74{fill:#64728f;}.cls-75{fill:#6e7a95;}.cls-76{fill:#717a91;}.cls-77{fill:#f09e87;}.cls-78{fill:#32488e;}.cls-79{fill:#ef9b84;}.cls-80{fill:#2d458d;}.cls-81{fill:#545e96;}.cls-82{fill:#495793;}.cls-83{fill:#b49aaa;}.cls-84{fill:#544943;}.cls-85{fill:#5c524c;}.cls-86{fill:#698c7c;}.cls-87{fill:#618575;}.cls-88{fill:#658979;}.cls-89{fill:#d5dfdb;}.cls-90{fill:#799789;}.cls-91{fill:#584e48;}.cls-92{fill:#769e8a;}.cls-93{fill:#fdfefe;}.cls-94{fill:#6a8f7e;}.cls-95{fill:#7ea693;}.cls-96{fill:#85ad99;}.cls-97{fill:#fcfdfd;}.cls-98{fill:#678a7a;}.cls-99{fill:#b9b5b2;}.cls-100{fill:#fecab9;}.cls-101{fill:#c6d1dc;}.cls-102{fill:#c5d0db;}.cls-103{fill:#685c52;}.cls-104{fill:#594e48;}.cls-105{fill:#f7f8f8;}.cls-106{fill:#f7f7f6;}.cls-107{fill:#d4d6d2;}.cls-108{fill:#709a85;}.cls-109{fill:#fefdfd;}.cls-110{fill:#7d899f;}.cls-111{fill:#005063;}.cls-112{fill:#c7d1dc;}.cls-113{fill:#c0ccd7;}.cls-114{fill:#7b998c;}.cls-115{fill:#d0dfd7;}.cls-116{fill:#fbfcfc;}.cls-117{fill:#f1f6f3;}.cls-118{fill:#fefcfc;}.cls-119{fill:#fbc1b8;}.cls-120{fill:#fefcfb;}.cls-121{fill:#fafbfc;}.cls-122{fill:#f6f7f9;}.cls-123{fill:#cdd6e0;}</style></defs><path class="cls-1" d="M67,792.75c-.62-3.69.59-5.12,4.65-5.08,16.77.18,33.55,0,50.32,0,1.66-1.31,3.63-1.36,5.6-1.36,22,0,44.07-.13,66.11,0,32.5-.15,65,0,97.5,0,2.88,0,5.93-.59,8.51,1.4.35,1.62-.89,1.91-1.95,2.27a15.11,15.11,0,0,1-4.88.35H95.51c54.69-.12,130.06.06,205.42-.06,39.11-.06,78.22.07,117.32,0q258.74-.16,517.47-.12,78.31,0,156.62,0c3,0,6.28-.77,8.89,1.66a1.17,1.17,0,0,1-.07.9Z"/><path class="cls-2" d="M521.65,8.19c0-.31.05-.62.05-.94H785.89c0,.31,0,.62.07.93C784.27,10,782,9.6,780,9.6q-126.15,0-252.31,0C525.58,9.6,523.34,10,521.65,8.19Z"/><path class="cls-3" d="M1110,445.17h-1c-1.77-1.69-1.39-3.92-1.4-6q-.06-25.93,0-51.86c0-2.07-.37-4.3,1.41-6h.94Z"/><path class="cls-4" d="M10,307.7c1.15-.87,2.18-2.07,3.47-2.54,2.38-.87,5-.94,6.52,1.51s1.67,5.09-.28,7.18a5.24,5.24,0,0,1-6.66,1.1A24.22,24.22,0,0,1,10,312.61Z"/><path class="cls-5" d="M199.56,271.4c6.33,6.28,11.05,13.88,16.72,20.69,4.54,5.47,9,11,13.54,16.47,2,.32,2.91,1.95,4,3.34a230.7,230.7,0,0,0,16.07,18.43c5.05,5.09,6.05,4.92,10.6-.84,8-11.85,14.26-24.74,22.45-36.46a13.81,13.81,0,0,1,2-1.87c9.26-12.79,18.16-25.9,30.08-36.5,17.92-15.93,38.07-21.15,61.08-12.67a11.39,11.39,0,0,1,6.58,5.36,87.7,87.7,0,0,0,15.22,20.25c1.87,1.85,4.08,3.6,5.93-.19,6.13,5.21,11.09,11.59,16.66,17.43,1.93-2,1.67-4.08,2.27-5.89a15.9,15.9,0,0,0,.46-4.95,17,17,0,0,1,.4-3.83c1.05-2.43-.24-5.44,1.85-7.62,4.2-3.92,3.15-9.36,3.63-14.14.37-3.72,1.56-5,5.07-5.6,20.63-3.43,38.72,1.24,54.45,15.45,19.58,17.68,37.36,37.13,56.27,55.47,2.65,2.57,4.53,3.63,7.49.16,13.89-16.27,28-32.36,42-48.52a2.87,2.87,0,0,1,2.32-.42c7.59,3.42,15.91,5.41,22.3,11.21,2.23,2.49.36,5-.1,7.42-4.67,24.06-12.08,47.16-25.83,67.7-9.61,14.35-22,25.4-39.46,29.44-11.26,2.61-22.36,1.46-33.38-1.3-3.47-.87-4.89-1.05-3.86,3.62,5,22.76,9.25,45.66,11.32,68.91-.2,2.39-1.93,3.41-3.84,4.25-1.38-2-2.41-.76-3.45.38a4.08,4.08,0,0,1-4.23-.21c-5.31-4-10.66-2.35-16-.28-1.18.12-2.62-1.49-3.52.55a10.53,10.53,0,0,1-4,.61c-3-.53-2.53,3.68-5.09,3.79-12.2.91-24.4.35-36.59.36-9.9,0-19.83.59-29.71-.37-3.33-1.35-1.54-2.81,0-4.16s4.07-2.11,4.53-4.77c-1.74-1.62-5.22-.09-6-3.34-.23-4.27,1.48-6.89,6.05-7.05a3.93,3.93,0,0,0,.95-.2c5.46-1.6,7.28-5.38,7.15-14.83-.09-7-2.45-11.59-7.39-12.15-4.78-.55-6.41-3-6.87-7.12-1.64-2.07-4-.91-5.94-1.24-1.42-.23-3.17,0-3.87-1.51s.66-2.72,1.44-3.91c2.6-4,6.68-5.49,11.07-6.46,5.23-1.17,10.58-2,14.85-5.68.63-.76,1.42-1.55,1.41-2.53,0-5.16,3-8.42,6.76-11.29,5.92-6.16,4.9-12.34-2.89-15.84-10.29-4.62-20.12-3-29.31,3.06-3.54,2.32-5.5,6-6.56,10.05-.7,2-.42,4.12-.47,6.19-.1,3.87-1.29,7.21-4.45,9.65-2.79,2-6.06,3.14-9,4.81-4.77,2.68-5.1,5.61-1.23,9.54.67.69,1.81,1.26,1.58,2.29-.28,1.29-1.64,1.4-2.77,1.53-2.11.22-4.23.07-6.34.13-1.59,0-3.39-.33-3.92,1.91-.24,13.26-.54,26.51.32,39.73-1.54,3-1.54,3-6.17,3.75.55,3.09,3.16,4.1,5.27,5.63,1.31.95,3.5,2.07.45,3.7-4.71,1-9.47.49-14.2.52-12.27.07-24.54,0-36.81,0-2.44,0-4.93.22-7.22-1a3.45,3.45,0,0,1-1.21-1.44c-2.27-6.44-2-13.27-2.23-19.87-.69-21.19-.67-42.41-.05-63.61,1.16-4.13,4.92-6,7.85-8.44,15.08-12.39,29.86-25.13,45-37.46-16.78,13.65-33.13,27.8-50,41.39a12.32,12.32,0,0,0-2.48,3c-3.53,4.91-8.89,7.61-13.62,11a97,97,0,0,1-27.2,14.24,19.85,19.85,0,0,1-5.77,1c-8.41.46-16.59-.34-24.09-4.66a5,5,0,0,0-4.23-.46c-.57-3.06-2.64-4.89-5-6.7-13-9.95-22.68-22.8-30.95-36.79-12.76-21.57-22.09-44.62-29.62-68.44.24-.43.37-1.05.75-1.25C185.58,278.24,191.89,273.48,199.56,271.4Z"/><path class="cls-6" d="M671,228.14c1.47-1.49,3.37-1,5.12-1q135,0,270.07.09c3.91,0,7.86-.26,11.68.93s6.21,4.2,5.62,8.1c-1.64,10.78-3.8,21.47-5.75,32.19-1.21,1.9,1.31,3.35.66,5.18-.55,3.9,2,4.15,4.82,4.15q21.18,0,42.37,0c2.26,0,4.55-.2,6.77.5.83.39,1.59.83,1.42,1.94-1.61,1.68-3.7,1-5.58,1-15.87.05-31.74.1-47.61,0-3.63,0-5.24.65-6,4.9-4.8,28.39-10.1,56.69-15.18,85-2.46,13.76-4.8,27.56-7.2,41.34-1.22,7.05-3.73,9.92-9.74,11.14a3.38,3.38,0,0,1-1.87.44H880.39c-1.86,0-3.66.3-3-2.75C885.14,388,889.7,354.14,896,320.59c1.35-7.19.3-8.4-7.09-8.41q-74.57,0-149.11,0c-2.3,0-4.57.33-6.85.39-5-.06-6,.59-7.23,6.41-2.13,9.88-3.66,19.88-5.44,29.83-3.85,21.5-7.48,43-11.47,64.52a24,24,0,0,0-.63,5.33c.09,1.76.49,3.3,2.73,3.25,1.36.32,2.55.78,2.28,2.55q-36.74.1-73.47.22c-1.44,0-3,.26-4.05-1.14,1.07-1,3-1.5,1.71-3.79-1.56-2.73-.9-5.69-.38-8.62,9.9-56.19,20.1-112.32,29.85-168.54.7-4,1.29-8.12,4.07-11.4A2.07,2.07,0,0,0,671,228.14Z"/><path class="cls-7" d="M713.17,424.45l-1.88-1.88c-3.1-1.66-2.18-4.43-1.77-6.91,3.16-18.84,6.53-37.64,9.89-56.44,2.42-13.5,4.9-27,7.27-40.49.54-3.07.7-6.77,5.2-7.1a26.63,26.63,0,0,1,8.2-1q74.85.06,149.71,0c8.29,0,9.46,1.42,8,9.4-3.89,21.22-7.81,42.43-11.58,63.67-1.87,10.55-3.37,21.16-5.2,31.71-.46,2.64-.91,5.43-4.19,8.17h45.67c-1.5,1.46-3.4.88-5.13.89q-32.33.11-64.64.12c-1.77-1-2-2.87-2.42-4.61-3.86-16.57-8-33.08-11.7-49.67-.6-2.65-1.06-5.28-4.63-5.25-17.8-.07-35.59,0-53.39,0-5.65,0-6,.45-6.05,6.2q0,22.28,0,44.55c0,1.77-.32,3.62.9,5.17,2.36,2.2,5.76.41,8.23,2.14a1,1,0,0,1,.26,1.42Z"/><path class="cls-8" d="M419.63,459.82l69.68,0c1-1.08,2.27-1.2,3.58-1.33a44.91,44.91,0,0,1,6.86-.21q105.82,0,211.64,0a16.85,16.85,0,0,1,5.83.6c4.1.87,8.46,3.31,11.52-2a22.94,22.94,0,0,0,9.07,1.47c9.93,0,19.86-.13,29.79.05,36.65-.32,73.3-.1,109.95-.11,2,0,4,.08,5.53,1.56,20.9,0,41.8.1,62.69-.09,4.08,0,5.27,1.14,5.23,5.21-.14,13.54,0,13.54-13.46,13.54l-5.39,0c-4,2.37-8.51,1.25-12.77,1.81-7.56-.85-15.15-.05-22.72-.4-1.75-.07-3.46.41-5.21.29-9.35-.39-18.7-.4-28,0-8.12-.49-16.24-.1-24.36-.33-3.54-.1-6.73.45-9.53,2.71-3.11-2.73-6.9-2.55-10.67-2.55q-103.49,0-207,0c-5.86,0-11.76-1-17.58.46-44.39-1.19-88.78,0-133.17-.68-4.74,0-9.48-.16-14.22.12-20.69,0-41.39.24-62.09-.1h-1.89c-15.35.23-30.7.2-46.05,0L335,480c-3.09.09-6.18.17-9.26,0-22.75-.25-45.49.35-68.23.07-3.65-.08-7.32-.07-11-.06-2.09,0-4.17.07-5.66,1.88-3.06,2.26-3.56-2.49-5.92-2.18-1.55-1.83-3.66-1.07-5.52-1.08-16.83-.05-33.66-.13-50.48.05-3.75,0-5.09-.88-5.06-4.89.09-13.85-.07-13.85,13.65-13.85,20.1,0,40.2-.05,60.29.05,3,0,5.24-.32,4.8-4.09,3.66,2.61,7.85,2.52,12.1,2.52,16.63,0,33.26.2,49.9.16,2.24,0,4.61-.43,6.57,1.21l59.91.07c1.4-1.43,3.25-1.44,5-1.46q14.22-.14,28.44,0C416.39,458.37,418.24,458.39,419.63,459.82Z"/><path class="cls-9" d="M949.58,645.34c13.88,0,27.76.23,41.64,0,3.95-.06,5,1.19,4.93,5-.22,11.42.46,22.89-.2,34.28-1.09,18.91-2.41,37.79-6.23,56.48-3.36,16.39-8.25,32.05-16.24,46.73a14.14,14.14,0,0,1-13.91-.37c-3.4-8.19-4.22-17-6-25.59q-8.61-40.39-16.92-80.86-3.43-16.5-6.87-33c-.37-1.76-.91-3.51.1-5.23,5.62,1.65,11.35,1.39,17.1,1A3.33,3.33,0,0,1,949.58,645.34Z"/><path class="cls-6" d="M883.08,459.89l-116-.12a3.91,3.91,0,0,1-.75-1.23c-2-7-2-7-9.16-7-4.53,0-9.06.06-13.58,0-2.06,0-4.27.25-5.85-1.63,1.58-1.28,3.45-.75,5.2-.76q23.49-.07,47-.06c1.8-.91,3.46,0,5.16.4,19.16.25,38.32,0,57.47-.17.63-.48-.41-.89,0-.37.2.25.12.4-.21.44-.65.08.25.15-.4.15-12.42.06-24.85.13-37.28,0-6.84-.07-13.7.74-20.51-.5-1.68-1-2.25-2.77-2.65-4.52-5.59-24.33-11.87-48.51-16.94-73a16.46,16.46,0,0,1-.38-3.89c-.15-3.8,2.47-3.49,5-3.49q25.29,0,50.57,0c1.76,0,3.6.48,5.29-.48,4.31-.83,4.17,2.69,4.75,5.13,4.38,18.59,8.65,37.2,13,55.81,1.64,6.95,3.35,13.89,4.88,20.86.58,2.67,1.84,3.84,4.68,3.74,5.05-.19,10.13.23,15.16-.14,4.68-.34,6.23,1.54,5.69,5.93A39.86,39.86,0,0,0,883.08,459.89Z"/><path class="cls-10" d="M959.85,786.81c4.37,2.65,9.08.86,13.63,1.07,8.48.07,17,.21,25.45.22q49,0,98,0c2.3,0,6-1.14,4.31,3.71-2.12,0-4.25-.08-6.38-.08H75c-1.64,0-3.27,0-4.91,0-1,0-2.08-.17-2-1.53s1.14-1.41,2.14-1.44c1.47,0,2.94,0,4.42,0q109.74,0,219.49,0c1.82,0,3.94.92,5.5-1a.85.85,0,0,1,.63-1.2,10.85,10.85,0,0,1,4.1.72c9.31,0,18.61.85,27.9-.7,5.2-.87,10.42.63,15.6.72,16.19.29,32.4.39,48.6,0,5.12-1.35,10.26-.91,15.46-.41a142.57,142.57,0,0,0,31.52-.15c17.88-.86,35.77-.34,53.66-.3,6.41-.89,12.62,1.18,19,1.13,27-.18,53.93-.07,80.89-.09,2.44,0,4.91.23,7.29-.63,7.26-1.09,14.57-.46,21.86-.5,10.7-.06,21.41-.22,32.12.1,32.22-.35,64.44-.13,96.67-.13,24.2,0,48.41-.24,72.62.13,1.28,0,2.57,0,3.85,0,20.13-.27,40.25-.22,60.37,0,21.07-.26,42.13.08,63.19-.2A12.69,12.69,0,0,1,959.85,786.81Z"/><path class="cls-11" d="M521.65,8.19H786c10.91,2,18.6,10,18.61,20.08q.07,86.21,0,172.41c-2.28-.3-2.11-2.16-2.27-3.71a57.64,57.64,0,0,1-.09-5.88q0-78,0-156c0-2.6.28-5.25-.85-7.73-4.22-12-9.15-15.63-21.74-15.63-83.78,0-167.56.13-251.34-.15-14.53,0-21.74,9.5-21.72,21.5q.14,64,0,128.09c0,3.65,1.31,7.07,1.45,10.67-.31,1.2-.34,2.69-2.26,2.31-4.32-3.15-4.19-7.88-4.2-12.43-.09-23.22,0-46.45,0-69.67,0-1.64,0-3.27-.09-4.91-.11-2.37-1.27-3.58-3.66-3.66-1.31,0-2.62-.07-3.93-.07H340.17c-.82,0-1.64,0-2.45,0-5.34.16-5.93.63-5.94,6q-.09,52,0,104c0,6.73,1.67,8.37,8.49,8.52,9.32.22,18.65,0,28,.08,2.81,0,5.13-.73,6.74-3.15,3.1,1.45,3.23,2,1.56,6.55-12.92,0-25.84.12-38.76.07-7.12,0-9.62-2.69-9.62-9.9q0-67,0-133.91c0-7.77,2.61-10.21,10.89-10.22H494.6c8.43,0,8.29,0,8.48-8.67.13-6-.8-12.07.76-18C506.27,15.44,512.29,10.05,521.65,8.19Z"/><path class="cls-12" d="M412.66,252.84a39.25,39.25,0,0,1-26.45-17c-3.15-4.56-2.22-11.61-2-17.63-.86-3.89-2.63-7.63-1.07-11.82,1.92-5.12,5.44-6.22,9.76-2.79.85.68,1.49,2.12,2.78,1.51s.85-2,.91-3.09a48.38,48.38,0,0,0-.69-7.78c-.51-4.76.49-6.45,5-7.36,6.52-1.3,12.95-3.41,19.74-2.81a3.15,3.15,0,0,1,1.14.8c2.14,3.35,3.64,1.46,5.11-.65.48-.87,1-1.63,2.18-1.58a2.44,2.44,0,0,1,1.17,1c2.45,6.34,2.76,13,3.2,19.7a4.53,4.53,0,0,1-1.12,2.17c-.59,8.17-.91,16.45-9.47,21.05a2.15,2.15,0,0,0-1.1,2.91c4,8.42-1.91,14-5.68,20.24a25.06,25.06,0,0,1-2.47,3C413.35,253.19,413,253.22,412.66,252.84Z"/><path class="cls-13" d="M930.35,557.15c11.13,12,19.23,25.69,22.9,41.8a97,97,0,0,1,2.46,19.27c0,1.23-.48,2.65.92,3.55.45,3.43-1.7,5.74-3.51,8.21-7.78-1.35-14-5.65-19.74-10.74a61.67,61.67,0,0,1-7.81-8,5.86,5.86,0,0,0-3.45-2.3c-3.18-9.79-4.5-20-6.82-30a70.32,70.32,0,0,1-2.08-11.54c0-4.94,1.35-9.57,3.14-14.08,1.34-3.36,3.79-4.38,6.95-2.45C926,552.52,929.11,553.83,930.35,557.15Z"/><path class="cls-14" d="M990.17,538.47c-11.42-5.63-18.81-15.05-23.72-26.37-5.12-11.8-7.92-24.17-5.83-37.19a19.86,19.86,0,0,1,.89-3.3c2-5.88,3.56-6.65,9.32-4.25,13.53,5.64,24.78,13.8,27.89,29.15,2.74,13.51,0,26.52-5.59,39-2.28,0-1.79-1.84-1.94-3.16a87,87,0,0,0-1.9-10.89,135.09,135.09,0,0,0-5.64-19.61c-1.86-4.46-3.41-9-6.32-13.91.07.13-.3,1,.18.58,2.8,4.39,4.42,9.3,6.32,14.1,2.66,6.78,4.26,13.86,5.93,20.92.49,3.81,1.67,7.51,1.46,11.41C991.16,536.24,991.28,537.51,990.17,538.47Z"/><path class="cls-13" d="M1014.56,543.24c2.18-1,4.47-1.46,6.26-3.4,13.44-14.56,30.16-16.85,48.44-12.39,9.69,2.36,9.33,2.4,4.18,11-11.32,18.88-29,25-49.63,25.57-6.23,3.78-13,2.24-19.65,2-1.75-2.89,1-3.75,2.47-4.86a142.9,142.9,0,0,1,37.27-21.06,72,72,0,0,1,7.11-2.71,149,149,0,0,0-45.76,24.74,5.52,5.52,0,0,1-2,1.33c-3.27-1.1-1.5-3-.56-4.5a128.83,128.83,0,0,1,9.49-12.25C1013.08,545.65,1014.48,544.89,1014.56,543.24Z"/><path class="cls-14" d="M930.35,557.15c-2.67-1.82-5.32-3.67-8-5.48-2.37-1.59-4-.79-4.79,1.76-1.45,4.46-3.1,8.88-3.14,13.67a2.15,2.15,0,0,1-1.92-1.94c-1.66-8.3-4.09-16.47-4.58-25,.47-1.54,1.81-2.26,3-3.07,9.94-6.65,17.5-15.13,20.79-26.91a3.86,3.86,0,0,1,1.56-2.41c8-1.51,16.08-2.3,24.18-3.06,3.33-.31,3.87.22,3.4,3.42C957.82,529,948,545.47,930.35,557.15Z"/><path class="cls-6" d="M717.22,458.88c-1.28,1.49-3,1-4.6,1q-108.39,0-216.77,0c-1.31,0-2.61-.14-3.92-.22a2.94,2.94,0,0,1,.14-3.67l5.24-.18a1.12,1.12,0,0,1,1.51-.08c1.52-2.41,3.7-3,6.46-2.8,2.54.17,5.16.47,7.67-.43,1.15-.42,2.42-.55,2.69,1,.63,3.57,3.22,2.26,5.29,2.29a1.93,1.93,0,0,1,2.58,0l4.17-3.86c4.74.73,10.07-1.63,14.13,2.87.52.57,2.19.1,3.32.11,1.72-.09,1.91-1.8,2.88-2.68,4.19-.06,8.37-.14,12.56-.18,1.63,0,3.23,0,4.23,1.69,1.19,2,3.15,1.06,4.83,1.15s2-1.78,2.94-2.66l12.54-.18c1.62,0,3.22,0,4.22,1.69,1.18,2,3.13,1.07,4.81,1.14s2-1.74,3-2.62c4.24-.07,8.48-.16,12.72-.2,1.28,0,2.44.05,3.35,1.43,1.53,2.31,3.44,2.36,4.86-.14,1-1.69,2.36-1.4,3.8-1.39,3.75,0,7.5,0,11.26.09,1.87,0,3.79-.39,5,2,.68,1.43,2.56,1.25,3.88.33,4.76-3.32,16.29-3.47,20.65-.13,1,.8,2.68,1.13,3.13.47,3.48-5.13,8.56-2.22,12.86-2.58,3.07-.26,6.88-1.62,9.12,2.46.4.73,2.16.59,3.2-.08,5.69-3.68,15.64-3.57,21.35.17C714.05,456,717.5,455.14,717.22,458.88Z"/><path class="cls-13" d="M933.28,507.79c-2.83,14.71-11.62,24.79-24.57,31.63a4.26,4.26,0,0,1-2.14-3.11c-1.73-8.06-3.84-16-4.77-24.26.26-2.64,2.82-3.81,3.41-5.8-1,.63-1.5,3.78-4.06,1.46a36.29,36.29,0,0,1-2.88-13A69.62,69.62,0,0,1,914.51,481c1.52-.91,3-2,4.93-1.54,4.15-1.46,8.46-.83,12.71-.93.56,7.36,2.38,14.6,2,22.06A30.74,30.74,0,0,1,933.28,507.79Z"/><path class="cls-13" d="M962.58,614c4.17-.15,6.43-3.73,9.69-5.52,17.22-9.44,34.5-9.5,52.14-1.41,3.89,1.78,3.44,3.44.76,6-13.49,12.83-29.46,16.76-47.45,13.31-6.39-1.23-12.86-2.2-19-4.53-.59-3.08,1.7-5.18,2.66-7.73A.83.83,0,0,1,962.58,614Z"/><path class="cls-15" d="M671,228.14h5.57c-8.91,5.26-8,13.66-9.35,21C660.29,287,653.68,324.91,647,362.82c-3,17-6,34.06-9.15,51.07-.69,3.75.67,6.67,3.34,9.19-2,1.39-3.78.27-5.49.45-4.72-2.7-4.73-6.93-3.9-11.56q8.58-47.75,17.08-95.52c4.47-25.09,9-50.16,13.34-75.27C663.17,235.39,664.92,230.39,671,228.14Z"/><path class="cls-12" d="M602.2,259.58c2.94-4.89,5.79-9.84,8.84-14.66,3.41-5.37,8.28-8.2,14.78-7.92a43.17,43.17,0,0,1,4.41,0c6.81,1.08,11.7-1.52,15-7.46,1-1.9,2.57-4.24,4.72-3.59,2.5.75,1.2,3.67,1.41,5.66.74,7.3-3.22,12-8.94,15.61a21.29,21.29,0,0,1-9.08,3.49c-9.57.94-13.67,6.74-14.5,15.67a2.15,2.15,0,0,1-2.18.78C611.4,265.5,605.88,264.27,602.2,259.58Z"/><path class="cls-14" d="M1003.86,564.87c6.67.24,13.34.39,19.95-.85-5.21,13.76-15.36,21.87-29.34,25.49-6,1.55-11.76,3.86-18.05,3.93-1.27-1.61,0-2.84.86-3.82,2.2-2.38,3.9-5.17,6.21-7.45a46.06,46.06,0,0,1,10.06-10C997,569.77,998.67,564.79,1003.86,564.87Z"/><path class="cls-16" d="M1108,447.14c-1.62,4.9-5.41,6.83-10.15,6.85q-29.94.15-59.88,0c-6.27,0-11.26-5.24-11.34-12.38-.2-19-.26-37.95,0-56.92.12-8.21,5.14-12.95,13.45-13,18.65-.2,37.3,0,56-.12,2.61,0,4.58,1.65,7,2,.05,1.7-1.31,1.83-2.45,2.22-17.8.56-35.6.1-53.41.25-2.61,0-5.23-.1-7.84.07-5.59.37-8.26,3.05-8.38,8.73-.17,7.34,0,14.7,0,22.05,0,11.1-.09,22.21,0,33.32.09,7.62,2.78,10.3,10.45,10.34,16.5.1,33-.18,49.5.14,6.71.13,12.27-1,15.73-7.33C1109.74,443.67,1108.27,445.62,1108,447.14Z"/><path class="cls-4" d="M954.47,158.54c-6.54,0-13.09,0-19.63,0s-9.47-1.81-9.9-8.18a276.34,276.34,0,0,1,.11-43.06c.55-6.29,3.51-8.5,9.82-8.59q19.86-.27,39.75,0c7,.09,10.47,3.66,10.55,10.75q.23,19.64,0,39.25c-.08,6.6-3.6,9.81-10.09,9.83C968.21,158.55,961.34,158.54,954.47,158.54Z"/><path class="cls-4" d="M802.65,26.89c1.6,1.65.89,3.72.89,5.6q.06,81.3.07,162.6c0,1.87-.75,4,.93,5.58-2.24,4.06-4.59,4.6-7.88,1.44-4.6-4.41-9-9-13.47-13.56a7.69,7.69,0,0,0-6-2.68q-98.29.15-196.58.16c.16-2.35,2.05-2.18,3.58-2.35a54.9,54.9,0,0,1,5.88-.1H771.9a83.52,83.52,0,0,0,8.81-.21c2.68.21,4.32,2.12,6.07,3.81,3.42,3.28,6.66,6.74,10.11,10,.81.76,1.72,1.82,3,1.29s1.07-1.91,1.16-3c.15-1.79.07-3.59.07-5.39q0-77.37,0-154.76C801.11,32.44,800.36,29.36,802.65,26.89Z"/><path class="cls-10" d="M737.7,449.91c7.95.07,15.91.47,23.83.08,4.81-.24,6.51,1.26,5.73,5.9a33.39,33.39,0,0,0-.22,3.88c-11.56,0-23.12,0-34.68.08-2.1,0-4,0-3.62-2.93C730.46,453,733.23,450.35,737.7,449.91Z"/><path class="cls-17" d="M781,184c-1.81,1.72-4.05.91-6.08.91q-94.12.07-188.25.08c-2,0-4.28-.89-6,1,0,3.83,0,7.66,0,11.49,0,2.5-.56,4.75-3,6.09a2,2,0,0,1-1.42-2.06c.37-2.89.86-5.76,1-8.71.14-4-1.61-5.45-5.52-5.43-13.67.09-27.34,0-41,0-2,0-3.91.05-5.85-.12s-3.9-.5-5.17-2.29c.15-2.22,2-2.07,3.46-2.49a42.15,42.15,0,0,1,5.39-.15q121.53,0,243.05,0C774.75,182.42,778.17,181.58,781,184Z"/><path class="cls-14" d="M1014.56,543.24c3.43,1,.44,2.16-.12,2.77a136.87,136.87,0,0,0-11.17,14.12c-.61.87-1.83,1.67-.38,2.83-2.34,4.18-6.56,6.5-9.78,9.82-2.05,1.08-3.69,4.78-5.61,3.58-2.36-1.47.37-4.32.87-6.55,1-4.41,2.33-8.74,2.75-13.29.17-1.86.42-3.9,2-5.32C999.88,547.48,1006.46,543.32,1014.56,543.24Z"/><path class="cls-18" d="M412.66,252.84l1-.1c2.65,4.11,7.26,5.83,10.81,8.84-.65,1.09.21,2.19,0,3.28a14.6,14.6,0,0,1-.19,2.8,14.14,14.14,0,0,0-.78,5.62,23.21,23.21,0,0,1-.13,2.89,20.35,20.35,0,0,0-1,5.63c-1,2.61-2.63,1.51-3.72.38-4.93-5.13-10.53-9.62-14.67-15.49C407.1,262.22,411,258.21,412.66,252.84Z"/><path class="cls-19" d="M775.05,368.68q8.87,37.85,17.75,75.69c.3,1.27.72,2.51,1.08,3.76.36.71.55,1.39-.35,1.85a6.07,6.07,0,0,1-3.64-.89,186.76,186.76,0,0,0-6-24.54,1.39,1.39,0,0,0-.14-.87,10.27,10.27,0,0,1-2.06-4.39c-2.84-11.89-6.35-23.64-8.07-35.79,0-4.17,0-8.34,0-12.5C773.68,370.08,773.07,368.53,775.05,368.68Z"/><path class="cls-6" d="M576.59,202.6l1.08,1c-2,2.34-4.67,1.93-7.25,1.93H432.36c0-.68,0-1.36,0-2,2.56-2,5.62-1.44,8.5-1.44q62.79-.06,125.57,0C569.82,202.09,573.29,201,576.59,202.6Z"/><path class="cls-20" d="M868.23,204.66c-7.86,0-15.71,0-23.56,0-1.69,0-4.14.53-4.24-2-.08-2.13,1.92-2.82,3.88-2.82q24,0,48.09,0c2,0,4,.63,4,2.72,0,2.59-2.42,2.12-4.13,2.13C884.26,204.68,876.24,204.66,868.23,204.66Z"/><path class="cls-20" d="M1005.9,305.71c7.69,0,15.37,0,23.06,0,1.77,0,4.08-.27,4.18,2.21s-2.23,2.58-4,2.59q-23.81.09-47.59,0c-1.73,0-4.06-.19-3.93-2.62s2.45-2.16,4.21-2.16C989.87,305.7,997.89,305.71,1005.9,305.71Z"/><path class="cls-14" d="M975.48,590.49c.23-13.73,4.61-25.76,14.48-35.58,1.36.86,1.29,2.25,1,3.5-1.48,7.82-3.35,15.54-6.66,22.84C981.33,584.26,980.12,589,975.48,590.49Z"/><path class="cls-18" d="M602.2,259.58c5.47,2.46,10.42,6.21,16.64,6.84,4,3.19-.16,6.5.15,9.74-8.26-3.48-16-8.15-24.62-10.79C597.63,264.32,597.93,259.27,602.2,259.58Z"/><path class="cls-21" d="M1101.11,374.49a2.11,2.11,0,0,0,2-1c3,1.82,5.24,4.25,6,7.83q0,31.91,0,63.83c-.34.66-.67,1.32-1,2-.15-1.35.44-2.87-.92-3.93-2-2-1.55-4.54-1.56-6.92-.06-13.84-.16-27.68,0-41.51C1105.69,387.6,1105.77,380.56,1101.11,374.49Z"/><path class="cls-22" d="M957.77,272.36c-.49-1.3-1.77-2.59-.06-3.92.64,3,3,1.9,4.77,1.91,15.63.08,31.27,0,46.91,0,2.52,0,5.05.34,6.14,3s1,5.11-1.78,6.8l-1.1-1c-.76-4.1-3.34-5.38-7.34-5.34-13.53.11-27.06.08-40.58,0C962.34,273.82,959.78,274.28,957.77,272.36Z"/><path class="cls-23" d="M1080.42,326.06c0,4.6-.06,8.33,5.25,7.3a1.28,1.28,0,0,1,1.5,1.48,1.19,1.19,0,0,1-1.32,1.16c-5.14-.89-5.83,2.38-5.25,6.46-2.22-.61-2.07-1.91-2-3,.19-2.58-.94-3.57-3.45-3.38-1.12.08-2.68.06-2.78-1.32s1.47-1.66,2.55-1.49C1080.24,334.13,1077.6,328.82,1080.42,326.06Z"/><path class="cls-24" d="M1084.75,174.5c2.75.61,5.23,2.43,5.16,5.72a5.4,5.4,0,0,1-5.71,5.49c-3.41,0-5.45-2.3-5.48-5.65S1081,174.89,1084.75,174.5Z"/><path class="cls-24" d="M845.9,40.38c.18,3.73-2.16,5.68-5.28,5.84-3.37.18-5.45-2.26-5.49-5.62,0-3.15,2-5.49,5.06-5.57S845.72,36.76,845.9,40.38Z"/><path class="cls-22" d="M883.89,100.19c-7,2.52-7,2.52-8.56,8.76-1.17-4-.54-9.73-8.26-8,5.13-.78,8.54-2.29,7.85-8,2.12,2,.4,4.9,2.12,5.94C878.56,99.83,880.73,99.67,883.89,100.19Z"/><path class="cls-25" d="M597.09,452.28c.15,1.11.72,2.36-.39,3.2-.91.68-1.85.28-2.56-.58C594,452.79,594.91,451.81,597.09,452.28Z"/><path class="cls-26" d="M572.57,452.25c.36,2.38.79,4.83-2.94,2.66C569.53,452.82,570.41,451.83,572.57,452.25Z"/><path class="cls-27" d="M548,452.25c.39,2.34.85,4.76-2.88,2.68C545,452.84,545.83,451.84,548,452.25Z"/><path class="cls-28" d="M423.53,264.52c-.07-1.1-.38-2.28.92-2.94l1,1c-.23,2.67.69,5.47-.91,8C422.54,268.81,425,266.34,423.53,264.52Z"/><path class="cls-29" d="M965.67,605.23l1.07,1.17-2.17,3.7c-.93.1-1.54-.07-1-1.2Z"/><path class="cls-9" d="M193.74,787.62H121.93c-7.86-12.18-12.45-25.64-15-39.79-1.24-6.83-1.79-13.79-2.63-20.69-1.25-10.21-.8-20.47-1.08-30.71-.1-4,1.26-5,5-4.9,9,.24,18,.1,26.93.06,1.84,0,4.13.66,4.63-2.24a1.92,1.92,0,0,1,1.27.13,4.89,4.89,0,0,0,3.16.79c3.57,0,7.14-.29,10.67,0,3.72.32,6.56-.8,8.72-3.78,2.14.3,1.37,4,4.12,3.55,7.53.15,15,0,22.55.06,1.46.18,2.92,0,4.38.08q6.85-.11,13.7,0c3.32,0,5.22,1.57,5.29,5,.55,27.52-.48,54.84-11.78,80.6C200,780.2,198.49,785.11,193.74,787.62Z"/><path class="cls-30" d="M421.51,184.79c-7.37.4-14.5,2.32-21.74,3.52-2.24.38-2.94,1.46-2.7,3.69.47,4.22.73,8.46,1,12.7.08,1.25.55,2.85-1.22,3.28a3.22,3.22,0,0,1-3.41-1.47c-1.59-2.32-3.11-5.24-6.49-3.48s-3,5.31-3.32,8.62c-.2,2.31,3,4.23.55,6.61-4.89-2.87-6-8-7.66-12.8-.19-2.33.28-4.76-1.06-6.91-5.22-15.68-3.77-29.27,10.67-35.32,8.94-3.74,17.82-7.24,27.64-7.62,2.69-.1,5.51-.31,6.15,3.15.3,1.64,1,1.25,1.95,1a23.9,23.9,0,0,1,6.79-.67c6.74.07,9.17,2.35,9.4,9a18.66,18.66,0,0,1-2,9.48c-1.42,2.69-3,5.47-6.77,5.42l-.45,0-.43.14C426.34,184.56,424.2,185.83,421.51,184.79Z"/><path class="cls-13" d="M138.48,680.92c-15.74.32-30.39-3.08-43.37-12.46-11.5-8.31-18.3-19.67-22.2-33.05-.63-2.15-.08-2.65,2.12-3,22.82-3.35,41,4.27,54.66,22.77,1,1.31,1.9,2.63,2.85,3.94l.72.11a5.51,5.51,0,0,1,2.52,2.57,10.07,10.07,0,0,1,1.1,3.5c.4,4.88,2.66,9.45,2.49,14.44A1.9,1.9,0,0,1,138.48,680.92Z"/><path class="cls-31" d="M321.23,459.74c-21.41,0-42.83-.1-64.24.15-3.44,0-3.39-2.18-4.33-4q-4.2-27.92-8.39-55.84c-.24-1.6-.44-3.21-.65-4.82,0-2.12.69-3,2.85-1.67,7.95,4.82,16.68,6.16,25.8,5.63,2.74,17.42,5.23,34.88,8.06,52.28.91,5.58,1.26,6,6.83,6,9.15.07,18.31,0,27.46,0,2.25,0,4.62-.36,6.54,1.35A2.59,2.59,0,0,1,321.23,459.74Z"/><path class="cls-32" d="M187.73,592.46c-3-15.1-2.5-29.35,9.16-41.29,6.83-7,14.05-13.11,24-15.13a12.15,12.15,0,0,0,3-1.57c1.44-.18,3-1.07,4,.91,1.83,13.49-.53,26.06-8.19,37.47-2.23,1.55-2.74,4.43-4.7,6.19-3.71,2.62-6.56,6.18-9.93,9.17a58.14,58.14,0,0,1-12.39,8.45c-1.54.78-3.1,1.94-5,.84,1.38-6.85,5.71-12.16,9.35-17.83,1.74-2.82,4.1-5.16,5.92-7.93-1.83,2.6-4,5-5.81,7.56-2.62,3.44-4.61,7.28-6.86,11C189.69,591.2,189.65,593,187.73,592.46Z"/><path class="cls-13" d="M132.77,582.63c-4.72-10.27-2.87-21.12-2.73-31.8,0-1.46.58-2.42,2.51-1.66,15.06,5.89,28.59,13.49,35.58,29.27,4,8.94,4.74,18.18,3.8,27.73a1.5,1.5,0,0,1-1.28.38c-2-4.22-2.68-8.86-4.41-13.19a62.9,62.9,0,0,0-11-18.3c7.23,8.13,11.36,17.81,14.08,28.17a5.83,5.83,0,0,1,0,4.29c-2.19,2.09-4.7,1.53-7.22.91-4.67-1.88-9.6-3.31-13.16-7.24-.85-2.55.43-4.78,1.13-7.08a84.33,84.33,0,0,0,2.24-9c1.33-7.14.2-8.12-6.92-6a44.92,44.92,0,0,0-7.49,3.53C136.22,583.51,134.43,585.09,132.77,582.63Z"/><path class="cls-33" d="M227,534.49c-1,.82-2.07,1.59-3.09,0q5.29-25.49,10.57-51c.26-1.27.37-2.56.55-3.84,4.4-3.49,3.38,1.65,4.75,3,1.85,1.47,2,3.69,2.4,5.74,8.54,40.8,16.94,81.63,25.49,122.42q17.86,85.2,35.59,170.42c.37,1.75.86,3.5.34,5.32a2.6,2.6,0,0,1-1,1.3l-2.6-.91c-1.89-1.18-2.1-3.21-2.5-5.11-8.74-41.41-17.27-82.86-26-124.28C264,622,256.65,586.51,249.18,551c-4.12-19.64-8.34-39.26-12.17-58.45-2.44,12.63-5.34,25.64-8.06,38.68A4.62,4.62,0,0,1,227,534.49Z"/><path class="cls-32" d="M119.89,628.89C107.64,622,95.46,614.9,88,602.31c-4.12-6.94-4.67-14.81-5.19-22.64-.17-2.53.89-2.88,3.3-2.38,15.29,3.2,26.85,10.59,31.37,26.56,2.14,7.53,4.28,15,4.53,22.92-1.94.58-2-1.24-2.58-2.18a144.79,144.79,0,0,0-14.13-19.84c-.42-.5-.62.56-.24,0,.06-.09.2,0,.4.22A131.13,131.13,0,0,1,119,624.1C119.74,625.51,121.48,626.93,119.89,628.89Z"/><path class="cls-32" d="M171,606.19l.89,0c3,2,2.49,5.16,1.92,7.81a49.69,49.69,0,0,0-1,11.83c-1.84.24-.95-1.36-1.4-2.13a13.1,13.1,0,0,1,0,2.25c-6.14,13.14-16.77,22-28.38,30a2.44,2.44,0,0,1-2.73.38c-1.59-2.62.8-4.81.63-6.61.31-1.3-.74-1-.09-1,.11,0,.15.16.07.43-.71,2.2-.53,4.77-2.65,6.39-2.74-1.52-2.62-4.33-2.84-6.81C133.75,629.23,142.7,615,161,608.06a3,3,0,0,0,1.16-.84,9.25,9.25,0,0,0,7-.11C169.63,606.44,170.55,606.74,171,606.19Z"/><path class="cls-31" d="M261.4,330.26a1.27,1.27,0,0,1-.16.45c-5.27,6.47-6.08,6.58-11.86.72a229.13,229.13,0,0,1-19.56-22.87c0-12.34,5-17.37,17.51-17.46s25,0,37.58.06a1.81,1.81,0,0,1-.84,1.86c-9.89.85-19.81,0-29.87.47C259.39,305.26,259.64,317.9,261.4,330.26Z"/><path class="cls-32" d="M132.77,582.63c1.76,1,3.06,0,4.4-1a29.21,29.21,0,0,1,11.61-4.79c4.81-.93,6.44.61,5.43,5.4-1.07,5.05-2.57,10-3.86,15-.32,1.25-.57,2.51-.85,3.76-3.47,9.32-9.8,16.34-17.83,21.92-1.16.8-2.62,2.27-4.23.45-.12-3,.93-5.89.95-8.88a66.2,66.2,0,0,1,3.75-12A62.35,62.35,0,0,0,128.46,614c-.54,3.37-.45,6.86-1.8,10.08-4.86-10.08-5.55-20.26-.8-30.61a20.77,20.77,0,0,1,4.7-6.2C131.87,586,133.16,584.71,132.77,582.63Z"/><path class="cls-12" d="M178.05,274.25c-1.05-3.76-2.13-7.51-3.12-11.29-.45-1.75-1.73-2-3.24-2.46-5.33-1.44-10.84-2.34-15.82-5-7.63-4-11.18-10.38-10.35-18.84.13-1.3,0-2.77,1.62-3.21,1.33-.38,2.31.7,2.79,1.6,5.15,9.72,13.85,10.49,23.44,9.87,5-.33,9.18,2.08,11.86,6.48,3.23,5.29,6.32,10.66,9.48,16C189.93,271.61,184.81,274.92,178.05,274.25Z"/><path class="cls-11" d="M227,221.28c-9.32,0-18.64,0-28,0-7.92,0-13.06-4.68-13.14-12.61q-.28-28.68,0-57.37c.08-7.47,5-12.3,12.49-12.36q29.19-.27,58.37,0a11.52,11.52,0,0,1,11.44,11.71q.19,29.43,0,58.85c-.05,7.13-5.09,11.75-12.26,11.78C246.33,221.31,236.68,221.28,227,221.28Z"/><path class="cls-34" d="M43.35,391.19c-2-1.8-2.21-3.78-.89-6.12,1.43-2.57,3.69-2.82,6.27-2.82q49.53.06,99,0c12.75,0,25.49.06,38.24,0,3,0,5.26,1,6.27,3.71s-.19,4.75-2.55,6.21c-1.58.81-2.24.21-2.21-1.45,1.07-3,.09-4.7-3.24-4.81-.81,0-1.63-.08-2.44-.08q-64.62,0-129.22,0c-3.12,0-6.42-.24-7.3,3.95C44.91,390.58,44.48,391.38,43.35,391.19Z"/><path class="cls-4" d="M43.35,391.19l1.06-1.09a9.27,9.27,0,0,1,4.33-.58c43.69.1,87.38,0,131.07.07,2.72,0,5.63-.56,8,1.57a2,2,0,0,0,2,1c-1.45,1.57-3.36,1-5.08,1q-67.6.06-135.19,0C47.26,393.12,44.76,393.8,43.35,391.19Z"/><path class="cls-20" d="M115.15,352.9c-5.72,0-11.44.06-17.15,0-1.6,0-4.15.92-4.34-1.75-.21-3,2.51-3,4.56-3,9.15-.08,18.29,0,27.44,0,2.77,0,5.55-.07,8.32.08,1.73.1,3.38,1,3.23,2.93s-2,1.83-3.45,1.84C127.56,352.91,121.35,352.9,115.15,352.9Z"/><path class="cls-18" d="M178.05,274.25c6-1.24,11.14-4.47,16.65-6.82,3.68-1.2,3.55,2.27,4.86,4-6.87,4.52-14.3,8-21.53,11.87C178,280.26,174,277.25,178.05,274.25Z"/><path class="cls-35" d="M423.53,264.52c1.74,1.77.57,4,1,6,0,1.27-.09,2.54-.14,3.81-1,1.56.14,3.47-.84,5,.4,2.69-1.27,4.87-1.32,9-6.84-7.71-13.59-13.44-18.43-20.95a3.44,3.44,0,0,0,.17-.72c5.66,3.56,9.16,9.33,14.06,13.65,1,.86,1.39,3.25,3.59,1.8,1-1.95-.16-4.17.79-6.12,0-.9.11-1.81.16-2.71,1.05-1.95-.13-4.21.81-6.18Z"/><path class="cls-36" d="M113.5,156.91a1.9,1.9,0,0,1-2.23,1.45c-2.74-.19-4.46.51-4.11,3.75.11,1.07,0,2.58-1.57,2.45-1.14-.09-1.33-1.39-1.22-2.36.35-3.12-1.16-4.09-4-3.83-1,.09-2.23-.25-2.25-1.38s1.21-1.49,2.22-1.4c2.82.24,4.39-.63,4.06-3.8-.11-1.06,0-2.58,1.57-2.44,1.13.11,1.32,1.41,1.21,2.38-.34,3.07,1.07,4.15,4,3.85A2,2,0,0,1,113.5,156.91Z"/><path class="cls-37" d="M119.89,628.89c-2.48-7.95-8.3-13.8-12.89-20.41a40.88,40.88,0,0,1-3.81-5.89c8.43,6.4,13.21,15.62,18.82,24.18,1.08,3.38,3.63,6.15,4,9.81a.74.74,0,0,1-1.12,0C123.24,634.05,122.36,631,119.89,628.89Z"/><path class="cls-38" d="M75.13,478.52c4.15-.61,7.76-1.21,6.79-6.53,0-.22.78-.89,1-.81.53.24,1.35.74,1.34,1.14,0,3.91,1.39,6.39,6.48,6-4.18.92-7,2.08-6.48,6.48,0,.35-.8,1.09-1.31,1.17a1,1,0,0,1-1.09-1.28C83,479.14,78.74,479.53,75.13,478.52Z"/><path class="cls-4" d="M426.54,21.93c-5.79-.15-7.66,2.69-7.84,7.84-.77-4.69-1.61-8.75-8.36-7.58,5.63-.39,8.63-2.25,8.13-8.32C418.76,19.33,420.63,22.34,426.54,21.93Z"/><path class="cls-39" d="M197.6,579.7a114.88,114.88,0,0,0-9.74,17.74,4.75,4.75,0,0,1-2.25,5.07c-.84-.13-1.41-.44-1-1.44q1.53-4.3,3.07-8.61l8.94-13.72C197.54,578.52,198,578.67,197.6,579.7Z"/><path class="cls-40" d="M124.91,636.63l1.12,0c1.61-1,.5-2.62,1-3.88a1.51,1.51,0,0,1,1.51-.28c2.64,4.83,2.5,10.23,3.16,15.47-.27.8-.58,1.56-1.65,1.45Q127.45,643,124.91,636.63Z"/><path class="cls-41" d="M176.08,626.84c1.24-6.75,3.59-13.17,5.95-19.59,1-.13,1.34.52,1.62,1.27a59.76,59.76,0,0,1-5.84,19.37C176.83,628.21,176.45,627.54,176.08,626.84Z"/><path class="cls-42" d="M171,626l.18-3c1.67.33.52,2.28,1.72,2.79.8,3.58-.94,7.42,1.17,10.85l.61.34c.81.93.46,1.69-.37,2.39-1,.6-1.85,1.74-3.3,1.34a3.39,3.39,0,0,1-.89-1.35C169.33,634.85,169.21,630.35,171,626Z"/><path class="cls-43" d="M128,632.67l-1,0c-.11-2.89-.21-5.77-.32-8.66q.63-5.46,1.27-10.92c.89-.23,1.36,0,1,1l-.78,9.94A8,8,0,0,1,128,632.67Z"/><path class="cls-44" d="M130,649.34l1-1.22c3.5,2.32,3.49,6.15,4.2,9.69-.37,1.09-1,1.68-2.26,1.37l-.36,0C132.92,655.56,130.6,652.67,130,649.34Z"/><path class="cls-45" d="M140.53,689.79l-.72-.43c-.45-2.81-.89-5.63-1.33-8.44l.37-.22c.32-.72.73-1.28,1.65-1,1.86,2,2.11,4.38,1.85,6.92A4.86,4.86,0,0,1,140.53,689.79Z"/><path class="cls-46" d="M183.08,608.47,182,607.25c.62-2.16,1.13-4.38,2.63-6.18l1,1.15C186.58,605,185.84,607.16,183.08,608.47Z"/><path class="cls-47" d="M174.05,636.66c-.29-2.09.53-4,1.15-5.88,1,0,1.36.62,1.64,1.4.09,2.15.47,4.49-2.87,4.4Z"/><path class="cls-48" d="M176,631.86l-.84-1.08c.29-1.31.59-2.62.88-3.94.32.38.65.75,1,1.12C178,629.6,178.43,631.1,176,631.86Z"/><path class="cls-49" d="M227,534.49q4.83-23.13,9.65-46.27l1,.14q19.27,92.49,38.57,185,11.86,56.8,23.8,113.6-.14.42-.3.81l-105.88-.12c8.67-13.28,13.35-27.92,15.75-43.55,2.44-15.81,3-31.65,2.93-47.58,0-3.88-1.1-5.2-5-5-4.38.28-8.8,0-13.2-.1a5.09,5.09,0,0,1-.54-4.18c1.53-7.22,2.83-14.5,4.79-21.62,1-2.69,3.06-4.5,5.24-6.25,6.94-5.6,11.21-13,13.76-21.39,1.51-5,.69-5.64-4.43-5.18-2.39.22-5.06,2-7.24-.65-.51-4.68,1.23-9,2.2-13.44,3.09-14,5.36-28.26,8.9-42.2a10.84,10.84,0,0,1,1.27-3.7C226.29,561.24,227.91,548.16,227,534.49Z"/><path class="cls-50" d="M18.79,311.16c-.13,1.42-1.61,2.35-3.59,2.22s-2.78-1.88-2.84-3.49a2.89,2.89,0,0,1,3.2-3C17.49,307,19,308,18.79,311.16Z"/><path class="cls-15" d="M321.16,458.82c-12.42,0-24.84,0-37.25.14-3.1,0-4.36-1.19-4.8-4.14-2.51-17-5.12-34-7.71-51a5.88,5.88,0,0,1,.87-4.67c12.13-2,22.21-8.4,32.07-15.17,4.84-3.33,9.47-7,14.19-10.48.22-.39.46-.42.72,0,0,17.59.15,35.17.1,52.76C319.32,437.12,320.49,448,321.16,458.82Z"/><path class="cls-51" d="M379.35,449.08c-2.07-12.34-.48-24.78-1-37.17-.08-2,0-3.93-.05-5.89,9.46-.42,18.93-2.75,28.33-1.38,5,.73,10-.12,14.83,1.33-.43,4-.38,6.95,5.39,7.12,4.9.14,7.47,4.61,8.17,9.19a42.28,42.28,0,0,1,0,11.73c-.62,4.74-3.5,8.81-8.35,8.94s-5.63,2.59-6.14,6.16c-1.29,2.5-3.7,2.44-6,2.46q-14.67.18-29.34,0C383,451.54,380.58,451.67,379.35,449.08Z"/><path class="cls-52" d="M405.8,371.52c1-7.07,5.78-11,11.84-13.58,9.07-3.8,18.24-4.26,27.12.7,7.59,4.24,8.09,11.35,1.32,16.83-12.32,1.14-24.65.52-37,.33C406.73,375.76,404.39,374.89,405.8,371.52Z"/><path class="cls-15" d="M261.4,330.26c-3.24-5.7-2.38-12.26-3.84-18.33-.79-3.29-1-6.71-1.54-10.07a13.75,13.75,0,0,0-5.73-9.44c11.41.31,22.62-1.75,33.78.6Z"/><path class="cls-53" d="M405.8,371.52c-.23,3.43,2.22,3,4.31,3,10.3,0,20.59,0,30.89,0,1.71,0,3.64-.66,5.08,1-3.63,3.22-6.89,6.62-6.26,12.1.06.48-1,1.08-1.6,1.63a10.42,10.42,0,0,1-5.11,1.45c-9.26.18-18.52.29-27.77-.07-2-.07-4.4-.33-4.45-3.34a11.74,11.74,0,0,0,4-9.79C404.81,375.48,404.05,373.26,405.8,371.52Z"/><path class="cls-54" d="M400.89,387.24c1.05,2.29,3.13,2,5.07,2h32.26c-3.63,4-8.72,4.69-13.58,5.92-6.48,1.63-9.58,1.14-14.25,9.27,3.59,1.64,7.78-.93,11.11,1.58l-43.16,0c4.31-2.68,9.18-.07,14.45-1.68-3.69-1.65-6.71-3.59-5.53-7.73,1-3.44,3.85-5,7-6.15A70.5,70.5,0,0,0,400.89,387.24Z"/><path class="cls-7" d="M379.35,449.08a8.43,8.43,0,0,0,4.7,1q15.9,0,31.79,0a9.37,9.37,0,0,0,4.72-1c.95,1.23,2.33.78,3.57,1s3.28-.83,3.76,1.07c.35,1.38-1,2.58-1.84,3.77-1.66,2.31-5,2.29-6.42,4.91H381.14c-2.31-2.41-6.24-2.58-7.89-6-1.23-2.53-1.85-4.19,2.06-3.81C376.69,450.14,378.24,450.42,379.35,449.08Z"/><path class="cls-55" d="M513.8,377.2l-21.24-87.26,2-.5,21.33,87.29Z"/><path class="cls-56" d="M319.25,373.46l-.36,0h-.36c2.8-5.89,8.66-8.67,13.25-12.64,13-11.29,26.47-22.12,39.75-33.14a2.59,2.59,0,0,1,2.46-.93c.16,2.48-2,3.44-3.41,4.63q-23.19,19.44-46.53,38.73C322.56,371.38,320.85,372.36,319.25,373.46Z"/><path class="cls-57" d="M549.18,317.73c-4.33,6.09-8.46,12.37-14.71,16.79C538.74,328.36,542.8,322,549.18,317.73Z"/><path class="cls-58" d="M492.07,456c0,1.23-.09,2.45-.14,3.67l-2.62.18C487.63,456.69,488.49,455.36,492.07,456Z"/><path class="cls-59" d="M523.51,455.81l-2.58,0c-.08-1.31-.93-3.29,1.1-3.41C524.61,452.22,523.55,454.4,523.51,455.81Z"/><path class="cls-15" d="M498.82,455.73l-1.51.08c-.7-.89-1.46-1.84-.42-2.88a1.79,1.79,0,0,1,1.65-.28C499.51,453.5,499,454.66,498.82,455.73Z"/><path class="cls-28" d="M423.55,279.38c.14-1.7-.7-3.56.84-5C424.35,276.07,424.86,277.88,423.55,279.38Z"/><path class="cls-60" d="M731.88,311.63c-4.94,2.76-3.91,8-4.69,12.24Q719,367.7,711.58,411.65c-.6,3.5-2.71,7.24-.29,10.92-3.75.89-5.49-.81-4.79-4.8,1.67-9.41,3.44-18.81,5.11-28.22,3.84-21.69,7.61-43.4,11.49-65.08a56.44,56.44,0,0,1,2.51-9.89C726.61,311.93,728.44,309.74,731.88,311.63Z"/><path class="cls-61" d="M957.77,272.36q25,0,50,.05c5.62,0,6.8,1.72,4.89,6.75l-50.89.09C955.19,279.26,955.15,279.17,957.77,272.36Z"/><path class="cls-62" d="M717.67,263.73c.85-5.27,1.64-10.54,2.6-15.79.29-1.61,1-3.37,3.18-2.89,2.35.53,1,2.19.81,3.53-.82,4.94-1.5,9.91-2.4,14.84-.29,1.59-1,3.27-3.18,2.92C717.05,266.08,717.27,264.87,717.67,263.73Z"/><path class="cls-63" d="M836.54,246.6c-1.18,6.54-2.09,11.81-3.11,17-.28,1.4-.69,3.13-2.74,2.68s-1.46-2.09-1.2-3.54c.89-4.94,1.77-9.88,2.57-14.83.26-1.6.69-3,2.58-2.9S836.6,246.4,836.54,246.6Z"/><path class="cls-62" d="M728.33,264.8c1.27-6.39,2.41-11.93,3.45-17.49.27-1.47.73-2.58,2.43-2.29s1.59,1.75,1.36,3.06c-.92,5.25-1.87,10.5-2.78,15.75-.29,1.7-1.2,2.65-2.95,2.56S728.16,265.22,728.33,264.8Z"/><path class="cls-62" d="M871,248c-.87,5.26-1.76,10.51-2.61,15.77-.27,1.68-1.12,2.77-2.89,2.63-2.73-.23-1.26-2.07-1.05-3.26.92-5.25,2-10.48,2.91-15.73.25-1.41.61-2.63,2.37-2.38S871.32,246.68,871,248Z"/><path class="cls-63" d="M881.22,245c1.36.15,1.87.82,1.66,2-1,5.72-2,11.44-3.11,17.14-.3,1.51-1.34,2.75-3.17,2.18s-.92-2-.7-3.22c.86-4.77,1.52-9.57,2.55-14.3C878.78,247.26,878.75,244.94,881.22,245Z"/><path class="cls-62" d="M702.44,248.24c-1,5.36-2,10.92-3,16.49a1.79,1.79,0,0,1-2,1.63c-1.19-.06-1.93-.79-1.75-1.87,1-6.05,2.09-12.09,3.28-18.11a1.75,1.75,0,0,1,2.33-1.22C702.73,245.6,702.29,247,702.44,248.24Z"/><path class="cls-64" d="M684.5,263.47c1-5.23,2.08-10.64,3.08-16.08.26-1.43.64-2.63,2.39-2.37s1.75,1.8,1.54,3.06c-.91,5.28-2,10.54-2.91,15.82-.32,1.73-1.3,2.68-3,2.48C683.54,266.16,684.92,264.63,684.5,263.47Z"/><path class="cls-65" d="M713.49,248.16c-1,5.24-2.12,10.46-3.1,15.71-.3,1.64-.77,3-2.76,2.37-1.76-.54-1.19-2-1-3.27.89-5.1,1.8-10.2,2.65-15.3.28-1.65,1-2.89,2.83-2.59S713.67,246.81,713.49,248.16Z"/><path class="cls-62" d="M922.24,263.77c1-5.56,2-10.93,3-16.31.24-1.37.51-2.63,2.3-2.45s1.86,1.66,1.64,2.92c-.92,5.39-2,10.77-3,16.14a2.5,2.5,0,0,1-3.11,2.29C921.08,266,922.87,264.47,922.24,263.77Z"/><path class="cls-62" d="M917.48,248.08c-1,5.53-2,10.92-3,16.32-.23,1.34-.81,2.09-2.21,2s-1.82-1.32-1.63-2.48c.92-5.73,2-11.43,2.93-17.15a1.8,1.8,0,0,1,2.42-1.66C917.82,245.46,917.39,247,917.48,248.08Z"/><path class="cls-62" d="M852.66,262.78c1-5,2-10.23,3-15.47.28-1.43,1.07-2.56,2.65-2.14,1.74.47,1.28,2.11,1.07,3.3-.86,5.1-1.88,10.17-2.76,15.27-.24,1.34-.28,2.72-2.13,2.6C852.29,266.2,852.8,264.43,852.66,262.78Z"/><path class="cls-63" d="M847.8,248.27c-.94,5.09-2,10.49-2.91,15.9-.27,1.55-.89,2.5-2.54,2.14-1.8-.39-1.56-1.95-1.35-3.17.9-5.26,1.93-10.5,2.91-15.75.27-1.43,1-2.53,2.59-2.24S847.68,246.84,847.8,248.27Z"/><path class="cls-63" d="M934,263.77c.86-5.18,1.66-10.49,2.67-15.75.28-1.47.61-3.62,3-2.94s.86,2.31.65,3.63c-.8,5-1.5,10-2.4,14.91-.26,1.42-.94,2.93-2.88,2.76C933.22,266.21,933.53,265,934,263.77Z"/><path class="cls-62" d="M894.09,248.49c-.79,4.77-1.45,9.56-2.44,14.28-.32,1.5-.38,4.11-3,3.53s-.93-2.55-.72-3.93c.7-4.79,1.39-9.57,2.24-14.33.24-1.36.64-3.15,2.59-2.94C895.1,245.34,894.16,247.12,894.09,248.49Z"/><path class="cls-63" d="M905.76,249.06c-1,5.06-2,10.13-3,15.22-.29,1.58-1,2.41-2.62,2s-1.37-1.63-1.16-2.76c.88-4.94,1.85-9.85,2.69-14.79.28-1.62.17-3.68,2.37-3.56C906.65,245.3,905.36,247.64,905.76,249.06Z"/><path class="cls-66" d="M774.26,384.12c3.43,13.13,6.89,26.24,9.51,39.56l-9.65-.12A279.12,279.12,0,0,1,774.26,384.12Z"/><path class="cls-67" d="M774.26,384.12q-.07,19.72-.14,39.44c-1.39-1.11-1-2.67-1-4.09,0-16.78.09-33.57-.12-50.36-.06-4.4,1.56-5.56,5.72-5.52,18.75.17,37.5.08,56.25.08-1.45,1.61-3.38.95-5.09.95-16.86.05-33.71.09-50.57,0-3.09,0-4.72.76-4.29,4.08C773,373.74,774.44,379,774.26,384.12Z"/><path class="cls-49" d="M829.07,786.85c-1.46.09-2.93.26-4.39.27H663.54c-1.46,0-2.92-.17-4.38-.25-.94-4.41-3.86-6.59-8-8-7.16-2.54-14.15-5.57-21.21-8.41-2.27-.91-4.55-1.86-5.26-4.59a11.11,11.11,0,0,1-.33-2.43c-.28-7.14.8-8.32,7.85-8.34,12.22,0,24.44,0,36.65,0,1.92,0,4,.44,5.56-1.12,2.09-4.89,1.42-10.11.81-15-1.31-10.42-.87-20.88-1.47-31.3-1.41-24.29-3-48.54-5-72.78-2.27-27.2-5.25-54.31-10-81.2-2.2-12.57-5.34-24.91-8.48-37.27-4-15.81-14.49-24.63-29.08-29.8a126.08,126.08,0,0,0-19.83-5.48c-2.2-.41-4.61-.55-6-2.75,1.57-1.3,3.45-.76,5.19-.76q112,0,224.06-.1c3.33,0,5.53.65,6.38,4a4.14,4.14,0,0,1,1.76,2.82,63.22,63.22,0,0,0,13.36,25.79,3.58,3.58,0,0,1,.95,2.2c-1.15,2-2.89,1.18-4.34.71-10.86-3.45-21.32-1.73-31.63,2.24-4.53,1.75-4.84,2.74-1.78,6.58,9.36,11.74,21.75,18.47,36.16,22,8.51,2.07,17.17,2,25.8,2.45,3.6,1.67,6.37,4.06,7.15,8.19-.91,7.2-1.89,14.39-4.64,21.2-4,1.69-6-1.74-8.27-3.68a46.28,46.28,0,0,0-21.27-10.57c-15.16-3.12-29.2-.1-41.87,8.87-4.33,3.06-4.48,4.6-1,8.62,9.22,10.65,21,17,34.55,20.09,8.63,2,17.48,2.17,26.25,2.91,3.11.27,5.51.94,5.55,4.67-2.13,13.55-5.3,26.89-8.1,40.3-9.34,44.75-18.47,89.53-28.05,134.23C831.1,783.23,830.73,785.3,829.07,786.85Z"/><path class="cls-68" d="M384.22,478.69h62.89c3,.51,6.12.56,9.18.85,17.65,1.91,34.59,6.61,51.09,13,3.79,1.47,7.36,3.5,11,5.29,14.63,7.12,20.66,19.85,23.14,34.82,2.52,15.15,4,30.4,2.64,45.79a23.78,23.78,0,0,0,.4,2.9c.82,8.29-1.39,16.48-.85,24.75-3.73,47.43-10.05,94.52-18.26,141.36-1.83,10.47-2,10.45-12.49,10.44-4.24,0-8.5.09-12.75-.07-1.52.14-3.05,0-4.58,0-11.4.07-22.8-.16-34.2.15-2.74.07-5.56.37-8.16-.92-2.46-2.2-1.67-5.16-1.67-7.84q-.09-58.41,0-116.81c0-17.15-1-34.26-2-51.37-.38-6.24-3.54-10.18-9.54-11.42-6.25-1.3-12.59-2-19-.66a11.18,11.18,0,0,1-2.44.26c-13.25-.36-26.43,1.56-39.69,1.07-29.12-1.09-47-18.72-49.33-46.85a114.62,114.62,0,0,1,.15-19c.26-3.19,2.27-5.78,2.27-9.14,0-2,2.85-2.3,4.86-2.34,5.24-.12,10.48-.09,15.71,0,6.39.06,12.67-.93,19-1.77,6.49-.86,11.25-3.36,11.79-10.69A4.78,4.78,0,0,1,384.22,478.69Z"/><path class="cls-68" d="M594.37,479.34c12.69,2.46,25.23,5.3,36.73,11.6,8.41,4.61,14.27,11.08,17.49,20.22,6.94,19.67,10.5,40.08,13.47,60.6,6.61,45.62,9.89,91.56,12.07,137.58.75,15.67,1.84,31.32,1.7,47-1.5,1-3.18.52-4.77.52q-20.31.06-40.63,0c-6,0-11.91,1.77-18,1.14-2.1-.22-4.25.06-6.29-.66-1.78-.75-2-2.36-2.31-4-3.81-24.68-7.41-49.4-11.91-74-5.15-28.1-10.15-56.27-18.94-83.56-1-3-2.27-5.79-3.29-8.7-2.59-7.36-8.18-10.55-15.28-12.15-11.63-2.62-9.73-1.36-10.21-13.07-.55-13.16-1.52-26.25-5.34-39.06-3.23-10.84-9.61-18.55-19.32-24.1-14.64-8.37-30.62-12.66-46.86-16.33-3.8-.86-7.61-1.73-11.47-2.35a1,1,0,0,1-.42-1.37c31.16-.06,62.33-.2,93.49-.12C567.66,478.62,581,477.85,594.37,479.34Z"/><path class="cls-49" d="M302.76,786.83q-8.07-39.11-16.17-78.21Q263.33,597.08,240,485.56a25.55,25.55,0,0,1-.29-2.92c-.28-3.1,1-4.34,4.23-4.15,4.21.25,8.44.08,12.66.09a8.86,8.86,0,0,1,2.29,5.3q6.33,41.72,12.87,83.39c.31,1.94.61,3.88,1,5.8,4.07,20,17.93,31.53,38.39,31.58,31.41.07,62.82,0,94.23,0,12.58,0,12.58,0,12.58,12.65V741.45c0,9.34-.13,9.46-9.72,9.47-9,0-18-.07-27,0-10.95.1-21.91-.38-32.85.29-7.09,1.32-10.27,6.4-12.16,12.72a14.37,14.37,0,0,1-4,2.79c-6.57,4-8.27,10-4.73,16.7,2.57,4.85,2.57,4.86-2.87,4.87-5.88,0-11.76,0-17.63,0C305.48,788.29,303.68,788.8,302.76,786.83Z"/><path class="cls-31" d="M346.84,750.44c1.76-1.26,3.79-.8,5.71-.81,19.79,0,39.59-.09,59.38,0,3.55,0,5.13-.49,5.11-4.69q-.24-67,0-133.94c0-4-1.23-4.88-5-4.87-32.88.12-65.77-.4-98.64.17-21.67.37-39.58-12.44-42.76-35.79-4.18-30.72-9.29-61.33-14-92l69.91.07c.61,1.55.64,2.83-1.45,3.12-12.37-1.71-24.8-.51-37.21-.71-3-.05-2.71,2.23-2.4,4.24,1.07,7.11,2,14.25,3.1,21.35,2.63,16.46,5,33,7.72,49.41,2.15,13,9.41,20.51,22.5,22.28a155.37,155.37,0,0,0,36.64.17c6.39-.94,12.67.67,19,.71,18,.08,35.88-.52,53.82-1.07a26.46,26.46,0,0,1,6.82.42c3.26.75,6.07,2.58,6.66,5.81,1.34,7.35,2.11,14.8-.45,22.12-3.82,2.15-8,1.12-12,1.24-6.84.21-7.16.36-7.16,7.25q0,63-.05,125.94c0,2.89.6,5.93-1.36,8.53-2.67,0-2-2.06-2.1-3.48-.16-2.94-.05-5.89-.05-8.83q0-62.05,0-124.11,0,65.63,0,131.26c0,7-.68,7.84-7.87,7.77-19.46-.16-38.92,0-58.39-.09C350.35,752,348.33,752.13,346.84,750.44Z"/><path class="cls-68" d="M325.36,481.5c.92-.73.95-1.83,1.17-2.86l8.55.07c.92,2.21-.2,4.19-.8,6.17-3.11,10.19-5.32,20.59-5,31.22.39,11.79,2.17,23.45,9.06,33.54,7.5,11,18,17.3,31.11,19.23,12,1.76,24.07.88,36.15.35,10.75-.46,21.53-1.5,32.32-.33,7.44.81,11.62,5.36,12.06,12.87,3.28,56.7,1.5,113.45,1.93,170.18,0,1.6.31,3.29-.78,4.74-3.22,1.82-6.53,1.26-9.86.41-2.41-2-5.26-2.05-8.21-2.2-5.1-.26-10.33,1.13-15.29-1.07-.38-3.26,2.33-2.5,3.85-2.62,4.65-.35,9.33-.15,14-.12,2,0,3.52-.33,3.63-2.72a70.43,70.43,0,0,0,.3-8.83q0-62.55,0-125.09c0-2.74-.46-5.59,1.1-8.14.1-6.2.31-12.4.25-18.61-.05-5.53-2.56-7.88-8.31-7.83-20.58.16-41.16.48-61.74.58-5.37,0-10.75-.5-16.12-.77-13.45-.34-22.92-7.48-30-18.14-5.54-8.34-8-17.88-8.64-27.8-1.08-16.34,1.54-32.24,6.45-47.8C323.12,484.23,323.58,482.44,325.36,481.5Z"/><path d="M828.09,787.83q11-52.92,22.08-105.86,7.77-37.37,15.41-74.77a42.49,42.49,0,0,1,1.64-13.59,18.69,18.69,0,0,0,.86-3.71c1.23-4.44.82-9.38,4.06-13.2q2.19-10.79,4.39-21.56c.51-1.2-.16-2.29-.31-3.43-.09-2,.68-3.81,1.16-5.68a62,62,0,0,0,1.45-7.4c3.49-18.44,7.57-36.76,11.26-55.15.29-1.43.64-2.89,2-3.82,1-1.21,2.35-1.18,3.73-1.08,2.93,4.82,4.48,9.94,3.27,15.63L901.88,508c.67.91,1.43,1.79,1,3.05,1.28,9.61,3.57,19,5.8,28.42q2.85,13.83,5.71,27.68,4.4,21.06,8.78,42.13c.14.1.35.16.39.29,3.6,10.72,6.19,21.65,6.68,33,3.09,15.35,6.1,30.71,9.28,46q10,47.93,20.09,95.82a22.1,22.1,0,0,1,.21,2.44c-.86,1.47-1.81.65-2.75.11-2.62-1.6-2.47-4.45-3-6.92-9.44-45.52-19.11-91-28.51-136.52-.06-.32-.17-.63-.26-1-4.36-22-9.14-44-13.73-66a75.62,75.62,0,0,1-1.48-8.17c-1.77-8.55-3.58-17.1-5.71-25.57-1.74-8.33-3.14-16.73-5-25.05-.15-1-.59-2-.74-3.07-.6-4.91-2-9.64-3-14.49-.5-4-2.13-7.85-1.29-12.14-.8,9.37-3.69,18.2-5.15,27.31a8.68,8.68,0,0,1-.22,1.53c-.67,2.71-1.6,5.37-1.76,8.19-1.63,7.36-2.92,14.78-4.72,22.09-.25,1.52-.66,3-1,4.5a32.33,32.33,0,0,1-.59,4.6c-1.79,7.06-3.14,14.22-4.79,21.31-1.13,4.51-1.32,9.21-2.89,13.61a14.51,14.51,0,0,0-.85,4.47c-.51,3.09-1.33,6.12-1.76,9.23-12.32,58.92-24.42,117.88-36.89,176.77-.47,2.23-.75,4.55-2.71,6.14Z"/><path class="cls-13" d="M845.55,513c-8.45-8.5-13.26-18.86-15.56-30.5.35-1.56-.66-3.94,2.31-3.92q14.67.07,29.33.22c.58,0,1.15.57,1.73.87,6,3,8.75,8.69,11.27,14.22,4,8.65,4.74,18,3.5,27.38-.42,3.14.35,6.63-1.91,9.43-2.66,1-2.93-1.39-3.69-2.79A130.22,130.22,0,0,0,863,512.66c-1.68-2.8-4.37-4.82-5.62-7.24-.78-.95-1.11.11-.69-.4a68.51,68.51,0,0,1,6.35,7.87,100.67,100.67,0,0,1,9.58,15.56c.63,1.24,1.71,2.45.89,4-1.33.76-2.23-.12-2.86-1-1.91-2.65-4.93-3.51-7.58-5C857.13,522.18,850.4,518.81,845.55,513Z"/><path class="cls-69" d="M451,756.42c0-42.51.44-85-.3-127.52-.28-15.76,0-31.61-1.65-47.37-.78-7.42-5-11.42-13-11.69-19.61-.67-39.18,1.86-58.77.94-19.26-.9-34.95-8.47-43.22-26.85-5.42-12-6.92-24.89-5.17-38.21,1.22-9.24,2.63-18.34,6.16-27l1,0c2.05,2.67.47,5.35-.14,7.93-.69,2.92,0,4.3,3.19,4.32,10.58.08,21.14.1,31.62-1.76,5.1-.91,9.51-2.45,10.53-8.41a2.81,2.81,0,0,1,1.94-2l1,0c.56,8.59-2.22,11.95-10.91,13.6-10.65,2-21.41,2.1-32.18,2-1.31,0-2.62-.06-3.93,0-1.84.12-4.44-.68-4.75,2.1-.32,2.94,3.12.82,4.12,2.87-9.35,1.16-5.64,9.09-6,13.78a60,60,0,0,0,5.35,30c6.83,14.46,18.46,22.54,34.1,24.79,17.59,2.52,35.15.19,52.71-.79a61.5,61.5,0,0,1,18.46,1.4c5.47,1.37,8.79,5,9.59,10.54a120,120,0,0,1,1.1,13.13c1.75,49.7.87,99.42,1.08,149.14,0,5.07,0,10.14,0,15.21A1.54,1.54,0,0,1,451,756.42Z"/><path class="cls-49" d="M875.29,530.6c4.07-18.86,2.3-36.36-11.93-50.93,1-1.44,2.62-1.1,4-1.11q10.29,0,20.59,0c1.44,0,3-.34,4.06,1.1q-5.7,27.93-11.38,55.87c-.26,1.27-.42,2.56-.63,3.84-.35.82-1.32,1.58-1.75.94C876.32,537.42,873.35,534.73,875.29,530.6Z"/><path class="cls-69" d="M383.21,478.72c-.64,8.83-6.66,11.28-14.2,12.29-11,1.47-22.1,1.33-33.18,1.31-1.95,0-2.44-.63-2-2.69.73-3.65,2.4-7.12,2.27-10.95Z"/><path class="cls-70" d="M899.06,494.21l-3.27-15.63c6.35,0,12.71-.05,19.06,0,1.57,0,3.31-.55,4.59.93A67.91,67.91,0,0,0,902.62,492C901.63,493,900.84,494.42,899.06,494.21Z"/><path class="cls-69" d="M460.81,478.71c0,.26,0,.52.05.78-1.43,1.3-3.39-.15-4.87.92-3-.38-6-.54-8.88-1.72Z"/><path class="cls-49" d="M930.27,642.52c-2.94-11-5-22.14-7.07-33.29.41-.56.36-2.55,1.62-.83,7.2,9.93,16.92,16.52,27.95,21.42q-2.53,7.33-5.06,14.69c-4.74,2-9.68.56-14.52.91C931.17,645.56,931.52,643.21,930.27,642.52Z"/><path class="cls-71" d="M827,424.7c-3.91-2.34-8.19-1-12.25-.94-3.68,0-5.65-1.22-7-4.52-2.69-6.64-4.4-13.21-.83-20.08,1.43-2.77,3.34-4.77,6.66-4.91,1.6.58,3.42.45,4.85,1.54,9.76,6.74,11.8,16.51,10.82,27.46a2.83,2.83,0,0,1-1.43,2.41Q826.8,425.68,827,424.7Z"/><path class="cls-72" d="M827.2,425.56c3.41-10.9-1.19-23.76-9.88-29.49-.2-.91,0-1.42,1.07-1.05,9.64,4.47,16.09,18.28,13.14,28.25-.89,3-2.25,5.77-5.32,7.22-.94.42-1.28-.18-1.55-.91C824.7,427.73,825.26,426.21,827.2,425.56Z"/><path class="cls-70" d="M827.2,425.56l-2.16,3.7c-.48,1.31-1.22,2-2.68,1.27-4.94,1.19-7.75-1.65-10.73-5.83H827A6.5,6.5,0,0,0,827.2,425.56Z"/><path class="cls-73" d="M793.53,450c.12-.61.23-1.23.35-1.85,1.75,1.17,3.74,1,5.68,1q24.71,0,49.41,0c1.53,0,3.16-.51,5.25.86Z"/><path class="cls-74" d="M818.39,395l-1.07,1.05-3.77-1.82C815.24,394,817,393.63,818.39,395Z"/><path class="cls-75" d="M822.36,430.53l2.68-1.27,1.17,1.23C824.94,431.59,823.66,432.18,822.36,430.53Z"/><path class="cls-9" d="M926.46,642.28q5.82,27.27,11.65,54.54,9.54,45,19,90.09c-.63,1.29-1.83,1.18-3,1.18L892,787.88c-2.32-1.25-3.34-3.5-4.46-5.68-8.68-16.81-12.63-35-15.5-53.47C868,703,867.56,677,868,651c.09-5.78,1.18-6.81,7-7,5.56-.13,11.12,0,16.68,0,2.28,0,4.59.13,6.69-1,2-1.59,3.88.71,5.88.3C911.67,644.12,919.17,645.53,926.46,642.28Z"/><path class="cls-30" d="M624.84,768.33c9.66,3.9,19.29,7.86,29,11.67,3.74,1.47,5.7,3.68,4.34,7.85l-53.67-.06-.77-.17a3.44,3.44,0,0,1-1.54-3.77c1-5,1.39-10.14,4.25-14.58a2.37,2.37,0,0,1,2.77-.14c4.72,2.93,9.26,2.56,13.73-.54A2.49,2.49,0,0,1,624.84,768.33Z"/><path class="cls-30" d="M497.07,787.84l-53.7-.05a2.26,2.26,0,0,1-1.91-1.29c-1-6.27,1.26-11.81,4-17.25.41-.26,1-.59,1.34-.36,6,3.65,11.69,2.15,17.23-1.18,7.65,2,14.75,5.55,22.09,8.42,2.72,1.1,5.63,1.76,8.17,3.27C498,781.61,498.68,783.78,497.07,787.84Z"/><path class="cls-76" d="M302.76,786.83c2.26,2,5,1,7.49,1.07,6,.15,12,.05,18.81.05-2.48-3-4.38-5.55-4.78-8.85a13.1,13.1,0,0,1,7.4-13.62c1.44-.7,3.15-.91,4.2-2.32,1.49-.39,2.86-1.91,4.56-.49,1.66,1.05,3.42,1.94,5,3.09,5.35,3.88,7,9.16,5.16,16.07-1.23,4.57-1.23,4.59,3.63,4.6,11.92,0,23.84,0,35.76,0,2.26,0,4.6-.3,6.71.92a1,1,0,0,1,.26,1.45c-16.16,0-32.39,1-48.46-.23-13.73-1-27.26,1.43-40.89.29-1.74-.15-3.63.49-5.09-1Z"/><path class="cls-76" d="M497.07,787.84c1-4.91-1.72-7.15-5.93-8.45-2-.6-3.85-1.47-5.77-2.22,1.37-5.7,3.78-10.64,9.54-13.18,1.21-.54,1.91-1.71,2.83-2.61,1.64,0,3.31-.33,5,.18a33.63,33.63,0,0,0,2.74,2.09c8.11,4.45,10.78,11,7.69,19.78-.85,2.42.32,2.91,2.32,2.92H596c2.76,0,5.61-.35,8.07,1.42a.29.29,0,0,1,.47,0c-1.42,1.62-3.33,1.06-5.07,1.07-29.26,0-58.52.07-87.78,0C506.79,788.81,502,787.4,497.07,787.84Z"/><path class="cls-76" d="M397,788.82l-.21-1.3c-7.7-3-8.42-15.06-1.2-20.95,2.37-1.93,5.2-3.26,7.44-5.38,1.49.73,3.25-.68,4.7.56a24.11,24.11,0,0,0,2.62,2.21c9.15,6.33,10.68,11.93,5.87,22.35,8.83.63,17.57-.36,26.25.52l.94,1c-1.41,1.64-3.33,1.06-5.06,1.06-11.89,0-23.78.28-35.64-1A9,9,0,0,0,397,788.82Z"/><path class="cls-49" d="M781,184l-209.61-.08h-48.6c-7.64-.73-13.5-3.85-15.79-11.76-1.78-4.66-2-9.49-2-14.43.07-41.55.24-83.1-.08-124.65-.1-12.69,8.43-23.25,23-23.18,84.11.4,168.22.19,252.33.2,12.78,0,18.69,4.45,22.41,16.77l0,166.42c0,1.14,0,2.29,0,3.43-.08,1.74.49,3.83-1.72,4.66-2,.74-2.95-1-4.06-2.09-4.18-4.15-8.29-8.37-12.48-12.52C783.32,185.77,782.11,184.94,781,184Z"/><path class="cls-49" d="M429.31,183c6.44-4.46,8.87-11.09,7-18.77-.69-2.9-2.52-3.89-5.28-4.05a37,37,0,0,0-14,2.34c.25-2,3.36-2.56,1.75-4.69-1.14-1.51-2.93-1-4.56-.94-9.33.15-17.9,3.3-26.31,6.88-10.73,4.57-14.09,9.88-13.68,21.6.15,4.39.8,8.76,1.23,13.14.43,4-1.21,5.24-5.3,5.11-10.13-.32-20.28-.09-30.42-.11-8,0-9.6-1.6-9.61-9.34,0-35.66.07-71.31-.09-107,0-4.2.92-5.58,5.39-5.56q81.23.24,162.44,0c4.08,0,5.25,1.11,5.22,5.2-.18,25,0,50.05-.13,75.07a22.57,22.57,0,0,0,3,12.16c3.88,4.48,8.69,7.78,13.74,10.77a23,23,0,0,0,7.69,1c15.32-.05,30.64.16,45.95-.13,4.48-.09,5.73,1.36,5.33,5.56-.37,3.83.61,7.87-2.15,11.24a37.1,37.1,0,0,1-5.76.92q-69.23,0-138.45,0A170.29,170.29,0,0,0,429.31,183Z"/><path class="cls-49" d="M416.52,79c-27,0-54-.1-81,.1-4.3,0-5.89-1.06-5.48-5.46.38-4,0-8.17.09-12.25.07-5.48,1.56-7,7-7.06,10.47-.06,20.94,0,31.4,0,43,0,86,.06,129-.09,4.21,0,5.91.91,5.53,5.39a93.62,93.62,0,0,0,0,14.21c.27,4-1,5.3-5.14,5.27C470.82,78.9,443.67,79,416.52,79Z"/><path class="cls-38" d="M519.77,184.91c-6.15-1.59-11-4.83-13.74-10.77a2.08,2.08,0,0,0,1-2c3.57,6.19,9.12,9.72,15.79,11.76C521.7,184.06,520.51,183.77,519.77,184.91Z"/><path class="cls-77" d="M421.11,226.8c-6.62,5.66-21.44,3-24.73-4.15C403.69,228,412,227.74,421.11,226.8Z"/><path class="cls-77" d="M420.08,197.22c3.84,3.08,5.28,7.41,4.11,11.49-.9,3.15-4.74,2.63-8.2,2.37,1.7-3.07,7.32-.63,6.29-5.59C421.7,202.71,420.83,200,420.08,197.22Z"/><path class="cls-78" d="M400.74,195.41c2.14-4.61,6.62-3.5,10.16-6.16C409.41,195.36,405.44,195.35,400.74,195.41Z"/><path class="cls-79" d="M413.34,219c1.47-4.35,4.6-5.56,9.48-5.17C419.66,216.63,415.71,216.36,413.34,219Z"/><path class="cls-80" d="M427.49,184.86c.18,1.89-1.13,3-4.06,3.07-1.05,0-3.56,1-1.83-1.89C423.15,183.6,425.36,184.42,427.49,184.86Z"/><path class="cls-81" d="M429.17,195a1.74,1.74,0,0,1-1.76,1.8,1.61,1.61,0,0,1-1.87-1.64,1.66,1.66,0,0,1,1.69-1.86A1.8,1.8,0,0,1,429.17,195Z"/><path class="cls-82" d="M409.87,197.47c1.07.18,1.72.69,1.71,1.59a1.7,1.7,0,1,1-3.36-.35A1.59,1.59,0,0,1,409.87,197.47Z"/><path class="cls-83" d="M427.49,184.86c-2,.08-4.09,0-5.89,1.18l-.09-1.25,6.92-1.66Z"/><path class="cls-84" d="M965.67,605.23c.31.43.42,1,1.07,1.17,1-1.47,2.58-2.67,2.45-4.92C966.76,601.88,966.48,603.79,965.67,605.23Z"/><path class="cls-84" d="M960.74,614.05h0l-4.11,7.72q-1.92,4-3.86,8.05c-3.78,4.17-5.19,9.17-5.06,14.69.3,1,1.07,1,1.87.83a124.62,124.62,0,0,1,9.15-23.48l3-7.8h0l.84,0,2-3.92-1-1.2A13.94,13.94,0,0,0,960.74,614.05Z"/><path class="cls-84" d="M1002.89,563l-9.72,8.89h0l-6.37,5.2c4.17-9.11,5.42-17.45,6.34-25.86q0-7.85,0-15.7l-3-14.69a158.34,158.34,0,0,0-5.89-19.64h0c-2.05-4.3-3.2-9.06-7-12.5l6,13.5h0q2.76,9.68,5.51,19.35a3.73,3.73,0,0,0,.37,1.32c0,5.22,1.75,10.34,1,15.62,1.74,5.5.47,11-.21,16.44-.44,9.35-3.53,18-6.7,26.68-2.74,2.84-4.6,6.46-7.78,8.9l-2.72,4.91a6.69,6.69,0,0,0-3,5,6.74,6.74,0,0,0,3.88-4.86h0l2.76-2.07c1.64-4.33,5.66-6.9,7.92-10.77h0l9.74-9.91c3.62-2.18,5.74-6.23,9.78-7.89a25,25,0,0,1,2.42-2.41,163.94,163.94,0,0,1,39.19-22c3.06-1.21,6.48-1.82,10.06-5.07C1035,540.73,1018.27,550.6,1002.89,563Z"/><path class="cls-15" d="M670.58,454.06a1.36,1.36,0,0,1-1.09,1.4c-1.09.2-1.45-.46-1.46-1.38a1.1,1.1,0,0,1,1.25-1.17A1.19,1.19,0,0,1,670.58,454.06Z"/><path class="cls-15" d="M695,454.07c-.09.66-.33,1.25-1.06,1.38-1.06.2-1.38-.48-1.38-1.37a1.08,1.08,0,0,1,1.19-1.17A1.2,1.2,0,0,1,695,454.07Z"/><path class="cls-15" d="M646,454.58c-.33.24-.78.85-1.28.9-1,.09-1.31-.7-1.18-1.6a1.07,1.07,0,0,1,1.37-.94C645.72,453,646,453.54,646,454.58Z"/><path class="cls-15" d="M621.58,454a1.34,1.34,0,0,1-1.08,1.42c-1.12.24-1.43-.45-1.44-1.38a1.09,1.09,0,0,1,1.22-1.18A1.18,1.18,0,0,1,621.58,454Z"/><path class="cls-49" d="M1101.11,374.49c4.62,2.86,6.12,6.9,6,12.38-.27,18.77-.06,37.56,0,56.34-2.13,7.09-4.29,8.8-11.43,8.81q-28,0-56,0c-6.83,0-10.3-3.44-10.31-10.22q-.08-28.95,0-57.9c0-5.87,3.54-9.46,9.35-9.46Q1069.95,374.41,1101.11,374.49Z"/><path class="cls-49" d="M982.39,128.69c0,6.87,0,13.74,0,20.61,0,5.24-1.9,7.19-7,7.21q-20.61.08-41.23,0c-4.82,0-6.82-2-6.84-6.87q-.1-20.61,0-41.22c0-4.92,2-6.92,6.77-7,13.9-.06,27.81,0,41.72,0,4.44,0,6.61,2.23,6.61,6.64Z"/><path class="cls-28" d="M423.38,267.13c-.15,2.08.87,4.31-.81,6.18C422.53,271.21,422.26,269.08,423.38,267.13Z"/><path class="cls-28" d="M422.41,276c-.16,2.05.83,4.26-.79,6.12C421.56,280.06,421.31,278,422.41,276Z"/><path class="cls-70" d="M1084.15,177.09c2.38.2,3.35,1.33,3.21,3.23s-1.15,3.22-2.95,3.25a3.3,3.3,0,0,1-3.45-3.35C1080.94,178.13,1082.66,177.35,1084.15,177.09Z"/><path class="cls-70" d="M843.8,40.67c-.14,2-1.23,3-3.13,2.87s-3.48-1.27-3.28-3.35c.16-1.76,1.5-2.71,3.45-2.54S843.76,38.76,843.8,40.67Z"/><path class="cls-49" d="M141.44,686.79a17.85,17.85,0,0,0-1.57-7.23c-2.16-3.84-2.17-8.06-2.2-12.28.73-2.13.56-4.36.74-6.55.15-1.76.53-3.45,2.27-4.41,12.18-8,22.71-17.72,30.3-30.33q.08,7.18.16,14.37a6.39,6.39,0,0,1,1.08,5,22.83,22.83,0,0,0-.42,4.2,5.39,5.39,0,0,1-.34,1.37c-1.31,4.31-1.3,8.83-2.12,13.22-1,6-2.22,12-2.91,18-.2,1.78-.53,3.52-2.31,4.5-.55,4.43-3.21,5.36-7.31,5-4.82-.42-9.7-.17-14.56-.22C141.38,690,140.71,688.53,141.44,686.79Z"/><path class="cls-49" d="M191.05,691.48l-25.06.07c-2.11-3.47,0-6.94.38-10.29.42-3.84,0-8,2.49-11.53a7,7,0,0,1,4.64-1.09,50,50,0,0,0,18.21-2.45c1.78-.61,3.91-1.25,4.88,1.44C195.75,675.81,195.09,684,191.05,691.48Z"/><path class="cls-85" d="M191.05,691.48l4.71-23.41c.93-1.48-.38-5.94,3.92-3q-2.72,13.18-5.45,26.35Z"/><path class="cls-86" d="M169.12,670q-1.56,10.77-3.13,21.53c-3.71-.42-1-3.33-1.87-4.85l4.14-23.5c2.42.35,1.81,2.32,2.07,3.83A4.67,4.67,0,0,1,169.12,670Z"/><path class="cls-87" d="M141.44,686.79l.81,4.69c-1.21.09-1.77-.49-1.72-1.69C140.79,688.78,140.4,687.57,141.44,686.79Z"/><path class="cls-88" d="M138.77,667.42a58.17,58.17,0,0,0,1.1,12.14l-1,1.14c-.92-5.28-2.84-10.37-3.11-15.78,1.26-.63.6-3.24,2.89-2.81C139.53,663.85,139.21,665.63,138.77,667.42Z"/><path class="cls-89" d="M137.86,662.23c-.44,1.12.3,3.16-2.13,2.69l-1-2.84a9.64,9.64,0,0,1,.89-.79,2.19,2.19,0,0,1,2.27-.17A1,1,0,0,1,137.86,662.23Z"/><path class="cls-90" d="M135.62,662.15c-.3,0-.61,0-.91-.07l-1.81-2.89,1.66-1C136.06,659.23,136.88,660.41,135.62,662.15Z"/><path class="cls-49" d="M171.07,650.1v-.7c2-3.32.77-7.53,2.94-10.81,1.43-.7.2-1.34,0-2,2.68-.7,1.74-3,2.07-4.72a6,6,0,0,0,1-3.9l6-19.49,2.53-6.25,2.25-4.78c9.23-3.21,16.21-9.55,22.93-16.3,1-1,1.27-3.28,3.56-2.45,1.44,1.6.68,3.42.35,5.1-3.17,16.06-6.2,32.15-10.12,48.05a8.11,8.11,0,0,1-4.55,4.87,66.8,66.8,0,0,0-25.6,21.61,4.63,4.63,0,0,1-2.57,2.15,2,2,0,0,1-1.59-1.41C170.06,656,171,653.11,171.07,650.1Z"/><path class="cls-91" d="M203.27,632.69q5.55-27,11.08-54c1.23-2,1.53-4.57,3.83-5.86-.47,9.83-3.57,19.17-5.33,28.76-1.92,10.4-4.2,20.74-6.33,31.11C205.44,634.35,204.36,635,203.27,632.69Z"/><path class="cls-92" d="M197.6,579.7l-.93-1c2.76-3.35,4.93-7.24,9.21-9.27Z"/><path class="cls-93" d="M135.62,662.15c-.35-1.3-.7-2.61-1.06-3.91-1-3.45-1.84-7-3.6-10.12q-1.47-7.73-3-15.45l.15-8.61a53.44,53.44,0,0,0,19.24-20.38,19.14,19.14,0,0,1,2.11-2.61c4.11,2.29,8.13,4.75,12.67,6.15,1.18,2.21-.91,1.9-1.87,2.29-19.27,7.81-28,26.11-21.86,45.93,1.39,2.17.34,3.94-.92,5.68Z"/><path class="cls-13" d="M171,606.19a1.71,1.71,0,0,1-1.85.92c-1.82-13.18-8.23-24.16-17-34.56,5.18,2.72,10.16,8.93,12.89,16.2C167.24,594.5,169.06,600.37,171,606.19Z"/><path class="cls-94" d="M137.52,661.12c.31-1.89.62-3.79.92-5.68.68-3.24,1.39-6.47,4-9.11-.57,3.33-1.15,6.66-1.72,10q-1,5.55-1.91,11.09c-.42-1.7.51-3.65-.91-5.18C137.75,661.86,137.63,661.49,137.52,661.12Z"/><path class="cls-95" d="M128.93,614.12l-1-1c.91-3.9,1.92-7.75,4.83-10.92Q130.84,608.16,128.93,614.12Z"/><path class="cls-96" d="M138.34,592.81c0,1.81-.93,2.43-2.26,3.2C135.93,594.32,136.84,593.62,138.34,592.81Z"/><path class="cls-49" d="M227.3,219.29c-9.15,0-18.31,0-27.46,0-8.1-.05-12-3.94-12-12.1q-.06-27.21,0-54.41c0-7.34,4-11.77,11.42-11.84,18.8-.19,37.6-.16,56.4,0,6.52.05,10.55,4.32,10.58,11q.15,28.19,0,56.37c0,7.12-4.27,11-11.49,11C245.61,219.31,236.46,219.29,227.3,219.29Z"/><path class="cls-97" d="M187.77,391.16q-68.36,0-136.7,0c-2.27,0-4.6.36-6.66-1-1.11-4,.22-5.85,4.48-5.85q68.14.06,136.3,0c2.29,0,4.4.34,5.18,2.74C191.07,389.16,189.3,390.18,187.77,391.16Z"/><path class="cls-98" d="M174,638.59c-.1,3.85.79,8-2.94,10.81a2.8,2.8,0,0,1,0-2.85c1.11-1.81-.08-3.94.79-5.79C172.18,639.63,172.6,638.63,174,638.59Z"/><path class="cls-49" d="M171.9,640.76c-.31,1.92.63,4-.79,5.79l0-6.19Z"/><path class="cls-13" d="M203.27,632.69c1.09,1.76,2.17.48,3.25,0,3.21-.55,6.39-1.25,9.61-1.6,2.44-.26,4,.32,3.32,3.61A43.28,43.28,0,0,1,203.73,661a19.56,19.56,0,0,0-4,4.13c-3.29-1.62-2.61,2-3.92,3-.26-1.63-1.21-1.58-2.43-1-7.76,3.45-16,3.23-24.21,3,0-.95,0-1.9.07-2.85.77-1.24.28-2.61.44-3.91a3.94,3.94,0,0,1,2.41-3.09c6.31-10.64,15.31-18.31,26.25-23.85C200.15,635.38,202.18,634.68,203.27,632.69Z"/><path class="cls-99" d="M421.47,427.79c0-2-.09-3.9,0-5.84.09-1.48-.77-3.54,1.46-4.11a5.12,5.12,0,0,1,5.28,1.71c2.54,2.82,3.07,13.26.77,16.29a5.59,5.59,0,0,1-6,2.33c-2.5-.63-1.37-2.93-1.51-4.54C421.34,431.69,421.47,429.74,421.47,427.79Z"/><path class="cls-13" d="M868.36,593.44q-1.38,6.88-2.78,13.76c.17-3.1-1.81-3.07-4.15-3.17-11.74-.48-23.5-.94-34.73-5-11.47-4.12-21.33-10.52-29-20.16-2.37-3-2.09-4.91.82-7.27a52.87,52.87,0,0,1,67.31.82c1.9,1.61,3.38,4.11,6.32,4.27q-1.42,6.87-2.86,13.74c-1.89,2.68-3.81.61-5.47-.15a122.19,122.19,0,0,0-21.33-7.73c-3.78-1.47-7.78-2-11.71-2.88-2.83-.25-5.58-1-8.43-1.19-1.67-1-3.51-.75-5.32-.78-5-.39-10.07-1.72-15.16-.57,3.68-.89,7.37-.4,11.06.13a18.19,18.19,0,0,0,5.5.46c3.15.27,6.18,1.32,9.34,1.51,4.31.82,8.67,1.38,12.85,2.77a132.77,132.77,0,0,1,24.74,9.12C866.53,591.72,867.8,592.1,868.36,593.44Z"/><path class="cls-13" d="M862.58,540.46c2.42,2.75,6.39,3.92,7.81,7.68-18.58.94-36.09-2.33-51.55-13.34a60.06,60.06,0,0,1-13.09-13.11c-2.14-2.84-2.36-4.31,1.5-5.84,12-4.77,24.06-7.15,36.66-2.45.62.23,1.25.38,1.64-.4l18,12.55c2.43,4.58,5.82,8.65,7,13.86.44,1.9,1.34,3.74.27,5.69-4.22,1.36-5.06-3.33-7.91-4.43Z"/><path class="cls-100" d="M624.84,768.33c-6.87,5.59-9.65,5.7-17.69.68-.28-.18-.63-.36-.72-.64-1.49-4.59-2.62-9.37-7.23-12.09a4.71,4.71,0,0,1,3.79-1,4.47,4.47,0,0,1,2.2,1.08l70.64,0c-1.37,1.8-3.33,1-5,1-13.25.07-26.5.25-39.75-.08-4.85-.12-7.09,1-6.27,6.15A30.8,30.8,0,0,1,624.84,768.33Z"/><path class="cls-101" d="M774.28,556.17c-3.82,0-5.78-2.37-5.77-5.45s1.92-5.43,5.6-5.44,5.58,2.39,5.59,5.44A5.1,5.1,0,0,1,774.28,556.17Z"/><path class="cls-102" d="M722.18,604.45c-5.91-.5-7.6,2.49-7.92,7.7-.28-5.22-1.89-8.47-8.16-7.75,5.15-.63,8.78-1.9,7.93-8.28C714.15,601.8,717.19,603.83,722.18,604.45Z"/><path class="cls-49" d="M599.28,756.47c8.13.73,6.42,7.63,7.86,12.54-1.16,6.24-4.93,12-3.11,18.78h-94.8c1.26-2.39,2.7-4.4,3.4-6.64a12.49,12.49,0,0,0-7.33-15.76,6.52,6.52,0,0,1-4-4.27c-1.55-1.1-2.13-2.49-1.26-4.31,5.71-.06,11.43-.35,17.13-.1,3.69.17,5.34-.64,6.07-4.71,4.3-24.23,7.89-48.56,11.28-72.93s5.52-48.57,7.88-72.89a5.52,5.52,0,0,1,4-1.43c6.94.1,13.91-.8,20.81.6,2.92,1.72,3.07,4.86,3.78,7.64,8.23,32.14,14.42,64.72,20.81,97.26,2.64,13.46,5,27,7.49,40.47C599.65,752.62,600.24,754.56,599.28,756.47Z"/><path class="cls-69" d="M605.19,756.39l-1.92-.08c-2-2-2-4.71-2.42-7.29-7.08-46.53-14.11-93.07-25.8-138.75a134.71,134.71,0,0,0-7.88-23.18c-2.83-6.13-11.28-11.14-17.84-10.91-3.18.11-2.45,3-3.75,4.46a1.58,1.58,0,0,1-2.23,0c-.79-1.19-.44-2.41-.38-3.73a193.67,193.67,0,0,0-4.11-50.46c-3.27-15.24-13.2-24.29-26.57-30.38-17.92-8.17-36.95-12.52-56.3-15.65,1.39-1.54,3.25-.6,4.87-.92,17,1.89,33.17,6.65,48.87,13.19,9.87,4.11,19.29,9.18,25.19,18.53,5,8,7.08,17.14,8.33,26.39,1.37,10.16,2.37,20.39,1.94,30.66-.12,2.85,1.31,4.06,3.58,4.19,15.73.83,22.15,10.89,26.17,24.6a676,676,0,0,1,16.41,72.27c4.87,27.5,9.17,55.1,13.69,82.67A33.82,33.82,0,0,1,605.19,756.39Z"/><path class="cls-15" d="M543.35,580.63l1.84-.19c6-1.14,14.56,2.14,17.44,7.06,3,5.07,4.55,10.72,5.77,16.45a2.11,2.11,0,0,1-.71,2.18l-25.31,0Q542.86,593.4,543.35,580.63Z"/><path class="cls-100" d="M463.75,768.33c-7.26,5.58-10,5.7-17.68.75A2.6,2.6,0,0,1,445,767a13.38,13.38,0,0,0-3.79-10.58H451l2,.06,43.23.17a1.21,1.21,0,0,1-.68,1.42c-6.4,1.59-12.9.6-19.36.74-8.28.18-8.29.05-11.11,7.52A5,5,0,0,1,463.75,768.33Z"/><path class="cls-103" d="M496.14,757.43a1.62,1.62,0,0,0,.1-.78l3.78.16,1.26,4.31c-.42.91.31,2.61-1.2,2.63-.59,0-1.21-1.56-1.82-2.41C496.78,760.45,495.66,759.37,496.14,757.43Z"/><path class="cls-69" d="M367.43,498c-1.86,2-3.56,2.56-5.57,1.56a.94.94,0,0,1-.3-1.59C363.26,496.82,365.1,496.92,367.43,498Z"/><path class="cls-69" d="M387,493.54c-.63,2.85-2.58,3.14-4.39,3.45a.85.85,0,0,1-.88-1.27C382.84,493.86,384.77,493.94,387,493.54Z"/><path class="cls-69" d="M389.26,490.53c-.54-2.4-.54-2.4.53-5.57C391.35,487.59,391.35,487.59,389.26,490.53Z"/><path class="cls-69" d="M377.6,497.37c-2.32.8-3.86,1.69-5.58,1.11-.72-.24-.53-1.35-.08-1.62C373.5,495.93,375.16,495.86,377.6,497.37Z"/><path class="cls-69" d="M350.33,499.05c3-1.18,4.84-.88,6.69.07C355.07,500.27,353.16,500.51,350.33,499.05Z"/><path class="cls-69" d="M346.31,499.05c-1.62,1.26-3.23,1.42-5.36.15C343.07,497.74,344.69,498.21,346.31,499.05Z"/><path class="cls-104" d="M406.66,761.34c-1.18.4-.4,2.78-2.18,2.33-.44-.11-.53-1.59-.79-2.44-1.5-2.51.05-4.27,1.43-6.33-18.21.08-36.49,0-54.76.07a10.06,10.06,0,0,0-8.06,3.94c-1,1.24-1.8,2.75-3.41,3.41-.93.53-1.34,2.93-3,.84.61-6.86,4.3-11.06,11-12.72,21.92,0,43.84,0,65.76.18,4.16,0,5.2-1.29,5.19-5.3-.13-44.32-.08-88.65-.08-133v-6.83c2.54,2.63,1.87,4.65,1.87,6.39q.06,66,.07,132c0,1.87-.76,4,.86,5.6,6.64-2.26,13.25-2.81,19.79.34,1.37,2.83-.49,2.89-2.47,2.92q-9.93.12-19.85.28C413.76,755.2,409.77,757.67,406.66,761.34Z"/><path class="cls-15" d="M325.36,481.5c-5.37,16.71-9.25,33.69-7.89,51.4,1,13.64,4.68,26.28,15.16,36.07,6.32,5.9,14.07,8.57,22.14,10.7-.25.2-.49.59-.74.59-13.19.29-26.49,1.8-39.48-1.17-11.11-2.54-17.73-10.33-19.54-21.42-4.06-25-7.6-50.07-11.52-75.08-.43-2.76.61-3.11,2.76-3.11q17.89,0,35.8,0C323.6,479.48,325.06,479.51,325.36,481.5Z"/><path class="cls-49" d="M440.3,749.84l-19.79-.33c0-45.89.09-91.77-.05-137.65,0-4.33.86-6.13,5.54-5.7,4.86.45,9.79.13,14.69.14.09,1.79.25,3.58.25,5.38q0,66.2,0,132.4C440.93,746,441.4,748,440.3,749.84Z"/><path class="cls-49" d="M406.66,761.34c1.84-5.39,5.63-8.13,11.31-8.3,6.35.07,12.69.24,19,.17,2.45,0,4.19.34,4.2,3.22,4.9.55,5.29,3.87,4.89,7.79a46.33,46.33,0,0,0,0,4.86c-1.45,5.86-4.42,11.42-3.64,17.75-.49,1.1-1.5,1.1-2.47,1.1H413c1.61-2.53,3.45-4.36,4.17-6.87,1.82-6.37-1-12.7-7.39-15.71C408,764.49,406.14,763.92,406.66,761.34Z"/><path class="cls-49" d="M926.46,642.28c-.23,1.42-.1,3.14-2.24,3.14-6.37,0-12.74,0-19.1-.13-.74,0-1.45-1.17-2.18-1.8-1.93-1.47-1.88-3.67-2.1-5.76-1.42-13.76-4.47-27.23-7.3-40.74-1.18-7.43-3.83-14.62-3.91-22.25.06-1.71-.07-3.47,1-5,5.69-2.17,11.74-2.62,17.66-3.67a2.71,2.71,0,0,1,3.13,1.82q7.22,35,14.4,70C926.11,639.37,926.25,640.83,926.46,642.28Z"/><path class="cls-70" d="M888.38,606.35,887,605a16.11,16.11,0,0,1-2.87-3.13c-2.48-5.68-4.93-11.38-8.34-16.61-1.54-2.37-1.09-5-.59-7.55,1.46-7.1,2-14.43,5.15-21.1a4,4,0,0,1,2.75,1.23c3.87,3.9,4.15,9.21,5.52,14.1.48,1.69.86,3.41,1.31,5.11.91,6.73,3.08,13.19,4.06,19.89,1.54,4.29,1.76,8.85,2.72,13.26.28,1.32.36,3.16-2.06,2.77-1.37-.87-2.19-2.33-3.45-3.31C890.22,608.57,889.36,607.41,888.38,606.35Z"/><path class="cls-13" d="M911.42,567.92c-1.4-1.41-2.88-.72-4.5-.38-5.22,1.09-10.41,2.48-15.81,2.5-1.39-.89-1.44-2.66-2.5-3.77a5.88,5.88,0,0,1-.65-1.5,42,42,0,0,1-.28-9.77c.1-1.74.1-3.71,2.44-4.24,3.49,1.7.82,4.36,1.32,6.26.63-2.3.16-5.25,1.57-7.76a16.54,16.54,0,0,1,12.64-6.89Q908.55,555.15,911.42,567.92Z"/><path class="cls-13" d="M896.83,500.12c1.38,4.79,2.93,9.55,2.8,14.63-1.51,5.8-4.41,11.12-5.86,16.94a19.22,19.22,0,0,0-1.61,7.8A8.91,8.91,0,0,1,892,541c-1.2,2.35.3,5.52-2.28,7.44-4.43-4.52-3.06-10.47-3.86-15.86a15.76,15.76,0,0,1,.37-3.35c1.18-4,1.18-8.26,1.93-12.37l0-1.11c1.67-3.8,2.16-8.06,4.45-11.61C893.68,502.5,894.24,500.23,896.83,500.12Z"/><path class="cls-13" d="M891,540.47c0-.36,0-.72,0-1.08,1.57-1.88.85-4.48,2-6.49a84.09,84.09,0,0,1,4.84-13.17c.59-1.25.8-2.93,2.82-2.7q2.49,12.68,5,25.34c-3.78,2.4-8.52,3.2-11.51,6.91-1.26.18-2.65,1.32-3.66-.47C890.05,546,891.37,543.29,891,540.47Z"/><path class="cls-105" d="M887.17,528.66a55.66,55.66,0,0,0,2.65,19.72c.81.41.9,1.37,1.49,2a1.29,1.29,0,0,1-.43,1.12c-2.09,0-1.72,1.56-1.73,2.75-.06,3.89,0,7.77,0,11.66.68,1.33,1,2.55-.84,3.23-3-7.08-6.13-14.15-7-21.93q2.45-11.2,4.88-22.41C888.65,525.52,887.34,527.23,887.17,528.66Z"/><path class="cls-97" d="M877.06,552c-2.45-2-4.95-4-6.77-6.62-.09-6-2.75-10.93-5.75-15.85-.67-1.09-3.16-2-1-4a18.74,18.74,0,0,1,9.78,7c3.85,3.76,5.89,8.2,5.15,13.69Z"/><path class="cls-13" d="M875.16,577.71c-.35,3.24.88,5.8,2.66,8.55a52.77,52.77,0,0,1,7.29,16c-5.08-.79-8.31-4.76-12.4-7.24-1.19-.72-1.13-2.26-.49-3.57Z"/><path class="cls-106" d="M896.83,500.12c-2.9,3.29-4.6,7.22-6.15,11.27-.6,1.55-.5,3.61-2.52,4.39,1.14-9.45,3.83-18.56,6-27.84C895.32,492,896.8,495.93,896.83,500.12Z"/><path class="cls-13" d="M883.19,603.06c-4.54.56-9.24-.73-13.66,1.18l1.92-8.75C876.69,596,880.13,599.21,883.19,603.06Z"/><path class="cls-107" d="M887.17,528.66c-.35-1.3.38-2.86-1-3.9.22-2.73.51-5.43,1.92-7.87A27.58,27.58,0,0,1,887.17,528.66Z"/><path class="cls-108" d="M863.44,512l-1,1q-4.17-5-8.35-10.06C858.67,504.49,860.55,508.73,863.44,512Z"/><path class="cls-109" d="M496.14,757.43l2.12,3.91c0,1.44.16,2.79-1.74,3.43-5.36,1.82-8.41,5.67-9.31,11.25-.17,1.05-1.1,1-1.84,1.15l-21.62-8.84c.36-2.73.72-5.47,1.06-8.21s2.29-2.76,4.36-2.75Z"/><path class="cls-49" d="M338.89,762.32c1.45-5.2,4.65-9,10.16-9.07,19.34-.25,38.69-.1,58.5-.1-1.41,3-3.8,5-3.86,8.08a6.51,6.51,0,0,1-3.65,4c-9.71,4.3-11.2,15-3.29,22.28-16.76,1-33.51.13-50.95.47,2.49-3.71,4.43-6.82,4.3-10.8a12.69,12.69,0,0,0-7.42-11.74C341.19,764.69,339,764.81,338.89,762.32Z"/><path class="cls-110" d="M337.1,772.38c2.42.8,4.82,1.8,4.83,5.08,0,2.7-1.4,4.33-4.12,4.44-3.05.11-5.2-1.7-5.4-4.48C332.24,774.84,334.21,773,337.1,772.38Z"/><path class="cls-110" d="M500.3,782c-2.54-.32-4.73-1.84-4.86-4.42a4.52,4.52,0,0,1,4.86-5c2.64.21,4.88,2,4.66,5.24C504.79,780.56,503.16,781.83,500.3,782Z"/><path class="cls-110" d="M404.08,782c-2.72-.29-4.3-1.82-4.12-4.74a4.71,4.71,0,0,1,5.15-4.66,4.64,4.64,0,0,1,4.4,4.94C409.46,780.57,407.16,781.83,404.08,782Z"/><path class="cls-111" d="M689.89,95.29c.08,10-.67,19.91-4.16,29.41-5.18,14.13-15,20.88-31.17,21.54-14,.57-25.21-6.14-31-18.89-6.77-14.8-6.31-30.51-5.08-46.21a58.5,58.5,0,0,1,4.26-18c5.09-12.28,14.42-18.6,27.5-19.5,14.16-1,25.8,3.31,32.88,16.5C689,71.11,689.88,83.12,689.89,95.29Z"/><path class="cls-111" d="M767.85,75.13c0,8.66.12,17.34-.06,26-.07,3.17.85,4.28,4.13,4.24,6.86-.08,6.86.1,6.86,7.13,0,1.14,0,2.29,0,3.43-.06,2.77.75,6-.44,8.19-1.45,2.67-5.06.91-7.71,1.14-2.16.19-2.81,1.1-2.78,3.08.06,4.26-.11,8.51,0,12.76.1,2.65-.6,3.82-3.54,3.74-6.7-.19-13.41-.14-20.12,0-2.49.05-3.54-.69-3.42-3.33.18-3.91-.15-7.86.11-11.77.21-3.35-.81-4.55-4.33-4.48-10.31.22-20.62,0-30.92.15-3.36.06-5-.82-4.39-4.33a3.57,3.57,0,0,0,0-1c-1.41-10.1,1.84-18.44,7.94-26.65,11.1-15,21.22-30.63,31.68-46.06a5.11,5.11,0,0,1,4.8-2.61c6,.13,12.11.22,18.16,0,3.44-.14,4.08,1.39,4,4.38C767.76,57.79,767.85,66.46,767.85,75.13Z"/><path class="cls-111" d="M595.6,74.86c0,8.67.14,17.35-.06,26-.08,3.38.9,4.57,4.4,4.5,7-.13,7,.06,7,7,0,1,0,2,0,2.95,0,2.94.82,6.37-.4,8.69-1.54,2.91-5.36,1-8.16,1.22-2.61.21-2.76,1.69-2.75,3.64,0,4.25-.08,8.51,0,12.76.07,2.29-.7,3.19-3.08,3.15q-10.31-.17-20.61,0c-2.39,0-3.13-.9-3.06-3.18.12-4.25-.11-8.51.08-12.75.13-2.86-1-3.64-3.69-3.61-10.31.12-20.62-.09-30.93.12-3.67.08-4.77-.78-5.11-4.75-.88-10.46,1.92-19.1,8.3-27.61C548.61,78.27,558.58,62.68,569,47.41c1.08-1.58,2.16-2.68,4.3-2.64,6.38.11,12.77.14,19.14,0,2.76-.07,3.25,1.24,3.22,3.59C595.55,57.2,595.6,66,595.6,74.86Z"/><path class="cls-112" d="M345.68,61.81c2.51.65,4.6,2.21,4.48,5.24-.13,3.28-2.36,5.16-5.51,4.82a4.7,4.7,0,0,1-4.49-5.36C340.44,63.55,342.37,61.94,345.68,61.81Z"/><path class="cls-102" d="M378.1,62.13c3.4.11,5.29,1.62,5.07,4.83-.21,3-2.06,4.94-5,4.93s-4.7-2-4.75-5.09C373.33,63.5,375.32,62.21,378.1,62.13Z"/><path class="cls-102" d="M361.64,62.14c3.1.07,5,1.5,4.88,4.74-.09,3-1.78,5.06-4.82,5s-4.78-2.06-4.94-5C356.59,63.66,358.53,62.21,361.64,62.14Z"/><path class="cls-17" d="M1067.89,435.42c-7.53,0-15.05,0-22.58,0-5.21,0-6.12-1.38-3.63-5.76q11.34-20,22.93-39.9c2.13-3.68,4.8-3.6,6.91.06q11.49,19.93,22.93,39.91c2.49,4.35,1.7,5.66-3.5,5.69C1083.27,435.45,1075.58,435.42,1067.89,435.42Z"/><path class="cls-113" d="M951.87,135.73c-1-.13-1.93.92-2,3.21a19,19,0,0,1-.94,4.28c-.48,1.73-1.93,1.55-3.21,1.38-1.83-.24-1-1.51-1-2.6-.07-2.46,3-6.35-2.79-6.52-1,0-.91-1.57-.84-2.55.1-1.48,1.09-1.83,2.36-1.88,1.62-.06,3.37.17,3.54-2.29s-1.33-2.61-3.1-2.7c-1.19-.06-1.69-.82-1.7-2a1.77,1.77,0,0,1,2.19-2c3.92.45,4.51-1.91,4.85-5,.21-2,.83-4.53,3.9-3.73s.68,2.89.81,4.39-1.06,3.85,1.8,4.25c2.25.32,3.84-.38,4.07-3,.08-1,.64-1.88.71-2.84.17-2.27,1.27-3.33,3.51-2.79s1.05,2.19.9,3.53c-.26,2.29-1.5,5.17,2.7,5.23a1.69,1.69,0,0,1,1.76,1.9c0,1.47-.83,2-2.16,2a18.1,18.1,0,0,0-2.44.19,2.41,2.41,0,0,0-2,2.41c-.12,1.35.41,2.26,1.87,2.28,1.91,0,3.15.57,3,2.84s-1.74,2.08-3.2,2c-2.46-.07-3.55,1.08-3.71,3.49a19.71,19.71,0,0,1-.91,3.79c-.46,1.71-1.86,1.65-3.17,1.49-2-.25-1.28-1.59-1.34-2.92C955.17,139.64,958.61,136.06,951.87,135.73Z"/><path class="cls-114" d="M170.23,663c-.3,1.4.19,3-1,4.17-.27-1.33.41-2.88-.93-4,1.44-4.25-.32-9.2,2.81-13.09,2.52,3-.56,6-.07,9C170.43,660.37,171,661.81,170.23,663Z"/><path class="cls-115" d="M170.23,663c0-1.34-.25-2.72.77-3.84l1,1Z"/><path class="cls-6" d="M201.45,180c-1.4-12.89,12.2-26.38,26.06-25.78s26.06,10.69,25.59,26c-.52,16.64-11,25.87-26.29,25.85C210.14,206.06,200.57,192.38,201.45,180Z"/><path class="cls-84" d="M854,533.83a4.75,4.75,0,0,0,2.79,2.57,2.44,2.44,0,0,1,1.31.89,7.23,7.23,0,0,0,4.36,3.2h0c.18.08,5.39,5,8,7.64,2.17,2.22,5.19,3.7,6.14,7,.91-.77.63-1.74.55-2.68a2.4,2.4,0,0,0-.32-1c-1.57-2.63-3.36-5-6.47-6.09s-4.5-4.36-7.72-5.06c0,0-4.9-3.66-4.93-3.9Z"/><path class="cls-84" d="M840.68,527.47l9.1,3.95C847.28,528.74,844.36,527.1,840.68,527.47Z"/><path class="cls-68" d="M567.69,606.13c-.65-2.52-1.48-5-1.92-7.57-2-11.56-9.49-16.87-20.58-18.12,0-1.31,0-2.61,0-3.92,0-1.91.58-2.48,2.67-2.08,3.68.72,7.28,1.69,10.89,2.68,7.42,2,9.66,8.34,11.85,14.44,7.94,22.13,12.3,45.17,16.79,68.15,3.08,15.78,5.74,31.64,8.33,47.5,2.67,16.34,5,32.73,7.52,49.1l-4,.16c-2.62-13.6-5.18-27.22-7.86-40.81-7-35.38-13.58-70.84-22.62-105.78C568.48,608.62,568.06,607.38,567.69,606.13Z"/><path class="cls-116" d="M777.07,550c.06,2.6-.7,4.06-3,4-2,0-2.88-1.22-2.93-3.13,0-2.08.74-3.52,3-3.52A2.63,2.63,0,0,1,777.07,550Z"/><path class="cls-84" d="M873.29,532.58c2.39,4.31,5,8.54,5.15,13.69q.79-3.45,1.61-6.9c-3.95-1.64-3.69-5.57-4.76-8.77L863.44,512c-.87-.22-1.35-.07-1,1C866.5,519.25,871,525.3,873.29,532.58Z"/><path class="cls-84" d="M890.84,574.78l.27-4.74c-.32-1.39.31-3-1.16-4.11-.76.92-.2,2.12-.63,3.1-.19.42.11.92-.24,1.3a4.42,4.42,0,0,0-.89-1.6,159.9,159.9,0,0,0-6.88-21.56c-.33,1.39-.66,2.77-1,4.15a15.37,15.37,0,0,1,1.43,6.71,13.36,13.36,0,0,1,3.61,6.58c1,4.16,2.35,8.25,3.55,12.37h0C889,575.8,889.44,574.85,890.84,574.78Z"/><path class="cls-84" d="M862.94,589.15a128.12,128.12,0,0,0-20.12-7.42,2.31,2.31,0,0,1-2,.95h0c9.33,3.24,18.94,5.76,27.58,10.76.31-1,.61-2,.92-3C866.81,591.83,864.9,590,862.94,589.15Z"/><path class="cls-84" d="M894.77,596.4h0l-1.67.93c.9,4.34,1.87,8.68,2.67,13,.16.83,1.08,3.13-1.55,1.63l-9.11-9.76c-3.46-2.37-6.85-4.84-10.4-7.07-1.49-.94-2.57-1.87-2.49-3.74-1.23,1.17-.77,2.66-.77,4.06,4.52,1.59,7.9,4.93,11.74,7.57,1.12.62,9.85,9.24,9.87,9.24,1,1,4,4.43,4.37,7.69.81,7.42,2.52,14.73,2.56,22.23,1.1.78-.11,3.13,2,3.11,1,0,.77-1.15,1-1.84C900.34,627.77,898.57,611.91,894.77,596.4Z"/><path class="cls-84" d="M817.28,576.81c-5.53.09-11.16-2.52-16.59,1h12.55C814.6,577.53,816.19,578.2,817.28,576.81Z"/><path class="cls-84" d="M842.82,581.73,831,578.8c-.78,1.12-2,.8-3.1,1h0l12.87,2.89h0A2.31,2.31,0,0,0,842.82,581.73Z"/><path class="cls-84" d="M831,578.8l-8.64-1.15c-1.36.26-2.94-.41-4,1a31.53,31.53,0,0,0,9.57,1.17h0C829,579.6,830.24,579.92,831,578.8Z"/><path class="cls-84" d="M822.38,577.65c-1.53-1.31-3.36-.82-5.1-.84h0c-1.09,1.39-2.68.72-4,1h0c1.54,1.29,3.36.8,5.11.83h0C819.44,577.24,821,577.91,822.38,577.65Z"/><path class="cls-84" d="M894.77,596.4c-1.1-7.25-3.66-14.22-3.93-21.62-1.4.07-1.81,1-1.94,2.2h0l4.2,20.35h0l1.67-.93Z"/><path class="cls-117" d="M890.88,551.46c0-.42.07-.83.1-1.25-.3-.25-.38-.46-.23-.63a.53.53,0,0,1,.39-.22c1,.11,2-1.34,3-.08q-1.35,4.89-2.71,9.78h-.55Z"/><path class="cls-84" d="M901.88,508c.34,1,.69,2,1,3.05l5.35-7.59C904.7,504.26,904.5,507.68,901.88,508Z"/><path class="cls-84" d="M899.63,514.75c-3.75,5-5.42,10.75-6.75,16.69-1.7,2.4-2,5.12-1.89,7.95,3.37-.83,1.34-4.2,2.79-5.94h0c1.62-5.75,3.27-11.5,6.88-16.42C900.31,516.27,900,515.51,899.63,514.75Z"/><path class="cls-84" d="M891,540.47c-1.46,2.48-.67,5.29-1.18,7.91.13.77-.07,1.75,1.16,1.83a2.25,2.25,0,0,1,.16-.85C889.92,546.41,893.28,543.4,891,540.47Z"/><path class="cls-49" d="M663.06,95.21c.08,7.35-.16,14.69-1.92,21.87-.93,3.82-2.61,7.2-7.33,7.2s-6.54-3.46-7.27-7.26a117.91,117.91,0,0,1,0-44.23c.71-3.78,2.44-7.45,7.07-7.56,4.94-.12,6.56,3.69,7.54,7.63C663,80.19,663.13,87.7,663.06,95.21Z"/><path class="cls-118" d="M740.86,88.86c0,4.39-.11,8.78,0,13.17.09,2.59-.92,3.41-3.42,3.31-3.87-.16-7.74,0-12.42,0l14.69-23.4C742.49,83.85,740.93,86.47,740.86,88.86Z"/><path class="cls-119" d="M740.86,88.86c-.86-2.24.85-4.89-1.11-7,0-1,.4-1.8,2-2.77C741.51,82.75,742.16,85.83,740.86,88.86Z"/><path class="cls-120" d="M569.2,80.05c-.44,7.28-.36,14.46-.23,21.62,0,2.73-.76,3.83-3.6,3.68-3.84-.2-7.7,0-12.19,0C558.19,96.14,564.79,88.84,569.2,80.05Z"/><path class="cls-116" d="M347.81,66.82a2.24,2.24,0,0,1-2.15,2.67,2.72,2.72,0,0,1-3.11-2.88A2.23,2.23,0,0,1,345,64.22,2.56,2.56,0,0,1,347.81,66.82Z"/><path class="cls-121" d="M378.1,64.2c1.68,0,3,.69,3,2.47a2.88,2.88,0,0,1-2.62,3A2.78,2.78,0,0,1,375.54,67C375.28,65.21,376.46,64.4,378.1,64.2Z"/><path class="cls-116" d="M361.48,69.78c-1.51-.56-2.65-1.51-2.62-3.12s1.29-2.53,3-2.43,2.81,1,2.55,2.78A3.21,3.21,0,0,1,361.48,69.78Z"/><path class="cls-49" d="M1045,431.51c6.23-10.88,11.74-20.85,17.65-30.59,1.7-2.81,2.25-7.91,5.66-7.78,2.55.09,3.31,5.12,5,7.9,5.19,8.67,10.21,17.46,15.4,26.13,1.91,3.2,1.63,4.45-2.51,4.4C1072.83,431.4,1059.44,431.51,1045,431.51Z"/><path class="cls-122" d="M957.77,128.6c.06,2.25-1.46,2.49-3.23,2.43-1.39,0-2.64-.22-2.6-2,0-2,1.22-2.81,3.11-2.87C956.76,126.07,957.92,126.57,957.77,128.6Z"/><path class="cls-49" d="M246.76,179.68c0,15.45-15.78,24.92-28.86,18-2.39-1.27-2.79-2.2-.74-4.21q11.73-11.5,23.23-23.23c1.93-2,3-1.9,4.25.61C246.16,173.82,247.15,176.84,246.76,179.68Z"/><path class="cls-49" d="M227.18,160.42c.49,0,1,0,1.47,0,3.28.28,7.32.46,8.6,3.52,1,2.31-2.71,4-4.47,5.83-6.28,6.44-12.77,12.67-19,19.12-2.44,2.52-3.6,1.78-4.86-1C203.11,175.19,212.92,160.39,227.18,160.42Z"/><path class="cls-11" d="M1070.74,411c.34,2.64-.51,6.13-1,9.66-.14,1.11,0,2.56-1.47,2.63s-2.16-1.47-2.26-2.69c-.25-2.9-.18-5.83-.3-8.75a22.61,22.61,0,0,0-.44-4.81c-.69-2.54.1-4.51,2.53-4.82,3.16-.39,2.84,2.33,2.88,4.42C1070.76,407.79,1070.74,408.92,1070.74,411Z"/><path class="cls-123" d="M1069.71,427.17c0,1.28-.33,2.14-1.57,2.13a1.78,1.78,0,0,1-1.94-1.67,1.72,1.72,0,0,1,1.69-1.89A1.5,1.5,0,0,1,1069.71,427.17Z"/></svg>