<svg id="Layer_1" data-name="Layer 1" xmlns="http://www.w3.org/2000/svg" viewBox="0 0 1120 800"><defs><style>.cls-1{fill:#e6f4fd;}.cls-2{fill:#b3e7fc;}.cls-3{fill:#fea878;}.cls-4{fill:#fcc73e;}.cls-5{fill:#19307e;}.cls-6{fill:#d8effe;}.cls-7{fill:#b5e8fd;}.cls-8{fill:#fec741;}.cls-9{fill:#ee8318;}.cls-10{fill:#26387a;}.cls-11{fill:#feb187;}.cls-12{fill:#eff9fe;}.cls-13{fill:#fdb187;}.cls-14{fill:#e2e7ed;}.cls-15{fill:#f1fafd;}.cls-16{fill:#233c7e;}.cls-17{fill:#f9b187;}.cls-18{fill:#ee9366;}.cls-19{fill:#ee7e0f;}.cls-20{fill:#aed2f6;}.cls-21{fill:#faaf83;}.cls-22{fill:#f0fbfd;}.cls-23{fill:#2454aa;}.cls-24{fill:#d6e9f8;}.cls-25{fill:#d4e8f8;}.cls-26{fill:#fbb085;}.cls-27{fill:#dcecf9;}.cls-28{fill:#dfeefa;}.cls-29{fill:#fdaf84;}.cls-30{fill:#add2f5;}.cls-31{fill:#cee5f7;}.cls-32{fill:#d5e9f8;}.cls-33{fill:none;}.cls-34{fill:#fbc73f;}.cls-35{fill:#253376;}.cls-36{fill:#fcc63c;}.cls-37{fill:#fbfcfe;}.cls-38{fill:#d1e7f7;}.cls-39{fill:#fcc22f;}.cls-40{fill:#1e2f72;}.cls-41{fill:#233578;}.cls-42{fill:#e0effa;}.cls-43{fill:#17296f;}.cls-44{fill:#fdc841;}.cls-45{fill:#dfeef9;}.cls-46{fill:#ddedfa;}.cls-47{fill:#162970;}.cls-48{fill:#deedf9;}.cls-49{fill:#dbecf9;}.cls-50{fill:#dcedf9;}.cls-51{fill:#dcedfa;}.cls-52{fill:#fdac7f;}.cls-53{fill:#d2e8f8;}.cls-54{fill:#daecf8;}.cls-55{fill:#ddedf9;}.cls-56{fill:#d7e9f8;}.cls-57{fill:#1f51a9;}.cls-58{fill:#d3e7f8;}.cls-59{fill:#d0e7f9;}.cls-60{fill:#daebf8;}.cls-61{fill:#d6eaf8;}.cls-62{fill:#dbebf8;}.cls-63{fill:#1e3075;}.cls-64{fill:#daebf9;}.cls-65{fill:#dbebf9;}.cls-66{fill:#d8ebf9;}.cls-67{fill:#d7eaf9;}.cls-68{fill:#d5e8f8;}.cls-69{fill:#d6e8f8;}.cls-70{fill:#dceefa;}.cls-71{fill:#dbecfa;}.cls-72{fill:#d7ebf9;}.cls-73{fill:#fea97b;}.cls-74{fill:#d3e7f7;}.cls-75{fill:#d4e9f8;}.cls-76{fill:#d1e7f8;}.cls-77{fill:#d1e6f7;}.cls-78{fill:#d4e7f7;}.cls-79{fill:#10236c;}.cls-80{fill:#d3e8f8;}.cls-81{fill:#feaa7d;}.cls-82{fill:#cfe6f8;}.cls-83{fill:#cde5f8;}.cls-84{fill:#ee8c5d;}.cls-85{fill:#fdaa7d;}.cls-86{fill:#cde4f6;}.cls-87{fill:#fec22d;}.cls-88{fill:#d0e6f8;}.cls-89{fill:#cfe6f9;}.cls-90{fill:#07237e;}.cls-91{fill:#cde4f7;}.cls-92{fill:#d1e7f9;}.cls-93{fill:#d0e5f7;}.cls-94{fill:#d0e7f7;}.cls-95{fill:#1246a4;}.cls-96{fill:#14256e;}.cls-97{fill:#daecfb;}.cls-98{fill:#d2e7f7;}.cls-99{fill:#cde6f6;}.cls-100{fill:#fea674;}.cls-101{fill:#243679;}.cls-102{fill:#2c3e7e;}.cls-103{fill:#283a7a;}.cls-104{fill:#27397b;}.cls-105{fill:#1f3379;}.cls-106{fill:#095fa6;}.cls-107{fill:#1f2d74;}.cls-108{fill:#e9aa88;}.cls-109{fill:#e3ad8f;}.cls-110{fill:#1063a7;}.cls-111{fill:#f2b388;}.cls-112{fill:#dba987;}.cls-113{fill:#fcb185;}.cls-114{fill:#edf3f8;}.cls-115{fill:#243476;}.cls-116{fill:#0e2169;}.cls-117{fill:#192e76;}.cls-118{fill:#12216c;}.cls-119{fill:#f8fefe;}.cls-120{fill:#7080ad;}.cls-121{fill:#10226c;}.cls-122{fill:#081f6e;}.cls-123{fill:#fdfefe;}.cls-124{fill:#00004a;}.cls-125{fill:#fcad2b;}.cls-126{fill:#fefefe;}.cls-127{fill:#fcae2b;}.cls-128{fill:#a8cff5;}.cls-129{fill:#a7cdf4;}.cls-130{fill:#acd1f5;}.cls-131{fill:#fdab7c;}.cls-132{fill:#e1f4fe;}.cls-133{fill:#a4cbf3;}.cls-134{fill:#a8effe;}.cls-135{fill:#add1f4;}.cls-136{fill:#9fc7f3;}.cls-137{fill:#f07804;}.cls-138{fill:#c8fcfe;}.cls-139{fill:#bbedf9;}.cls-140{fill:#feaa7a;}.cls-141{fill:#1644a2;}.cls-142{fill:#1347a4;}.cls-143{fill:#fcf7f2;}.cls-144{fill:#27387a;}.cls-145{fill:#ec7e0e;}.cls-146{fill:#a5cdf4;}.cls-147{fill:#a7cef6;}.cls-148{fill:#c3e2fa;}.cls-149{fill:#dff3fe;}.cls-150{fill:#e5d9d2;}.cls-151{fill:#d2f8fe;}.cls-152{fill:#fbad81;}.cls-153{fill:#ee7702;}.cls-154{fill:#faac27;}.cls-155{fill:#fb8d12;}.cls-156{fill:#b3d5f6;}.cls-157{fill:#092484;}.cls-158{fill:#feaa79;}.cls-159{fill:#fdfdfe;}.cls-160{fill:#bbeef7;}.cls-161{fill:#18296f;}.cls-162{fill:#fdaa79;}.cls-163{fill:#8dcaf4;}.cls-164{fill:#c4fafe;}.cls-165{fill:#7ebef1;}.cls-166{fill:#79b9f0;}.cls-167{fill:#abeffe;}.cls-168{fill:#dccabd;}.cls-169{fill:#d2e7f8;}.cls-170{fill:#c8fdfe;}.cls-171{fill:#82c3f2;}.cls-172{fill:#7bbbf1;}.cls-173{fill:#7bbcf1;}.cls-174{fill:#8dbcf0;}.cls-175{fill:#93c0f1;}.cls-176{fill:#8fbef0;}.cls-177{fill:#e7f5fc;}.cls-178{fill:#e9f6fc;}.cls-179{fill:#91bff1;}.cls-180{fill:#eefafe;}.cls-181{fill:#95c1f1;}.cls-182{fill:#f2fbfe;}.cls-183{fill:#f1fbfd;}.cls-184{fill:#ee8418;}.cls-185{fill:#fcac26;}.cls-186{fill:#fcac29;}.cls-187{fill:#fec32a;}.cls-188{fill:#ed6d0e;}.cls-189{fill:#ed8011;}.cls-190{fill:#feb899;}.cls-191{fill:#0c2b85;}.cls-192{fill:#ec7f0b;}.cls-193{fill:#fbb188;}.cls-194{fill:#d8eefc;}.cls-195{fill:#baedf8;}.cls-196{fill:#102b78;}.cls-197{fill:#152b74;}.cls-198{fill:#132d78;}.cls-199{fill:#092778;}.cls-200{fill:#0c2978;}.cls-201{fill:#152870;}.cls-202{fill:#937881;}.cls-203{fill:#feaa1d;}.cls-204{fill:#fdac7c;}.cls-205{fill:#b0daf5;}.cls-206{fill:#fec68a;}.cls-207{fill:#052475;}.cls-208{fill:#293a7a;}.cls-209{fill:#203479;}.cls-210{fill:#29397a;}.cls-211{fill:#fec189;}.cls-212{fill:#b68983;}.cls-213{fill:#fec48a;}.cls-214{fill:#132d79;}.cls-215{fill:#0f2a78;}.cls-216{fill:#add9f5;}.cls-217{fill:#0c5599;}.cls-218{fill:#ab8382;}.cls-219{fill:#f4b989;}.cls-220{fill:#fdfdfc;}.cls-221{fill:#fafcfc;}.cls-222{fill:#fbfcfc;}.cls-223{fill:#172a70;}.cls-224{fill:#0c1d67;}.cls-225{fill:#0c2983;}.cls-226{fill:#febc22;}.cls-227{fill:#283778;}.cls-228{fill:#fea411;}.cls-229{fill:#fb9119;}.cls-230{fill:#feab7b;}.cls-231{fill:#eaf6fc;}.cls-232{fill:#e4f3fc;}.cls-233{fill:#f0f9fe;}.cls-234{fill:#e0ab87;}.cls-235{fill:#031b76;}.cls-236{fill:#b4dcf6;}.cls-237{fill:#bbdff6;}.cls-238{fill:#fcfcfc;stroke:#c4cfda;stroke-miterlimit:10;}.cls-239{fill:#2858ac;}</style></defs><path class="cls-1" d="M467.61,715.07c18.25.47,36.61.51,54.84,2.45s36.5,2.8,54.83,2.92c14.28.1,28.39-2,42.61-2.56,4.18-.15,1.56-3.11,2.42-4.59,5.77,2.37,3.18,8.42,5.46,12.32a68.78,68.78,0,0,0,2.78,10.16c.82,3.59,1.15,7.29,2.61,10.73.25.62.45,1.26.64,1.91a18.71,18.71,0,0,1,.53,2c.67,2.45.54,4.71-1.55,6.5-3.63,2.42-8,3.73-11.06,6.91,2,2.05,4.31.22,6.39.69a22,22,0,0,0,6.46-.62,22.77,22.77,0,0,1,2.58-.55,3.84,3.84,0,0,0,2.77-1.51c.7-1.95-.43-3.71-.55-5.56s-.81-3.88-.94-5.87a10.83,10.83,0,0,1,.16-2.05c.8-3.08.37-6.32,1.15-9.4,1-2.8.73-5.71.78-8.6.05-1.91.16-3.81,1.36-5.43a2,2,0,0,1,2.09-.4c1.09,1.83.12,4.09,1.06,5.95.37.9.78-.82,0-.21-.59-3.39-.73-6.89-2.55-10a15.87,15.87,0,0,1-.56-3.5c.42-3.38-1.47-7.52,3.13-9.51,2.94,2.91,1.8,5.95,1,7.93.86-2.31,4.09-2.07,7.07-2.59,10.56-1.81,21.3-2,31.85-3.86a2.53,2.53,0,0,1,2.86,1.27c4,12.87,7.89,25.77,12.93,38.29a24.29,24.29,0,0,1,.93,3.12c.6,2.07,1.13,4.15.25,6.28-3.16,4.56-9.07,5-13.28,9,5.63,1.59,10.73-.06,15.79-1.12,3.68-.76,3-3.69,2.44-6.32a48.28,48.28,0,0,1-.85-7.31,37,37,0,0,0,.35-5.57c.4-4.33-1-8.89,1.54-13a1.73,1.73,0,0,1,2.24.06c.55,4.85.35,9.7,0,16,.61-8.76.73-16-1.81-23.08a41.44,41.44,0,0,1-.59-8.69c0-2.52-.05-5,.15-7.56.57-1.84.3-4.46,3.53-3.89.94,3.22,0,6.43.44,8.89,1-2-1.48-5.79,1.36-8.08s6.36-1.42,9.63-1.76c22.89-2.35,45.8-4.35,68.83-4.31,11.87,4.49,23.82,8.79,34.89,15.14,2.92,8.8,4,18,5.84,27,1.06,5.09-2.07,7.92-5.85,10.33-.94.67-2.15,1-2.71,2.09a10.68,10.68,0,0,0,8.36-1,7.44,7.44,0,0,1,5.29-1.12c1,.13,2.07.59,3.12.14.88-1.43.15-2.5-.76-3.55-.23-.24-.42-.47-.65-.72s-.4-.53-.6-.8c-2-3.21-.48-6.22.45-9.28,2.21-6-.11-13.42,5.68-18.33,3.14-1.12,6.11.12,9.12.7,12.39,2.41,24.9,4.11,37.39,5.89,8.17,7.2,8.91,22.67,1.37,28.05a11.58,11.58,0,0,0-2.36,2.11.88.88,0,0,0,.86.94,15,15,0,0,0,8.33-1.68c2.42-1.12,4.89-2,7.47-.53a3.44,3.44,0,0,0,1.16.59c-1.16-1.64.68-4.71-2.59-5.37a6.14,6.14,0,0,1-.91-2c-1-5.26.45-10.31,1.22-15.41.37-2.45,1.39-4.51,4.07-5.23,35.47,1.22,70.94.2,106.41.7,2.9,0,6.44-.47,7.73,3.5-1.69,1.31-3.67.78-5.53.78-28,0-56,0-83.15,0-1.82.19-.53,1.63-1,.79-.1-.17.05-.29.46-.34,8.05-.94,16.12-.33,24.18-.37q29-.16,58,0c4.12,0,8.06-.36,11.8-2.12,4.87-.53,10-2.49,13.68,2.85,4.89,7.76,3.66,14.45-3.82,19.67-11.64,8.12-25.07,11.25-38.79,13.11q-33.45,4.54-67,8.43c-12.49,1.43-25.06,2.33-37.61,3-23.28,1.32-46.55,2.58-69.87,3.24-23.76.67-47.53,2.51-71.32,2.43-34.07-.12-68.15.86-102.17,1.93-59,1.86-117.91,1.14-176.84.59-25.49-.24-51.07.53-76.5-1.19-33.64-2.28-67.27-.28-100.89-1.28-22.77-.68-45.59-1.07-68.27-3-22.15-1.94-44.49-3.65-65.81-11a12,12,0,0,1-2.06-.59c-5.47-3.07-12.85-4.38-14.11-11.84-1.36-8.06,4.67-13.13,10.25-16.71,19-12.14,39.37-21.2,61.65-25.54,3.79,0,3.09,3.11,3.2,5.13.42,7.66,3.08,15.3.5,23a9.18,9.18,0,0,1,1.2.69,7.31,7.31,0,0,1,1.12,3.77,11.12,11.12,0,0,1-.58,4.09c-4.69,7.11-4.4,7.88,4,10.7,1.56.52,3.16.87,4.75,1.26,1.34.09,2.46,1.27,3.92.75a6.44,6.44,0,0,0-1.57-1.46,102.55,102.55,0,0,1-7.14-7.75c-.86-2.6.72-4.35,2.11-6.18a15.45,15.45,0,0,0,2.89-5.75,9.81,9.81,0,0,1,.79-1.71c2.64-2.78,3.72-6.44,5.45-9.73a87.78,87.78,0,0,0,5.66-8.84c1.82-2.78,2.06-6.48,5-8.62.61-.39,1.22-.76,1.82-1.16,3.49-6.17,8.94-7.63,15.68-7.54,21.69.3,43.37,0,65,.29Z"/><path class="cls-2" d="M908.82,728.68c.49-3.85-.37-7.88,1.5-11.55,2.81-2.08,6-2.19,9.34-2,29.51,2.45,59.1,1.26,88.65,1.48,4.34,0,63.52,6.1,86.72,18.22,8.63,4.51,15.76,10.18,14.9,21.34-.59,7.61-14.86,19.33-22.22,18.26a5.79,5.79,0,0,1-4.72-3.93,5,5,0,0,1,2.2-6.23c2.6-1.66,14.84-11.15,9.29-15.85-6.32-5.34-14-8.15-21.83-10.3-9.85-2.7-46.87-5.5-48.75-6.6-2.16-2.19-59.8-1.37-86-1.4C928.2,730.15,918.45,730.56,908.82,728.68Z"/><path class="cls-3" d="M811.75,610.31c.38,4.7-1.16,9.57,1.17,14.11a4.51,4.51,0,0,0,.82-1.62,14.33,14.33,0,0,1-.67,7.09,97,97,0,0,0,2.8,23h0c.06.9.13,1.8.19,2.69h0q3.33,22.32,6.67,44.64c-2.15,5.24-.6,9.82,2.52,14.11,1.52,7.45,2.58,15,4.68,22.32,1.91,6.61.79,11.42-5.37,14.77.06,4.16,3,3,5,2.34,2.89-.93,5.9-1.89,8.12-4.24.65-3.9.37-7.94,1.83-11.71.16-.42,0-.93.09-1.39a3,3,0,0,0,.8,2.59q2.05-9.46,4.1-18.91c2.93-3.72,2.59-8.34,3.44-12.64.21-3.15-.15-6.36,1-9.4.56-8.33,3.51-73,.38-81.07a4.52,4.52,0,0,0-4.7-.1m5.11,39.75a.74.74,0,0,0,0-.14c0-.08,0-.15,0-.23C849.75,656.41,849.76,656.53,849.76,656.66ZM848,675.47a2.17,2.17,0,0,0,0,.26h-.05A2,2,0,0,0,848,675.47Z"/><path class="cls-1" d="M407.82,113.85c-.64,10.45-.52,20.76-.33,31.06.07,3.91-1.1,5.49-5.17,5.28-5.52-.29-11.06-.07-17.51-.07C392,137,401.48,126.47,407.82,113.85Z"/><path class="cls-4" d="M397.56,535c-4-1.23-5.7-4.14-5-8.08.58-3.38,2.34-6.17,6.24-6.68a40.18,40.18,0,0,1,5.15-.07c.89.3,8.72-.56,10.45-.64.05,0,1-.33,1.48-.42l2-.22h.05c2.79-.09,11.95-.69,13.69-.77.05,0,8.26.34,8.27-.92.05-6.3,1-14.85-.82-21-.15-.5-5.29-9.86-9.1-9.89-1.63,0-4.9.41-4.93.41s-25.79-.61-29,0a3.21,3.21,0,0,0-.89.34c-3.45,2-5.31.63-5.88-3.3-1-6.6,2-10.82,9.89-9.5l.5,0c2.5-.1,34.06.1,33-1.62-4.36-7.33-10.84-17.08-17.82-22.6-2.29-1.82-42.23-7.16-42.07-6.8-15.82,6.72-29.3,29.64-28.4,48.23l0,.31a64.57,64.57,0,0,1,0,20.06c-1.44,7.45,1.31,14.23,4,20.78,7.56,18.64,17.87,34.7,40,38.29l.5,0c13.78.3,26-3.71,35.09-14.42a71.5,71.5,0,0,0,12.77-22.28,2.9,2.9,0,0,0-2.65-3.9H434Z"/><path class="cls-5" d="M709.58,578.33l-2.44-3.24h0c-11.78-16.94-26.76-29.63-47-35.33-2.2,1-2,3-1.8,4.89.23,2.24,3,3.88,1.88,5.93-.32-.87.61-2.87-2.3-2.43a5.6,5.6,0,0,0-1.44,2.83c-.36,5-3.68,9.25-3.65,14.35.12.55.22,1.11.31,1.67-1.47.66-2,2-2.39,3.6l-2.32,2.69q-5.19,5.51-10.4,11a6.9,6.9,0,0,1-2,.57c-6.84,3.46-14.25,5.66-20.85,9.62l-2.79,1.34c-2.64,1-5.33,2-7.43,4a8.22,8.22,0,0,0-1,.06q.64,4.23,1.3,8.46h0c.87,8,1.48,16.08,2.68,24,2.41,15.94,4.09,32,8.56,47.6a18.69,18.69,0,0,0,1.55,8.6l4.23,23q2,6.71,4,13.41c.47,3.34.88,6.71,2.77,9.64h0a28.72,28.72,0,0,0,3.09,11.59c1.06-.85,2.32.06,3.49.3-1,.21-2.35-.3-3,.9a1.15,1.15,0,0,0,0,1l6.89-.43,0-.57c2.43-2.82,1.34-6.26,1.64-9.45Z"/><path class="cls-6" d="M365.92,312c10,3.67,17.64,11,25.78,17.4,13.08,10.32,25.19,21.7,33.16,36.62,5.47,10.24,2.88,17-8,20.3a111.73,111.73,0,0,1-52.69,3c-2.28-4.85.11-9.29,1.14-13.93-2.46,4.87-1.1,10.68-3.93,15.38q0,25.71,0,51.43c-1.61,2.15-4.17,2.57-6.43,2.61-10.33.21-19.52,3.78-28.26,8.88-6.43,1.22-11.86,4.53-17.31,8-5,3.14-6.81,6.83-4.18,12.47,1.3,2.77,2,5.82,3.11,8.7,2.55,8.44,5.85,16.62,8.6,25,.88,2.68,1.8,5.46,1.07,8.4-1.1,2.68-3.39,3.81-6,4.58a6.58,6.58,0,0,1-2.17.08c-2.49-.51-4.44-2.1-6.55-3.37-7.46-5.12-13.75-11.29-17.25-19.83,1.11,3,1.94,5.87-1.41,8.09-1.37,0-2.53-1.05-3.95-.86-12.91,1.41-25.13,5.39-37.31,9.59-2.57.88-5.11,3-8.07,1-.51-1.56-1.46-3.12-1.46-4.68.06-27.19-1-54.39,3.83-81.4,2-11.12,3.32-22.32,7.45-32.94,2.74,2.39,2.12,5.67,2.07,8.66a131.25,131.25,0,0,0,2.56,29c.56,2.17.73,4.45,1.64,6.54,2.83,14.14,11.18,25.42,19.2,36.86.32.51.86.92.87,1.61.15-.9-.81-1.17-1.05-1.88C262.24,465.52,254,454,251.12,439.7c-.86-2.05-.87-4.3-1.53-6.39-1-6.36-2.38-12.67-2.26-19.15.12-6.06.72-12.12-.21-18.15a8.53,8.53,0,0,0-1.89-2.38c1.44-6.92,2.82-13.85,4.35-20.75,4.43-20,16.58-32.45,36.67-37.12,7.38-1.71,14.57-4.37,22.32-3.82,6.31,1.06,10.69,7.07,17.51,6.8,5.91.46,11.64.34,16.05-4.52,8.63-2.72,15.87,1.46,23,5.13,6.95,3.59,13.52,7.94,21.52,12.84-7.87-10.23-14.38-19.65-21.43-28.69-1.58-2-3.69-3.84-3.26-6.84C362.67,314.58,363.76,312.82,365.92,312Z"/><path class="cls-6" d="M643.62,327.87c5.58,1.06,11.22,1.88,16.73,3.23,24.47,6,37.56,22.89,43.59,46.19,2.48,9.54,4.12,19.07,3.41,29.27-.53,7.52,2.81,15.27,4.12,23,4.2,24.71,8.16,49.46,12.47,74.14.62,3.53-2.74,4.85-2.89,7.68-1.91,1.62-4.42,1.45-6.6,2.27A140.41,140.41,0,0,1,693.1,520a7.8,7.8,0,0,1-3.11.74c-9.47-.15-18.74,2.42-28.22,2.15a8.54,8.54,0,0,1-3.28-.94,7.68,7.68,0,0,1-2.72-3.47c-1-3-2.33-6-2.58-9.21,1.66-5.2,5.82-8.67,9.2-12.55a265.43,265.43,0,0,0,24.9-34,83.09,83.09,0,0,0,12.18-34.81,19.88,19.88,0,0,1,.54-3.16c1-3.08.65-6.27.72-9.42-.11-1.64.28-3.3-.28-5.48-2.85.62-5.71,1.65-8.72,1.49-8-.33-16.07.85-24-.87a7.16,7.16,0,0,0-2-.09c-1.44,1-1.39,2.49-1.28,3.86,1.94,23.58-6,45-14.66,66.2-1.85,4.56-2.3,9.83-6.34,13.36-3.17,1.45-4-1.58-5.61-3a38.37,38.37,0,0,0-8.78-5.92c-3.75-2.63-8.19-3.06-12.5-3.88-5.6-1.74-10-6.3-16.24-6.6a22.53,22.53,0,0,1-5.47-1,6.81,6.81,0,0,1-3.6-2.93c-2.21-7.37-.21-15-1.52-22.47a6.9,6.9,0,0,1,.24-2.35,9.94,9.94,0,0,1,.94-2.14c1.48-10.26,1.05-20.53.2-30.81a6.21,6.21,0,0,1-.67-2.22,5.3,5.3,0,0,1,1-2.11c.26-8.56.06-17.13.11-25.68-.07-1.51.68-2.91.68-4.43a10.87,10.87,0,0,1,.06-1.28c0,.95-.12-.49-.08.57-1.55,10.42-.14,20.81-.86,31.14-3.89,4.46-8.43,1.85-12.79,1.19-3.29-1.24-7-1.68-9.26-4.88-3.18-1.92-3.86-4.19-3.09-8.15,4.28-21.92,12.11-41.53,32.66-53.38,4.71-2.71,9.81-4.75,14.74-7.1,1.29,1,3,1.08,4.37,1.88,8.26,2.26,14.64-1.67,20.77-6.32C640.39,330.61,641.71,328.87,643.62,327.87Z"/><path class="cls-7" d="M873.33,458.17l-5.81-.16c-6.67-.33-13.34-.21-20-.07-8.89.09-16.37-4.59-24.46-7.22.19-1.64-.23-3.79.66-4.84,8.23-9.74,5.33-21.59,6.36-32.65.31-3.31-1.14-6.43-3-9.35-5.12-8.15-9.35-16.63-6.8-26.73,1.21-4.79-2.27-3.57-4.57-3.64-12.83-.4-25.63-1-38.15-4.17-16.81-4.24-20.74-14.28-10.62-28.26,9.72-13.41,23.89-21.62,37.44-30.43,5.57-3.63,11.51-6.69,17.29-10a5.07,5.07,0,0,1,3.43,4.77c-3.33,7.88-9.75,13.43-15.09,19.77-3.33,4-6.78,7.79-10.36,12.6,8.44-1.61,16.12-3,23.86-4.16a12.39,12.39,0,0,1,5.18,0,21,21,0,0,0,11,.2,7.73,7.73,0,0,1,3.88,0A3.23,3.23,0,0,1,845,335c1.36,2.15,3.22.56,4.85.62a4.22,4.22,0,0,1,1.8.22c1.67,1.33,1.94,3.57,3.32,5.09.19.21.36.44.55.65.43.37.85.76,1.3,1.11a7.24,7.24,0,0,0,5.92-.28c.45-.43.91-.83,1.36-1.25,1.15-1.16,2.23-2.38,3.48-3.44a10.73,10.73,0,0,1,2.78-1.66c6.27-2.53,12.86-1.43,19.32-1.68,11.23-.31,19.89,4.84,27.25,12.76,1.25,1.59,2,3.51,3.52,4.95,4.85,10.38,14,17.85,19,28.13,3.76,7.64,8.19,14.87,10,23.46,1.35,6.27.13,11.66-2.39,17.12A172.89,172.89,0,0,1,932,446.58c-.92,1.45-.88,3.53-2.85,4.29l-9.51,11.48c-2.23-.11-3.56-1.44-4.47-3.32-1.11-3.38-.86-6.85-.62-10.31a12.33,12.33,0,0,1,.43-2.16c3-10,4.3-20.45,8.44-30.13a4.36,4.36,0,0,0-1.22-5.19,146.72,146.72,0,0,0-17.78-14.7c-2.06,15.82-5.38,30.61-2.44,45.8.6,3.08,1.86,6-1.45,8.35l-2.9,1.65a35.8,35.8,0,0,0-9.26,2.06c-1,.2-2-.25-3,.24a2.15,2.15,0,0,1,2.39.65l-10.68,2.49C876,459.32,874.68,458.8,873.33,458.17Z"/><path class="cls-1" d="M275.25,297.12c-1.28-1.07-2.64-2-3.95-3-9.15-7.14-20.24-13.36-13.16-28.09a9.92,9.92,0,0,0,.88-3.44c1.67-20,1.11-33.1-16.67-44.27a104,104,0,0,0-46.83-15.6c-19.21-1.74-36.15,2.53-49.64,16.09-15.71,15.81-22,35.55-21.27,57.87.58,17.61,9.45,31.6,25.85,38.3,25.11,10.28,50.94,10.6,77,5,11.29-2.44,20.66-7.56,22-20.83.39-3.75,2.37-4.46,6-3.6,6.57,1.54,13.27,2.45,20.25,3.69C275.49,298,275.52,297.35,275.25,297.12ZM152.45,273.9c-6.94-.62-7.89-5.69-7.8-11.31.06-6.92,3.19-10.85,8.5-10.67,5,.17,8.85,5,8.73,11C161.74,269.7,157.89,274.38,152.45,273.9Zm51.74-13.55c4.74,0,5.46,2.89,5.36,5.26-.1,4.92-.72,8.79-5.1,8.44s-5.11-4.32-5.11-8.15C199.35,262.62,200.27,260.37,204.19,260.35Zm24.48,12.17c-1,2.68-3.7,2.29-6.06,1.63-1.12-.3-2.21-.71-3.31-1.09-3.85,2.27-6.81,6.52-11.35,7-4.35.43-6.43,1.93-6,7.1-2.36-3.49.14-7.08-2.53-9.47.11-.2.23-.59.34-.59,14.32.18,17.54-4,13.75-17.95,1.64-.17,1.76,0,4.21,4.08,1.59,2.92,4.69,3.65,7.31,5.1C226.78,269.27,229.68,269.83,228.67,272.52Z"/><path class="cls-8" d="M506,550.06c-2.38-6.68-1.46-13.55-1.12-20.38,2-3.14,1.83-6.56,1.38-10,1.78-11.06,5.4-21.34,12.94-29.91,3.63-3.09,7.33-6.11,9.85-10.26,6.89-6.3,15.41-8,24.33-8.66a7.34,7.34,0,0,1,6.65-1.17c3.82,1.55,7.77,2.82,11.45,4.73,20.17,13.48,28.36,33.33,29.77,56.59,1,15.73-1.5,30.85-9.29,44.88a64.08,64.08,0,0,1-20.13,21.88c-3.4,2.08-7.35,2.37-11.08,3.39-23.6,3.35-40.72-10.34-50.05-32.86-.43-5.57-2.92-10.67-3.7-16.16-.13-2,0-4-.22-6-.26-.94-1.65.17-.74-.1.38-.11.55,0,.62.33C507,547.66,507.18,549,506,550.06Z"/><path class="cls-9" d="M570.64,596.92c35.19-24.61,35.72-76.77,16-105.61-4.36-6.37-10.43-11-16.15-15.92,1.17-2.94,3.76-3.26,6.41-3.5,8-1.13,15.89,1.66,23.88.58,6,.76,10.86,4.08,15.8,7.19,1.37.94,3.08,1.34,4.3,2.54,8.64,7.35,13,17.28,16.82,27.6,1.25,7.6-4.05,11.07-9.21,14.64-1.48,1.28-3.7,1.88-3.94,4.3a6.66,6.66,0,0,0,.71,4.06c2.92,3.61,6.37,5.16,10.86,2.91a4.42,4.42,0,0,1,4,1.08c2.08,4.05,1.31,8.29.73,12.49-2.45,17.76-10.14,32.8-23.5,44.87a8.68,8.68,0,0,1-1.4,1.62,9,9,0,0,1-2.75,1.46c-2.52.77-4.79,2.18-7.3,3a2.74,2.74,0,0,1-1.88-.34l-1.79-.25c-8.06.17-16.12.25-24.19.14C575.24,599.76,572.11,600.4,570.64,596.92Z"/><path class="cls-9" d="M358.52,574.14c-8.14.24-15.68-2-22.89-5.57-8.51-2.45-14-8.58-18.67-15.55-6.61-9.81-11.08-20.46-12.4-32.3,1.16-3.27,3.56.15,5.12-1a2.72,2.72,0,0,1,1.33.06c2.71.77,3.24,3.17,4,5.38.6,1.78.82,3.68,1.53,5.42,1.29,3.14,1.82,7.33,6.85,6.32,5.32-1.07,2.19-5.22,2.75-8,.37-1.2,1.38-2,1.94-3,.16-3.47-2.32-3.74-4.81-4-2.95-.68-6.13-1.1-6.28-5.18-1.21-9.3-5.49-17.67-8.11-26.54-.74-2.51-1.41-5-2.1-7.55,2-12.72,7.27-23.4,18.75-30.25,10.48-8.46,23.25-9,35.8-10.26,3.78.81,7.84-1.3,11.46,1.12-9.59,7.58-17.68,16.28-22.37,27.86A64,64,0,0,0,345.61,491c.2,7.15.23,14.3,0,21.44.59,25.34,17.46,48.8,41.19,57.33a8.49,8.49,0,0,1,1.75,1.17l-24,2.81C362.58,574.39,360.63,575.51,358.52,574.14Z"/><path class="cls-2" d="M235.23,515.39c15.34-5.8,30.84-11,47.26-12.9A27.42,27.42,0,0,1,284.58,514c-.86,2.85-3.37,3-5.65,3.25-8.63,1.12-16.89,3.7-25.18,6.14-2.3.84-4.5,1.91-6.78,2.79a7.46,7.46,0,0,1-3,.23c-3.76-.94-6.54.66-8.85,3.45a4.29,4.29,0,0,1-1.47,1.14c-8.52,2.94-15.36,8.61-21.92,14.38-22.19,19.5-38.43,43.38-50.54,70.18-14.36,31.81-30,62.94-55.91,87.24-24.68,23.12-53.49,36.94-88.18,36.07-3.51-.09-7,0-7.13-4.84s2.86-6.71,7.36-6.64c43.23.64,73.51-22.15,98.68-54.28,16.19-20.66,26-44.77,37.38-68.06,11.25-23,25.2-44.23,43.61-62.3C208.34,531.63,222,523.75,235.23,515.39Z"/><path class="cls-10" d="M844.5,335.05l-4.24-.08a22.51,22.51,0,0,1-11.41,0l-6,.27c-3-4.34,1.21-6,3.13-8.46,2.09-1.34,3.73-2.95,3.43-5.73a48.12,48.12,0,0,0,.48-7.39,14.83,14.83,0,0,0-.83-4.61,37.31,37.31,0,0,1-1.52-5.76,10.15,10.15,0,0,1,.2-3.06c1-3.38.64-6.75,0-10.14,0-4.62,4.16-6.18,6.66-9C841.83,266,856,266.07,866,270.63c6.32,2.87,12,8.09,14.24,14.63a35.19,35.19,0,0,0,13.06,18,11.53,11.53,0,0,0,4.11,4.38c1.08,1.92,2.15,3.84,3.23,5.75a2.68,2.68,0,0,1,.18,2.91c-1.06,5.1,1.76,7.07,6.21,8.08,8,1.83,13.16,6.62,14.82,14.83-1.08,2-.32,4.19-.62,6.26-.4,2.81-1.22,5.19-4.91,3.73-6.93-7.52-14.54-13.7-25.65-13-2.1-2.13-6.42,1.68-7.62-2.84,2-1,4.08-.64,6.15-.54-5.54-.58-10.9,1.76-16.43,1.25-2.2.93-2.31-3.66-4.87-1.83-6.11-9.42-6-13.5.7-21.78,3.41-2.74,3.77-4,1.85-6.46-5.61-.72-9-5.94-14.4-7-3.9-2-6.66-6-11.43-6.39-3.77,1.24-4.65,4.81-6.31,7.74a5.61,5.61,0,0,1-1.31,1.22c-1.79,2.31-.44,5.07-1.06,7.56-.23.9.18,1.37.14.42,0-.07.41-.16.65-.24a3.67,3.67,0,0,1,1.65.93,90.81,90.81,0,0,0,10.93,16.84C851.23,332.66,850.87,333.41,844.5,335.05Z"/><path class="cls-11" d="M560.74,471.1l-7.38-.28q1.42-5.83,2.83-11.68c2.58-5.3,2.66-11.17,3.94-16.77.92-4.26,3.52-8.24,2.16-12.87l4-13.26c1,.29,1.13-.53,1.16-1.11.29-7,4.19-8.79,10.43-7.19,4.3.28,8.4,2.24,12.83,1.51h0a2.55,2.55,0,0,0,.38,1.35c-.19.21-.38.41-.56.62,1.22,10.89.75,21.8.63,32.7l-.15,1a4.08,4.08,0,0,0-.29,1.23c-3.81,9.44-6.57,19.51-15.59,25.82A27.93,27.93,0,0,1,560.74,471.1Z"/><path class="cls-12" d="M969.45,282.39c-.67,4.9-3.05,7.84-8.18,6.08-24-8.25-48.1-16.54-72-25.22-7-2.53-7.43-5.42-2.06-10.19,16.13-14.35,32.52-28.42,48.81-42.6,2.68-2.34,5.36-4.68,8-7.09,4.8-4.41,8.78-3.8,10.64,2.45,2.08,7,3.25,14.29,4.59,21.49,3.2,17.2,6.26,34.42,9.39,51.64C968.83,280.11,969.17,281.24,969.45,282.39Z"/><path class="cls-11" d="M643.62,327.87c-5.24,10-17.18,15-27.06,11.32.77-1.68-1.6-1.71-1.58-3,2.77-3.47,2.11-10.65-1.36-10.87-10-.65-13.47-8.53-18.38-15-2.2-4.37-5.1-8.82,1.43-12.15.61-.34,1.25-.64,1.89-.93,3.21-1.56,6-3.86,9.17-5.52,7.61-4,9.43-3.39,12.91,4.57a5.3,5.3,0,0,0,1.92,2.73c3.1-1.69,6.46-7.66,10.39-.79.1,2.29-.14,4.59.14,6.88a23,23,0,0,1-3.41,7.13C628.62,320.81,634.4,327.28,643.62,327.87Z"/><path class="cls-13" d="M325.56,340.49c-6.91-.39-12-4.36-17-8.55,5.71-1.08,5.91-6.44,8-10.3,1.38-2,3-4,1.91-6.72l-.09-3c.14-4.3-2.5-8.28-1.44-12.69a5.55,5.55,0,0,1,3.3-3.87c2.78-1.2,4.64,1.58,7.1,1.6,1.42-2.68-.12-6.18,2.42-8.51,6.82-2,12.52,1.85,18.64,3.46a5.23,5.23,0,0,1,1.47,1.3c2.28,3.25,5.34.13,7.93,1a2.78,2.78,0,0,1,1.54,1.3c1.29,4.86-.85,9.11-2.34,13.48a26.1,26.1,0,0,1-2.42,4.81A9.15,9.15,0,0,1,351,316c-5.44,1-10.78,1.12-16.09-1.08-2.8-1.15-6.49-4.09-8.43.73-1.59,3.95,0,7.46,4.09,9.43.86.41,1.77.71,2.67,1,2.32,1.13,5.14,1,7.14,3a6.36,6.36,0,0,1,1,4.51c-1.19,4.61-4.5,6.16-8.9,6.33C330.14,340,327.76,339.31,325.56,340.49Z"/><path class="cls-10" d="M328.36,300.15c-4.44,2.19-3.1-5.75-7.23-4.11-2.18-.16-3.31.68-2.87,3-1.58,4.31,4.2,8.52.17,12.86-6.77-3.5-8.75-9.92-6.19-20.1,2.61-4,2.55-9.26,6.09-12.82,3.23-3.44,6.72-6.13,11.92-5.83s9.94-3.53,15.64-2.38a13.61,13.61,0,0,1,4.14,1.43c3.31,1.89,5.89,4.4,10.69,3.08,3.24-.89,6.55,2.41,7.68,6.18,1.54,5.12-2.06,7.83-5.36,10.61a4.8,4.8,0,0,1-3.91,1.33c-2.75-.2-5.46.61-8.22.31l-1-.09c-6.82-.75-12.89-4.75-19.93-4.55C327.62,292.51,330.38,296.68,328.36,300.15Z"/><path class="cls-14" d="M394.3,488.35c-6.49-4.41-6.17-10,.82-14.41,3.55.28,7.06-1.91,10.65-.19,8.76-.08,45.27-2.62,48.34-2.87,4.26-.34,8.14.64,8.42,5.35s-3.47,7.26-7.86,7.42C448.75,483.87,398.12,488.33,394.3,488.35Z"/><path class="cls-14" d="M394.3,534.31c-6.49-4.41-6.17-10,.82-14.41,3.55.28,7.06-1.92,10.65-.2,8.76-.07,45.27-2.61,48.34-2.86,4.26-.34,8.14.63,8.42,5.35s-3.47,7.25-7.86,7.42C448.75,529.83,398.12,534.28,394.3,534.31Z"/><path class="cls-10" d="M632.24,299.11c-2.71-4.28-5.22-5.19-6.77.67-.49,1.85-1.35,3.22-3,3.38-2.25.21-2.16-2.12-2.75-3.51a41.3,41.3,0,0,1-1.67-5.34c-1.13-4.2-3.49-4.54-6.89-2.41-3.88,2.44-7.86,4.73-11.79,7.08-2.48-1.08-5.88,1.48-7.77-2-1.4-3.79-.25-7.45.55-11.13,0-2.35,1.29-4,2.91-5.53a6.7,6.7,0,0,0,4.22-4.26c7.91-5.81,16.17-5.65,24.67-1.43,1.66,2.35,4.28,3.64,6.28,5.62,6.63,3.89,8.33,8.87,6.4,18.78a2.41,2.41,0,0,0-3.12,1.8C632.43,300.73,631.78,300.31,632.24,299.11Z"/><path class="cls-15" d="M96.06,366.14c0-1.9,0-3.8,0-5.7.1-4.93,2.21-6.46,6.86-4.23,14.8,7.08,29.14,15.1,44.27,21.53,5.65,2.4,5.75,5.14.79,8.52-14.12,9.61-28.27,19.19-42.52,28.61-4.67,3.09-6-.91-6.42-4.14C97,396,98,380.94,96.06,366.14Z"/><path class="cls-16" d="M716.87,565.54c-4-.73-5-3.8-5.69-7.2,0-.36,0-.73,0-1.09,2.65-11.19,7.06-22.14,4.68-34-.63-3-.84-6.15-2.34-9a2.25,2.25,0,0,1,.53-1.91,7.09,7.09,0,0,1,7-1c.08,4.72,0,37.06-1.87,41.85A28.69,28.69,0,0,0,716.87,565.54Z"/><path class="cls-17" d="M916.19,459.36l3.49,3-4,8.92a20,20,0,0,0-8,8.4c-.93,1.86-2.32,2.08-4.06,1.9-2.08-.23-1.63-2-1.86-3.22-1.38-7.62,1-13.41,8.35-16.68C911.93,460.33,913.63,458.74,916.19,459.36Z"/><path class="cls-18" d="M358.63,292l4.41.13c2.85,6,.52,12.51,2.15,18.61a4.85,4.85,0,0,1-4.23,4.7c-3.23-.79-5.53-2.41-5.42-6.14.84-4.88,3.27-9.45,2.83-14.57a2.23,2.23,0,0,1-.71-1.46A1.84,1.84,0,0,1,358.63,292Z"/><path class="cls-19" d="M570.64,596.92c5.91,2.86,12.23.83,18.32,1.5,4.41.48,9-1.35,13.24,1.23-8.7,3.29-17.75,1.21-26.63,1.66-4.93.25-9.89-.11-14.84-.19Z"/><path class="cls-20" d="M245.23,393.63l2.74,0c1.43,6.65,1,13.31.18,20l2.7,20.14c-.47.5-.59,1.33-1.41,1.5-3.66-12.7-4.1-25.77-4.39-38.85Z"/><path class="cls-21" d="M834.47,281.13c-.29,4.05-6.62,4.6-5.49,9.46-.06.3-.13.6-.19.9a12.48,12.48,0,0,1-.58,1.69,17.33,17.33,0,0,0-.74,5.75,2.87,2.87,0,0,0,1,1s.49.52.49.52c-.07,1-.15,1.95-.22,2.93-1.12,1.46-2.4,2.57-4.44,2.15-.87-1.62-1.75-3.23-2.62-4.84,2.73-4.61,2.44-10.42,6.16-14.74C829.74,283.7,831.48,281.66,834.47,281.13Z"/><path class="cls-22" d="M224.13,731.53q.1,3.76.22,7.51c-.17,1.37.69,3-.94,4l-1.77,2.87c2.08-10.7.21-21.13-2.27-31.52,1.42-2.22,2.8-.45,4.19,0l.84.94C224.56,720.76,224.45,726.15,224.13,731.53Z"/><path class="cls-23" d="M919,596.93c-3.27-9.37.59-18.2,2.07-27.22a1,1,0,0,1,.62,0c.21.07.37.29.55.44C922.8,579.25,919,587.86,919,596.93Z"/><path class="cls-24" d="M183.27,488c-2.82-.2-4.7-1.76-5.12-4.22-.52-3,1.57-5,4.35-5.39s4.55,1.63,5,4.05C188.08,485.53,185.76,487,183.27,488Z"/><path class="cls-25" d="M458.59,597c3.12.21,4.22,2.43,4.32,4.86.12,2.95-2.4,4.29-4.77,4.29s-5-1.36-4.76-4.29S455.72,597.33,458.59,597Z"/><path class="cls-26" d="M577.87,407.94c-6,.2-9.77,2.8-10,9.25,0,.77-.63,1.12-1.22.38-.27-.32-.25-.88-.35-1.33q1.49-5.65,3-11.29Z"/><path class="cls-27" d="M710.22,253.41c2.59-1.54,4.24-5.37,7.9-1.51,2.5,2.64-.35,3.35-1.19,4.18C712.76,260.22,713.42,252.47,710.22,253.41Z"/><path class="cls-28" d="M551.8,374.53c.92-3.12-6.64-2.42-2.59-6.66.79-.82,1.49-3.75,4.18-1.3C557.33,370.16,553.79,372,551.8,374.53Z"/><path class="cls-29" d="M560.67,442.3c.27,6.13-1.54,12-3.1,17.74-.62,2.3-.88-.52-1.37-.9,0-6.26,2-12.18,3.23-18.24C560.61,440.69,561.39,440.82,560.67,442.3Z"/><path class="cls-30" d="M361.35,390.69c.88-6,.85-12.19,4.41-17.54.3,5.48-2.36,10.61-1.62,16.09Z"/><path class="cls-31" d="M462.76,300.46c-2.91-.32-4.09-2.13-3.79-4.92.28-2.61,2-3.69,4.51-3.54,3,.2,4.16,2.12,3.86,4.89C467.06,299.48,465.32,300.5,462.76,300.46Z"/><path class="cls-32" d="M783,410.67c-1.68,3.37-3.94,3.8-6.71,1.28-2.39-2.18-2.38-4.45,0-6.64,2.79-2.57,5-1.93,6.79,1.25-.71,1.09-3.06.52-2.78,2.32C780.45,409.86,782.22,409.83,783,410.67Z"/><path class="cls-33" d="M423.91,487.43l.53-.69"/><path class="cls-34" d="M438.75,495.28c-.44-.12-1.27-.2-1.29-.38Z"/><path class="cls-35" d="M633.65,300.81c0-2.21,1-2.78,3-1.74-1,5.06-.69,10.86-6.92,13.21-1.21-3.15,1.81-4.95,2.4-7.53A4,4,0,0,1,633.65,300.81Z"/><path class="cls-36" d="M507.61,552.57c1.18,5.2,4.87,9.91,3.07,15.69-2.25-5-4.34-10.08-4.42-15.7C506.72,551.88,507.17,551.88,507.61,552.57Z"/><path class="cls-37" d="M783,410.67c-1.74-.12-3.66,1.9-5.2-.39a2.85,2.85,0,0,1,.05-3.36c1.55-2.21,3.49-.13,5.23-.37C785.16,408,783.35,409.31,783,410.67Z"/><path class="cls-38" d="M967.81,493.32c.68,3.37,4.59,4.91.52,8.1-2.41,1.9-2.14.1-2.12-.67.06-1.46-4.23-.47-1.59-2.57C966,497.07,966.33,495.59,967.81,493.32Z"/><path class="cls-39" d="M529,479.48c-1.25,5.37-5.07,8.27-9.85,10.26C521.48,485.38,525.06,482.25,529,479.48Z"/><path class="cls-40" d="M598.35,299.31c-8.64,1.55-2.44,7.27-3.11,11.05-5-2.46-3.54-6.86-3.32-10.89a1.52,1.52,0,0,1,1.54-1.07C595.1,298.67,597,297.66,598.35,299.31Z"/><path class="cls-41" d="M318.33,279c-1.8,4.39-2.13,9.46-6.09,12.82C312.2,286.57,313.41,281.91,318.33,279Z"/><path class="cls-28" d="M1046.48,275.27c2.21,4.43,2.29,7,.24,10.09C1044.41,282.42,1045.33,279.75,1046.48,275.27Z"/><path class="cls-42" d="M733.24,313.17c-2.57,2.15-5.24,1.57-8.81,1.51C727.64,310.77,730.51,312.29,733.24,313.17Z"/><path class="cls-28" d="M144,447.69c-4.12,2.51-6.79,1.51-11.38,1.79C137,445.88,139.71,446.39,144,447.69Z"/><path class="cls-43" d="M592.12,285.89q.07,6,.16,12c0,.3.09.6.14.9a3.94,3.94,0,0,0-.5.71C588.62,294.89,588.86,290.37,592.12,285.89Z"/><path class="cls-28" d="M714.54,436.3c4.65-1.34,7.4-1.89,10.68.85C721.64,438.32,719,438.51,714.54,436.3Z"/><path class="cls-44" d="M506.24,519.65c2.28,6.42,2,8.6-1.38,10C504.19,526.18,505.36,522.94,506.24,519.65Z"/><path class="cls-45" d="M695.24,314.12c-3.41,2.84-6.12,2.35-9.73,1.25C688.67,312.47,691.44,313.41,695.24,314.12Z"/><path class="cls-46" d="M986.69,311.66c-3.37,2.69-6.09,1.21-9.49,2C980.72,310.41,980.72,310.41,986.69,311.66Z"/><path class="cls-47" d="M916.35,349.21c6.82-.58,2.4-7.36,5.53-10,1.33,4.49.23,8.71-1.41,12.87C918.54,351.92,917,351.17,916.35,349.21Z"/><path class="cls-48" d="M947.77,453.17c4.59-1.59,6.82.7,9.4,1.8C954.15,455.92,951.44,455.41,947.77,453.17Z"/><path class="cls-27" d="M198.92,536.27c-4.16,2.45-6.46,2.23-9.34,1C192,534.29,194.53,535.58,198.92,536.27Z"/><path class="cls-49" d="M822.15,439.43c-3.7,1.9-6,1.56-9.54.35C816.15,437.42,818.45,437.72,822.15,439.43Z"/><path class="cls-50" d="M162.71,448.12c-3.86,1.57-6.17,1.8-9.26,0C156.52,446.05,158.83,446.29,162.71,448.12Z"/><path class="cls-51" d="M489.62,546.91c-3.85,1.58-6.15,1.83-9.22,0C483.45,544.85,485.75,545.12,489.62,546.91Z"/><path class="cls-52" d="M560.67,442.3l-1.24-1.4q1.43-5.7,2.86-11.4C565.21,434.2,562.08,438.14,560.67,442.3Z"/><path class="cls-53" d="M926.88,314.45c-2.13,2.51-4.46,1.69-7.57,1.25C921.93,312.26,924.53,313.92,926.88,314.45Z"/><path class="cls-54" d="M762.43,547.63c-4.06,2.57-6.37,2.28-9.26,1.13C755.57,545.74,758.11,547,762.43,547.63Z"/><path class="cls-55" d="M782,437.83c-2.34,2.07-4.61,1.73-8.09.55C777.38,435.88,779.71,436.61,782,437.83Z"/><path class="cls-56" d="M939.35,315.19c2.59-2.66,4.88-1.34,7.66-1.92C944,316,944,316,939.35,315.19Z"/><path class="cls-27" d="M900.85,316.31l-.18-2.91c2.32,1.91,5.5-1.45,8,1.43C906.32,317.28,903.36,315.82,900.85,316.31Z"/><path class="cls-57" d="M924.72,543.94c-3.32-1.63-2.63-4.7-2.68-7.5,0-.72.25-1.42,1.13-1a8,8,0,0,1,1.62,1.38C924.77,539.18,924.74,541.56,924.72,543.94Z"/><path class="cls-58" d="M743.9,313.08a10.91,10.91,0,0,1,8.87-.26C749.62,314.39,747.38,315.57,743.9,313.08Z"/><path class="cls-25" d="M772.11,547.86c2.86-1.65,5.33-.91,9.52-.74C777.64,549.61,775.31,550.59,772.11,547.86Z"/><path class="cls-59" d="M732.8,549c3.42-2.64,5.58-2.28,9-1C738.51,550.19,736.25,549.79,732.8,549Z"/><path class="cls-60" d="M205.73,430.94c-3.24-2.5-1.24-5.53-2.14-7.73C205,425.25,206.78,427.21,205.73,430.94Z"/><path class="cls-49" d="M998.69,488.85q-.6-3.56-1.21-7.1a7.91,7.91,0,0,1,3.15,6.81Z"/><path class="cls-61" d="M977.15,462.61c-4.47-1.5-7.36-1.54-10-4.19C971,457.66,973.46,459,977.15,462.61Z"/><path class="cls-62" d="M569.44,326.07c3.47-1.69,5.72-3.31,9.1-1.92C576.15,327.31,573.29,326.11,569.44,326.07Z"/><path class="cls-63" d="M630.2,280.29c-2.45-1.3-5.1-2.33-7.29-4s.38-1.24,1-1.64C626.78,275.69,629.91,276.41,630.2,280.29Z"/><path class="cls-56" d="M139.41,532c-3,1.19-5.57.63-9.15-1.35C134.57,529.16,136.73,531.83,139.41,532Z"/><path class="cls-64" d="M542,426.54c2.75.36,5.95-1,8.14,2.44A11.32,11.32,0,0,1,542,426.54Z"/><path class="cls-65" d="M1016.52,306.18c2.2-1.46,4.32-3.36,7.82-2.44C1022.06,306.5,1019.24,306.24,1016.52,306.18Z"/><path class="cls-66" d="M973,526.61c-1.76,2.44-4.1,3.69-8.31,4.1C967.52,527.45,970.31,527.17,973,526.61Z"/><path class="cls-64" d="M982.36,241.69c3.14-2.07,5.06,0,9,1.21C987.19,243.12,984.82,243.94,982.36,241.69Z"/><path class="cls-67" d="M558.57,328.5l-7,1.17-.33-1.35,6.93-1.54Z"/><path class="cls-68" d="M982.16,522c1.46-3.77,4.23-4.28,6.62-5.26C987.77,519.43,985.41,520.44,982.16,522Z"/><path class="cls-32" d="M119.82,528.17c-2.46.07-5.06.65-7.42-2C115.77,524.92,117.7,526.92,119.82,528.17Z"/><path class="cls-69" d="M103.77,450.06c-2.76,1.26-5,3-8.11,1.61C98,449.36,100.51,449,103.77,450.06Z"/><path class="cls-25" d="M157.61,534.55a7,7,0,0,1-6.27.09C153.49,530.05,155.62,535.21,157.61,534.55Z"/><path class="cls-70" d="M929.19,450.87l2.85-4.29c-.12,3.52,3.69,2.12,5.34,4.29Z"/><path class="cls-71" d="M935.61,539.16l-8.15,1.69C930.22,537,933.27,539,935.61,539.16Z"/><path class="cls-56" d="M180.81,445.87c-2.12,2.94-4.91,2-7.56,2C175.53,446.06,178.41,447.08,180.81,445.87Z"/><path class="cls-32" d="M1033.28,299.81l6.87-6C1038.77,297.72,1038.77,297.72,1033.28,299.81Z"/><path class="cls-56" d="M521.76,420.73l8.26,2.38C527.14,424.49,524.79,424.11,521.76,420.73Z"/><path class="cls-72" d="M947,536.18c2-3,4.83-2,7.22-2.32C952.31,535.66,950.26,537,947,536.18Z"/><path class="cls-66" d="M1005.1,308.57c-2.49,3-4.86,1.36-7,1.62C1000,308.92,1001.81,307.24,1005.1,308.57Z"/><path class="cls-25" d="M495.91,345.7c1.26-3.07,3.5-4,6.56-3.65Z"/><path class="cls-60" d="M1001.59,244.83a7.16,7.16,0,0,1,6.81,1.62A7.08,7.08,0,0,1,1001.59,244.83Z"/><path class="cls-25" d="M1036.16,259.92c3.49,2.63,5.49,3.77,6,7.11C1039.53,265.61,1038,264.09,1036.16,259.92Z"/><path class="cls-73" d="M812.92,624.42c.47-1.49-.54-3.33,1.45-4.93-.28,3.75,1.32,7.27-1.3,10.4Z"/><path class="cls-24" d="M177.3,407.17c-3.37,1.37-5.18.08-7.43-1.32C172.71,404.42,174.59,405.57,177.3,407.17Z"/><path class="cls-74" d="M995.7,508.68c.06-4.22,1.51-6,3.15-8.51C999.77,503.53,998.06,505.31,995.7,508.68Z"/><path class="cls-75" d="M170.46,534.91l7.14.69v.77h-7.17Z"/><path class="cls-25" d="M504.23,413.41c4.21,1.24,6.37,2,8.34,4.23C509.35,417.92,507.35,416.62,504.23,413.41Z"/><path class="cls-76" d="M85,511.64c-2.83-.13-4.1-2-5.76-4.48C82.7,507.31,83.6,509.89,85,511.64Z"/><path class="cls-77" d="M72.26,497.48l-2.52-7.64C73.09,492.53,73.24,494.91,72.26,497.48Z"/><path class="cls-25" d="M590.92,322.83c2-.72,4-2.17,6.64-1.22C595.64,324.47,593.19,323.15,590.92,322.83Z"/><path class="cls-76" d="M648.24,316.51l7.15-.71C653.31,318.52,650.7,317.21,648.24,316.51Z"/><path class="cls-75" d="M532.82,333c1.45-3.22,3.89-2.28,6.19-1.73C537.13,332.05,535.56,333.74,532.82,333Z"/><path class="cls-78" d="M965.59,312.46c-1.73,3.07-4,2.31-6.28,1.35Z"/><path class="cls-76" d="M102,522.2c-3.6-.27-5.08-1.35-7.94-3.71C97.93,518.83,99.57,519.87,102,522.2Z"/><path class="cls-76" d="M194.53,414.57c-2.76,0-4.43-.95-6.34-3.27C191.09,411.45,192.91,412.08,194.53,414.57Z"/><path class="cls-25" d="M79,461.92c.66-3.22,2.26-4.21,5.22-5.6C83.07,459.32,81.6,460.48,79,461.92Z"/><path class="cls-79" d="M599.25,276.1c-.08,3.41-.77,4.11-4.22,4.26A8,8,0,0,1,599.25,276.1Z"/><path class="cls-80" d="M476.32,368.58c-.13,2.08-.25,4.15-.42,7C473.74,372.68,474.92,370.62,476.32,368.58Z"/><path class="cls-58" d="M461.28,546.21a10.64,10.64,0,0,1,8.09-.14A10.64,10.64,0,0,1,461.28,546.21Z"/><path class="cls-81" d="M914.75,657.06a8.84,8.84,0,0,1,0-9.91Z"/><path class="cls-80" d="M72.63,470.48c.73,2.73-.75,4.46-1.74,6.91C69.79,474.35,70.51,472.4,72.63,470.48Z"/><path class="cls-76" d="M794,438.78a10.6,10.6,0,0,1,8.09-.13A10.83,10.83,0,0,1,794,438.78Z"/><path class="cls-82" d="M198.86,439.24c-1.39,3.36-3.6,3.36-6.64,5.14C194.09,440.55,196.29,440.53,198.86,439.24Z"/><path class="cls-83" d="M754,437.53c4-1.23,6.29-1.15,8.6,0Z"/><path class="cls-84" d="M361.28,315l3.91-4.3c.25.42.49.84.73,1.26a5.84,5.84,0,0,1-3.15,4.77C361.65,316.69,361.1,316.16,361.28,315Z"/><path class="cls-85" d="M318.52,314.92c1.86,2.95,1.38,5.24-1.91,6.72Q317.57,318.28,318.52,314.92Z"/><path class="cls-86" d="M449.91,546.18c-3.21.74-5.1,1.13-7.11-.12C444.91,545.05,446.84,545.2,449.91,546.18Z"/><path class="cls-87" d="M507.61,552.57h-1.35c-.09-.83-.18-1.67-.28-2.5l.62-5.33C508.26,547.72,507.32,550.21,507.61,552.57Z"/><path class="cls-88" d="M122.24,448.64c-2.1,1.27-4,.94-6.27.38C118.1,447.36,120,447.91,122.24,448.64Z"/><path class="cls-89" d="M495.53,407.83c-2.61-.69-3.76-1.66-4.3-3.68C493.53,404.07,494.52,405.34,495.53,407.83Z"/><path class="cls-90" d="M358.52,574.14l6-.38-.21,3.11Z"/><path class="cls-24" d="M485.83,351.13c-.29,2.77-1.56,3.7-3.39,4.58C482.06,353.27,483.56,352.36,485.83,351.13Z"/><path class="cls-91" d="M765.34,312.61a8,8,0,0,1,6.45,0A6.3,6.3,0,0,1,765.34,312.61Z"/><path class="cls-88" d="M673.81,315.31a5.8,5.8,0,0,1-5.86.38C669.91,314.18,671.86,315.16,673.81,315.31Z"/><path class="cls-92" d="M800.23,546.87c0,.47-.05.93-.08,1.4h-8.92C795.23,546.21,797.78,547.1,800.23,546.87Z"/><path class="cls-93" d="M790.49,312.78a8.06,8.06,0,0,1-6.46,0A6.31,6.31,0,0,1,790.49,312.78Z"/><path class="cls-94" d="M743.81,437.33c-3.1.78-5,1.1-7.06-.1C738.83,436.19,740.76,436.34,743.81,437.33Z"/><path class="cls-95" d="M923.73,554c-2.71-1.84-1.56-4.4-1.42-7,2,1.23.71,3.19,1.41,4.59C923.72,552.37,923.73,553.16,923.73,554Z"/><path class="cls-31" d="M706.18,314.15c2.85-1.12,4.75-.77,7.38-.27C710.9,315.17,709,315,706.18,314.15Z"/><path class="cls-96" d="M897.44,307.65c-2.72-.19-4-1.71-4.11-4.38C895.9,303.62,896.55,305.75,897.44,307.65Z"/><path class="cls-97" d="M969.71,239.11l1.43,1.56c-.44.33-.92,1-1.3.91s-.91-.69-1.36-1.08Z"/><path class="cls-98" d="M1028.53,254.25c-3.2,0-4.3-.58-5.12-1.8C1025.3,251.16,1026.23,252.56,1028.53,254.25Z"/><path class="cls-99" d="M157.12,405.93c-1.07.09-1.78-.24-1.59-1,.11-.45.92-.86,1.5-1,.28-.09.74.39,1.12.6Z"/><path class="cls-82" d="M480.88,394.67c-.74-1.79-1.17-2.78-1.52-3.8,0-.07.72-.59.85-.5C481.46,391.15,482.13,392.2,480.88,394.67Z"/><path class="cls-100" d="M615,336.19l3.38,2.21-1.8.79a3.68,3.68,0,0,1-3-2.87A13.43,13.43,0,0,1,615,336.19Z"/><path class="cls-91" d="M519.1,335.86a15.91,15.91,0,0,1-3,1.65c-.48.12-1.1-.34-1.66-.54a13.91,13.91,0,0,1,2.19-1.46C517,335.33,517.66,335.63,519.1,335.86Z"/><path class="cls-2" d="M844.51,720.12c-.3-4.36.79-8.53,1.72-12.72,2.28-1.27,4.61-.55,6.91-.11,10.43,2,20.78,4.46,31.42,5.24a7.25,7.25,0,0,1,4.47,1.92c2.44,3.92,2.78,8.37,3.23,12.79C876,726.87,860.34,723.06,844.51,720.12Z"/><path class="cls-101" d="M708.2,757.1c3,5.39,1.79,8.41-4.71,9.09-6.26.66-12.46,2.13-19.73.94,4.9-6.11,11.24-8.15,17.13-10.9C703.35,756.29,705.87,755.92,708.2,757.1Z"/><path class="cls-102" d="M361.6,755.85c4.23,0,9.17-1.24,9.33,5.56-3.47,1.84-7.07,2.84-11,1.76-4.2-.91-9,2.1-12.74-1.8-1.06-.75-1-1.52,0-2.32q.87-2.24,1.75-4.49a5.44,5.44,0,0,1,5.31.94c.53.17-.2,2.39,1.43.85C357.47,754.62,359.52,754.93,361.6,755.85Z"/><path class="cls-103" d="M233.74,764.4c-3.54.71-6.36-1.39-9.35-2.58-7.77-3.08-7.87-4.26-1.26-10.21,2.3.43,4.15,2,6.45,2.48,3.31,1.57,4.83,4.84,7.07,7.42C237.54,764.34,234.91,763.63,233.74,764.4Z"/><path class="cls-104" d="M619.39,761.63a35.13,35.13,0,0,1,13.3-7.24,9.37,9.37,0,0,1,5.81,1c2,1.67,2.5,3.94,2.65,6.37-.63,1.41-1.83,1.4-3.09,1.23-1.88-1.29-4.08-.17-6-.8-.29.49-.28.68,0,.56,1.34-.51,2.62-.67,3.65.63a13.15,13.15,0,0,1-7.67,1.06C625.48,762.48,621.25,765.72,619.39,761.63Z"/><path class="cls-105" d="M890.57,753.82c6.08,1.62,10.92-1.29,15.72-4.32l1.25,1c1.35,1.79,1.12,3.62.15,5.47a9,9,0,0,0-7.72.85c-3.76,2-7.9,3-12,.51,1.51-1.54,4.06.51,5.3-1.25-1.66,1.06-3.53.79-5.42,0C888.14,754.49,889.49,754.32,890.57,753.82Z"/><path class="cls-106" d="M226.53,741.61c2.73,1,5.09,3.8,8.44,1.7a9,9,0,0,1-2.77,6.22c-3.06.63-5.88.5-7.91-2.33-.29-1.39-.58-2.78-.88-4.17.31-1.33.62-2.66.94-4C225.07,739.9,225.8,740.76,226.53,741.61Z"/><path class="cls-107" d="M824.56,751.44c5.16,3.18,8.54-2,12.86-2.74.8-.76,1.29-2.1,2.82-1.48l0,.32c1.32,2.28,2.52,4.53-1.38,5.51-2.18-.08-4.38-.21-6.16,1.42a18.73,18.73,0,0,1-11,0C821.27,752.21,822.32,751.28,824.56,751.44Z"/><path class="cls-108" d="M700.09,750.05l7.36.21q.39,3.42.75,6.84c-2.59,1-5.27,2.8-7.31-.87C700.62,754.17,700.36,752.11,700.09,750.05Z"/><path class="cls-109" d="M638.17,756.16c-1.87-.47-4.16.37-5.49-1.77a7.82,7.82,0,0,0,0-6,7.38,7.38,0,0,1,6.89-.43q.59,3.33,1.15,6.67C640.14,755.64,639.62,756.65,638.17,756.16Z"/><path class="cls-110" d="M347.27,745.87c3.16-.5,7.77,4.4,9.22-2.48a1.72,1.72,0,0,1,.65-.32c.88,3.38,1.49,6.71-1.66,9.38a5.51,5.51,0,0,1-6.15-.69C347.19,750.3,347,748.18,347.27,745.87Z"/><path class="cls-111" d="M224.29,747.2l7.91,2.33c-1.39,1.23-2.68,2.5-2.62,4.56-3.19,1.87-5.27.86-6.45-2.48C223.52,750.14,223.9,748.67,224.29,747.2Z"/><path class="cls-112" d="M349.33,751.76l6.29-1a3.79,3.79,0,0,1,1.85,2.41c-.26,1.94-1.07,3.28-3.33,3l-5.25-1.66C349,753.63,349.19,752.69,349.33,751.76Z"/><path class="cls-113" d="M840.24,747.22l-2.82,1.48c-2-5.16,2.29-9.41,1.36-15.1,2.1,2.13,1.25,3.9,1.63,5.43C840,741.75,837.71,744.44,840.24,747.22Z"/><path class="cls-114" d="M359.92,763.17l11-1.76C367.86,765.7,364,765.18,359.92,763.17Z"/><path class="cls-115" d="M233.74,764.4l2.91-2.89c2.62.39,4.19,1.69,4.13,4.62C237.92,767.32,235.88,765.65,233.74,764.4Z"/><path class="cls-116" d="M619.39,761.63c2.47,2.19,6.25.35,8.64,2.8a64.81,64.81,0,0,1-7.44.81C617.14,765.24,617,763.76,619.39,761.63Z"/><path class="cls-117" d="M357,753.35a3.27,3.27,0,0,0,1.28-.2c.95,1.09,3,.79,3.3,2.7-3.15-.56-5.15,2.07-7.83,2.76-1.19.31-1.75-.3-.62-1.38l1-1Z"/><path class="cls-118" d="M638.17,756.16l2.51-1.52c.61,2.34,2.93,4.56.47,7.11C638.94,760.53,639.6,757.79,638.17,756.16Z"/><path class="cls-10" d="M821.75,754.52l11,0c-3.55,2.42-7.4,1.3-11.18.91-.1,0-.29-.3-.25-.36A3.06,3.06,0,0,1,821.75,754.52Z"/><path class="cls-119" d="M907.69,755.93l-.15-5.47C910.37,752.21,909.54,754.06,907.69,755.93Z"/><path class="cls-120" d="M838.88,753.05c2.33-1.37,1.29-3.58,1.38-5.51a2.37,2.37,0,0,1,1.26-.17c1.49,2.35,1.26,4.73.11,7.12C840.43,754.55,839.26,754.56,838.88,753.05Z"/><path class="cls-121" d="M635.7,763.37l-5.9-.77c3.67-1.19,6-1.6,8.26.38Z"/><path class="cls-122" d="M636.62,746c-.92,1.62-2.55,1.29-4,1.47a1.06,1.06,0,0,1-.45-1.2C633.37,741.33,635.23,747.59,636.62,746Z"/><path class="cls-123" d="M841.63,754.49c0-2.37-.07-4.74-.11-7.12C844,749.71,843.84,752.08,841.63,754.49Z"/><path class="cls-33" d="M347.14,759.05c0,.77,0,1.55,0,2.32"/><path class="cls-124" d="M887.85,756h5.57c0,.29,0,.57,0,.86l-5.46.44a3.94,3.94,0,0,1-.36-.85C887.58,756.32,887.76,756.14,887.85,756Z"/><path class="cls-125" d="M302.6,555.28c-5.49-7.57-10.87-15.21-14.48-23.93-1.27-1.62-2.72-3.17-2.31-5.5a5.2,5.2,0,0,1,.39-1.29c.47-1,1.26-1.89,1.35-3.07-.5.75-.94,1.64-2.13,1.07-3.74-2.87.47-7.25-2-10.35.06-2.25-1-4.62.76-6.67.48-2.5,1-5,1.61-8.34l18.34,19.55c.72.84,2.2,1.29,1.46,2.87,4.09,20,12.06,37.53,30.07,49-11.76.64-20.81-5.89-30.21-11.45C303.74,557.63,303.29,556.27,302.6,555.28Z"/><path class="cls-126" d="M361.28,315c.49.58,1,1.16,1.49,1.73,6.81,9.28,13.65,18.55,20.43,27.85a43.15,43.15,0,0,1,5.24,9c-8.47-2.33-15.08-7.62-22.31-11.73-7.08-4-14.36-7.23-22.74-7a3.47,3.47,0,0,1-3.5-1.59l-.06-3.6c.12-.48.31-1.09.7-1.16,8.3-1.55,11.15-7.78,13-14.93.68-1.44.41-3.33,2-4.32Q358.41,312.14,361.28,315Z"/><path class="cls-13" d="M326.89,528.14c-1.29,3.14,6.07,6.17-.07,9.53-4.9,2.68-8.61,2.16-10.76-3.15-1.95-4.79-3.39-9.78-5.05-14.69l6-3.11c1.66,2.54,4.53,3.2,7,4.47a3.49,3.49,0,0,1,1,1.41C325.44,524.5,327.91,525.72,326.89,528.14Z"/><path class="cls-127" d="M325.51,452.38c-9.09,8.33-14.36,19-18.75,30.25-.15-.18-.38-.34-.44-.55-1.59-5.49-7.14-11.78-4-16.25C307.47,458.37,316,453.92,325.51,452.38Z"/><path class="cls-128" d="M294,415.14c-.17,6.14.19,12.26-1.26,18.39-1.5,6.35,1.7,12,3.94,17.75a21.93,21.93,0,0,1,1.67,8.87c-2.84-7.83-7.94-14.92-7.41-23.81.47-8,1.14-16,1.73-24.06C295.31,412.19,294.74,413.62,294,415.14Z"/><path class="cls-129" d="M252.22,439.5c2.05,11.47,8.08,21.07,14.31,30.59,1.66,2.54,4.06,4.69,4.56,7.9l-.21.19c-9.47-10.92-17.53-22.58-20-37.24C250.21,439.42,251,439.23,252.22,439.5Z"/><path class="cls-130" d="M294,415.14a3.06,3.06,0,0,0-1.34-2.86q1.62-16.72,3.23-33.45l1.92.14C296.46,391,296.66,403.18,294,415.14Z"/><path class="cls-131" d="M339.89,333.27l3.5,1.59c-4.34,7-11,6.49-17.83,5.63,1.89-2.12,4.43-1,6.69-1.34C335.85,338.58,339.36,337.85,339.89,333.27Z"/><path class="cls-132" d="M248.15,413.58l-.18-20C250.51,400.24,250.24,406.9,248.15,413.58Z"/><path class="cls-133" d="M391.42,355.66c1.83,3.11,3.67,6.23,6.55,11.1C392.62,363.52,392,359.61,391.42,355.66Z"/><path class="cls-134" d="M284.15,505.54v6.67a1,1,0,0,1-.45,1.64c-2.47-3.56-.69-7.58-1.21-11.36C283.79,503.1,283.89,504.36,284.15,505.54Z"/><path class="cls-135" d="M252.22,439.5l-1.35,1.44c-1.94-1.55-1.23-3.75-1.43-5.72l1.42-1.5C251.31,435.65,251.77,437.57,252.22,439.5Z"/><path class="cls-136" d="M271.09,478a9,9,0,0,1,4.14,4.8c-3.21-.32-3.87-2.38-4.35-4.61Z"/><path class="cls-137" d="M305.56,519.62c-.49-1-1-1.91-1.46-2.87,2.51-.2,3.9,1.68,5.58,3C308.23,521.87,306.92,520.07,305.56,519.62Z"/><path class="cls-126" d="M916.19,459.36c-1.87,1.18-3.24,3.69-6.07,2.3l-9.55-11c2.68-4.7-1.44-8.56-1.59-13-.51-14.76,1.84-29.21,4.07-44.52,9,5.43,15.41,12.83,23.15,18.59a1.86,1.86,0,0,1,.42,2.56c-5.79,10-5.77,21.89-10.28,32.31-.29.94-1.54-.05-1.81.9a1.43,1.43,0,0,1,1.77.45Z"/><path class="cls-138" d="M847.51,457.94a31.23,31.23,0,0,1,20,.07A44.47,44.47,0,0,1,847.51,457.94Z"/><path class="cls-139" d="M889,453.77c2.7-1.55,5.4-3.06,8.63-1.43a15.43,15.43,0,0,1-8.63,2.75c-.5-.3-.66-.59-.5-.89S888.88,453.77,889,453.77Z"/><path class="cls-140" d="M874.7,625.61c-.33-2.81-.65-5.63-1-8.44l2.41-.06C875.68,620,877.31,623.14,874.7,625.61Z"/><path class="cls-141" d="M873.33,458.17l3.81-.39,4.51,1C877.92,459.66,875.55,460.12,873.33,458.17Z"/><path class="cls-142" d="M803.76,517.87c1,1.57,1,4,.31,4.13-1.88.49-.7-1.38-.9-2.18C803.05,519.31,803.5,518.66,803.76,517.87Z"/><path class="cls-138" d="M889,453.77v1.32l-.59.25-.63,0-5-.55C885.08,453.14,887.13,454,889,453.77Z"/><path class="cls-11" d="M626.64,523.9c4.55-3.88,10.41-6.85,10-14.22-.13-6.25,2.14-11.69,5.75-16.66,10.78-25.55,22.16-50.94,20.24-79.74-.29-4.43,0-4.45,2.8-5.45-1.93,4.62,0,9.53-.56,11.9.35-2.39-1.17-7.26.55-11.89,8.92,2.91,18.11,1.28,27.19,1.63a1.43,1.43,0,0,1-1,1.89c-6,.35-12-.12-16.13.14,4.51-1.27,11.25,1.68,17.51-1.06,5.87-1.55,8.94.29,8.18,6.75.65,3.58-1.25,7.16-.06,10.75-1.31,16.68-8.76,30.88-17.85,44.49-8.75,13.1-19.06,24.94-29.24,36.9a5.9,5.9,0,0,1-1.15,2.74c-4.23,5.34-11,8.72-12.32,16.3-1.13,3.13-1.83,6.53-5.07,8.4-5.17,3.38-8.65,2.12-11.68-4.22-.24-1.72,1.42-3.11.82-4.89A11.56,11.56,0,0,1,626.64,523.9Z"/><path class="cls-125" d="M660.14,539.76l-.74,5.52a2.45,2.45,0,0,1-1.25.83,5.27,5.27,0,0,0-.15,5c.12,5.2-3.46,9.38-4,14.41a1.6,1.6,0,0,1,.2,1.63,27.68,27.68,0,0,1-2.72,4.6,21.62,21.62,0,0,1-2.66,2.58c-3.45,4.33-6.39,9.2-12,11.22-6.73,4.18-13.49,8.29-21.67,9,4.13-6.64,10.93-11,14.67-18.14,6.57-12.44,10.14-25.46,9.63-39.55a1.56,1.56,0,0,1-.47-1.14c0-.43.07-.65.15-.65,4.71-5.21,11-8.84,15.18-14.56.7-1.12,1.34-2.3,2.73-2.72l1.53,3.36c1.51,1.82,2.73,3.71,1.16,6.11l-.31,3.95a11.4,11.4,0,0,0,.17,8.44Z"/><path class="cls-127" d="M642.38,493a59.32,59.32,0,0,1-5.75,16.66c-5-9.58-9.12-19.65-17.18-27.28,2.79-1.53,2.81-1.52,10.12,1.26C635.23,484.88,638.87,488.86,642.38,493Z"/><path class="cls-143" d="M576.63,470.66l14.06-24.27c3,8,.82,16.29,1.52,24.41C587,473.19,581.8,473.41,576.63,470.66Z"/><path class="cls-144" d="M691.24,519.57a7,7,0,0,0-5.36-1.09c-8.27,1-16.57,1.86-24.85,2.77-2.16,1.81.29,3.87-.33,5.76A112.3,112.3,0,0,1,695,544c5.93,4.31,8.78,11.87,16.18,14.32l.11-.16a90.71,90.71,0,0,0,4.45-15.45c.65-4,2.82-8.16-.36-12.09C706.61,528.51,696.8,528.66,691.24,519.57Z"/><path class="cls-144" d="M715.7,527.23a4.3,4.3,0,0,0,1-3.32c-.68-3.38-.4-7-2.56-10l-.06-1.52-21.37,5.87C696.28,526.39,705.59,530,715.7,527.23Z"/><path class="cls-145" d="M576.63,470.66a66,66,0,0,0,15.58.14c1.06.37,2.43.16,3,1.53-6.11,2.1-12.6-.62-18.72,1.46a9.75,9.75,0,0,0-6,1.6c-3.33-1.27-7.06-1.62-9.76-4.29Z"/><path class="cls-146" d="M590.7,409.45q.09-17.9.19-35.8c3.58,1.78,1.86,4.56,1.36,7.11,0,7.36,0,14.72,0,22.07,0,2.29.73,4.83-1.52,6.63Z"/><path class="cls-147" d="M661.1,370.73a84.74,84.74,0,0,1-.08,34.35A83.87,83.87,0,0,1,661.1,370.73Z"/><path class="cls-148" d="M661.1,370.73q0,17.17-.08,34.35l-1.41,0a172.38,172.38,0,0,1,0-34.37Z"/><path class="cls-149" d="M659.62,370.69q0,17.18,0,34.37A83.62,83.62,0,0,1,659.62,370.69Z"/><path class="cls-150" d="M591.06,410.81a7.73,7.73,0,0,1,1.18,0,170.06,170.06,0,0,1-.08,34.36H591l-.51-.08c-.69-11.45-.52-22.91-.1-34.36Z"/><path class="cls-151" d="M592.16,445.15q0-17.17.08-34.36A83.06,83.06,0,0,1,592.16,445.15Z"/><path class="cls-152" d="M699.77,418q1.38-8.55-7.18-7.16h0c0-.44,0-.88,0-1.32,3.35.26,6.3-1.45,9.46-2.21,1.25,2.72.55,5.3.44,7.86-.87.9-.38,2.3-1.2,3.22A1.26,1.26,0,0,1,699.77,418Z"/><path class="cls-153" d="M576.46,473.79c6-3.1,12.52-.53,18.72-1.46l5.6.14C592.81,475.35,584.55,473.08,576.46,473.79Z"/><path class="cls-154" d="M629.57,483.66c-3.68,2-6.42-3.44-10.12-1.26l-2.87-2.74C621.64,478.62,625.87,480.28,629.57,483.66Z"/><path class="cls-155" d="M657.09,517.72c-.35,1.27-.44,2.66-1.76,3.42a11,11,0,0,1-3-10.28l1.71-1.53A19.61,19.61,0,0,1,657.09,517.72Z"/><path class="cls-156" d="M592.25,380.76c-.43-2.37.91-5.09-1.36-7.11.05-1.34-.51-3.25,1.21-3.57,1.49-.28,1.56,1.48,1.47,2.59C593.34,375.4,594.58,378.38,592.25,380.76Z"/><path class="cls-157" d="M661,521.25c-.67,1.89,1.76,4-.33,5.76a2.07,2.07,0,0,1-.92.18q-.57-3-1.16-6.11Z"/><path class="cls-11" d="M701.18,418a3,3,0,0,1,1.32-2.84c0,3.46.8,7-1.15,10.27C700,422.94,700.21,420.46,701.18,418Z"/><path class="cls-158" d="M701.18,418c.05,2.48.11,5,.17,7.43-.07.85-.15,1.7-.22,2.55-2.65-3-.83-6.67-1.36-10Z"/><path class="cls-13" d="M837.15,299.06c1.08-4.39,2-8.92,7.46-10.07,4.73.87,7,5.75,11.43,7.05,6.26.42,10.59,4.67,15.52,7.75,1.88,2.66,1.2,4.95-1,7-8.49,6.54-5,14-1.68,21.46a4.14,4.14,0,0,1,1.34,2.65,4.53,4.53,0,0,1-.92,2.86l-1.58,1.65c-4,2.38-8.2,3.8-12.91,2.43-3-.8-2.83-3.36-3.11-5.66-2.17-1.59-2.31-3.92-2-6.22s-.16-4-2.16-5.28c-5-4.73-8.72-10.24-10.36-17,0-.32,0-.64-.06-1,.06-2.24,0-4.47,0-6.71Z"/><path class="cls-159" d="M824.3,305.49l4.44-2.15c.57,1.83,1.13,3.67,1.7,5.5.8,6.36-3.75,2.85-6,3.65,2.1.91,4.85-.68,7,.93.94,3,0,5.83-1.08,8.62-.05,2.7-1.87,4.18-3.86,5.56-1.74,2.29-4.39,4.16-3.69,7.64l-28,5.24C805.42,328,814.86,316.72,824.3,305.49Z"/><path class="cls-160" d="M869.28,337.77c0-.84.06-1.67.1-2.51.43-1.24,1.61-1.11,2.57-1.37,2.69-.83,5.55,0,8.24-.85,1-.24,2-.52,2.72.63,2.33,1.66,5.94-.57,7.79,2.56C883.55,336.58,876.3,335.63,869.28,337.77Z"/><path class="cls-161" d="M847.53,324.69c1.94.09,4.47.72,3.4,2.89-1.63,3.33,1.15,5.73.75,8.61l-1.4.26c-1.88.73-3.75,1-5.55-.21a8.06,8.06,0,0,1-.23-1.19C849.67,332.81,849.73,329.08,847.53,324.69Z"/><path class="cls-162" d="M854.79,341.85l12.91-2.43-3,2.65a9.2,9.2,0,0,1-10.06,0Z"/><path class="cls-163" d="M829,357.89c.21-1.71-.89-3.73,1.6-5.37,1.54,2.45,1.66,4.58-.23,6.77A3.14,3.14,0,0,1,829,357.89Z"/><path class="cls-164" d="M828.85,335a35.23,35.23,0,0,1,11.41,0A11.19,11.19,0,0,1,828.85,335Z"/><path class="cls-165" d="M898.78,389.05c-4.11-1.57-5.58-3.13-7.21-6.41C894.87,383.9,896.2,385.65,898.78,389.05Z"/><path class="cls-166" d="M827.49,363.6c-.49,2.64-1.78,4.58-5.47,5.6a14,14,0,0,1,5.28-5.77Z"/><path class="cls-167" d="M864.61,343.31q-5,3.79-9.92,0A20.19,20.19,0,0,1,864.61,343.31Z"/><path class="cls-168" d="M864.61,343.31h-9.92q0-.63-.06-1.26l10.06,0A10.19,10.19,0,0,0,864.61,343.31Z"/><path class="cls-169" d="M916.3,448c-1.77-.1-3.69.42-5.48-1.11,2-1.44,3.81.15,5.52-.24C916.32,447.11,916.31,447.56,916.3,448Z"/><path class="cls-170" d="M844.73,336.24l5.55.21C848.37,338.06,846.48,338.87,844.73,336.24Z"/><path class="cls-171" d="M903.56,390.52c-1.47.85-2,1.3-2.12,1.21a5.43,5.43,0,0,1-1.91-1.83c-.33-.75.3-1.24,1.17-.84S902.4,389.92,903.56,390.52Z"/><path class="cls-172" d="M890.18,381.78c-2.24-.06-3.47-.88-3.44-1.85.08-2.51,1.33-.67,2-.24S889.47,380.74,890.18,381.78Z"/><path class="cls-173" d="M829,357.89l1.36,1.4a4.63,4.63,0,0,1-2.82,4.31l-.19-.17Z"/><path class="cls-174" d="M164.71,253.52c-2.6-3.25-6.43-4.37-10-5.92a2.73,2.73,0,0,0-3.94,0c-10.18,4.57-13.9,12.45-10.32,21.9,2.95,7.79,9.52,10,20.2,6.75,4.08-2.37,6.56-5.67,7.35-9.46a13.06,13.06,0,0,0,.26-3.2A19.76,19.76,0,0,0,164.71,253.52ZM152.45,273.9c-6.94-.62-7.89-5.69-7.8-11.31.06-6.92,3.19-10.85,8.5-10.67,5,.17,8.85,5,8.73,11C161.74,269.7,157.89,274.38,152.45,273.9Z"/><path class="cls-175" d="M213.54,259.13c-1.54-1.09-3-2.27-4.61-3.26-4.37-2.7-8.33,1.34-12.78,1-2.14-.15-1,4.92-1.17,7.61a74.33,74.33,0,0,0,.08,12.75c.4,3.35-2.6,9.26,2.25,9.45,3.92.14,1.06-6,2.14-9.05.11-.2.23-.59.34-.59C214.11,277.26,217.33,273.05,213.54,259.13Zm-4,6.48c-.1,4.92-.72,8.79-5.1,8.44s-5.11-4.32-5.11-8.15c0-3.28.93-5.53,4.85-5.55C208.93,260.34,209.65,263.24,209.55,265.61Z"/><path class="cls-174" d="M186.13,256.31q2.2,2.88,4.39,5.78c2.93,7.19,2.08,10.21-4,14.28-6,2.57-11.33,1.77-15.73-3.32-3.7-4-3.77-9.65-.16-14.26C174.34,254,179.83,253.12,186.13,256.31Z"/><path class="cls-176" d="M233.52,274.42c-3.38,3.91-7.9,3.54-12.33,3.13-3-.28-4.46-1.65-1.9-4.48,1.75-1.61,4.15.1,6.25-1.2-1.37-4.09-8.2-3.25-7.8-8.66-.82-4.88,2.41-6.82,6.11-8.43a4.32,4.32,0,0,1,5.33,0c1.76,1.33,4,2.39,3,5.27-1.3,1.9-3.59.29-5.22,1.54C228.74,266.07,238.35,266.67,233.52,274.42Z"/><path class="cls-177" d="M225.06,268.31c-2.62-1.45-5.72-2.18-7.31-5.1-2.45-4.12-2.57-4.25-4.21-4.08,3.79,13.92.57,18.13-13.75,17.95-.11,0-.23.39-.34.59,2.67,2.39.17,6,2.53,9.47-.46-5.17,1.62-6.67,6-7.1,4.54-.46,7.5-4.71,11.35-7,1.1.38,2.19.79,3.31,1.09,2.36.66,5.07,1.05,6.06-1.63S226.78,269.27,225.06,268.31Z"/><path class="cls-177" d="M240.88,269c-1.3-2.39-.67-5-.83-7.5-.29-4.38.1-8.89-3.24-12.46-1.91,3.75-3.55,7.54-2.15,11.89.43,1.35,1,3-.22,3.91-.58.43-2.34-.18-3.19-.82-2.53-1.87,1.17-2.46,1-3.92-.92-.16-1.85-.27-2.76-.5-2.26-.56-5.32-1.9-6.35.62-1.14,2.79,2.11,3.63,4.24,4.47,4.44,1.76,7.13,4.58,6.18,9.73.79,1,.82,3.35,3.08,1.71,1.67-1.55,4.07-1.6,5.88-2.86C244.77,270.79,242.42,270,240.88,269Z"/><path class="cls-178" d="M186.13,256.31c-4.87-1.2-10.16-2.42-13.52,2.33-3,4.16-5,9.14-1.85,14.41-2.46.53-5.2.22-6.74,3.1-.67,1.25-2.19,1.67-3.38.14,7.31-6.53,6.69-14.48,4.07-22.77.7-1,1.89-1.08,2.16-.09,1.28,4.72,3.45,3.55,6.38,1.47,3.51-2.49,7.67-1.81,11.63-1.38C186.24,253.67,187.71,254.49,186.13,256.31Z"/><path class="cls-179" d="M240.88,269c-3-.3-2.77-2.52-2.91-4.66-.33-5.1-.77-10.2-1.16-15.3,3.75-.71,6,.25,5.52,4.64C241.77,258.78,243.24,264.07,240.88,269Z"/><path class="cls-180" d="M186.49,276.37c4.85-3.78,4.3-9.07,4-14.28l2.58-5.44v29.4l-.58.05V275.27C189.86,274,189.09,279.39,186.49,276.37Z"/><path class="cls-181" d="M236.6,276.13c.46-4,2.53-4.75,5.88-2.86C242.53,278.34,240.2,278.53,236.6,276.13Z"/><path class="cls-182" d="M154.69,247.6l-3.94,0a2.06,2.06,0,0,1-.68-.16,9.32,9.32,0,0,1-.89-.79c2.81-1.45,5.66-.1,8.79-.74C157.08,248,155.69,247.27,154.69,247.6Z"/><path class="cls-183" d="M229.18,254.82l-5.33,0c-.23-.05-.51,0-.68-.16a7.39,7.39,0,0,1-.86-.82,13.07,13.07,0,0,1,8.47.06c-.08.18-.12.46-.26.52A12.35,12.35,0,0,1,229.18,254.82Z"/><path class="cls-9" d="M547.81,522.65c-6-.35-8.45-4.3-8.43-9.44s2.25-9.36,8.35-9.37,8.36,4.23,8.4,9.32S553.77,522.27,547.81,522.65Z"/><path class="cls-184" d="M539.29,559.33c.79-4.75,2.36-9.49,8.42-9.46s8.13,4.87,8.34,9.77-3,8.62-8,9.56C544.13,569.94,539.28,564.25,539.29,559.33Z"/><path class="cls-185" d="M400.12,520.78c-5.59,3.41-6,7-1.66,13.45a.85.85,0,0,1,.6,1.16c-.48.65-1.3.85-1.84,1.41-5.44-1.18-7.63-5.15-6.81-10,1.12-6.6,5.67-9.57,12.49-8.6a1.19,1.19,0,0,1,.44,1.48C402.44,520.55,401.09,520.11,400.12,520.78Z"/><path class="cls-186" d="M395.91,474.74c-6.75,3.81-4.64,8.65-1.61,13.61-2.28,5.33-4.27,2-5.69-.41a12,12,0,0,1-.47-11.55c2.11-4.57,6.43-4.07,10.47-4C399.47,475.17,396.94,474.11,395.91,474.74Z"/><path class="cls-187" d="M395.91,474.74l2.7-2.36c2.41.33,5.13-1,7.16,1.37Z"/><path class="cls-188" d="M639.67,535.44c0,.45-.1.9-.17,1.35l-4,0,3.93-8.84C641.93,530.35,640.93,532.89,639.67,535.44Z"/><path class="cls-189" d="M625.2,528.11c1.4,2-.31,3.15-1.38,4.44-2.26-1.28-.76-2.61-.05-3.93C624,527.89,624.51,527.69,625.2,528.11Z"/><path class="cls-190" d="M625.2,528.11l-1.43.51c-1.56-3.09,1-3.72,2.87-4.72Z"/><path class="cls-191" d="M614.92,595.39l4,.67c-2.78,1.24-4.73,1.36-6.54-.24Z"/><path class="cls-192" d="M324.27,522.39a8.1,8.1,0,0,1-.3-1.2c4.36-.84,6.18.86,6,5.58C327.44,526.14,325.33,525,324.27,522.39Z"/><path class="cls-193" d="M324.27,522.39c2,1.33,4.43,2.11,5.71,4.38a3.07,3.07,0,0,1-3.09,1.37C326.74,525.9,322.5,525.51,324.27,522.39Z"/><path class="cls-194" d="M283.7,513.85l.45-1.64c1.8,3.35.21,7.45,2.37,10.71,1.25.59,1,1.46.43,2.37l1.17,6.06-5.7-.12c-.92.6-1.79.77-2.49-.33l-24.46-6.06c-1.51-.14-3.53.42-3.15-2.3,8.28-4.09,17.21-5.85,26.24-7.2C280.35,515.08,282.43,515.88,283.7,513.85Z"/><path class="cls-195" d="M243.7,525.12l-5.46,3.1c-1.1.3-2.52-.07-3.09,1.41-.41.22-.83.43-1.25.63C235.37,525.12,238.64,523.43,243.7,525.12Z"/><path class="cls-196" d="M856,296c-5.58.51-7.75-4.48-11.43-7.05C850.34,288.24,852.4,293.42,856,296Z"/><path class="cls-197" d="M882.91,333.67l-2,0c-2.66.9-5.4.43-8.11.43l-1-.6c6.07-3.18,12.39-.64,18.64-.4Z"/><path class="cls-88" d="M831.52,313.42H822c3.34-2.47,8,.19,8.49-4.58C832,310.09,831.75,311.76,831.52,313.42Z"/><path class="cls-198" d="M870.54,310.8l1-7C874.25,306.27,874,308.29,870.54,310.8Z"/><path class="cls-199" d="M836.1,307.5a9.67,9.67,0,0,1-1.16-8.4c0-.12.38-.21.57-.19a2,2,0,0,1,.58.34A7,7,0,0,1,836.1,307.5Z"/><path class="cls-200" d="M829,290.59a8.9,8.9,0,0,1,0,9.82l-.34.22c-2-3.42-1.34-6.82,0-10.22Z"/><path class="cls-201" d="M826.58,327.6l3.86-5.56C832.6,326.27,828.84,326.41,826.58,327.6Z"/><path class="cls-202" d="M836.1,307.5c0-2.75,0-5.5,0-8.25a5.48,5.48,0,0,1,1.06-.19l.64.06a24.33,24.33,0,0,1,0,8.51l-.63.06A7.48,7.48,0,0,1,836.1,307.5Z"/><path class="cls-197" d="M871.84,334.72l-2.47.54-.51-3c.54-.3-.49-3,1.5-1a12.34,12.34,0,0,1,1.48,2.23h0c.47.28.62.56.47.85S872,334.72,871.84,334.72Z"/><path class="cls-203" d="M659.64,539.58c-2.32-2.77-2.06-5.59-.17-8.44C659.52,534,659.58,536.77,659.64,539.58Z"/><path class="cls-204" d="M590.37,410.72a325.47,325.47,0,0,1,.1,34.36c-2.55-8.51-.44-17.22-1.14-25.81-.16-2.06.76-4.4-.77-6.13C584.93,409,589.74,411.49,590.37,410.72Z"/><path class="cls-205" d="M962.27,275.13c-.09,4.58-.75,7.78-6.25,5.8-18.82-6.78-37.7-13.37-56.49-20.22-7.3-2.66-7.69-4.39-1.89-9.52q21.93-19.38,44.25-38.28c5-4.29,7.46-3.26,9.1,3.28.46,1.84.8,3.7,1.15,5.56C955.55,239.69,959,257.62,962.27,275.13Z"/><path class="cls-206" d="M633.65,300.81c-.52,1.31-1,2.63-1.57,3.94-1.61-1.93-1.7-3.81.16-5.64Z"/><path class="cls-207" d="M592.42,298.76a3.14,3.14,0,0,1-.14-.91c2.41,0,5-1.09,7.06,1.13l-.44.33h-.55Z"/><path class="cls-208" d="M332.72,327.5c-8.08-1.75-11.14-5.95-8.94-13.39,2-6.82,7.31-3.38,10.47-1.79,5.6,2.81,11.16,3.12,17.05,2.53.37,1.26-.38,1.91-1.34,2.45-2.19.9-4.63.66-6.86,1.45-1.53.67-3.82.43-3.61,3.09,2.51,2.32,6.76.1,9.08,3.86C343.56,329.19,338,327.16,332.72,327.5Z"/><path class="cls-209" d="M332.72,327.5c4.39-2.91,9.61.13,14.13-2.69-2.54,0-5.1.17-7.62-.07-1.42-.13-3.74-.31-1.91-2.88,3.44-.95,7.94,1,10-3.68a8.55,8.55,0,0,1,2.3-1.75l1.67-1.58,2.2-1.27c.47,11.23-2.5,14.74-13.67,16.09C337.37,329.24,334.69,329.52,332.72,327.5Z"/><path class="cls-210" d="M328.36,300.15c.7-3.66-1.6-7.76,1.6-11.06C328.38,292.62,331.4,296.83,328.36,300.15Z"/><path class="cls-211" d="M322,321a10.92,10.92,0,0,1-.14-8A11.07,11.07,0,0,1,322,321Z"/><path class="cls-212" d="M358.31,293.17l.06,1.52c-.47,0-.93.1-1.39.18a8.36,8.36,0,0,1-7.05-.13c0-.37,0-.74,0-1.1V293A17.55,17.55,0,0,1,358.31,293.17Z"/><path class="cls-213" d="M349.93,294.74l7.05.13C354.6,296.54,352.23,297.41,349.93,294.74Z"/><path class="cls-214" d="M318.26,299.06a1.71,1.71,0,0,1-.45-2.82c1-1.17,2.12-1.67,3.32-.2Z"/><path class="cls-215" d="M358.31,293.17l-8.43-.15c2.72-2,5.83-.76,8.75-1.06C358.54,292.37,358.43,292.77,358.31,293.17Z"/><path class="cls-216" d="M100.41,376.93c-.18-17.82-.12-17.95,12.21-12.14,9.28,4.36,18.41,9,27.53,13.69,5.93,3,6.08,4.54.76,8.15q-15.36,10.44-30.9,20.59c-5.41,3.52-8,2.33-8-4.24C102.07,392.73,100.69,382.59,100.41,376.93Z"/><path class="cls-10" d="M303.84,555.33c-4.88-8.61-9.79-17.2-15.76-25.12-13.39-15.92-54.07-11.68-54.4.77.23,2.1,3.08,16.54,4.61,21.58q1.36,5,2.71,10h0c.1,17.37.14,34.74.33,52.1.09,8,.57,15.75-3.05,23.51-2.26,4.84-10,38.5-11.44,44.59a1.17,1.17,0,0,0,0,.26c-.15,2.65-.31,5.3-.46,8a1.39,1.39,0,0,0,0,.35l0,0c-1.6,2.71-1.32,5.65-1.05,8.58a.68.68,0,0,0,0,.14v0c-.12,2.39-.86,13.91-.87,13.91s0,.79,0,2c-.21.9-.42,1.81-.65,2.71-1.35,4.28.54,8.69-.55,13a27,27,0,0,0,0,6.72,2.6,2.6,0,0,0,.29.85c.7,1.42,1.17,3.3,3.08,2.31v.1c2.22,3.48,4.72,5.63,8.44,1.7a1.13,1.13,0,0,0,.36-1.22c4-2.32,16.61-27.7,17-27.82,8.55-11.4,39.6-93,40.25-94.36,4.22-7.19,4.52-15.32,5.55-23.28-.21-1.82,3.64-28.41,6.69-30.12a5.3,5.3,0,0,0,.46-1.91C304.56,561.55,303.73,558.51,303.84,555.33Z"/><path class="cls-217" d="M717,522.45c-.32-3.06,1.06-6.7-2.87-8.55l1.53,10h0l-.15,2.9h0c-8.32-.94-17.27-.18-22.81-8.52l-1.46,1.32c1.52,6.57,6.55,8.9,12.36,10.66,3.53,1.07,7,.69,10.51.73,2.67,3.67,1.3,7.6.75,11.49-.75,5.35-4,10.12-3.57,15.73C716.68,546.82,720.55,535.23,717,522.45Z"/><path class="cls-218" d="M828.66,290.41q0,5.1,0,10.22l-1.12-.26a10.63,10.63,0,0,1-.14-8.44Z"/><path class="cls-219" d="M827.36,291.93c0,2.81.09,5.63.14,8.44C824.82,297.6,825.65,294.77,827.36,291.93Z"/><path class="cls-220" d="M182.8,485.09a2,2,0,0,1-1.94-2.36c.14-1.23.71-2.41,2.1-2.25a2.68,2.68,0,0,1,2.51,2.86C185.36,484.53,184.1,485.12,182.8,485.09Z"/><path class="cls-221" d="M460.88,601.17c-.16,2.24-1.38,2.82-2.87,2.72a1.9,1.9,0,0,1-1.8-2.42c.25-1.52,1.15-2.78,2.72-2.43C459.79,599.23,460.38,600.58,460.88,601.17Z"/><path class="cls-222" d="M465.62,295.91c-.09,1.57-.84,2.63-2.49,2.67a2.2,2.2,0,0,1-2.33-2.09,2.29,2.29,0,0,1,2.41-2.69C464.54,293.75,465.2,294.74,465.62,295.91Z"/><path class="cls-223" d="M290.46,620.15a21.45,21.45,0,0,1-1.31,7.59c-2.31-3.2.46-6.09.46-9.17A7,7,0,0,1,290.46,620.15Z"/><path class="cls-224" d="M279.93,530.9l2.49.33c-1.78,1.76-3.75,1.61-6.31.5Z"/><path class="cls-225" d="M658.24,545.53a9.22,9.22,0,0,1,1.16-.25c2.32,1.46,1.41,3.74,1.69,5.85-2.15-.08-1.15-2.47-2.56-2.9C657.21,547.46,657.41,546.53,658.24,545.53Z"/><path class="cls-226" d="M658.24,545.53l.29,2.7c-.17,1-.35,1.91-.53,2.86C656.33,549.16,655.87,547.28,658.24,545.53Z"/><path class="cls-227" d="M364.34,641.41l.09-5.4a255.34,255.34,0,0,0,0-51c0-1.74,0-3.47,0-5.21.86-1,1-2-.11-3a10,10,0,0,0-6.39-4.11c-7.89-.26-15-3.39-22.27-5.92a49.15,49.15,0,0,1-23.94-7.92c-1.91-1.23-3.83-3.42-6.52-1.93l-2.62-1.71c-.69,3.74,1.59,7,1.62,10.65.89,2.32,4.4,19.18,4.15,19.55-.08,3.64,10.9,40.36,14.17,51.75l.09,12.72c-.22,8.91,4.22,25.92,4.22,25.92-.59,2.6.86,4.72,1.61,7,2.37,4.64,12.68,41.46,12.68,41.46-.55,5.87,2.49,10.71,4.55,15.83h0s1.05,3.8,1.58,5.7c6.57,4.2,8.12,3.78,9.22-2.48q2.33-16.1,4.66-32.2c0-1.42-.08-2.83,0-4.24.47-12,1.56-35.79,1.34-35.74Z"/><path class="cls-228" d="M287,525.29c-.14-.79-.28-1.58-.43-2.37.2-1.08.4-2.17.81-4.45C288.32,521.63,288.85,523.53,287,525.29Z"/><path class="cls-5" d="M652.93,572.32l.69-3.67c.2,1.33,3.2,9.75,2.9,13,0,2.88,5,27.58,4.86,29.44,1.46,10.3,2.31,20.74,7,30.31.46.4,2.48,9,1.77,10.83.71,5.22,24.22,82.71,29.56,95.29l.57,2.55c2.4,2,4.85,2.2,7.37.21a4.63,4.63,0,0,0,.59-4.29l.56-13.65s2.6-40.19,2.5-45.12c0-.48,0-1,0-1.44s0-1,0-1.47l.27-6.86c2-5.24,1.1-10.68,1.1-16.06l.33-8.28c1.61-10.57,4-76.46,4-87.1Z"/><path class="cls-229" d="M639.67,535.44l-.24-7.51c-.09-9,8.42-11.52,12.9-17.07,1.43,3.3,3,6.57,3,10.28A49.49,49.49,0,0,1,639.67,535.44Z"/><path class="cls-140" d="M692.59,410.79c-6.5,3-13.22.79-19.88,0Z"/><path class="cls-230" d="M665.41,407.84v15.44c-.81-5.17-3-10.39,0-15.45Z"/><polygon class="cls-5" points="642.62 723.79 642.63 723.78 645.11 705.52 642.62 723.79"/><path class="cls-213" d="M837.8,307.63a20.34,20.34,0,0,1,0-8.51A8,8,0,0,1,837.8,307.63Z"/><path class="cls-10" d="M871.84,334.72c0-.42,0-.85,0-1.27l9.11.18Z"/><path class="cls-231" d="M161.88,262.94c-.14,6.76-4,11.44-9.43,11-6.94-.62-7.89-5.69-7.8-11.31.06-6.92,3.19-10.85,8.5-10.67C158.19,252.09,162,256.91,161.88,262.94Z"/><path class="cls-232" d="M186.28,266.43c-.91,3.88-1.88,7.89-6.23,7.86-4.55,0-5.27-3.9-5.26-7.73s1.1-7.33,5.67-7.46C185.6,258.94,184.85,263.72,186.28,266.43Z"/><path class="cls-233" d="M946.13,216.26c3.81,20.2,7.44,39.41,11.26,59.61-18.59-6.38-36.09-12.36-53.55-18.42-5.15-1.79-1.54-3.92.15-5.38,11.12-9.67,22.36-19.21,33.57-28.77C940.07,221.17,942.65,219.12,946.13,216.26Z"/><path class="cls-234" d="M348.08,318c-.66,9.36-6.63,4.1-10.76,3.91-1.57-5.7,2.72-4.13,5.51-4.44C344.63,317.05,346.48,316.28,348.08,318Z"/><path class="cls-235" d="M348.08,318l-5.25-.53c2.05-1.82,4.53-.69,6.81-1Z"/><path class="cls-233" d="M140.29,382.74l-30,20.11c-2.46,1.65-4.2,2.14-4.47-1.9-.73-10.64-1.7-21.27-2.51-31.91-.35-4.58,2-3.82,4.83-2.42C118.55,371.87,129,377.08,140.29,382.74Z"/><path class="cls-231" d="M209.55,265.61c-.1,4.92-.72,8.79-5.1,8.44s-5.11-4.32-5.11-8.15c0-3.28.93-5.53,4.85-5.55C208.93,260.34,209.65,263.24,209.55,265.61Z"/><path class="cls-236" d="M932.83,255.36a2.69,2.69,0,0,1-2-3.44c1.89-6.86,3.83-13.7,5.9-20.49a3.14,3.14,0,0,1,3.94-2.26c1.87.42,3.18,2,2.71,3.62a83.81,83.81,0,0,1-8.9,21.54C934.21,254.85,933.36,255.05,932.83,255.36Z"/><path class="cls-237" d="M933,260.48a2.35,2.35,0,0,1-2.3,2.27,2.24,2.24,0,0,1-2.42-2.77,2.19,2.19,0,0,1,2.57-1.94A2.41,2.41,0,0,1,933,260.48Z"/><path class="cls-205" d="M118.43,388c-4.71-3.45-7.63-8.53-10.69-13.43-.58-.92.18-2.34,1.46-2.82s2.29.53,2.86,1.47c2.68,4.38,5.23,8.84,7.83,13.27Z"/><path class="cls-2" d="M705.52,575.48c-10.46-15.1-24-26.28-41.35-32.7a15.53,15.53,0,0,1-4.48-2.23,5.28,5.28,0,0,1-1.22-1.73c-.81-2.47-.66-5-.64-7.56a8.34,8.34,0,0,1,1.14-4.21,2.82,2.82,0,0,1,1.87-1,79.78,79.78,0,0,1,42.38,23.53c2.65,2.77,6,4.72,8.37,7.76,1.85,2.66,3.06,5.75,5.28,8.18.72,1.75,1.12,3.71,2.19,5.21C735,593,745.74,618,756.29,643c9.15,21.7,24.73,37,44.8,48.15,6.82,3.8,13.64,7.94,21.64,9.09l2.52,14.11c-11.11-4-22.35-7.7-32.37-14.18-12-3.73-45-42.92-50.38-55.52-6.62-15.59-13.23-31.18-21.6-45.95Z"/><path class="cls-238" d="M704.19,186.64l-210.1-.08H445.38c-7.65-.73-13.52-3.86-15.82-11.79-1.78-4.66-2-9.51-2-14.46.07-41.65.24-83.29-.08-124.94-.09-12.71,8.46-23.3,23.06-23.23,84.3.4,168.6.19,252.9.2,12.81,0,18.74,4.46,22.47,16.81q0,83.4,0,166.8c0,1.15,0,2.3,0,3.44-.07,1.74.5,3.83-1.72,4.67-2,.74-2.95-1-4.07-2.09-4.19-4.16-8.31-8.39-12.5-12.55C706.53,188.4,705.32,187.56,704.19,186.64Z"/><path class="cls-10" d="M610.81,97.7c0-12.19-.9-24.23-6.83-35.27-7.1-13.21-18.76-17.51-33-16.53-13.11.9-22.46,7.24-27.56,19.55a58.69,58.69,0,0,0-4.27,18.08c-1.23,15.73-1.69,31.47,5.1,46.31,5.84,12.78,17.12,19.5,31.12,18.93,16.22-.66,26-7.43,31.24-21.58C610.15,117.66,610.89,107.74,610.81,97.7ZM582,119.54c-.94,3.84-2.62,7.23-7.35,7.23s-6.55-3.48-7.28-7.29a118.23,118.23,0,0,1,0-44.33c.71-3.78,2.45-7.46,7.09-7.57,4.95-.13,6.58,3.7,7.55,7.64,1.83,7.35,2,14.88,1.93,22.41C584,105,583.77,112.35,582,119.54Z"/><path class="cls-10" d="M693.85,97.7c0-12.19-.91-24.23-6.84-35.27-7.09-13.21-18.76-17.51-33-16.53-13.12.9-22.47,7.24-27.57,19.55a59,59,0,0,0-4.27,18.08c-1.23,15.73-1.69,31.47,5.1,46.31,5.85,12.78,17.12,19.5,31.12,18.93,16.23-.66,26-7.43,31.24-21.58C693.18,117.66,693.93,107.74,693.85,97.7ZM665,119.54c-.94,3.84-2.62,7.23-7.36,7.23s-6.55-3.48-7.28-7.29a118,118,0,0,1,0-44.33c.71-3.78,2.44-7.46,7.09-7.57,4.94-.13,6.57,3.7,7.55,7.64,1.82,7.35,2,14.88,1.93,22.41C667,105,666.8,112.35,665,119.54Z"/><path class="cls-10" d="M522.9,46.75v16h-31v17a18.71,18.71,0,0,1,15-6.87q10.32,0,15.62,5.79t5.28,22.23v14.29q0,10.64-1,15.62a21.73,21.73,0,0,1-4.36,9.21,20.92,20.92,0,0,1-9.31,6.5,41.43,41.43,0,0,1-14.56,2.26,40.44,40.44,0,0,1-17-3.38,20.25,20.25,0,0,1-10.45-10.05q-3.1-6.67-3.1-20.65v-5.45h25v6.25a96.23,96.23,0,0,0,.68,13.79c.46,2.72,2,4.08,4.7,4.08a4.16,4.16,0,0,0,4.24-3.71q.09-1.35.22-11.81V98c0-3.76-.4-6.31-1.18-7.67a4.14,4.14,0,0,0-3.9-2,4.19,4.19,0,0,0-2.9,1.05,4.81,4.81,0,0,0-1.52,2.25,27.07,27.07,0,0,0-.34,5.6H468.22l1-50.47Z"/><path class="cls-11" d="M912,709.37a20.49,20.49,0,0,1,0,8.07c-1.25,3.69.23,8.14-3.13,11.24-1.42,6.87-3.08,13.71-2.53,20.82-4.11,6.4-10.14,8.06-15.72,4.32,6.49-3.45,7.29-8.48,4.68-15-1.48-3.67-2-7.73-3-11.61-3.58-3.59-2.89-8.69-4.58-12.94-1.25-5.31-1.61-10.79-3.06-16.07-4.51-21.55-8.79-43.13-11.47-65a22.06,22.06,0,0,1,.07-7.07c1.16-2.95.52-6.5,2.92-9l33-5.56c1.67,9.05,3.42,18.09,5,27.16a81.74,81.74,0,0,1,.58,8.44,16.74,16.74,0,0,0,0,9.91c.83,14.93-3,29.57-2.8,44.46"/><path class="cls-239" d="M832.7,616.77c-7.69.11-14.93-1.2-21-6.46-9.23-2.42-10-9.7-10.23-17.46-.38-14.86-.9-29.72-1.37-44.58-.85-.52-.83-1,.08-1.4.9-12.27,1.35-24.6,2.78-36.81,2.46-21.14,7.43-41.56,20-59.34,2.67-1.63,5,0,7.26.94a52.83,52.83,0,0,0,17.55,4.49,36.48,36.48,0,0,0,19.12.06,20.51,20.51,0,0,1,5.47.44c2.45.59,4.65,1.86,6.59,2.44,1.23.76.89-1.28.42-.45-.34.59-.39.25-.7.09-.63-.32-1.28-.47-1.52-1.23,2-4,6.28-2,9.27-3.33.64-.22,1.29-.39,2-.55,2.86-.81,5.81-1.27,8.54-2.52a7.29,7.29,0,0,1,3.91-1,19,19,0,0,1,9,10.8c-3.31,5.65-8.86,10.6-5.66,18.38,4.77-1.26,5.05-9,11.37-8,9.75,20.91,10.47,43.08,9.13,65.53-2.92,2.35-1,4.75-.07,7.14,0,2.59.67,5.27-1,7.64-1.31-1.26-1.33-2.61-.85-3.28.18,1.41-1.11,3.6.86,5.65-.31,5.4.35,10.9-1.48,16.16-1.71,8.87-4.94,17.55-3.24,26.82-.18,7-.61,13.74-9.83,14.62-3.4,3.51-8.06,3.52-12.38,4.29-6.68,1.2-13.41,2.18-20.15,3-1.22.08-2.43.09-3.65.17a51.46,51.46,0,0,1-9.68-.6"/></svg>