<svg width="50" height="50" viewBox="0 0 50 50" fill="none" xmlns="http://www.w3.org/2000/svg">
<path fill-rule="evenodd" clip-rule="evenodd" d="M15.832 35.4489C15.832 35.3031 15.89 35.1632 15.9931 35.06C16.0963 34.9569 16.2362 34.8989 16.382 34.8989H32.882C33.0279 34.8989 33.1678 34.9569 33.2709 35.06C33.3741 35.1632 33.432 35.3031 33.432 35.4489C33.432 35.5948 33.3741 35.7347 33.2709 35.8378C33.1678 35.941 33.0279 35.9989 32.882 35.9989H16.382C16.2362 35.9989 16.0963 35.941 15.9931 35.8378C15.89 35.7347 15.832 35.5948 15.832 35.4489Z" fill="#808080"/>
<path fill-rule="evenodd" clip-rule="evenodd" d="M18.0277 23.8979V34.8979H20.7777V23.8979H18.0277ZM17.4777 22.7979C17.3319 22.7979 17.192 22.8558 17.0888 22.9589C16.9857 23.0621 16.9277 23.202 16.9277 23.3479V35.4479C16.9277 35.5937 16.9857 35.7336 17.0888 35.8368C17.192 35.9399 17.3319 35.9979 17.4777 35.9979H21.3277C21.4736 35.9979 21.6135 35.9399 21.7166 35.8368C21.8198 35.7336 21.8777 35.5937 21.8777 35.4479V23.3479C21.8777 23.202 21.8198 23.0621 21.7166 22.9589C21.6135 22.8558 21.4736 22.7979 21.3277 22.7979H17.4777Z" fill="#808080"/>
<path fill-rule="evenodd" clip-rule="evenodd" d="M20.416 14L29.216 17.3V25H26.466C26.3201 25 26.1803 25.0579 26.0771 25.1611C25.974 25.2642 25.916 25.4041 25.916 25.55V34.9H20.416V14ZM22.066 18.95H23.166V20.05H22.066V18.95ZM25.366 18.95H24.266V20.05H25.366V18.95ZM26.466 18.95H27.566V20.05H26.466V18.95ZM23.166 21.15H22.066V22.25H23.166V21.15ZM24.266 21.15H25.366V22.25H24.266V21.15ZM27.566 21.15H26.466V22.25H27.566V21.15ZM22.066 23.35H23.166V24.45H22.066V23.35ZM25.366 23.35H24.266V24.45H25.366V23.35ZM26.466 23.35H27.566V24.45H26.466V23.35ZM23.166 25.55H22.066V26.65H23.166V25.55ZM24.266 25.55H25.366V26.65H24.266V25.55ZM22.066 27.75H23.166V28.85H22.066V27.75ZM25.366 27.75H24.266V28.85H25.366V27.75ZM23.166 29.95H22.066V31.05H23.166V29.95ZM24.266 29.95H25.366V31.05H24.266V29.95ZM22.066 32.15H23.166V33.25H22.066V32.15ZM25.366 32.15H24.266V33.25H25.366V32.15Z" fill="#808080"/>
<path fill-rule="evenodd" clip-rule="evenodd" d="M27.3852 26.1V34.9H31.2352V26.1H27.3852ZM26.8352 25C26.6893 25 26.5494 25.0579 26.4462 25.1611C26.3431 25.2642 26.2852 25.4041 26.2852 25.55V35.45C26.2852 35.5959 26.3431 35.7358 26.4462 35.8389C26.5494 35.9421 26.6893 36 26.8352 36H31.7852C31.931 36 32.0709 35.9421 32.1741 35.8389C32.2772 35.7358 32.3352 35.5959 32.3352 35.45V25.55C32.3352 25.4041 32.2772 25.2642 32.1741 25.1611C32.0709 25.0579 31.931 25 31.7852 25H26.8352Z" fill="#808080"/>
<path fill-rule="evenodd" clip-rule="evenodd" d="M30.1363 28.3021H28.4863V27.2021H30.1363V28.3021Z" fill="#808080"/>
<path fill-rule="evenodd" clip-rule="evenodd" d="M30.1363 30.4989H28.4863V29.3989H30.1363V30.4989Z" fill="#808080"/>
<path fill-rule="evenodd" clip-rule="evenodd" d="M30.1363 32.7011H28.4863V31.6011H30.1363V32.7011Z" fill="#808080"/>
<path fill-rule="evenodd" clip-rule="evenodd" d="M30.1363 34.8979H28.4863V33.7979H30.1363V34.8979Z" fill="#808080"/>
<path fill-rule="evenodd" clip-rule="evenodd" d="M19.682 18.9521V23.3521H18.582V18.9521H19.682Z" fill="#808080"/>
</svg>
