<svg id="Layer_1" data-name="Layer 1" xmlns="http://www.w3.org/2000/svg" viewBox="0 0 32 32"><defs><style>.cls-1{fill:#005063;}.cls-2,.cls-3{fill:#fff;isolation:isolate;}.cls-2{opacity:0.2;}.cls-3{opacity:0.8;}.cls-4{fill:#263238;}</style></defs><g id="freepik--Hourglass--inject-1"><path id="Path_1801" data-name="Path 1801" class="cls-1" d="M15,1.11C9.33,1.48,4.78,2.74,4.86,3.94l0,.55h0C5,5.68,9.65,6.34,15.33,6S25.56,4.31,25.48,3.13l0-.55C25.37,1.39,20.7.73,15,1.11Z"/><ellipse id="Ellipse_77" data-name="Ellipse 77" class="cls-2" cx="15.19" cy="3.81" rx="10.31" ry="2.15" transform="translate(-0.22 1.01) rotate(-3.79)"/><path id="Path_1802" data-name="Path 1802" class="cls-1" d="M15.13,2.83C10,3.17,6,4.31,6,5.36l.06.92h0c.06,1.07,4.25,1.65,9.34,1.32s9.16-1.48,9.09-2.53h0l-.06-.92C24.4,3.08,20.21,2.49,15.13,2.83Z"/><ellipse id="Ellipse_78" data-name="Ellipse 78" class="cls-2" cx="15.31" cy="5.68" rx="9.23" ry="1.93" transform="translate(-0.34 1.02) rotate(-3.79)"/><path id="Path_1803" data-name="Path 1803" class="cls-1" d="M18.9,17.09a1.61,1.61,0,0,1-.45-2.23,1.43,1.43,0,0,1,.28-.32c2.26-2,5.08-5.24,4.84-8.91-.06-.79-3.78-1.18-8.32-.88s-8.17,1.18-8.12,2c.24,3.67,3.47,6.52,6,8.19a1.6,1.6,0,0,1,.44,2.23,1.39,1.39,0,0,1-.27.32c-2.26,2-5.08,5.24-4.84,8.91.05.79,3.77,1.19,8.31.88s8.18-1.18,8.13-2C24.62,21.61,21.4,18.76,18.9,17.09Z"/><path id="Path_1804" data-name="Path 1804" class="cls-3" d="M18.9,17.09a1.61,1.61,0,0,1-.45-2.23,1.43,1.43,0,0,1,.28-.32c2.26-2,5.08-5.24,4.84-8.91-.06-.79-3.78-1.18-8.32-.88s-8.17,1.18-8.12,2c.24,3.67,3.47,6.52,6,8.19a1.6,1.6,0,0,1,.44,2.23,1.39,1.39,0,0,1-.27.32c-2.26,2-5.08,5.24-4.84,8.91.05.79,3.77,1.19,8.31.88s8.18-1.18,8.13-2C24.62,21.61,21.4,18.76,18.9,17.09Z"/><path id="Path_1805" data-name="Path 1805" class="cls-4" d="M24.45,25.45c0,.81-14.66,2.09-15.49.75a1,1,0,0,1,0-1,2.93,2.93,0,0,1,.51-.75,4.54,4.54,0,0,1,2.2-.88l1.4-.33c.5-.12,1,.05,1.44-.27.28-.19.5-.5.83-.55s.5.09.74.05.57-.36.89-.33a2.69,2.69,0,0,1,.45.16,2.42,2.42,0,0,0,.85,0,3.82,3.82,0,0,1,.82.15,22.59,22.59,0,0,0,2.55.63,9.36,9.36,0,0,1,2,.41,1.15,1.15,0,0,1,.57.62h0a3,3,0,0,1,.28,1.28Z"/><path id="Path_1807" data-name="Path 1807" class="cls-2" d="M24.18,24.17a2,2,0,0,0-1.31-.47c-.21,0-.27-.19-.42-.26a5.76,5.76,0,0,0-1.1-.06s.34.11.4.23.46,0,.52,0-.57.23-.78.05-.33.1-.52.15a2.35,2.35,0,0,1-.83-.12,7.4,7.4,0,0,0-.81-.08,1.15,1.15,0,0,1,.48-.13c.15,0,.79-.22.66-.21s-.39-.19-.6-.28a2.75,2.75,0,0,0-.81,0,2.62,2.62,0,0,1,.78.19,5.17,5.17,0,0,0-.54.11,1.29,1.29,0,0,1-.48,0,.68.68,0,0,0-.35.22,6,6,0,0,1-.61,0,1.44,1.44,0,0,1-.58-.13l.57-.12-.18-.07a2,2,0,0,0-.39-.13c-.21-.06-.33.14-.39.18a1.86,1.86,0,0,1-.66-.1,6.58,6.58,0,0,0-1.17.25l.63,0a1.74,1.74,0,0,0,.5.17c.41.1.48,0,.66,0s.49.16.73.25l-.23,0a2.45,2.45,0,0,1-.6-.06,1.11,1.11,0,0,0-.65.08,4.5,4.5,0,0,1-.82,0,.94.94,0,0,0-.6.22.71.71,0,0,1-.74.1c-.3-.11-.87.21-.87.21s.31-.33.46-.34a4,4,0,0,0,.68-.26H14a.6.6,0,0,1-.42-.18c-.16-.14-.34-.06-.61,0s-.55.23-.8,0-1.14.4-1.14.4a3.5,3.5,0,0,0,.56-.13c.08-.06.13,0,.37.09s.33-.09.46-.14.47.09.47.09a.54.54,0,0,1-.28,0c-.13,0-.38.32-.45.28a1.67,1.67,0,0,0-.8.05c-.22.09-.58.43-.89.28s-1,.64-1.5.59a2.73,2.73,0,0,1,.52-.75,4.5,4.5,0,0,1,2.2-.88c.46-.12.93-.22,1.39-.33s1,0,1.45-.27c.27-.19.5-.5.83-.55s.49.09.73.05.57-.35.89-.33a1.74,1.74,0,0,1,.45.17,3,3,0,0,0,.85,0,3.35,3.35,0,0,1,.83.14,22.59,22.59,0,0,0,2.55.63,9.27,9.27,0,0,1,1.95.41A1.17,1.17,0,0,1,24.18,24.17Z"/><path id="Path_1808" data-name="Path 1808" class="cls-1" d="M16.55,24.41c-5.09.33-9.16,1.48-9.09,2.53l.07.92h0c.06,1.05,4.25,1.65,9.34,1.31S26,27.7,26,26.64h0l-.06-.92C25.83,24.65,21.64,24.06,16.55,24.41Z"/><path id="Path_1809" data-name="Path 1809" class="cls-1" d="M16.66,26C11,26.42,6.43,27.69,6.51,28.87l0,.55h0c.08,1.19,4.75,1.85,10.43,1.47s10.23-1.64,10.15-2.83l0-.55C27,26.32,22.35,25.67,16.66,26Z"/><path id="Path_1810" data-name="Path 1810" class="cls-2" d="M9.66,30.75l-.4-.07Z"/><path id="Path_1812" data-name="Path 1812" class="cls-2" d="M7.54,30.26l.17.07Z"/><path id="Path_1813" data-name="Path 1813" class="cls-2" d="M16.66,26C11,26.42,6.43,27.69,6.51,28.87l0,.55a.7.7,0,0,0,.33.5.7.7,0,0,1-.33-.5C6.47,28.23,11,27,16.71,26.6s10.35.28,10.43,1.46h0l0-.55C27,26.32,22.35,25.67,16.66,26Z"/><path id="Path_1814" data-name="Path 1814" class="cls-4" d="M16.92,15.42c-.2.85-.65,2.12-.89,3a7.23,7.23,0,0,0,.13,2.68c.09.42.94.45.88.77s1.23.51,1.23.51-6.37,1.77-7,1.55,1.28-1.24,1.63-1.28.55-.23.83-.69.5-.35.79-.81a9.16,9.16,0,0,0,.69-1.06c.35-.64.8-2.69.53-2.89s-.19,1.58-.44,1.61.5-1.7-.15-2.69S16.92,15.42,16.92,15.42Z"/><path id="Path_1815" data-name="Path 1815" class="cls-2" d="M18.26,22.36s-6.37,1.78-7,1.56,1-1.09,1.53-1.26c0,.36,1,.1,1.4-.07s.41,0,.56-.06A8.68,8.68,0,0,0,16,21.82c-.11,0-1,.52-1.13.31s-.52.12-.77.2-.25,0-.41-.21l.12-.19c.27-.46.5-.35.78-.81a10.59,10.59,0,0,0,.71-1c.34-.65.79-2.69.53-2.89s-.2,1.58-.45,1.61.5-1.71-.14-2.69,1.73-.69,1.73-.69c-.2.85-.65,2.12-.89,3a5.12,5.12,0,0,0,0,2c-.06.14-.13.26-.2.28s-.33.55-.53.55-.08.39.22.26.51-.12.72-.19c.24.27.84.33.78.6S18.26,22.36,18.26,22.36Z"/><path id="Path_1816" data-name="Path 1816" class="cls-4" d="M20.65,11.82l-.08.11c-.29.41-.59.79-.91,1.16a7.87,7.87,0,0,1-1.07,1.09c-.36.28-.72.4-.95.76a1,1,0,0,0-.14.29c-.11.28-.17.62-.43.76l-.19.08c-.13.1-.15.29-.2.45s-.22.32-.37.23-.13-.3-.27-.31a.35.35,0,0,0-.11,0c-.15,0-.26-.11-.36-.22s-.25-.21-.38-.15a6.56,6.56,0,0,0-1.14-1c-.33-.26-.68-.49-1.05-.74a19.23,19.23,0,0,1-2.32-1.67,1.91,1.91,0,0,1-.43-.59.59.59,0,0,1,0-.23c0-.86,2.65-.84,3.63-1.38s2.37,0,3-.05a14,14,0,0,1,1.9.21c.64,0,1.05-.12,1.39.19s.76.27.82.48S20.78,11.67,20.65,11.82Z"/><path id="Path_1817" data-name="Path 1817" class="cls-2" d="M19.87,11.47c-.53-.16.59-.07.51-.14a1.4,1.4,0,0,0-.94-.35c-.61-.05-1.11-.14-1.24-.13s.4.23.4.23l-1.43-.15c-.46,0,.34-.16.34-.16l-2.4-.25c.06,0,.5.33.22.3a3.21,3.21,0,0,0-1,.19,6.56,6.56,0,0,1-1,.2c.32-.23.66-.44,1-.64-.06,0-.87.26-1.2.32s-1.25.27-1.33.29l.49.05a4.6,4.6,0,0,1-1,.27,1.32,1.32,0,0,0-1.08.57,1.77,1.77,0,0,0,.42.59A20.05,20.05,0,0,0,13,14.33c.37.25.72.48,1.06.74a7,7,0,0,1,1.14,1c.13-.06.28,0,.37.15s.22.24.37.22l.1,0c.14,0,.15.23.27.31s.32-.07.38-.23.06-.34.2-.45l.18-.08c.27-.14.33-.48.43-.76a1.59,1.59,0,0,1,.15-.29c.23-.36.59-.48.95-.76a7.8,7.8,0,0,0,1.06-1.09,14.35,14.35,0,0,0,.91-1.15C20.41,11.59,20.41,11.63,19.87,11.47Zm-8,1.4c-.18,0,.43-.16.43-.16a.43.43,0,0,1-.42.16Zm.19-.69s.32-.21.45-.18l.36,0a1.26,1.26,0,0,1-.81.14Zm2.18,2.09c-.21-.06.25-.15.35-.11s-.1.19-.34.11ZM15.52,12s-.94.17-.75.19l.34,0c-.06,0-1,.1-1.08.09a4.53,4.53,0,0,1,.6-.26s-.06-.09-.05-.12.22-.07.22-.07a.72.72,0,0,1,.54,0,1,1,0,0,0,.45.13Zm.19,1.91c-.23-.26.5.06.5.06s-.34.12-.5,0Zm.68-2.46c.37-.2.43.05.43.05s-.55,0-.43,0Zm1.1,1.05-.25-.17a1,1,0,0,1,.37-.09.83.83,0,0,1,.48.18c.09.07-.51.13-.6.07Zm.56,1.23s-.43-.06-.47,0l.48-.12Zm.84-1.64s.31,0,.43.14-.44-.14-.44-.14Z"/></g></svg>