<svg width="31" height="31" viewBox="0 0 31 31" fill="none" xmlns="http://www.w3.org/2000/svg">
<path d="M30.2979 28.1226C30.4407 28.2654 30.554 28.435 30.6313 28.6216C30.7086 28.8082 30.7484 29.0082 30.7484 29.2102C30.7484 29.4122 30.7086 29.6122 30.6313 29.7989C30.554 29.9855 30.4407 30.1551 30.2979 30.2979C30.1551 30.4407 29.9855 30.554 29.7989 30.6313C29.6122 30.7086 29.4122 30.7484 29.2102 30.7484C29.0082 30.7484 28.8082 30.7086 28.6216 30.6313C28.435 30.554 28.2654 30.4407 28.1226 30.2979L15.3742 17.5476L2.62585 30.2979C2.33739 30.5864 1.94614 30.7484 1.53819 30.7484C1.13024 30.7484 0.738992 30.5864 0.450525 30.2979C0.162059 30.0094 8.04173e-09 29.6182 0 29.2102C-8.04173e-09 28.8023 0.162059 28.411 0.450525 28.1226L13.2008 15.3742L0.450525 2.62585C0.162059 2.33739 0 1.94614 0 1.53819C0 1.13024 0.162059 0.738992 0.450525 0.450525C0.738992 0.162059 1.13024 0 1.53819 0C1.94614 0 2.33739 0.162059 2.62585 0.450525L15.3742 13.2008L28.1226 0.450525C28.411 0.162059 28.8023 -8.04173e-09 29.2102 0C29.6182 8.04173e-09 30.0094 0.162059 30.2979 0.450525C30.5864 0.738992 30.7484 1.13024 30.7484 1.53819C30.7484 1.94614 30.5864 2.33739 30.2979 2.62585L17.5476 15.3742L30.2979 28.1226Z" fill="white"/>
</svg>
