<svg width="24" height="25" viewBox="0 0 24 25" fill="none" xmlns="http://www.w3.org/2000/svg">
<path d="M0 1.80511C0.0081569 1.34219 0.199425 0.901377 0.531918 0.579193C0.864411 0.257008 1.31103 0.0797136 1.77397 0.086135H22.2236C22.6869 0.0791793 23.134 0.256237 23.467 0.578478C23.7999 0.90072 23.9914 1.34184 23.9996 1.80511V22.3668C23.9922 22.8299 23.8012 23.2712 23.4685 23.5936C23.1359 23.9159 22.6888 24.0929 22.2256 24.0857H1.77397C1.31088 24.0929 0.863883 23.916 0.53123 23.5937C0.198577 23.2715 0.00749929 22.8303 0 22.3673L0 1.80511Z" fill="#3C5A9A"/>
<path d="M15.8154 3.58594H13.1569C11.5794 3.58594 9.82497 4.24943 9.82497 6.53589C9.83247 7.33287 9.82497 8.09586 9.82497 8.95435H8V11.8583H9.88147V20.2187H13.3389V11.8033H15.6209L15.8274 8.94635H13.2774C13.2774 8.94635 13.2829 7.67537 13.2774 7.30637C13.2774 6.40289 14.2179 6.45639 14.2744 6.45639H15.8154V3.58594Z" fill="white"/>
</svg>
