<svg width="24" height="25" viewBox="0 0 24 25" fill="none" xmlns="http://www.w3.org/2000/svg">
<path d="M6.086 24.0009C5.15764 23.9905 4.23801 23.8202 3.3675 23.4974C2.73178 23.2624 2.1566 22.8883 1.684 22.4024C1.19733 21.9309 0.823071 21.3559 0.589 20.7199C0.26623 19.8494 0.095904 18.9298 0.0855 18.0014C0.0145 16.4589 0 15.9959 0 12.0859C0 8.17594 0.0155 7.71594 0.085 6.17194C0.0963057 5.24366 0.266604 4.32419 0.5885 3.45344C0.823956 2.81777 1.19801 2.24252 1.6835 1.76944C2.15543 1.28279 2.73081 0.908545 3.367 0.674438C4.23735 0.351724 5.1568 0.181399 6.085 0.170938C7.6285 0.100437 8.0925 0.0859375 12 0.0859375C15.9075 0.0859375 16.3705 0.101438 17.915 0.170938C18.8433 0.182243 19.7627 0.352541 20.6335 0.674438C21.2695 0.908898 21.8448 1.28309 22.317 1.76944C22.8033 2.24169 23.1774 2.81697 23.412 3.45294C23.7345 4.32332 23.9047 5.24277 23.915 6.17094C23.9855 7.71544 24 8.17744 24 12.0859C24 15.9944 23.9855 16.4569 23.915 18.0014C23.9039 18.9297 23.7336 19.8492 23.4115 20.7199C23.1679 21.3512 22.7948 21.9245 22.3163 22.4028C21.8377 22.8812 21.2643 23.2541 20.633 23.4974C19.7626 23.8202 18.8432 23.9905 17.915 24.0009C16.372 24.0714 15.9085 24.0859 12 24.0859C8.0915 24.0859 7.629 24.0724 6.086 24.0009Z" fill="url(#paint0_radial_124_4323)"/>
<path d="M6.086 24.0009C5.15764 23.9905 4.23801 23.8202 3.3675 23.4974C2.73178 23.2624 2.1566 22.8883 1.684 22.4024C1.19733 21.9309 0.823071 21.3559 0.589 20.7199C0.26623 19.8494 0.095904 18.9298 0.0855 18.0014C0.0145 16.4589 0 15.9959 0 12.0859C0 8.17594 0.0155 7.71594 0.085 6.17194C0.0963057 5.24366 0.266604 4.32419 0.5885 3.45344C0.823956 2.81777 1.19801 2.24252 1.6835 1.76944C2.15543 1.28279 2.73081 0.908545 3.367 0.674438C4.23735 0.351724 5.1568 0.181399 6.085 0.170938C7.6285 0.100437 8.0925 0.0859375 12 0.0859375C15.9075 0.0859375 16.3705 0.101438 17.915 0.170938C18.8433 0.182243 19.7627 0.352541 20.6335 0.674438C21.2695 0.908898 21.8448 1.28309 22.317 1.76944C22.8033 2.24169 23.1774 2.81697 23.412 3.45294C23.7345 4.32332 23.9047 5.24277 23.915 6.17094C23.9855 7.71544 24 8.17744 24 12.0859C24 15.9944 23.9855 16.4569 23.915 18.0014C23.9039 18.9297 23.7336 19.8492 23.4115 20.7199C23.1679 21.3512 22.7948 21.9245 22.3163 22.4028C21.8377 22.8812 21.2643 23.2541 20.633 23.4974C19.7626 23.8202 18.8432 23.9905 17.915 24.0009C16.372 24.0714 15.9085 24.0859 12 24.0859C8.0915 24.0859 7.629 24.0724 6.086 24.0009Z" fill="url(#paint1_radial_124_4323)"/>
<path d="M9.05388 12.1426C9.05398 11.5548 9.22837 10.9802 9.55502 10.4915C9.88167 10.0028 10.3459 9.62196 10.889 9.39711C11.4321 9.17226 12.0297 9.1135 12.6062 9.22827C13.1827 9.34304 13.7122 9.62619 14.1277 10.0419C14.5433 10.4576 14.8263 10.9872 14.9409 11.5638C15.0554 12.1403 14.9965 12.7378 14.7715 13.2809C14.5464 13.8239 14.1654 14.288 13.6766 14.6145C13.1878 14.941 12.6132 15.1152 12.0254 15.1151C11.6351 15.115 11.2486 15.0381 10.8881 14.8886C10.5275 14.7392 10.1999 14.5203 9.924 14.2442C9.64807 13.9682 9.4292 13.6405 9.27991 13.2799C9.13061 12.9193 9.05381 12.5329 9.05388 12.1426ZM7.44687 12.1426C7.44687 13.0481 7.7154 13.9333 8.21849 14.6862C8.72158 15.4392 9.43664 16.026 10.2733 16.3725C11.1099 16.7191 12.0305 16.8097 12.9186 16.6331C13.8067 16.4564 14.6225 16.0204 15.2629 15.3801C15.9032 14.7397 16.3392 13.9239 16.5159 13.0358C16.6926 12.1476 16.6019 11.2271 16.2554 10.3905C15.9088 9.55385 15.322 8.83877 14.569 8.33568C13.8161 7.83259 12.9309 7.56407 12.0254 7.56407C11.4241 7.56401 10.8287 7.68238 10.2732 7.91245C9.71766 8.14251 9.2129 8.47977 8.78773 8.90494C8.36257 9.3301 8.02533 9.83486 7.79526 10.3904C7.56519 10.9459 7.4468 11.5413 7.44687 12.1426ZM15.7149 7.38257C15.7148 7.59419 15.7774 7.8011 15.8949 7.97711C16.0124 8.15313 16.1795 8.29035 16.3749 8.37143C16.5704 8.45251 16.7856 8.47379 16.9931 8.4326C17.2007 8.39141 17.3914 8.2896 17.5411 8.14003C17.6908 7.99046 17.7928 7.79984 17.8342 7.5923C17.8756 7.38476 17.8545 7.16961 17.7736 6.97406C17.6927 6.77851 17.5557 6.61132 17.3797 6.49367C17.2038 6.37601 16.997 6.31316 16.7854 6.31306C16.5017 6.3132 16.2297 6.42591 16.0291 6.62643C15.8285 6.82696 15.7156 7.09891 15.7154 7.38257M8.42337 19.4001C7.85787 19.3937 7.29769 19.29 6.76736 19.0936C6.3827 18.9454 6.03335 18.7183 5.74184 18.4269C5.45032 18.1355 5.22312 17.7862 5.07487 17.4016C4.8784 16.8714 4.77472 16.3114 4.76837 15.7461C4.72537 14.8061 4.71837 14.5241 4.71837 12.1431C4.71837 9.76207 4.72787 9.48057 4.76837 8.54007C4.77546 7.9748 4.87912 7.4149 5.07487 6.88457C5.22306 6.49985 5.45024 6.15047 5.74176 5.85895C6.03328 5.56743 6.38265 5.34025 6.76736 5.19206C7.29766 4.99554 7.85786 4.89186 8.42337 4.88557C9.36337 4.84257 9.64538 4.83557 12.0234 4.83557C14.4014 4.83557 14.6859 4.84457 15.6264 4.88557C16.1916 4.89266 16.7515 4.99631 17.2819 5.19206C17.6666 5.34025 18.016 5.56743 18.3075 5.85895C18.599 6.15047 18.8262 6.49985 18.9744 6.88457C19.1709 7.41486 19.2746 7.97507 19.2809 8.54057C19.3239 9.48107 19.3309 9.76257 19.3309 12.1436C19.3309 14.5246 19.3224 14.8061 19.2809 15.7466C19.2741 16.3119 19.1704 16.8718 18.9744 17.4021C18.8261 17.7867 18.5989 18.136 18.3074 18.4274C18.0159 18.7188 17.6665 18.9459 17.2819 19.0941C16.7517 19.2905 16.1917 19.3942 15.6264 19.4006C14.6864 19.4436 14.4044 19.4506 12.0234 19.4506C9.64238 19.4506 9.36087 19.4421 8.42337 19.4006M8.34937 3.28056C7.60981 3.29514 6.8781 3.43513 6.18538 3.69456C5.59297 3.9236 5.05495 4.27391 4.60583 4.72302C4.15672 5.17214 3.80641 5.71015 3.57738 6.30257C3.31799 6.9953 3.178 7.72701 3.16338 8.46657C3.11938 9.41657 3.10938 9.72106 3.10938 12.1426C3.10938 14.5641 3.11938 14.8681 3.16338 15.8186C3.178 16.5581 3.31799 17.2898 3.57738 17.9826C3.8063 18.5749 4.15645 19.1128 4.60539 19.562C5.05433 20.0111 5.59214 20.3614 6.18437 20.5906C6.87712 20.8499 7.60883 20.9899 8.34837 21.0046C9.29837 21.0476 9.60287 21.0586 12.0244 21.0586C14.4459 21.0586 14.7499 21.0486 15.7004 21.0046C16.4399 20.9899 17.1716 20.85 17.8644 20.5906C18.4568 20.3615 18.9948 20.0112 19.4439 19.5621C19.893 19.113 20.2433 18.575 20.4724 17.9826C20.7321 17.2899 20.8721 16.5582 20.8864 15.8186C20.9294 14.8686 20.9399 14.5641 20.9399 12.1426C20.9399 9.72106 20.9299 9.41707 20.8864 8.46657C20.8718 7.72701 20.7318 6.99528 20.4724 6.30257C20.2434 5.7103 19.8932 5.17238 19.4443 4.72328C18.9953 4.27418 18.4576 3.9238 17.8654 3.69456C17.1727 3.43497 16.4409 3.29498 15.7014 3.28056C14.7514 3.23706 14.4469 3.22656 12.0259 3.22656C9.60488 3.22656 9.30037 3.23656 8.34937 3.28056Z" fill="white"/>
<defs>
<radialGradient id="paint0_radial_124_4323" cx="0" cy="0" r="1" gradientUnits="userSpaceOnUse" gradientTransform="translate(1.56 23.5579) scale(30.48)">
<stop offset="0.09" stop-color="#FA8F21"/>
<stop offset="0.78" stop-color="#D82D7E"/>
</radialGradient>
<radialGradient id="paint1_radial_124_4323" cx="0" cy="0" r="1" gradientUnits="userSpaceOnUse" gradientTransform="translate(16.632 22.7899) scale(26.808)">
<stop offset="0.64" stop-color="#8C3AAA" stop-opacity="0"/>
<stop offset="1" stop-color="#8C3AAA"/>
</radialGradient>
</defs>
</svg>
