<svg width="24" height="25" viewBox="0 0 24 25" fill="none" xmlns="http://www.w3.org/2000/svg">
<path d="M0 1.80511C0.0081569 1.34219 0.199425 0.901377 0.531918 0.579193C0.864411 0.257008 1.31103 0.0797136 1.77397 0.086135H22.2236C22.6869 0.0791793 23.134 0.256237 23.467 0.578478C23.7999 0.90072 23.9914 1.34184 23.9996 1.80511V22.3668C23.9922 22.8299 23.8012 23.2712 23.4685 23.5936C23.1359 23.9159 22.6888 24.0929 22.2256 24.0857H1.77397C1.31088 24.0929 0.863883 23.916 0.53123 23.5937C0.198577 23.2715 0.00749929 22.8303 0 22.3673L0 1.80511Z" fill="#006699"/>
<path d="M7.28912 20.1662V9.36136H3.69768V20.1662H7.28962H7.28912ZM5.49415 7.88888C5.75144 7.91069 6.01046 7.87904 6.25493 7.79594C6.4994 7.71284 6.72405 7.58007 6.91474 7.40598C7.10544 7.23189 7.25807 7.02024 7.36304 6.78433C7.46801 6.54842 7.52306 6.29334 7.52472 6.03514C7.52638 5.77693 7.47462 5.52117 7.37269 5.28393C7.27076 5.04669 7.12086 4.8331 6.93242 4.65657C6.74397 4.48004 6.52106 4.3444 6.27767 4.25816C6.03429 4.17192 5.7757 4.13695 5.51815 4.15544C5.26165 4.13319 5.00332 4.16408 4.7593 4.2462C4.51528 4.32831 4.29083 4.45989 4.09997 4.63268C3.9091 4.80548 3.75594 5.01579 3.65004 5.25047C3.54415 5.48515 3.4878 5.73915 3.48453 5.99659C3.48125 6.25403 3.53112 6.50939 3.63101 6.74668C3.7309 6.98398 3.87866 7.19812 4.06507 7.37572C4.25147 7.55332 4.47251 7.69055 4.71436 7.77885C4.95621 7.86714 5.21367 7.9046 5.47065 7.88888H5.49415ZM9.27709 20.1687H12.868V14.1328C12.8543 13.836 12.8944 13.5392 12.9865 13.2568C13.1209 12.8746 13.3701 12.5433 13.7 12.3082C14.0299 12.0731 14.4244 11.9456 14.8295 11.9433C16.1295 11.9433 16.6485 12.9338 16.6485 14.3868V20.1662H20.2394V13.9708C20.2394 10.6523 18.4679 9.10786 16.105 9.10786C15.4466 9.08161 14.7938 9.23765 14.2185 9.55878C13.6432 9.87992 13.1677 10.3537 12.8445 10.9278H12.8685V9.36186H9.27709C9.32409 10.3753 9.27709 20.1667 9.27709 20.1667V20.1687Z" fill="white"/>
</svg>
