<svg width="10" height="12" viewBox="0 0 10 12" fill="none" xmlns="http://www.w3.org/2000/svg">
<path d="M4.71977 0C3.4682 0.000636039 2.26808 0.4981 1.38309 1.38309C0.4981 2.26808 0.000636039 3.4682 0 4.71977C0 8.13012 4.45992 11.9101 4.47013 11.9299C4.54369 11.9757 4.62861 12 4.71527 12C4.80192 12 4.88684 11.9757 4.9604 11.9299H4.97061C4.97061 11.9299 9.44073 8.13012 9.44073 4.71977C9.4401 3.46799 8.94247 2.26769 8.05722 1.38267C7.17197 0.497641 5.97154 0.000317991 4.71977 0ZM4.71977 6.41024C4.37266 6.40905 4.03369 6.30498 3.74573 6.11117C3.45776 5.91736 3.23372 5.64253 3.10193 5.32141C2.97014 5.00029 2.93651 4.64731 3.00531 4.30708C3.0741 3.96686 3.24222 3.65467 3.48842 3.40998C3.73462 3.16529 4.04784 2.99909 4.38848 2.93239C4.72912 2.86569 5.08189 2.90149 5.4022 3.03525C5.7225 3.16901 5.99595 3.39474 6.18798 3.68389C6.38001 3.97305 6.482 4.31265 6.48105 4.65976C6.4817 4.89072 6.4365 5.11953 6.34808 5.3329C6.25966 5.54628 6.12978 5.73998 5.96596 5.9028C5.80213 6.06562 5.60763 6.19431 5.39372 6.28141C5.1798 6.36852 4.95073 6.41231 4.71977 6.41024Z" fill="#4285F4"/>
</svg>
