<svg id="Layer_1" data-name="Layer 1" xmlns="http://www.w3.org/2000/svg" viewBox="0 0 200 75"><defs><style>.cls-1{fill:#4285f4;}.cls-2{fill:#ea4335;}.cls-3{fill:#b8a80f;}.cls-4{fill:#7d7d7d;}.cls-5{fill:#353535;}</style></defs><path id="Path_149" data-name="Path 149" class="cls-1" d="M33.53,32.65l0,.22a3.48,3.48,0,0,1-1.59,2.7,3.54,3.54,0,0,1-3.17-.12l-.27-.12-.11-.28c-.28-.73-.58-1.4-.88-2a4.06,4.06,0,0,0-7.35.12s0,0,0,0c-3.64,9-5.55,18.85-7,27.43a1,1,0,0,1-.93.78H12a1,1,0,0,1-.76-1.06c.89-10.36,1.87-19.66,5-28.71.82-2.2,1.92-5.21,4.36-7.17l.09-.06a6,6,0,0,1,5-.71c2.81.85,5.44,3.8,7.82,8.77Z"/><path id="Path_150" data-name="Path 150" class="cls-2" d="M22.89,19.6a4.3,4.3,0,1,1,4.3-4.3h0A4.3,4.3,0,0,1,22.89,19.6Zm0-4.3h0"/><path id="Path_151" data-name="Path 151" class="cls-3" d="M17.7,12.72c-.16,0-.36.07-.36-.21s0-.36,0-.54a11.42,11.42,0,0,0,0-1.17.17.17,0,0,1,.23,0h0s.27,1.08.4,1.63c.06.24-.09.29-.26.3"/><path id="Path_152" data-name="Path 152" d="M24.13,7.2h0c-.09.09-.14.16-.2.21l-3.11,2.7a.7.7,0,0,1-.61.19c-.95-.13-1.9-.23-2.86-.35l-.43,0c.22.24.39.45.57.63a.58.58,0,0,0-.17.14,8.44,8.44,0,0,0-.72-.75l-.14-.15.47-.39,2.45-1.9a.81.81,0,0,1,.39-.17l4.12-.15a1,1,0,0,1,.24,0"/><path id="Path_153" data-name="Path 153" d="M21.14,11.29A1.76,1.76,0,0,0,19,11.7l-.53-1.51a8.47,8.47,0,0,1,1.31.2,1.34,1.34,0,0,0,1.51-.47c.42-.43.87-.83,1.33-1.22l.54,1.54a1.55,1.55,0,0,0-1.95,1s0,0,0,.08"/><path id="Path_154" data-name="Path 154" class="cls-4" d="M33.24,32.65l0,.22a3.44,3.44,0,0,0,1.58,2.7A3.54,3.54,0,0,0,38,35.45l.27-.12.11-.28c.29-.73.58-1.4.89-2a4.07,4.07,0,0,1,7.35.12.05.05,0,0,0,0,0c3.64,9,5.54,18.85,7,27.43a.94.94,0,0,0,.93.78h.18a1,1,0,0,0,.75-1.06c-.88-10.36-1.87-19.66-5-28.71-.81-2.2-1.91-5.21-4.36-7.17l-.08-.06a6.05,6.05,0,0,0-5-.71c-2.8.85-5.43,3.8-7.82,8.77Z"/><path id="Path_155" data-name="Path 155" class="cls-2" d="M43.88,19.6a4.3,4.3,0,1,1,4.3-4.3h0a4.3,4.3,0,0,1-4.3,4.3m0-4.3h0"/><path id="Path_156" data-name="Path 156" class="cls-5" d="M39.56,36.52H36.8v-1.1a.62.62,0,0,0-.61-.63H33.27a.63.63,0,0,0-.61.63v1.1H29.91a.35.35,0,0,0-.35.34v6.22a.35.35,0,0,0,.34.35h9.66a.35.35,0,0,0,.35-.34h0V36.87a.35.35,0,0,0-.35-.35m-6.21-1h2.76v1H33.35Z"/><path id="Path_157" data-name="Path 157" class="cls-1" d="M78.48,41.78V60.72H73.27V58.47a7.32,7.32,0,0,1-2.6,1.88,8.22,8.22,0,0,1-3.28.66,8.11,8.11,0,0,1-5.91-2.15c-1.46-1.43-2.19-3.56-2.19-6.37V41.79h5.5v9.89c0,3,1.28,4.57,3.83,4.58A4.19,4.19,0,0,0,71.79,55,5.45,5.45,0,0,0,73,51.15V41.78Z"/><path id="Path_158" data-name="Path 158" class="cls-1" d="M103.12,41.78V57.56c0,3.47-.91,6-2.71,7.74S96,67.83,92.49,67.83a19.9,19.9,0,0,1-5.21-.66,11.51,11.51,0,0,1-4.09-1.94l2.19-3.94a8.87,8.87,0,0,0,3,1.56,12,12,0,0,0,3.67.58,5.9,5.9,0,0,0,4.2-1.28,5.12,5.12,0,0,0,1.36-3.89v-.81a7.7,7.7,0,0,1-6,2.36,10,10,0,0,1-4.77-1.15,8.71,8.71,0,0,1-3.43-3.22,9.67,9.67,0,0,1,0-9.57,8.78,8.78,0,0,1,3.43-3.22,10,10,0,0,1,4.77-1.15,7.53,7.53,0,0,1,6.27,2.71V41.78ZM96.31,54a4.77,4.77,0,0,0,0-6.73,5.66,5.66,0,0,0-7.17,0,4.72,4.72,0,0,0,0,6.68l0,.05a5.66,5.66,0,0,0,7.17,0"/><path id="Path_159" data-name="Path 159" class="cls-1" d="M127.44,41.78V60.72h-5.25V58.54A7.23,7.23,0,0,1,116.28,61a10,10,0,0,1-4.84-1.2,8.54,8.54,0,0,1-3.4-3.42,11.35,11.35,0,0,1,0-10.28,8.52,8.52,0,0,1,3.4-3.41,9.74,9.74,0,0,1,4.84-1.2A7.18,7.18,0,0,1,122,43.79v-2Zm-6.76,13.29a6,6,0,0,0,0-7.64,4.93,4.93,0,0,0-6.93,0,5.28,5.28,0,0,0-1.37,3.82,5.22,5.22,0,0,0,1.37,3.82,4.93,4.93,0,0,0,6.93,0"/><path id="Path_160" data-name="Path 160" class="cls-1" d="M151.73,41.78V60.72h-5.24V58.54A7.25,7.25,0,0,1,140.57,61a10,10,0,0,1-4.84-1.2,8.67,8.67,0,0,1-3.4-3.42,11.35,11.35,0,0,1,0-10.28,8.64,8.64,0,0,1,3.4-3.41,9.76,9.76,0,0,1,4.84-1.2,7.17,7.17,0,0,1,5.67,2.29v-2ZM145,55.07a6,6,0,0,0,0-7.64,4.93,4.93,0,0,0-6.93,0,5.28,5.28,0,0,0-1.37,3.82A5.22,5.22,0,0,0,138,55.07a4.93,4.93,0,0,0,6.93,0"/><path id="Path_161" data-name="Path 161" class="cls-1" d="M186.71,43.6c1.39,1.39,2.09,3.49,2.1,6.28V60.72h-5.5v-10a5.17,5.17,0,0,0-.93-3.36,3.29,3.29,0,0,0-2.66-1.11,3.94,3.94,0,0,0-3.06,1.25,5.42,5.42,0,0,0-1.13,3.72v9.5H170v-10c0-3-1.19-4.48-3.59-4.48a3.91,3.91,0,0,0-3,1.25,5.41,5.41,0,0,0-1.12,3.72v9.5h-5.49V41.78h5.24V44a7,7,0,0,1,2.59-1.84A8.79,8.79,0,0,1,168,41.5a8.17,8.17,0,0,1,3.63.79,6.52,6.52,0,0,1,2.6,2.31,7.68,7.68,0,0,1,2.94-2.29,9.3,9.3,0,0,1,3.89-.81,7.64,7.64,0,0,1,5.65,2.1"/></svg>