<svg width="56" height="46" viewBox="0 0 56 46" fill="none" xmlns="http://www.w3.org/2000/svg">
<g filter="url(#filter0_f_239_958)">
<path d="M30.0398 29.8046C42.6452 29.3644 52.8758 29.433 52.894 29.9564C52.9123 30.4797 46.768 33.2029 34.1637 33.6431C21.5594 34.0832 7.27028 32.0773 7.25188 31.5502C7.23347 31.0232 17.4366 30.2447 30.0398 29.8046Z" fill="black"/>
</g>
<path d="M8.14728 33.8912L9.4947 34.1602C9.27206 34.1598 9.05001 34.1374 8.8318 34.0932L7.48438 33.8242C7.70272 33.8675 7.92468 33.8899 8.14728 33.8912Z" fill="#760706"/>
<path d="M8.08795 35.6934L9.43538 35.9624C9.10549 35.9618 8.77645 35.9291 8.45289 35.8648L7.10547 35.5938C7.42898 35.6585 7.75802 35.6923 8.08795 35.6934Z" fill="#858585"/>
<path d="M22.9491 1.86206L24.2965 2.13101C24.084 2.08949 23.8681 2.06777 23.6516 2.06615C23.018 2.06622 22.397 2.2432 21.8585 2.57717C21.7077 2.66711 21.564 2.76848 21.4287 2.8804L20.0781 2.60986C20.2139 2.49853 20.3575 2.39719 20.5079 2.30663C21.2355 1.85324 22.1085 1.69426 22.9491 1.86206Z" fill="#858585"/>
<path d="M20.0768 2.60938L21.4242 2.87833C21.3087 2.9759 21.1985 3.07873 21.0935 3.18526L19.7461 2.9163C19.8501 2.8075 19.9605 2.70501 20.0768 2.60938Z" fill="#8A8A8A"/>
<path d="M19.7476 2.91797L21.095 3.18693C21.0101 3.27711 20.9273 3.37098 20.8492 3.46854L19.5039 3.198C19.5814 3.10044 19.6621 3.00657 19.7497 2.91797" fill="#8F8F8F"/>
<path d="M19.5037 3.19922L20.8511 3.46818C20.7808 3.55502 20.7158 3.64291 20.656 3.73186L19.3086 3.4629C19.3701 3.37079 19.4352 3.28289 19.5037 3.19922Z" fill="#949494"/>
<path d="M19.3079 3.46094L20.6553 3.72989C20.6026 3.81111 20.5499 3.89443 20.4998 3.97934L19.1523 3.71038C19.2009 3.62548 19.2536 3.54268 19.3079 3.46094Z" fill="#999999"/>
<path d="M22.9453 1.86328L24.2927 2.13224C24.3776 2.15017 24.4625 2.17021 24.5475 2.19341L23.2 1.92446C23.1151 1.90072 23.0302 1.8791 22.9453 1.86328Z" fill="#880807"/>
<path d="M23.2031 1.92578L24.5505 2.19474C24.637 2.22005 24.7241 2.24748 24.809 2.27964L23.4615 2.01069C23.3766 1.97799 23.2901 1.95109 23.2031 1.92578Z" fill="#8C0907"/>
<path d="M23.4609 2.00781L24.8084 2.27677C24.8917 2.30947 24.9729 2.34164 25.0541 2.38224L23.7067 2.11329C23.6255 2.07532 23.5443 2.04104 23.4609 2.00781Z" fill="#910907"/>
<path d="M23.707 2.10938L25.0545 2.38044C25.1341 2.4163 25.2127 2.45796 25.2912 2.50121L23.9438 2.23172C23.8663 2.18848 23.7856 2.1484 23.707 2.11096" fill="#950907"/>
<path d="M23.9453 2.231L25.2927 2.49995C25.3724 2.54689 25.4509 2.59224 25.5237 2.64445L24.1763 2.37339C24.1025 2.32065 24.0244 2.27582 23.9453 2.23047" fill="#9A0A07"/>
<path d="M24.1719 2.375L25.5193 2.64396C25.5989 2.69669 25.6749 2.75418 25.7503 2.81377L24.4029 2.54481C24.3269 2.48522 24.251 2.42721 24.1719 2.375Z" fill="#9E0A08"/>
<path d="M24.4062 2.54297L25.7537 2.81193C25.8349 2.87679 25.9119 2.94535 25.9884 3.0176L24.6425 2.7497C24.5666 2.67745 24.489 2.60889 24.4078 2.54402" fill="#A30A08"/>
<path d="M24.6367 2.7482L25.9841 3.01716C26.0706 3.10048 26.1518 3.18855 26.2315 3.28084L24.8841 3.00978C24.8044 2.91749 24.7258 2.831 24.6367 2.74609" fill="#A70A08"/>
<path d="M24.8867 3.01172L26.2341 3.28068C26.336 3.40092 26.4301 3.52757 26.5158 3.65985L25.1683 3.3909C25.0836 3.258 24.9894 3.13129 24.8867 3.01172Z" fill="#AC0B08"/>
<path d="M25.1641 3.39062L26.5115 3.65958C26.5883 3.77883 26.6587 3.90205 26.7224 4.02874L25.3734 3.75978C25.3118 3.63257 25.2424 3.50929 25.1656 3.39062" fill="#B00B09"/>
<path d="M25.3207 1.0042C25.3376 1.01585 25.3539 1.02853 25.3692 1.04217C25.6635 1.26887 25.9318 1.52745 26.1692 1.81318C26.1893 1.83691 26.2072 1.86592 26.2251 1.88912C26.4684 2.18696 26.6784 2.51038 26.8517 2.85368L28.1991 3.12263C28.1073 2.94169 28.006 2.76566 27.8958 2.59527C27.7962 2.44527 27.6888 2.30058 27.5742 2.16177C27.5541 2.13646 27.5383 2.10903 27.5161 2.08425C27.5051 2.07159 27.4982 2.05735 27.4871 2.04628C27.3744 1.91225 27.2546 1.78443 27.128 1.66341C27.0178 1.55794 26.9039 1.45774 26.7868 1.36386L26.7161 1.31113L26.6676 1.27685C26.5969 1.22411 26.5247 1.16663 26.4509 1.11864C26.3406 1.0427 26.2267 0.97414 26.1112 0.907692C25.9957 0.841244 25.8839 0.784815 25.7663 0.730497L25.7358 0.71784L25.7089 0.705183C25.6097 0.661939 25.5085 0.618695 25.4072 0.580724C25.2849 0.534844 25.1583 0.490545 25.0317 0.456793C24.9051 0.423042 24.7844 0.391927 24.6589 0.366613L23.3125 0.0976562C23.6737 0.170933 24.0257 0.284133 24.362 0.435171L24.3889 0.446246C24.7188 0.5978 25.0313 0.784891 25.3207 1.0042Z" fill="#ECF1F8"/>
<path d="M34.4617 34.0169L35.8091 34.2858L9.49195 34.1635L8.14453 33.8945L34.4617 34.0169Z" fill="#710706"/>
<path d="M37.0553 32.8945L38.4027 33.1635L38.3759 33.1925C38.2814 33.2886 38.1819 33.3796 38.0779 33.4651L36.7305 33.1941C36.8345 33.1085 36.934 33.0175 37.0284 32.9214L37.0553 32.8945Z" fill="#7A0806"/>
<path d="M36.7286 33.1992L38.076 33.4682C37.4405 34.0001 36.6371 34.2898 35.8084 34.2861L34.4609 34.0172C35.2895 34.0197 36.0924 33.7301 36.7286 33.1992Z" fill="#760706"/>
<path d="M37.7539 28.2578L39.0992 28.5268C39.3091 28.9325 39.4427 29.3733 39.4932 29.8273L38.1442 29.5562C38.0932 29.1035 37.961 28.6636 37.7539 28.2578Z" fill="#B00B09"/>
<path d="M38.1406 29.5586L39.488 29.8276C39.5083 30.0038 39.5186 30.1812 39.5186 30.3586L38.1712 30.0875C38.171 29.9113 38.1608 29.7352 38.1406 29.5602" fill="#AC0B08"/>
<path d="M38.1726 30.0865L39.52 30.3554C39.52 30.4008 39.52 30.4456 39.52 30.491C39.5163 30.5759 39.5111 30.6587 39.5037 30.742L38.1562 30.4709C38.1636 30.3879 38.1691 30.3048 38.1726 30.2215C38.1726 30.1761 38.1726 30.1318 38.1726 30.0865Z" fill="#A70A08"/>
<path d="M38.1726 30.0865L39.52 30.3554C39.52 30.4008 39.52 30.4456 39.52 30.491C39.5163 30.5759 39.5111 30.6587 39.5037 30.742L38.1562 30.4709C38.1636 30.3879 38.1691 30.3048 38.1726 30.2215C38.1726 30.1761 38.1726 30.1318 38.1726 30.0865Z" fill="#A70A08"/>
<path d="M38.1526 30.4727L39.5 30.7416C39.489 30.8497 39.4747 30.9568 39.4568 31.0633L38.1094 30.7922C38.1273 30.6868 38.1421 30.5813 38.1526 30.4727Z" fill="#A30A08"/>
<path d="M38.112 30.7935L39.4594 31.0625C39.443 31.1616 39.4214 31.2576 39.3982 31.3551L38.0508 31.0835C38.0745 30.9881 38.094 30.8911 38.112 30.7935Z" fill="#9E0A08"/>
<path d="M38.0523 31.0859L39.3997 31.3549C39.376 31.4472 39.3512 31.5389 39.3201 31.6297L37.9727 31.3586C38.0032 31.2684 38.0286 31.1782 38.0523 31.0859Z" fill="#9A0A07"/>
<path d="M37.971 31.3571L39.3184 31.626C39.2894 31.7146 39.2572 31.8032 39.223 31.8897L37.875 31.6192C37.9093 31.5327 37.942 31.4456 37.971 31.3555" fill="#950907"/>
<path d="M37.8756 31.6211L39.2231 31.8901C39.1888 31.9765 39.1508 32.0636 39.1091 32.1464L37.7617 31.8774C37.8034 31.7925 37.8414 31.7076 37.8756 31.6211Z" fill="#910907"/>
<path d="M37.7623 31.875L39.1098 32.144C39.0681 32.2304 39.0233 32.3154 38.9763 32.3987L37.6289 32.1276C37.6758 32.0443 37.7212 31.9615 37.7623 31.875Z" fill="#8C0907"/>
<path d="M37.627 32.1289L38.9744 32.3979C38.9216 32.4844 38.8689 32.5693 38.8162 32.6526L37.4688 32.3836C37.5247 32.3003 37.5769 32.2159 37.627 32.1289Z" fill="#880807"/>
<path d="M37.4665 32.3828L38.8139 32.6518C38.7527 32.7419 38.6894 32.829 38.6209 32.9155L37.2734 32.6465C37.342 32.5616 37.4053 32.4751 37.4665 32.3828Z" fill="#830806"/>
<path d="M37.2751 32.6445L38.6225 32.9135C38.5519 33.0021 38.4796 33.087 38.4021 33.1682L37.0547 32.8971C37.1322 32.8159 37.2045 32.731 37.2751 32.6445Z" fill="#7F0806"/>
<path d="M37.0553 32.8945L38.4027 33.1635L38.3759 33.1925C38.2814 33.2886 38.1819 33.3796 38.0779 33.4651L36.7305 33.1941C36.8345 33.1085 36.934 33.0175 37.0284 32.9214L37.0553 32.8945Z" fill="#7A0806"/>
<path d="M4.71094 30.6529L6.05836 30.9218C6.0726 31.0426 6.09264 31.1618 6.11795 31.281C6.21411 31.7447 6.39465 32.1867 6.65059 32.5851L5.30317 32.3141C5.04692 31.9158 4.86635 31.4737 4.77053 31.0099C4.74522 30.8923 4.72518 30.7721 4.71094 30.6529Z" fill="#C7C7C7"/>
<path d="M5.30469 32.3125L6.65211 32.5836C6.73822 32.7155 6.83226 32.8422 6.93372 32.9627L5.5863 32.6938C5.48482 32.5725 5.39078 32.4452 5.30469 32.3125Z" fill="#C2C2C2"/>
<path d="M5.58594 32.6914L6.93336 32.9604C7.01051 33.0526 7.09255 33.1406 7.17911 33.224L5.83275 32.9551C5.74625 32.8729 5.66421 32.7861 5.58699 32.6951" fill="#BDBDBD"/>
<path d="M5.83203 32.9531L7.17945 33.2221C7.25329 33.2943 7.33292 33.3629 7.41255 33.4278L6.06513 33.1588C5.9855 33.0939 5.90692 33.0254 5.83203 32.9531Z" fill="#B8B8B8"/>
<path d="M6.06641 33.1607L7.41383 33.4296C7.49874 33.4982 7.58522 33.5615 7.67751 33.6211L6.33009 33.35C6.23991 33.2904 6.15289 33.2277 6.06641 33.1607Z" fill="#B3B3B3"/>
<path d="M6.32812 33.3516L7.67555 33.6205L7.70086 33.6385C7.76204 33.678 7.82532 33.716 7.8886 33.7524L6.54118 33.4834C6.4779 33.4475 6.41461 33.4096 6.35344 33.3679L6.32812 33.3516Z" fill="#ADADAD"/>
<path d="M6.53906 33.4805L7.88649 33.7494C7.95715 33.789 8.02729 33.8254 8.09743 33.8596L6.75001 33.5886C6.67793 33.5561 6.60752 33.52 6.53906 33.4805Z" fill="#A8A8A8"/>
<path d="M6.75391 33.5898L8.10133 33.8588C8.17516 33.8947 8.25321 33.9258 8.33073 33.9548L6.98331 33.6858C6.90579 33.6568 6.82774 33.6246 6.75391 33.5898Z" fill="#A3A3A3"/>
<path d="M6.98047 33.6875L8.32789 33.9565C8.40911 33.987 8.49243 34.0145 8.57523 34.0377L7.2278 33.7687C7.14448 33.745 7.06168 33.716 6.98047 33.6875Z" fill="#9E9E9E"/>
<path d="M7.23047 33.7656L8.57789 34.0346C8.66122 34.0583 8.74401 34.0799 8.8305 34.0958L7.48308 33.8268C7.39659 33.8089 7.31327 33.7888 7.23047 33.7656Z" fill="#999999"/>
<path d="M19.1499 3.71094L20.4973 3.97989L6.58961 28.3627L5.24219 28.0938L19.1499 3.71094Z" fill="#A7A7A7"/>
<path d="M22.4599 13.9116L23.8073 14.1827C23.6385 14.148 23.4666 14.1304 23.2942 14.1299C22.6781 14.1294 22.0787 14.3306 21.5876 14.7026C21.557 14.7264 21.5264 14.7512 21.4953 14.7765L20.1484 14.5059L20.2407 14.4321C20.7322 14.0608 21.3313 13.8598 21.9473 13.8594C22.1196 13.8607 22.2914 13.8784 22.4604 13.9121" fill="#760706"/>
<path d="M20.149 14.5078L21.4964 14.7768C21.3995 14.8582 21.3068 14.9444 21.2185 15.0352L19.8711 14.7662C19.9593 14.6755 20.0521 14.5892 20.149 14.5078Z" fill="#7A0806"/>
<path d="M19.8682 14.7656L21.2156 15.0346C21.1433 15.1105 21.0748 15.188 21.0115 15.2677L19.6641 14.9987C19.7277 14.9173 19.7958 14.8395 19.8682 14.7656Z" fill="#7F0806"/>
<path d="M19.665 14.9961L21.0124 15.2651C20.9565 15.3357 20.9043 15.4059 20.8542 15.4802L19.5078 15.2113C19.5563 15.139 19.6091 15.0668 19.666 15.0003" fill="#830806"/>
<path d="M19.511 15.2109L20.8584 15.4799C20.813 15.5485 20.7698 15.6154 20.7302 15.6856L19.3828 15.4166C19.4224 15.3459 19.4661 15.2774 19.511 15.2109Z" fill="#880807"/>
<path d="M19.3823 15.418L20.7297 15.6869C20.6917 15.7539 20.6575 15.8188 20.6242 15.8873L19.2773 15.6168C19.31 15.5498 19.3438 15.4834 19.3823 15.418Z" fill="#8C0907"/>
<path d="M19.274 15.6133L20.6214 15.8822C20.5908 15.9471 20.5602 16.0141 20.5349 16.0789L19.1875 15.81C19.2128 15.743 19.2434 15.6781 19.274 15.6133Z" fill="#910907"/>
<path d="M19.1894 15.8125L20.5369 16.0815C20.51 16.1484 20.4841 16.2133 20.4646 16.2803L19.1172 16.0113C19.1388 15.9443 19.1625 15.8779 19.1894 15.8125Z" fill="#950907"/>
<path d="M19.1127 16.0117L20.4601 16.2807C20.4385 16.3492 20.4185 16.4162 20.4005 16.4848L19.0547 16.2158C19.0726 16.1473 19.0927 16.0787 19.1143 16.0117" fill="#9A0A07"/>
<path d="M19.0571 16.2109L20.4045 16.4799C20.3866 16.5521 20.3718 16.6228 20.3591 16.6951L19.0117 16.424C19.0244 16.3517 19.0386 16.2811 19.0571 16.213" fill="#9E0A08"/>
<path d="M19.0111 16.4297L20.3585 16.6986C20.3458 16.7762 20.3347 16.8521 20.3279 16.9296L18.9805 16.6607C18.9879 16.5832 18.9984 16.5051 19.0111 16.4297Z" fill="#A30A08"/>
<path d="M18.9814 16.6562L20.3288 16.9252C20.3201 17.0141 20.3159 17.1033 20.3162 17.1926L18.9688 16.9236C18.9684 16.8343 18.9727 16.7451 18.9814 16.6562Z" fill="#A70A08"/>
<path d="M18.9688 16.9258L20.3162 17.1968C20.3166 17.3116 20.3233 17.4262 20.3362 17.5402L18.9888 17.2691C18.9758 17.1551 18.9691 17.0405 18.9688 16.9258Z" fill="#AC0B08"/>
<path d="M18.9844 17.2656L20.3318 17.5346C20.3537 17.7206 20.3941 17.904 20.4526 18.082C21.1909 20.356 22.0399 22.5968 22.8436 24.8365L21.4962 24.5675C20.6925 22.3262 19.8456 20.0849 19.1051 17.813C19.0469 17.635 19.0064 17.4516 18.9844 17.2656Z" fill="#B00B09"/>
<path d="M21.6804 24.5867L23.0278 24.8556L22.8474 24.8393L21.5 24.5703L21.6804 24.5867Z" fill="#808080"/>
<path d="M21.8938 26.0147L23.2412 26.2858C23.1319 26.2634 23.0206 26.2519 22.909 26.2515C22.4753 26.2523 22.0558 26.4058 21.724 26.685L20.375 26.414C20.7071 26.1353 21.1264 25.9819 21.56 25.9805C21.6716 25.9818 21.7828 25.9932 21.8922 26.0147" fill="#760706"/>
<path d="M20.3741 26.4141L21.7215 26.683C21.6589 26.7351 21.5993 26.7906 21.5427 26.8491L20.1953 26.5802C20.2509 26.5207 20.3106 26.4651 20.3741 26.4141Z" fill="#7A0806"/>
<path d="M20.1946 26.5781L21.542 26.8471C21.4964 26.8939 21.4536 26.9434 21.4138 26.9953L20.0664 26.7242C20.106 26.6715 20.1497 26.6251 20.1946 26.5781Z" fill="#7F0806"/>
<path d="M20.0625 26.7266L21.4099 26.9955C21.3748 27.0405 21.3396 27.0875 21.3045 27.1363L19.957 26.8674C19.9894 26.8185 20.0245 26.7716 20.0625 26.7266Z" fill="#830806"/>
<path d="M19.9615 26.8672L21.3089 27.1361C21.2783 27.1815 21.2493 27.2284 21.2224 27.2754L19.875 27.0043C19.9019 26.9574 19.9309 26.912 19.9615 26.8672Z" fill="#880807"/>
<path d="M19.8757 27.0039L21.2231 27.2729C21.1978 27.3182 21.1704 27.3652 21.1508 27.4121L19.8008 27.141C19.8224 27.0941 19.8477 27.0487 19.873 27.0039" fill="#8C0907"/>
<path d="M19.8034 27.1406L21.1508 27.4096C21.1292 27.4565 21.1075 27.5035 21.0896 27.5504L19.7422 27.2798C19.7601 27.2329 19.7817 27.186 19.8034 27.1406Z" fill="#910907"/>
<path d="M19.7441 27.2812L21.0916 27.5523C21.0715 27.5993 21.0557 27.6462 21.0388 27.6952L19.6914 27.4263C19.7078 27.3778 19.7241 27.3287 19.7441 27.2818" fill="#950907"/>
<path d="M19.6917 27.4258L21.0391 27.6947C21.0229 27.7454 21.0085 27.796 20.9959 27.8466L19.6484 27.5777C19.6611 27.5253 19.6755 27.4747 19.6917 27.4258Z" fill="#9A0A07"/>
<path d="M19.6465 27.5742L20.9918 27.8432C20.9792 27.8959 20.9665 27.9513 20.9575 28.0056L19.6133 27.7366C19.6212 27.6818 19.6327 27.6276 19.6476 27.5742" fill="#9E0A08"/>
<path d="M19.6097 27.7349L20.9571 28.0039C20.946 28.0635 20.9392 28.1246 20.9334 28.1863L19.5859 27.9147C19.5912 27.8536 19.5986 27.794 19.6097 27.7344" fill="#A30A08"/>
<path d="M19.5871 27.918L20.9345 28.1869C20.9308 28.2339 20.9271 28.2829 20.9255 28.3298V28.3857L19.5781 28.1168V28.0609C19.5781 28.0124 19.5834 27.9649 19.5871 27.918Z" fill="#A70A08"/>
<path d="M19.5871 27.918L20.9345 28.1869C20.9308 28.2339 20.9271 28.2829 20.9255 28.3298V28.3857L19.5781 28.1168V28.0609C19.5781 28.0124 19.5834 27.9649 19.5871 27.918Z" fill="#A70A08"/>
<path d="M19.5781 28.1193L20.9255 28.3883C20.9257 28.4655 20.9305 28.5426 20.9398 28.6192L19.5924 28.3466C19.5831 28.2705 19.5783 28.1939 19.5781 28.1172" fill="#AC0B08"/>
<path d="M19.5898 28.3516L20.9373 28.6205C20.9737 28.9263 21.0794 29.2198 21.2463 29.4785L19.8989 29.2096C19.7322 28.9507 19.6265 28.6573 19.5898 28.3516Z" fill="#B00B09"/>
<path d="M19.9023 29.2031L21.2498 29.4721C21.2964 29.5461 21.3484 29.6166 21.4053 29.683L20.0579 29.412C20.0015 29.3462 19.9495 29.2768 19.9023 29.2042" fill="#AC0B08"/>
<path d="M20.0563 29.4141L21.4047 29.6851C21.4472 29.7368 21.493 29.7856 21.5419 29.8312L20.1918 29.5586C20.1434 29.5131 20.0976 29.4648 20.0547 29.4141" fill="#A70A08"/>
<path d="M20.1914 29.5586L21.5388 29.8297C21.5805 29.8676 21.6237 29.9056 21.667 29.9415L20.3196 29.6704C20.2763 29.6361 20.2331 29.5981 20.1914 29.5586Z" fill="#A30A08"/>
<path d="M20.3203 29.6701L21.6677 29.939C21.7075 29.9714 21.7489 30.0021 21.7922 30.0313L20.4448 29.7603C20.4015 29.7314 20.36 29.7007 20.3203 29.668" fill="#9E0A08"/>
<path d="M20.4453 29.7617L21.7927 30.0307C21.8329 30.0586 21.8744 30.0845 21.9172 30.1082L20.5724 29.8377C20.5297 29.8145 20.4881 29.7891 20.4479 29.7617" fill="#9A0A07"/>
<path d="M20.5664 29.8365L21.9138 30.1054C21.9553 30.129 21.9968 30.1506 22.0383 30.1703L20.6909 29.8992C20.6492 29.8792 20.6075 29.8602 20.5664 29.8365Z" fill="#950907"/>
<path d="M20.6953 29.9005L22.0427 30.1695C22.0844 30.1895 22.1276 30.2075 22.1709 30.2222L20.8235 29.9512C20.7797 29.9362 20.7369 29.9186 20.6953 29.8984" fill="#910907"/>
<path d="M20.8203 29.957L22.1677 30.226C22.211 30.2423 22.2563 30.2566 22.2996 30.2692L20.9522 30.0003C20.9089 29.9876 20.8636 29.9734 20.8203 29.957Z" fill="#8C0907"/>
<path d="M20.957 30L22.3023 30.269C22.3456 30.2816 22.3888 30.2927 22.4342 30.3017L21.0852 30.0306C21.0419 30.0216 20.9987 30.0127 20.957 30Z" fill="#880807"/>
<path d="M21.8938 26.0147L23.2412 26.2858C23.1319 26.2634 23.0206 26.2519 22.909 26.2515C22.4753 26.2523 22.0558 26.4058 21.724 26.685L20.375 26.414C20.7071 26.1353 21.1264 25.9819 21.56 25.9805C21.6716 25.9818 21.7828 25.9932 21.8922 26.0147" fill="#760706"/>
<path d="M22.4609 13.9102L23.8084 14.1791C23.8753 14.1934 23.9418 14.2097 24.0072 14.2276L22.6598 13.9629C22.5944 13.9431 22.528 13.9269 22.4609 13.9144" fill="#999999"/>
<path d="M22.6602 13.957L24.0076 14.226C24.0746 14.246 24.141 14.2677 24.2064 14.293L22.859 14.0219C22.7941 13.9982 22.7271 13.9765 22.6602 13.957Z" fill="#9E9E9E"/>
<path d="M22.8594 14.0234L24.2068 14.2945C24.2701 14.3182 24.3334 14.343 24.3945 14.372L23.0471 14.101C22.9859 14.0741 22.9227 14.0482 22.8594 14.0234Z" fill="#A3A3A3"/>
<path d="M23.0469 14.1021L24.3943 14.371C24.4555 14.4001 24.5151 14.4306 24.5747 14.4649L23.2272 14.1939C23.1676 14.1612 23.108 14.1311 23.0469 14.1021Z" fill="#A8A8A8"/>
<path d="M23.2266 14.1953L24.574 14.4643C24.6336 14.4985 24.6932 14.5349 24.7512 14.5745L23.4038 14.3034C23.3457 14.2655 23.2862 14.2296 23.2266 14.1953Z" fill="#ADADAD"/>
<path d="M23.4062 14.3047L24.7537 14.5736C24.7895 14.599 24.8275 14.6264 24.8618 14.6512C24.8871 14.6691 24.9103 14.6891 24.934 14.7071L23.5866 14.4381C23.5629 14.4181 23.5397 14.4001 23.5144 14.3822C23.4785 14.3553 23.4421 14.3295 23.4062 14.3047Z" fill="#B3B3B3"/>
<path d="M23.5859 14.4375L24.9334 14.7065C25.0014 14.7609 25.0665 14.8188 25.1285 14.88L23.7811 14.6089C23.7199 14.5493 23.6529 14.4913 23.5859 14.4375Z" fill="#B8B8B8"/>
<path d="M23.7812 14.6094L25.1287 14.8804C25.2045 14.9522 25.2763 15.0281 25.3438 15.1077L23.9964 14.8388C23.9289 14.7584 23.8571 14.6819 23.7812 14.6094Z" fill="#BDBDBD"/>
<path d="M23.9961 14.8365L25.3435 15.1054C25.4326 15.2107 25.5147 15.3217 25.5893 15.4377L24.2418 15.1666C24.1673 15.0511 24.0852 14.9412 23.9961 14.8365Z" fill="#C2C2C2"/>
<path d="M24.2422 15.168L25.5896 15.4369C25.8423 15.8239 26.0045 16.2628 26.0642 16.7211L24.7168 16.45C24.657 15.9924 24.4948 15.5542 24.2422 15.168Z" fill="#C7C7C7"/>
<path d="M24.7148 16.4537L26.0623 16.7226C26.0752 16.8304 26.0819 16.9389 26.0823 17.0475L24.7349 16.7764C24.7345 16.6683 24.7278 16.5604 24.7148 16.4531" fill="#C2C2C2"/>
<path d="M24.7358 16.7734L26.0812 17.0434C26.0812 17.1211 26.0775 17.1988 26.0701 17.2765L24.7227 17.0055C24.73 16.928 24.7337 16.852 24.7337 16.7745" fill="#BDBDBD"/>
<path d="M24.7206 17.0078L26.068 17.2768C26.0628 17.3416 26.0538 17.4049 26.0427 17.4698L24.6953 17.1992C24.7064 17.136 24.7154 17.0727 24.7206 17.0078Z" fill="#B8B8B8"/>
<path d="M24.696 17.1992L26.0434 17.4682C26.0345 17.5262 26.0218 17.5821 26.0076 17.638L24.6602 17.3669C24.6744 17.311 24.6871 17.2551 24.696 17.1992Z" fill="#B3B3B3"/>
<path d="M24.6628 17.3672L26.0102 17.6361C25.9975 17.6889 25.9849 17.7337 25.9685 17.7822L24.6211 17.5133C24.6374 17.4648 24.6501 17.4157 24.6628 17.3672Z" fill="#ADADAD"/>
<path d="M24.6199 17.5156L25.9674 17.7846C25.9563 17.8189 25.9457 17.8531 25.9331 17.8858C25.7686 18.3119 25.5987 18.7381 25.4295 19.1626L24.082 18.8915C24.2518 18.4696 24.4217 18.0425 24.5857 17.6148C24.5983 17.5821 24.6094 17.5499 24.6199 17.5156Z" fill="#A8A8A8"/>
<path d="M24.0818 18.8888L25.4293 19.1578C24.6583 21.0647 23.8271 22.9506 23.0271 24.8533L21.6797 24.5823C22.4797 22.6769 23.3103 20.7932 24.0818 18.8867" fill="#A3A3A3"/>
<path d="M21.8906 26.0117L23.238 26.2807C23.2813 26.2898 23.3247 26.3007 23.3683 26.3134L22.0209 26.0423C21.9776 26.0312 21.9344 26.0207 21.8906 26.0117Z" fill="#999999"/>
<path d="M22.0234 26.0469L23.3709 26.3158C23.4162 26.3285 23.4595 26.3427 23.5027 26.3591L22.1553 26.0901C22.112 26.0738 22.0688 26.0595 22.0234 26.0469Z" fill="#9E9E9E"/>
<path d="M22.1484 26.0898L23.4959 26.3609C23.5391 26.3758 23.5814 26.3934 23.6224 26.4136L22.275 26.1426C22.2333 26.1247 22.1917 26.1067 22.1484 26.0898Z" fill="#A3A3A3"/>
<path d="M22.2812 26.1406L23.6287 26.4117C23.6712 26.4306 23.7128 26.4517 23.7531 26.475L22.4057 26.2039C22.364 26.1823 22.3224 26.1607 22.2812 26.1406Z" fill="#A8A8A8"/>
<path d="M22.4023 26.207L23.7498 26.4781C23.7914 26.5018 23.8331 26.5266 23.8726 26.5519L22.5252 26.283C22.4857 26.2561 22.444 26.2302 22.4023 26.207Z" fill="#ADADAD"/>
<path d="M22.5273 26.2812L23.8748 26.5502C23.918 26.5792 23.9581 26.6098 23.9992 26.6425L22.6518 26.3714C22.6101 26.3408 22.5706 26.3103 22.5273 26.2812Z" fill="#B3B3B3"/>
<path d="M22.6523 26.3711L23.9998 26.6422C24.043 26.6764 24.0863 26.7144 24.1263 26.7524L22.7789 26.4834C22.7389 26.4438 22.6966 26.4059 22.6523 26.3711Z" fill="#B8B8B8"/>
<path d="M22.7773 26.4844L24.1248 26.7533C24.1733 26.8003 24.2186 26.8493 24.2619 26.8994L22.9145 26.6305C22.8712 26.5777 22.8259 26.5313 22.7773 26.4844Z" fill="#BDBDBD"/>
<path d="M22.918 26.6289L24.2654 26.8979C24.3213 26.9651 24.3733 27.0355 24.421 27.1088L23.0735 26.8377C23.0258 26.7655 22.9738 26.6961 22.918 26.63" fill="#C2C2C2"/>
<path d="M23.0703 26.8359L24.4177 27.1049C24.5913 27.3766 24.7013 27.6839 24.7394 28.0041L23.392 27.7351C23.3545 27.4148 23.2444 27.1073 23.0703 26.8359Z" fill="#C7C7C7"/>
<path d="M23.3906 27.7344L24.738 28.0033C24.7472 28.0863 24.7526 28.1695 24.7544 28.2528L23.407 27.9838C23.4052 27.8991 23.3998 27.8159 23.3906 27.7344Z" fill="#C2C2C2"/>
<path d="M23.4074 27.9883L24.7527 28.2572V28.3184C24.7527 28.3617 24.749 28.4033 24.7474 28.4429L23.3984 28.1739C23.4021 28.1323 23.4058 28.0906 23.4074 28.0495V27.9883Z" fill="#BDBDBD"/>
<path d="M23.4005 28.1719L24.748 28.4408C24.7427 28.4967 24.7355 28.5509 24.7263 28.6033L23.3789 28.3343C23.388 28.2802 23.3953 28.226 23.4005 28.1719Z" fill="#B8B8B8"/>
<path d="M23.3759 28.3326L24.7233 28.6015C24.7144 28.6543 24.7033 28.7028 24.6928 28.7513L23.3438 28.4802C23.3564 28.4317 23.3675 28.3827 23.3764 28.332" fill="#B3B3B3"/>
<path d="M23.3463 28.4805L24.6917 28.7494C24.679 28.7983 24.6663 28.8452 24.6537 28.8902L23.3047 28.6213C23.3189 28.5743 23.3316 28.5274 23.3463 28.4805Z" fill="#ADADAD"/>
<path d="M23.3063 28.6237L24.6538 28.8927C24.6395 28.9396 24.6232 28.985 24.6052 29.0298L23.2578 28.7566C23.2742 28.7134 23.2921 28.6664 23.3063 28.6211" fill="#A8A8A8"/>
<path d="M23.2588 28.7617L24.6062 29.0307C24.5883 29.0776 24.5683 29.1209 24.5466 29.1662L23.1992 28.8951C23.2208 28.8519 23.2409 28.8065 23.2588 28.7617Z" fill="#A3A3A3"/>
<path d="M23.1957 28.8945L24.5431 29.1635C24.5215 29.2104 24.4977 29.2537 24.4724 29.299L23.125 29.028C23.1503 28.9847 23.1735 28.9394 23.1957 28.8945Z" fill="#9E9E9E"/>
<path d="M23.1258 29.0273L24.4732 29.2963C24.4463 29.3432 24.4205 29.3886 24.3883 29.4334L23.043 29.1629C23.0736 29.1196 23.101 29.0743 23.1279 29.0273" fill="#999999"/>
<path d="M23.0391 29.1602L24.3865 29.4291C24.3541 29.478 24.319 29.5249 24.281 29.5699L22.9336 29.301C22.9688 29.256 23.0039 29.209 23.0391 29.1602Z" fill="#949494"/>
<path d="M22.9389 29.3008L24.2863 29.5718C24.2448 29.6225 24.2014 29.6712 24.156 29.7179L22.8086 29.449C22.8539 29.402 22.8972 29.3514 22.9389 29.3008Z" fill="#8F8F8F"/>
<path d="M22.8091 29.4492L24.1565 29.7182C24.0991 29.7789 24.0376 29.8357 23.9724 29.888L22.625 29.619C22.6898 29.5662 22.7512 29.5095 22.8091 29.4492Z" fill="#8A8A8A"/>
<path d="M22.6225 29.6172L23.9699 29.8861C23.6314 30.1721 23.2032 30.33 22.7601 30.3323C22.6491 30.3311 22.5384 30.3196 22.4295 30.298L21.082 30.0291C21.1909 30.051 21.3017 30.062 21.4127 30.0618C21.8554 30.0593 22.2833 29.9017 22.6225 29.6172Z" fill="#858585"/>
<path d="M25.375 3.75781L26.7224 4.02677L39.0971 28.5309L37.7497 28.2598L25.375 3.75781Z" fill="#BC0C09"/>
<path d="M39.8063 29.474C39.7645 28.9623 39.6553 28.4584 39.4815 27.9752C39.4097 27.7629 39.319 27.5574 39.2104 27.3614L26.8574 2.85358C26.4469 2.00711 25.8088 1.29173 25.0145 0.787695C24.2202 0.283656 23.3012 0.010892 22.3605 0C21.4334 0.00556556 20.5241 0.254721 19.7237 0.722493C18.8982 1.23769 18.2151 1.95174 17.7371 2.79926L3.83304 27.1805C3.07277 28.4694 2.82096 29.9957 3.1269 31.4606C3.26666 32.1597 3.54289 32.8243 3.93979 33.4165C4.33668 34.0086 4.84646 34.5167 5.43993 34.9117C6.23039 35.4222 7.15214 35.6921 8.09312 35.6885L34.4246 35.8151C34.7456 35.8119 35.0658 35.7817 35.3817 35.7249C35.4857 35.7007 35.5882 35.6706 35.6887 35.6347C35.8511 35.582 36.032 35.5445 36.2123 35.4902C36.2482 35.4723 36.2651 35.4723 36.3025 35.4544C36.4106 35.4016 36.5193 35.3462 36.6458 35.2919C36.8079 35.2186 36.9647 35.1342 37.1152 35.0393C37.1331 35.0214 37.151 35.0214 37.1679 35.0035C37.2804 34.9312 37.3889 34.8529 37.4928 34.7688C37.7321 34.6029 37.9558 34.4154 38.1609 34.2087C38.413 33.95 38.6369 33.6654 38.8291 33.3597C38.8471 33.3396 38.865 33.3238 38.865 33.3069C39.0521 33.0198 39.2152 32.7179 39.3528 32.4041C39.3528 32.3861 39.3707 32.3682 39.3707 32.3513C39.5059 32.0359 39.6146 31.7097 39.6956 31.3762C39.6928 31.3451 39.699 31.3138 39.7135 31.286C39.7834 30.9408 39.8257 30.5906 39.8401 30.2387C39.8552 29.9854 39.8432 29.7311 39.8042 29.4803M37.0255 32.9235C36.694 33.2688 36.2957 33.543 35.8548 33.7293C35.4138 33.9156 34.9396 34.0102 34.4609 34.0073L8.14902 33.8986C7.51546 33.8973 6.89538 33.7157 6.36124 33.3749C5.9536 33.1045 5.60326 32.7563 5.33026 32.3504C5.05725 31.9445 4.86693 31.4887 4.77018 31.0092C4.56232 30.0152 4.7295 28.9794 5.23953 28.1013L19.1478 3.70212C19.4823 3.13755 19.9466 2.66082 20.5021 2.31145C21.0432 1.97111 21.669 1.78966 22.3083 1.78777C22.9514 1.80259 23.5781 1.9941 24.1197 2.34134C24.6612 2.68858 25.0968 3.17815 25.3786 3.75644L37.7475 28.2637C38.0627 28.8636 38.2065 29.5387 38.1631 30.215C38.1407 31.2293 37.7342 32.1974 37.0255 32.9235Z" fill="white"/>
<path d="M21.5591 25.9815C21.8165 25.9944 22.0688 26.0582 22.3014 26.1693C22.534 26.2804 22.7421 26.4366 22.9139 26.6288C23.0856 26.8211 23.2174 27.0455 23.3017 27.289C23.386 27.5326 23.4211 27.7905 23.4049 28.0477C23.3907 28.5743 23.1767 29.0757 22.8064 29.4503C22.4362 29.8249 21.9372 30.0446 21.4109 30.0649C21.1587 30.0542 20.9112 29.9937 20.6824 29.8871C20.4536 29.7805 20.2481 29.6298 20.0777 29.4437C19.9073 29.2575 19.7752 29.0395 19.6892 28.8023C19.6031 28.565 19.5647 28.3131 19.5762 28.0609C19.5755 27.5259 19.781 27.0111 20.1499 26.6237C20.5189 26.2362 21.0231 26.0058 21.5575 25.9805" fill="black"/>
<path d="M37.748 28.2614C38.0542 28.8688 38.1995 29.5447 38.1699 30.2243C38.1359 31.2352 37.7286 32.1977 37.0266 32.926C36.6945 33.2714 36.2961 33.5461 35.8552 33.7336C35.4143 33.9211 34.94 34.0176 34.4609 34.0171L8.14531 33.8942C7.50909 33.8963 6.88604 33.7131 6.35226 33.3669C5.94564 33.098 5.59642 32.7511 5.32484 32.3462C5.05326 31.9414 4.86473 31.4867 4.77016 31.0085C4.56291 30.012 4.73079 28.9741 5.24163 28.0937L19.1499 3.71249C19.4776 3.13868 19.9439 2.65619 20.5063 2.30917C21.0457 1.97599 21.6674 1.79992 22.3014 1.80078C22.9454 1.80802 23.5744 1.99542 24.1173 2.34177C24.6603 2.68812 25.0954 3.17958 25.3733 3.76048L37.748 28.2614ZM24.5823 17.6149C24.7624 17.0319 24.756 16.4071 24.564 15.8279C24.372 15.2486 24.0039 14.7438 23.5112 14.3838C23.0584 14.0452 22.5087 13.8616 21.9433 13.8601C21.3278 13.8602 20.7291 14.0613 20.2384 14.4328C19.7232 14.8106 19.3377 15.3385 19.1346 15.9441C18.9315 16.5497 18.9208 17.2034 19.104 17.8153C19.846 20.0893 20.6935 22.3301 21.4951 24.5714L21.6754 24.5878C22.6542 22.2579 23.6794 19.9607 24.5812 17.6149M21.4112 30.0677C21.9374 30.047 22.4361 29.8271 22.8063 29.4526C23.1766 29.0781 23.3906 28.5769 23.4052 28.0505C23.4215 27.7932 23.3865 27.5353 23.3023 27.2916C23.2181 27.048 23.0862 26.8235 22.9145 26.6313C22.7428 26.439 22.5345 26.2828 22.3019 26.1718C22.0693 26.0607 21.8169 25.9969 21.5594 25.9843C21.0248 26.009 20.5203 26.2389 20.1509 26.6263C19.7815 27.0136 19.5758 27.5285 19.5765 28.0637C19.565 28.3158 19.6034 28.5677 19.6895 28.805C19.7756 29.0423 19.9076 29.2602 20.078 29.4464C20.2485 29.6325 20.4539 29.7832 20.6827 29.8899C20.9115 29.9965 21.1591 30.0569 21.4112 30.0677Z" fill="#F9E955"/>
<path d="M21.9451 13.8594C22.5103 13.86 23.0602 14.0431 23.5129 14.3815C24.0055 14.7416 24.3734 15.2465 24.5654 15.8257C24.7574 16.4049 24.7639 17.0296 24.584 17.6126C23.6812 19.9605 22.657 22.2577 21.6782 24.5876L21.4979 24.5697C20.6963 22.3284 19.8472 20.0871 19.1068 17.8152C18.9234 17.2032 18.9339 16.5495 19.1369 15.9437C19.34 15.338 19.7255 14.8099 20.2406 14.4321C20.7308 14.0599 21.3296 13.8587 21.9451 13.8594Z" fill="black"/>
<path d="M41.1973 30.3244V30.5048C41.1794 30.6314 41.1794 30.7574 41.1615 30.866C41.1435 31.0285 41.1256 31.1909 41.1087 31.3354L41.056 31.5521C41.0588 31.5833 41.0526 31.6146 41.0381 31.6423C41.0381 31.6782 41.0201 31.7325 41.0201 31.7689C40.9862 31.9037 40.9439 32.0364 40.8936 32.166C40.8577 32.2926 40.8034 32.4186 40.767 32.5452C40.7491 32.581 40.7311 32.5979 40.7311 32.6174C40.7245 32.6244 40.7195 32.6327 40.7164 32.6418C40.7133 32.6509 40.7122 32.6606 40.7132 32.6702C40.682 32.7594 40.6395 32.8443 40.5866 32.9228C40.5275 33.0528 40.4611 33.1794 40.3878 33.3019L40.2254 33.573C40.2075 33.5909 40.2075 33.6089 40.1895 33.6257C40.1716 33.6426 40.1716 33.6616 40.1537 33.6785C40.0635 33.8051 39.9733 33.9496 39.8647 34.0756L39.5398 34.4548L39.5219 34.4727C39.3774 34.6172 39.215 34.7617 39.0705 34.8883C38.9982 34.941 38.926 34.9784 38.8537 35.0328C38.7498 35.1169 38.6413 35.1952 38.5288 35.2674C38.3485 35.3756 38.1676 35.4663 37.9872 35.5564L37.6624 35.7189C37.4456 35.7911 37.2468 35.8454 37.0295 35.8992C36.9298 35.9375 36.8272 35.9677 36.7226 35.9894C36.4068 36.0471 36.0865 36.0773 35.7654 36.0796L9.434 35.953L8.09766 35.682L34.4291 35.8085C34.7501 35.8054 35.0703 35.7752 35.3863 35.7183C35.4902 35.6942 35.5927 35.6641 35.6932 35.6282C35.8738 35.6054 36.0502 35.5568 36.2169 35.4837C36.2527 35.4657 36.2696 35.4657 36.307 35.4478C36.4152 35.3951 36.5238 35.3397 36.6504 35.2854C36.8159 35.2192 36.9733 35.1344 37.1197 35.0328C37.1377 35.0148 37.1556 35.0148 37.1725 34.9969C37.2849 34.9247 37.3934 34.8463 37.4973 34.7622C37.7357 34.5979 37.9586 34.4122 38.1634 34.2074C38.4154 33.9487 38.6394 33.6641 38.8316 33.3584C38.8495 33.3404 38.8674 33.3225 38.8674 33.3056C39.0545 33.0186 39.2176 32.7166 39.3552 32.4028C39.3552 32.3849 39.3732 32.3669 39.3732 32.35C39.5083 32.0346 39.617 31.7084 39.698 31.3749C39.6952 31.3438 39.7014 31.3125 39.7159 31.2848C39.7858 30.9396 39.8282 30.5893 39.8425 30.2374C39.8576 29.9841 39.8456 29.7298 39.8067 29.4791C39.7648 28.9674 39.6556 28.4634 39.4818 27.9803C39.4101 27.7679 39.3193 27.5625 39.2107 27.3664L26.8566 2.85547L28.193 3.12654L40.5655 27.6338C40.7503 28.0215 40.8955 28.4268 40.999 28.8436C41.017 28.9517 41.0518 29.0783 41.0713 29.1869C41.1057 29.3172 41.1298 29.45 41.1435 29.584C41.1796 29.8284 41.1972 30.0752 41.1963 30.3223" fill="#ECF1F8"/>
<path d="M39.8098 29.4753C39.7918 29.295 39.757 29.1141 39.7175 28.9153C39.7018 28.7994 39.6781 28.6847 39.6468 28.572L39.4844 27.9766C39.6582 28.4597 39.7679 28.9636 39.8098 29.4753Z" fill="#858585"/>
<defs>
<filter id="filter0_f_239_958" x="-7.75" y="14.5156" width="75.6445" height="34.1914" filterUnits="userSpaceOnUse" color-interpolation-filters="sRGB">
<feFlood flood-opacity="0" result="BackgroundImageFix"/>
<feBlend mode="normal" in="SourceGraphic" in2="BackgroundImageFix" result="shape"/>
<feGaussianBlur stdDeviation="7.5" result="effect1_foregroundBlur_239_958"/>
</filter>
</defs>
</svg>
