<svg width="300" height="200" viewBox="0 0 300 200" fill="none" xmlns="http://www.w3.org/2000/svg">
<path d="M126.089 107.76V130.45C126.089 131.259 125.768 132.035 125.196 132.607C124.624 133.179 123.848 133.5 123.039 133.5H121.219C120.41 133.5 119.634 133.179 119.062 132.607C118.49 132.035 118.169 131.259 118.169 130.45V130.073C117.08 131.31 115.729 132.288 114.214 132.936C112.641 133.604 110.947 133.941 109.239 133.926C107.598 134.012 105.956 133.767 104.412 133.206C102.867 132.645 101.451 131.78 100.248 130.661C98.0353 128.486 96.9295 125.259 96.9302 120.977V107.76C96.9302 107.359 97.0091 106.963 97.1623 106.593C97.3156 106.223 97.5402 105.886 97.8234 105.603C98.1066 105.32 98.4428 105.095 98.8129 104.942C99.1829 104.789 99.5795 104.71 99.98 104.71H102.227C103.036 104.711 103.811 105.032 104.382 105.604C104.953 106.176 105.273 106.952 105.273 107.76V119.748C105.273 124.385 107.218 126.704 111.108 126.704C112.004 126.742 112.897 126.587 113.728 126.25C114.558 125.913 115.307 125.401 115.923 124.75C117.136 123.449 117.742 121.514 117.743 118.945V107.76C117.743 107.359 117.822 106.963 117.975 106.592C118.128 106.222 118.353 105.886 118.636 105.603C118.919 105.32 119.256 105.095 119.626 104.942C119.996 104.789 120.392 104.71 120.793 104.71H123.04C123.849 104.71 124.625 105.032 125.196 105.604C125.768 106.175 126.089 106.951 126.089 107.76Z" fill="white"/>
<path d="M156.984 104.709C157.793 104.709 158.569 105.03 159.141 105.602C159.713 106.174 160.034 106.95 160.034 107.758V128.681C160.034 133.962 158.66 137.887 155.913 140.455C153.166 143.023 149.152 144.308 143.872 144.309C141.2 144.324 138.537 143.983 135.954 143.295C134.77 142.981 133.616 142.562 132.506 142.042C132.13 141.862 131.795 141.607 131.522 141.292C131.248 140.977 131.042 140.61 130.915 140.213C130.789 139.816 130.745 139.397 130.786 138.982C130.828 138.567 130.954 138.165 131.156 137.801L131.51 137.162C131.902 136.475 132.543 135.965 133.3 135.736C134.057 135.507 134.873 135.577 135.58 135.932C136.256 136.248 136.952 136.519 137.663 136.743C139.462 137.322 141.339 137.619 143.228 137.624C146.118 137.624 148.25 136.974 149.624 135.672C150.998 134.37 151.687 132.397 151.691 129.752V128.52C149.515 130.911 146.483 132.106 142.593 132.105C140.07 132.133 137.58 131.537 135.344 130.368C133.188 129.245 131.382 127.551 130.124 125.471C128.815 123.273 128.147 120.752 128.197 118.194C128.148 115.636 128.815 113.115 130.124 110.917C131.383 108.838 133.189 107.144 135.344 106.02C137.58 104.851 140.07 104.254 142.593 104.281C146.769 104.281 149.944 105.654 152.118 108.401V107.759C152.118 106.951 152.439 106.175 153.011 105.603C153.583 105.031 154.359 104.71 155.168 104.71L156.984 104.709ZM149.682 123.305C150.381 122.655 150.931 121.861 151.295 120.979C151.66 120.097 151.829 119.147 151.792 118.193C151.828 117.239 151.658 116.289 151.294 115.408C150.929 114.526 150.378 113.733 149.679 113.084C148.191 111.752 146.243 111.051 144.248 111.13C142.244 111.053 140.288 111.753 138.789 113.084C138.083 113.729 137.525 114.52 137.155 115.402C136.786 116.285 136.612 117.237 136.648 118.193C136.612 119.149 136.785 120.102 137.155 120.984C137.525 121.867 138.082 122.658 138.789 123.304C140.289 124.633 142.244 125.333 144.248 125.256C146.243 125.335 148.191 124.635 149.679 123.304" fill="white"/>
<path d="M193.596 107.757V130.447C193.596 131.256 193.275 132.032 192.703 132.604C192.131 133.176 191.355 133.497 190.547 133.497H188.672C187.863 133.497 187.088 133.175 186.516 132.604C185.944 132.032 185.623 131.256 185.622 130.447V130.18C183.555 132.676 180.558 133.924 176.633 133.924C174.065 133.96 171.531 133.334 169.275 132.106C167.093 130.905 165.301 129.103 164.112 126.915C162.826 124.516 162.181 121.826 162.238 119.105C162.181 116.384 162.827 113.695 164.112 111.296C165.301 109.108 167.093 107.307 169.275 106.107C171.53 104.877 174.065 104.25 176.633 104.286C178.237 104.199 179.841 104.465 181.331 105.065C182.82 105.666 184.16 106.587 185.254 107.763C185.255 106.954 185.576 106.179 186.148 105.607C186.72 105.035 187.495 104.714 188.304 104.713H190.552C191.36 104.713 192.136 105.035 192.708 105.607C193.28 106.179 193.601 106.954 193.601 107.763M183.327 124.915C184.042 124.133 184.594 123.218 184.953 122.221C185.311 121.225 185.468 120.167 185.416 119.109C185.468 118.052 185.311 116.994 184.953 115.998C184.594 115.001 184.042 114.086 183.327 113.304C181.925 111.915 180.031 111.136 178.057 111.136C176.084 111.136 174.19 111.915 172.787 113.304C172.073 114.086 171.521 115.001 171.162 115.998C170.804 116.994 170.646 118.052 170.699 119.109C170.646 120.167 170.804 121.225 171.162 122.221C171.521 123.218 172.073 124.133 172.787 124.915C174.19 126.303 176.084 127.081 178.057 127.081C180.031 127.081 181.924 126.303 183.327 124.915Z" fill="white"/>
<path d="M227.031 107.757V130.447C227.031 131.256 226.71 132.032 226.138 132.604C225.566 133.176 224.79 133.497 223.982 133.497H222.107C221.299 133.497 220.523 133.175 219.951 132.604C219.379 132.032 219.058 131.256 219.057 130.447V130.18C216.99 132.676 213.993 133.924 210.068 133.924C207.5 133.96 204.966 133.334 202.71 132.106C200.528 130.905 198.736 129.103 197.547 126.915C196.261 124.516 195.616 121.826 195.673 119.105C195.616 116.384 196.262 113.695 197.547 111.296C198.736 109.108 200.528 107.307 202.71 106.107C204.966 104.877 207.5 104.25 210.068 104.286C211.672 104.199 213.276 104.465 214.766 105.065C216.255 105.666 217.595 106.587 218.689 107.763C218.69 106.954 219.011 106.179 219.583 105.607C220.155 105.035 220.93 104.714 221.739 104.713H223.98C224.788 104.713 225.564 105.035 226.136 105.607C226.708 106.179 227.029 106.954 227.029 107.763M216.755 124.915C217.47 124.133 218.022 123.218 218.381 122.221C218.739 121.225 218.896 120.167 218.843 119.109C218.896 118.052 218.739 116.994 218.381 115.998C218.022 115.001 217.47 114.086 216.755 113.304C215.353 111.915 213.459 111.135 211.485 111.135C209.511 111.135 207.617 111.915 206.214 113.304C205.5 114.086 204.947 115.001 204.589 115.998C204.231 116.994 204.073 118.052 204.126 119.109C204.073 120.167 204.231 121.225 204.589 122.221C204.947 123.218 205.5 124.133 206.214 124.915C207.617 126.303 209.511 127.082 211.485 127.082C213.458 127.082 215.352 126.303 216.755 124.915Z" fill="white"/>
<path d="M274.815 107.463C276.936 109.586 277.998 112.77 277.998 117.015V130.446C277.998 130.847 277.92 131.243 277.766 131.613C277.613 131.983 277.389 132.32 277.105 132.603C276.822 132.886 276.486 133.111 276.116 133.264C275.746 133.417 275.349 133.496 274.949 133.496H272.701C272.3 133.496 271.904 133.417 271.534 133.264C271.164 133.111 270.827 132.886 270.544 132.603C270.261 132.32 270.036 131.983 269.883 131.613C269.73 131.243 269.651 130.847 269.651 130.446V118.3C269.789 116.483 269.287 114.675 268.231 113.189C267.731 112.619 267.107 112.171 266.407 111.878C265.707 111.586 264.949 111.458 264.192 111.502C263.324 111.461 262.458 111.609 261.653 111.938C260.849 112.266 260.127 112.767 259.536 113.404C258.283 115.007 257.673 117.02 257.824 119.049V130.446C257.824 131.255 257.503 132.031 256.931 132.603C256.359 133.175 255.583 133.496 254.775 133.496H252.525C252.124 133.496 251.728 133.417 251.358 133.264C250.987 133.111 250.651 132.886 250.368 132.603C250.085 132.32 249.86 131.984 249.706 131.613C249.553 131.243 249.474 130.847 249.474 130.446V118.3C249.474 113.77 247.655 111.504 244.018 111.504C243.158 111.466 242.301 111.617 241.506 111.945C240.711 112.274 239.997 112.772 239.415 113.406C238.162 115.009 237.551 117.022 237.703 119.051V130.446C237.703 131.255 237.382 132.031 236.81 132.603C236.238 133.175 235.462 133.496 234.653 133.496H232.405C231.596 133.496 230.82 133.175 230.248 132.603C229.676 132.031 229.355 131.255 229.355 130.446V107.758C229.355 106.949 229.676 106.173 230.248 105.601C230.82 105.029 231.596 104.707 232.405 104.707H234.279C234.68 104.707 235.076 104.786 235.446 104.939C235.816 105.093 236.153 105.317 236.436 105.601C236.719 105.884 236.944 106.22 237.097 106.59C237.25 106.961 237.329 107.357 237.329 107.758V108.026C238.407 106.806 239.753 105.854 241.262 105.243C242.885 104.587 244.622 104.26 246.373 104.28C248.278 104.252 250.164 104.664 251.884 105.484C252.64 105.851 253.347 106.313 253.986 106.859C254.518 107.326 255.195 107.593 255.902 107.616C256.609 107.638 257.302 107.414 257.862 106.982C258.619 106.398 259.441 105.904 260.312 105.51C262.171 104.678 264.189 104.259 266.225 104.28C267.798 104.2 269.371 104.441 270.847 104.989C272.324 105.536 273.674 106.377 274.815 107.463Z" fill="white"/>
<path d="M26.8954 65.2414C26.6307 65.2586 26.2869 65.3549 26.2869 64.8925C26.2869 64.5973 26.2869 64.2931 26.3072 63.9949C26.3244 63.3458 26.3204 62.7017 26.2798 62.0536C26.3261 61.9997 26.392 61.9663 26.4629 61.9608C26.5338 61.9553 26.604 61.9781 26.6581 62.0242C26.6581 62.0242 27.1064 63.8306 27.3305 64.7474C27.4228 65.1318 27.1743 65.218 26.8954 65.2373" fill="white"/>
<path d="M37.5872 56.0527V56.0609C37.4422 56.217 37.355 56.3286 37.2505 56.4229C35.5263 57.9179 33.791 59.4058 32.0708 60.917C31.9378 61.0442 31.7766 61.1381 31.6003 61.191C31.424 61.2438 31.2377 61.2542 31.0566 61.2212C29.4764 61.0184 27.8953 60.8389 26.308 60.6462C26.1275 60.6289 25.9459 60.6178 25.598 60.5853C25.9601 60.9758 26.2421 61.3237 26.5342 61.631C26.4293 61.6883 26.3364 61.765 26.2603 61.8572C25.8844 61.4217 25.4868 61.0062 25.0676 60.6107C25.0037 60.5468 24.9388 60.4768 24.8252 60.3622C25.1041 60.136 25.3546 59.921 25.6112 59.7161C26.9754 58.6512 28.3294 57.5863 29.6955 56.5355C29.8779 56.3843 30.0988 56.287 30.3335 56.2546C32.6246 56.1582 34.9107 56.0811 37.1917 56C37.3248 56.0062 37.4571 56.0239 37.5872 56.0527Z" fill="white"/>
<path d="M32.6135 62.8602C31.1936 62.0691 30.0597 62.5955 28.9623 63.5428L28.085 61.0244C28.8177 61.093 29.5456 61.2065 30.2645 61.3642C30.7113 61.5208 31.1965 61.5305 31.6492 61.3918C32.1019 61.2532 32.4984 60.9734 32.7808 60.5934C33.4824 59.8774 34.2225 59.2002 34.9979 58.5649L35.8965 61.1249C34.2048 60.6654 33.2646 61.4656 32.6125 62.8592" fill="white"/>
<path d="M55.3376 102.577C51.7939 97.1312 47.598 94.0814 43.4823 94.6027C34.8036 95.6981 29.7233 112.218 32.1422 131.5C32.2731 132.49 32.4039 133.455 32.5854 134.419C29.4146 129.82 26.9151 124.793 25.1623 119.489C20.863 106.667 21.0719 94.2123 25.0335 86.6005C25.0315 86.5836 25.0355 86.5666 25.0448 86.5523C25.0541 86.538 25.068 86.5275 25.0842 86.5224C27.5092 83.2941 30.5316 81.2616 33.9678 80.8194C42.5178 79.7504 51.0383 88.9231 55.3376 102.577Z" fill="white"/>
<path d="M35.5171 78.7752C34.0081 78.7746 32.5332 78.3266 31.2788 77.4878C30.0245 76.649 29.047 75.457 28.47 74.0627C27.893 72.6684 27.7424 71.1343 28.0372 69.6544C28.332 68.1745 29.0591 66.8152 30.1264 65.7485C31.1937 64.6818 32.5533 63.9554 34.0334 63.6614C35.5134 63.3674 37.0475 63.5188 38.4415 64.0965C39.8355 64.6743 41.0269 65.6524 41.865 66.9072C42.7032 68.162 43.1504 69.6372 43.1502 71.1462C43.1501 72.1483 42.9525 73.1407 42.5688 74.0665C42.1851 74.9923 41.6228 75.8334 40.914 76.5419C40.2052 77.2503 39.3637 77.8122 38.4377 78.1954C37.5117 78.5786 36.5193 78.7756 35.5171 78.7752ZM35.5171 71.1492V71.1401Z" fill="white"/>
<path d="M56.8599 102.577C60.4036 97.1321 64.5994 94.0823 68.7152 94.6036C77.3939 95.699 82.4742 112.219 80.0512 131.501C79.9203 132.491 79.7895 133.456 79.608 134.42C82.7802 129.821 85.2811 124.794 87.0352 119.49C91.3345 106.668 91.1255 94.2131 87.164 86.6044C87.1659 86.5875 87.1619 86.5705 87.1527 86.5562C87.1434 86.5419 87.1295 86.5314 87.1132 86.5263C84.6882 83.295 81.6658 81.2624 78.2276 80.8192C69.6797 79.7513 61.1592 88.9239 56.8599 102.577Z" fill="white"/>
<path d="M76.6788 78.7732C75.1699 78.7732 73.695 78.3257 72.4404 77.4875C71.1858 76.6492 70.208 75.4577 69.6305 74.0637C69.0531 72.6696 68.902 71.1357 69.1964 69.6558C69.4908 68.1759 70.2174 66.8166 71.2843 65.7496C72.3512 64.6827 73.7106 63.9561 75.1905 63.6617C76.6704 63.3674 78.2043 63.5184 79.5983 64.0959C80.9923 64.6733 82.1838 65.6511 83.0221 66.9057C83.8604 68.1603 84.3078 69.6353 84.3078 71.1442C84.3078 73.1675 83.5041 75.108 82.0734 76.5387C80.6426 77.9694 78.7022 78.7732 76.6788 78.7732ZM76.6788 71.1371V71.1462Z" fill="white"/>
<path d="M66.0655 100.896H62.4548V99.4647C62.4566 99.358 62.4373 99.252 62.398 99.1527C62.3587 99.0535 62.3002 98.963 62.2258 98.8864C62.1515 98.8098 62.0628 98.7486 61.9648 98.7063C61.8667 98.6641 61.7613 98.6416 61.6546 98.6401H57.8442C57.6278 98.6436 57.4214 98.732 57.2696 98.8863C57.1178 99.0405 57.0328 99.2483 57.0328 99.4647V100.896H53.4475C53.3281 100.897 53.214 100.945 53.1294 101.029C53.0449 101.114 52.9967 101.228 52.9951 101.347V109.471C52.9938 109.589 53.0392 109.702 53.1213 109.786C53.2034 109.871 53.3156 109.919 53.4333 109.92H66.0635C66.1217 109.921 66.1795 109.911 66.2337 109.89C66.2879 109.868 66.3374 109.837 66.3793 109.796C66.4212 109.756 66.4547 109.708 66.478 109.654C66.5012 109.601 66.5137 109.543 66.5148 109.485V101.347C66.5132 101.228 66.4652 101.114 66.3809 101.03C66.2966 100.945 66.1827 100.897 66.0635 100.896M57.9415 99.5428H61.5522V100.896H57.9415V99.5428Z" fill="white"/>
</svg>
