<svg width="300" height="300" viewBox="0 0 300 300" fill="none" xmlns="http://www.w3.org/2000/svg">
<circle cx="150" cy="150" r="128" fill="#4285F4"/>
<mask id="mask0_1157_809" style="mask-type:alpha" maskUnits="userSpaceOnUse" x="22" y="22" width="256" height="256">
<path d="M278 150C278 220.692 220.692 278 150 278C79.3075 278 22 220.692 22 150C22 79.3075 79.3075 22 150 22C220.692 22 278 79.3075 278 150Z" fill="#EFF5FF"/>
</mask>
<g mask="url(#mask0_1157_809)">
<path d="M86.3137 84.4889C106.041 72.1316 125.834 59.8744 145.694 47.7173C158.354 55.9853 171.157 64.0358 183.757 72.4032C184.252 72.7546 184.753 73.0975 185.261 73.4318C187.416 74.8428 189.593 76.2373 191.815 77.5465C192.009 82.4309 191.924 87.3224 191.558 92.197C188.651 93.581 185.999 95.4537 183.045 96.7395C181.37 92.7172 180.798 88.1618 177.889 84.7332C172.378 77.1047 162.827 73.9392 153.784 73.2471C144.118 72.4756 133.945 72.6931 124.971 76.775C120.609 79.0539 117.015 82.5676 114.638 86.8771C112.818 89.9561 113.01 93.761 111.163 96.826C102.848 92.778 94.5407 88.71 86.3125 84.4901" fill="black"/>
<path d="M183.754 72.406C185.317 70.3884 186.628 67.6589 189.365 67.0791C193.176 67.6133 193.17 72.4855 193.573 75.4394C193.924 80.6214 193.633 85.8244 193.513 91.0133C194.845 99.5256 196.67 108.038 196.467 116.721C196.692 117.578 195.766 117.822 195.261 118.241C195.063 119.236 195.301 120.615 193.955 120.805C193.935 120.39 193.896 119.566 193.883 119.15C194.397 114.375 194.331 109.555 193.685 104.796C193.078 109.327 192.974 113.911 193.376 118.465C192.934 118.634 192.545 118.915 192.244 119.28C191.944 119.645 191.743 120.081 191.662 120.547C191.451 120.507 191.015 120.43 190.798 120.382C191.614 116.764 191.71 113.02 191.082 109.365C190.376 112.821 190.014 116.34 190.001 119.868L189.988 120.699C189.52 120.646 188.585 120.547 188.118 120.494C188.203 110.98 189.988 101.557 191.559 92.1952C191.925 87.3206 192.011 82.4291 191.816 77.5447C191.731 74.4458 191.651 71.05 189.442 68.6104C187.903 70.0848 186.504 71.6982 185.262 73.43C184.755 73.0918 184.253 72.7489 183.759 72.4013" fill="#8B8B8B"/>
<path d="M185.262 73.4309C186.504 71.699 187.903 70.0857 189.442 68.6113C191.651 71.0509 191.73 74.4467 191.816 77.5456C189.595 76.234 187.418 74.8418 185.262 73.4309Z" fill="#FFFFFE"/>
<path d="M124.971 76.7697C133.945 72.6889 144.118 72.4703 153.784 73.2418C162.824 73.9338 172.378 77.0994 177.89 84.7279C180.798 88.1565 181.372 92.713 183.047 96.7342C182.855 100.624 183.192 104.535 182.552 108.405L182.302 108.26C161.434 94.9808 134.183 96.5635 112.551 107.159L111.966 107.409C111.627 104.168 111.541 100.905 111.709 97.6507C111.571 97.4403 111.307 97.0241 111.168 96.8195C113.014 93.7534 112.823 89.9496 114.643 86.8706C117.019 82.5622 120.611 79.049 124.971 76.7697Z" fill="black"/>
<path d="M94.3052 284.093H73.7539C73.7667 283.984 73.7734 283.874 73.7738 283.764C73.8731 282.127 73.9702 280.464 74.0648 278.847L74.0812 278.572L74.1572 277.27C74.4002 275.365 74.5256 273.447 74.5324 271.527C74.5435 268.296 74.8613 265.074 75.4816 261.903L75.4921 261.842C75.671 260.747 75.8557 259.614 76.01 258.499C76.3852 256.242 76.7604 253.94 77.124 251.709L77.2082 251.196C80.286 232.297 83.469 212.755 90.4173 194.563C90.8849 193.628 91.3139 192.624 91.7312 191.655C93.2508 188.119 94.8324 184.465 98.3358 182.597C101.1 180.986 103.993 179.608 106.986 178.476H106.995C108.209 177.981 109.456 177.465 110.663 176.929C115.191 183.441 119.681 190.112 124.019 196.567C130.062 205.547 136.313 214.833 142.722 223.784C142.692 224.19 142.663 224.595 142.634 225.001V225.038C142.517 226.745 142.384 228.509 142.224 230.246C142.074 231.618 141.836 232.993 141.64 234.037C141.614 234.175 141.575 234.369 141.535 234.573L141.5 234.753C141.454 234.987 141.407 235.227 141.376 235.389C140.541 235.01 139.651 234.602 138.653 234.143C138.323 235.896 138.061 237.286 137.81 238.66L138.044 238.916L138.057 238.93C138.947 239.916 139.869 240.936 140.745 241.977C139.576 241.402 138.425 240.793 137.307 240.204L137.283 240.191L137.158 240.126C136.591 241.316 136.015 242.559 135.506 243.658L135.423 243.838L136.073 244.534L136.198 244.668L136.221 244.694C137.02 245.546 137.844 246.429 138.647 247.306C138.234 247.155 137.822 247.003 137.411 246.849L137.295 246.804L137.266 246.793C136.522 246.517 135.747 246.231 134.994 245.961C135.61 247.93 138.297 248.519 141.142 249.142C143.078 249.414 144.94 250.066 146.623 251.062C148.771 253.74 148.647 259.293 148.63 259.328V283.763C148.63 283.788 148.63 283.813 148.63 283.837V283.874C148.63 283.946 148.63 284.017 148.63 284.091H101.026C101.026 284.03 101.033 283.974 101.036 283.912C101.04 283.85 101.042 283.812 101.045 283.761C102.108 269.033 103.062 255.94 103.96 243.74C101.714 249.264 99.786 254.913 98.185 260.657V260.666C97.1656 264.07 96.1124 267.59 94.9388 270.986C94.5111 275.231 94.302 279.496 94.3122 283.763V284.092L94.3052 284.093ZM216.256 284.093H150.976C150.982 283.984 150.982 283.873 150.976 283.764C150.976 280.032 150.976 276.175 150.969 272.377C150.96 271.174 150.976 269.958 150.991 268.782C151.095 265.809 151.004 262.831 150.719 259.869C152.386 260.373 154.065 260.931 155.69 261.471H155.702L155.794 261.501L155.434 261.674L154.602 262.074C154.644 268.311 157.043 274.22 161.017 277.879C163.63 275.029 166.461 271.637 166.95 267.442C168.521 263.427 168.911 259.046 168.071 254.817C167.249 254.098 166.366 253.453 165.431 252.889C163.361 251.554 161.223 250.174 160.938 247.385C159.98 241.994 156.595 237.63 153.408 234.073C153.472 233.174 153.543 232.346 153.627 231.541C154.077 228.045 154.639 224.503 155.184 221.078V221.043C155.285 220.406 155.386 219.769 155.487 219.132C161.799 211.094 167.832 202.619 173.666 194.424L173.682 194.402C177.674 188.81 181.798 183.019 185.973 177.417C187.407 178.135 188.913 178.778 190.507 179.459C196.291 181.931 202.272 184.486 204.525 190.61C207.293 197.242 209.452 204.113 210.976 211.136C214.724 226.849 217.033 242.872 217.873 259.004C217.836 262.277 217.848 265.596 217.857 268.809V268.991C217.864 271.008 217.871 273.094 217.866 275.145C217.836 275.474 217.808 275.807 217.78 276.143V276.182C217.695 278.763 217.227 281.317 216.392 283.761C216.354 283.867 216.31 283.976 216.259 284.091L216.256 284.093ZM193.526 240.628C193.492 245.352 193.871 250.141 194.236 254.773L194.245 254.879C194.361 256.333 194.478 257.838 194.581 259.314C195.419 260.175 196.483 260.783 197.651 261.067C198.198 261.247 198.734 261.46 199.256 261.704C198.6 259.288 197.95 256.86 197.285 254.379L197.257 254.275C196.056 249.795 194.815 245.163 193.529 240.625V240.636L193.526 240.628Z" fill="#A5C5FA"/>
<path d="M193.573 75.4327L193.546 75.0107C192.484 81.1688 200.838 81.4131 203.073 85.4541C199.941 87.3993 196.618 89.0206 193.512 91.0055C193.629 85.8165 193.927 80.6147 193.572 75.4316" fill="black"/>
<path d="M144.234 203.728C147.346 207.196 154.625 208.754 157.506 204.341C157.17 209.32 156.049 214.192 155.489 219.137C154.836 223.271 154.157 227.398 153.618 231.545C149.781 232.027 145.669 232.356 142.219 230.239C142.416 228.084 142.561 225.927 142.72 223.778C143.274 217.098 143.841 210.419 144.231 203.727" fill="white"/>
<path d="M141.645 234.031C143.181 235.268 145.029 236.058 146.986 236.314C148.942 236.57 150.931 236.282 152.734 235.482C152.833 237.923 152.734 240.368 152.437 242.794C148.877 240.611 145.409 238.297 141.974 235.924C141.889 235.456 141.73 234.506 141.645 234.031Z" fill="white"/>
<path d="M112.548 107.161C134.181 96.5653 161.431 94.9825 182.299 108.262C182.247 112.779 181.231 117.196 180.559 121.639C181.363 121.639 182.174 121.639 182.991 121.626C179.846 121.304 177.321 123.07 175.488 125.424C173.536 117.943 171.789 110.411 169.922 102.908C156.136 110.319 139.797 107.584 124.968 105.737C123.373 113.365 121.672 120.967 120.036 128.583C118.725 127.648 117.412 126.712 116.113 125.777C114.307 119.699 113.885 113.335 112.547 107.164" fill="#D8D8D8"/>
<path d="M124.969 105.741C139.798 107.587 156.136 110.324 169.924 102.913C171.794 110.416 173.537 117.952 175.489 125.429C177.322 123.075 179.847 121.308 182.993 121.631C188.966 125.581 183.975 136.071 177.184 134.791C176.188 146.402 171.362 159.964 159.23 163.907C159.085 166.254 159.092 168.602 159.178 170.949C155.809 173.883 152.545 177.144 148.635 179.316C144.784 176.784 141.415 173.588 137.775 170.783C137.736 168.218 137.696 165.647 137.618 163.082C127.655 159.092 122.156 148.669 120.04 138.66C114.212 140.203 108.851 132.977 111.403 127.781C112.227 125.975 114.442 126.008 116.117 125.783C117.416 126.726 118.728 127.663 120.04 128.589C121.672 120.972 123.374 113.37 124.969 105.741Z" fill="#EAEAEA"/>
<path d="M152.63 233.71C152.822 233.803 153.215 233.988 153.409 234.08C156.864 237.937 160.008 242.156 160.938 247.392C161.347 251.414 165.54 252.456 168.068 254.823C168.908 259.052 168.519 263.433 166.947 267.447C163.262 265.41 159.817 262.845 155.791 261.507C154.103 260.947 152.415 260.386 150.714 259.87C150.082 259.693 149.455 259.52 148.829 259.363C145.248 258.249 141.787 256.489 137.982 256.344C134.818 253.951 136.057 249.367 134.988 245.959C136.207 246.394 137.421 246.855 138.647 247.304C137.579 246.135 136.497 244.99 135.423 243.836C135.997 242.597 136.57 241.357 137.157 240.123C138.343 240.75 139.531 241.376 140.743 241.976C139.787 240.842 138.798 239.755 137.809 238.66C138.086 237.157 138.369 235.646 138.653 234.143C139.556 234.558 140.464 234.974 141.377 235.389C141.442 235.047 141.574 234.373 141.641 234.038C141.726 234.512 141.885 235.462 141.97 235.93C145.406 238.304 148.874 240.618 152.434 242.8C152.73 240.375 152.83 237.93 152.731 235.488C152.704 235.047 152.651 234.163 152.625 233.715" fill="#C6C8CB"/>
<path d="M137.613 163.075C137.693 165.639 137.73 168.211 137.771 170.776C141.411 173.59 144.785 176.782 148.63 179.309C152.541 177.139 155.804 173.876 159.173 170.942C159.918 170.842 160.669 170.75 161.428 170.658C163.004 168.864 165.114 167.684 166.829 166.043C170.085 167.79 173.66 168.819 176.999 170.388C170.893 177.482 165.085 184.833 159.032 191.968C157.186 189.923 155.386 187.84 153.612 185.737C152.017 183.825 150.401 181.939 148.713 180.119C147.077 182.005 145.44 183.884 143.834 185.795C142.074 187.866 140.296 189.919 138.5 191.953C132.408 184.8 126.467 177.508 120.52 170.229C123.941 168.826 127.541 167.829 130.806 166.055C132.317 167.486 134.103 168.58 135.606 170.03C136.093 170.063 137.064 170.135 137.551 170.168C137.636 167.801 137.631 165.434 137.611 163.066" fill="#DEDFE3"/>
<path d="M108.472 173.902C112.29 172.307 116.285 171.186 120.181 169.811L120.524 170.24C126.471 177.519 132.412 184.811 138.505 191.965C140.306 189.934 142.084 187.881 143.838 185.807C145.349 187.759 146.872 189.697 148.441 191.603C150.148 189.632 151.849 187.667 153.617 185.747C155.39 187.851 157.19 189.935 159.036 191.978C165.089 184.847 170.897 177.492 177.003 170.398L177.353 169.989C180.736 171.894 184.553 172.95 187.778 175.118C187.164 175.883 186.559 176.638 185.965 177.42C175.678 191.226 166.113 205.607 155.484 219.143C156.043 214.198 157.164 209.324 157.501 204.348C153.638 202.244 147.908 200.589 144.229 203.734C143.84 210.426 143.273 217.106 142.719 223.785C131.701 208.403 121.455 192.466 110.654 176.932C109.929 175.919 109.199 174.91 108.465 173.906" fill="#C6C8CB"/>
<path d="M148.715 180.127C150.403 181.947 152.019 183.833 153.614 185.745C151.847 187.663 150.146 189.628 148.438 191.6C146.869 189.695 145.346 187.757 143.836 185.805C145.439 183.892 147.073 182.012 148.715 180.127Z" fill="#D8D8D8"/>
<path d="M141.645 234.032C141.878 232.773 142.086 231.507 142.229 230.241C145.677 232.358 149.792 232.029 153.629 231.547C153.541 232.391 153.468 233.235 153.411 234.079C153.219 233.987 152.827 233.802 152.633 233.709C152.66 234.158 152.712 235.041 152.738 235.483C150.934 236.283 148.945 236.571 146.989 236.315C145.033 236.059 143.185 235.269 141.648 234.032" fill="#C6C8CB"/>
<path d="M144.238 203.732C147.917 200.587 153.647 202.242 157.511 204.346C154.629 208.756 147.35 207.201 144.238 203.732Z" fill="#D2D3D5"/>
<path d="M150.968 272.376C150.974 276.174 150.976 279.97 150.975 283.763C150.981 283.873 150.981 283.983 150.975 284.093H148.628C148.621 283.976 148.628 283.875 148.628 283.763V269.08C148.528 265.849 149.329 262.276 147.289 259.467L148.832 259.361C149.459 259.519 150.085 259.691 150.718 259.869C151.032 264.03 151.115 268.206 150.968 272.376Z" fill="#C6C8CB"/>
<path d="M154.594 262.078C154.891 261.933 155.483 261.649 155.787 261.504C159.81 262.842 163.258 265.407 166.944 267.445C166.462 271.565 163.72 274.926 161.01 277.882C156.698 273.908 154.633 267.841 154.594 262.078Z" fill="#C6C8CB"/>
<path d="M87.7551 84.4889C107.482 72.1316 127.276 59.8744 147.135 47.7173C159.795 55.9853 172.599 64.0358 185.199 72.4032C185.694 72.7546 186.195 73.0975 186.702 73.4318C188.858 74.8428 191.034 76.2373 193.256 77.5465C193.451 82.4309 193.365 87.3224 192.999 92.197C190.092 93.581 187.441 95.4537 184.487 96.7395C182.812 92.7172 182.239 88.1618 179.331 84.7332C173.819 77.1047 164.269 73.9392 155.226 73.2471C145.56 72.4756 135.386 72.6931 126.412 76.775C122.05 79.0539 118.456 82.5676 116.08 86.8771C114.26 89.9561 114.452 93.761 112.605 96.826C104.29 92.778 95.9821 88.71 87.7539 84.4901" fill="#303030"/>
<path d="M185.195 72.406C186.758 70.3884 188.07 67.6589 190.806 67.0791C194.617 67.6133 194.611 72.4855 195.014 75.4394C195.365 80.6214 195.074 85.8244 194.955 91.0133C196.286 99.5256 198.111 108.038 197.909 116.721C198.133 117.578 197.207 117.822 196.702 118.241C196.505 119.236 196.742 120.615 195.397 120.805C195.377 120.39 195.337 119.566 195.324 119.15C195.839 114.375 195.773 109.555 195.127 104.796C194.519 109.327 194.415 113.911 194.817 118.465C194.376 118.634 193.986 118.915 193.686 119.28C193.385 119.645 193.185 120.081 193.103 120.547C192.893 120.507 192.457 120.43 192.239 120.382C193.055 116.764 193.152 113.02 192.523 109.365C191.818 112.821 191.456 116.34 191.442 119.868L191.429 120.699C190.962 120.646 190.027 120.547 189.559 120.494C189.644 110.98 191.429 101.557 193 92.1952C193.366 87.3206 193.452 82.4291 193.258 77.5447C193.172 74.4458 193.093 71.05 190.883 68.6104C189.345 70.0848 187.945 71.6982 186.703 73.43C186.196 73.0918 185.695 72.7489 185.2 72.4013" fill="#F6BB42"/>
<path d="M186.703 73.4309C187.945 71.6991 189.344 70.0857 190.883 68.6113C193.093 71.0509 193.171 74.4467 193.257 77.5456C191.036 76.234 188.86 74.8418 186.703 73.4309Z" fill="#FFFFFE"/>
<path d="M126.412 76.7697C135.386 72.6889 145.56 72.4703 155.226 73.2418C164.265 73.9338 173.819 77.0994 179.332 84.7279C182.239 88.1565 182.813 92.713 184.488 96.7342C184.296 100.624 184.633 104.535 183.994 108.405L183.743 108.26C162.875 94.9808 135.625 96.5635 113.992 107.159L113.408 107.409C113.068 104.168 112.982 100.905 113.151 97.6507C113.013 97.4403 112.748 97.0241 112.609 96.8195C114.455 93.7534 114.265 89.9496 116.085 86.8706C118.46 82.5622 122.052 79.049 126.412 76.7697Z" fill="#303030"/>
<path d="M148.732 259.464C145.408 259.602 141.644 259.102 139.428 256.339C136.264 253.946 137.503 249.362 136.434 245.954C137.653 246.389 138.867 246.85 140.093 247.299C139.025 246.13 137.943 244.985 136.869 243.831C137.443 242.592 138.016 241.352 138.603 240.118C139.789 240.745 140.977 241.371 142.189 241.971C141.233 240.837 140.244 239.75 139.255 238.655C139.532 237.152 139.815 235.641 140.099 234.138C141.003 234.553 141.905 234.969 142.823 235.384C142.888 235.042 143.021 234.368 143.087 234.033C143.321 232.774 143.529 231.508 143.671 230.242C143.869 228.086 144.015 225.93 144.173 223.78C133.155 208.398 122.91 192.461 112.108 176.927C107.974 178.76 103.643 180.2 99.7853 182.591C95.2954 184.985 93.9698 190.306 91.8669 194.557C84.0267 215.063 81.0342 236.96 77.4537 258.499C76.8505 262.828 75.8476 267.127 75.9738 271.529C75.9671 273.449 75.8414 275.367 75.5974 277.272C75.4724 279.435 75.3473 281.604 75.2152 283.767C75.2149 283.877 75.2083 283.987 75.1953 284.097H95.7466V283.767C95.738 279.5 95.9471 275.235 96.3732 270.989C99.4908 261.962 101.647 252.461 105.399 243.746C104.416 257.084 103.445 270.425 102.484 283.768C102.477 283.885 102.472 283.986 102.465 284.098H150.07C150.063 283.981 150.07 283.88 150.07 283.768V269.074C149.971 265.843 150.771 262.27 148.732 259.461M219.314 258.999C218.462 242.868 216.154 226.846 212.417 211.131C210.902 204.105 208.744 197.234 205.968 190.605C203.099 182.812 194.113 180.761 187.414 177.411C177.128 191.222 167.562 205.6 156.934 219.139C156.282 223.274 155.603 227.401 155.064 231.548C154.978 232.392 154.906 233.236 154.846 234.08C158.302 237.937 161.446 242.156 162.376 247.392C162.785 251.414 166.978 252.455 169.506 254.823C170.346 259.051 169.957 263.432 168.385 267.447C167.905 271.568 165.161 274.928 162.452 277.885C158.139 273.91 156.076 267.843 156.036 262.081C156.332 261.936 156.926 261.652 157.229 261.507C155.542 260.947 153.853 260.386 152.152 259.87C152.466 264.032 152.55 268.207 152.402 272.378C152.409 276.175 152.411 279.971 152.409 283.765C152.415 283.874 152.415 283.984 152.409 284.094H217.69C217.736 283.989 217.783 283.877 217.822 283.765C218.726 280.978 219.223 278.076 219.299 275.147C219.312 269.77 219.246 264.387 219.306 259.006M200.693 261.703C199.157 260.938 197.069 260.674 196.017 259.316C195.582 253.105 194.916 246.868 194.965 240.623C196.952 247.637 198.783 254.68 200.693 261.703Z" fill="#303030"/>
<path d="M195.014 75.4327L194.987 75.0107C193.926 81.1688 202.279 81.4131 204.514 85.4541C201.383 87.3993 198.059 89.0206 194.953 91.0055C195.07 85.8165 195.368 80.6147 195.013 75.4316" fill="#30373F"/>
<path d="M145.675 203.728C148.787 207.196 156.066 208.754 158.948 204.341C158.611 209.32 157.49 214.192 156.93 219.137C156.278 223.271 155.599 227.399 155.06 231.545C151.222 232.027 147.111 232.356 143.66 230.239C143.858 228.084 144.003 225.927 144.162 223.778C144.716 217.098 145.283 210.419 145.672 203.727" fill="white"/>
<path d="M143.086 234.03C144.623 235.267 146.471 236.057 148.427 236.313C150.383 236.569 152.372 236.281 154.176 235.481C154.275 237.922 154.175 240.368 153.879 242.793C150.318 240.61 146.85 238.296 143.416 235.923C143.33 235.455 143.171 234.505 143.086 234.03Z" fill="white"/>
<path d="M139.422 256.343C143.227 256.488 146.688 258.248 150.269 259.362L148.726 259.468C145.402 259.606 141.638 259.105 139.422 256.342" fill="white"/>
<path d="M113.989 107.161C135.622 96.5653 162.873 94.9825 183.741 108.262C183.688 112.779 182.672 117.196 182 121.639C182.804 121.639 183.616 121.639 184.433 121.626C181.288 121.304 178.762 123.07 176.929 125.424C174.977 117.943 173.231 110.411 171.364 102.908C157.577 110.319 141.239 107.584 126.41 105.737C124.814 113.365 123.113 120.967 121.478 128.583C120.166 127.648 118.853 126.712 117.555 125.777C115.749 119.699 115.327 113.335 113.988 107.164" fill="#0D0D0D"/>
<path d="M126.411 105.741C141.239 107.587 157.577 110.324 171.365 102.913C173.236 110.416 174.978 117.952 176.931 125.429C178.763 123.075 181.288 121.308 184.434 121.631C190.407 125.581 185.416 136.071 178.626 134.791C177.63 146.402 172.803 159.964 160.672 163.907C160.527 166.254 160.534 168.602 160.619 170.949C157.25 173.883 153.986 177.144 150.076 179.316C146.226 176.784 142.857 173.588 139.217 170.783C139.177 168.218 139.137 165.647 139.059 163.082C129.096 159.092 123.597 148.669 121.481 138.66C115.653 140.203 110.292 132.977 112.844 127.781C113.668 125.975 115.883 126.008 117.558 125.783C118.857 126.726 120.17 127.663 121.481 128.589C123.113 120.972 124.815 113.37 126.411 105.741Z" fill="#FDCEBC"/>
<path d="M154.071 233.713C154.263 233.805 154.656 233.99 154.85 234.082C158.305 237.94 161.45 242.16 162.379 247.394C162.788 251.417 166.981 252.458 169.51 254.825C170.349 259.054 169.96 263.435 168.389 267.45C164.703 265.412 161.258 262.848 157.232 261.509C155.544 260.949 153.856 260.388 152.156 259.873C151.523 259.695 150.897 259.522 150.27 259.366C146.69 258.251 143.228 256.491 139.423 256.346C136.259 253.953 137.498 249.37 136.43 245.961C137.649 246.396 138.862 246.858 140.088 247.307C139.02 246.138 137.939 244.992 136.865 243.838C137.438 242.599 138.011 241.359 138.598 240.126C139.785 240.752 140.972 241.379 142.184 241.979C141.228 240.845 140.239 239.758 139.25 238.662C139.527 237.159 139.81 235.649 140.094 234.145C140.998 234.561 141.905 234.976 142.818 235.392C142.883 235.049 143.016 234.376 143.082 234.04C143.168 234.515 143.326 235.464 143.412 235.933C146.847 238.307 150.316 240.62 153.875 242.803C154.172 240.377 154.271 237.932 154.172 235.491C154.145 235.049 154.093 234.165 154.067 233.718" fill="#FDCEBC"/>
<path d="M195.123 104.795C195.769 109.554 195.836 114.374 195.321 119.149L194.814 118.462C194.412 113.909 194.516 109.326 195.123 104.795Z" fill="#FBDC9E"/>
<path d="M191.434 119.866C191.447 116.338 191.809 112.82 192.515 109.363C193.143 113.019 193.047 116.762 192.231 120.381L191.434 119.866Z" fill="#FBE0A9"/>
<path d="M139.054 163.076C139.134 165.641 139.171 168.212 139.212 170.777C142.852 173.592 146.226 176.783 150.072 179.31C153.982 177.141 157.246 173.877 160.615 170.943C161.359 170.844 162.111 170.751 162.87 170.659C164.445 168.866 166.555 167.685 168.27 166.044C171.527 167.792 175.101 168.82 178.44 170.389C172.334 177.483 166.526 184.835 160.473 191.969C158.627 189.924 156.827 187.841 155.054 185.738C153.458 183.826 151.843 181.941 150.155 180.121C148.518 182.006 146.882 183.886 145.276 185.797C143.515 187.868 141.737 189.92 139.942 191.955C133.849 184.801 127.909 177.509 121.961 170.23C125.382 168.827 128.983 167.83 132.248 166.057C133.758 167.488 135.544 168.582 137.047 170.031C137.535 170.064 138.505 170.137 138.993 170.169C139.078 167.802 139.072 165.435 139.052 163.068" fill="#DEDFE3"/>
<path d="M109.913 173.902C113.731 172.307 117.727 171.186 121.623 169.811L121.965 170.24C127.913 177.519 133.853 184.811 139.946 191.965C141.748 189.934 143.526 187.881 145.28 185.807C146.79 187.759 148.313 189.697 149.882 191.603C151.59 189.632 153.291 187.667 155.058 185.747C156.831 187.851 158.632 189.935 160.477 191.978C166.53 184.847 172.339 177.492 178.444 170.398L178.795 169.989C182.178 171.894 185.994 172.95 189.219 175.118C188.606 175.883 187.999 176.638 187.406 177.42C177.12 191.226 167.554 205.607 156.925 219.143C157.485 214.198 158.606 209.324 158.943 204.348C155.079 202.244 149.349 200.589 145.67 203.734C145.281 210.426 144.714 217.106 144.16 223.785C133.143 208.403 122.897 192.466 112.096 176.932C111.37 175.919 110.64 174.91 109.906 173.906" fill="#EB563E"/>
<path d="M150.157 180.127C151.845 181.947 153.46 183.833 155.056 185.745C153.288 187.663 151.587 189.628 149.88 191.6C148.311 189.695 146.788 187.757 145.277 185.805C146.88 183.892 148.514 182.012 150.157 180.127Z" fill="#424A54"/>
<path d="M143.086 234.032C143.32 232.773 143.528 231.507 143.67 230.241C147.119 232.358 151.234 232.029 155.07 231.547C154.982 232.391 154.909 233.235 154.853 234.079C154.661 233.987 154.268 233.802 154.074 233.709C154.101 234.158 154.154 235.041 154.179 235.483C152.376 236.283 150.387 236.571 148.431 236.315C146.474 236.059 144.626 235.269 143.089 234.032" fill="#DC4251"/>
<path d="M145.68 203.733C149.358 200.588 155.089 202.242 158.952 204.346C156.07 208.757 148.791 207.201 145.68 203.733Z" fill="#D2D3D5"/>
<path d="M152.409 272.376C152.415 276.174 152.418 279.97 152.416 283.763C152.423 283.873 152.423 283.983 152.416 284.093H150.069C150.062 283.976 150.069 283.875 150.069 283.763V269.08C149.97 265.849 150.77 262.276 148.73 259.467L150.273 259.361C150.9 259.519 151.527 259.691 152.159 259.869C152.473 264.03 152.557 268.206 152.409 272.376Z" fill="black"/>
<path d="M156.035 262.077C156.332 261.932 156.925 261.648 157.229 261.503C161.251 262.841 164.699 265.406 168.385 267.444C167.903 271.564 165.161 274.925 162.452 277.881C158.139 273.907 156.075 267.84 156.035 262.077Z" fill="black"/>
<path d="M219.311 259.004C220.116 264.354 220.114 269.795 219.304 275.145C219.316 269.768 219.251 264.385 219.311 259.004Z" fill="#545557"/>
</g>
</svg>
