<svg width="300" height="300" viewBox="0 0 300 300" fill="none" xmlns="http://www.w3.org/2000/svg">
<path d="M119.022 249.559L118.987 249.549C117.073 248.966 115.148 248.329 113.274 247.657C112.859 247.509 112.644 247.059 112.794 246.649C112.944 246.244 113.399 246.027 113.819 246.18C115.668 246.842 117.568 247.474 119.457 248.047C119.707 248.121 119.957 248.2 120.207 248.274C120.627 248.403 120.862 248.842 120.737 249.257C120.607 249.672 120.167 249.909 119.742 249.781C119.497 249.707 119.257 249.633 119.012 249.559H119.022ZM126.29 251.524C125.89 251.401 125.65 250.991 125.75 250.586C125.85 250.166 126.285 249.904 126.71 250.008C128.884 250.527 131.104 250.986 133.298 251.381C133.733 251.46 134.018 251.87 133.938 252.295C133.858 252.725 133.448 253.006 133.013 252.927C130.789 252.527 128.545 252.063 126.335 251.534C126.32 251.529 126.305 251.524 126.285 251.52L126.29 251.524ZM107.011 245.217C106.986 245.207 106.956 245.202 106.931 245.187C104.846 244.308 102.762 243.355 100.738 242.362C100.343 242.169 100.183 241.695 100.378 241.305C100.573 240.915 101.053 240.761 101.447 240.954C103.447 241.937 105.501 242.876 107.561 243.74C107.966 243.913 108.15 244.372 107.981 244.772C107.821 245.148 107.396 245.33 107.011 245.212V245.217ZM139.621 253.92C139.256 253.811 139.017 253.456 139.062 253.07C139.116 252.641 139.511 252.335 139.951 252.389C142.171 252.661 144.425 252.868 146.649 253.011C147.089 253.036 147.419 253.416 147.394 253.846C147.369 254.276 146.984 254.607 146.549 254.577C144.29 254.429 142.006 254.221 139.756 253.94C139.706 253.935 139.661 253.925 139.621 253.91V253.92ZM94.8793 239.26C94.8244 239.24 94.7694 239.22 94.7194 239.191C92.75 238.079 90.7905 236.899 88.8911 235.684C88.5212 235.447 88.4162 234.958 88.6562 234.597C88.8961 234.236 89.3909 234.128 89.7558 234.37C91.6253 235.57 93.5597 236.736 95.4992 237.832C95.8841 238.05 96.019 238.529 95.7941 238.904C95.6041 239.23 95.2193 239.369 94.8694 239.265L94.8793 239.26ZM153.137 254.794C152.808 254.696 152.573 254.394 152.578 254.039C152.578 253.604 152.937 253.258 153.377 253.258C155.612 253.278 157.876 253.224 160.105 253.115C160.545 253.09 160.92 253.426 160.945 253.861C160.97 254.295 160.63 254.666 160.19 254.686C157.931 254.799 155.637 254.849 153.367 254.829C153.287 254.829 153.207 254.819 153.137 254.794ZM83.5177 231.959C83.4327 231.935 83.3527 231.895 83.2777 231.841C81.4533 230.512 79.6438 229.114 77.9043 227.687C77.5644 227.405 77.5194 226.911 77.7993 226.58C78.0842 226.249 78.5841 226.205 78.924 226.482C80.6435 227.894 82.423 229.267 84.2274 230.576C84.5823 230.838 84.6573 231.327 84.3974 231.678C84.1925 231.95 83.8376 232.058 83.5177 231.964V231.959ZM166.663 254.108C166.369 254.019 166.139 253.762 166.104 253.441C166.054 253.011 166.374 252.621 166.808 252.572C169.033 252.33 171.272 252.018 173.471 251.653C173.901 251.579 174.316 251.87 174.396 252.295C174.471 252.725 174.176 253.13 173.746 253.204C171.517 253.579 169.248 253.895 166.993 254.137C166.883 254.147 166.773 254.137 166.673 254.108H166.663ZM73.1007 223.399C72.9907 223.365 72.8857 223.306 72.7908 223.222C71.1362 221.69 69.5067 220.095 67.9522 218.475C67.6473 218.159 67.6623 217.665 67.9822 217.363C68.3021 217.067 68.8069 217.077 69.1118 217.393C70.6464 218.988 72.2509 220.569 73.8854 222.076C74.2054 222.372 74.2204 222.871 73.9204 223.187C73.7055 223.414 73.3856 223.483 73.1057 223.399H73.1007ZM180.015 251.85C179.75 251.771 179.54 251.559 179.47 251.277C179.37 250.858 179.64 250.433 180.065 250.334C182.234 249.835 184.418 249.267 186.558 248.64C186.978 248.516 187.422 248.753 187.547 249.168C187.672 249.583 187.432 250.023 187.013 250.146C184.848 250.779 182.634 251.361 180.429 251.865C180.285 251.9 180.145 251.89 180.015 251.85ZM63.7734 213.688C63.6334 213.644 63.4985 213.565 63.3985 213.441C61.9389 211.728 60.5093 209.944 59.1647 208.151C58.9048 207.801 58.9748 207.307 59.3297 207.05C59.6846 206.793 60.1844 206.867 60.4444 207.218C61.774 208.986 63.1786 210.745 64.6181 212.439C64.9031 212.77 64.8581 213.269 64.5182 213.545C64.3032 213.723 64.0183 213.768 63.7684 213.693L63.7734 213.688ZM192.971 248.052C192.741 247.983 192.546 247.81 192.451 247.568C192.301 247.158 192.511 246.713 192.926 246.56C195.025 245.805 197.125 244.98 199.164 244.105C199.569 243.933 200.039 244.115 200.214 244.51C200.389 244.911 200.204 245.37 199.804 245.548C197.734 246.437 195.605 247.277 193.481 248.037C193.311 248.096 193.131 248.101 192.971 248.052ZM55.6907 202.94C55.5208 202.886 55.3608 202.777 55.2559 202.614C54.0162 200.737 52.8216 198.796 51.7069 196.855C51.492 196.475 51.6219 195.995 52.0068 195.783C52.3917 195.571 52.8766 195.699 53.0965 196.079C54.1962 197.996 55.3708 199.907 56.5955 201.76C56.8354 202.125 56.7304 202.609 56.3605 202.846C56.1506 202.975 55.9107 203.005 55.6907 202.94ZM205.362 242.737C205.162 242.678 204.987 242.54 204.887 242.347C204.687 241.962 204.842 241.488 205.232 241.29C207.222 240.287 209.196 239.21 211.111 238.089C211.49 237.867 211.98 237.99 212.205 238.366C212.43 238.741 212.305 239.225 211.93 239.443C209.991 240.579 207.981 241.67 205.962 242.688C205.767 242.787 205.557 242.796 205.362 242.737ZM49.0227 191.293C48.8177 191.229 48.6378 191.091 48.5428 190.883C47.5481 188.868 46.6084 186.798 45.7536 184.734C45.5887 184.333 45.7836 183.874 46.1885 183.711C46.5934 183.548 47.0582 183.741 47.2282 184.141C48.0729 186.171 48.9977 188.216 49.9774 190.202C50.1673 190.592 50.0074 191.061 49.6075 191.254C49.4176 191.343 49.2076 191.352 49.0277 191.298L49.0227 191.293ZM216.994 235.926C216.824 235.876 216.674 235.773 216.574 235.615C216.329 235.254 216.419 234.765 216.779 234.523C218.628 233.278 220.448 231.964 222.197 230.611C222.542 230.344 223.047 230.403 223.317 230.744C223.592 231.085 223.527 231.579 223.182 231.846C221.408 233.219 219.553 234.553 217.684 235.812C217.474 235.955 217.224 235.98 216.999 235.911V235.921L216.994 235.926ZM43.8892 178.925C43.6542 178.851 43.4493 178.673 43.3643 178.426C42.6395 176.302 41.9797 174.134 41.3999 171.975C41.2899 171.555 41.5398 171.125 41.9647 171.017C42.3896 170.908 42.8295 171.155 42.9394 171.575C43.5093 173.699 44.1591 175.833 44.8689 177.927C45.0088 178.337 44.7839 178.787 44.369 178.92C44.2041 178.974 44.0341 178.969 43.8842 178.92L43.8892 178.925ZM227.646 227.716C227.511 227.677 227.386 227.598 227.286 227.489C226.991 227.163 227.021 226.669 227.346 226.378C229.01 224.911 230.645 223.37 232.199 221.804C232.509 221.498 233.009 221.488 233.324 221.794C233.639 222.1 233.644 222.594 233.339 222.905C231.76 224.496 230.1 226.062 228.406 227.553C228.191 227.741 227.896 227.795 227.641 227.721L227.646 227.716ZM40.4252 166.013C40.1553 165.929 39.9303 165.707 39.8753 165.411C39.4405 163.213 39.0756 160.98 38.7956 158.767C38.7407 158.337 39.0506 157.942 39.4854 157.893C39.9253 157.838 40.3202 158.145 40.3802 158.574C40.6601 160.753 41.015 162.951 41.4449 165.114C41.5299 165.539 41.2449 165.954 40.8151 166.038C40.6801 166.063 40.5501 166.058 40.4302 166.018L40.4252 166.013ZM237.108 218.173C237.003 218.144 236.913 218.094 236.828 218.015C236.493 217.734 236.453 217.235 236.738 216.909C238.193 215.235 239.597 213.491 240.927 211.728C241.192 211.382 241.687 211.308 242.042 211.565C242.396 211.821 242.471 212.315 242.207 212.666C240.857 214.459 239.422 216.227 237.953 217.926C237.738 218.169 237.408 218.257 237.108 218.169V218.173ZM38.7307 152.78C38.4208 152.687 38.1858 152.41 38.1658 152.074C38.0359 149.846 37.9809 147.584 38.0059 145.352C38.0109 144.917 38.3708 144.571 38.8106 144.576C39.2505 144.581 39.6054 144.937 39.6004 145.371C39.5754 147.569 39.6304 149.792 39.7554 151.985C39.7804 152.42 39.4455 152.79 39.0056 152.815C38.9056 152.825 38.8156 152.815 38.7257 152.78H38.7357H38.7307ZM245.181 207.46C245.111 207.44 245.046 207.41 244.986 207.371C244.616 207.134 244.506 206.65 244.741 206.284C245.94 204.432 247.095 202.52 248.165 200.594C248.375 200.214 248.86 200.075 249.249 200.283C249.634 200.49 249.779 200.969 249.569 201.35C248.485 203.311 247.31 205.257 246.09 207.134C245.89 207.435 245.521 207.559 245.186 207.46H245.181ZM38.8806 139.444C38.5307 139.335 38.2908 138.999 38.3208 138.629C38.5007 136.401 38.7657 134.149 39.1006 131.941C39.1655 131.511 39.5704 131.215 40.0053 131.284C40.4402 131.348 40.7401 131.748 40.6751 132.178C40.3452 134.351 40.0853 136.564 39.9053 138.757C39.8703 139.192 39.4854 139.513 39.0456 139.479C38.9856 139.474 38.9306 139.464 38.8756 139.449L38.8806 139.444ZM251.679 195.753C251.644 195.744 251.609 195.734 251.579 195.714C251.179 195.531 251.004 195.067 251.184 194.672C252.114 192.681 252.988 190.621 253.783 188.567C253.938 188.162 254.398 187.954 254.808 188.112C255.218 188.265 255.428 188.72 255.273 189.125C254.468 191.214 253.578 193.303 252.633 195.329C252.464 195.689 252.054 195.862 251.679 195.748V195.758V195.753ZM40.885 126.251C40.4902 126.132 40.2502 125.732 40.3402 125.327C40.8301 123.149 41.3999 120.961 42.0447 118.812C42.1697 118.397 42.6095 118.16 43.0344 118.284C43.4643 118.392 43.6992 118.842 43.5743 119.262C42.9394 121.376 42.3796 123.529 41.8997 125.673C41.8048 126.098 41.3799 126.364 40.95 126.266C40.93 126.261 40.91 126.256 40.89 126.246L40.885 126.251ZM256.472 183.291C256.052 183.163 255.813 182.723 255.943 182.313C256.592 180.204 257.172 178.055 257.672 175.917C257.772 175.492 258.197 175.23 258.627 175.329C259.062 175.428 259.327 175.848 259.227 176.272C258.722 178.446 258.127 180.634 257.472 182.778C257.342 183.192 256.897 183.425 256.477 183.301H256.472V183.291ZM44.7089 113.453C44.7089 113.453 44.6789 113.443 44.6639 113.438C44.2541 113.29 44.0391 112.83 44.1941 112.425C44.9788 110.331 45.8536 108.237 46.7833 106.202C46.9633 105.807 47.4381 105.629 47.838 105.811C48.2429 105.989 48.4178 106.454 48.2379 106.849C47.3232 108.849 46.4684 110.909 45.6936 112.974C45.5487 113.364 45.1138 113.576 44.7139 113.453H44.7089ZM259.501 170.281C259.127 170.167 258.887 169.797 258.947 169.407C259.292 167.233 259.571 165.025 259.766 162.837C259.806 162.402 260.191 162.086 260.631 162.126C261.071 162.165 261.391 162.546 261.356 162.98C261.156 165.203 260.876 167.451 260.521 169.658C260.456 170.088 260.041 170.38 259.606 170.31C259.566 170.301 259.531 170.296 259.497 170.286L259.501 170.281ZM50.2723 101.297C50.2223 101.282 50.1723 101.262 50.1274 101.238C49.7425 101.035 49.5925 100.556 49.8024 100.171C50.8721 98.2048 52.0268 96.2537 53.2364 94.357C53.4714 93.9914 53.9662 93.8778 54.3361 94.11C54.711 94.3421 54.821 94.8311 54.5861 95.1917C53.3964 97.0539 52.2617 98.9753 51.207 100.912C51.0221 101.247 50.6322 101.401 50.2723 101.287V101.297ZM260.696 156.999C260.366 156.895 260.126 156.589 260.136 156.233C260.181 154.045 260.141 151.817 260.036 149.619C260.011 149.185 260.351 148.814 260.791 148.794C261.231 148.775 261.606 149.11 261.626 149.54C261.741 151.773 261.776 154.035 261.731 156.263C261.721 156.697 261.361 157.043 260.921 157.033C260.846 157.033 260.771 157.018 260.701 156.999H260.696ZM57.4802 90.0004C57.3952 89.9757 57.3153 89.9362 57.2453 89.8818C56.8904 89.625 56.8104 89.136 57.0703 88.7853C58.4049 86.9824 59.8195 85.2042 61.2841 83.4902C61.569 83.1543 62.0689 83.1148 62.4088 83.3964C62.7487 83.6779 62.7887 84.1719 62.5038 84.5028C61.0642 86.1921 59.6696 87.9406 58.355 89.7139C58.145 89.9905 57.7951 90.0992 57.4752 90.0004H57.4802ZM260.021 143.677C259.726 143.588 259.501 143.331 259.462 143.015C259.202 140.837 258.862 138.634 258.452 136.466C258.372 136.041 258.657 135.626 259.087 135.547C259.521 135.468 259.936 135.749 260.016 136.174C260.431 138.372 260.776 140.61 261.046 142.828C261.101 143.257 260.786 143.647 260.351 143.702C260.236 143.717 260.126 143.702 260.021 143.672V143.677ZM66.1927 79.7857C66.0777 79.7511 65.9677 79.6869 65.8778 79.598C65.5579 79.2966 65.5529 78.7978 65.8578 78.4866C67.4273 76.8813 69.0718 75.3105 70.7514 73.7991C71.0763 73.5076 71.5811 73.5323 71.876 73.8534C72.1709 74.1745 72.146 74.6733 71.821 74.9648C70.1665 76.4466 68.542 77.9976 67.0024 79.5782C66.7875 79.8005 66.4726 79.8696 66.1927 79.7857ZM257.537 130.563C257.282 130.484 257.072 130.281 256.997 130.005C256.442 127.881 255.808 125.737 255.113 123.638C254.973 123.228 255.203 122.783 255.623 122.645C256.043 122.507 256.492 122.734 256.632 123.149C257.342 125.283 257.982 127.451 258.547 129.615C258.657 130.034 258.402 130.464 257.972 130.573C257.822 130.607 257.677 130.602 257.542 130.563H257.537ZM76.2048 70.8157C76.0548 70.7712 75.9199 70.6823 75.8149 70.5539C75.54 70.218 75.5999 69.7191 75.9398 69.4474C77.7093 68.0595 79.5488 66.7159 81.4133 65.4366C81.7732 65.1897 82.273 65.2786 82.5229 65.6342C82.7729 65.9898 82.6829 66.4788 82.323 66.7308C80.4885 67.9854 78.6741 69.319 76.9346 70.6774C76.7196 70.8453 76.4497 70.8848 76.2048 70.8107V70.8157ZM253.323 117.859C253.103 117.79 252.908 117.632 252.813 117.399C251.984 115.359 251.079 113.314 250.114 111.319C249.924 110.929 250.094 110.459 250.489 110.272C250.884 110.084 251.364 110.252 251.554 110.642C252.529 112.667 253.458 114.742 254.298 116.812C254.458 117.212 254.263 117.671 253.853 117.834C253.678 117.903 253.493 117.903 253.323 117.854V117.859ZM87.3165 63.209C87.1366 63.1546 86.9716 63.0361 86.8667 62.8632C86.6417 62.4878 86.7567 62.0087 87.1366 61.7864C89.071 60.6355 91.0705 59.5291 93.0799 58.4967C93.4748 58.2942 93.9496 58.4473 94.1546 58.8326C94.3595 59.2179 94.2095 59.6921 93.8147 59.8946C91.8352 60.9121 89.8608 62.0037 87.9614 63.1349C87.7564 63.2534 87.5265 63.2781 87.3165 63.2139V63.209ZM247.49 105.787C247.3 105.728 247.13 105.599 247.025 105.416C245.94 103.49 244.781 101.573 243.571 99.7113C243.331 99.3458 243.441 98.8568 243.811 98.6246C244.181 98.3925 244.676 98.4962 244.911 98.8666C246.135 100.754 247.315 102.7 248.415 104.651C248.63 105.031 248.49 105.51 248.105 105.723C247.91 105.831 247.68 105.846 247.485 105.782L247.49 105.787ZM99.3081 57.0544C99.0931 56.9902 98.9132 56.8371 98.8132 56.6198C98.6333 56.2246 98.8132 55.7554 99.2131 55.5825C101.277 54.6786 103.402 53.824 105.521 53.0436C105.936 52.8954 106.391 53.098 106.546 53.5079C106.701 53.9179 106.491 54.3674 106.076 54.5156C103.982 55.2861 101.892 56.1258 99.8579 57.0149C99.673 57.0939 99.478 57.0989 99.3031 57.0495L99.3081 57.0544ZM240.177 94.52C240.017 94.4706 239.872 94.3718 239.767 94.2335C238.453 92.4553 237.058 90.687 235.628 88.9878C235.349 88.6519 235.394 88.158 235.733 87.8814C236.073 87.6048 236.578 87.6542 236.858 87.99C238.308 89.7188 239.717 91.5069 241.057 93.3098C241.317 93.6605 241.242 94.1495 240.882 94.4063C240.672 94.5595 240.412 94.594 240.177 94.52ZM111.974 52.3966C111.729 52.3225 111.525 52.1348 111.445 51.873C111.315 51.4581 111.554 51.0185 111.969 50.89C114.129 50.238 116.343 49.6453 118.542 49.1267C118.972 49.0279 119.402 49.2847 119.507 49.7095C119.612 50.1294 119.347 50.5591 118.922 50.6579C116.753 51.1716 114.574 51.7544 112.444 52.3966C112.289 52.4459 112.124 52.441 111.979 52.3966H111.974ZM231.525 84.2064C231.395 84.1669 231.275 84.0928 231.18 83.9891C229.655 82.3789 228.061 80.7933 226.436 79.2769C226.116 78.9805 226.101 78.4816 226.406 78.1655C226.706 77.8494 227.211 77.8395 227.531 78.1359C229.175 79.677 230.795 81.2872 232.339 82.9172C232.639 83.2334 232.624 83.7323 232.299 84.0286C232.084 84.2262 231.785 84.2855 231.52 84.2015L231.525 84.2064ZM125.131 49.2847C124.851 49.2007 124.636 48.9686 124.581 48.6722C124.501 48.2474 124.791 47.8375 125.221 47.7634C127.445 47.3732 129.719 47.0422 131.969 46.7804C132.408 46.7261 132.803 47.0373 132.853 47.4719C132.908 47.9017 132.593 48.2919 132.154 48.3462C129.934 48.6031 127.695 48.9291 125.495 49.3144C125.365 49.339 125.236 49.3242 125.121 49.2897L125.131 49.2847ZM221.697 74.9944C221.598 74.9648 221.503 74.9154 221.418 74.8413C219.708 73.4237 217.939 72.0308 216.144 70.7119C215.789 70.4501 215.719 69.9562 215.984 69.6104C216.249 69.2647 216.749 69.1955 217.104 69.4524C218.918 70.7959 220.723 72.2036 222.447 73.646C222.787 73.9275 222.827 74.4214 222.547 74.7524C222.337 74.9994 222.002 75.0883 221.702 74.9994L221.697 74.9944ZM138.582 47.7239C138.272 47.63 138.042 47.3534 138.022 47.0175C137.992 46.5878 138.332 46.2124 138.767 46.1877C141.026 46.0642 143.32 46 145.585 46C146.029 46 146.379 46.3507 146.384 46.7854C146.384 47.22 146.024 47.5707 145.59 47.5707C143.355 47.5707 141.091 47.6349 138.862 47.7634C138.762 47.7683 138.667 47.7584 138.582 47.7288V47.7239ZM210.846 66.9827C210.771 66.9629 210.706 66.9283 210.641 66.8888C208.776 65.6787 206.852 64.4981 204.917 63.3868C204.532 63.1694 204.403 62.6903 204.627 62.31C204.847 61.9346 205.337 61.8062 205.717 62.0235C207.682 63.1447 209.631 64.3401 211.52 65.57C211.885 65.8071 211.99 66.2961 211.75 66.6567C211.55 66.953 211.181 67.0765 210.851 66.9728L210.846 66.9827ZM152.123 47.7337C151.778 47.63 151.538 47.304 151.563 46.9385C151.588 46.5088 151.963 46.1729 152.408 46.2025C154.667 46.3359 156.951 46.5335 159.206 46.7903C159.646 46.8397 159.955 47.2349 159.905 47.6596C159.855 48.0943 159.456 48.4006 159.021 48.3512C156.801 48.0943 154.547 47.8967 152.318 47.7733C152.253 47.7733 152.188 47.7584 152.128 47.7387L152.123 47.7337ZM199.124 60.27C199.084 60.2552 199.039 60.2453 198.999 60.2206C197.01 59.2278 194.96 58.2745 192.906 57.3952C192.501 57.2224 192.316 56.7581 192.491 56.3629C192.666 55.9628 193.136 55.785 193.541 55.9579C195.62 56.8519 197.699 57.82 199.719 58.8227C200.114 59.0203 200.269 59.4896 200.069 59.8798C199.889 60.2255 199.489 60.3885 199.124 60.2749V60.27ZM165.579 49.2798C165.199 49.1662 164.959 48.7858 165.029 48.3907C165.104 47.961 165.519 47.6745 165.949 47.7486C168.173 48.1338 170.422 48.5883 172.632 49.097C173.057 49.1958 173.327 49.6206 173.227 50.0404C173.127 50.4652 172.697 50.727 172.267 50.6233C170.087 50.1195 167.868 49.67 165.669 49.2897C165.634 49.2847 165.604 49.2798 165.574 49.2699L165.579 49.2798ZM186.703 54.9255C186.703 54.9255 186.673 54.9157 186.663 54.9107C184.083 53.9673 181.429 53.098 178.785 52.3323C178.365 52.2187 178.12 51.7742 178.24 51.3593C178.365 50.9444 178.805 50.7073 179.23 50.8258C181.904 51.6013 184.598 52.4855 187.208 53.4388C187.622 53.587 187.832 54.0463 187.682 54.4514C187.537 54.8416 187.103 55.054 186.698 54.9305L186.703 54.9255Z" fill="#969696"/>
<path d="M278 121.955C275.321 141.528 263.22 163.944 254.362 178.489C253.986 179.124 253.61 179.734 253.234 180.345C253.211 180.345 253.211 180.369 253.211 180.369L212.373 234.553L22 195.36L177.362 120.123L263.972 121.438L270.528 121.532H270.551L277.107 121.626C277.718 121.791 278 121.955 278 121.955Z" fill="#E8EFFC"/>
<path d="M254.361 178.488C259.836 163.544 247.712 126.889 242.777 127.241C247.97 124.445 257.205 122.565 263.972 121.438L270.527 121.531H270.551L277.106 121.625C277.717 121.79 277.999 121.954 277.999 121.954C275.321 141.527 263.22 163.944 254.361 178.488Z" fill="#4285F4"/>
<path d="M236.183 136.55C236.183 136.55 236.277 136.644 236.348 136.691C236.7 136.879 236.841 137.09 236.606 137.349C236.136 137.795 235.643 138.265 235.126 138.712C233.763 139.91 232.33 141.132 230.873 142.377C230.497 142.706 230.003 143.012 229.111 143.035C228.641 143.035 228.124 143.012 227.701 142.941C223.847 142.26 220.017 141.555 216.164 140.85C214.824 140.615 215.083 140.662 214.401 141.155C213.227 142.025 212.052 142.941 210.83 143.834C210.595 143.998 210.595 144.116 210.83 144.257C212.545 145.22 214.26 146.207 215.999 147.217C218.02 148.369 220.064 149.52 222.132 150.695C223.283 151.353 224.411 152.011 225.562 152.669C225.75 152.763 226.056 152.833 226.338 152.88C230.027 153.562 233.739 154.22 237.452 154.901C237.875 154.972 238.298 155.112 238.58 155.277C239.073 155.582 238.956 155.958 238.58 156.334C236.583 158.426 234.515 160.611 232.377 162.867C232.063 163.195 232.204 163.407 232.8 163.501C237.452 164.347 242.128 165.193 246.804 166.062C248.402 166.344 248.801 166.931 248.049 167.871C246.052 170.409 243.984 173.041 241.822 175.79C241.376 176.354 240.671 176.824 239.567 176.894C239.097 176.918 238.603 176.894 238.157 176.8C233.035 175.86 227.912 174.92 222.813 173.981C222.038 173.84 221.991 173.84 221.544 174.333C218.49 177.552 215.271 180.912 211.981 184.484C210.642 185.941 208.95 186.199 207.258 185.87C200.632 184.625 193.982 183.379 187.356 182.158C180.237 180.842 173.141 179.502 166.045 178.187C165.34 178.046 165.246 178.069 164.658 178.516C161.181 181.124 157.586 183.826 153.826 186.645C153.074 187.209 153.074 187.256 153.92 187.421C159.747 188.502 165.598 189.583 171.449 190.687C172.53 190.898 173.47 191.18 173.117 192.05C172.976 192.379 172.671 192.778 172.271 193.131C167.713 197.102 162.919 201.284 157.797 205.702C156.035 207.229 154.179 207.746 152.064 207.346C146.871 206.383 141.725 205.373 136.556 204.409C126.311 202.459 116.09 200.532 105.892 198.605C104.67 198.37 103.801 198.018 104.623 197.008C104.952 196.608 105.54 196.162 106.151 195.762C112.424 191.721 118.393 187.914 124.079 184.272C126.147 182.956 127.979 182.534 129.977 182.909C135.733 183.99 141.514 185.071 147.294 186.176C147.999 186.317 148.68 186.152 149.338 185.682C153.098 182.933 156.716 180.301 160.217 177.764C160.922 177.247 160.922 177.223 160.1 177.082C150.02 175.202 139.963 173.346 129.953 171.49C126.452 170.832 122.974 170.198 119.497 169.54C119.332 169.516 119.168 169.469 119.003 169.446C117.523 169.117 117.594 168.459 119.238 167.566C124.807 164.488 130.141 161.527 135.216 158.731C136.462 158.05 136.532 158.097 135.216 157.862C130.329 156.969 125.442 156.076 120.554 155.159C118.98 154.878 119.027 154.29 120.695 153.468C125.277 151.188 129.671 149.027 133.901 146.936C135.381 146.207 136.861 145.972 138.342 146.254C142.97 147.1 147.623 147.946 152.252 148.792C152.863 148.909 152.957 148.886 153.497 148.58C157.069 146.607 160.57 144.68 163.859 142.847C165.058 142.166 166.491 142.001 167.783 142.236C171.049 142.847 174.362 143.411 177.582 144.045C178.78 144.28 180.072 144.327 181.553 144.28C185.007 144.163 188.39 144.069 191.75 143.975C195.322 143.857 198.87 143.763 202.371 143.646C203.781 143.599 205.191 143.552 206.6 143.528C207.07 143.528 207.376 143.434 207.634 143.246C208.974 142.26 210.289 141.296 211.605 140.333C211.864 140.145 211.793 140.051 211.417 139.98C207.54 139.275 203.663 138.594 199.786 137.889C199.363 137.819 198.94 137.725 198.588 137.607C198.047 137.443 197.93 137.137 198.282 136.855C198.564 136.62 198.893 136.409 199.222 136.197C201.431 134.788 203.593 133.401 205.66 132.085C206.083 131.803 206.6 131.592 207.446 131.545C207.634 131.545 207.846 131.545 208.034 131.521C217.409 133.213 226.808 134.882 236.23 136.573L236.183 136.55ZM166.749 174.873C167.83 175.061 168.935 175.273 170.016 175.461C182.586 177.787 195.181 180.137 207.822 182.487C208.527 182.628 208.598 182.604 209.044 182.158C212.005 179.15 214.824 176.283 217.526 173.511C217.926 173.111 217.902 173.064 217.221 172.947C213.461 172.265 209.725 171.56 205.989 170.879C204.439 170.597 202.888 170.315 201.361 169.986C200.374 169.775 200.186 169.234 200.773 168.623C200.891 168.506 201.008 168.388 201.126 168.271C204.157 165.639 207.047 163.125 209.819 160.705C210.336 160.258 210.994 159.929 211.958 159.859C212.475 159.835 212.992 159.859 213.438 159.953C218.161 160.799 222.86 161.668 227.583 162.514C228.053 162.608 228.312 162.538 228.57 162.279C230.426 160.376 232.236 158.52 234.021 156.734C234.233 156.522 234.162 156.428 233.763 156.358C230.567 155.794 227.419 155.206 224.223 154.643C223.988 154.596 223.706 154.572 223.424 154.596C218.607 154.831 213.72 155.065 208.739 155.324C203.734 155.559 198.658 155.817 193.489 156.052C192.62 156.099 191.962 155.958 191.515 155.7C190.81 155.253 190.129 154.807 189.448 154.361C187.333 152.998 185.242 151.635 183.197 150.296C181.271 149.05 179.391 147.828 177.511 146.607C177.088 146.348 176.712 146.019 176.031 145.878C172.976 145.267 169.828 144.727 166.726 144.163C166.279 144.092 166.045 144.163 165.692 144.327C162.943 145.902 160.1 147.499 157.186 149.168C156.575 149.52 156.599 149.52 157.28 149.661C161.909 150.507 166.538 151.353 171.167 152.199C172.694 152.481 172.812 152.951 171.543 153.773C169.358 155.183 167.125 156.616 164.823 158.073C163.413 158.966 161.98 159.906 160.499 160.822C159.512 161.433 158.502 161.762 157.421 161.762C156.904 161.762 156.434 161.692 155.988 161.621C151.006 160.705 146.049 159.788 141.091 158.896C140.315 158.755 140.292 158.755 139.54 159.201C135.31 161.598 130.916 164.088 126.311 166.697C125.465 167.19 125.465 167.19 126.311 167.354C139.751 169.845 153.239 172.359 166.773 174.85L166.749 174.873ZM182.962 146.043C183.197 146.231 183.362 146.395 183.597 146.536C184.607 147.17 185.665 147.828 186.698 148.463C188.132 149.379 189.589 150.296 191.045 151.212C192.22 151.94 193.419 152.692 194.593 153.444C194.946 153.679 195.298 153.891 196.144 153.82C196.92 153.773 197.695 153.75 198.47 153.726C201.173 153.609 203.851 153.491 206.506 153.374C207.963 153.303 209.443 153.233 210.9 153.162C213.344 153.045 215.764 152.927 218.161 152.833C218.631 152.833 219.101 152.786 219.665 152.763C219.571 152.669 219.524 152.622 219.453 152.598C218.302 151.94 217.151 151.282 216.023 150.625C214.871 149.943 213.743 149.262 212.592 148.604C211.746 148.11 210.853 147.64 210.007 147.147C209.021 146.583 208.104 145.996 207.117 145.432C206.953 145.338 206.6 145.267 206.295 145.267C205.308 145.267 204.298 145.314 203.287 145.338C200.961 145.408 198.635 145.502 196.285 145.596C194.429 145.667 192.549 145.737 190.646 145.808C188.649 145.878 186.628 145.925 184.607 145.972C184.09 145.972 183.55 146.019 182.939 146.043H182.962ZM142.078 156.264C147.153 157.204 152.228 158.12 157.304 159.06C158.009 159.177 158.103 159.177 158.69 158.802C161.251 157.204 163.718 155.676 166.162 154.173C166.467 153.985 166.467 153.867 166.115 153.797C165.951 153.773 165.786 153.726 165.622 153.703C155.988 151.94 146.354 150.178 136.767 148.416C136.156 148.298 136.109 148.298 135.451 148.627C132.655 150.037 129.812 151.494 126.875 152.974C126.217 153.303 126.217 153.327 126.875 153.444C131.95 154.384 137.002 155.3 142.101 156.24L142.078 156.264ZM228.1 165.146C223.189 164.253 218.278 163.36 213.368 162.444C212.592 162.303 212.498 162.326 212.005 162.773C210.266 164.347 208.48 165.945 206.647 167.589C206.201 167.989 206.224 168.036 206.906 168.177C217.245 170.08 227.607 171.983 237.969 173.91C238.462 174.004 238.721 173.91 238.979 173.628C240.413 171.842 241.846 170.127 243.209 168.435C243.561 167.989 243.561 167.989 242.833 167.848C237.922 166.955 233.011 166.039 228.1 165.146ZM220.229 135.351C216.281 134.647 212.357 133.942 208.433 133.237C207.893 133.143 207.869 133.143 207.517 133.378C206.083 134.318 204.603 135.281 203.099 136.291C202.7 136.55 202.7 136.573 203.311 136.691C211.464 138.171 219.641 139.628 227.818 141.108C228.218 141.179 228.429 141.155 228.641 140.967C229.886 139.91 231.108 138.876 232.33 137.866C232.659 137.607 232.635 137.584 232.048 137.49C228.1 136.785 224.176 136.08 220.252 135.375L220.229 135.351ZM145.931 190.241C145.931 190.241 145.931 190.241 145.908 190.241C144.427 189.959 142.947 189.677 141.467 189.395C136.885 188.525 132.326 187.656 127.768 186.786C126.828 186.598 126.758 186.622 125.771 187.28C124.149 188.337 122.505 189.442 120.836 190.546C118.839 191.862 116.795 193.201 114.727 194.564C114.257 194.869 114.187 195.057 114.633 195.151C115.291 195.292 115.878 195.457 116.536 195.574C128.872 197.901 141.255 200.25 153.685 202.6C154.601 202.764 154.695 202.764 155.541 202.06C158.572 199.522 161.51 197.055 164.353 194.681C165.316 193.883 165.293 193.859 164.212 193.648C158.126 192.496 152.04 191.368 145.955 190.217L145.931 190.241Z" fill="black"/>
<path d="M182.965 146.066C183.576 146.043 184.093 146.019 184.633 145.996C186.654 145.949 188.675 145.902 190.672 145.831C192.552 145.761 194.431 145.69 196.311 145.62C198.661 145.526 201.011 145.455 203.313 145.362C204.324 145.338 205.334 145.291 206.321 145.291C206.626 145.291 206.979 145.362 207.143 145.455C208.13 146.019 209.047 146.583 210.033 147.171C210.879 147.664 211.772 148.134 212.618 148.628C213.769 149.286 214.874 149.967 216.049 150.648C217.177 151.306 218.328 151.964 219.479 152.622C219.55 152.669 219.573 152.716 219.691 152.787C219.127 152.81 218.657 152.834 218.187 152.857C215.79 152.975 213.37 153.092 210.926 153.186C209.469 153.257 208.013 153.327 206.532 153.397C203.877 153.515 201.199 153.632 198.496 153.75C197.721 153.773 196.946 153.797 196.17 153.844C195.324 153.914 194.972 153.679 194.619 153.468C193.421 152.716 192.246 151.988 191.071 151.236C189.591 150.319 188.158 149.379 186.724 148.487C185.69 147.829 184.633 147.194 183.623 146.56C183.411 146.419 183.247 146.254 182.988 146.066H182.965Z" fill="#F27259"/>
<path d="M142.094 156.289C137.019 155.349 131.944 154.432 126.892 153.492C126.234 153.375 126.234 153.351 126.892 153.022C129.829 151.542 132.672 150.085 135.468 148.676C136.126 148.347 136.15 148.347 136.784 148.464C146.371 150.226 156.005 151.989 165.638 153.751C165.803 153.774 165.967 153.821 166.132 153.845C166.484 153.915 166.484 154.033 166.179 154.221C163.759 155.725 161.268 157.275 158.707 158.85C158.119 159.202 158.025 159.226 157.321 159.108C152.245 158.168 147.17 157.252 142.094 156.312V156.289Z" fill="white"/>
<path d="M228.101 165.17C233.012 166.063 237.899 166.956 242.833 167.873C243.585 168.013 243.585 168.013 243.209 168.46C241.823 170.152 240.413 171.867 238.98 173.653C238.721 173.958 238.486 174.029 237.97 173.935C227.584 172.008 217.222 170.105 206.906 168.201C206.225 168.084 206.202 168.037 206.648 167.614C208.481 165.969 210.267 164.371 212.005 162.797C212.522 162.351 212.593 162.327 213.368 162.468C218.279 163.361 223.166 164.254 228.101 165.17Z" fill="white"/>
<path d="M220.243 135.376C224.167 136.081 228.114 136.785 232.038 137.49C232.626 137.608 232.649 137.608 232.32 137.866C231.122 138.877 229.877 139.911 228.631 140.968C228.42 141.156 228.185 141.179 227.809 141.109C219.632 139.629 211.455 138.148 203.301 136.691C202.714 136.574 202.69 136.551 203.09 136.292C204.594 135.305 206.051 134.342 207.507 133.378C207.86 133.143 207.883 133.143 208.424 133.237C212.348 133.942 216.295 134.647 220.219 135.352L220.243 135.376Z" fill="#FDCA53"/>
<path d="M145.969 190.264C152.054 191.416 158.14 192.544 164.226 193.695C165.307 193.906 165.307 193.93 164.367 194.729C161.524 197.125 158.586 199.569 155.555 202.107C154.709 202.812 154.615 202.812 153.699 202.647C141.293 200.298 128.886 197.971 116.55 195.622C115.892 195.504 115.305 195.316 114.647 195.199C114.201 195.105 114.271 194.917 114.741 194.611C116.809 193.248 118.853 191.909 120.85 190.593C122.519 189.489 124.163 188.408 125.785 187.327C126.772 186.669 126.866 186.646 127.782 186.834C132.34 187.703 136.922 188.573 141.481 189.442C142.961 189.724 144.441 190.006 145.922 190.288C145.922 190.288 145.922 190.288 145.945 190.288L145.969 190.264Z" fill="#00B2AF"/>
<path d="M216.799 93.2214C216.142 95.4536 215.155 97.4978 213.909 99.3071C213.063 100.552 212.1 101.68 211.019 102.667C209.962 103.654 208.787 104.547 207.542 105.322C206.907 106.074 206.32 106.826 205.756 107.602C205.192 108.4 204.605 109.223 204.041 110.092C202.772 112.066 201.691 114.016 200.798 115.943C200.469 116.624 200.187 117.306 199.929 117.987C199.929 117.987 199.905 117.987 199.835 117.987C198.965 118.246 198.049 118.41 197.132 118.481C188.18 119.092 176.925 111.22 176.925 111.22C176.925 111.22 177.183 109.787 177.301 109.058C177.583 106.92 177.747 104.664 177.724 102.338C177.724 100.294 177.583 98.3437 177.348 96.464C176.079 93.8323 175.327 90.9422 175.233 87.9581C175.163 85.7258 175.445 83.4936 176.079 81.2614C178.053 74.5648 183.058 69.5834 189.19 67.3512C189.143 67.3512 189.096 67.3512 189.049 67.3512C189.637 67.1397 190.224 66.9517 190.835 66.7637C194.501 65.7534 198.472 65.7064 202.396 66.8577C205.873 67.8681 208.881 69.7009 211.301 72.0741C216.705 77.3844 219.079 85.4204 216.799 93.1744V93.2214Z" fill="#FFCF00"/>
<path d="M194.461 128.725C187.835 128.96 181.608 127.128 175.805 123.227C174.63 122.428 174.113 120.971 174.512 119.608L175.029 117.846C182.196 121.958 189.832 124.19 197.986 124.566L197.469 126.376C197.069 127.715 195.871 128.655 194.485 128.702L194.461 128.725Z" fill="#707070"/>
<path d="M198.21 123.72C190.175 123.767 182.538 121.535 175.254 117L175.841 114.979C183.031 120.243 190.668 122.593 198.798 121.7L198.21 123.72Z" fill="#707070"/>
<path d="M198.968 121.207C190.932 121.254 183.296 119.022 176.012 114.487L176.599 112.466C183.789 117.73 191.426 120.079 199.556 119.186L198.968 121.207Z" fill="#707070"/>
<path d="M179.906 122.218L190.311 125.776L189.171 129.111C188.578 130.845 186.668 131.782 184.934 131.188L180.843 129.789C179.109 129.196 178.173 127.287 178.766 125.553L179.906 122.218Z" fill="#707070"/>
<path d="M216.812 93.2209C216.155 95.4531 215.168 97.4974 213.922 99.3066C213.076 100.552 212.113 101.68 211.032 102.667C209.975 103.701 208.8 104.593 207.555 105.345C206.944 106.074 206.356 106.826 205.769 107.601C205.205 108.4 204.618 109.222 204.054 110.092C202.785 112.066 201.704 114.016 200.811 115.943C200.482 116.624 200.2 117.305 199.942 117.987C199.942 117.987 199.918 117.987 199.848 117.987C198.978 118.245 198.062 118.41 197.145 118.48C198.038 116.577 199.989 112.864 201.257 110.891C202.362 109.175 203.537 107.601 204.759 106.168C207.249 104.617 209.434 102.573 211.126 100.129C212.372 98.2963 213.358 96.2755 214.016 94.0433C217.306 82.8117 210.844 71.0162 199.613 67.7266C196.041 66.6928 192.423 66.6223 189.062 67.3742C189.65 67.1627 190.237 66.9747 190.848 66.7868C194.514 65.7999 198.485 65.7529 202.409 66.9043C205.886 67.9146 208.894 69.7474 211.314 72.0971C216.718 77.4074 219.092 85.4434 216.812 93.1974V93.2209Z" fill="#C1A42D"/>
<path d="M130.01 173.884V180.793L129.751 180.863H26.3878C24.4376 180.863 22.8633 179.289 22.8633 177.339C22.8633 175.388 24.4376 173.814 26.3878 173.814H129.751L130.01 173.884Z" fill="#FF0000"/>
<path d="M130.013 175.576H24.7695V179.101H130.013V175.576Z" fill="black"/>
<path d="M34.6313 180.863H26.4074C24.4571 180.863 22.8828 179.289 22.8828 177.339C22.8828 175.388 24.4571 173.814 26.4074 173.814H34.6313V180.863Z" fill="#F7C5BE"/>
<path d="M34.6268 180.863H32.3711C32.5591 178.513 32.5591 176.164 32.3711 173.814H34.6268C35.0028 176.093 35.0263 178.443 34.6268 180.863Z" fill="#F4F4F4"/>
<path d="M34.0568 173.814C34.0568 174.049 33.8688 174.237 33.6338 174.237C33.4224 174.237 33.2344 174.049 33.2344 173.814H34.0568Z" fill="#D8D8D8"/>
<path d="M33.6573 177.763C33.8909 177.763 34.0803 177.574 34.0803 177.34C34.0803 177.106 33.8909 176.917 33.6573 176.917C33.4237 176.917 33.2344 177.106 33.2344 177.34C33.2344 177.574 33.4237 177.763 33.6573 177.763Z" fill="#D8D8D8"/>
<path d="M34.0568 180.863H33.2344C33.2344 180.652 33.4224 180.464 33.6573 180.464C33.8923 180.464 34.0568 180.652 34.0568 180.863Z" fill="#D8D8D8"/>
<path d="M141.553 177.339L130.016 180.793L129.758 180.863V173.814L130.016 173.884L141.553 177.339Z" fill="#F7C5BE"/>
<path d="M141.55 177.34L137.133 178.656V176.024L141.55 177.34Z" fill="black"/>
</svg>
