<svg width="37" height="36" viewBox="0 0 37 36" fill="none" xmlns="http://www.w3.org/2000/svg">
<path d="M18.1875 36C14.6274 36 11.1473 34.9443 8.18724 32.9665C5.22716 30.9886 2.92005 28.1774 1.55768 24.8883C0.195299 21.5992 -0.161161 17.98 0.533373 14.4884C1.22791 10.9967 2.94224 7.78943 5.45959 5.27209C7.97693 2.75474 11.1842 1.04041 14.6759 0.345873C18.1675 -0.348661 21.7867 0.00779915 25.0758 1.37018C28.3649 2.73255 31.1761 5.03966 33.154 7.99974C35.1318 10.9598 36.1875 14.4399 36.1875 18C36.1822 22.7723 34.2841 27.3476 30.9096 30.7221C27.5351 34.0966 22.9598 35.9947 18.1875 36ZM18.1875 2.11801C15.0463 2.11801 11.9757 3.04947 9.36394 4.79461C6.75216 6.53974 4.71652 9.02017 3.51445 11.9222C2.31238 14.8243 1.99787 18.0176 2.61068 21.0984C3.22349 24.1792 4.7361 27.0091 6.95724 29.2303C9.17838 31.4514 12.0083 32.964 15.0891 33.5768C18.1699 34.1897 21.3632 33.8751 24.2653 32.6731C27.1673 31.471 29.6478 29.4354 31.3929 26.8236C33.138 24.2118 34.0695 21.1412 34.0695 18C34.0647 13.7893 32.3899 9.75242 29.4125 6.775C26.4351 3.79758 22.3982 2.12277 18.1875 2.11801Z" fill="black"/>
<path d="M19.2628 25.0398C19.0533 25.0399 18.8485 24.9778 18.6743 24.8614C18.5 24.7451 18.3642 24.5796 18.2841 24.3861C18.2039 24.1925 18.1829 23.9796 18.2238 23.7741C18.2647 23.5686 18.3656 23.3799 18.5138 23.2318L23.7478 17.9978L18.5138 12.7638C18.4153 12.6653 18.3372 12.5484 18.2839 12.4197C18.2306 12.291 18.2031 12.1531 18.2031 12.0138C18.2031 11.8745 18.2306 11.7366 18.2839 11.6079C18.3372 11.4792 18.4153 11.3623 18.5138 11.2638C18.6123 11.1653 18.7292 11.0872 18.8579 11.0339C18.9866 10.9806 19.1245 10.9531 19.2638 10.9531C19.4031 10.9531 19.541 10.9806 19.6697 11.0339C19.7984 11.0872 19.9153 11.1653 20.0138 11.2638L25.9958 17.2458C26.0945 17.3442 26.1728 17.4611 26.2262 17.5898C26.2796 17.7185 26.3071 17.8564 26.3071 17.9958C26.3071 18.1351 26.2796 18.2731 26.2262 18.4018C26.1728 18.5305 26.0945 18.6474 25.9958 18.7458L20.0138 24.7278C19.9155 24.8263 19.7988 24.9044 19.6702 24.9576C19.5417 25.0108 19.4039 25.038 19.2648 25.0378" fill="black"/>
<path d="M25.2463 19.0555H11.1293C10.8484 19.0555 10.5791 18.9439 10.3805 18.7453C10.1819 18.5467 10.0703 18.2774 10.0703 17.9965C10.0703 17.7156 10.1819 17.4463 10.3805 17.2477C10.5791 17.0491 10.8484 16.9375 11.1293 16.9375H25.2463C25.5272 16.9375 25.7965 17.0491 25.9951 17.2477C26.1937 17.4463 26.3053 17.7156 26.3053 17.9965C26.3053 18.2774 26.1937 18.5467 25.9951 18.7453C25.7965 18.9439 25.5272 19.0555 25.2463 19.0555Z" fill="black"/>
</svg>
