<svg width="303" height="195" viewBox="0 0 303 195" fill="none" xmlns="http://www.w3.org/2000/svg">
<path d="M186.55 59.1772C189.45 59.2897 191.887 57.4925 194.064 55.8047C193.852 56.9331 193.572 58.0487 193.334 59.1739C193.228 61.3055 190.688 61.6012 189.167 62.421C188.061 61.6141 187.229 60.5178 186.483 59.3829C185.509 59.9359 184.477 60.3796 183.406 60.7107C183.631 59.5115 183.921 58.3188 184.024 57.1003C184.785 57.8687 185.461 58.8653 186.55 59.1772Z" fill="white"/>
<path d="M112.492 58.1719C114.328 58.5995 116.504 59.8083 118.228 58.4644C122.021 60.0076 124.015 63.9363 125.262 67.6045C127.03 73.385 127.599 79.4548 127.879 85.4732C128.191 93.427 128.538 101.381 128.734 109.338C128.57 109.376 128.242 109.447 128.078 109.482C126.625 109.646 125.162 109.714 123.712 109.923C124.259 102.638 124.005 95.327 124.002 88.0323C124.94 77.1368 121.973 64.6918 112.492 58.1719Z" fill="white"/>
<path d="M186.645 61.3903C187.709 61.1395 188.246 62.7149 189.146 63.1778C190.438 62.6506 191.644 61.9369 192.866 61.2617C191.602 67.2897 190.4 73.337 189.574 79.439C188.532 82.2649 187.719 85.2291 186.101 87.7947C185.635 78.9986 186.22 70.1735 186.645 61.3903Z" fill="white"/>
<path d="M187.017 98.0106C187.721 97.763 188.419 97.5026 189.12 97.2422C189.589 102.444 190.248 107.626 191.136 112.774C185.815 112.619 180.359 112.571 175.254 110.893C175.624 107.794 175.948 104.688 176.331 101.589C176.376 101.142 176.421 100.695 176.466 100.251C177.771 100.052 179.08 99.8591 180.385 99.6502C180.433 102.171 182.066 104.296 184.027 105.72C186.542 104.248 187.754 100.891 187.017 98.0106Z" fill="white"/>
<path d="M114.547 0.273778C131.049 -0.880387 147.603 1.73015 163.539 5.93208C177.498 9.35278 190.966 14.7475 205.195 17.059C208.818 17.4994 212.49 17.8917 216.132 17.3709C227.356 17.0269 238.811 18.6826 249.147 23.2092C258.155 26.9996 266.134 32.9569 272.809 40.0587C284.273 52.2305 291.796 67.6526 296.439 83.6019C302.213 103.634 304.473 125.075 300.087 145.609C297.262 159.696 291.214 173.164 282.367 184.493C281.303 185.937 280.013 187.203 279.071 188.731C273.516 188.715 267.967 188.718 262.415 188.727C262.289 151.894 262.521 115.051 262.296 78.2233C259.287 78.0594 256.258 78.0594 253.249 78.2265C253.021 115.054 253.262 151.897 253.127 188.731C251.291 188.718 249.452 188.718 247.616 188.724C247.542 145.107 247.661 101.487 247.559 57.8695C244.504 57.6766 241.434 57.712 238.38 57.8438C238.245 101.471 238.338 145.101 238.332 188.731C236.219 188.718 234.107 188.715 231.995 188.731C232.188 187.76 232.32 186.773 232.304 185.783C232.191 158.687 232.403 131.588 232.198 104.499C229.211 104.383 226.214 104.383 223.228 104.499C223.067 132.572 223.141 160.654 223.192 188.727C221.042 188.718 218.894 188.721 216.746 188.721C216.66 154.437 216.779 120.149 216.689 85.8652C213.628 85.7174 210.558 85.7559 207.497 85.8363C207.365 120.13 207.478 154.427 207.465 188.727C205.427 188.715 203.388 188.715 201.35 188.734C201.408 181.638 201.331 174.543 201.369 167.451C201.421 166.596 201.106 165.798 200.797 165.024C201.337 155.122 202.067 145.226 202.228 135.308C202.038 128.441 202.713 121.593 202.948 114.739C204.433 114.211 205.825 113.369 206.809 112.115C206.005 102.776 204.15 93.4525 204.739 84.052C205.041 81.3257 205.263 78.5963 205.575 75.8732C206.034 71.5523 208.214 67.1221 206.674 62.7948C204.6 59.3195 200.402 58.1556 196.74 57.1719C195.933 56.4549 195.065 55.8152 194.107 55.3168C193.904 53.9216 193.747 52.5166 193.547 51.1213C194.83 48.514 197.73 47.4949 199.46 45.2959C201.045 42.9104 200.427 39.8497 199.527 37.326C200.061 37.4578 200.601 37.5961 201.141 37.7279C200.382 37.0142 199.569 36.3615 198.701 35.7861C198.402 34.3683 197.945 32.9601 197.032 31.8124C197.222 32.5968 197.412 33.3845 197.592 34.1754C194.335 30.79 189.085 31.5648 185.224 33.3748C183.494 34.2686 181.318 35.2492 179.511 33.9728C179.466 36.3422 180.16 38.9045 182.472 40.0073C180.729 44.1095 180.691 49.3885 183.764 52.8735C184.237 53.9376 183.951 55.1915 184.041 56.336C182.514 56.5385 181.099 57.1397 179.81 57.9595C177.605 58.625 175.229 59.5895 174.017 61.6824C172.39 64.6273 171.47 67.8937 170.593 71.1247C168.503 79.3614 167.301 87.7846 166.101 96.1852C165.008 96.616 163.912 97.0468 162.797 97.4069C161.134 96.8186 159.376 97.6159 157.727 96.9986C156.469 96.5903 155.049 96.661 153.997 97.5258C150.001 95.9666 146.143 94.0441 142.321 92.1022C140.777 91.2503 139.08 90.4851 138.035 88.9998C135.103 85.0133 132.894 80.5638 130.525 76.2365C129.38 74.3557 129.2 72.1053 128.316 70.112C126.378 64.9745 122.822 60.4318 118.125 57.548C118.157 56.3874 118.35 55.2429 118.517 54.0984C120.272 54.2463 121.996 53.4908 122.684 51.79C123.95 49.112 124.159 45.8842 123.208 43.0743C123.057 42.4217 122.529 42.0198 121.918 41.8366C124.687 42.441 127.008 39.6793 126.284 37.0206C125.802 37.5253 125.33 38.0429 124.86 38.5606C125.77 36.2072 125.137 33.1498 122.645 32.0824C120.092 30.9411 118.009 33.5163 115.54 33.6063C112.659 33.9535 109.216 34.2686 107.326 36.7634C105.198 40.9943 106.394 47.2216 110.923 49.3853C112.325 51.6936 110.422 54.2688 109.287 56.2749C105.323 59.1266 102.831 63.4667 100.639 67.7233C97.6328 73.6549 95.0705 79.7986 92.55 85.9456C90.6885 91.6136 90.1195 97.6094 89.5858 103.522C89.7658 103.618 90.1259 103.808 90.3092 103.904C88.9878 105.017 89.1743 106.73 89.2354 108.273C87.1778 107.585 86.2583 109.588 86.3644 111.302C84.937 111.058 83.4999 110.871 82.066 110.672C82.0982 90.3115 82.0757 69.9481 82.0789 49.5878C85.7054 49.5653 89.3382 49.6843 92.9647 49.5364C93.0129 47.5913 92.9615 45.6463 93.0001 43.7012C94.6301 43.7205 96.2632 43.7495 97.89 43.5984C96.649 42.3574 94.9548 41.8044 93.4341 41.0039C81.6706 35.1302 70.0679 28.9414 58.2819 23.1095C56.2726 22.0679 54.3854 20.7626 52.1992 20.0939C71.1835 9.0345 92.521 1.58226 114.547 0.273778ZM238.688 54.886C241.064 55.558 243.598 55.1079 246.041 55.1947C247.25 55.304 247.581 53.8894 246.938 53.0696C244.504 52.8413 242.045 52.8992 239.608 52.9989C238.528 52.9281 238.534 54.1305 238.688 54.886ZM253.863 73.6967C252.905 74.2657 253.606 75.9439 254.702 75.8025C256.84 75.8475 258.994 75.9086 261.129 75.7639C262.354 75.6835 262.537 73.4877 261.148 73.5745C258.73 73.5263 256.255 73.3302 253.863 73.6967ZM208.201 80.7728C207.372 81.2839 207.581 83.0168 208.744 82.9139C211.062 82.9686 213.425 83.1325 215.724 82.8046C216.901 82.3545 216.409 80.5574 215.19 80.6731C212.866 80.6635 210.509 80.4963 208.201 80.7728ZM223.954 100.034C222.948 100.423 223.125 102.011 224.199 102.13C226.536 102.252 228.893 102.249 231.23 102.13C232.464 101.908 232.214 99.802 230.924 99.921C228.606 99.8985 226.247 99.7024 223.954 100.034Z" fill="#FAFAFA"/>
<path d="M22.3436 66.8552C29.4422 66.8005 36.589 66.5883 43.6684 66.9645C43.7937 80.7887 43.8259 94.6355 43.6523 108.46C36.5633 108.672 29.4551 108.53 22.3597 108.53C22.2247 94.6451 22.26 80.7437 22.3436 66.8552Z" fill="#EBF3FA"/>
<path d="M100.119 89.6283C100.514 88.3616 101.341 87.3038 102.18 86.3008C101.27 95.2448 100.273 104.182 99.3216 113.123C97.907 112.927 96.4924 112.724 95.0811 112.519C95.2257 111.352 95.6919 109.808 94.3963 109.117C93.734 107.789 93.4447 106.327 93.1682 104.883C92.7727 104.758 92.3805 104.632 91.9883 104.517C93.046 104.665 94.1166 104.655 95.1839 104.62C96.7432 99.5946 98.4342 94.6114 100.119 89.6283Z" fill="#EBF3FA"/>
<path d="M132.058 96.1953C133.675 97.5134 135.704 98.1211 137.71 98.5679C142.89 99.706 148.165 100.346 153.438 100.844C155.778 103.895 160.845 103.67 163.423 101.06C164.131 101.207 164.848 101.33 165.577 101.317L165.526 101.571C165.201 104.307 164.809 107.049 164.713 109.807C165.179 109.981 165.645 110.158 166.121 110.322C165.902 112.177 165.05 113.858 164.619 115.662C162.642 115.022 161.559 116.729 161.52 118.481C159.707 118.163 157.935 117.645 156.129 117.279C153.663 116.356 150.615 117.53 149.811 120.127C149.088 123.133 148.348 126.143 147.731 129.171C147.284 131.804 149.451 134.209 152.023 134.476C157.968 136.019 163.97 137.35 169.963 138.681C169.095 151.769 167.918 164.867 165.577 177.784C165.272 179.642 164.69 181.456 164.648 183.352C161.874 184.719 158.723 184.471 155.752 184.921C154.235 185.342 152.271 186.87 153.094 188.635C147.281 188.873 141.456 188.59 135.643 188.779C135.505 187.336 135.225 185.535 133.688 184.931C130.216 183.767 125.683 184.79 123.047 181.748C123.201 181.661 123.507 181.494 123.661 181.411C123.97 175.756 123.87 170.084 124.182 164.429C125.146 148.798 126.358 133.18 127.461 117.559C129.602 117.417 131.747 117.179 133.814 116.584C133.698 109.759 133.01 102.95 132.058 96.1953Z" fill="#EBF3FA"/>
<path d="M162.485 118.735C162.453 117.475 163.151 115.8 164.585 116.909C165.755 117.655 167.144 117.703 168.478 117.527C168.893 117.761 169.304 118.002 169.719 118.247C169.542 118.919 169.372 119.594 169.201 120.269C166.951 119.803 164.717 119.279 162.485 118.735Z" fill="#EBF3FA"/>
<path d="M22.3328 126.342C29.4571 126.23 36.6007 126.191 43.7218 126.365C43.725 140.221 43.8568 154.09 43.6575 167.944C36.5621 168.143 29.4506 168.005 22.3488 168.011C22.2299 154.126 22.262 140.231 22.3328 126.342Z" fill="#EBF3FA"/>
<path d="M81.8125 128.41C87.5769 129.172 93.3091 130.201 99.1025 130.728C100.405 130.937 101.655 130.365 102.674 129.6C102.362 134.544 102.243 139.579 100.826 144.366C97.151 154.538 94.2575 164.967 91.2259 175.345C90.9526 176.052 90.8594 176.872 91.5088 177.406C89.7663 178.515 88.4932 180.177 87.1686 181.727C85.5258 181.463 83.8572 181.569 82.2047 181.463C81.9089 166.411 82.1629 151.333 82.0793 136.271C81.9861 133.651 82.3333 131.001 81.8125 128.41Z" fill="#EBF3FA"/>
<path d="M185.183 144.289C186.968 157.197 188.774 170.105 190.511 183.02C189.067 183.788 187.498 184.305 185.865 184.463C185.717 183.836 185.55 183.212 185.527 182.573C185.534 173.275 185.598 163.977 185.502 154.68C184.54 154.625 183.579 154.587 182.621 154.567C183.566 151.163 184.502 147.755 185.183 144.289Z" fill="#EBF3FA"/>
<path d="M111.211 148.551C112.027 159.826 113.317 171.088 115.596 182.173C115.776 182.285 116.136 182.51 116.313 182.623C116.204 184.658 116.171 186.703 116.396 188.731C111.169 188.718 105.941 188.709 100.714 188.738C99.1901 186.558 97.1743 184.542 96.6953 181.825C97.0361 181.964 97.3833 182.102 97.7305 182.24C101.235 170.634 106.629 159.739 111.211 148.551Z" fill="#EBF3FA"/>
<path d="M176.001 181.109C176.606 183.607 176.095 186.205 176.278 188.751C175.497 188.751 174.716 188.713 173.938 188.677C174.298 187.514 174.436 186.305 174.433 185.093C174.934 183.755 175.539 182.46 176.001 181.109Z" fill="#EBF3FA"/>
<path d="M41.9583 26.5622C45.3243 24.3343 48.6968 22.1063 52.1979 20.0938C54.3841 20.7625 56.2712 22.0677 58.2806 23.1094C70.0666 28.9413 81.6693 35.13 93.4328 41.0037C94.9534 41.8043 96.6477 42.3572 97.8887 43.5982C96.2619 43.7493 94.6287 43.7204 92.9988 43.7011C86.048 43.685 79.0941 43.64 72.1434 43.7172C72.0695 45.6622 72.1048 47.604 72.137 49.5491C72.1402 50.4492 72.0662 51.3494 71.9762 52.2432C70.1469 52.5422 68.2919 52.2978 66.4594 52.5036C66.2601 54.0564 66.289 55.6221 66.3211 57.1846C66.3211 96.8345 66.3211 136.488 66.3211 176.137C66.289 177.835 66.5462 179.59 65.9771 181.233C62.1289 181.426 58.2741 181.23 54.4226 181.33C53.7186 181.23 52.7541 181.519 52.2686 180.86C52.0146 179.407 52.1786 177.922 52.1529 176.459C52.1529 137.343 52.1561 98.2297 52.1529 59.1135C52.1143 56.9113 52.2815 54.6994 52.0371 52.5036C50.1821 52.3107 48.3142 52.4843 46.456 52.3268C46.3917 51.4009 46.3306 50.4718 46.3049 49.5458C46.2663 47.6137 46.3081 45.6815 46.276 43.7493C38.2708 43.5693 30.2591 43.7686 22.2539 43.6496C25.3917 40.2097 28.7481 36.9593 32.2588 33.9019L32.3971 33.918C40.4216 34.2652 48.4911 34.0595 56.5252 33.9855C51.8057 31.2818 46.8643 28.922 41.9583 26.5622Z" fill="#DCEAFF"/>
<path d="M15.1562 52.6352C16.3233 50.6516 17.5739 48.5587 19.4418 47.1602C19.4353 47.9478 19.4611 48.7387 19.4643 49.5296C19.4321 50.5133 19.5061 51.5357 19.1749 52.4777C17.8697 52.8635 16.4937 52.6095 15.1562 52.6352Z" fill="#DCEAFF"/>
<path d="M0.00899327 102.836C-0.119604 86.0512 4.00517 68.8159 13.6082 54.8984C13.6339 95.6318 13.605 136.368 13.6243 177.102C13.65 178.545 13.6918 179.998 13.4603 181.432C12.2869 181.525 11.1166 181.641 9.94639 181.773L9.77599 181.792C8.94975 177.568 7.80202 173.408 7.04972 169.167C5.60621 161.059 5.23649 152.819 4.36846 144.644C2.57773 130.752 -0.177473 116.902 0.00899327 102.836Z" fill="#DCEAFF"/>
<path d="M32.3945 33.9183C35.3909 31.2338 38.6701 28.8805 41.9558 26.5625C46.8618 28.9223 51.8031 31.282 56.5227 33.9858C48.4885 34.0597 40.419 34.2655 32.3945 33.9183Z" fill="#8EB6DD"/>
<path d="M19.4424 47.1592C19.9054 45.7382 21.2846 44.764 22.2523 43.6484C30.2575 43.7674 38.2691 43.5681 46.2744 43.7481C46.3065 45.6803 46.2647 47.6125 46.3033 49.5446C37.3593 49.6057 28.4089 49.6315 19.4649 49.5286C19.4617 48.7377 19.436 47.9468 19.4424 47.1592Z" fill="#8EB6DD"/>
<path d="M72.1414 43.7196C79.0921 43.6424 86.046 43.6874 92.9967 43.7035C92.9581 45.6485 93.0096 47.5936 92.9613 49.5386C89.3349 49.6865 85.702 49.5675 82.0755 49.59C78.7609 49.5643 75.4463 49.6351 72.1349 49.5515C72.1028 47.6064 72.0674 45.6646 72.1414 43.7196Z" fill="#8EB6DD"/>
<path d="M115.537 33.6081C118.006 33.5181 120.089 30.9429 122.642 32.0842C125.133 33.1516 125.767 36.209 124.857 38.5623C125.326 38.0447 125.799 37.5271 126.281 37.0224C127.004 39.6811 124.683 42.4428 121.915 41.8383C119.079 41.2757 115.34 40.8063 113.788 43.9088C113.096 43.3076 112.1 42.3399 111.261 43.2883C109.975 44.3621 111.029 45.9342 111.791 46.9598C111.531 47.7796 111.225 48.5833 110.92 49.387C106.39 47.2234 105.194 40.996 107.322 36.7652C109.213 34.2704 112.656 33.9553 115.537 33.6081Z" fill="#59493E"/>
<path d="M185.223 33.375C189.084 31.5649 194.334 30.7901 197.591 34.1755C197.411 33.3846 197.221 32.5969 197.031 31.8125C197.944 32.9602 198.401 34.3684 198.7 35.7862C199.568 36.3616 200.381 37.0143 201.14 37.728C200.6 37.5962 200.06 37.4579 199.526 37.3261C200.426 39.8499 201.044 42.9105 199.459 45.296C197.729 47.495 194.829 48.5141 193.546 51.1215C192.54 49.5268 193.148 47.8551 193.749 46.2508C192.791 45.4728 191.598 45.7364 190.637 46.344C189.923 45.0484 190.389 43.1227 188.833 42.3575C186.763 41.4573 184.397 41.2837 182.471 40.0074C180.159 38.9047 179.465 36.3424 179.51 33.9729C181.317 35.2493 183.493 34.2687 185.223 33.375Z" fill="black"/>
<path d="M100.638 67.7218C102.83 63.4653 105.322 59.1251 109.286 56.2734C110.373 56.8746 111.453 57.4919 112.495 58.167C121.975 64.6869 124.943 77.132 124.004 88.0274C124.007 95.3221 124.261 102.633 123.715 109.918C123.493 112.705 123.335 115.496 122.953 118.267C122.509 118.428 122.072 118.595 121.625 118.737C116.205 119.933 110.492 119.296 105.325 117.335C105.087 120.347 104.528 123.324 104.158 126.324C104.049 127.552 103.506 128.696 102.676 129.6C101.657 130.365 100.406 130.937 99.1043 130.728C93.3109 130.201 87.5787 129.172 81.8143 128.41C80.1361 128.14 78.4322 128.005 76.7701 127.642C74.5228 127.095 73.0439 124.671 73.478 122.414C74.0052 119.306 74.1595 116.11 74.9858 113.065C76.1078 110.223 79.4963 109.94 82.0651 110.67C83.4989 110.87 84.936 111.056 86.3635 111.3C86.2574 109.587 87.1768 107.584 89.2344 108.272C89.1476 108.581 89.0544 108.889 88.9579 109.198C87.4115 108.716 87.434 110.346 87.2669 111.394C89.5495 111.747 91.8449 112.043 94.1308 112.393C94.2561 111.628 94.3462 110.85 94.2979 110.076C93.9764 110.018 93.3335 109.902 93.012 109.844C93.0763 109.722 93.2081 109.474 93.2724 109.352C93.5553 109.291 94.1147 109.175 94.3976 109.114C95.6932 109.805 95.2271 111.349 95.0824 112.516C96.4937 112.721 97.9083 112.924 99.3229 113.12C100.275 104.179 101.271 95.2418 102.181 86.2978C101.342 87.3009 100.516 88.3586 100.12 89.6253C98.4356 94.6084 96.7445 99.5916 95.1853 104.617C94.1179 104.652 93.0473 104.662 91.9896 104.514C91.4141 104.35 90.8483 104.154 90.3082 103.903C90.1249 103.806 89.7649 103.617 89.5848 103.52C90.1185 97.608 90.6876 91.6121 92.549 85.9441C95.0695 79.7972 97.6318 73.6534 100.638 67.7218Z" fill="black"/>
<path d="M118.125 57.5469C122.822 60.4307 126.378 64.9734 128.316 70.1109C129.2 72.1041 129.381 74.3546 130.525 76.2353C132.894 80.5627 135.103 85.0121 138.035 88.9987C139.08 90.484 140.778 91.2491 142.321 92.1011C146.143 94.0429 150.001 95.9655 153.997 97.5247C154.412 98.666 154.026 99.8427 153.438 100.843C148.165 100.344 142.89 99.7044 137.71 98.5663C135.704 98.1195 133.676 97.5118 132.059 96.1937C133.01 102.948 133.698 109.758 133.814 116.583C131.747 117.178 129.602 117.416 127.461 117.557C127.683 114.866 127.834 112.169 128.082 109.478C128.246 109.443 128.574 109.372 128.738 109.333C128.541 101.376 128.194 93.4224 127.882 85.4687C127.603 79.4503 127.034 73.3805 125.265 67.6C124.018 63.9318 122.025 60.0031 118.231 58.4599C118.202 58.2317 118.151 57.7751 118.125 57.5469Z" fill="black"/>
<path d="M174.817 114.755C174.972 113.466 175.103 112.177 175.258 110.891C180.363 112.569 185.819 112.617 191.14 112.771C191.329 113.861 191.567 114.941 191.805 116.025C195.547 116.186 199.363 115.89 202.948 114.739C202.713 121.593 202.038 128.441 202.228 135.308C202.067 145.226 201.337 155.122 200.797 165.024C200.328 171.049 199.862 177.08 199.579 183.114C199.492 183.944 199.363 184.77 199.235 185.599C196.483 186.143 193.609 185.992 190.889 185.342C190.747 184.571 190.616 183.796 190.513 183.018C188.777 170.103 186.97 157.195 185.185 144.287C184.504 147.753 183.568 151.161 182.623 154.566C180.585 163.452 178.868 172.434 176.004 181.108C175.541 182.459 174.936 183.754 174.435 185.092C173.284 186.368 171.442 185.895 169.982 185.561C168.143 184.989 166.24 184.477 164.648 183.352C164.69 181.455 165.272 179.642 165.578 177.784C167.918 164.866 169.095 151.769 169.963 138.681C170.329 132.952 170.628 127.216 170.821 121.481C170.95 118.443 171.078 115.401 171.438 112.376C172.348 113.44 173.506 114.266 174.817 114.755Z" fill="black"/>
<path d="M87.1719 181.727C88.4964 180.178 89.7695 178.515 91.512 177.406C93.0199 179.133 95.0613 180.242 96.6978 181.824C97.1768 184.54 99.1926 186.556 100.716 188.736C102.24 190.588 100.845 192.848 99.3694 194.201C97.405 192.443 95.6786 190.443 93.7882 188.61C92.6019 187.434 91.4156 186.254 90.255 185.055C89.2423 183.929 88.0013 183.007 87.1719 181.727Z" fill="black"/>
<path d="M116.315 182.624C118.594 182.776 120.886 182.496 123.047 181.75C125.683 184.791 130.216 183.769 133.688 184.933C135.225 185.537 135.505 187.338 135.643 188.781C135.553 188.887 135.379 189.099 135.289 189.205C129.142 189.344 122.986 189.186 116.836 189.283C116.688 189.096 116.543 188.913 116.398 188.733C116.173 186.704 116.206 184.66 116.315 182.624Z" fill="black"/>
<path d="M182.472 40.0078C184.398 41.2841 186.764 41.4578 188.834 42.3579C190.39 43.1231 189.924 45.0488 190.638 46.3445C191.599 45.7368 192.792 45.4732 193.75 46.2512C193.149 47.8555 192.541 49.5273 193.548 51.1219C193.747 52.5172 193.904 53.9221 194.107 55.3174C194.097 55.4395 194.078 55.6807 194.068 55.8028C191.892 57.4907 189.455 59.2878 186.555 59.1753C185.465 58.8635 184.79 57.8668 184.028 57.0985C184.031 56.9088 184.038 56.5262 184.041 56.3365C183.951 55.192 184.237 53.9382 183.764 52.874C180.691 49.389 180.73 44.1101 182.472 40.0078Z" fill="#FECCA7"/>
<path d="M113.789 43.9064C115.342 40.804 119.081 41.2733 121.917 41.836C122.528 42.0192 123.055 42.4211 123.206 43.0737C124.157 45.8836 123.949 49.1114 122.682 51.7894C121.994 53.4901 120.271 54.2456 118.515 54.0978C118.348 55.2423 118.155 56.3868 118.123 57.5474C118.149 57.7757 118.2 58.2322 118.229 58.4604C116.506 59.8043 114.329 58.5955 112.494 58.1679C111.452 57.4927 110.372 56.8755 109.285 56.2743C110.42 54.2682 112.323 51.693 110.922 49.3847C111.227 48.5809 111.532 47.7772 111.793 46.9574C111.031 45.9318 109.976 44.3597 111.262 43.2859C112.101 42.3375 113.098 43.3052 113.789 43.9064Z" fill="#FECCA7"/>
<path d="M153.997 97.5257C155.048 96.6609 156.469 96.5902 157.726 96.9985C159.376 97.6157 161.134 96.8184 162.796 97.4068C162.745 98.6574 162.931 99.9048 163.423 101.059C160.845 103.669 155.778 103.895 153.438 100.844C154.026 99.8437 154.412 98.667 153.997 97.5257Z" fill="#FECCA7"/>
<path d="M90.3076 103.906C90.8478 104.157 91.4136 104.353 91.9891 104.517C92.3813 104.633 92.7735 104.758 93.1689 104.884C93.4454 106.327 93.7348 107.79 94.3971 109.118C94.1141 109.179 93.5547 109.294 93.2718 109.356C92.1209 110.67 90.4491 111.838 88.6134 111.371C88.6102 110.635 88.6937 109.896 88.9574 109.201C89.0538 108.893 89.147 108.584 89.2339 108.275C89.1728 106.732 88.9863 105.019 90.3076 103.906Z" fill="#FECCA7"/>
<path d="M166.119 110.32C167.422 110.725 168.798 110.658 170.148 110.722C170.855 112.333 170.794 114.114 170.392 115.795C170.016 115.799 169.64 115.808 169.27 115.818C169.138 116.081 169.013 116.348 168.891 116.618C168.749 116.917 168.614 117.22 168.479 117.525C167.145 117.702 165.756 117.654 164.586 116.908C164.589 116.49 164.599 116.072 164.618 115.66C165.049 113.857 165.901 112.175 166.119 110.32Z" fill="#FECCA7"/>
<path d="M19.4648 49.5312C28.4087 49.6341 37.3591 49.6084 46.3031 49.5473C46.3288 50.4732 46.3899 51.4023 46.4542 52.3283C48.3125 52.4858 50.1803 52.3122 52.0354 52.5051C52.2797 54.7009 52.1125 56.9128 52.1511 59.115C52.1543 98.2312 52.1511 137.344 52.1511 176.46C52.1768 177.923 52.0128 179.409 52.2668 180.862C52.7523 181.521 53.7168 181.231 54.4208 181.331C58.2724 181.231 62.1271 181.428 65.9754 181.235C66.5444 179.592 66.2872 177.836 66.3194 176.139C66.3194 136.489 66.3194 96.8359 66.3194 57.186C66.2872 55.6236 66.2583 54.0579 66.4576 52.5051C68.2901 52.2993 70.1451 52.5437 71.9744 52.2447C72.0645 51.3509 72.1384 50.4507 72.1352 49.5505C75.4466 49.6341 78.7612 49.5634 82.0758 49.5891C82.0726 69.9494 82.0951 90.3128 82.0629 110.673C79.4942 109.943 76.1057 110.226 74.9836 113.068C74.1574 116.113 74.0031 119.308 73.4758 122.417C73.0418 124.674 74.5207 127.098 76.7679 127.645C78.4301 128.008 80.134 128.143 81.8122 128.413C82.333 131.004 81.9858 133.653 82.079 136.274C82.1626 151.336 81.9086 166.414 82.2044 181.466C83.8569 181.572 85.5254 181.466 87.1683 181.73C87.9977 183.009 89.2387 183.932 90.2514 185.057C63.7442 185.25 37.2338 185.089 10.7265 185.138C10.3761 184.038 10.1028 182.916 9.94531 181.775C11.1156 181.643 12.2858 181.527 13.4592 181.434C13.6907 180 13.6489 178.547 13.6232 177.103C13.6039 136.37 13.6329 95.6335 13.6071 54.9002C13.9865 54.0804 14.4109 53.177 15.1567 52.6369C16.4942 52.6112 17.8701 52.8651 19.1754 52.4794C19.5066 51.5374 19.4326 50.515 19.4648 49.5312ZM22.3421 66.8566C22.2585 80.7451 22.2232 94.6466 22.3582 108.532C29.4536 108.532 36.5618 108.673 43.6508 108.461C43.8244 94.6369 43.7922 80.7902 43.6669 66.9659C36.5876 66.5897 29.4407 66.8019 22.3421 66.8566ZM22.3325 126.343C22.2618 140.231 22.2296 154.126 22.3486 168.012C29.4504 168.005 36.5618 168.143 43.6572 167.944C43.8565 154.091 43.7247 140.222 43.7215 126.365C36.6004 126.192 29.4568 126.23 22.3325 126.343Z" fill="#D0E3F4"/>
<path d="M238.684 54.8889C238.529 54.1334 238.523 52.931 239.603 53.0017C242.04 52.9021 244.499 52.8442 246.933 53.0724C247.576 53.8923 247.245 55.3068 246.036 55.1975C243.593 55.1107 241.059 55.5608 238.684 54.8889Z" fill="#D0E3F4"/>
<path d="M238.378 57.8433C241.433 57.7115 244.503 57.6761 247.557 57.869C247.66 101.486 247.541 145.107 247.615 188.724C244.519 188.746 241.423 188.746 238.33 188.73C238.337 145.1 238.243 101.47 238.378 57.8433Z" fill="#D0E3F4"/>
<path d="M253.858 73.6983C256.25 73.3317 258.726 73.5279 261.143 73.5761C262.532 73.4893 262.349 75.6851 261.124 75.7655C258.989 75.9101 256.835 75.8491 254.697 75.804C253.601 75.9455 252.9 74.2673 253.858 73.6983Z" fill="#D0E3F4"/>
<path d="M253.247 78.2274C256.256 78.0602 259.285 78.0602 262.294 78.2241C262.519 115.051 262.288 151.895 262.413 188.728C259.317 188.747 256.221 188.747 253.125 188.731C253.26 151.898 253.019 115.055 253.247 78.2274Z" fill="#D0E3F4"/>
<path d="M208.198 80.7757C210.506 80.4992 212.863 80.6664 215.187 80.676C216.405 80.5603 216.897 82.3575 215.721 82.8076C213.422 83.1355 211.059 82.9715 208.741 82.9169C207.577 83.0197 207.368 81.2869 208.198 80.7757Z" fill="#D0E3F4"/>
<path d="M207.494 85.8368C210.555 85.7564 213.625 85.7178 216.686 85.8657C216.776 120.15 216.657 154.437 216.744 188.721C213.651 188.747 210.555 188.747 207.462 188.728C207.475 154.428 207.363 120.131 207.494 85.8368Z" fill="#D0E3F4"/>
<path d="M223.951 100.034C226.243 99.7032 228.603 99.8993 230.921 99.9218C232.21 99.8029 232.461 101.909 231.226 102.13C228.889 102.249 226.533 102.253 224.195 102.13C223.122 102.012 222.945 100.423 223.951 100.034Z" fill="#D0E3F4"/>
<path d="M223.223 104.501C226.21 104.385 229.206 104.385 232.193 104.501C232.398 131.59 232.186 158.689 232.299 185.784C232.315 186.774 232.183 187.761 231.99 188.732C229.055 188.745 226.12 188.745 223.188 188.729C223.136 160.656 223.062 132.574 223.223 104.501Z" fill="#D0E3F4"/>
<path d="M182.62 154.566C183.578 154.586 184.539 154.624 185.5 154.679C185.597 163.977 185.532 173.274 185.526 182.572C185.548 183.212 185.716 183.835 185.863 184.462C184.15 184.716 182.385 184.594 180.7 185.025C179.254 185.51 177.697 186.931 178.26 188.606C177.598 188.658 176.936 188.725 176.277 188.751C176.093 186.205 176.604 183.607 176 181.109C178.865 172.435 180.581 163.453 182.62 154.566Z" fill="#D0E3F4"/>
<path d="M194.106 55.3164C195.064 55.8147 195.932 56.4545 196.739 57.1714C194.594 64.6655 192.174 72.0888 189.576 79.4349C190.402 73.3329 191.605 67.2856 192.868 61.2576C191.646 61.9328 190.441 62.6465 189.148 63.1737C188.248 62.7108 187.711 61.1355 186.647 61.3862C186.223 70.1694 185.638 78.9945 186.104 87.7906C184.278 88.9061 182.294 89.7292 180.304 90.504C179.921 80.3737 181.915 70.3013 185.274 60.7786C184.574 60.9811 183.886 61.2126 183.207 61.4666C181.674 68.5941 179.78 75.6445 178.455 82.817C177.993 84.6013 177.912 86.4724 177.295 88.2181C177.263 83.2318 177.645 78.239 177.571 73.2461C177.327 71.404 179.552 71.0696 180.433 69.8447C179.478 69.2275 178.517 68.6231 177.546 68.0347C177.996 64.614 179.121 61.3316 179.809 57.9591C181.098 57.1393 182.513 56.5381 184.04 56.3355C184.037 56.5252 184.03 56.9078 184.027 57.0975C183.924 58.316 183.635 59.5087 183.41 60.7079C184.48 60.3767 185.512 59.9331 186.486 59.3801C187.232 60.515 188.065 61.6113 189.171 62.4182C190.692 61.5984 193.231 61.3026 193.337 59.1711C193.575 58.0459 193.855 56.9303 194.067 55.8019C194.077 55.6797 194.096 55.4386 194.106 55.3164Z" fill="#24639E"/>
<path d="M190.301 96.7492C197.811 91.6695 202.608 83.5486 205.479 75.1094C205.501 75.2991 205.549 75.6816 205.572 75.8745C205.26 78.5976 205.038 81.3271 204.736 84.0534C201.232 89.4191 197.094 95.5114 190.301 96.7492Z" fill="#24639E"/>
<path d="M180.387 99.6474C182.64 99.297 184.868 98.7665 187.019 98.0078C187.755 100.888 186.543 104.245 184.029 105.717C182.068 104.293 180.435 102.168 180.387 99.6474Z" fill="#24639E"/>
<path d="M155.751 184.92C158.722 184.47 161.873 184.718 164.647 183.352C166.239 184.477 168.142 184.988 169.981 185.56C171.44 185.895 173.283 186.367 174.434 185.091C174.437 186.303 174.298 187.512 173.938 188.676C166.994 188.495 160.037 188.544 153.093 188.634C152.27 186.869 154.234 185.342 155.751 184.92Z" fill="black"/>
<path d="M185.866 184.459C187.499 184.302 189.068 183.784 190.511 183.016C190.614 183.794 190.746 184.568 190.888 185.34C193.607 185.989 196.482 186.141 199.234 185.597C199.362 184.768 199.491 183.942 199.578 183.112C199.764 184.974 199.796 186.893 199.163 188.684C192.202 188.465 185.226 188.584 178.262 188.603C177.7 186.928 179.256 185.507 180.703 185.022C182.387 184.591 184.152 184.713 185.866 184.459Z" fill="black"/>
<path d="M196.737 57.1719C200.399 58.1556 204.597 59.3195 206.671 62.7948C208.211 67.1221 206.031 71.5523 205.571 75.8732C205.549 75.6803 205.501 75.2977 205.478 75.1081C202.607 83.5473 197.811 91.6682 190.3 96.7478C197.094 95.5101 201.231 89.4178 204.736 84.052C204.147 93.4525 206.002 102.776 206.806 112.115C205.822 113.369 204.43 114.211 202.945 114.739C199.36 115.89 195.544 116.185 191.802 116.025C191.564 114.941 191.326 113.861 191.136 112.771C190.249 107.624 189.59 102.442 189.121 97.2397C188.42 97.5001 187.722 97.7605 187.018 98.0081C184.867 98.7668 182.639 99.2973 180.386 99.6477C179.08 99.8567 177.772 100.05 176.467 100.249C172.856 100.779 169.21 101.004 165.574 101.316C164.845 101.329 164.128 101.207 163.42 101.059C162.928 99.9049 162.742 98.6575 162.793 97.4069C163.909 97.0468 165.005 96.616 166.098 96.1852C167.298 87.7846 168.5 79.3614 170.59 71.1247C171.467 67.8937 172.387 64.6273 174.014 61.6824C175.226 59.5895 177.601 58.625 179.807 57.9595C179.119 61.332 177.994 64.6145 177.544 68.0352C178.514 68.6235 179.476 69.2279 180.431 69.8452C179.55 71.0701 177.325 71.4044 177.569 73.2466C177.643 78.2394 177.261 83.2322 177.293 88.2186C177.91 86.4729 177.99 84.6018 178.453 82.8175C178.19 85.7785 177.736 88.7233 177.518 91.6907C178.473 91.3596 179.389 90.9288 180.302 90.5044C182.292 89.7296 184.276 88.9066 186.102 87.791C187.719 85.2255 188.532 82.2613 189.574 79.4354C192.172 72.0892 194.592 64.6659 196.737 57.1719Z" fill="#3985CE"/>
<path d="M165.524 101.57C169.103 102.072 172.764 102.284 176.333 101.586C175.95 104.686 175.626 107.791 175.256 110.89C175.102 112.176 174.97 113.466 174.816 114.755C173.504 114.266 172.346 113.44 171.437 112.376C171.089 111.852 170.784 111.302 170.443 110.775L170.147 110.723C168.797 110.659 167.421 110.726 166.119 110.321C165.643 110.157 165.177 109.981 164.711 109.807C164.807 107.049 165.2 104.306 165.524 101.57Z" fill="#3985CE"/>
<path d="M161.52 118.48C161.559 116.728 162.642 115.021 164.619 115.661C164.6 116.072 164.591 116.49 164.587 116.908C163.153 115.799 162.456 117.474 162.488 118.734C164.719 119.278 166.953 119.802 169.204 120.268C169.374 119.593 169.545 118.917 169.722 118.246C169.307 118.001 168.895 117.76 168.481 117.525C168.616 117.22 168.751 116.918 168.892 116.619C171.48 117.159 169.812 119.834 170.821 121.48C170.628 127.215 170.329 132.951 169.963 138.68C163.97 137.349 157.968 136.018 152.023 134.475C151.104 133.189 149.895 131.88 150.223 130.15C150.638 127.022 151.528 123.968 152.239 120.895C152.644 118.95 154.486 118.017 156.129 117.278C157.936 117.644 159.707 118.162 161.52 118.48Z" fill="#3985CE"/>
<path d="M105.325 117.336C110.492 119.297 116.205 119.934 121.625 118.738C118.651 128.829 114.735 138.638 111.212 148.55C106.631 159.738 101.236 170.633 97.7317 182.239C97.3844 182.101 97.0372 181.963 96.6964 181.825C95.06 180.243 93.0185 179.134 91.5107 177.407C90.8613 176.873 90.9545 176.054 91.2278 175.346C94.2595 164.969 97.153 154.539 100.828 144.367C102.245 139.58 102.364 134.546 102.676 129.601C103.506 128.698 104.049 127.553 104.158 126.325C104.528 123.325 105.087 120.348 105.325 117.336Z" fill="#3985CE"/>
<path d="M153.092 188.635C160.037 188.545 166.994 188.497 173.938 188.677C174.716 188.712 175.497 188.751 176.279 188.751C176.938 188.725 177.6 188.658 178.262 188.606C185.226 188.587 192.202 188.468 199.162 188.687C199.889 188.722 200.619 188.735 201.349 188.735C203.387 188.715 205.425 188.715 207.463 188.728C210.556 188.748 213.652 188.748 216.745 188.722C218.893 188.722 221.04 188.719 223.191 188.728C226.123 188.744 229.058 188.744 231.993 188.732C234.106 188.715 236.218 188.719 238.33 188.732C241.423 188.748 244.519 188.748 247.615 188.725C249.451 188.719 251.29 188.719 253.125 188.732C256.221 188.748 259.317 188.748 262.413 188.728C267.965 188.719 273.514 188.715 279.07 188.732C282.114 188.76 285.159 188.732 288.204 188.748C288.396 190.86 287.348 193.017 285.471 194.039C283.937 194.914 282.124 194.702 280.436 194.721C189.662 194.718 98.8884 194.721 8.11763 194.718C5.00878 194.811 2.29215 191.795 2.80976 188.703C5.67749 188.78 8.54844 188.741 11.4162 188.725C38.8718 188.642 66.3338 188.867 93.7862 188.613C95.6766 190.445 97.4031 192.445 99.3674 194.203C100.843 192.85 102.238 190.59 100.714 188.738C105.942 188.709 111.169 188.719 116.397 188.732C116.542 188.912 116.686 189.095 116.834 189.281C122.984 189.185 129.141 189.342 135.288 189.204C135.378 189.098 135.552 188.886 135.642 188.78C141.454 188.59 147.28 188.873 153.092 188.635Z" fill="#3985CE"/>
<path d="M183.207 61.4653C183.885 61.2114 184.573 60.9799 185.274 60.7773C181.914 70.3 179.921 80.3724 180.304 90.5027C179.391 90.9271 178.474 91.3579 177.52 91.689C177.738 88.7216 178.191 85.7768 178.455 82.8158C179.78 75.6433 181.673 68.5929 183.207 61.4653Z" fill="#FDFEFF"/>
<path d="M165.579 101.317C169.215 101.006 172.861 100.78 176.471 100.25C176.426 100.694 176.381 101.141 176.336 101.587C172.767 102.285 169.106 102.073 165.527 101.571L165.579 101.317Z" fill="#24629E"/>
<path d="M149.811 120.129C150.614 117.532 153.662 116.358 156.128 117.281C154.485 118.02 152.643 118.953 152.238 120.898C151.527 123.971 150.637 127.025 150.222 130.154C149.894 131.883 151.103 133.192 152.023 134.478C149.451 134.211 147.284 131.806 147.731 129.173C148.348 126.145 149.087 123.135 149.811 120.129Z" fill="#24629E"/>
<path d="M87.2656 111.396C87.4328 110.348 87.4103 108.718 88.9567 109.2C88.6931 109.895 88.6095 110.634 88.6127 111.37C90.4484 111.837 92.1202 110.67 93.2711 109.355C93.2068 109.477 93.075 109.724 93.0107 109.847C93.3322 109.904 93.9752 110.02 94.2967 110.078C94.3449 110.853 94.2549 111.631 94.1295 112.396C91.8437 112.046 89.5482 111.75 87.2656 111.396Z" fill="#ECF3FA"/>
<path d="M123.714 109.921C125.164 109.712 126.627 109.644 128.08 109.48C127.832 112.171 127.681 114.869 127.459 117.56C126.357 133.181 125.145 148.799 124.18 164.43C123.868 170.085 123.968 175.757 123.659 181.412C123.505 181.495 123.199 181.662 123.045 181.749C120.885 182.495 118.592 182.775 116.313 182.624C116.136 182.511 115.776 182.286 115.596 182.174C113.317 171.088 112.028 159.826 111.211 148.552C114.735 138.64 118.65 128.831 121.624 118.74C122.071 118.598 122.508 118.431 122.952 118.27C123.334 115.499 123.492 112.708 123.714 109.921Z" fill="#25639F"/>
<path d="M170.148 110.723L170.443 110.774C170.784 111.301 171.09 111.851 171.437 112.375C171.077 115.4 170.948 118.442 170.82 121.48C169.81 119.834 171.479 117.159 168.891 116.619C169.013 116.349 169.138 116.082 169.27 115.818C169.64 115.809 170.016 115.799 170.392 115.796C170.794 114.114 170.855 112.333 170.148 110.723Z" fill="#F3F8FC"/>
<path d="M199.575 183.114C199.858 177.079 200.324 171.048 200.793 165.023C201.102 165.798 201.417 166.596 201.366 167.451C201.327 174.543 201.404 181.638 201.346 188.734C200.617 188.734 199.887 188.721 199.16 188.685C199.794 186.895 199.761 184.975 199.575 183.114Z" fill="#D1E4F5"/>
<path d="M10.7266 185.135C37.2338 185.087 63.7442 185.248 90.2514 185.055C91.412 186.254 92.5983 187.434 93.7846 188.61C66.3322 188.864 38.8702 188.639 11.4146 188.723C11.1702 187.53 10.9259 186.334 10.7266 185.135Z" fill="#9FC2E6"/>
</svg>
