<svg width="1920" height="344" viewBox="0 0 1920 344" fill="none" xmlns="http://www.w3.org/2000/svg">
<g clip-path="url(#clip0_147_33314)">
<path d="M1729.39 333.553C1791.27 335.622 1841.51 335.106 1874 333.553H1729.39C1604.91 329.392 1433.35 314.778 1264.5 277.131C948.5 206.676 685.5 277.131 535 277.131C384.5 277.131 309.5 250.819 166.5 189.134C52.1 139.787 -242.167 202.29 -375 239.71V333.553H1729.39Z" fill="#D0DEF5"/>
<path d="M-203.382 341.186C-276.82 345.323 -336.446 344.293 -375 341.186H-203.382C-55.6633 332.865 147.936 303.636 348.324 228.341C723.337 87.4315 1035.45 228.341 1214.06 228.341C1392.66 228.341 1460.84 140.198 1651.38 52.3492C1834.5 -32.0848 2136.36 78.6602 2294 153.5V341.186H-203.382Z" fill="white"/>
</g>
<defs>
<clipPath id="clip0_147_33314">
<rect width="1920" height="344" fill="white"/>
</clipPath>
</defs>
</svg>
