<svg width="24" height="24" viewBox="0 0 24 24" fill="none" xmlns="http://www.w3.org/2000/svg">
<path d="M14.6475 4H10.8491C10.7814 4 10.7266 4.05486 10.7266 4.12253V6.45061C10.7266 6.51828 10.7814 6.57314 10.8491 6.57314H14.6475C14.7152 6.57314 14.7701 6.51828 14.7701 6.45061V4.12253C14.7701 4.05486 14.7152 4 14.6475 4Z" fill="#C4C4C4"/>
<path d="M16.8531 8.53125H10.8491C10.7814 8.53125 10.7266 8.58611 10.7266 8.65378V10.9819C10.7266 11.0495 10.7814 11.1044 10.8491 11.1044H16.8531C16.9208 11.1044 16.9756 11.0495 16.9756 10.9819V8.65378C16.9756 8.58611 16.9208 8.53125 16.8531 8.53125Z" fill="#C4C4C4"/>
<path d="M19.0586 13.0664H10.8491C10.7814 13.0664 10.7266 13.1213 10.7266 13.1889V15.517C10.7266 15.5847 10.7814 15.6395 10.8491 15.6395H19.0586C19.1263 15.6395 19.1812 15.5847 19.1812 15.517V13.1889C19.1812 13.1213 19.1263 13.0664 19.0586 13.0664Z" fill="#C4C4C4"/>
<path d="M21.8768 17.5977H10.8491C10.7814 17.5977 10.7266 17.6525 10.7266 17.7202V20.0483C10.7266 20.1159 10.7814 20.1708 10.8491 20.1708H21.8768C21.9445 20.1708 21.9994 20.1159 21.9994 20.0483V17.7202C21.9994 17.6525 21.9445 17.5977 21.8768 17.5977Z" fill="#C4C4C4"/>
<path d="M6.71375 15.8533V4.32812H4.75326V15.8533H2L5.7335 19.8478L9.46578 15.8533H6.71375Z" fill="#4285F4"/>
</svg>
