<svg width="24" height="24" viewBox="0 0 24 24" fill="none" xmlns="http://www.w3.org/2000/svg">
<path d="M14.6475 20.1758H10.8491C10.7814 20.1758 10.7266 20.1209 10.7266 20.0533V17.7252C10.7266 17.6575 10.7814 17.6026 10.8491 17.6026H14.6475C14.7152 17.6026 14.7701 17.6575 14.7701 17.7252V20.0533C14.7701 20.1209 14.7152 20.1758 14.6475 20.1758Z" fill="#C4C4C4"/>
<path d="M16.8531 15.6406H10.8491C10.7814 15.6406 10.7266 15.5858 10.7266 15.5181V13.19C10.7266 13.1223 10.7814 13.0675 10.8491 13.0675H16.8531C16.9208 13.0675 16.9756 13.1223 16.9756 13.19V15.5181C16.9756 15.5858 16.9208 15.6406 16.8531 15.6406Z" fill="#C4C4C4"/>
<path d="M19.0586 11.1094H10.8491C10.7814 11.1094 10.7266 11.0545 10.7266 10.9868V8.65877C10.7266 8.59109 10.7814 8.53624 10.8491 8.53624H19.0586C19.1263 8.53624 19.1812 8.59109 19.1812 8.65877V10.9868C19.1812 11.0545 19.1263 11.1094 19.0586 11.1094Z" fill="#C4C4C4"/>
<path d="M21.8768 6.57422H10.8491C10.7814 6.57422 10.7266 6.51936 10.7266 6.45169V4.12361C10.7266 4.05594 10.7814 4.00108 10.8491 4.00108H21.8768C21.9445 4.00108 21.9994 4.05594 21.9994 4.12361V6.45169C21.9994 6.51936 21.9445 6.57422 21.8768 6.57422Z" fill="#C4C4C4"/>
<path d="M6.71375 8.32244V19.8477H4.75326V8.32244H2L5.7335 4.32795L9.46578 8.32244H6.71375Z" fill="#4285F4"/>
</svg>
