<svg width="300" height="278" viewBox="0 0 300 278" fill="none" xmlns="http://www.w3.org/2000/svg">
<ellipse cx="101.925" cy="134.369" rx="101.925" ry="112.166" fill="#71A3F5"/>
<path d="M220.86 49.1641L215.999 159.77L212.17 246.883L182.003 250.233L85.0661 261.004L78.5508 49.1641H220.86Z" fill="white"/>
<path d="M86.4907 49.9531L85.0653 260.75L59.419 242.007L52.3559 77.3971L51.2656 51.9476L71.705 49.9531H86.4907Z" fill="#AAAAAA"/>
<path d="M229.006 73.3478H86.0156V42H229.82L229.006 73.3478Z" fill="#EBEBEB"/>
<path d="M86.0171 42V73.3478L56.366 70.4492L42.293 69.077V46.2655L55.2757 44.9997L75.715 43.0052L86.0171 42Z" fill="#A3A3A3"/>
<path d="M215.999 159.768L212.169 246.881L182.002 250.232L122.599 190.818L122.557 190.573L121.004 181.218L116.27 152.79L115.621 148.902L118.408 145.823L136.422 125.915L137.108 125.16L142.751 121.847L147.144 119.272L148.038 118.746L151.543 118.294L154.883 117.868L160.239 117.177L161.919 116.964L166.009 116.438L174.546 120.033H174.551L177.402 121.235L177.439 121.246L177.471 121.261L189.645 133.414L215.999 159.768Z" fill="#DEDEDE"/>
<path d="M191.055 144.123C190.055 141.99 188.874 139.958 187.529 138.054C187.076 137.921 186.603 137.852 186.114 137.852C183.412 137.852 181.205 139.958 181.04 142.623C182.125 144.155 183.077 145.787 183.88 147.505C185.789 151.585 186.858 156.137 186.858 160.935C186.858 178.465 172.642 192.682 155.112 192.682C137.582 192.682 123.365 178.465 123.365 160.935C123.365 143.405 137.582 129.188 155.112 129.188C157.984 129.188 160.76 129.571 163.403 130.284C163.675 129.619 164.004 128.981 164.382 128.364C165.132 127.146 165.994 126.013 166.85 124.859C167.222 124.359 167.589 123.854 167.999 123.386C163.957 121.997 159.622 121.242 155.112 121.242C133.194 121.242 115.43 139.006 115.43 160.924C115.43 182.842 133.188 200.612 155.106 200.612C177.024 200.612 194.788 182.847 194.788 160.93C194.788 154.914 193.448 149.218 191.055 144.112V144.123Z" fill="#1EC603"/>
<path d="M194.851 141.907C194.096 140.311 193.245 138.779 192.304 137.29C191.607 136.195 190.889 134.929 189.746 134.264C188.597 133.589 187.07 133.429 185.762 133.472C181.555 133.615 177.843 136.684 176.885 140.779C176.524 142.332 176.545 143.853 177.492 145.204C177.992 145.917 178.438 146.662 178.88 147.412C179.321 148.167 179.709 148.943 180.087 149.736C180.092 149.757 180.661 151.065 180.342 150.289C180.566 150.831 180.763 151.385 180.949 151.932C181.528 153.613 181.933 155.358 182.225 157.107C182.464 158.554 182.14 156.267 182.3 157.73C182.347 158.182 182.379 158.639 182.406 159.096C182.47 160.064 182.47 161.032 182.443 162C182.422 162.702 182.374 163.399 182.305 164.096C182.284 164.298 182.135 165.473 182.3 164.303C182.252 164.644 182.193 164.984 182.14 165.325C181.89 166.782 181.518 168.207 181.071 169.611C180.864 170.25 180.63 170.882 180.385 171.505C179.97 172.568 180.768 170.643 180.305 171.686C180.172 171.989 180.023 172.292 179.88 172.59C179.257 173.887 178.529 175.127 177.736 176.329C177.375 176.877 176.981 177.414 176.587 177.94C177.263 177.047 176.582 177.935 176.454 178.084C176.247 178.339 176.029 178.584 175.811 178.834C174.869 179.908 173.848 180.908 172.769 181.844C172.519 182.062 172.269 182.27 172.008 182.482C171.136 183.195 172.758 181.929 171.859 182.605C171.333 183.004 170.79 183.376 170.232 183.738C169.03 184.53 167.769 185.221 166.471 185.844C166.174 185.993 165.865 186.126 165.562 186.259C166.604 185.801 165.562 186.253 165.376 186.322C164.754 186.567 164.11 186.785 163.472 186.987C162.062 187.439 160.621 187.764 159.169 188.014C158.967 188.051 157.807 188.2 158.972 188.051C158.627 188.093 158.281 188.125 157.935 188.157C157.233 188.221 156.536 188.253 155.834 188.274C154.313 188.317 152.787 188.226 151.276 188.051C152.441 188.184 151.276 188.046 151.079 188.014C150.739 187.96 150.404 187.897 150.069 187.828C149.399 187.695 148.734 187.535 148.074 187.365C147.42 187.195 146.771 186.987 146.133 186.78C145.814 186.673 145.495 186.556 145.186 186.445C144.979 186.37 143.596 185.79 144.686 186.259C143.463 185.732 142.282 185.11 141.134 184.44C140.565 184.105 140.011 183.743 139.464 183.371C139.192 183.184 138.921 182.993 138.655 182.796C138.48 182.663 138.299 182.536 138.123 182.403C138.575 182.754 138.613 182.78 138.235 182.477C137.209 181.653 136.246 180.743 135.331 179.802C134.874 179.328 134.438 178.834 134.007 178.334C133.794 178.084 133.587 177.829 133.379 177.573C134.113 178.483 133.204 177.323 133.076 177.148C132.299 176.073 131.608 174.941 130.975 173.781C130.656 173.196 130.369 172.6 130.082 171.994C129.997 171.819 129.555 170.771 129.991 171.819C129.821 171.409 129.661 170.989 129.507 170.569C129.039 169.298 128.678 167.989 128.374 166.67C128.225 166 128.103 165.325 127.997 164.649C127.811 163.484 128.108 165.622 127.975 164.447C127.922 163.984 127.89 163.522 127.853 163.054C127.752 161.644 127.768 160.229 127.853 158.825C127.874 158.48 127.906 158.129 127.938 157.783C127.96 157.581 128.108 156.405 127.944 157.575C128.055 156.783 128.204 155.996 128.374 155.209C128.566 154.32 128.81 153.453 129.076 152.587C129.209 152.156 129.358 151.73 129.507 151.31C129.592 151.06 130.273 149.406 129.805 150.491C130.592 148.661 131.576 146.922 132.693 145.268C132.938 144.906 133.198 144.55 133.459 144.194C133.751 143.806 133.725 143.843 133.374 144.3C133.512 144.125 133.65 143.954 133.789 143.79C134.416 143.029 135.092 142.3 135.783 141.598C136.48 140.896 137.219 140.237 137.974 139.604C138.145 139.466 138.315 139.322 138.485 139.189C138.028 139.535 137.99 139.567 138.379 139.274C138.82 138.944 139.272 138.631 139.724 138.322C141.288 137.269 142.953 136.381 144.671 135.62C143.586 136.099 144.963 135.514 145.17 135.434C145.697 135.237 146.224 135.056 146.761 134.886C147.729 134.572 148.723 134.328 149.713 134.115C150.159 134.019 150.611 133.94 151.058 133.86C151.282 133.823 151.51 133.791 151.739 133.753C151.143 133.833 151.095 133.838 151.601 133.78C152.643 133.658 153.702 133.604 154.749 133.589C156.127 133.567 157.504 133.658 158.871 133.812C158.472 133.759 158.541 133.769 159.084 133.849C159.387 133.902 159.69 133.95 159.993 134.009C160.743 134.147 161.488 134.333 162.227 134.525C163.95 134.977 166.424 134.301 167.195 132.504C167.668 131.392 168.28 130.387 168.961 129.392C169.317 128.866 169.695 128.36 170.077 127.85C170.588 127.158 170.817 126.85 171.109 126.504C173.285 123.925 172.46 120.265 169.168 119.154C156.542 114.894 142.24 116.697 131.087 123.978C121.104 130.498 113.929 141.061 111.802 152.815C109.621 164.862 112.419 177.611 119.891 187.375C127.481 197.295 138.506 203.422 150.909 204.789C163.084 206.123 175.348 201.794 184.486 193.79C193.586 185.817 198.814 174.02 199.181 161.995C199.399 155.038 197.771 148.199 194.862 141.896C193.857 139.721 190.761 139.194 188.847 140.317C186.634 141.614 186.267 144.157 187.267 146.332C187.448 146.725 187.629 147.124 187.799 147.523C187.459 146.747 188.001 148.071 188.006 148.087C188.32 148.906 188.597 149.741 188.852 150.576C189.421 152.416 189.825 154.299 190.118 156.203C189.985 155.331 190.187 156.799 190.187 156.825C190.235 157.278 190.272 157.73 190.304 158.182C190.373 159.096 190.389 160.017 190.4 160.931C190.405 162.453 190.309 163.974 190.145 165.484C190.012 166.66 190.293 164.521 190.123 165.686C190.07 166.027 190.017 166.367 189.958 166.707C189.841 167.383 189.703 168.053 189.549 168.718C189.224 170.149 188.804 171.558 188.326 172.941C188.102 173.574 187.863 174.196 187.608 174.824C188.033 173.77 187.608 174.824 187.522 174.999C187.389 175.302 187.241 175.605 187.097 175.903C186.48 177.206 185.773 178.456 185.017 179.685C184.672 180.249 184.299 180.796 183.927 181.339C183.741 181.61 183.544 181.876 183.347 182.147C183.23 182.307 182.55 183.195 183.236 182.307C182.358 183.434 181.411 184.503 180.411 185.53C179.497 186.477 178.523 187.37 177.518 188.221C177.263 188.434 177.008 188.641 176.758 188.849C175.88 189.551 177.502 188.29 176.603 188.966C175.986 189.428 175.354 189.865 174.71 190.295C173.609 191.029 172.455 191.694 171.285 192.316C170.694 192.63 170.093 192.917 169.492 193.199C169.189 193.343 168.886 193.471 168.578 193.609C169.663 193.135 168.28 193.715 168.078 193.795C165.434 194.816 162.679 195.513 159.876 195.944C158.712 196.119 160.844 195.827 159.674 195.965C159.329 196.002 158.983 196.034 158.632 196.071C157.93 196.135 157.233 196.172 156.531 196.204C155.005 196.263 153.473 196.22 151.946 196.103C151.601 196.077 151.25 196.045 150.904 196.008C150.702 195.986 149.526 195.837 150.697 195.997C150.016 195.901 149.335 195.784 148.659 195.656C147.213 195.38 145.787 195.008 144.378 194.571C143.734 194.375 143.102 194.146 142.469 193.917C142.155 193.8 141.846 193.678 141.533 193.556C140.474 193.135 142.394 193.933 141.352 193.481C140.033 192.901 138.746 192.242 137.496 191.524C136.347 190.87 135.241 190.136 134.161 189.37C133.89 189.178 133.629 188.976 133.369 188.78C134.267 189.455 133.369 188.78 133.22 188.652C132.624 188.168 132.039 187.663 131.47 187.147C130.491 186.259 129.571 185.317 128.688 184.339C128.247 183.849 127.821 183.344 127.401 182.839C127.279 182.69 126.593 181.796 127.273 182.69C127.002 182.344 126.747 181.982 126.497 181.626C124.885 179.371 123.545 176.935 122.444 174.403C122.896 175.446 122.449 174.403 122.38 174.217C122.258 173.903 122.141 173.59 122.024 173.276C121.79 172.643 121.583 172.005 121.386 171.356C120.95 169.946 120.609 168.51 120.338 167.064C120.274 166.729 120.221 166.388 120.162 166.048C120.131 165.846 119.976 164.686 120.125 165.851C120.04 165.16 119.976 164.468 119.923 163.772C119.806 162.245 119.806 160.713 119.865 159.187C119.891 158.485 119.95 157.788 120.014 157.091C120.045 156.746 120.083 156.4 120.131 156.054C119.992 157.219 120.131 156.054 120.168 155.857C120.391 154.395 120.721 152.948 121.109 151.517C121.46 150.214 121.902 148.938 122.386 147.683C122.455 147.502 122.896 146.449 122.449 147.497C122.582 147.188 122.721 146.885 122.859 146.582C123.178 145.874 123.529 145.183 123.896 144.492C124.518 143.322 125.21 142.189 125.944 141.082C126.311 140.535 126.694 139.997 127.093 139.466C127.763 138.561 126.513 140.194 127.21 139.311C127.481 138.966 127.768 138.631 128.05 138.295C128.901 137.29 129.816 136.338 130.762 135.423C131.236 134.966 131.725 134.525 132.22 134.088C132.47 133.87 132.72 133.663 132.975 133.45C133.14 133.312 134.305 132.402 133.379 133.115C135.576 131.434 137.958 130.014 140.448 128.828C140.745 128.685 141.054 128.546 141.357 128.414C142.399 127.951 140.485 128.765 141.538 128.339C142.16 128.084 142.793 127.855 143.426 127.637C144.814 127.153 146.234 126.77 147.665 126.446C148.335 126.297 149.005 126.169 149.681 126.052C150.021 125.994 150.361 125.946 150.702 125.893C149.537 126.063 150.702 125.903 150.909 125.882C152.462 125.712 154.026 125.658 155.584 125.664C159.488 125.685 162.078 126.148 165.998 127.366C166.28 127.456 166.562 127.547 166.838 127.642C166.19 125.19 165.546 122.744 164.897 120.292C162.935 122.627 160.823 125.244 159.616 128.073C161.27 127.403 162.924 126.728 164.583 126.052C151.696 122.669 137.751 126.552 128.651 136.338C120.072 145.561 116.95 158.889 120.391 170.984C123.758 182.823 133.331 192.189 145.08 195.672C157.201 199.262 170.466 195.853 179.725 187.413C192.767 175.531 194.91 154.842 184.847 140.407C185.049 141.146 185.246 141.886 185.448 142.625C185.347 143.22 185.352 143.279 185.454 142.784C185.698 141.731 185.012 143.55 185.523 142.614C185.789 142.21 185.751 142.237 185.406 142.705C185.56 142.513 186.368 141.896 185.491 142.529C185.672 142.407 185.863 142.295 186.055 142.199C185.145 142.694 185.969 142.274 186.262 142.199C185.656 142.263 185.608 142.284 186.118 142.253C187.267 142.215 185.283 142.024 186.368 142.295C185.491 141.625 184.618 140.949 183.741 140.274C185.087 142.199 186.262 144.22 187.267 146.343C188.294 148.507 191.352 149.055 193.282 147.922C195.474 146.619 195.883 144.05 194.851 141.886V141.907Z" fill="#1EC603"/>
<path d="M174.438 124.449L152.701 111.445C148.898 109.009 147.148 112.131 147.148 112.131V140.596C147.148 140.596 148.904 143.718 152.701 141.282L174.438 128.278C174.438 128.278 175.241 127.794 175.241 126.369C175.241 124.933 174.438 124.449 174.438 124.449Z" fill="#1EC603"/>
<path d="M176.661 120.655C171.38 117.496 166.099 114.331 160.812 111.172C158.849 109.997 156.892 108.827 154.935 107.651C151.611 105.662 147.946 105.625 144.899 108.077C143.457 109.236 142.75 110.842 142.75 112.677V140.052C142.75 141.887 143.452 143.488 144.899 144.653C147.946 147.104 151.611 147.062 154.935 145.078C159.61 142.28 164.29 139.478 168.971 136.68C171.284 135.297 173.598 133.914 175.911 132.526C176.598 132.117 177.284 131.728 177.842 131.127C180.629 128.096 180.097 122.942 176.661 120.655C174.662 119.325 171.8 120.256 170.646 122.235C169.38 124.394 170.231 126.926 172.226 128.25C172.508 128.436 172.263 128.25 171.508 127.702C171.353 127.495 171.204 127.293 171.05 127.091C171.258 127.458 171.215 127.357 170.923 126.782C170.758 126.234 170.949 125.915 171.167 125.426L171.05 125.628C171.337 125.128 171.736 124.734 172.247 124.453C172.141 124.532 172.013 124.596 171.901 124.66C171.034 125.176 170.167 125.697 169.3 126.218C166.226 128.059 163.147 129.899 160.073 131.739C157.323 133.382 154.579 135.026 151.829 136.669C151.382 136.941 150.935 137.201 150.483 137.472C150.35 137.558 149.132 138.1 150.122 137.728C149.781 137.861 148.85 137.887 150.095 137.797C149.154 137.866 151.121 138.042 150.276 137.834C149.451 137.637 151.238 138.329 150.547 137.935C149.866 137.552 151.398 138.669 150.856 138.185C150.744 138.084 150.648 137.978 150.552 137.866C151.59 139.041 151.148 138.69 150.946 138.355C151.148 139.095 151.345 139.834 151.547 140.573V112.108C151.345 112.847 151.148 113.587 150.946 114.326C150.988 114.252 151.042 114.177 151.095 114.103C150.18 115.368 150.467 114.895 150.744 114.603C150.983 114.347 151.52 114.023 150.382 114.847C151.223 114.241 149.388 115.06 150.505 114.794C150.281 114.826 150.052 114.858 149.829 114.895C150.297 114.906 150.185 114.874 149.499 114.799C149.707 114.831 150.632 115.204 149.755 114.799C150.361 115.071 150.951 115.491 151.52 115.831C153.946 117.288 156.382 118.735 158.807 120.192C163.285 122.868 167.753 125.548 172.231 128.223C174.289 129.452 177.044 128.697 178.246 126.644C179.464 124.57 178.72 121.868 176.667 120.639L176.661 120.655Z" fill="#1EC603"/>
<path d="M29.7031 238.907C30.3972 239.153 31.0903 239.4 31.7853 239.645C32.6424 239.947 33.5023 240.244 34.3576 240.552C34.5169 240.608 34.6324 240.601 34.7666 240.483C35.1411 240.151 35.5296 239.836 35.9693 239.466C33.8396 239.255 31.7891 238.95 29.7227 238.787C29.7162 238.827 29.7096 238.867 29.7031 238.907Z" fill="white"/>
<path d="M35.6258 240.954C36.1 240.556 36.5556 240.173 37.0102 239.789C37.1266 239.691 37.244 239.594 37.3558 239.492C37.5096 239.351 37.5962 239.158 37.4853 238.982C37.3996 238.848 37.2282 238.708 37.0782 238.686C36.29 238.57 35.4963 238.491 34.7053 238.4C33.3107 238.24 31.9123 238.1 30.5214 237.91C29.9894 237.837 29.5059 237.954 29.0103 238.078C28.5771 238.186 28.5836 238.182 28.3786 237.792C27.4759 236.068 26.5712 234.345 25.6638 232.625C25.4393 232.2 25.2595 232.14 24.8403 232.353C23.0525 233.255 21.2665 234.16 19.4824 235.07C19.3585 235.134 19.2477 235.231 19.1499 235.332C17.403 237.116 15.6683 238.911 13.9057 240.68C13.6178 240.968 13.2191 241.148 12.8651 241.367C11.9129 241.957 10.9543 242.536 10.0087 243.135C9.86892 243.223 9.7385 243.379 9.67701 243.532C9.26988 244.554 8.88512 245.586 8.48359 246.61C8.44259 246.714 8.35223 246.819 8.25627 246.877C7.48581 247.345 6.72 247.822 5.92905 248.255C5.56198 248.456 5.4446 248.711 5.48373 249.107C5.57968 250.071 5.65794 251.037 5.73993 252.001C5.79582 252.654 5.79676 253.316 5.91321 253.957C6.06227 254.786 6.29238 255.599 6.50573 256.414C6.7582 257.378 6.99577 258.348 7.306 259.293C7.4914 259.855 7.79231 260.381 8.06342 260.912C9.17672 263.093 10.3021 265.267 11.4154 267.448C11.8281 268.257 11.857 268.279 12.7207 267.967C13.5498 267.667 14.3799 267.367 15.2044 267.053C15.3739 266.989 15.455 267.022 15.5538 267.16C16.0484 267.857 16.5608 268.541 17.049 269.242C17.2456 269.53 17.472 269.658 17.8297 269.648C18.6645 269.623 19.5011 269.647 20.3368 269.632C20.5175 269.629 20.7169 269.581 20.8724 269.491C21.9578 268.866 23.0208 268.201 24.1211 267.604C24.4564 267.422 24.8813 267.395 25.2698 267.323C27.937 266.832 30.6052 266.346 33.2734 265.859C33.6097 265.797 33.9461 265.74 34.2814 265.675C34.6858 265.598 34.8153 265.421 34.7603 265.019C34.6746 264.388 34.5758 263.759 34.506 263.127C34.4929 263.013 34.5563 262.851 34.6401 262.77C35.0901 262.334 35.5531 261.913 36.0217 261.496C36.1149 261.414 36.2444 261.351 36.3664 261.327C37.2897 261.154 38.2148 260.994 39.1399 260.827C39.6234 260.74 39.7352 260.575 39.6793 260.08C39.561 259.033 39.4446 257.986 39.3346 256.938C39.3244 256.842 39.3365 256.715 39.3914 256.646C39.8358 256.094 39.9663 255.413 40.1712 254.767C40.8644 252.578 41.5333 250.381 42.2301 248.193C42.3568 247.794 42.2898 247.508 42.0187 247.186C40.8141 245.757 39.6383 244.303 38.4421 242.866C38.3061 242.703 38.1142 242.582 37.9334 242.464C37.2114 241.99 36.4838 241.525 35.759 241.055C35.7217 241.031 35.6873 241.002 35.6277 240.957L35.6258 240.954ZM24.9167 234.748C24.6502 236.106 24.3884 237.426 24.1341 238.748C24.0633 239.116 24.1024 239.164 24.463 239.284C26.1548 239.849 27.8485 240.409 29.5366 240.983C29.6801 241.032 29.8376 241.153 29.9084 241.284C30.6061 242.569 31.29 243.86 31.9654 245.157C32.0185 245.26 32.0166 245.437 31.9654 245.542C31.7073 246.07 31.4139 246.582 31.1549 247.11C31.0757 247.272 31.0198 247.469 31.0291 247.646C31.1251 249.372 31.2387 251.097 31.3412 252.823C31.3552 253.056 31.4679 253.153 31.6868 253.193C32.6483 253.369 33.6069 253.559 34.5684 253.732C34.7491 253.764 34.8488 253.838 34.8972 254.02C34.9783 254.322 35.092 254.615 35.1739 254.918C35.2308 255.128 35.351 255.253 35.5466 255.346C36.4279 255.768 37.3055 256.202 38.1794 256.639C38.267 256.683 38.3769 256.783 38.3871 256.868C38.5017 257.797 38.5996 258.728 38.7058 259.698C38.4207 259.639 38.1719 259.595 37.926 259.538C36.7792 259.274 35.6323 259.011 34.4892 258.735C34.3364 258.697 34.1566 258.612 34.069 258.491C33.6172 257.869 33.2063 257.218 32.7508 256.599C32.5412 256.314 32.3027 256.02 32.0111 255.833C28.4215 253.518 24.8188 251.224 21.2237 248.917C21.1147 248.847 21.0085 248.722 20.9693 248.601C20.5222 247.22 20.0889 245.834 19.6492 244.45C19.4405 243.792 19.2262 243.136 19.0073 242.458C18.8247 242.516 18.6682 242.566 18.4865 242.624C19.0809 244.493 19.666 246.331 20.2725 248.238C19.7554 247.848 19.2905 247.518 18.8508 247.159C17.4086 245.983 15.9767 244.796 14.5383 243.615C14.2672 243.393 14.1759 243.401 13.943 243.661C13.4296 244.233 12.9005 244.794 12.4179 245.391C12.1281 245.75 11.8216 245.908 11.3558 245.839C10.9608 245.78 10.8937 245.872 10.8061 246.272C10.6729 246.883 10.5295 247.493 10.3916 248.103C10.2397 248.776 10.0888 249.449 9.93134 250.151C10.1214 250.189 10.291 250.222 10.4689 250.258C10.768 248.947 11.0586 247.673 11.3465 246.412H15.278V245.869H12.7179C13.2796 245.239 13.779 244.68 14.2802 244.118C14.3464 244.17 14.3836 244.198 14.4209 244.229C15.8351 245.393 17.2428 246.566 18.6663 247.718C20.2259 248.981 21.9289 250.036 23.6208 251.108C26.0812 252.668 28.5314 254.246 30.9844 255.818C31.3272 256.038 31.7427 256.203 31.9868 256.506C32.5579 257.213 33.0657 257.975 33.5538 258.744C33.7131 258.995 33.8892 259.139 34.1538 259.207C34.9895 259.419 35.8261 259.632 36.6646 259.836C37.0307 259.925 37.4005 259.996 37.7685 260.074C37.2524 260.227 36.741 260.318 36.2295 260.411C35.9817 260.456 35.7208 260.584 35.4888 260.543C33.8734 260.26 32.2561 259.976 30.6546 259.625C29.2935 259.328 27.9473 258.96 26.6039 258.589C23.1279 257.632 19.6576 256.656 16.1863 255.684C16.0727 255.652 15.959 255.587 15.8705 255.508C14.4377 254.233 13.0141 252.948 11.5766 251.679C11.2878 251.424 10.9664 251.197 10.6301 251.009C9.81116 250.549 8.97362 250.122 8.1454 249.679C7.67306 249.427 7.20352 249.169 6.71814 248.905C6.76193 248.858 6.77683 248.834 6.79826 248.821C7.47556 248.419 8.15751 248.025 8.82736 247.611C8.9876 247.512 9.16461 247.369 9.23169 247.205C9.63415 246.212 10.0115 245.208 10.3841 244.204C10.4652 243.985 10.5947 243.839 10.7903 243.72C11.7955 243.108 12.7989 242.493 13.7976 241.869C14.0697 241.7 14.3547 241.53 14.5783 241.305C16.3158 239.552 18.0393 237.785 19.7713 236.025C19.8691 235.926 19.9874 235.84 20.1113 235.776C21.2004 235.22 22.2932 234.67 23.3851 234.118C23.9161 233.85 24.4471 233.584 24.9921 233.31C25.3443 233.982 25.6825 234.629 26.0207 235.274C26.6504 236.477 27.2793 237.68 27.9091 238.882C28.033 239.119 28.2091 239.225 28.4913 239.167C28.6199 239.14 28.7736 239.169 28.9013 239.214C30.0313 239.603 31.1661 239.984 32.2859 240.401C33.2399 240.757 34.2349 240.998 35.0677 241.669C35.8037 242.262 36.6478 242.716 37.4369 243.244C37.6148 243.363 37.7844 243.511 37.9213 243.675C39.0151 244.988 40.0967 246.311 41.1914 247.623C41.3246 247.783 41.347 247.919 41.2873 248.11C40.6007 250.302 39.9253 252.496 39.2349 254.686C39.071 255.206 38.9713 255.76 38.5548 256.181C38.5269 256.173 38.4896 256.167 38.457 256.151C37.5869 255.726 36.7149 255.304 35.8503 254.869C35.7637 254.826 35.691 254.713 35.6565 254.616C35.5373 254.276 35.4348 253.93 35.3314 253.585C35.2783 253.405 35.1842 253.29 34.9839 253.26C34.7025 253.219 34.4249 253.155 34.1454 253.101C33.3945 252.955 32.6427 252.81 31.8899 252.663C31.7819 250.978 31.6738 249.321 31.575 247.662C31.5685 247.548 31.6123 247.419 31.6663 247.314C31.9291 246.798 32.1964 246.284 32.4759 245.778C32.5607 245.624 32.6725 245.474 32.8039 245.359C33.3638 244.875 33.9367 244.404 34.5032 243.927C34.9653 243.538 35.4255 243.147 35.9025 242.742C35.7748 242.592 35.6677 242.467 35.5485 242.326C34.5162 243.192 33.5091 244.038 32.488 244.895C32.4424 244.825 32.4089 244.782 32.3837 244.733C31.7083 243.469 31.0394 242.201 30.3518 240.943C30.2596 240.776 30.1003 240.587 29.9298 240.528C28.5491 240.049 27.1591 239.599 25.7719 239.139C25.4142 239.02 25.0592 238.896 24.6893 238.77C24.9483 237.451 25.2008 236.161 25.4579 234.851C25.2698 234.815 25.1142 234.785 24.9167 234.747V234.748ZM12.3005 267.149C12.225 267.007 12.1579 266.884 12.0937 266.758C11.0391 264.707 9.97886 262.659 8.93263 260.605C8.64569 260.04 8.33825 259.475 8.14447 258.877C7.79138 257.786 7.51003 256.671 7.21191 255.563C7.06471 255.014 6.89049 254.464 6.82807 253.903C6.67435 252.517 6.57933 251.124 6.46101 249.733C6.45263 249.635 6.44983 249.537 6.44238 249.395C6.55883 249.452 6.62591 249.483 6.69019 249.517C7.80349 250.112 8.91773 250.705 10.0282 251.306C10.3441 251.476 10.6832 251.63 10.9506 251.861C11.9632 252.736 12.9489 253.641 13.9485 254.532C14.5718 255.087 15.155 255.703 15.836 256.176C18.0338 257.703 20.2687 259.176 22.4888 260.67C23.0199 261.027 23.549 261.385 24.1117 261.765C24.013 261.819 23.958 261.851 23.9003 261.881C22.5233 262.585 21.1631 263.327 19.7638 263.983C18.2555 264.69 16.886 265.699 15.2258 266.08C14.9687 266.138 14.7246 266.255 14.4759 266.347C13.7566 266.613 13.0374 266.878 12.3005 267.151V267.149ZM33.8082 264.828C33.4821 264.886 33.1933 264.937 32.9045 264.99C30.3388 265.458 27.7712 265.918 25.2083 266.402C24.6474 266.508 24.0605 266.514 23.5481 266.848C22.977 267.221 22.3752 267.549 21.7854 267.893C21.3103 268.17 20.8613 268.549 20.3479 268.687C19.8337 268.825 19.2486 268.671 18.7055 268.736C18.0403 268.816 17.6173 268.592 17.2829 268.016C16.967 267.471 16.5571 266.981 16.1826 266.459C16.2348 266.422 16.2627 266.396 16.2944 266.38C18.1875 265.413 20.0806 264.446 21.9764 263.483C22.0538 263.444 22.1618 263.427 22.2466 263.444C23.904 263.764 25.5586 264.097 27.2178 264.406C27.4451 264.447 27.7116 264.421 27.9314 264.345C29.4919 263.807 31.0449 263.248 32.5998 262.695C32.8644 262.601 33.129 262.508 33.4132 262.407C33.3451 262.221 33.2883 262.065 33.2296 261.904C33.1383 261.934 33.0759 261.953 33.0135 261.975C31.2872 262.586 29.5627 263.202 27.8327 263.8C27.6389 263.867 27.4032 263.877 27.1992 263.842C26.2368 263.673 25.2791 263.48 24.3204 263.294C23.8723 263.207 23.4261 263.116 22.9025 263.012C23.536 262.687 24.0931 262.404 24.6474 262.117C25.0257 261.92 25.035 261.717 24.6791 261.477C22.4739 259.995 20.2687 258.514 18.0636 257.032C17.8912 256.916 17.7217 256.797 17.5167 256.656C17.5875 256.653 17.6071 256.647 17.6248 256.652C20.4933 257.453 23.3618 258.257 26.2303 259.057C27.3725 259.376 28.5053 259.737 29.6615 259.991C31.2723 260.346 32.9017 260.618 34.5237 260.928C34.71 260.963 34.8945 261.011 35.1255 261.062C34.6746 261.475 34.2842 261.864 33.8585 262.211C33.5594 262.454 33.4868 262.725 33.551 263.087C33.6517 263.656 33.7225 264.229 33.81 264.829L33.8082 264.828ZM29.7043 238.906C29.7108 238.866 29.7174 238.826 29.7239 238.786C31.7893 238.949 33.8408 239.252 35.9705 239.465C35.5308 239.835 35.1413 240.15 34.7678 240.481C34.6336 240.6 34.5181 240.608 34.3588 240.55C33.5035 240.243 32.6436 239.946 31.7865 239.644C31.0925 239.399 30.3984 239.152 29.7043 238.906Z" fill="#B8B0B0"/>
<path d="M24.9153 234.751C25.1138 234.789 25.2693 234.819 25.4566 234.855C25.1995 236.164 24.947 237.454 24.688 238.774C25.0569 238.9 25.4128 239.024 25.7706 239.142C27.1578 239.603 28.5478 240.053 29.9284 240.532C30.098 240.59 30.2582 240.778 30.3505 240.947C31.038 242.205 31.7069 243.473 32.3824 244.737C32.4084 244.785 32.4411 244.829 32.4867 244.899C33.5078 244.042 34.5149 243.196 35.5471 242.33C35.6664 242.469 35.7735 242.596 35.9011 242.746C35.4241 243.15 34.9639 243.542 34.5018 243.931C33.9354 244.408 33.3624 244.878 32.8025 245.363C32.6702 245.478 32.5594 245.628 32.4746 245.781C32.1942 246.288 31.9268 246.801 31.665 247.318C31.611 247.423 31.5672 247.551 31.5737 247.666C31.6725 249.324 31.7805 250.983 31.8886 252.667C32.6423 252.813 33.3932 252.96 34.1441 253.105C34.4236 253.159 34.7012 253.223 34.9826 253.264C35.1829 253.294 35.2769 253.409 35.3301 253.588C35.4335 253.934 35.5359 254.28 35.6552 254.62C35.6897 254.717 35.7623 254.83 35.849 254.873C36.7145 255.308 37.5855 255.73 38.4557 256.155C38.4883 256.171 38.5256 256.176 38.5535 256.185C38.969 255.764 39.0696 255.209 39.2336 254.69C39.923 252.499 40.5994 250.305 41.286 248.114C41.3456 247.922 41.3232 247.786 41.19 247.627C40.0954 246.315 39.0137 244.991 37.92 243.679C37.783 243.514 37.6144 243.366 37.4355 243.247C36.6464 242.72 35.8015 242.265 35.0664 241.673C34.2335 241.002 33.2385 240.761 32.2845 240.405C31.1647 239.987 30.0309 239.606 28.8999 239.218C28.7714 239.174 28.6186 239.144 28.49 239.17C28.2077 239.23 28.0326 239.123 27.9077 238.885C27.2779 237.683 26.6491 236.48 26.0193 235.278C25.6811 234.631 25.342 233.986 24.9908 233.314C24.4458 233.588 23.9147 233.855 23.3837 234.122C22.2918 234.673 21.199 235.223 20.11 235.78C19.9861 235.844 19.8677 235.93 19.7699 236.029C18.0389 237.788 16.3154 239.555 14.577 241.309C14.3534 241.534 14.0683 241.703 13.7963 241.873C12.7976 242.496 11.7942 243.112 10.789 243.723C10.5943 243.842 10.4648 243.988 10.3828 244.208C10.0101 245.213 9.63281 246.215 9.23034 247.209C9.1642 247.373 8.98626 247.516 8.82601 247.615C8.15617 248.029 7.47421 248.423 6.79692 248.825C6.77549 248.838 6.76058 248.862 6.7168 248.909C7.20218 249.172 7.67172 249.43 8.14406 249.683C8.97228 250.126 9.80982 250.553 10.6287 251.012C10.9641 251.201 11.2865 251.428 11.5753 251.682C13.0128 252.951 14.4372 254.237 15.8692 255.512C15.9577 255.59 16.0713 255.656 16.185 255.687C19.6563 256.66 23.1266 257.635 26.6025 258.593C27.9459 258.963 29.2921 259.331 30.6533 259.629C32.2557 259.979 33.872 260.264 35.4875 260.547C35.7195 260.588 35.9803 260.459 36.2281 260.414C36.7387 260.321 37.2511 260.231 37.7672 260.078C37.3992 259.999 37.0284 259.928 36.6632 259.84C35.8247 259.635 34.9891 259.423 34.1525 259.211C33.8879 259.144 33.7109 258.998 33.5525 258.748C33.0643 257.979 32.5566 257.217 31.9855 256.51C31.7414 256.207 31.3259 256.041 30.9831 255.821C28.5301 254.25 26.0808 252.672 23.6194 251.112C21.9276 250.04 20.2245 248.984 18.665 247.722C17.2415 246.569 15.8338 245.397 14.4195 244.233C14.3832 244.203 14.345 244.174 14.2789 244.122C13.7776 244.684 13.2783 245.243 12.7165 245.873H15.2766V246.416H11.347C11.0591 247.676 10.7685 248.95 10.4694 250.262C10.2905 250.226 10.1219 250.192 9.93186 250.154C10.0893 249.453 10.2402 248.78 10.3921 248.107C10.53 247.496 10.6725 246.887 10.8067 246.276C10.8942 245.874 10.9604 245.784 11.3563 245.843C11.8221 245.912 12.1287 245.753 12.4184 245.395C12.901 244.797 13.4301 244.237 13.9435 243.665C14.1773 243.405 14.2677 243.396 14.5388 243.619C15.9772 244.799 17.4092 245.987 18.8513 247.163C19.292 247.522 19.7559 247.851 20.273 248.242C19.6665 246.335 19.0814 244.497 18.4871 242.628C18.6687 242.57 18.8252 242.52 19.0078 242.462C19.2268 243.141 19.441 243.797 19.6497 244.454C20.0895 245.837 20.5227 247.223 20.9699 248.605C21.009 248.726 21.1152 248.851 21.2242 248.921C24.8194 251.227 28.422 253.521 32.0116 255.836C32.3032 256.025 32.5417 256.319 32.7513 256.603C33.2069 257.222 33.6177 257.873 34.0696 258.494C34.1571 258.615 34.3369 258.701 34.4897 258.738C35.6328 259.016 36.7797 259.278 37.9265 259.542C38.1725 259.598 38.4212 259.644 38.7063 259.702C38.6001 258.732 38.5023 257.8 38.3877 256.871C38.3774 256.787 38.2675 256.688 38.1799 256.643C37.306 256.205 36.4294 255.772 35.5471 255.35C35.3505 255.256 35.2313 255.131 35.1745 254.922C35.0925 254.62 34.9788 254.326 34.8978 254.023C34.8493 253.842 34.7506 253.769 34.5689 253.736C33.6075 253.561 32.6488 253.372 31.6874 253.197C31.4684 253.157 31.3548 253.06 31.3417 252.826C31.2393 251.101 31.1256 249.376 31.0296 247.65C31.0194 247.473 31.0762 247.275 31.1554 247.114C31.4144 246.585 31.7079 246.074 31.9659 245.546C32.0172 245.44 32.02 245.263 31.9659 245.161C31.2914 243.864 30.6067 242.573 29.9089 241.288C29.8381 241.158 29.6806 241.036 29.5372 240.987C27.849 240.412 26.1553 239.852 24.4635 239.288C24.1029 239.168 24.0638 239.12 24.1346 238.752C24.388 237.43 24.6507 236.11 24.9172 234.752L24.9153 234.751ZM22.6459 239.416C22.5359 240.013 22.4269 240.569 22.3319 241.128C22.2695 241.496 22.1502 241.854 22.3114 242.242C22.5331 242.775 22.7101 243.327 22.9039 243.872C23.1061 244.443 23.3045 245.013 23.5123 245.603C23.3353 245.669 23.1797 245.727 23.012 245.79C22.9785 245.72 22.9496 245.671 22.9319 245.619C22.6049 244.688 22.3095 243.747 21.9434 242.832C21.6984 242.219 21.6108 241.634 21.7869 240.988C21.9322 240.454 22.0002 239.9 22.1055 239.337C22.2956 239.365 22.453 239.388 22.6477 239.417L22.6459 239.416Z" fill="white"/>
<path d="M12.2995 267.148C13.0364 266.876 13.7557 266.61 14.4749 266.344C14.7246 266.252 14.9677 266.137 15.2248 266.077C16.885 265.696 18.2545 264.687 19.7628 263.98C21.1621 263.323 22.5223 262.583 23.8993 261.878C23.9561 261.849 24.012 261.817 24.1108 261.763C23.5481 261.383 23.0189 261.025 22.4879 260.667C20.2678 259.173 18.0328 257.7 15.8351 256.174C15.154 255.701 14.5708 255.085 13.9476 254.529C12.9479 253.639 11.9623 252.733 10.9496 251.858C10.6822 251.627 10.3431 251.474 10.0273 251.303C8.91676 250.702 7.80252 250.11 6.68922 249.514C6.62494 249.48 6.55786 249.449 6.44141 249.392C6.44886 249.535 6.45165 249.633 6.46004 249.731C6.57836 251.121 6.67431 252.514 6.8271 253.901C6.88952 254.461 7.06374 255.011 7.21094 255.56C7.50906 256.668 7.79041 257.784 8.1435 258.875C8.33728 259.473 8.64472 260.038 8.93166 260.602C9.97789 262.657 11.0381 264.705 12.0927 266.755C12.157 266.88 12.2241 267.004 12.2995 267.147V267.148Z" fill="white"/>
<path d="M33.8071 264.828C33.7196 264.228 33.6487 263.654 33.5481 263.086C33.4838 262.724 33.5565 262.453 33.8556 262.209C34.2813 261.863 34.6717 261.473 35.1226 261.06C34.8925 261.009 34.708 260.962 34.5208 260.926C32.8997 260.617 31.2703 260.345 29.6586 259.99C28.5024 259.736 27.3695 259.374 26.2274 259.056C23.3589 258.255 20.4904 257.451 17.6219 256.65C17.6051 256.645 17.5846 256.651 17.5138 256.655C17.7187 256.795 17.8883 256.914 18.0607 257.03C20.2658 258.512 22.471 259.994 24.6762 261.476C25.0321 261.715 25.0228 261.918 24.6445 262.115C24.0902 262.403 23.5331 262.686 22.8996 263.01C23.4231 263.115 23.8694 263.206 24.3175 263.293C25.2762 263.479 26.2348 263.672 27.1963 263.84C27.4003 263.876 27.6351 263.866 27.8298 263.798C29.5598 263.199 31.2843 262.584 33.0106 261.973C33.073 261.951 33.1363 261.932 33.2267 261.903C33.2854 262.064 33.3422 262.219 33.4102 262.406C33.1261 262.506 32.8615 262.599 32.5969 262.694C31.042 263.246 29.489 263.805 27.9285 264.343C27.7087 264.42 27.4422 264.446 27.2149 264.404C25.5556 264.096 23.9011 263.762 22.2437 263.443C22.158 263.426 22.0508 263.443 21.9735 263.482C20.0776 264.444 18.1846 265.411 16.2915 266.378C16.2589 266.395 16.2319 266.42 16.1797 266.457C16.5542 266.98 16.9641 267.47 17.2799 268.014C17.6144 268.591 18.0383 268.814 18.7026 268.734C19.2457 268.669 19.8317 268.825 20.345 268.686C20.8584 268.548 21.3074 268.169 21.7825 267.891C22.3723 267.546 22.9741 267.219 23.5452 266.847C24.0576 266.512 24.6445 266.507 25.2054 266.401C27.7683 265.916 30.3359 265.457 32.9016 264.988C33.1895 264.936 33.4783 264.885 33.8053 264.826L33.8071 264.828Z" fill="white"/>
<path d="M22.6468 239.417C22.4521 239.388 22.2956 239.365 22.1046 239.337C21.9993 239.898 21.9322 240.454 21.786 240.987C21.6099 241.633 21.6975 242.218 21.9425 242.831C22.3086 243.746 22.6039 244.688 22.9309 245.619C22.9496 245.671 22.9785 245.719 23.0111 245.789C23.1788 245.727 23.3353 245.669 23.5114 245.603C23.3045 245.013 23.1052 244.442 22.903 243.872C22.7092 243.327 22.5331 242.774 22.3105 242.241C22.1493 241.855 22.2686 241.495 22.331 241.127C22.4251 240.568 22.535 240.012 22.6449 239.416L22.6468 239.417Z" fill="#B8B0B0"/>
<path d="M261.52 229.475C262.428 229.797 263.335 230.12 264.244 230.441C265.366 230.836 266.491 231.225 267.61 231.627C267.818 231.701 267.97 231.691 268.145 231.537C268.635 231.103 269.144 230.691 269.719 230.207C266.932 229.93 264.249 229.531 261.545 229.318C261.537 229.37 261.528 229.423 261.52 229.475Z" fill="white"/>
<path d="M269.269 232.157C269.89 231.635 270.486 231.134 271.081 230.632C271.233 230.504 271.387 230.377 271.533 230.243C271.734 230.059 271.848 229.806 271.702 229.576C271.59 229.4 271.366 229.217 271.17 229.188C270.138 229.037 269.1 228.933 268.065 228.814C266.24 228.604 264.41 228.421 262.59 228.173C261.894 228.078 261.261 228.23 260.613 228.392C260.046 228.534 260.054 228.529 259.786 228.018C258.605 225.763 257.421 223.509 256.234 221.257C255.94 220.701 255.705 220.623 255.156 220.901C252.817 222.082 250.48 223.266 248.145 224.457C247.983 224.54 247.838 224.668 247.71 224.8C245.424 227.134 243.154 229.483 240.848 231.797C240.471 232.175 239.95 232.41 239.486 232.697C238.24 233.468 236.986 234.227 235.749 235.009C235.566 235.125 235.395 235.329 235.315 235.53C234.782 236.867 234.279 238.216 233.753 239.557C233.699 239.693 233.581 239.831 233.456 239.906C232.447 240.519 231.445 241.143 230.41 241.709C229.93 241.972 229.777 242.306 229.828 242.825C229.953 244.085 230.056 245.349 230.163 246.611C230.236 247.466 230.237 248.332 230.39 249.171C230.585 250.255 230.886 251.319 231.165 252.386C231.495 253.647 231.806 254.916 232.212 256.153C232.455 256.888 232.849 257.576 233.203 258.271C234.66 261.125 236.133 263.97 237.589 266.824C238.13 267.882 238.167 267.912 239.297 267.503C240.382 267.111 241.469 266.718 242.547 266.307C242.769 266.223 242.875 266.266 243.005 266.447C243.652 267.359 244.322 268.254 244.961 269.171C245.218 269.549 245.515 269.716 245.983 269.702C247.075 269.669 248.17 269.701 249.263 269.682C249.5 269.678 249.761 269.615 249.964 269.498C251.384 268.68 252.775 267.809 254.215 267.028C254.654 266.79 255.21 266.755 255.718 266.661C259.208 266.017 262.7 265.382 266.191 264.744C266.631 264.664 267.071 264.588 267.51 264.504C268.039 264.403 268.209 264.172 268.137 263.645C268.025 262.82 267.895 261.997 267.804 261.17C267.787 261.02 267.87 260.808 267.979 260.702C268.568 260.132 269.174 259.581 269.787 259.036C269.909 258.928 270.079 258.845 270.238 258.815C271.446 258.588 272.657 258.379 273.867 258.16C274.5 258.046 274.646 257.83 274.573 257.183C274.419 255.812 274.266 254.442 274.122 253.071C274.109 252.945 274.125 252.779 274.197 252.689C274.778 251.967 274.949 251.076 275.217 250.23C276.124 247.366 276.999 244.491 277.911 241.629C278.077 241.106 277.989 240.731 277.634 240.311C276.058 238.441 274.52 236.538 272.954 234.658C272.776 234.445 272.525 234.286 272.289 234.131C271.344 233.511 270.392 232.903 269.444 232.288C269.395 232.257 269.35 232.219 269.272 232.16L269.269 232.157ZM255.256 224.035C254.907 225.813 254.565 227.54 254.232 229.27C254.139 229.751 254.191 229.814 254.662 229.971C256.876 230.71 259.092 231.442 261.301 232.194C261.489 232.258 261.695 232.416 261.788 232.588C262.701 234.269 263.596 235.959 264.48 237.656C264.549 237.79 264.547 238.021 264.48 238.159C264.142 238.85 263.758 239.52 263.419 240.211C263.315 240.423 263.242 240.681 263.254 240.913C263.38 243.171 263.529 245.428 263.663 247.686C263.681 247.992 263.829 248.119 264.115 248.171C265.373 248.401 266.627 248.649 267.886 248.876C268.122 248.919 268.253 249.015 268.316 249.253C268.422 249.648 268.571 250.032 268.678 250.428C268.752 250.703 268.91 250.867 269.166 250.989C270.319 251.541 271.467 252.108 272.611 252.681C272.725 252.738 272.869 252.868 272.882 252.979C273.032 254.195 273.16 255.414 273.299 256.683C272.926 256.606 272.601 256.548 272.279 256.473C270.778 256.128 269.278 255.784 267.782 255.422C267.582 255.374 267.347 255.261 267.232 255.103C266.641 254.29 266.103 253.438 265.507 252.628C265.233 252.255 264.921 251.87 264.539 251.625C259.842 248.597 255.128 245.594 250.424 242.576C250.281 242.484 250.142 242.321 250.091 242.163C249.506 240.355 248.939 238.542 248.364 236.73C248.09 235.87 247.81 235.012 247.524 234.124C247.285 234.2 247.08 234.266 246.842 234.341C247.62 236.787 248.385 239.192 249.179 241.687C248.503 241.176 247.894 240.745 247.319 240.275C245.432 238.737 243.558 237.183 241.676 235.638C241.321 235.347 241.202 235.358 240.897 235.698C240.225 236.446 239.533 237.18 238.901 237.962C238.522 238.431 238.121 238.638 237.511 238.548C236.995 238.471 236.907 238.591 236.792 239.115C236.618 239.915 236.43 240.712 236.25 241.51C236.051 242.391 235.854 243.272 235.648 244.19C235.896 244.24 236.118 244.284 236.351 244.33C236.742 242.615 237.123 240.947 237.499 239.298H242.644V238.587H239.294C240.029 237.763 240.682 237.032 241.338 236.296C241.425 236.365 241.473 236.401 241.522 236.442C243.373 237.964 245.215 239.499 247.077 241.007C249.118 242.659 251.347 244.04 253.56 245.443C256.78 247.484 259.986 249.549 263.196 251.605C263.644 251.893 264.188 252.11 264.508 252.506C265.255 253.432 265.919 254.429 266.558 255.434C266.766 255.762 266.997 255.951 267.343 256.04C268.437 256.318 269.531 256.596 270.628 256.863C271.108 256.98 271.592 257.073 272.073 257.175C271.398 257.375 270.728 257.493 270.059 257.615C269.735 257.675 269.394 257.842 269.09 257.789C266.976 257.418 264.86 257.046 262.764 256.588C260.983 256.199 259.222 255.717 257.464 255.232C252.916 253.979 248.375 252.703 243.832 251.43C243.684 251.388 243.535 251.303 243.419 251.201C241.544 249.532 239.681 247.851 237.8 246.189C237.422 245.856 237.002 245.559 236.562 245.313C235.49 244.712 234.394 244.152 233.311 243.573C232.693 243.243 232.078 242.905 231.443 242.56C231.5 242.499 231.52 242.467 231.548 242.45C232.434 241.924 233.326 241.408 234.203 240.867C234.413 240.738 234.644 240.55 234.732 240.335C235.259 239.036 235.752 237.723 236.24 236.409C236.346 236.122 236.515 235.931 236.771 235.775C238.087 234.975 239.4 234.169 240.707 233.354C241.063 233.132 241.436 232.91 241.728 232.615C244.002 230.322 246.257 228.009 248.523 225.707C248.651 225.577 248.806 225.464 248.968 225.381C250.393 224.653 251.823 223.933 253.252 223.211C253.947 222.86 254.642 222.513 255.355 222.154C255.816 223.033 256.258 223.879 256.701 224.724C257.525 226.298 258.348 227.872 259.172 229.444C259.334 229.755 259.564 229.894 259.934 229.817C260.102 229.782 260.303 229.821 260.47 229.879C261.949 230.388 263.434 230.886 264.899 231.432C266.147 231.898 267.449 232.214 268.539 233.092C269.502 233.867 270.607 234.462 271.639 235.152C271.872 235.308 272.094 235.502 272.273 235.716C273.704 237.435 275.119 239.166 276.552 240.883C276.726 241.092 276.755 241.27 276.677 241.52C275.779 244.387 274.895 247.259 273.992 250.124C273.777 250.805 273.647 251.53 273.102 252.081C273.065 252.07 273.017 252.063 272.974 252.042C271.835 251.486 270.694 250.934 269.563 250.364C269.45 250.307 269.355 250.16 269.309 250.033C269.153 249.588 269.019 249.136 268.884 248.683C268.814 248.448 268.691 248.298 268.429 248.259C268.061 248.205 267.698 248.121 267.332 248.051C266.35 247.859 265.366 247.669 264.381 247.478C264.239 245.272 264.098 243.104 263.969 240.934C263.96 240.784 264.017 240.616 264.088 240.478C264.432 239.802 264.782 239.131 265.148 238.468C265.258 238.266 265.405 238.07 265.577 237.92C266.309 237.286 267.059 236.671 267.8 236.047C268.405 235.537 269.007 235.025 269.631 234.496C269.464 234.3 269.324 234.135 269.168 233.951C267.817 235.085 266.499 236.192 265.163 237.313C265.104 237.222 265.06 237.164 265.027 237.101C264.143 235.447 263.268 233.788 262.368 232.142C262.247 231.922 262.039 231.676 261.816 231.598C260.009 230.972 258.19 230.383 256.375 229.781C255.907 229.626 255.443 229.462 254.959 229.298C255.298 227.572 255.628 225.884 255.964 224.17C255.718 224.123 255.515 224.084 255.256 224.034V224.035ZM238.748 266.433C238.649 266.246 238.561 266.085 238.477 265.921C237.097 263.238 235.71 260.557 234.341 257.869C233.965 257.13 233.563 256.391 233.309 255.609C232.847 254.181 232.479 252.722 232.089 251.271C231.896 250.553 231.669 249.834 231.587 249.1C231.386 247.286 231.261 245.464 231.107 243.644C231.096 243.516 231.092 243.387 231.082 243.201C231.235 243.276 231.322 243.316 231.406 243.361C232.863 244.14 234.321 244.915 235.774 245.702C236.188 245.925 236.631 246.126 236.981 246.428C238.306 247.573 239.596 248.758 240.904 249.923C241.72 250.65 242.483 251.455 243.374 252.075C246.25 254.073 249.174 256 252.079 257.954C252.774 258.421 253.467 258.891 254.203 259.388C254.074 259.459 254.002 259.5 253.926 259.539C252.124 260.461 250.345 261.431 248.513 262.289C246.54 263.215 244.748 264.535 242.575 265.033C242.239 265.11 241.92 265.263 241.594 265.383C240.653 265.731 239.712 266.078 238.748 266.435V266.433ZM266.891 263.395C266.464 263.472 266.086 263.538 265.708 263.607C262.351 264.22 258.991 264.821 255.638 265.455C254.904 265.594 254.136 265.601 253.465 266.039C252.718 266.527 251.931 266.956 251.159 267.406C250.537 267.769 249.95 268.265 249.278 268.446C248.605 268.626 247.839 268.424 247.129 268.509C246.258 268.614 245.705 268.321 245.267 267.567C244.854 266.853 244.317 266.212 243.827 265.53C243.896 265.481 243.932 265.448 243.974 265.426C246.451 264.161 248.928 262.895 251.409 261.636C251.51 261.585 251.651 261.563 251.762 261.585C253.931 262.003 256.096 262.439 258.267 262.843C258.565 262.898 258.913 262.863 259.201 262.763C261.243 262.059 263.275 261.327 265.31 260.605C265.656 260.481 266.002 260.36 266.374 260.228C266.285 259.984 266.211 259.78 266.134 259.57C266.014 259.609 265.933 259.633 265.851 259.662C263.592 260.462 261.336 261.268 259.072 262.05C258.818 262.138 258.51 262.152 258.243 262.105C256.984 261.885 255.73 261.632 254.476 261.388C253.89 261.275 253.306 261.156 252.62 261.019C253.449 260.594 254.178 260.224 254.904 259.847C255.399 259.59 255.411 259.325 254.945 259.011C252.06 257.072 249.174 255.133 246.289 253.194C246.063 253.043 245.841 252.887 245.573 252.703C245.666 252.698 245.691 252.69 245.715 252.696C249.468 253.745 253.221 254.797 256.975 255.844C258.47 256.261 259.952 256.734 261.465 257.067C263.573 257.531 265.705 257.887 267.827 258.292C268.071 258.338 268.312 258.4 268.615 258.468C268.025 259.008 267.514 259.517 266.957 259.971C266.565 260.289 266.47 260.644 266.554 261.118C266.686 261.861 266.779 262.612 266.893 263.397L266.891 263.395ZM261.521 229.476C261.529 229.423 261.538 229.371 261.546 229.319C264.249 229.532 266.933 229.929 269.72 230.207C269.145 230.691 268.635 231.103 268.146 231.537C267.971 231.693 267.82 231.703 267.611 231.627C266.492 231.225 265.367 230.838 264.245 230.441C263.337 230.121 262.429 229.798 261.521 229.476Z" fill="#B8B0B0"/>
<path d="M255.255 224.04C255.514 224.09 255.718 224.129 255.963 224.176C255.626 225.889 255.296 227.577 254.957 229.304C255.44 229.469 255.906 229.632 256.374 229.786C258.189 230.389 260.008 230.977 261.814 231.604C262.036 231.681 262.246 231.927 262.367 232.148C263.266 233.793 264.141 235.453 265.025 237.107C265.059 237.17 265.102 237.228 265.162 237.319C266.498 236.197 267.816 235.091 269.166 233.957C269.322 234.14 269.463 234.305 269.63 234.502C269.006 235.031 268.403 235.543 267.799 236.052C267.057 236.677 266.308 237.291 265.575 237.926C265.402 238.076 265.257 238.272 265.146 238.473C264.779 239.137 264.429 239.808 264.087 240.484C264.016 240.621 263.959 240.79 263.967 240.94C264.096 243.109 264.238 245.279 264.379 247.483C265.365 247.675 266.348 247.866 267.331 248.056C267.696 248.127 268.06 248.211 268.428 248.265C268.69 248.304 268.813 248.454 268.882 248.689C269.018 249.141 269.152 249.594 269.308 250.039C269.353 250.165 269.448 250.314 269.561 250.37C270.694 250.94 271.834 251.492 272.972 252.048C273.015 252.068 273.064 252.076 273.1 252.087C273.644 251.536 273.776 250.81 273.99 250.13C274.892 247.264 275.777 244.393 276.676 241.526C276.754 241.275 276.725 241.097 276.55 240.888C275.118 239.172 273.703 237.44 272.271 235.722C272.092 235.506 271.872 235.314 271.637 235.158C270.605 234.468 269.499 233.873 268.537 233.097C267.448 232.22 266.146 231.904 264.897 231.438C263.432 230.891 261.948 230.393 260.468 229.885C260.3 229.828 260.1 229.789 259.932 229.823C259.563 229.901 259.333 229.761 259.17 229.45C258.346 227.876 257.523 226.302 256.699 224.73C256.257 223.884 255.813 223.039 255.353 222.16C254.64 222.518 253.945 222.867 253.25 223.217C251.822 223.939 250.392 224.658 248.967 225.387C248.804 225.47 248.65 225.583 248.522 225.712C246.257 228.014 244.001 230.326 241.727 232.621C241.434 232.916 241.061 233.136 240.705 233.359C239.398 234.175 238.085 234.981 236.77 235.78C236.515 235.935 236.346 236.127 236.238 236.414C235.751 237.73 235.257 239.041 234.73 240.341C234.644 240.556 234.411 240.743 234.201 240.873C233.325 241.415 232.433 241.931 231.546 242.456C231.518 242.473 231.499 242.505 231.441 242.566C232.077 242.911 232.691 243.248 233.309 243.579C234.393 244.159 235.489 244.717 236.56 245.318C236.999 245.565 237.421 245.862 237.799 246.195C239.68 247.855 241.544 249.538 243.417 251.206C243.533 251.309 243.682 251.394 243.831 251.436C248.373 252.708 252.914 253.985 257.462 255.238C259.22 255.722 260.982 256.203 262.763 256.594C264.859 257.052 266.975 257.424 269.088 257.794C269.392 257.848 269.733 257.68 270.058 257.621C270.726 257.499 271.396 257.381 272.071 257.181C271.59 257.077 271.105 256.985 270.627 256.869C269.53 256.601 268.436 256.324 267.342 256.046C266.995 255.958 266.764 255.768 266.556 255.44C265.918 254.435 265.253 253.437 264.506 252.512C264.187 252.116 263.643 251.899 263.194 251.611C259.984 249.555 256.78 247.49 253.559 245.449C251.345 244.046 249.117 242.665 247.076 241.013C245.213 239.505 243.371 237.97 241.521 236.447C241.473 236.408 241.423 236.371 241.337 236.302C240.681 237.037 240.027 237.769 239.292 238.593H242.642V239.304H237.5C237.123 240.953 236.743 242.619 236.352 244.336C236.118 244.29 235.897 244.244 235.648 244.196C235.854 243.278 236.052 242.398 236.251 241.516C236.431 240.718 236.618 239.92 236.793 239.121C236.908 238.595 236.994 238.477 237.512 238.554C238.122 238.644 238.523 238.437 238.902 237.967C239.534 237.186 240.226 236.452 240.898 235.704C241.204 235.364 241.322 235.353 241.677 235.644C243.559 237.189 245.433 238.743 247.32 240.281C247.896 240.751 248.503 241.182 249.18 241.693C248.386 239.198 247.621 236.792 246.843 234.347C247.081 234.271 247.286 234.205 247.524 234.13C247.811 235.019 248.091 235.877 248.364 236.736C248.94 238.547 249.507 240.361 250.092 242.168C250.143 242.327 250.282 242.49 250.425 242.582C255.129 245.599 259.843 248.601 264.54 251.631C264.922 251.877 265.234 252.262 265.508 252.634C266.104 253.443 266.642 254.296 267.233 255.109C267.348 255.267 267.583 255.379 267.783 255.428C269.279 255.791 270.779 256.134 272.28 256.479C272.602 256.553 272.927 256.613 273.3 256.689C273.161 255.42 273.033 254.2 272.883 252.985C272.87 252.874 272.726 252.745 272.611 252.686C271.468 252.113 270.321 251.547 269.166 250.994C268.909 250.871 268.753 250.708 268.679 250.434C268.572 250.039 268.423 249.655 268.317 249.258C268.253 249.021 268.124 248.926 267.886 248.882C266.628 248.654 265.374 248.406 264.116 248.177C263.829 248.125 263.681 247.998 263.664 247.692C263.53 245.434 263.381 243.178 263.255 240.919C263.242 240.687 263.316 240.428 263.42 240.217C263.759 239.525 264.143 238.856 264.48 238.165C264.547 238.027 264.551 237.796 264.48 237.662C263.598 235.965 262.702 234.275 261.789 232.594C261.696 232.423 261.49 232.265 261.302 232.2C259.093 231.448 256.877 230.715 254.663 229.977C254.192 229.819 254.14 229.757 254.233 229.276C254.565 227.546 254.908 225.818 255.257 224.041L255.255 224.04ZM252.285 230.145C252.141 230.925 251.998 231.653 251.874 232.384C251.792 232.866 251.636 233.335 251.847 233.842C252.137 234.539 252.369 235.262 252.623 235.976C252.887 236.722 253.147 237.468 253.419 238.241C253.187 238.327 252.983 238.403 252.764 238.484C252.72 238.393 252.682 238.33 252.659 238.261C252.231 237.043 251.845 235.811 251.366 234.614C251.045 233.812 250.931 233.046 251.161 232.201C251.351 231.503 251.44 230.777 251.578 230.041C251.827 230.078 252.033 230.108 252.287 230.146L252.285 230.145Z" fill="white"/>
<path d="M238.749 266.43C239.714 266.074 240.655 265.725 241.596 265.378C241.923 265.257 242.241 265.106 242.577 265.028C244.75 264.529 246.542 263.209 248.515 262.284C250.346 261.424 252.126 260.455 253.928 259.533C254.002 259.496 254.075 259.453 254.205 259.382C253.468 258.886 252.776 258.417 252.081 257.949C249.176 255.993 246.252 254.066 243.376 252.069C242.485 251.45 241.722 250.644 240.906 249.918C239.598 248.752 238.308 247.567 236.983 246.422C236.633 246.12 236.189 245.919 235.776 245.696C234.323 244.91 232.865 244.134 231.408 243.355C231.324 243.31 231.236 243.27 231.084 243.196C231.094 243.382 231.097 243.51 231.108 243.638C231.263 245.457 231.389 247.281 231.589 249.095C231.67 249.829 231.898 250.548 232.091 251.266C232.481 252.716 232.849 254.176 233.311 255.603C233.565 256.386 233.967 257.126 234.343 257.863C235.712 260.553 237.099 263.232 238.479 265.915C238.563 266.079 238.651 266.241 238.749 266.427V266.43Z" fill="white"/>
<path d="M266.89 263.391C266.775 262.606 266.683 261.855 266.551 261.112C266.467 260.639 266.562 260.284 266.953 259.965C267.511 259.512 268.021 259.001 268.611 258.461C268.31 258.394 268.069 258.332 267.824 258.286C265.703 257.881 263.571 257.525 261.462 257.061C259.949 256.728 258.466 256.255 256.972 255.838C253.218 254.791 249.465 253.739 245.711 252.69C245.689 252.684 245.663 252.692 245.57 252.697C245.838 252.881 246.06 253.035 246.286 253.188C249.171 255.127 252.057 257.066 254.942 259.005C255.408 259.318 255.396 259.584 254.901 259.841C254.175 260.218 253.446 260.589 252.617 261.013C253.302 261.149 253.886 261.269 254.473 261.382C255.727 261.626 256.982 261.878 258.24 262.099C258.507 262.145 258.814 262.132 259.069 262.044C261.332 261.26 263.589 260.455 265.848 259.656C265.929 259.627 266.012 259.602 266.131 259.563C266.207 259.774 266.282 259.978 266.371 260.222C265.999 260.353 265.653 260.475 265.306 260.598C263.272 261.321 261.24 262.053 259.198 262.757C258.91 262.857 258.561 262.892 258.264 262.837C256.093 262.433 253.928 261.997 251.759 261.579C251.647 261.557 251.507 261.579 251.406 261.63C248.925 262.889 246.448 264.154 243.971 265.42C243.928 265.442 243.892 265.475 243.824 265.523C244.314 266.207 244.851 266.849 245.264 267.561C245.702 268.315 246.256 268.608 247.125 268.503C247.836 268.418 248.603 268.621 249.275 268.439C249.946 268.259 250.534 267.763 251.156 267.4C251.927 266.949 252.715 266.521 253.462 266.033C254.133 265.595 254.901 265.588 255.634 265.449C258.988 264.815 262.348 264.214 265.705 263.601C266.082 263.533 266.46 263.466 266.888 263.389L266.89 263.391Z" fill="white"/>
<path d="M252.287 230.138C252.032 230.1 251.827 230.07 251.577 230.033C251.439 230.768 251.352 231.495 251.16 232.194C250.93 233.038 251.044 233.804 251.365 234.606C251.844 235.803 252.231 237.036 252.658 238.253C252.683 238.322 252.721 238.385 252.763 238.477C252.983 238.395 253.188 238.319 253.418 238.233C253.147 237.461 252.886 236.714 252.622 235.968C252.368 235.255 252.138 234.532 251.847 233.834C251.636 233.328 251.792 232.858 251.873 232.376C251.997 231.645 252.14 230.917 252.284 230.137L252.287 230.138Z" fill="#B8B0B0"/>
<path d="M280.314 252.769C279.751 252.969 279.187 253.169 278.623 253.368C277.926 253.614 277.228 253.855 276.533 254.105C276.403 254.151 276.309 254.145 276.2 254.049C275.896 253.779 275.581 253.524 275.223 253.223C276.954 253.051 278.62 252.804 280.299 252.671C280.304 252.704 280.309 252.736 280.314 252.769Z" fill="white"/>
<path d="M275.502 254.437C275.117 254.113 274.747 253.801 274.377 253.49C274.283 253.41 274.187 253.331 274.097 253.248C273.972 253.134 273.901 252.977 273.991 252.834C274.061 252.725 274.2 252.612 274.322 252.593C274.963 252.5 275.607 252.435 276.25 252.361C277.383 252.231 278.519 252.117 279.649 251.963C280.082 251.904 280.475 251.998 280.877 252.099C281.229 252.187 281.224 252.184 281.39 251.867C282.124 250.466 282.859 249.067 283.596 247.669C283.779 247.324 283.925 247.275 284.265 247.448C285.718 248.181 287.169 248.916 288.618 249.656C288.719 249.707 288.809 249.787 288.889 249.868C290.308 251.318 291.717 252.777 293.149 254.213C293.383 254.448 293.707 254.594 293.995 254.772C294.769 255.251 295.547 255.722 296.316 256.208C296.429 256.28 296.535 256.406 296.585 256.531C296.916 257.361 297.229 258.199 297.555 259.032C297.588 259.116 297.662 259.201 297.74 259.248C298.366 259.629 298.988 260.017 299.63 260.368C299.929 260.531 300.024 260.739 299.992 261.061C299.914 261.843 299.851 262.628 299.784 263.412C299.739 263.942 299.738 264.48 299.643 265.001C299.522 265.674 299.335 266.335 299.162 266.997C298.957 267.781 298.764 268.569 298.512 269.336C298.361 269.793 298.117 270.22 297.896 270.652C296.992 272.424 296.077 274.19 295.173 275.962C294.837 276.619 294.814 276.638 294.112 276.384C293.439 276.14 292.764 275.897 292.094 275.641C291.957 275.589 291.891 275.616 291.81 275.729C291.409 276.295 290.992 276.85 290.596 277.42C290.436 277.654 290.252 277.758 289.961 277.75C289.283 277.729 288.603 277.749 287.924 277.737C287.777 277.734 287.616 277.695 287.489 277.622C286.607 277.114 285.744 276.574 284.85 276.089C284.577 275.941 284.232 275.919 283.916 275.861C281.749 275.461 279.581 275.067 277.413 274.671C277.14 274.621 276.867 274.574 276.594 274.522C276.266 274.459 276.161 274.315 276.205 273.988C276.275 273.476 276.355 272.965 276.412 272.452C276.423 272.359 276.371 272.227 276.303 272.161C275.937 271.807 275.561 271.465 275.181 271.126C275.105 271.06 275 271.008 274.9 270.989C274.15 270.849 273.399 270.718 272.647 270.583C272.254 270.512 272.163 270.378 272.209 269.976C272.305 269.125 272.4 268.274 272.489 267.423C272.497 267.345 272.487 267.242 272.443 267.186C272.082 266.738 271.976 266.184 271.809 265.659C271.246 263.88 270.702 262.095 270.136 260.318C270.033 259.993 270.088 259.761 270.308 259.5C271.287 258.339 272.242 257.157 273.214 255.99C273.324 255.857 273.48 255.759 273.627 255.663C274.214 255.278 274.805 254.9 275.394 254.518C275.424 254.499 275.452 254.475 275.501 254.439L275.502 254.437ZM284.203 249.394C284.42 250.497 284.632 251.57 284.839 252.644C284.897 252.943 284.865 252.982 284.572 253.079C283.197 253.538 281.821 253.993 280.45 254.46C280.333 254.499 280.205 254.598 280.148 254.705C279.581 255.748 279.025 256.797 278.476 257.851C278.433 257.934 278.435 258.078 278.476 258.164C278.686 258.593 278.924 259.008 279.135 259.438C279.199 259.569 279.245 259.73 279.237 259.874C279.159 261.276 279.067 262.677 278.983 264.079C278.972 264.269 278.88 264.348 278.703 264.38C277.921 264.523 277.142 264.677 276.361 264.818C276.214 264.844 276.133 264.904 276.094 265.052C276.028 265.297 275.936 265.536 275.869 265.782C275.823 265.953 275.726 266.054 275.567 266.13C274.85 266.473 274.137 266.825 273.427 267.18C273.356 267.216 273.267 267.297 273.259 267.366C273.166 268.121 273.086 268.877 273 269.665C273.231 269.618 273.433 269.581 273.633 269.535C274.565 269.321 275.497 269.108 276.426 268.883C276.55 268.852 276.696 268.783 276.767 268.684C277.134 268.18 277.468 267.65 277.838 267.148C278.008 266.916 278.202 266.677 278.439 266.525C281.356 264.645 284.283 262.78 287.204 260.906C287.292 260.849 287.379 260.748 287.41 260.65C287.774 259.527 288.126 258.401 288.483 257.277C288.653 256.742 288.827 256.209 289.004 255.658C289.153 255.705 289.28 255.746 289.428 255.793C288.945 257.311 288.469 258.805 287.977 260.354C288.397 260.037 288.774 259.769 289.132 259.478C290.303 258.523 291.467 257.557 292.636 256.598C292.856 256.417 292.93 256.424 293.119 256.635C293.536 257.1 293.966 257.556 294.358 258.041C294.594 258.333 294.843 258.461 295.221 258.405C295.542 258.358 295.597 258.432 295.668 258.757C295.776 259.254 295.893 259.749 296.005 260.245C296.128 260.791 296.251 261.338 296.379 261.908C296.224 261.939 296.086 261.967 295.942 261.995C295.699 260.93 295.463 259.895 295.229 258.871H292.035V258.429H294.115C293.658 257.918 293.252 257.464 292.845 257.007C292.791 257.05 292.761 257.072 292.731 257.097C291.582 258.043 290.438 258.996 289.282 259.932C288.014 260.958 286.631 261.815 285.256 262.686C283.257 263.954 281.266 265.236 279.273 266.513C278.995 266.691 278.657 266.826 278.459 267.072C277.995 267.647 277.582 268.266 277.186 268.89C277.056 269.094 276.913 269.211 276.698 269.267C276.019 269.439 275.339 269.612 274.658 269.777C274.361 269.85 274.06 269.908 273.761 269.971C274.181 270.095 274.596 270.169 275.012 270.244C275.213 270.282 275.425 270.385 275.613 270.352C276.926 270.122 278.24 269.891 279.541 269.606C280.647 269.365 281.741 269.066 282.832 268.765C285.657 267.987 288.476 267.194 291.297 266.404C291.389 266.378 291.481 266.325 291.553 266.261C292.717 265.225 293.874 264.181 295.042 263.15C295.276 262.943 295.538 262.758 295.811 262.605C296.476 262.232 297.157 261.885 297.83 261.525C298.213 261.32 298.595 261.11 298.989 260.896C298.954 260.858 298.942 260.839 298.924 260.828C298.374 260.501 297.82 260.181 297.276 259.845C297.145 259.765 297.002 259.648 296.947 259.515C296.62 258.708 296.314 257.893 296.011 257.077C295.945 256.899 295.84 256.78 295.681 256.683C294.864 256.187 294.049 255.686 293.237 255.18C293.016 255.042 292.785 254.904 292.603 254.721C291.191 253.297 289.791 251.861 288.384 250.432C288.304 250.351 288.208 250.281 288.108 250.229C287.223 249.778 286.335 249.33 285.448 248.882C285.016 248.664 284.585 248.448 284.142 248.226C283.856 248.772 283.581 249.297 283.306 249.822C282.795 250.799 282.284 251.776 281.772 252.752C281.671 252.945 281.528 253.032 281.299 252.984C281.194 252.962 281.069 252.986 280.966 253.023C280.048 253.338 279.126 253.648 278.216 253.987C277.441 254.276 276.632 254.472 275.956 255.017C275.358 255.499 274.672 255.868 274.031 256.296C273.886 256.393 273.748 256.514 273.637 256.647C272.748 257.714 271.87 258.789 270.98 259.855C270.872 259.985 270.854 260.095 270.902 260.251C271.46 262.031 272.009 263.814 272.57 265.593C272.703 266.015 272.784 266.466 273.122 266.808C273.145 266.801 273.175 266.797 273.202 266.784C273.909 266.439 274.617 266.096 275.32 265.742C275.39 265.707 275.449 265.615 275.477 265.536C275.574 265.26 275.657 264.979 275.741 264.698C275.785 264.552 275.861 264.459 276.024 264.435C276.252 264.402 276.478 264.349 276.705 264.306C277.315 264.187 277.926 264.069 278.538 263.95C278.625 262.58 278.713 261.234 278.793 259.887C278.799 259.793 278.763 259.689 278.719 259.603C278.506 259.184 278.289 258.767 278.061 258.355C277.993 258.23 277.902 258.108 277.795 258.015C277.34 257.622 276.875 257.24 276.414 256.852C276.039 256.536 275.665 256.218 275.277 255.889C275.381 255.767 275.468 255.665 275.565 255.551C276.404 256.255 277.222 256.942 278.052 257.638C278.089 257.582 278.116 257.546 278.136 257.507C278.685 256.48 279.229 255.449 279.787 254.427C279.862 254.291 279.992 254.138 280.13 254.09C281.252 253.701 282.381 253.335 283.508 252.961C283.799 252.865 284.087 252.764 284.388 252.662C284.177 251.59 283.972 250.542 283.763 249.478C283.916 249.448 284.043 249.424 284.203 249.393V249.394ZM294.454 275.719C294.515 275.604 294.57 275.504 294.622 275.402C295.479 273.735 296.34 272.071 297.19 270.402C297.423 269.943 297.673 269.485 297.83 268.999C298.117 268.112 298.346 267.206 298.588 266.305C298.708 265.86 298.849 265.413 298.9 264.957C299.025 263.831 299.102 262.699 299.198 261.569C299.205 261.49 299.207 261.409 299.213 261.294C299.119 261.341 299.064 261.366 299.012 261.394C298.107 261.877 297.202 262.359 296.3 262.847C296.043 262.985 295.768 263.11 295.551 263.298C294.728 264.009 293.927 264.745 293.115 265.468C292.608 265.919 292.134 266.42 291.581 266.804C289.795 268.045 287.98 269.242 286.176 270.455C285.744 270.745 285.314 271.036 284.857 271.345C284.937 271.389 284.982 271.415 285.029 271.439C286.148 272.011 287.253 272.614 288.39 273.147C289.615 273.721 290.728 274.541 292.077 274.85C292.286 274.898 292.484 274.993 292.686 275.068C293.271 275.283 293.855 275.499 294.454 275.721V275.719ZM276.979 273.833C277.244 273.881 277.479 273.922 277.713 273.965C279.798 274.346 281.884 274.719 283.966 275.112C284.422 275.199 284.899 275.203 285.315 275.475C285.779 275.778 286.268 276.044 286.747 276.323C287.133 276.549 287.498 276.857 287.915 276.969C288.333 277.081 288.808 276.956 289.25 277.008C289.79 277.074 290.134 276.892 290.406 276.423C290.662 275.981 290.995 275.582 291.3 275.159C291.257 275.128 291.234 275.108 291.209 275.094C289.671 274.308 288.132 273.523 286.592 272.741C286.529 272.709 286.441 272.695 286.373 272.709C285.026 272.969 283.682 273.24 282.334 273.49C282.149 273.524 281.932 273.503 281.754 273.441C280.486 273.004 279.224 272.549 277.961 272.1C277.746 272.024 277.531 271.948 277.3 271.867C277.355 271.715 277.401 271.589 277.449 271.458C277.523 271.482 277.574 271.497 277.625 271.515C279.027 272.012 280.428 272.512 281.834 272.998C281.991 273.053 282.183 273.061 282.349 273.032C283.131 272.895 283.909 272.739 284.688 272.587C285.052 272.517 285.414 272.443 285.84 272.358C285.325 272.094 284.872 271.864 284.422 271.63C284.115 271.471 284.107 271.306 284.396 271.111C286.188 269.907 287.98 268.703 289.771 267.499C289.911 267.405 290.049 267.308 290.216 267.194C290.158 267.191 290.142 267.186 290.128 267.19C287.797 267.841 285.467 268.494 283.136 269.145C282.208 269.404 281.287 269.697 280.348 269.904C279.039 270.192 277.716 270.413 276.398 270.665C276.246 270.693 276.096 270.732 275.909 270.774C276.275 271.109 276.592 271.425 276.938 271.707C277.181 271.904 277.24 272.125 277.188 272.419C277.106 272.881 277.049 273.347 276.977 273.835L276.979 273.833ZM280.313 252.772C280.308 252.74 280.303 252.707 280.297 252.674C278.619 252.807 276.953 253.054 275.222 253.226C275.579 253.527 275.896 253.783 276.199 254.052C276.308 254.149 276.402 254.155 276.532 254.108C277.227 253.858 277.925 253.618 278.622 253.372C279.185 253.172 279.749 252.972 280.313 252.772Z" fill="#B8B0B0"/>
<path d="M284.204 249.394C284.043 249.425 283.917 249.449 283.764 249.479C283.973 250.542 284.178 251.591 284.389 252.662C284.089 252.765 283.8 252.866 283.509 252.962C282.382 253.336 281.253 253.702 280.131 254.091C279.993 254.139 279.863 254.291 279.788 254.428C279.23 255.45 278.686 256.48 278.137 257.508C278.116 257.547 278.09 257.583 278.053 257.639C277.223 256.943 276.405 256.256 275.566 255.552C275.469 255.665 275.382 255.768 275.278 255.89C275.666 256.219 276.04 256.536 276.415 256.853C276.875 257.24 277.341 257.622 277.796 258.016C277.903 258.109 277.993 258.231 278.062 258.356C278.29 258.768 278.507 259.185 278.72 259.604C278.764 259.69 278.8 259.794 278.794 259.887C278.714 261.235 278.626 262.582 278.538 263.951C277.926 264.07 277.316 264.188 276.706 264.306C276.479 264.35 276.253 264.403 276.025 264.436C275.862 264.46 275.785 264.553 275.742 264.699C275.658 264.98 275.575 265.261 275.478 265.537C275.45 265.616 275.391 265.708 275.321 265.743C274.618 266.097 273.91 266.44 273.203 266.785C273.176 266.798 273.146 266.802 273.123 266.809C272.786 266.467 272.704 266.016 272.571 265.594C272.011 263.814 271.461 262.032 270.903 260.252C270.855 260.096 270.873 259.985 270.981 259.856C271.871 258.79 272.749 257.714 273.638 256.648C273.749 256.514 273.886 256.394 274.032 256.297C274.673 255.869 275.359 255.499 275.957 255.018C276.633 254.473 277.442 254.277 278.217 253.988C279.127 253.648 280.048 253.339 280.967 253.024C281.071 252.988 281.195 252.964 281.3 252.985C281.529 253.033 281.671 252.946 281.773 252.753C282.285 251.776 282.796 250.799 283.307 249.822C283.582 249.297 283.858 248.773 284.143 248.227C284.586 248.449 285.017 248.666 285.449 248.883C286.336 249.331 287.224 249.778 288.108 250.23C288.209 250.282 288.305 250.352 288.385 250.433C289.791 251.862 291.191 253.298 292.604 254.722C292.786 254.905 293.017 255.042 293.238 255.181C294.05 255.687 294.865 256.188 295.682 256.684C295.84 256.78 295.945 256.899 296.012 257.078C296.314 257.894 296.621 258.709 296.948 259.516C297.002 259.649 297.146 259.766 297.277 259.846C297.821 260.183 298.375 260.503 298.925 260.829C298.943 260.84 298.955 260.859 298.99 260.897C298.596 261.111 298.214 261.321 297.831 261.526C297.158 261.887 296.477 262.233 295.812 262.606C295.539 262.759 295.277 262.944 295.043 263.151C293.875 264.182 292.717 265.226 291.554 266.262C291.482 266.326 291.39 266.379 291.297 266.405C288.477 267.195 285.658 267.987 282.833 268.766C281.742 269.066 280.648 269.365 279.542 269.607C278.24 269.892 276.927 270.123 275.614 270.353C275.426 270.386 275.214 270.282 275.013 270.245C274.598 270.17 274.182 270.096 273.762 269.972C274.061 269.908 274.362 269.85 274.659 269.778C275.34 269.612 276.019 269.44 276.699 269.267C276.914 269.213 277.058 269.095 277.187 268.891C277.583 268.267 277.996 267.648 278.46 267.073C278.658 266.827 278.996 266.692 279.274 266.514C281.267 265.237 283.257 263.955 285.257 262.687C286.632 261.816 288.015 260.959 289.282 259.933C290.439 258.997 291.583 258.044 292.732 257.098C292.761 257.074 292.792 257.05 292.846 257.008C293.253 257.465 293.659 257.919 294.116 258.43H292.035V258.872H295.228C295.462 259.896 295.698 260.931 295.941 261.996C296.087 261.968 296.224 261.94 296.378 261.909C296.25 261.339 296.127 260.793 296.004 260.246C295.892 259.75 295.776 259.255 295.667 258.758C295.596 258.432 295.542 258.358 295.221 258.406C294.842 258.462 294.593 258.333 294.358 258.042C293.966 257.557 293.536 257.101 293.119 256.636C292.929 256.425 292.855 256.418 292.635 256.599C291.466 257.558 290.303 258.523 289.131 259.479C288.773 259.77 288.396 260.038 287.976 260.355C288.469 258.806 288.944 257.312 289.427 255.794C289.279 255.747 289.152 255.706 289.004 255.659C288.826 256.211 288.652 256.744 288.482 257.278C288.125 258.402 287.773 259.528 287.41 260.65C287.378 260.749 287.292 260.85 287.203 260.907C284.282 262.78 281.355 264.645 278.439 266.526C278.202 266.679 278.008 266.918 277.838 267.149C277.467 267.651 277.134 268.18 276.766 268.685C276.695 268.784 276.549 268.853 276.425 268.884C275.496 269.109 274.565 269.322 273.633 269.536C273.433 269.582 273.231 269.619 272.999 269.666C273.085 268.878 273.165 268.121 273.258 267.367C273.266 267.298 273.356 267.218 273.427 267.181C274.137 266.826 274.849 266.474 275.566 266.131C275.726 266.054 275.823 265.953 275.869 265.783C275.935 265.537 276.028 265.299 276.094 265.053C276.133 264.905 276.213 264.846 276.361 264.819C277.142 264.677 277.921 264.524 278.702 264.381C278.88 264.349 278.972 264.27 278.983 264.08C279.066 262.678 279.158 261.277 279.236 259.875C279.245 259.731 279.199 259.57 279.134 259.439C278.924 259.009 278.685 258.594 278.476 258.165C278.434 258.079 278.432 257.935 278.476 257.852C279.024 256.798 279.58 255.749 280.147 254.705C280.205 254.599 280.332 254.501 280.449 254.461C281.821 253.994 283.197 253.539 284.571 253.08C284.864 252.983 284.896 252.944 284.838 252.645C284.633 251.571 284.419 250.498 284.203 249.395L284.204 249.394ZM286.048 253.185C286.137 253.669 286.226 254.121 286.303 254.575C286.354 254.874 286.451 255.166 286.32 255.481C286.14 255.914 285.996 256.362 285.838 256.805C285.674 257.268 285.513 257.732 285.344 258.212C285.488 258.265 285.614 258.312 285.751 258.363C285.778 258.306 285.801 258.267 285.816 258.224C286.081 257.468 286.321 256.703 286.619 255.96C286.818 255.462 286.889 254.986 286.746 254.462C286.628 254.028 286.573 253.578 286.487 253.12C286.333 253.143 286.205 253.162 286.047 253.186L286.048 253.185Z" fill="white"/>
<path d="M294.453 275.719C293.855 275.498 293.27 275.281 292.686 275.066C292.483 274.991 292.285 274.897 292.076 274.848C290.728 274.539 289.615 273.719 288.389 273.144C287.252 272.611 286.147 272.009 285.029 271.437C284.982 271.413 284.937 271.387 284.857 271.343C285.314 271.035 285.744 270.743 286.175 270.453C287.979 269.239 289.795 268.042 291.581 266.802C292.134 266.417 292.608 265.917 293.114 265.466C293.926 264.742 294.727 264.007 295.55 263.296C295.767 263.108 296.043 262.983 296.299 262.845C297.202 262.357 298.107 261.875 299.012 261.391C299.064 261.363 299.118 261.338 299.213 261.292C299.207 261.408 299.205 261.488 299.198 261.567C299.102 262.696 299.024 263.829 298.9 264.955C298.849 265.411 298.707 265.857 298.588 266.303C298.345 267.204 298.117 268.11 297.83 268.996C297.673 269.482 297.423 269.942 297.19 270.4C296.34 272.07 295.478 273.733 294.621 275.399C294.569 275.501 294.515 275.601 294.453 275.717V275.719Z" fill="white"/>
<path d="M276.981 273.837C277.052 273.349 277.109 272.883 277.191 272.421C277.243 272.128 277.184 271.907 276.941 271.709C276.595 271.428 276.278 271.111 275.912 270.776C276.099 270.734 276.249 270.696 276.401 270.667C277.718 270.415 279.042 270.194 280.351 269.906C281.291 269.699 282.211 269.406 283.139 269.147C285.47 268.497 287.8 267.843 290.131 267.192C290.145 267.189 290.161 267.193 290.219 267.196C290.052 267.31 289.915 267.407 289.774 267.501C287.983 268.706 286.191 269.909 284.399 271.113C284.11 271.308 284.118 271.473 284.425 271.633C284.876 271.866 285.328 272.097 285.843 272.36C285.418 272.445 285.055 272.519 284.691 272.589C283.912 272.741 283.133 272.897 282.352 273.034C282.186 273.063 281.995 273.055 281.837 273C280.432 272.514 279.03 272.013 277.628 271.518C277.577 271.499 277.526 271.484 277.452 271.46C277.405 271.591 277.358 271.717 277.303 271.869C277.534 271.951 277.749 272.026 277.964 272.103C279.227 272.552 280.489 273.006 281.757 273.443C281.936 273.505 282.152 273.526 282.337 273.492C283.685 273.242 285.029 272.971 286.376 272.711C286.445 272.698 286.533 272.711 286.595 272.743C288.136 273.525 289.674 274.311 291.212 275.096C291.238 275.11 291.26 275.13 291.303 275.161C290.998 275.585 290.665 275.983 290.409 276.426C290.137 276.894 289.793 277.076 289.253 277.011C288.812 276.958 288.336 277.084 287.918 276.971C287.501 276.859 287.137 276.551 286.751 276.326C286.271 276.046 285.782 275.78 285.318 275.477C284.902 275.205 284.425 275.201 283.97 275.115C281.887 274.721 279.801 274.348 277.716 273.967C277.483 273.925 277.248 273.883 276.982 273.835L276.981 273.837Z" fill="white"/>
<path d="M286.048 253.182C286.206 253.158 286.333 253.14 286.488 253.117C286.574 253.573 286.628 254.024 286.747 254.458C286.89 254.983 286.819 255.458 286.62 255.956C286.322 256.699 286.082 257.465 285.817 258.221C285.802 258.263 285.778 258.303 285.752 258.359C285.615 258.309 285.488 258.262 285.345 258.208C285.513 257.729 285.675 257.265 285.839 256.802C285.997 256.359 286.14 255.91 286.321 255.477C286.452 255.163 286.355 254.871 286.304 254.572C286.228 254.117 286.138 253.666 286.049 253.181L286.048 253.182Z" fill="#B8B0B0"/>
<path d="M198.652 1.50861C207.856 2.71467 210.135 5.80968 208.054 15.3881C205.11 28.9263 201.884 42.4064 198.673 55.8811C197.495 60.8202 194.202 63.3131 190.19 62.6732C186.515 62.0848 184.218 58.6024 184.363 53.7135C184.752 40.4538 185.168 27.1907 185.584 13.9273C185.623 12.6342 185.723 11.3419 185.878 10.0567C186.685 3.11467 190.031 0.378802 196.623 1.23567C197.3 1.32437 197.976 1.41303 198.646 1.50083L198.652 1.50861Z" fill="#EA4335"/>
<path d="M190.341 69.4726C195.556 70.1993 199.07 75.2389 198.257 80.8018C197.474 86.1376 192.714 90.0276 187.705 89.429C182.573 88.8143 178.946 83.7384 179.649 78.154C180.354 72.5623 185.066 68.7308 190.342 69.4655L190.341 69.4726Z" fill="#EA4335"/>
</svg>
