<svg width="56" height="57" viewBox="0 0 56 57" fill="none" xmlns="http://www.w3.org/2000/svg">
<path d="M28 56.8047C12.5635 56.8047 0 44.2412 0 28.8047C0 13.3682 12.5635 0.804688 28 0.804688C43.4365 0.804688 56 13.3682 56 28.8047C56 44.2412 43.4365 56.8047 28 56.8047ZM28 3.23947C13.9026 3.23947 2.43478 14.7073 2.43478 28.8047C2.43478 42.9021 13.9026 54.3699 28 54.3699C42.0974 54.3699 53.5652 42.9021 53.5652 28.8047C53.5652 14.7073 42.0974 3.23947 28 3.23947Z" fill="#25D366"/>
<path d="M42.2739 20.427L23.9643 38.8218C23.8609 38.9314 23.733 39.0105 23.593 39.0714C23.453 39.1322 23.307 39.1566 23.1548 39.1566C23.0026 39.1566 22.8565 39.1262 22.7165 39.0714C22.5765 39.0166 22.4487 38.9314 22.3452 38.8218L14.3348 30.7748C14.1217 30.5618 14 30.2635 14 29.9592C14 29.6549 14.1217 29.3627 14.3348 29.1435C14.5478 28.9305 14.84 28.8088 15.1443 28.8088C15.4487 28.8088 15.7409 28.9305 15.9539 29.1435L23.1548 36.3809L40.6548 18.7957C40.8678 18.5827 41.16 18.4609 41.4643 18.4609C41.7687 18.4609 42.0609 18.5827 42.2739 18.7957C42.4869 19.0088 42.6087 19.307 42.6087 19.6114C42.6087 19.9157 42.4869 20.2079 42.2739 20.427Z" fill="#25D366"/>
</svg>
