<svg id="Layer_1" data-name="Layer 1" xmlns="http://www.w3.org/2000/svg" viewBox="0 0 32 32"><defs><style>.cls-1{fill:red;}</style></defs><g id="Group_3642" data-name="Group 3642"><g id="Group_2172" data-name="Group 2172"><g id="Group_1745" data-name="Group 1745"><g id="Group_1746" data-name="Group 1746"><path id="Path_643" data-name="Path 643" class="cls-1" d="M28.69,5.62H22.92V4.46A3.46,3.46,0,0,0,19.46,1H12.54A3.46,3.46,0,0,0,9.08,4.46V5.61H3.31a1.16,1.16,0,1,0,0,2.31H4.46V28.69A2.31,2.31,0,0,0,6.77,31H25.23a2.3,2.3,0,0,0,2.31-2.31V7.92h1.15a1.16,1.16,0,1,0,0-2.31M11.38,4.46a1.16,1.16,0,0,1,1.16-1.15h6.92a1.16,1.16,0,0,1,1.16,1.15V5.61H11.38ZM25.23,28.69H6.77V7.92H25.23Z"/><path id="Path_644" data-name="Path 644" class="cls-1" d="M12.54,12.54a1.16,1.16,0,0,0-1.16,1.15v9.23a1.16,1.16,0,1,0,2.31,0V13.69a1.15,1.15,0,0,0-1.15-1.15h0"/><path id="Path_645" data-name="Path 645" class="cls-1" d="M19.46,12.54a1.15,1.15,0,0,0-1.15,1.15v9.23a1.16,1.16,0,1,0,2.31,0h0V13.69a1.16,1.16,0,0,0-1.16-1.15"/></g></g></g></g></svg>