<svg id="Layer_1" data-name="Layer 1" xmlns="http://www.w3.org/2000/svg" xmlns:xlink="http://www.w3.org/1999/xlink" viewBox="0 0 32 32"><defs><style>.cls-1{fill:none;}.cls-2{clip-path:url(#clip-path);}.cls-3{fill:#005063;}</style><clipPath id="clip-path"><rect class="cls-1" x="1" y="1" width="30" height="30"/></clipPath></defs><g class="cls-2"><g id="Group_3615" data-name="Group 3615"><path id="Path_1690" data-name="Path 1690" class="cls-3" d="M16,31A15,15,0,1,1,31,16,15,15,0,0,1,16,31M16,2.76A13.24,13.24,0,1,0,29.24,16h0A13.26,13.26,0,0,0,16,2.76"/><path id="Path_1691" data-name="Path 1691" class="cls-3" d="M16,23.94a.87.87,0,0,1-.88-.88V14.82a.88.88,0,0,1,1.76,0v8.24a.87.87,0,0,1-.88.88h0"/><path id="Path_1692" data-name="Path 1692" class="cls-3" d="M15.71,8.06a1.47,1.47,0,1,1-1.47,1.47h0a1.47,1.47,0,0,1,1.47-1.47"/></g></g></svg>