<svg id="Layer_1" data-name="Layer 1" xmlns="http://www.w3.org/2000/svg" viewBox="0 0 32 32"><defs><style>.cls-1{fill:#e9fbff;}.cls-2{fill:none;stroke:#c4c4c4;}.cls-3{fill:#005063;}</style></defs><g id="Group_3613" data-name="Group 3613"><g id="Rectangle_644" data-name="Rectangle 644"><path class="cls-1" d="M8.5,8.5h15A7.5,7.5,0,0,1,31,16h0a7.5,7.5,0,0,1-7.5,7.5H8.5A7.5,7.5,0,0,1,1,16H1A7.5,7.5,0,0,1,8.5,8.5Z"/><path class="cls-2" d="M8.5,9h15a7,7,0,0,1,7,7h0a7,7,0,0,1-7,7H8.5a7,7,0,0,1-7-7h0A7,7,0,0,1,8.5,9Z"/></g><circle id="Ellipse_70" data-name="Ellipse 70" class="cls-3" cx="23.5" cy="16" r="6.5"/></g></svg>