<svg id="Layer_1" data-name="Layer 1" xmlns="http://www.w3.org/2000/svg" viewBox="0 0 32 32"><defs><style>.cls-1{fill:#005063;}.cls-2{fill:#fff;}.cls-3{fill:gray;}</style></defs><g id="Group_1737" data-name="Group 1737"><path id="Path_635" data-name="Path 635" class="cls-1" d="M25.14,1H6.83C5,1,4.48,1.56,4.48,3.34q0,10.13,0,20.27v1H7c2.47,0,3.84,1.36,3.85,3.82v2.49l.41.07c4.66,0,9.32,0,14,0,1.72,0,2.25-.58,2.25-2.3q0-12.63,0-25.22c0-1.9-.49-2.37-2.37-2.45"/><rect id="Rectangle_328" data-name="Rectangle 328" class="cls-2" x="7.21" y="19.49" width="17.35" height="1.41"/><rect id="Rectangle_329" data-name="Rectangle 329" class="cls-2" x="7.19" y="11.6" width="17.36" height="1.4"/><rect id="Rectangle_330" data-name="Rectangle 330" class="cls-2" x="7.18" y="14.09" width="17.37" height="1.43"/><path id="Path_636" data-name="Path 636" class="cls-2" d="M14.06,10.66H11c0-.47,0-.9-.08-1.41l-.6,0c0,.51-.07,1-.1,1.46h-3C7,9.51,7.27,9.13,8.35,9a4,4,0,0,0,1-.22c.76-.33.86-.94.27-1.54a2.53,2.53,0,0,1-.21-3.37,1.62,1.62,0,0,1,2.28-.29A1.53,1.53,0,0,1,12,4a2.55,2.55,0,0,1-.27,3.17c-.68.7-.54,1.35.39,1.67a3.16,3.16,0,0,0,.68.14c1.17.13,1.39.41,1.22,1.65"/><rect id="Rectangle_331" data-name="Rectangle 331" class="cls-2" x="12.96" y="24.66" width="11.6" height="1.43"/><rect id="Rectangle_332" data-name="Rectangle 332" class="cls-2" x="12.96" y="22.06" width="11.58" height="1.41"/><rect id="Rectangle_333" data-name="Rectangle 333" class="cls-2" x="7.19" y="16.58" width="10.59" height="1.37"/><path id="Path_637" data-name="Path 637" class="cls-3" d="M6,24.79H4.48l6.21,6.15-.1-3.28a3.19,3.19,0,0,0-3.07-2.85"/></g></svg>