<svg id="Layer_1" data-name="Layer 1" xmlns="http://www.w3.org/2000/svg" xmlns:xlink="http://www.w3.org/1999/xlink" viewBox="0 0 32 32"><defs><style>.cls-1{fill:none;}.cls-2{clip-path:url(#clip-path);}.cls-3{fill:#00d599;}.cls-4{fill:#fff;}</style><clipPath id="clip-path"><rect class="cls-1" x="1" y="1" width="30" height="30"/></clipPath></defs><g class="cls-2"><g id="Group_3632" data-name="Group 3632"><path id="Path_1702" data-name="Path 1702" class="cls-3" d="M16,1A15,15,0,1,0,31,16,15,15,0,0,0,16,1m5.87,13.71a.64.64,0,0,1-.49.22l-.07,0a.54.54,0,0,1-.43-.2l-4.07-4.05V23a.73.73,0,0,1-.21.49.61.61,0,0,1-.47.21.7.7,0,0,1-.71-.68V10.66l-4.07,4.06a.59.59,0,0,1-.5.19.7.7,0,0,1-.65-.75.67.67,0,0,1,.16-.41l5.25-5.23.13-.13.1,0a.18.18,0,0,1,.16,0,.37.37,0,0,1,.21,0,.2.2,0,0,1,.13,0l.05,0a.51.51,0,0,1,.21.15l5.25,5.25a.64.64,0,0,1,.21.47.75.75,0,0,1-.19.49"/><path id="Path_1703" data-name="Path 1703" class="cls-4" d="M22.06,14.22a.7.7,0,0,1-.19.49.64.64,0,0,1-.48.22l-.08,0a.55.55,0,0,1-.43-.2l-4.07-4.05V23a.69.69,0,0,1-.21.49.57.57,0,0,1-.46.21.7.7,0,0,1-.72-.68V10.66l-4.07,4.07a.61.61,0,0,1-.5.18.7.7,0,0,1-.65-.75.67.67,0,0,1,.16-.41l5.25-5.23.13-.13.1,0a.2.2,0,0,1,.17,0,.34.34,0,0,1,.2,0,.19.19,0,0,1,.13,0l.06,0a.51.51,0,0,1,.21.15l5.25,5.25a.6.6,0,0,1,.2.47"/></g></g></svg>