<svg width="14" height="17" viewBox="0 0 14 17" fill="none" xmlns="http://www.w3.org/2000/svg">
<path d="M13.0622 11.8565V11.8632C12.8806 12.9824 12.5401 14.0701 12.0511 15.0931C11.7797 15.7133 11.3929 16.2763 10.9113 16.7521C10.7989 16.8498 10.6557 16.9047 10.5068 16.9074C8.61852 16.914 6.73094 16.9074 4.84136 16.914C4.75481 16.9149 4.6693 16.8951 4.59189 16.8564C4.51448 16.8177 4.44737 16.7612 4.39612 16.6914C3.5661 15.6661 2.82829 14.5694 2.19128 13.4141C1.4572 12.1158 0.80842 10.771 0.249041 9.38837C0.158307 9.14066 0.0883045 8.88584 0.0397544 8.62654L0.0130937 8.50523C-0.0108178 8.3612 -0.00189814 8.21362 0.0391874 8.07351C0.0802729 7.93341 0.152464 7.80439 0.250374 7.69608C0.378067 7.53633 0.540457 7.40776 0.72523 7.32011C0.910003 7.23245 1.11231 7.18803 1.31681 7.19019C1.51496 7.20131 1.70715 7.26207 1.87568 7.36689C2.04421 7.47172 2.18368 7.61723 2.28126 7.79005C2.52387 8.2013 2.73316 8.6192 2.92845 9.01045C3.02976 9.21041 3.13774 9.42169 3.24505 9.63765L3.48766 10.1162C3.50158 10.1422 3.52372 10.1628 3.55061 10.1749C3.5775 10.1869 3.60763 10.1897 3.63629 10.1829C3.6591 10.1739 3.67852 10.1581 3.6918 10.1375C3.70507 10.1169 3.71154 10.0927 3.71028 10.0682C3.71694 9.60965 3.71028 9.15109 3.71028 8.68586V5.74784H3.71694V3.48834C3.71694 3.02178 3.71028 2.55521 3.71694 2.09931C3.73233 1.85969 3.81552 1.62938 3.95681 1.43524C4.09811 1.2411 4.29169 1.09113 4.51498 1.00282C4.73827 0.914509 4.98206 0.891501 5.21793 0.936476C5.45379 0.98145 5.67201 1.09256 5.84714 1.25683C5.98047 1.38646 6.08576 1.54208 6.1565 1.71405C6.22724 1.88602 6.26191 2.07069 6.25838 2.25661C6.24505 3.27505 6.24505 4.29283 6.25171 5.31793V6.543C6.25171 6.63098 6.29237 6.71829 6.37969 6.71829C6.40635 6.71829 6.44634 6.71829 6.50766 6.61698C6.6516 6.37764 6.87417 6.19569 7.13735 6.10221C7.40053 6.00873 7.688 6.00951 7.95067 6.10443C8.13426 6.16365 8.29412 6.27998 8.40694 6.43645C8.51977 6.59292 8.57965 6.78134 8.57787 6.97424C8.57989 7.02546 8.59142 7.07586 8.61186 7.12287C8.62041 7.13839 8.63326 7.15112 8.64886 7.15952C8.66447 7.16791 8.68217 7.17162 8.69984 7.17019C8.72384 7.16933 8.74716 7.162 8.76734 7.14898C8.78752 7.13596 8.80381 7.11772 8.81448 7.09621C8.85514 7.02222 8.90246 6.93424 8.94778 6.84693C9.01942 6.73338 9.11914 6.64022 9.2373 6.57647C9.35546 6.51272 9.48806 6.48053 9.6223 6.48301C9.75698 6.47658 9.89156 6.49765 10.0178 6.54492C10.1441 6.5922 10.2594 6.66469 10.3568 6.75799C10.4541 6.85128 10.5315 6.96342 10.5841 7.08758C10.6367 7.21173 10.6634 7.34529 10.6627 7.48012C10.6694 7.59476 10.7034 7.61343 10.7234 7.62876C10.764 7.64875 10.7974 7.65542 10.8787 7.60876C11.1567 7.43742 11.4872 7.3724 11.8094 7.42568C12.1316 7.47897 12.4236 7.64697 12.6316 7.8987C12.8949 8.25564 13.0642 8.67299 13.1242 9.11243C13.2638 10.0237 13.2432 10.9523 13.0635 11.8565" fill="white"/>
</svg>
