<svg width="24" height="25" viewBox="0 0 24 25" fill="none" xmlns="http://www.w3.org/2000/svg">
<path d="M12 0.914062C9.62663 0.914063 7.30655 1.61785 5.33316 2.93643C3.35977 4.255 1.8217 6.12915 0.913451 8.32186C0.00519943 10.5146 -0.232441 12.9274 0.230582 15.2551C0.693605 17.5829 1.83649 19.7211 3.51472 21.3993C5.19295 23.0776 7.33115 24.2205 9.65892 24.6835C11.9867 25.1465 14.3995 24.9089 16.5922 24.0006C18.7849 23.0924 20.6591 21.5543 21.9776 19.5809C23.2962 17.6075 24 15.2874 24 12.9141C24 9.73146 22.7357 6.67922 20.4853 4.42878C18.2348 2.17834 15.1826 0.914063 12 0.914062ZM17.712 10.8141L10.95 17.2761C10.7753 17.4406 10.544 17.5315 10.304 17.5301C10.1866 17.5317 10.0701 17.5102 9.9611 17.4666C9.85211 17.423 9.75284 17.3582 9.66901 17.2761L6.28801 14.0451C6.19194 13.9669 6.11259 13.8702 6.05467 13.7608C5.99675 13.6513 5.96145 13.5313 5.95087 13.4079C5.94028 13.2846 5.95464 13.1603 5.99307 13.0426C6.03151 12.9249 6.09324 12.8161 6.17459 12.7227C6.25594 12.6294 6.35525 12.5533 6.4666 12.4991C6.57795 12.4449 6.69907 12.4137 6.82274 12.4073C6.94641 12.4009 7.0701 12.4194 7.18645 12.4618C7.30281 12.5042 7.40944 12.5696 7.50001 12.6541C7.51934 12.6707 7.53801 12.6884 7.55601 12.7071L10.3 15.3261L16.438 9.47606C16.6154 9.30712 16.8527 9.21558 17.0976 9.22158C17.3426 9.22758 17.5751 9.33063 17.744 9.50806C17.9129 9.68549 18.0045 9.92277 17.9985 10.1677C17.9925 10.4126 17.8894 10.6451 17.712 10.8141Z" fill="#6CD038"/>
</svg>
