<svg width="14" height="24" viewBox="0 0 14 24" fill="none" xmlns="http://www.w3.org/2000/svg">
<path d="M12.0005 24C12.2164 24.0003 12.4276 23.9364 12.6072 23.8165C12.7868 23.6966 12.9268 23.5261 13.0094 23.3265C13.092 23.127 13.1134 22.9074 13.0711 22.6956C13.0287 22.4839 12.9244 22.2894 12.7715 22.137L2.63453 12.0001L12.7715 1.86316C12.9761 1.65848 13.0911 1.38087 13.0911 1.09141C13.0911 0.801951 12.9761 0.524346 12.7715 0.319667C12.5668 0.114988 12.2892 2.15665e-09 11.9997 0C11.7103 -2.15665e-09 11.4326 0.114988 11.228 0.319667L0.320048 11.2291C0.218592 11.3304 0.138102 11.4507 0.0831848 11.5831C0.0282674 11.7155 0 11.8575 0 12.0008C0 12.1442 0.0282674 12.2861 0.0831848 12.4186C0.138102 12.551 0.218592 12.6713 0.320048 12.7726L11.2295 23.682C11.3307 23.7831 11.451 23.8633 11.5833 23.9178C11.7156 23.9724 11.8573 24.0003 12.0005 24Z" fill="white"/>
</svg>
