<svg width="56" height="39" viewBox="0 0 56 39" fill="none" xmlns="http://www.w3.org/2000/svg">
<path d="M44.0995 23.3608L35.8666 31.5937C35.6419 31.8029 35.37 31.9546 35.074 32.0358C34.778 32.1171 34.4667 32.1255 34.1668 32.0603L21.1906 28.8162C20.9536 28.7503 20.7328 28.6359 20.5421 28.4803L8.30469 18.9271L15.5983 5.21689L27.0753 1.86088C27.4812 1.74578 27.9146 1.77773 28.2992 1.95108L36.0392 5.46416H31.4095C31.177 5.46325 30.9466 5.50825 30.7315 5.59658C30.5164 5.68491 30.3208 5.81484 30.1561 5.97891L21.3866 14.7266C21.2205 14.8971 21.0896 15.0986 21.0014 15.3197C20.9132 15.5408 20.8695 15.7771 20.8726 16.0151C20.8758 16.2532 20.9259 16.4882 21.0199 16.7069C21.114 16.9255 21.2502 17.1235 21.4208 17.2895C21.4738 17.341 21.5299 17.3893 21.5888 17.4341L22.7971 18.3517C24.0378 19.2775 25.5444 19.7778 27.0924 19.7778C28.6405 19.7778 30.1471 19.2775 31.3877 18.3517L34.2508 16.204L44.0995 23.3608Z" fill="#4285F4"/>
<path d="M36.0456 7.25283C35.791 7.25428 35.5392 7.20125 35.3069 7.09731L27.5653 3.57957L16.1008 6.93402C15.8736 7.00551 15.6345 7.03096 15.3974 7.00887C15.1603 6.98678 14.93 6.9176 14.7199 6.80539C14.5099 6.69317 14.3243 6.54017 14.1742 6.35535C14.024 6.17052 13.9122 5.95759 13.8454 5.72903C13.7786 5.50047 13.758 5.26086 13.7849 5.02425C13.8118 4.78764 13.8857 4.55878 14.0022 4.35108C14.1187 4.14337 14.2754 3.961 14.4633 3.81463C14.6511 3.66827 14.8663 3.56086 15.0962 3.4987L26.5732 0.142691C27.3906 -0.0949469 28.2659 -0.0343164 29.0427 0.313757L36.7858 3.82684C37.1591 3.99541 37.4633 4.2869 37.6476 4.65268C37.8319 5.01846 37.8852 5.43639 37.7986 5.83672C37.712 6.23705 37.4907 6.59556 37.1717 6.85243C36.8526 7.1093 36.4551 7.24898 36.0456 7.24816" fill="black"/>
<path d="M47.6876 20.9471C47.3604 20.9473 47.0394 20.8578 46.7594 20.6884C46.4795 20.519 46.2513 20.276 46.0998 19.986L38.9461 6.30069C38.8359 6.08998 38.7687 5.8594 38.7486 5.62244C38.7285 5.38548 38.7558 5.14689 38.8289 4.92059C38.902 4.69429 39.0195 4.48484 39.1744 4.30445C39.3294 4.12407 39.5188 3.97637 39.7315 3.87L45.33 1.07073C46.1663 0.650605 47.1343 0.576252 48.0249 0.863727C48.9156 1.1512 49.6575 1.77744 50.0903 2.60722L55.5909 13.1402C56.0328 13.979 56.1236 14.959 55.8434 15.8647C55.5632 16.7704 54.9348 17.5279 54.0964 17.9705L54.0186 18.011L48.4807 20.7589C48.2335 20.8825 47.9609 20.9469 47.6845 20.9471M42.9553 6.25093L48.4558 16.7731L52.4106 14.8027L53.2068 16.406L52.4122 14.8027L46.9101 4.27278L42.9553 6.25093Z" fill="black"/>
<path d="M8.30294 20.7197C8.02417 20.7196 7.74931 20.6541 7.50048 20.5284L1.97504 17.754C1.13315 17.3358 0.49099 16.6013 0.188824 15.7112C-0.113342 14.821 -0.0509565 13.8474 0.362355 13.0031L0.416785 12.8973L5.90957 2.37363C6.33689 1.54237 7.07401 0.912536 7.96175 0.620115C8.84949 0.327693 9.81662 0.39615 10.6543 0.810703L16.2637 3.60997C16.4764 3.71621 16.6657 3.86374 16.8207 4.04395C16.9757 4.22415 17.0933 4.43342 17.1665 4.65955C17.2398 4.88567 17.2672 5.12412 17.2473 5.36098C17.2275 5.59784 17.1606 5.82837 17.0506 6.03911L9.89074 19.7602C9.73921 20.0502 9.51108 20.2931 9.23114 20.4626C8.9512 20.632 8.63017 20.7199 8.30294 20.7197ZM3.58618 14.5582L7.53314 16.5395L13.0337 6.00179L9.06963 4.02053L3.58618 14.5582Z" fill="black"/>
<path d="M34.563 33.8933C34.3016 33.8929 34.041 33.8647 33.7855 33.8093L33.7295 33.7969L20.7502 30.5528L20.7036 30.5404C20.2361 30.4107 19.8 30.1868 19.4221 29.8826L7.19556 20.3386C6.84571 20.0388 6.62493 19.6157 6.57917 19.1572C6.53341 18.6987 6.66619 18.2403 6.94989 17.8773C7.23359 17.5142 7.64634 17.2746 8.10227 17.2082C8.5582 17.1417 9.02218 17.2537 9.39765 17.5207L21.6351 27.074L21.6615 27.0957L34.5475 30.318C34.5758 30.3214 34.6042 30.3136 34.6268 30.2962L42.7742 22.1488L46.3106 17.9872C46.4626 17.8069 46.6487 17.6584 46.8582 17.5502C47.0677 17.442 47.2965 17.3763 47.5315 17.3568C47.7665 17.3373 48.0031 17.3644 48.2276 17.4366C48.4521 17.5088 48.6601 17.6247 48.8396 17.7775C49.0192 17.9303 49.1668 18.1172 49.274 18.3272C49.3811 18.5373 49.4457 18.7664 49.4641 19.0015C49.4824 19.2366 49.4541 19.473 49.3807 19.6972C49.3074 19.9213 49.1905 20.1287 49.0368 20.3075L45.46 24.5064C45.4289 24.5422 45.3962 24.578 45.362 24.6122L37.129 32.8451L37.0855 32.8871C36.4018 33.5265 35.5007 33.8822 34.5646 33.8824" fill="black"/>
<path d="M44.0038 25.4828C43.6259 25.4832 43.2577 25.3634 42.9525 25.1407L34.1784 18.7646L32.3713 20.1191C30.8184 21.2682 28.9377 21.8883 27.006 21.8883C25.0743 21.8883 23.1936 21.2682 21.6407 20.1191L20.4215 19.186C19.6616 18.6074 19.1623 17.7509 19.0331 16.8045C18.904 15.8581 19.1555 14.8991 19.7326 14.138C19.8214 14.0206 19.9174 13.9089 20.0203 13.8036L28.8084 5.03884C29.1401 4.70868 29.5336 4.44714 29.9664 4.26915C30.3992 4.09117 30.8629 4.00024 31.3309 4.00156H40.4254C40.6665 3.9915 40.9072 4.03031 41.1329 4.11565C41.3587 4.20099 41.5648 4.33111 41.739 4.49817C41.9132 4.66523 42.0518 4.86579 42.1465 5.08778C42.2411 5.30978 42.2899 5.54863 42.2899 5.78997C42.2899 6.03132 42.2411 6.27017 42.1465 6.49217C42.0518 6.71416 41.9132 6.91472 41.739 7.08178C41.5648 7.24885 41.3587 7.37896 41.1329 7.4643C40.9072 7.54964 40.6665 7.58845 40.4254 7.57839H31.32L22.5614 16.3183C22.5707 16.3183 22.5723 16.3183 22.5816 16.3339L23.7884 17.2499C24.7216 17.9368 25.8504 18.3065 27.0091 18.3048C28.1678 18.3032 29.2955 17.9301 30.2267 17.2405L33.0866 15.096C33.3928 14.8665 33.7644 14.7412 34.147 14.7384C34.5296 14.7356 34.903 14.8555 35.2125 15.0804L45.0566 22.2341C45.3625 22.4564 45.59 22.7699 45.7067 23.1296C45.8234 23.4893 45.8232 23.8767 45.7061 24.2362C45.589 24.5957 45.3611 24.909 45.055 25.131C44.7489 25.353 44.3803 25.4723 44.0022 25.4719" fill="black"/>
<path d="M24.4167 38.5735C24.2683 38.5735 24.1205 38.5552 23.9766 38.519L17.2599 36.8239C16.6989 36.6922 16.1798 36.4222 15.7498 36.0386L10.7143 31.6702C10.533 31.5173 10.3838 31.3299 10.2756 31.1189C10.1673 30.9079 10.102 30.6775 10.0836 30.4411C10.0651 30.2047 10.0938 29.9669 10.168 29.7417C10.2422 29.5164 10.3604 29.3082 10.5158 29.129C10.6711 28.9498 10.8606 28.8033 11.073 28.698C11.2855 28.5926 11.5168 28.5306 11.7535 28.5154C11.9901 28.5002 12.2274 28.5322 12.4516 28.6095C12.6758 28.6868 12.8824 28.8079 13.0594 28.9658L18.1168 33.345H18.1277L24.8615 35.0448C25.2846 35.1516 25.6541 35.4093 25.9006 35.7695C26.1471 36.1297 26.2535 36.5675 26.1998 37.0006C26.1461 37.4337 25.936 37.8322 25.6091 38.1213C25.2822 38.4104 24.8609 38.5701 24.4245 38.5703" fill="black"/>
</svg>
