<svg width="14" height="25" viewBox="0 0 14 25" fill="none" xmlns="http://www.w3.org/2000/svg">
<path d="M12.0005 24.9141C12.2164 24.9143 12.4276 24.8504 12.6072 24.7305C12.7868 24.6106 12.9268 24.4401 13.0094 24.2406C13.092 24.041 13.1134 23.8214 13.0711 23.6097C13.0287 23.3979 12.9244 23.2035 12.7715 23.0511L2.63453 12.9141L12.7715 2.77722C12.9761 2.57254 13.0911 2.29493 13.0911 2.00547C13.0911 1.71601 12.9761 1.43841 12.7715 1.23373C12.5668 1.02905 12.2892 0.914063 11.9997 0.914062C11.7103 0.914062 11.4326 1.02905 11.228 1.23373L0.320048 12.1432C0.218592 12.2444 0.138102 12.3647 0.0831848 12.4972C0.0282674 12.6296 0 12.7715 0 12.9149C0 13.0583 0.0282674 13.2002 0.0831848 13.3326C0.138102 13.4651 0.218592 13.5854 0.320048 13.6866L11.2295 24.5961C11.3307 24.6972 11.451 24.7773 11.5833 24.8319C11.7156 24.8865 11.8573 24.9144 12.0005 24.9141Z" fill="black"/>
</svg>
