<svg width="24" height="25" viewBox="0 0 24 25" fill="none" xmlns="http://www.w3.org/2000/svg">
<path d="M22.834 17.032L17.198 14.632C16.9072 14.5016 16.5879 14.4474 16.2703 14.4747C15.9527 14.502 15.6473 14.6098 15.383 14.788L12.366 16.795C10.5277 15.9021 9.03936 14.4221 8.136 12.589L10.131 9.53598C10.309 9.27088 10.4177 8.96542 10.4472 8.6475C10.4767 8.32957 10.4261 8.00931 10.3 7.71598L7.884 2.07998C7.71547 1.69934 7.43008 1.38228 7.06921 1.17479C6.70833 0.967288 6.29074 0.880139 5.877 0.925978C4.25369 1.13856 2.76286 1.93353 1.68182 3.16302C0.600769 4.39251 0.00310774 5.97282 0 7.60998C0.00529328 12.1982 1.8303 16.597 5.07466 19.8413C8.31902 23.0857 12.7178 24.9107 17.306 24.916C18.9428 24.9124 20.5226 24.3145 21.7517 23.2335C22.9808 22.1525 23.7755 20.6619 23.988 19.039C24.0338 18.6252 23.9467 18.2076 23.7392 17.8468C23.5317 17.4859 23.2146 17.2005 22.834 17.032Z" fill="#4285F4"/>
</svg>
