<svg width="16" height="15" viewBox="0 0 16 15" fill="none" xmlns="http://www.w3.org/2000/svg">
<path d="M15.8029 12.0061L9.32475 0.757044C9.18898 0.526501 8.99539 0.335392 8.76311 0.202617C8.53083 0.0698414 8.26792 0 8.00037 0C7.73282 0 7.46991 0.0698414 7.23763 0.202617C7.00535 0.335392 6.81176 0.526501 6.67599 0.757044L0.197797 12.0061C0.0682677 12.2276 0 12.4795 0 12.7361C0 12.9926 0.0682677 13.2446 0.197797 13.466C0.33151 13.6983 0.524696 13.8907 0.757472 14.0235C0.990247 14.1563 1.2542 14.2247 1.52218 14.2216H14.4786C14.7463 14.2244 15.0099 14.1559 15.2424 14.0231C15.4749 13.8903 15.6679 13.6981 15.8015 13.466C15.9312 13.2447 15.9997 12.9928 16 12.7363C16.0003 12.4797 15.9322 12.2277 15.8029 12.0061ZM15.2889 13.1698C15.2066 13.3112 15.0882 13.4283 14.9459 13.509C14.8035 13.5897 14.6422 13.6311 14.4786 13.629H1.52218C1.35853 13.6311 1.19727 13.5897 1.05489 13.509C0.912505 13.4283 0.794119 13.3112 0.711845 13.1698C0.63364 13.0385 0.592356 12.8885 0.592356 12.7357C0.592356 12.5829 0.63364 12.4329 0.711845 12.3017L7.1893 1.05259C7.2732 0.912349 7.39202 0.796262 7.53418 0.715656C7.67633 0.63505 7.83695 0.592679 8.00037 0.592679C8.16379 0.592679 8.32441 0.63505 8.46657 0.715656C8.60872 0.796262 8.72754 0.912349 8.81144 1.05259L15.2889 12.3017C15.3671 12.4329 15.4084 12.5829 15.4084 12.7357C15.4084 12.8885 15.3671 13.0385 15.2889 13.1698ZM7.70409 8.59221V5.62939C7.70409 5.55081 7.7353 5.47545 7.79087 5.41989C7.84643 5.36433 7.92179 5.33311 8.00037 5.33311C8.07895 5.33311 8.15431 5.36433 8.20987 5.41989C8.26544 5.47545 8.29665 5.55081 8.29665 5.62939V8.59221C8.29665 8.67079 8.26544 8.74615 8.20987 8.80171C8.15431 8.85728 8.07895 8.88849 8.00037 8.88849C7.92179 8.88849 7.84643 8.85728 7.79087 8.80171C7.7353 8.74615 7.70409 8.67079 7.70409 8.59221ZM8.59293 11.2587C8.59293 11.3759 8.55818 11.4905 8.49307 11.588C8.42796 11.6854 8.33541 11.7613 8.22713 11.8062C8.11886 11.851 7.99971 11.8628 7.88477 11.8399C7.76982 11.8171 7.66424 11.7606 7.58136 11.6777C7.49849 11.5949 7.44206 11.4893 7.41919 11.3743C7.39633 11.2594 7.40806 11.1403 7.45291 11.032C7.49776 10.9237 7.57371 10.8312 7.67116 10.766C7.76861 10.7009 7.88317 10.6662 8.00037 10.6662C8.15753 10.6662 8.30825 10.7286 8.41938 10.8397C8.5305 10.9509 8.59293 11.1016 8.59293 11.2587Z" fill="#FF0000"/>
</svg>
