<svg width="16" height="17" viewBox="0 0 16 17" fill="none" xmlns="http://www.w3.org/2000/svg">
<path d="M14.6635 4.48713C13.7881 3.16947 12.5417 2.14093 11.0819 1.53151C9.62202 0.922096 8.01427 0.75917 6.46185 1.06333C4.90942 1.36749 3.48202 2.12508 2.36008 3.24033C1.23814 4.35558 0.472037 5.77842 0.158602 7.329C-0.154832 8.87958 -0.00152117 10.4883 0.599156 11.9517C1.19983 13.4152 2.22091 14.6677 3.53331 15.551C4.84571 16.4342 6.39051 16.9086 7.97244 16.914C9.55437 16.9195 11.1024 16.4558 12.4209 15.5816C12.5569 15.4913 12.6515 15.3506 12.6838 15.1906C12.7162 15.0305 12.6836 14.8641 12.5933 14.7281C12.503 14.5921 12.3623 14.4975 12.2023 14.4651C12.0422 14.4328 11.8758 14.4654 11.7398 14.5557C10.4828 15.3902 8.98311 15.781 7.4787 15.6661C5.97429 15.5512 4.55132 14.9373 3.43559 13.9216C2.31986 12.9059 1.57528 11.5467 1.31998 10.0597C1.06468 8.57266 1.31329 7.04295 2.02637 5.7133C2.73944 4.38365 3.87614 3.33022 5.25609 2.72015C6.63604 2.11008 8.1802 1.97832 9.64356 2.34578C11.1069 2.71324 12.4057 3.55887 13.3337 4.74849C14.2617 5.93811 14.7659 7.40359 14.7662 8.91238C14.7662 10.0357 14.4994 11.3751 13.2273 11.3751C11.9553 11.3751 11.6884 10.0357 11.6884 8.91238V5.83391C11.6884 5.67062 11.6236 5.51402 11.5081 5.39855C11.3926 5.28309 11.236 5.21822 11.0727 5.21822C10.9094 5.21822 10.7528 5.28309 10.6374 5.39855C10.5219 5.51402 10.457 5.67062 10.457 5.83391V6.16211C9.90459 5.66694 9.21582 5.34962 8.48045 5.25148C7.74508 5.15334 6.9972 5.27892 6.33422 5.61188C5.67125 5.94484 5.12391 6.46974 4.76349 7.11821C4.40308 7.76667 4.24631 8.50864 4.31359 9.24747C4.38088 9.9863 4.6691 10.6877 5.14071 11.2604C5.61233 11.8331 6.24548 12.2505 6.9577 12.4583C7.66991 12.666 8.42818 12.6544 9.13372 12.4251C9.83927 12.1957 10.4594 11.7592 10.9133 11.1724C11.1149 11.6127 11.442 11.9838 11.8537 12.2389C12.2654 12.4941 12.7432 12.622 13.2273 12.6065C14.9617 12.6065 15.9976 11.2257 15.9976 8.91238C15.9993 7.33797 15.5351 5.79826 14.6635 4.48713ZM7.99294 11.3745C7.50585 11.3745 7.0297 11.23 6.6247 10.9594C6.2197 10.6888 5.90404 10.3042 5.71764 9.85417C5.53124 9.40416 5.48247 8.90898 5.5775 8.43125C5.67252 7.95352 5.90708 7.51469 6.2515 7.17027C6.59593 6.82584 7.03475 6.59129 7.51248 6.49626C7.99021 6.40123 8.48539 6.45001 8.9354 6.63641C9.38542 6.82281 9.77005 7.13847 10.0407 7.54347C10.3113 7.94847 10.4557 8.42462 10.4557 8.91171C10.4543 9.56444 10.1944 10.19 9.73283 10.6516C9.27127 11.1131 8.64568 11.3731 7.99294 11.3745Z" fill="#4285F4"/>
</svg>
