<svg width="21" height="19" viewBox="0 0 21 19" fill="none" xmlns="http://www.w3.org/2000/svg">
<path d="M7.3213 10.6819V11.6397H12.8083V10.69H19.1738C19.1911 10.7323 19.203 10.7769 19.209 10.8226C19.209 12.9872 19.2216 15.168 19.209 17.3407C19.2153 17.5331 19.1841 17.7248 19.1175 17.9035C19.0508 18.0823 18.9502 18.2441 18.822 18.3786C18.6938 18.513 18.5409 18.6173 18.373 18.6846C18.2052 18.7518 18.0261 18.7807 17.8473 18.7693C12.6623 18.7693 7.47736 18.7693 2.29237 18.7693C2.11671 18.7848 1.93997 18.7606 1.77358 18.6981C1.6072 18.6355 1.45489 18.5361 1.32652 18.4063C1.19815 18.2765 1.09658 18.1191 1.02839 17.9444C0.9602 17.7697 0.926913 17.5815 0.930682 17.3921C0.913063 15.2031 0.930682 13.0169 0.930682 10.828C0.937172 10.778 0.948995 10.729 0.96592 10.6819H7.3213Z" fill="#4285F4"/>
<path d="M12.8183 9.6138V8.17165H7.32879V9.63544C7.15512 9.63544 7.0343 9.65979 6.91097 9.65979C5.11384 9.65979 3.31588 9.65979 1.51707 9.65979C1.31425 9.68758 1.1082 9.66535 0.914556 9.5948C0.720912 9.52424 0.544757 9.4072 0.399452 9.25257C0.254147 9.09793 0.143508 8.90976 0.0759255 8.70231C0.00834337 8.49487 -0.0144069 8.27361 0.0094001 8.0553C0.0094001 6.75115 0.0094001 5.44699 0.0094001 4.14284C-0.0144429 3.92869 0.00721468 3.71152 0.0727425 3.50767C0.13827 3.30382 0.245961 3.11861 0.387708 2.96598C0.529455 2.81334 0.701565 2.69726 0.891082 2.62647C1.0806 2.55568 1.28259 2.53203 1.48184 2.55729C2.96014 2.55729 4.43761 2.55729 5.91424 2.55729H6.37737C6.47672 1.9725 6.74281 1.43541 7.13876 1.02043C7.53472 0.605451 8.04094 0.33313 8.58728 0.2412C9.73219 -0.134698 10.9632 -0.0696328 12.0683 0.425188C12.5103 0.57046 12.9047 0.848187 13.2052 1.22581C13.5056 1.60344 13.6997 2.06531 13.7647 2.55729H16.3572C17.1526 2.55729 17.9454 2.55729 18.7408 2.55729C18.9271 2.54138 19.1143 2.56869 19.2899 2.63738C19.4655 2.70606 19.6253 2.81451 19.7585 2.95537C19.8917 3.09624 19.9951 3.26623 20.0619 3.45384C20.1286 3.64144 20.157 3.84227 20.1453 4.04273C20.1453 5.40641 20.1453 6.77009 20.1453 8.13377C20.1593 8.32939 20.1352 8.52601 20.0745 8.71105C20.0138 8.89608 19.9178 9.06545 19.7927 9.20833C19.6676 9.35121 19.5162 9.46444 19.348 9.54078C19.1799 9.61712 18.9988 9.65489 18.8163 9.65168C16.8782 9.67062 14.9427 9.65168 13.0046 9.65168C12.9458 9.64177 12.8878 9.6273 12.8309 9.60838M7.34389 2.53835H12.7806C12.7759 2.35646 12.7269 2.17907 12.6386 2.02383C12.5503 1.8686 12.4257 1.74095 12.2772 1.65358C11.6025 1.24563 10.8414 1.03133 10.0673 1.03133C9.29315 1.03133 8.53207 1.24563 7.85736 1.65358C7.70925 1.74206 7.58432 1.86928 7.49412 2.02347C7.40393 2.17766 7.35139 2.35382 7.34138 2.53565" fill="#4285F4"/>
<path d="M11.8918 9.18018H8.25977V10.6304H11.8918V9.18018Z" fill="#4285F4"/>
</svg>
