<svg width="24" height="25" viewBox="0 0 24 25" fill="none" xmlns="http://www.w3.org/2000/svg">
<path d="M0 2.03948C0.0081569 1.57657 0.199425 1.13575 0.531918 0.813568C0.864411 0.491383 1.31103 0.314089 1.77397 0.32051H22.2236C22.6869 0.313554 23.134 0.490612 23.467 0.812853C23.7999 1.1351 23.9914 1.57622 23.9996 2.03948V22.6011C23.9922 23.0643 23.8012 23.5056 23.4685 23.8279C23.1359 24.1503 22.6888 24.3273 22.2256 24.3201H1.77397C1.31088 24.3273 0.863883 24.1504 0.53123 23.8281C0.198577 23.5059 0.00749929 23.0647 0 22.6016L0 2.03948Z" fill="#3C5A9A"/>
<path d="M15.8154 3.82031H13.1569C11.5794 3.82031 9.82497 4.4838 9.82497 6.77026C9.83247 7.56725 9.82497 8.33024 9.82497 9.18872H8V12.0927H9.88147V20.453H13.3389V12.0377H15.6209L15.8274 9.18072H13.2774C13.2774 9.18072 13.2829 7.90974 13.2774 7.54075C13.2774 6.63726 14.2179 6.69076 14.2744 6.69076H15.8154V3.82031Z" fill="white"/>
</svg>
