<svg width="14" height="17" viewBox="0 0 14 17" fill="none" xmlns="http://www.w3.org/2000/svg">
<path d="M7 16.9141C5.61553 16.9141 4.26216 16.5035 3.11101 15.7344C1.95987 14.9652 1.06266 13.8719 0.532846 12.5928C0.00303296 11.3138 -0.13559 9.9063 0.134506 8.54843C0.404603 7.19057 1.07129 5.94329 2.05026 4.96432C3.02922 3.98535 4.2765 3.31867 5.63437 3.04857C6.99224 2.77847 8.3997 2.9171 9.67879 3.44691C10.9579 3.97672 12.0511 4.87393 12.8203 6.02507C13.5895 7.17622 14 8.5296 14 9.91406C13.9972 11.7697 13.2588 13.5486 11.9466 14.8607C10.6345 16.1728 8.85565 16.9112 7 16.9141ZM7 3.6474C5.7617 3.64819 4.55143 4.01606 3.52216 4.70451C2.49288 5.39297 1.6908 6.3711 1.21729 7.51529C0.743779 8.65948 0.620094 9.91837 0.861868 11.1328C1.10364 12.3473 1.70002 13.4628 2.57563 14.3384C3.45124 15.214 4.56677 15.8104 5.78124 16.0522C6.9957 16.294 8.25458 16.1703 9.39877 15.6968C10.543 15.2233 11.5211 14.4212 12.2096 13.3919C12.898 12.3626 13.2659 11.1524 13.2667 9.91406C13.2656 8.25237 12.605 6.65903 11.43 5.48403C10.255 4.30903 8.6617 3.64846 7 3.6474Z" fill="#4285F4"/>
<path d="M7.93012 2.2734H6.07279C6.03742 2.2734 6.00351 2.25935 5.97851 2.23434C5.9535 2.20934 5.93945 2.17542 5.93945 2.14006V1.0474C5.93945 1.01203 5.9535 0.97812 5.97851 0.953115C6.00351 0.92811 6.03742 0.914062 6.07279 0.914062H7.93012C7.94763 0.914062 7.96497 0.917511 7.98114 0.924212C7.99732 0.930913 8.01202 0.940734 8.0244 0.953115C8.03678 0.965496 8.0466 0.980195 8.0533 0.996371C8.06 1.01255 8.06345 1.02989 8.06345 1.0474V2.1374C8.06345 2.15491 8.06 2.17224 8.0533 2.18842C8.0466 2.2046 8.03678 2.2193 8.0244 2.23168C8.01202 2.24406 7.99732 2.25388 7.98114 2.26058C7.96497 2.26728 7.94763 2.27073 7.93012 2.27073" fill="black"/>
<path d="M7.74443 2.32779C7.69547 2.38162 7.65793 2.44483 7.6341 2.51358C7.61027 2.58233 7.60063 2.65521 7.60577 2.72779C7.60352 2.77908 7.60823 2.83043 7.61977 2.88046H6.3711C6.38217 2.83127 6.38666 2.78083 6.38443 2.73046C6.39229 2.58648 6.34804 2.44448 6.25977 2.33046V2.20312H7.74443V2.32779Z" fill="black"/>
<path d="M4.7355 2.57716L3.62483 2.93783C3.6079 2.94361 3.58999 2.94593 3.57214 2.94465C3.5543 2.94336 3.5369 2.9385 3.52098 2.93035C3.50505 2.9222 3.49093 2.91093 3.47945 2.89721C3.46798 2.88349 3.45938 2.86761 3.45416 2.85049L3.25416 2.23449C3.24359 2.20028 3.24681 2.16328 3.26312 2.1314C3.27944 2.09952 3.30756 2.07527 3.3415 2.06383L4.45083 1.70316C4.46767 1.69711 4.48555 1.69452 4.5034 1.69552C4.52126 1.69653 4.53874 1.70112 4.55479 1.70902C4.57083 1.71692 4.58513 1.72797 4.59682 1.74151C4.60851 1.75505 4.61736 1.7708 4.62283 1.78783L4.82283 2.40516C4.82862 2.42209 4.83093 2.44 4.82965 2.45785C4.82837 2.47569 4.82351 2.49309 4.81536 2.50901C4.80721 2.52494 4.79594 2.53906 4.78222 2.55054C4.7685 2.56202 4.75261 2.57062 4.7355 2.57583" fill="black"/>
<path d="M4.66683 2.63269C4.64649 2.67771 4.63553 2.72641 4.63461 2.77581C4.63369 2.8252 4.64284 2.87427 4.6615 2.92002C4.6712 2.95363 4.68509 2.98588 4.70283 3.01602L3.90283 3.27669C3.89889 3.24201 3.89061 3.20796 3.87817 3.17535C3.85265 3.08177 3.79447 3.00042 3.71417 2.94602L3.6875 2.86535L4.6415 2.55469L4.66683 2.63269Z" fill="black"/>
<path d="M10.3753 3.08608L9.26392 2.72541C9.22957 2.71413 9.2011 2.68969 9.18473 2.65745C9.16836 2.62521 9.16543 2.5878 9.17659 2.55341L9.37659 1.93741C9.38817 1.90328 9.41265 1.87502 9.4448 1.8587C9.47694 1.84238 9.51419 1.83929 9.54859 1.85008L10.6593 2.21208C10.6764 2.21729 10.6923 2.22589 10.706 2.23737C10.7197 2.24885 10.731 2.26297 10.7391 2.27889C10.7473 2.29482 10.7521 2.31222 10.7534 2.33006C10.7547 2.3479 10.7524 2.36582 10.7466 2.38275L10.5466 2.99875C10.5414 3.01586 10.5328 3.03175 10.5213 3.04547C10.5098 3.05919 10.4957 3.07046 10.4798 3.07861C10.4639 3.08675 10.4465 3.09162 10.4286 3.0929C10.4108 3.09418 10.3928 3.09186 10.3759 3.08608" fill="black"/>
<path d="M10.287 3.09446C10.244 3.11902 10.2065 3.15208 10.1767 3.19162C10.1469 3.23116 10.1254 3.27636 10.1137 3.32446C10.1016 3.35665 10.0938 3.39026 10.0903 3.42446L9.29102 3.16379C9.30831 3.1343 9.32175 3.10271 9.33102 3.06979C9.366 2.97791 9.36741 2.87662 9.33502 2.78379L9.36168 2.70312L10.3157 3.01379L10.287 3.09446Z" fill="black"/>
<path d="M7.00309 9.9126V5.33594C8.13793 5.33576 9.2324 5.75711 10.0742 6.51823C10.9159 7.27935 11.445 8.326 11.5587 9.45513C11.6725 10.5843 11.3628 11.7154 10.6897 12.6291C10.0166 13.5428 9.02817 14.174 7.91608 14.4001C6.804 14.6263 5.64755 14.4313 4.67108 13.853C3.69461 13.2748 2.96772 12.3545 2.63142 11.2706C2.29511 10.1867 2.37338 9.01655 2.85102 7.98712C3.32866 6.95768 4.17164 6.14234 5.21642 5.69927L7.00309 9.9126Z" fill="#EA4335"/>
</svg>
