<svg width="24" height="25" viewBox="0 0 24 25" fill="none" xmlns="http://www.w3.org/2000/svg">
<path d="M6.086 24.2353C5.15764 24.2249 4.23801 24.0546 3.3675 23.7318C2.73178 23.4968 2.1566 23.1226 1.684 22.6368C1.19733 22.1653 0.823071 21.5902 0.589 20.9543C0.26623 20.0838 0.095904 19.1642 0.0855 18.2358C0.0145 16.6933 0 16.2303 0 12.3203C0 8.41031 0.0155 7.95031 0.085 6.40631C0.0963057 5.47804 0.266604 4.55856 0.5885 3.68781C0.823956 3.05215 1.19801 2.47689 1.6835 2.00381C2.15543 1.51716 2.73081 1.14292 3.367 0.908813C4.23735 0.586099 5.1568 0.415774 6.085 0.405313C7.6285 0.334812 8.0925 0.320312 12 0.320312C15.9075 0.320312 16.3705 0.335813 17.915 0.405313C18.8433 0.416618 19.7627 0.586916 20.6335 0.908813C21.2695 1.14327 21.8448 1.51747 22.317 2.00381C22.8033 2.47606 23.1774 3.05134 23.412 3.68731C23.7345 4.55769 23.9047 5.47715 23.915 6.40531C23.9855 7.94981 24 8.41181 24 12.3203C24 16.2288 23.9855 16.6913 23.915 18.2358C23.9039 19.1641 23.7336 20.0836 23.4115 20.9543C23.1679 21.5856 22.7948 22.1588 22.3163 22.6372C21.8377 23.1156 21.2643 23.4884 20.633 23.7318C19.7626 24.0545 18.8432 24.2249 17.915 24.2353C16.372 24.3058 15.9085 24.3203 12 24.3203C8.0915 24.3203 7.629 24.3068 6.086 24.2353Z" fill="url(#paint0_radial_124_10175)"/>
<path d="M6.086 24.2353C5.15764 24.2249 4.23801 24.0546 3.3675 23.7318C2.73178 23.4968 2.1566 23.1226 1.684 22.6368C1.19733 22.1653 0.823071 21.5902 0.589 20.9543C0.26623 20.0838 0.095904 19.1642 0.0855 18.2358C0.0145 16.6933 0 16.2303 0 12.3203C0 8.41031 0.0155 7.95031 0.085 6.40631C0.0963057 5.47804 0.266604 4.55856 0.5885 3.68781C0.823956 3.05215 1.19801 2.47689 1.6835 2.00381C2.15543 1.51716 2.73081 1.14292 3.367 0.908813C4.23735 0.586099 5.1568 0.415774 6.085 0.405313C7.6285 0.334812 8.0925 0.320312 12 0.320312C15.9075 0.320312 16.3705 0.335813 17.915 0.405313C18.8433 0.416618 19.7627 0.586916 20.6335 0.908813C21.2695 1.14327 21.8448 1.51747 22.317 2.00381C22.8033 2.47606 23.1774 3.05134 23.412 3.68731C23.7345 4.55769 23.9047 5.47715 23.915 6.40531C23.9855 7.94981 24 8.41181 24 12.3203C24 16.2288 23.9855 16.6913 23.915 18.2358C23.9039 19.1641 23.7336 20.0836 23.4115 20.9543C23.1679 21.5856 22.7948 22.1588 22.3163 22.6372C21.8377 23.1156 21.2643 23.4884 20.633 23.7318C19.7626 24.0545 18.8432 24.2249 17.915 24.2353C16.372 24.3058 15.9085 24.3203 12 24.3203C8.0915 24.3203 7.629 24.3068 6.086 24.2353Z" fill="url(#paint1_radial_124_10175)"/>
<path d="M9.05388 12.3769C9.05398 11.7891 9.22837 11.2146 9.55502 10.7259C9.88167 10.2372 10.3459 9.85634 10.889 9.63148C11.4321 9.40663 12.0297 9.34787 12.6062 9.46265C13.1827 9.57742 13.7122 9.86056 14.1277 10.2763C14.5433 10.692 14.8263 11.2216 14.9409 11.7981C15.0554 12.3747 14.9965 12.9722 14.7715 13.5152C14.5464 14.0583 14.1654 14.5224 13.6766 14.8488C13.1878 15.1753 12.6132 15.3495 12.0254 15.3494C11.6351 15.3494 11.2486 15.2724 10.8881 15.123C10.5275 14.9736 10.1999 14.7546 9.924 14.4786C9.64807 14.2026 9.4292 13.8749 9.27991 13.5143C9.13061 13.1537 9.05381 12.7672 9.05388 12.3769ZM7.44687 12.3769C7.44687 13.2825 7.7154 14.1677 8.21849 14.9206C8.72158 15.6736 9.43664 16.2604 10.2733 16.6069C11.1099 16.9535 12.0305 17.0441 12.9186 16.8675C13.8067 16.6908 14.6225 16.2547 15.2629 15.6144C15.9032 14.9741 16.3392 14.1583 16.5159 13.2702C16.6926 12.382 16.6019 11.4614 16.2554 10.6248C15.9088 9.78822 15.322 9.07314 14.569 8.57005C13.8161 8.06696 12.9309 7.79845 12.0254 7.79845C11.4241 7.79838 10.8287 7.91675 10.2732 8.14682C9.71766 8.37689 9.2129 8.71415 8.78773 9.13931C8.36257 9.56448 8.02533 10.0692 7.79526 10.6248C7.56519 11.1803 7.4468 11.7757 7.44687 12.3769ZM15.7149 7.61694C15.7148 7.82857 15.7774 8.03547 15.8949 8.21149C16.0124 8.3875 16.1795 8.52473 16.3749 8.6058C16.5704 8.68688 16.7856 8.70817 16.9931 8.66698C17.2007 8.62579 17.3914 8.52398 17.5411 8.3744C17.6908 8.22483 17.7928 8.03422 17.8342 7.82668C17.8756 7.61913 17.8545 7.40399 17.7736 7.20844C17.6927 7.01288 17.5557 6.8457 17.3797 6.72804C17.2038 6.61039 16.997 6.54754 16.7854 6.54744C16.5017 6.54757 16.2297 6.66028 16.0291 6.86081C15.8285 7.06134 15.7156 7.33329 15.7154 7.61694M8.42337 19.6344C7.85787 19.6281 7.29769 19.5244 6.76736 19.3279C6.3827 19.1798 6.03335 18.9527 5.74184 18.6613C5.45032 18.3699 5.22312 18.0206 5.07487 17.6359C4.8784 17.1058 4.77472 16.5458 4.76837 15.9804C4.72537 15.0404 4.71837 14.7584 4.71837 12.3774C4.71837 9.99644 4.72787 9.71494 4.76837 8.77444C4.77546 8.20918 4.87912 7.64928 5.07487 7.11894C5.22306 6.73423 5.45024 6.38484 5.74176 6.09332C6.03328 5.8018 6.38265 5.57462 6.76736 5.42644C7.29766 5.22991 7.85786 5.12624 8.42337 5.11995C9.36337 5.07695 9.64538 5.06995 12.0234 5.06995C14.4014 5.06995 14.6859 5.07895 15.6264 5.11995C16.1916 5.12704 16.7515 5.23068 17.2819 5.42644C17.6666 5.57462 18.016 5.8018 18.3075 6.09332C18.599 6.38484 18.8262 6.73423 18.9744 7.11894C19.1709 7.64924 19.2746 8.20944 19.2809 8.77495C19.3239 9.71545 19.3309 9.99694 19.3309 12.3779C19.3309 14.7589 19.3224 15.0404 19.2809 15.9809C19.2741 16.5462 19.1704 17.1062 18.9744 17.6364C18.8261 18.0211 18.5989 18.3704 18.3074 18.6618C18.0159 18.9532 17.6665 19.1803 17.2819 19.3284C16.7517 19.5249 16.1917 19.6286 15.6264 19.6349C14.6864 19.6779 14.4044 19.6849 12.0234 19.6849C9.64238 19.6849 9.36087 19.6764 8.42337 19.6349M8.34937 3.51494C7.60981 3.52952 6.8781 3.66951 6.18538 3.92894C5.59297 4.15797 5.05495 4.50828 4.60583 4.9574C4.15672 5.40651 3.80641 5.94453 3.57738 6.53694C3.31799 7.22967 3.178 7.96139 3.16338 8.70094C3.11938 9.65094 3.10938 9.95544 3.10938 12.3769C3.10938 14.7984 3.11938 15.1024 3.16338 16.0529C3.178 16.7925 3.31799 17.5242 3.57738 18.2169C3.8063 18.8093 4.15645 19.3472 4.60539 19.7963C5.05433 20.2454 5.59214 20.5958 6.18437 20.8249C6.87712 21.0843 7.60883 21.2242 8.34837 21.2389C9.29837 21.2819 9.60287 21.2929 12.0244 21.2929C14.4459 21.2929 14.7499 21.2829 15.7004 21.2389C16.4399 21.2243 17.1716 21.0843 17.8644 20.8249C18.4568 20.5959 18.9948 20.2456 19.4439 19.7965C19.893 19.3474 20.2433 18.8094 20.4724 18.2169C20.7321 17.5243 20.8721 16.7925 20.8864 16.0529C20.9294 15.1029 20.9399 14.7984 20.9399 12.3769C20.9399 9.95544 20.9299 9.65144 20.8864 8.70094C20.8718 7.96138 20.7318 7.22966 20.4724 6.53694C20.2434 5.94467 19.8932 5.40676 19.4443 4.95766C18.9953 4.50856 18.4576 4.15817 17.8654 3.92894C17.1727 3.66935 16.4409 3.52935 15.7014 3.51494C14.7514 3.47144 14.4469 3.46094 12.0259 3.46094C9.60488 3.46094 9.30037 3.47094 8.34937 3.51494Z" fill="white"/>
<defs>
<radialGradient id="paint0_radial_124_10175" cx="0" cy="0" r="1" gradientUnits="userSpaceOnUse" gradientTransform="translate(1.56 23.7923) scale(30.48)">
<stop offset="0.09" stop-color="#FA8F21"/>
<stop offset="0.78" stop-color="#D82D7E"/>
</radialGradient>
<radialGradient id="paint1_radial_124_10175" cx="0" cy="0" r="1" gradientUnits="userSpaceOnUse" gradientTransform="translate(16.632 23.0243) scale(26.808)">
<stop offset="0.64" stop-color="#8C3AAA" stop-opacity="0"/>
<stop offset="1" stop-color="#8C3AAA"/>
</radialGradient>
</defs>
</svg>
