<svg width="56" height="39" viewBox="0 0 56 39" fill="none" xmlns="http://www.w3.org/2000/svg">
<path d="M44.1015 23.3598L35.8685 31.5928C35.6439 31.8019 35.3719 31.9536 35.0759 32.0348C34.7799 32.1161 34.4687 32.1245 34.1687 32.0593L21.1926 28.8153C20.9555 28.7493 20.7347 28.6349 20.5441 28.4794L8.30664 18.9261L15.6003 5.21591L27.0773 1.8599C27.4831 1.74481 27.9166 1.77675 28.3012 1.9501L36.0411 5.46318H31.4115C31.1789 5.46227 30.9485 5.50727 30.7334 5.5956C30.5183 5.68394 30.3228 5.81386 30.158 5.97793L21.3885 14.7256C21.2224 14.8961 21.0915 15.0977 21.0034 15.3188C20.9152 15.5399 20.8714 15.7762 20.8746 16.0142C20.8778 16.2522 20.9278 16.4872 21.0219 16.7059C21.1159 16.9245 21.2522 17.1225 21.4228 17.2885C21.4758 17.3401 21.5319 17.3884 21.5907 17.4331L22.7991 18.3507C24.0397 19.2766 25.5463 19.7768 27.0944 19.7768C28.6424 19.7768 30.149 19.2766 31.3897 18.3507L34.2527 16.203L44.1015 23.3598Z" fill="#4285F4"/>
<path d="M47.6847 20.9461C47.3575 20.9463 47.0364 20.8569 46.7565 20.6874C46.4765 20.518 46.2484 20.275 46.0969 19.985L38.9432 6.29972C38.833 6.089 38.7658 5.85843 38.7457 5.62147C38.7256 5.38451 38.7528 5.14591 38.826 4.91961C38.8991 4.69332 39.0165 4.48386 39.1715 4.30348C39.3265 4.12309 39.5158 3.9754 39.7285 3.86902L45.3271 1.06976C46.1634 0.649629 47.1314 0.575275 48.022 0.862751C48.9127 1.15023 49.6545 1.77647 50.0874 2.60624L55.588 13.1393C56.0299 13.9781 56.1207 14.958 55.8405 15.8637C55.5602 16.7695 54.9319 17.5269 54.0934 17.9695L54.0157 18.01L48.4778 20.7579C48.2306 20.8815 47.958 20.9459 47.6816 20.9461M42.9524 6.24995L48.4529 16.7721L52.4077 14.8017L53.2039 16.4051L52.4092 14.8017L46.9071 4.27181L42.9524 6.24995Z" fill="black"/>
<path d="M8.30294 20.7197C8.02417 20.7196 7.74931 20.6541 7.50048 20.5284L1.97504 17.754C1.13315 17.3358 0.49099 16.6013 0.188824 15.7112C-0.113342 14.821 -0.0509565 13.8474 0.362355 13.0031L0.416785 12.8973L5.90957 2.37363C6.33689 1.54237 7.07401 0.912536 7.96175 0.620115C8.84949 0.327693 9.81662 0.39615 10.6543 0.810703L16.2637 3.60997C16.4764 3.71621 16.6657 3.86374 16.8207 4.04395C16.9757 4.22415 17.0933 4.43342 17.1665 4.65955C17.2398 4.88567 17.2672 5.12412 17.2473 5.36098C17.2275 5.59784 17.1606 5.82837 17.0506 6.03911L9.89074 19.7602C9.73921 20.0502 9.51108 20.2931 9.23114 20.4626C8.9512 20.632 8.63017 20.7199 8.30294 20.7197ZM3.58618 14.5582L7.53314 16.5395L13.0337 6.00179L9.06963 4.02053L3.58618 14.5582Z" fill="black"/>
<path d="M34.566 33.8933C34.3045 33.8929 34.0439 33.8647 33.7884 33.8093L33.7324 33.7969L20.7532 30.5528L20.7065 30.5404C20.239 30.4107 19.8029 30.1868 19.4251 29.8826L7.19849 20.3386C6.84864 20.0388 6.62786 19.6157 6.5821 19.1572C6.53634 18.6987 6.66912 18.2403 6.95282 17.8773C7.23652 17.5142 7.64927 17.2746 8.1052 17.2082C8.56113 17.1417 9.02511 17.2537 9.40058 17.5207L21.638 27.074L21.6645 27.0957L34.5504 30.318C34.5787 30.3214 34.6072 30.3136 34.6297 30.2962L42.7772 22.1488L46.3136 17.9872C46.4655 17.8069 46.6516 17.6584 46.8611 17.5502C47.0706 17.442 47.2995 17.3763 47.5345 17.3568C47.7695 17.3373 48.006 17.3644 48.2305 17.4366C48.455 17.5088 48.663 17.6247 48.8426 17.7775C49.0221 17.9303 49.1698 18.1172 49.2769 18.3272C49.3841 18.5373 49.4487 18.7664 49.467 19.0015C49.4853 19.2366 49.457 19.473 49.3837 19.6972C49.3103 19.9213 49.1935 20.1287 49.0397 20.3075L45.4629 24.5064C45.4318 24.5422 45.3991 24.578 45.3649 24.6122L37.132 32.8451L37.0884 32.8871C36.4047 33.5265 35.5036 33.8822 34.5675 33.8824" fill="black"/>
<path d="M44.0965 25.1508C43.7187 25.1512 43.3505 25.0313 43.0453 24.8086L34.2711 18.4325L32.464 19.7871C30.9112 20.9361 29.0305 21.5563 27.0988 21.5563C25.1671 21.5563 23.2863 20.9361 21.7335 19.7871L20.5143 18.854C19.7544 18.2753 19.2551 17.4188 19.1259 16.4724C18.9968 15.5261 19.2483 14.5671 19.8254 13.806C19.9141 13.6886 20.0102 13.5769 20.1131 13.4716L28.9012 4.70681C29.2329 4.37665 29.6264 4.11511 30.0592 3.93712C30.492 3.75914 30.9557 3.66821 31.4236 3.66952H40.5181C40.7593 3.65947 41 3.69828 41.2257 3.78362C41.4515 3.86896 41.6576 3.99907 41.8318 4.16614C42.006 4.3332 42.1446 4.53376 42.2392 4.75575C42.3339 4.97775 42.3827 5.2166 42.3827 5.45794C42.3827 5.69929 42.3339 5.93814 42.2392 6.16014C42.1446 6.38213 42.006 6.58269 41.8318 6.74975C41.6576 6.91681 41.4515 7.04693 41.2257 7.13227C41 7.21761 40.7593 7.25642 40.5181 7.24636H31.4128L22.6542 15.9863C22.6635 15.9863 22.6651 15.9863 22.6744 16.0018L23.8812 16.9178C24.8144 17.6047 25.9431 17.9745 27.1019 17.9728C28.2606 17.9711 29.3883 17.5981 30.3195 16.9085L33.1794 14.7639C33.4856 14.5345 33.8572 14.4092 34.2398 14.4064C34.6224 14.4036 34.9958 14.5234 35.3053 14.7484L45.1494 21.9021C45.4552 22.1244 45.6828 22.4379 45.7995 22.7976C45.9162 23.1572 45.916 23.5446 45.7989 23.9042C45.6818 24.2637 45.4539 24.5769 45.1478 24.7989C44.8417 25.0209 44.4731 25.1403 44.095 25.1399" fill="black"/>
<path d="M36.0465 7.25283C35.792 7.25428 35.5402 7.20125 35.3078 7.09731L27.5663 3.57957L16.1018 6.93402C15.8746 7.00551 15.6355 7.03096 15.3984 7.00887C15.1613 6.98678 14.9309 6.9176 14.7209 6.80539C14.5109 6.69317 14.3253 6.54017 14.1752 6.35535C14.025 6.17052 13.9132 5.95759 13.8464 5.72903C13.7795 5.50047 13.759 5.26086 13.7859 5.02425C13.8128 4.78764 13.8867 4.55878 14.0032 4.35108C14.1196 4.14337 14.2764 3.961 14.4642 3.81463C14.6521 3.66827 14.8673 3.56086 15.0971 3.4987L26.5741 0.142691C27.3916 -0.0949469 28.2668 -0.0343164 29.0437 0.313757L36.7868 3.82684C37.1601 3.99541 37.4643 4.2869 37.6486 4.65268C37.8329 5.01846 37.8862 5.43639 37.7996 5.83672C37.713 6.23705 37.4917 6.59556 37.1726 6.85243C36.8536 7.1093 36.4561 7.24898 36.0465 7.24816" fill="black"/>
<path d="M24.4137 38.5744C24.2654 38.5744 24.1176 38.5562 23.9736 38.52L17.257 36.8249C16.696 36.6932 16.1769 36.4232 15.7469 36.0395L10.7113 31.6711C10.53 31.5183 10.3809 31.3309 10.2726 31.1199C10.1644 30.9089 10.0991 30.6785 10.0806 30.4421C10.0622 30.2056 10.0909 29.9679 10.1651 29.7426C10.2393 29.5174 10.3575 29.3091 10.5128 29.13C10.6682 28.9508 10.8576 28.8043 11.0701 28.699C11.2826 28.5936 11.5139 28.5316 11.7505 28.5164C11.9872 28.5012 12.2245 28.5332 12.4487 28.6105C12.6729 28.6878 12.8795 28.8089 13.0565 28.9667L18.1138 33.346H18.1247L24.8585 35.0458C25.2817 35.1526 25.6512 35.4103 25.8977 35.7705C26.1441 36.1306 26.2505 36.5684 26.1968 37.0015C26.1432 37.4346 25.9331 37.8332 25.6062 38.1223C25.2792 38.4114 24.8579 38.5711 24.4215 38.5713" fill="black"/>
</svg>
