<svg width="16" height="17" viewBox="0 0 16 17" fill="none" xmlns="http://www.w3.org/2000/svg">
<path d="M8 0.914062C6.41775 0.914063 4.87103 1.38325 3.55544 2.26231C2.23985 3.14136 1.21447 4.39078 0.608967 5.85259C0.00346628 7.3144 -0.15496 8.92294 0.153721 10.4748C0.462403 12.0266 1.22433 13.4521 2.34315 14.5709C3.46197 15.6897 4.88743 16.4517 6.43928 16.7603C7.99113 17.069 9.59966 16.9106 11.0615 16.3051C12.5233 15.6996 13.7727 14.6742 14.6518 13.3586C15.5308 12.043 16 10.4963 16 8.91406C15.9978 6.79302 15.1542 4.75949 13.6544 3.25968C12.1546 1.75988 10.121 0.916302 8 0.914062ZM10.2815 9.34945L7.20462 12.4264C7.14744 12.4835 7.07956 12.5289 7.00486 12.5598C6.93016 12.5908 6.85009 12.6067 6.76923 12.6067C6.68837 12.6067 6.60831 12.5908 6.5336 12.5598C6.4589 12.5289 6.39102 12.4835 6.33385 12.4264C6.27667 12.3692 6.23132 12.3013 6.20038 12.2266C6.16943 12.1519 6.15351 12.0718 6.15351 11.991C6.15351 11.9101 6.16943 11.8301 6.20038 11.7554C6.23132 11.6807 6.27667 11.6128 6.33385 11.5556L8.97616 8.91406L6.33385 6.27252C6.21838 6.15705 6.15351 6.00044 6.15351 5.83714C6.15351 5.67384 6.21838 5.51722 6.33385 5.40175C6.44932 5.28628 6.60593 5.22141 6.76923 5.22141C6.93253 5.22141 7.08915 5.28628 7.20462 5.40175L10.2815 8.47868C10.3388 8.53583 10.3841 8.6037 10.4151 8.6784C10.4461 8.75311 10.462 8.83319 10.462 8.91406C10.462 8.99493 10.4461 9.07501 10.4151 9.14972C10.3841 9.22442 10.3388 9.29229 10.2815 9.34945Z" fill="black"/>
</svg>
