<svg width="24" height="25" viewBox="0 0 24 25" fill="none" xmlns="http://www.w3.org/2000/svg">
<path d="M0 2.03948C0.0081569 1.57657 0.199425 1.13575 0.531918 0.813568C0.864411 0.491383 1.31103 0.314089 1.77397 0.32051H22.2236C22.6869 0.313554 23.134 0.490612 23.467 0.812853C23.7999 1.1351 23.9914 1.57622 23.9996 2.03948V22.6011C23.9922 23.0643 23.8012 23.5056 23.4685 23.8279C23.1359 24.1503 22.6888 24.3273 22.2256 24.3201H1.77397C1.31088 24.3273 0.863883 24.1504 0.53123 23.8281C0.198577 23.5059 0.00749929 23.0647 0 22.6016L0 2.03948Z" fill="#006699"/>
<path d="M7.29303 20.4005V9.59573H3.70159V20.4005H7.29353H7.29303ZM5.49806 8.12326C5.75535 8.14506 6.01437 8.11342 6.25884 8.03031C6.50331 7.94721 6.72795 7.81444 6.91865 7.64035C7.10935 7.46626 7.26197 7.25461 7.36695 7.0187C7.47192 6.78279 7.52696 6.52772 7.52862 6.26951C7.53028 6.01131 7.47852 5.75555 7.37659 5.51831C7.27466 5.28107 7.12476 5.06748 6.93632 4.89095C6.74788 4.71442 6.52496 4.57877 6.28158 4.49253C6.0382 4.40629 5.77961 4.37132 5.52206 4.38982C5.26556 4.36756 5.00723 4.39846 4.76321 4.48057C4.51919 4.56269 4.29473 4.69426 4.10387 4.86706C3.91301 5.03986 3.75984 5.25017 3.65395 5.48485C3.54806 5.71952 3.49171 5.97352 3.48843 6.23097C3.48516 6.48841 3.53502 6.74376 3.63491 6.98106C3.7348 7.21835 3.88257 7.4325 4.06897 7.61009C4.25538 7.78769 4.47641 7.92493 4.71826 8.01322C4.96011 8.10152 5.21758 8.13898 5.47456 8.12326H5.49806ZM9.281 20.403H12.8719V14.3671C12.8582 14.0704 12.8983 13.7736 12.9904 13.4912C13.1248 13.109 13.374 12.7777 13.7039 12.5426C14.0338 12.3074 14.4283 12.18 14.8334 12.1777C16.1334 12.1777 16.6524 13.1682 16.6524 14.6211V20.4005H20.2433V14.2052C20.2433 10.8867 18.4718 9.34224 16.1089 9.34224C15.4505 9.31598 14.7977 9.47202 14.2224 9.79316C13.6471 10.1143 13.1716 10.5881 12.8484 11.1622H12.8724V9.59623H9.281C9.32799 10.6097 9.281 20.401 9.281 20.401V20.403Z" fill="white"/>
</svg>
