<svg width="21" height="25" viewBox="0 0 21 25" fill="none" xmlns="http://www.w3.org/2000/svg">
<path d="M10.4593 0.914062C7.68576 0.915335 5.02622 1.91026 3.06502 3.68024C1.10382 5.45022 0.0014095 7.85046 0 10.3536C0 17.1743 9.88349 24.7343 9.90609 24.7739C10.0691 24.8655 10.2573 24.9141 10.4493 24.9141C10.6414 24.9141 10.8296 24.8655 10.9926 24.7739H11.0152C11.0152 24.7739 20.9213 17.1743 20.9213 10.3536C20.9199 7.85005 19.8171 5.44944 17.8553 3.67939C15.8936 1.90935 13.2333 0.914698 10.4593 0.914062ZM10.4593 13.7345C9.6901 13.7322 8.93893 13.524 8.30078 13.1364C7.66262 12.7488 7.16614 12.1991 6.87408 11.5569C6.58202 10.9146 6.50751 10.2087 6.65996 9.52823C6.81241 8.84778 7.18499 8.2234 7.73058 7.73402C8.27617 7.24465 8.97028 6.91225 9.72517 6.77885C10.4801 6.64545 11.2618 6.71704 11.9716 6.98456C12.6814 7.25209 13.2874 7.70354 13.713 8.28185C14.1385 8.86016 14.3645 9.53936 14.3624 10.2336C14.3639 10.6955 14.2637 11.1531 14.0678 11.5799C13.8718 12.0066 13.584 12.394 13.221 12.7197C12.8579 13.0453 12.4269 13.3027 11.9528 13.4769C11.4788 13.6511 10.9711 13.7387 10.4593 13.7345Z" fill="#4285F4"/>
</svg>
