<svg width="256" height="89" viewBox="0 0 256 89" fill="none" xmlns="http://www.w3.org/2000/svg">
<path d="M104.095 51.758V74.4471C104.095 74.8476 104.016 75.2441 103.862 75.6141C103.709 75.9841 103.485 76.3203 103.201 76.6035C102.918 76.8866 102.582 77.1113 102.212 77.2645C101.842 77.4178 101.446 77.4966 101.045 77.4966H99.2245C98.824 77.4966 98.4274 77.4178 98.0575 77.2645C97.6875 77.1113 97.3513 76.8866 97.0681 76.6035C96.7849 76.3203 96.5603 75.9841 96.4071 75.6141C96.2538 75.2441 96.1749 74.8476 96.1749 74.4471V74.0718C95.0846 75.3093 93.7314 76.2873 92.2143 76.9344C90.6412 77.6025 88.9473 77.9397 87.2382 77.9249C85.5973 78.011 83.9558 77.7663 82.4113 77.2055C80.8667 76.6448 79.4506 75.7793 78.2471 74.6605C76.0345 72.4862 74.9287 69.2581 74.9297 64.9762V51.758C74.9297 50.9493 75.251 50.1736 75.8229 49.6017C76.3948 49.0298 77.1704 48.7085 77.9792 48.7085H80.2266C80.6272 48.7083 81.0238 48.7871 81.3939 48.9402C81.764 49.0934 82.1002 49.318 82.3834 49.6013C82.6666 49.8845 82.8913 50.2207 83.0444 50.5908C83.1976 50.9609 83.2764 51.3575 83.2762 51.758V63.7457C83.2762 68.3829 85.2209 70.7019 89.1104 70.7029C90.0059 70.7405 90.8991 70.5855 91.7297 70.2483C92.5602 69.9111 93.3087 69.3996 93.9246 68.7483C95.2498 67.116 95.9011 65.0389 95.7452 62.9422V51.7566C95.745 51.3561 95.8237 50.9594 95.9769 50.5893C96.1301 50.2193 96.3547 49.883 96.6379 49.5998C96.9211 49.3166 97.2574 49.092 97.6275 48.9388C97.9975 48.7856 98.3942 48.7068 98.7947 48.707H101.042C101.851 48.707 102.627 49.0283 103.198 49.6002C103.77 50.1721 104.092 50.9478 104.092 51.7566" fill="#4285F4"/>
<path d="M134.987 48.7074C135.796 48.7074 136.571 49.0287 137.143 49.6006C137.715 50.1725 138.036 50.9481 138.036 51.7569V72.6739C138.036 77.9557 136.663 81.8805 133.915 84.4482C131.168 87.016 127.154 88.2999 121.875 88.2999C119.202 88.3138 116.539 87.9718 113.956 87.2829C112.773 86.969 111.62 86.5499 110.511 86.0304C110.135 85.8501 109.8 85.5948 109.526 85.2802C109.253 84.9656 109.046 84.5983 108.92 84.201C108.794 83.8037 108.75 83.3848 108.791 82.9699C108.833 82.5551 108.959 82.1531 109.161 81.7887L109.515 81.15C109.907 80.4632 110.547 79.9528 111.304 79.7239C112.061 79.495 112.877 79.5651 113.584 79.9195C114.26 80.2355 114.956 80.5064 115.668 80.7305C117.466 81.3102 119.344 81.608 121.233 81.6136C123.538 81.8073 125.829 81.1099 127.635 79.6649C128.368 78.8752 128.93 77.9422 129.285 76.9246C129.639 75.9071 129.779 74.8271 129.696 73.7528V72.5268C128.528 73.7465 127.111 74.6987 125.54 75.3176C123.969 75.9366 122.283 76.2076 120.597 76.112C118.074 76.1403 115.583 75.5431 113.347 74.3739C111.191 73.2509 109.386 71.557 108.128 69.4772C106.866 67.2594 106.203 64.7516 106.203 62.2C106.203 59.6484 106.866 57.1406 108.128 54.9227C109.387 52.8437 111.192 51.15 113.347 50.0261C115.583 48.8572 118.074 48.2595 120.597 48.2864C122.397 48.1726 124.199 48.4867 125.855 49.203C127.51 49.9192 128.973 51.0174 130.123 52.4074V51.7643C130.123 50.9555 130.444 50.1798 131.016 49.6079C131.588 49.036 132.363 48.7147 133.172 48.7147L134.987 48.7074ZM127.682 67.3034C129.036 65.9472 129.796 64.1094 129.796 62.1934C129.796 60.2773 129.036 58.4395 127.682 57.0833C126.195 55.7508 124.247 55.0498 122.251 55.1288C120.248 55.0519 118.292 55.7522 116.793 57.0833C116.115 57.7505 115.576 58.5459 115.209 59.4232C114.841 60.3005 114.652 61.2422 114.652 62.1934C114.652 63.1445 114.841 64.0862 115.209 64.9635C115.576 65.8409 116.115 66.6362 116.793 67.3034C118.293 68.6334 120.248 69.3331 122.251 69.2565C124.247 69.3352 126.194 68.6348 127.682 67.3034Z" fill="#4285F4"/>
<path d="M171.59 51.7561V74.4407C171.59 75.2495 171.268 76.0252 170.697 76.5971C170.125 77.169 169.349 77.4903 168.54 77.4903H166.665C165.856 77.4899 165.081 77.1685 164.509 76.5967C163.937 76.0249 163.616 75.2494 163.616 74.4407V74.1729C162.505 75.4448 161.116 76.4441 159.557 77.0934C157.999 77.7426 156.311 78.0245 154.626 77.9171C152.057 77.9529 149.523 77.3264 147.267 76.098C145.083 74.8983 143.29 73.0972 142.1 70.9085C140.817 68.512 140.173 65.8255 140.23 63.108C140.171 60.3846 140.814 57.6917 142.1 55.2899C143.288 53.1016 145.08 51.3005 147.263 50.1003C149.518 48.8707 152.053 48.2436 154.622 48.2797C156.225 48.1928 157.827 48.4591 159.316 49.0599C160.805 49.6606 162.143 50.581 163.237 51.7561C163.238 50.9474 163.559 50.172 164.131 49.6002C164.703 49.0284 165.478 48.707 166.287 48.7066H168.534C169.343 48.7066 170.119 49.0279 170.691 49.5998C171.263 50.1717 171.584 50.9473 171.584 51.7561M161.309 68.9083C162.024 68.1265 162.576 67.2108 162.935 66.2142C163.293 65.2176 163.451 64.1599 163.398 63.1021C163.45 62.0443 163.293 60.9866 162.935 59.99C162.576 58.9935 162.024 58.0778 161.309 57.2959C159.907 55.9069 158.013 55.1277 156.039 55.1277C154.065 55.1277 152.171 55.9069 150.768 57.2959C150.054 58.079 149.503 58.9958 149.145 59.9934C148.788 60.9911 148.632 62.0497 148.686 63.108C148.633 64.1658 148.79 65.2235 149.149 66.2201C149.507 67.2167 150.06 68.1324 150.774 68.9142C152.177 70.3025 154.071 71.0812 156.045 71.0812C158.018 71.0812 159.912 70.3025 161.315 68.9142" fill="#4285F4"/>
<path d="M205.046 51.7513V74.4359C205.046 75.2447 204.724 76.0204 204.152 76.5923C203.58 77.1642 202.805 77.4855 201.996 77.4855H200.121C199.72 77.4856 199.324 77.4069 198.953 77.2538C198.583 77.1006 198.247 76.8761 197.963 76.5929C197.68 76.3097 197.455 75.9735 197.301 75.6034C197.148 75.2333 197.069 74.8366 197.068 74.4359V74.168C195.958 75.44 194.569 76.4392 193.01 77.0885C191.451 77.7378 189.764 78.0196 188.079 77.9123C185.51 77.9481 182.976 77.3216 180.72 76.0931C178.538 74.8924 176.746 73.0908 175.557 70.9022C174.271 68.5021 173.625 65.8108 173.683 63.0884C173.626 60.3666 174.271 57.6759 175.557 55.2762C176.746 53.0879 178.538 51.2868 180.72 50.0867C182.975 48.857 185.51 48.23 188.079 48.2661C189.682 48.1792 191.285 48.4455 192.773 49.0462C194.262 49.6469 195.601 50.5673 196.695 51.7424C196.695 50.9338 197.016 50.1583 197.588 49.5865C198.16 49.0147 198.936 48.6933 199.744 48.6929H201.992C202.8 48.6929 203.576 49.0142 204.148 49.5861C204.72 50.158 205.041 50.9336 205.041 51.7424M194.767 68.8946C195.481 68.1128 196.033 67.1971 196.392 66.2006C196.75 65.204 196.908 64.1462 196.855 63.0884C196.908 62.0307 196.75 60.9729 196.392 59.9764C196.033 58.9798 195.481 58.0641 194.767 57.2822C193.364 55.8933 191.47 55.1141 189.496 55.1141C187.522 55.1141 185.628 55.8933 184.226 57.2822C183.511 58.0641 182.959 58.9798 182.6 59.9764C182.242 60.9729 182.085 62.0307 182.137 63.0884C182.084 64.1462 182.242 65.204 182.6 66.2006C182.959 67.1971 183.511 68.1128 184.226 68.8946C185.629 70.2829 187.523 71.0616 189.496 71.0616C191.47 71.0616 193.364 70.2829 194.767 68.8946Z" fill="#4285F4"/>
<path d="M252.809 51.4621C254.93 53.5854 255.992 56.7693 255.993 61.014V74.4396C255.993 74.8401 255.914 75.2368 255.761 75.6068C255.608 75.9769 255.383 76.3132 255.1 76.5964C254.817 76.8796 254.48 77.1042 254.11 77.2574C253.74 77.4106 253.344 77.4893 252.943 77.4891H250.696C250.295 77.4893 249.899 77.4106 249.528 77.2574C249.158 77.1042 248.822 76.8796 248.539 76.5964C248.256 76.3132 248.031 75.9769 247.878 75.6068C247.725 75.2368 247.646 74.8401 247.646 74.4396V62.2988C247.785 60.4816 247.283 58.6731 246.227 57.1873C245.727 56.6172 245.103 56.1689 244.402 55.8766C243.702 55.5843 242.945 55.4557 242.187 55.5007C241.32 55.4589 240.453 55.6074 239.649 55.9359C238.845 56.2644 238.122 56.7649 237.532 57.4022C236.279 59.0051 235.669 61.0176 235.82 63.0465V74.4396C235.82 75.2484 235.499 76.0241 234.927 76.596C234.355 77.1679 233.58 77.4891 232.771 77.4891H230.522C230.121 77.4893 229.725 77.4106 229.354 77.2574C228.984 77.1043 228.648 76.8797 228.365 76.5965C228.081 76.3133 227.856 75.977 227.703 75.607C227.55 75.2369 227.471 74.8402 227.471 74.4396V62.2988C227.471 57.7687 225.652 55.5026 222.013 55.5007C221.154 55.4621 220.297 55.6123 219.501 55.9409C218.706 56.2694 217.993 56.7682 217.411 57.4022C216.158 59.0052 215.548 61.0176 215.7 63.0465V74.4396C215.7 75.2484 215.378 76.0241 214.806 76.596C214.234 77.1679 213.459 77.4891 212.65 77.4891H210.401C209.592 77.4891 208.817 77.1679 208.245 76.596C207.673 76.0241 207.352 75.2484 207.352 74.4396V51.7564C207.352 50.9475 207.673 50.1717 208.245 49.5996C208.817 49.0274 209.592 48.7058 210.401 48.7054H212.276C212.677 48.7054 213.073 48.7843 213.443 48.9377C213.814 49.091 214.15 49.3158 214.433 49.5991C214.716 49.8825 214.941 50.2188 215.094 50.589C215.247 50.9591 215.326 51.3558 215.326 51.7564V52.0243C216.404 50.805 217.75 49.8524 219.258 49.2411C220.882 48.5854 222.619 48.2582 224.37 48.2786C226.275 48.2506 228.16 48.6626 229.88 49.4825C230.637 49.8499 231.344 50.3123 231.983 50.8586C232.515 51.3252 233.192 51.5926 233.899 51.6148C234.606 51.6371 235.299 51.413 235.859 50.9808C236.616 50.3971 237.438 49.9032 238.309 49.509C240.168 48.6772 242.185 48.2575 244.221 48.2786C245.794 48.1988 247.367 48.4398 248.843 48.9871C250.32 49.5344 251.668 50.3765 252.809 51.4621Z" fill="#4285F4"/>
<path d="M4.88864 9.24086C4.62372 9.25852 4.28374 9.35418 4.27932 8.89204C4.27932 8.59769 4.27932 8.29303 4.29993 7.99425C4.31759 7.3452 4.31318 6.70203 4.27344 6.05297C4.32067 6 4.38689 5.96782 4.45772 5.96341C4.52855 5.959 4.59825 5.98272 4.65169 6.02942C4.65169 6.02942 5.09322 7.8353 5.32429 8.75222C5.41702 9.13636 5.16828 9.2232 4.88276 9.24233" fill="#B8A80F"/>
<path d="M15.5944 0.0529843V0.0603432C15.4472 0.216353 15.3619 0.328208 15.2574 0.422403C13.531 1.91332 11.7987 3.40571 10.0811 4.91577C9.94773 5.04328 9.78597 5.13727 9.60914 5.18998C9.43232 5.2427 9.2455 5.25263 9.06408 5.21895C7.48486 5.0129 5.90269 4.83629 4.31463 4.64349C4.13507 4.62582 3.95257 4.61552 3.60081 4.58314C3.96287 4.97317 4.24546 5.31904 4.53687 5.62958C4.43202 5.68702 4.33911 5.76395 4.26312 5.85624C3.88732 5.42059 3.48994 5.00505 3.07097 4.60963C3.00768 4.54635 2.94145 4.4757 2.82812 4.3609C3.10776 4.13425 3.35797 3.91937 3.61406 3.71479C4.97546 2.64922 6.32951 1.58659 7.69532 0.534258C7.88013 0.382163 8.10406 0.285244 8.34144 0.254619C10.6315 0.157481 12.9172 0.0809482 15.1985 0C15.3317 0.00631681 15.4642 0.0240431 15.5944 0.0529843Z" fill="black"/>
<path d="M10.6083 6.86303C10.0151 6.53797 9.3276 6.42837 8.66273 6.55286C7.99785 6.67736 7.3966 7.02827 6.9612 7.54594L6.07812 5.02771C6.81291 5.09564 7.54282 5.20869 8.26373 5.36623C8.7105 5.52294 9.19565 5.53277 9.6484 5.3943C10.1012 5.25583 10.4978 4.97629 10.7805 4.59648C11.4809 3.88065 12.2198 3.2036 12.994 2.56836L13.8933 5.12927C13.5641 5.0185 13.2158 4.9758 12.8695 5.00375C12.5233 5.0317 12.1863 5.12971 11.8791 5.29185C11.5719 5.45399 11.3008 5.67687 11.0824 5.94696C10.8639 6.21705 10.7026 6.52871 10.6083 6.86303Z" fill="black"/>
<path d="M33.3382 46.5738C29.7942 41.1282 25.5981 38.0787 21.483 38.5997C12.7995 39.6947 7.72327 56.2155 10.1502 75.4988C10.2812 76.4894 10.4122 77.4534 10.5918 78.4174C7.41865 73.8184 4.91699 68.7908 3.1622 63.4861C-1.13688 50.6654 -0.927889 38.2097 3.03269 30.5946C3.03091 30.5777 3.03507 30.5606 3.04447 30.5464C3.05386 30.5322 3.06791 30.5217 3.0842 30.5166C4.09981 29.0116 5.41146 27.7293 6.93909 26.748C8.46673 25.7667 10.1783 25.1069 11.9694 24.8091C20.5175 23.7405 29.0421 32.9142 33.3382 46.5679" fill="#4285F4"/>
<path d="M13.5189 22.7712C12.0099 22.7709 10.5348 22.3232 9.28029 21.4845C8.02575 20.6459 7.04805 19.4541 6.47084 18.0599C5.89364 16.6656 5.74284 15.1315 6.03752 13.6515C6.3322 12.1716 7.05912 10.8122 8.12637 9.74538C9.19361 8.67855 10.5532 7.95215 12.0333 7.65804C13.5134 7.36393 15.0475 7.51532 16.4415 8.09307C17.8355 8.67081 19.027 9.64896 19.8651 10.9038C20.7032 12.1587 21.1504 13.6339 21.1501 15.1429C21.1501 16.1451 20.9527 17.1375 20.569 18.0634C20.1854 18.9893 19.6232 19.8305 18.9144 20.539C18.2056 21.2475 17.3641 21.8095 16.4381 22.1927C15.5121 22.576 14.5196 22.7731 13.5174 22.7727M13.5174 15.1459V15.1356V15.1459Z" fill="#EA4335"/>
<path d="M34.8594 46.5758C38.4034 41.1301 42.5995 38.0806 46.7146 38.6016C55.3982 39.6966 60.4743 56.2174 58.0474 75.5008C57.9164 76.4913 57.7854 77.4553 57.6058 78.4193C60.779 73.8204 63.2806 68.7928 65.0354 63.4881C69.3345 50.6658 69.1255 38.2116 65.1649 30.6025C65.1667 30.5855 65.1625 30.5685 65.1531 30.5542C65.1438 30.54 65.1297 30.5295 65.1134 30.5245C64.0978 29.0194 62.7862 27.7371 61.2585 26.7558C59.7309 25.7745 58.0193 25.1147 56.2282 24.8169C47.6801 23.7483 39.1555 32.922 34.8594 46.5758Z" fill="#34A853"/>
<path d="M54.6751 22.7712C53.1661 22.7709 51.691 22.3231 50.4364 21.4844C49.1818 20.6458 48.2041 19.4539 47.627 18.0595C47.0498 16.6652 46.8991 15.131 47.1939 13.651C47.4887 12.171 48.2157 10.8116 49.2831 9.74486C50.3505 8.67809 51.7103 7.9518 53.1905 7.65786C54.6707 7.36392 56.2048 7.51552 57.5988 8.09349C58.9928 8.67146 60.1841 9.64984 61.022 10.9049C61.86 12.16 62.3069 13.6353 62.3064 15.1444C62.3056 17.1677 61.5012 19.1078 60.0701 20.5381C58.639 21.9683 56.6984 22.7716 54.6751 22.7712ZM54.6751 15.1356V15.1444V15.1356Z" fill="#EA4335"/>
<path d="M44.071 44.9008H40.4592V43.4687C40.461 43.362 40.4416 43.2559 40.4023 43.1567C40.363 43.0574 40.3045 42.9669 40.2301 42.8904C40.1557 42.8138 40.0669 42.7527 39.9688 42.7105C39.8708 42.6683 39.7653 42.6459 39.6586 42.6445H35.8496C35.6341 42.6492 35.429 42.738 35.2782 42.8921C35.1274 43.0462 35.043 43.2532 35.0431 43.4687V44.9008H31.4534C31.3338 44.9019 31.2193 44.9498 31.1346 45.0343C31.0499 45.1187 31.0016 45.233 31.0001 45.3526V53.4769C30.9991 53.5355 31.0098 53.5937 31.0315 53.6481C31.0533 53.7025 31.0857 53.7521 31.1268 53.7939C31.1679 53.8356 31.2169 53.8688 31.2709 53.8915C31.325 53.9141 31.383 53.9258 31.4416 53.9258H44.0725C44.1313 53.9271 44.1898 53.9167 44.2446 53.8952C44.2994 53.8736 44.3493 53.8413 44.3914 53.8001C44.4335 53.759 44.4669 53.7099 44.4897 53.6556C44.5126 53.6014 44.5243 53.5431 44.5243 53.4842V45.3511C44.5232 45.2317 44.4752 45.1174 44.3907 45.0329C44.3062 44.9484 44.1919 44.9005 44.0725 44.8993M35.9497 43.5453H39.56V44.8993H35.9467L35.9497 43.5453Z" fill="#353535"/>
</svg>
