<svg width="16" height="17" viewBox="0 0 16 17" fill="none" xmlns="http://www.w3.org/2000/svg">
<path d="M15.9989 9.58561C15.8683 11.1066 15.306 12.5587 14.3781 13.771C13.4502 14.9832 12.1953 15.9053 10.7612 16.4286C9.32704 16.9518 7.77327 17.0546 6.2827 16.7248C4.79213 16.395 3.42678 15.6463 2.34729 14.5668C1.2678 13.4873 0.519101 12.1219 0.189275 10.6314C-0.14055 9.14079 -0.0377739 7.58702 0.485511 6.15288C1.0088 4.71874 1.93082 3.4639 3.14308 2.53601C4.35535 1.60811 5.80743 1.04577 7.32846 0.91515C7.3705 0.911682 7.41281 0.916528 7.45298 0.929413C7.49315 0.942297 7.53039 0.962967 7.56257 0.990243C7.59475 1.01752 7.62125 1.05087 7.64054 1.08838C7.65983 1.1259 7.67155 1.16684 7.67502 1.20889C7.67849 1.25093 7.67364 1.29324 7.66076 1.33341C7.64787 1.37358 7.6272 1.41082 7.59992 1.443C7.57265 1.47518 7.5393 1.50168 7.50179 1.52097C7.46427 1.54027 7.42332 1.55198 7.38128 1.55545C5.98173 1.67555 4.64561 2.19291 3.53013 3.04665C2.41465 3.90038 1.56624 5.05497 1.08471 6.37454C0.603182 7.69412 0.508583 9.12379 0.812045 10.4953C1.11551 11.8668 1.8044 13.1231 2.79767 14.1164C3.79093 15.1097 5.04724 15.7986 6.41876 16.102C7.79028 16.4055 9.21994 16.3109 10.5395 15.8294C11.8591 15.3478 13.0137 14.4994 13.8674 13.3839C14.7211 12.2685 15.2385 10.9323 15.3586 9.53278C15.3621 9.49074 15.3738 9.44979 15.3931 9.41228C15.4124 9.37476 15.4389 9.34141 15.4711 9.31414C15.5032 9.28686 15.5405 9.26619 15.5806 9.25331C15.6208 9.24042 15.6631 9.23558 15.7052 9.23904C15.7472 9.24251 15.7882 9.25423 15.8257 9.27352C15.8632 9.29282 15.8965 9.31931 15.9238 9.35149C15.9511 9.38367 15.9718 9.42091 15.9846 9.46108C15.9975 9.50125 16.0024 9.54356 15.9989 9.58561ZM7.99517 9.23904H12.4773C12.5622 9.23904 12.6436 9.20531 12.7036 9.14528C12.7637 9.08524 12.7974 9.0038 12.7974 8.91889C12.7974 8.83399 12.7637 8.75255 12.7036 8.69251C12.6436 8.63247 12.5622 8.59874 12.4773 8.59874H8.31532V4.4368C8.31532 4.35189 8.28159 4.27046 8.22155 4.21042C8.16151 4.15038 8.08008 4.11665 7.99517 4.11665C7.91026 4.11665 7.82883 4.15038 7.76879 4.21042C7.70875 4.27046 7.67502 4.35189 7.67502 4.4368V8.91889C7.67502 9.0038 7.70875 9.08524 7.76879 9.14528C7.82883 9.20531 7.91026 9.23904 7.99517 9.23904ZM10.5564 2.19575C10.683 2.19575 10.8068 2.1582 10.9121 2.08784C11.0174 2.01748 11.0995 1.91748 11.1479 1.80048C11.1964 1.68348 11.2091 1.55474 11.1844 1.43053C11.1597 1.30633 11.0987 1.19224 11.0091 1.10269C10.9196 1.01314 10.8055 0.952159 10.6813 0.927453C10.5571 0.902747 10.4283 0.915427 10.3113 0.96389C10.1943 1.01235 10.0943 1.09442 10.024 1.19972C9.95362 1.30502 9.91607 1.42881 9.91607 1.55545C9.91607 1.72527 9.98353 1.88813 10.1036 2.00821C10.2237 2.12829 10.3865 2.19575 10.5564 2.19575ZM13.4377 4.11665C13.5644 4.11665 13.6881 4.07909 13.7934 4.00874C13.8987 3.93838 13.9808 3.83838 14.0293 3.72138C14.0777 3.60438 14.0904 3.47564 14.0657 3.35143C14.041 3.22723 13.98 3.11314 13.8905 3.02359C13.8009 2.93404 13.6868 2.87306 13.5626 2.84835C13.4384 2.82365 13.3097 2.83633 13.1927 2.88479C13.0757 2.93325 12.9757 3.01532 12.9053 3.12062C12.835 3.22591 12.7974 3.34971 12.7974 3.47635C12.7974 3.64617 12.8649 3.80903 12.985 3.92911C13.105 4.04919 13.2679 4.11665 13.4377 4.11665ZM15.3586 6.998C15.4853 6.998 15.609 6.96044 15.7143 6.89009C15.8196 6.81973 15.9017 6.71973 15.9502 6.60273C15.9986 6.48573 16.0113 6.35699 15.9866 6.23278C15.9619 6.10857 15.9009 5.99448 15.8114 5.90494C15.7218 5.81539 15.6077 5.75441 15.4835 5.7297C15.3593 5.70499 15.2306 5.71767 15.1136 5.76614C14.9966 5.8146 14.8966 5.89667 14.8262 6.00196C14.7559 6.10726 14.7183 6.23106 14.7183 6.3577C14.7183 6.52751 14.7858 6.69038 14.9059 6.81046C15.0259 6.93054 15.1888 6.998 15.3586 6.998Z" fill="#4285F4"/>
</svg>
