<svg width="48" height="40" viewBox="0 0 48 40" fill="none" xmlns="http://www.w3.org/2000/svg">
<path d="M0.766184 6.35156C-0.485653 15.7425 10.2589 20.491 31.3007 21.2518C21.0223 18.0289 10.8542 12.8973 0.766184 6.35156Z" fill="#34A853"/>
<path d="M7.87891 20.1729C9.60354 26.6232 17.9002 26.9654 31.8379 22.0636C24.2581 22.5966 16.2337 21.8556 7.87891 20.1729Z" fill="#FBBC05"/>
<path d="M32.5272 23.1152C31.6125 23.811 30.7238 24.4639 29.8622 25.0642L29.8558 25.0688C21.4442 30.9143 15.6297 32.0344 12.7969 27.743C19.3205 27.0227 25.4143 25.736 30.9335 23.7258C31.4731 23.5293 32.007 23.326 32.528 23.1152" fill="#EA4335"/>
<path d="M37.4206 3.99366C36.5658 6.65031 34.9935 9.10776 33.2909 11.2988C33.016 11.6196 32.2834 12.4735 32.0146 12.7804C31.0066 13.8596 29.8503 14.9624 28.7469 15.9331L26.7344 17.561C27.9539 16.3644 29.1114 15.1061 30.2022 13.7911C30.4674 13.4484 31.1104 12.6127 31.3661 12.2792C32.9027 10.0949 34.2862 7.64169 35.0472 5.11381C35.1833 4.65049 35.3068 4.18659 35.4057 3.71541C36.0889 3.68096 36.7725 3.77551 37.4208 3.99409" fill="#EA4335"/>
<path d="M38.1367 2.34484C38.1125 2.51469 38.0834 2.6841 38.0492 2.85308C37.318 2.53133 36.5145 2.40945 35.7207 2.49987V2.49345C35.7185 2.41893 37.926 -1.22298 38.1354 2.34484" fill="#EA4335"/>
<path d="M27.9347 5.30402C31.0847 2.14964 36.2376 2.10385 40.149 3.77102C42.9019 4.94746 45.2446 6.97032 46.9778 9.39699C47.0159 9.44235 47.164 9.65774 47.1974 9.69902C47.3048 9.84841 47.3519 10.0328 47.3293 10.2153C47.3068 10.3979 47.2164 10.5653 47.076 10.6841C46.9885 10.756 46.8857 10.8069 46.7754 10.8328C46.6652 10.8588 46.5505 10.8592 46.4401 10.8339L46.3089 10.8132C43.2776 10.4566 39.5591 10.4842 36.8606 11.9269C32.9231 14.1445 35.4383 18.9516 37.462 22.0898C38.1555 23.1498 38.7531 24.2696 39.2476 25.4358C39.5114 26.0643 39.7428 26.706 39.9407 27.3583C42.4669 35.8084 36.4644 39.3001 28.8622 39.3759C27.3009 39.3992 25.7404 39.2909 24.1973 39.0519L24.2205 38.8419C27.9703 38.8876 31.9142 38.5875 35.2951 36.8913C40.6114 34.1462 38.9807 28.6332 36.7242 24.2977L36.6605 24.1726C36.6502 24.1469 36.6224 24.1024 36.6121 24.0785C36.6111 24.0753 36.599 24.0552 36.6257 24.1023C36.6506 24.143 36.6634 24.1592 36.6513 24.1422C35.2528 22.0807 33.9325 19.8623 33.3308 17.3855C32.0475 11.9803 36.0496 9.62551 40.8589 9.3197C42.7502 9.19065 44.6501 9.29104 46.5173 9.61866L46.6707 9.64972C46.5831 9.63947 46.4944 9.65388 46.4146 9.69133C46.3348 9.72878 46.2671 9.78777 46.219 9.86167C46.1709 9.93557 46.1444 10.0214 46.1425 10.1096C46.1406 10.1977 46.1634 10.2846 46.2083 10.3605C46.2253 10.3871 46.2206 10.3787 46.2161 10.3723C46.0894 10.1757 45.8284 9.79672 45.6989 9.59941C42.7441 5.28142 37.3996 2.36183 32.1134 3.46958C30.6366 3.77335 29.1982 4.40948 28.0845 5.45292L27.9347 5.30402Z" fill="#4285F4"/>
</svg>
