<svg width="25" height="24" viewBox="0 0 25 24" fill="none" xmlns="http://www.w3.org/2000/svg">
<path d="M12.2265 12.2498C14.4111 12.2498 16.1834 10.4775 16.1834 8.29286C16.1834 6.10825 14.4111 4.33594 12.2265 4.33594C10.0418 4.33594 8.26953 6.10825 8.26953 8.29286C8.26953 10.4775 10.0418 12.2498 12.2265 12.2498Z" fill="#4285F4"/>
<path d="M19.8688 18.5785H5.09961C5.5673 15.5755 7.53653 13.3047 9.86884 13.3047H15.0996C17.4381 13.3047 19.4073 15.5755 19.8688 18.5785Z" fill="#4285F4"/>
<path d="M12.4847 23.8585C5.91244 23.8585 0.558594 18.5046 0.558594 11.9262C0.558594 5.34769 5.91244 0 12.4847 0C12.8232 0 13.1001 0.276923 13.1001 0.615385C13.1001 0.953846 12.8232 1.23077 12.4847 1.23077C6.58936 1.23077 1.78936 6.03077 1.78936 11.9262C1.78936 17.8215 6.58936 22.6215 12.4847 22.6215C18.3801 22.6215 23.1801 17.8215 23.1801 11.9262C23.1801 11.5877 23.4571 11.3108 23.7955 11.3108C24.134 11.3108 24.4109 11.5877 24.4109 11.9262C24.4109 18.5046 19.0571 23.8523 12.4847 23.8523V23.8585Z" fill="#4285F4"/>
<path d="M16.559 3.69231C17.5786 3.69231 18.4052 2.86576 18.4052 1.84615C18.4052 0.826551 17.5786 0 16.559 0C15.5394 0 14.7129 0.826551 14.7129 1.84615C14.7129 2.86576 15.5394 3.69231 16.559 3.69231Z" fill="#4285F4"/>
<path d="M20.8657 6.15325C21.8853 6.15325 22.7118 5.32669 22.7118 4.30709C22.7118 3.28749 21.8853 2.46094 20.8657 2.46094C19.8461 2.46094 19.0195 3.28749 19.0195 4.30709C19.0195 5.32669 19.8461 6.15325 20.8657 6.15325Z" fill="#4285F4"/>
<path d="M22.7133 10.4579C23.7329 10.4579 24.5595 9.63138 24.5595 8.61178C24.5595 7.59218 23.7329 6.76562 22.7133 6.76562C21.6937 6.76562 20.8672 7.59218 20.8672 8.61178C20.8672 9.63138 21.6937 10.4579 22.7133 10.4579Z" fill="#4285F4"/>
</svg>
