<svg width="25" height="25" viewBox="0 0 25 25" fill="none" xmlns="http://www.w3.org/2000/svg">
<path d="M18.3518 14.5233C18.3528 14.9768 18.2047 15.4205 17.9263 15.7982C17.6479 16.1758 17.2517 16.4704 16.7877 16.6448C16.3238 16.8192 15.8129 16.8656 15.3198 16.7779C14.8267 16.6903 14.3734 16.4727 14.0173 16.1526C13.6613 15.8325 13.4184 15.4243 13.3193 14.9796C13.2203 14.5349 13.2696 14.0737 13.4611 13.6543C13.6525 13.2349 13.9774 12.8761 14.3947 12.6234C14.8121 12.3706 15.3031 12.2353 15.8057 12.2344C16.4795 12.2336 17.1261 12.4742 17.6035 12.9034C18.0809 13.3325 18.3501 13.9151 18.3518 14.5233Z" fill="#4285F4"/>
<path d="M24.7963 3.03655L23.8157 21.7031C23.7954 22.0772 23.6172 22.4301 23.3178 22.6895C23.0183 22.9489 22.6203 23.095 22.2053 23.098H22.1122L20.6779 23.0305L20.6879 22.9135L21.4557 8.15729C20.7776 7.9726 20.1579 7.64508 19.6476 7.20175C19.1373 6.75841 18.751 6.21195 18.5207 5.60742L14.0284 5.41393C13.7451 5.99637 13.3116 6.50923 12.764 6.90974C12.2164 7.31025 11.5707 7.58679 10.8807 7.71631L10.1078 22.4711L10.0979 22.5881L8.69019 22.5296C8.25835 22.5086 7.85328 22.3342 7.56362 22.0443C7.27396 21.7545 7.12328 21.373 7.14456 20.9831L8.11349 2.30909C8.13535 1.92965 8.31899 1.57254 8.62599 1.31253C8.93298 1.05253 9.33952 0.909775 9.76049 0.914161H9.83528L23.2507 1.49013C23.4654 1.49814 23.6762 1.54474 23.8707 1.62719C24.0652 1.70964 24.2395 1.82628 24.3835 1.97029C24.5274 2.11431 24.638 2.28279 24.7089 2.46588C24.7798 2.64896 24.8095 2.84298 24.7963 3.03655Z" fill="#4285F4"/>
<path d="M6.42496 17.8082L4.61342 12.1715C5.42302 11.7351 6.05754 11.0774 6.42496 10.2936V4.67188L1.18146 6.04281L1.11166 6.0638C0.713758 6.18432 0.382682 6.43868 0.187344 6.77395C-0.00799515 7.10921 -0.0525477 7.49955 0.0629594 7.86371L5.83829 24.1469C5.93938 24.451 6.1448 24.7183 6.42496 24.9103V17.8082Z" fill="#4285F4"/>
</svg>
