<svg width="459" height="372" viewBox="0 0 459 372" fill="none" xmlns="http://www.w3.org/2000/svg">
<path d="M14.1978 330.327C13.2368 328.842 13.6918 327.683 15.1128 326.879C15.6583 326.571 16.1257 326.142 16.479 325.624C16.8324 325.107 17.0622 324.515 17.1508 323.895C17.6308 321.656 19.2168 319.964 20.5018 318.212C28.7168 307.012 34.8428 294.547 42.2438 282.859C42.4948 282.459 42.7058 282.042 42.9348 281.633C43.4925 280.04 44.4287 278.606 45.6628 277.455C46.5639 276.486 47.2512 275.339 47.6798 274.087C47.7903 273.493 48.039 272.933 48.4058 272.452C50.0938 270.798 50.1058 268.732 50.0258 266.601C49.8098 261.201 50.2738 255.81 50.3958 250.414C50.4751 249.276 50.646 248.146 50.9068 247.035C51.2958 240.347 52.4258 233.735 52.9238 227.06C53.3678 221.107 53.5008 215.101 55.0408 209.275C55.2798 208.365 55.3338 207.358 56.1658 206.7C61.4205 205.907 66.7431 205.659 72.0488 205.959C74.3108 206.026 76.6028 206.159 78.6838 204.959C79.7658 204.622 83.7538 204.365 84.1628 204.987C84.7628 206.223 83.6828 203.671 84.1628 204.959C84.8138 206.704 83.4378 212.05 85.1198 211.194C87.1006 210.188 88.7982 208.701 90.0578 206.871C90.5648 206.143 90.9828 205.316 91.9108 204.992C92.4394 204.81 93.0057 204.766 93.556 204.865C94.1062 204.963 94.6222 205.201 95.0548 205.555C95.5625 206.369 95.893 207.28 96.0248 208.23C98.1358 216.822 99.8138 225.504 101.364 234.212C102.047 237.925 102.67 241.649 103.205 245.386C103.432 246.199 103.414 247.061 103.153 247.863C103.804 253.761 104.457 259.661 105.111 265.563C105.445 268.527 105.99 271.517 106.223 274.429C106.648 279.714 108.254 284.742 108.742 289.994C109.242 295.354 110.374 300.656 111.257 305.979C112.129 311.243 112.972 316.514 113.941 321.761C115.17 328.965 117.018 336.049 119.464 342.936C120.101 344.439 120.188 346.117 119.712 347.678C119.703 348.178 119.575 348.668 119.339 349.109C119.102 349.549 118.764 349.927 118.353 350.211C119.591 350.701 120.666 350.823 121.663 351.184C122.463 351.472 122.905 351.21 123.154 350.428C123.22 350.166 123.344 349.922 123.517 349.714C123.69 349.506 123.908 349.34 124.154 349.228C124.466 349.014 124.761 348.592 125.141 349.141C125.599 350.341 124.763 351.107 124.225 351.97C124.625 352.106 125.173 352.09 125.225 352.739C125.176 352.866 125.099 352.98 124.999 353.072C124.899 353.164 124.779 353.231 124.648 353.268C122.748 353.26 121.035 352.468 119.248 352.012C118.739 351.848 118.197 351.82 117.674 351.929C117.151 352.038 116.666 352.281 116.266 352.635C113.916 354.535 111.295 355.756 108.142 355.235C107.48 355.18 106.817 355.316 106.231 355.629C104.883 356.131 103.483 356.477 102.058 356.663C101.37 356.813 100.651 356.696 100.047 356.335C99.4426 355.975 98.9982 355.397 98.8038 354.721C97.8178 352.183 96.3138 349.727 97.4338 346.796C97.5537 346.382 97.5436 345.942 97.4048 345.534C97.266 345.127 97.0052 344.772 96.6578 344.517C94.4448 342.411 93.6118 339.744 93.2188 336.807C92.7557 334.207 92.1111 331.642 91.2898 329.131C87.8608 316.906 85.9038 304.397 84.2728 291.831C83.83 289.11 83.6959 286.347 83.8728 283.596C83.9207 283.357 83.9136 283.111 83.8519 282.875C83.7902 282.64 83.6756 282.422 83.5168 282.237C82.0598 280.937 81.9858 279.102 81.4258 277.414C80.5205 274.805 79.4582 272.252 78.2448 269.771C77.8831 268.771 77.4044 267.818 76.8188 266.93C75.5568 270.085 74.1028 272.941 72.8768 275.901C72.1504 277.68 71.5571 279.51 71.1018 281.377C70.6058 283.368 69.6964 285.232 68.4328 286.848C66.3194 289.429 64.3969 292.161 62.6808 295.022C58.6038 302.169 53.4058 308.592 48.6318 315.284C43.8408 322 39.9248 329.228 35.8528 336.369C35.0168 337.835 34.0298 339.186 33.1318 340.603C32.93 340.94 32.6616 341.232 32.343 341.462C32.0244 341.692 31.6623 341.854 31.2788 341.939C29.7328 342.395 28.4608 341.061 26.9488 341.279C25.5512 339.825 23.7024 338.888 21.7038 338.619C18.9878 338.044 16.8808 336.531 16.2898 333.58C16.0118 332.196 14.4698 331.68 14.1998 330.325" fill="#1B364B"/>
<path d="M85.8109 147.384C85.7852 148.956 86.0454 150.52 86.5789 151.999C87.3699 157.887 88.7059 163.668 89.9479 169.47C91.6812 177.562 93.3519 185.666 94.9599 193.783C95.4391 196.624 95.6697 199.502 95.6489 202.383C95.6769 203.603 94.8859 204.517 94.7259 205.64C93.7059 205.081 92.5909 205.456 91.5259 205.312C90.6829 205.252 90.6039 204.466 90.2679 203.948C89.3774 202.743 88.3324 201.661 87.1599 200.729C86.7869 199.894 86.2397 199.149 85.5549 198.543C83.5923 195.74 81.8755 192.772 80.4239 189.673C77.0239 183.19 74.0859 176.473 70.7239 169.967C68.6896 165.95 66.1995 162.18 63.3029 158.732C62.9499 158.32 62.4509 157.892 62.5169 157.359C62.7789 155.233 62.3369 153.043 63.1019 150.964C63.3023 150.742 63.5345 150.551 63.7909 150.398C64.2719 150.06 65.3989 150.246 65.1209 149.329C64.9109 148.637 63.9579 148.914 63.3349 148.929C57.7659 149.061 52.2199 148.317 46.6499 148.54C46.3225 148.588 45.9885 148.568 45.6692 148.481C45.3499 148.394 45.0522 148.241 44.7949 148.033C44.6159 137.912 42.7509 127.819 44.0949 117.68C44.7809 112.514 45.9059 107.438 51.1179 104.646C52.2299 104.046 52.3759 102.807 53.0179 101.894C54.1312 101.464 55.3285 101.295 56.5173 101.402C57.706 101.509 58.8542 101.888 59.8729 102.51C64.8209 105.427 69.7299 108.428 75.1019 110.543C77.7849 117.616 81.1359 124.437 83.1119 131.78C83.3409 132.632 84.3519 135.48 84.4779 136.124C85.0909 139.275 85.6539 146.789 85.8159 147.382" fill="#08599C"/>
<path d="M140.981 361.373C142.988 362.101 145.224 362.041 147.12 363.157C147.675 363.485 148.47 363.637 148.488 364.429C148.506 365.221 147.732 365.456 147.15 365.713C143.688 367.055 140.05 367.892 136.35 368.197C126.85 369.431 117.299 369.966 107.735 370.482C90.4016 371.418 73.0646 371.112 55.7286 371.04C49.9816 371.017 44.2286 370.712 38.4926 370.34C28.8755 369.887 19.2892 368.923 9.77458 367.452C7.76205 367.147 5.79613 366.589 3.92358 365.791C3.31858 365.519 2.64258 365.23 2.64258 364.447C2.64258 363.664 3.30858 363.354 3.92258 363.097C6.59758 362.046 9.40055 361.357 12.2576 361.047C17.1736 360.394 22.1046 359.857 27.0296 359.272C27.1785 359.281 27.3274 359.254 27.4635 359.193C27.5996 359.132 27.7187 359.038 27.8106 358.921C28.6166 358.57 29.0036 359.274 29.4926 359.633C32.1486 361.577 34.6676 363.733 37.8496 364.833C38.2385 364.99 38.6365 365.123 39.0416 365.233C39.7926 365.393 40.6416 365.408 40.8606 364.573C41.0796 363.738 40.1306 363.813 39.6436 363.582C38.8656 363.216 37.8436 362.806 38.0696 361.882C38.3926 360.556 37.3696 358.793 39.2186 357.914C57.2426 356.968 75.2786 357.205 93.3106 357.224C96.2992 357.224 99.2838 357.443 102.241 357.878C103.326 358.929 102.964 360.398 103.305 361.664C103.486 362.343 103.601 363.039 103.648 363.741C104.274 367.393 104.321 367.468 108.054 366.878C118.22 365.272 128.341 363.42 138.417 361.32C139.267 361.143 140.144 360.681 140.983 361.378" fill="#BFBBBC"/>
<path d="M48.0611 167.062C47.0091 162.062 46.7611 156.943 45.9081 151.914C45.8814 151.47 45.8554 151.026 45.8301 150.584C45.9251 150.485 46.0493 150.419 46.1845 150.396C46.3197 150.373 46.4587 150.394 46.5811 150.456C47.3361 151.945 47.1391 153.602 47.3601 155.179C47.8251 158.489 50.6841 158.554 52.3601 161.479C59.4421 173.814 70.6381 185.009 79.0541 196.368C80.1961 197.909 81.9031 204.268 83.0541 205.805C83.3001 206.299 79.4241 205.825 79.0541 206.395C78.4201 207.823 77.0541 206.284 75.8591 206.419C73.1224 206.587 70.3777 206.579 67.6421 206.395C64.2953 206.371 60.951 206.583 57.6341 207.029C57.1624 207.023 56.6928 206.964 56.2341 206.855C54.1131 205.864 53.6001 204.655 54.6401 202.581C55.0086 202.031 55.2024 201.382 55.1961 200.721C55.1899 200.059 54.9839 199.414 54.6051 198.872C54.0369 198.056 53.6894 197.108 53.5963 196.118C53.5033 195.129 53.6679 194.132 54.0741 193.226C54.4398 192.208 54.5867 191.125 54.505 190.047C54.4233 188.969 54.115 187.921 53.6001 186.971C52.0185 184.09 51.0157 180.927 50.6481 177.662C50.1756 174.044 49.308 170.49 48.0611 167.062Z" fill="#08599C"/>
<path d="M82.236 63.6836C82.0637 64.2735 81.685 64.7818 81.169 65.1156C79.36 65.3306 77.976 64.1776 76.55 63.4466C74.168 62.2256 76.01 63.3686 73.459 63.1176C72.692 63.0416 70.198 61.7736 71.881 62.0316C76.123 62.6826 77.613 63.8526 78.821 67.9196C79.254 69.3726 79.045 70.5976 77.637 71.2966C74.515 72.8456 73.589 75.2706 74.323 78.5966C74.5296 79.1949 74.6036 79.831 74.5397 80.4608C74.4758 81.0906 74.2756 81.6989 73.953 82.2436C73.5042 82.4959 72.9904 82.6084 72.4772 82.5667C71.9641 82.5251 71.4751 82.331 71.073 82.0096C70.368 80.9976 70.373 79.7466 69.962 78.6326C69.6853 77.5863 69.0318 76.6792 68.127 76.0856C65.614 74.6286 64.717 74.8856 63.272 77.4236C62.3602 79.0412 61.856 80.8565 61.803 82.7126C61.7384 84.999 60.9817 87.2121 59.633 89.0596C59.2 89.6486 58.809 90.4736 57.795 90.0386C56.495 85.1386 53.652 80.9386 51.6 76.3816C49 70.5996 50.876 65.4036 54.3 60.5696C54.832 59.8186 55.292 58.9516 56.265 58.6306C58.847 58.8536 61.514 57.8586 64.023 59.1746C66.704 58.2046 75.083 58.2286 75.083 58.2286C75.083 58.2286 78.35 61.6536 81.344 62.3286C81.4921 62.3572 81.633 62.4152 81.7583 62.4991C81.8837 62.583 81.9911 62.6911 82.0741 62.817C82.1571 62.943 82.2141 63.0843 82.2417 63.2326C82.2693 63.3808 82.2671 63.5332 82.235 63.6806" fill="black"/>
<path d="M57.7948 90.0364C58.4838 90.1764 58.7267 89.6364 59.0247 89.2084C60.5009 87.3029 61.3091 84.9647 61.3247 82.5544C61.2417 79.8894 62.4848 77.7354 63.7928 75.5924C64.0108 75.1911 64.3662 74.8818 64.7937 74.7211C65.2212 74.5604 65.6923 74.5591 66.1208 74.7174C68.1958 75.3304 70.0498 76.1994 70.4888 78.6584C70.6668 79.6584 70.9378 80.6344 71.1658 81.6224C71.9848 83.3974 71.2658 85.1664 71.1258 86.9354C71.0948 87.3464 70.9777 87.8104 70.4897 87.9234C69.9028 88.0594 69.6288 87.6094 69.4028 87.1814C69.2368 86.8664 69.0968 86.5324 69.1138 86.5814C69.3848 87.1884 69.5517 88.2534 69.9277 89.2564C70.5729 90.9785 71.7147 92.4703 73.2085 93.5429C74.7023 94.6154 76.4808 95.2205 78.3188 95.2814C79.5188 95.3194 80.7188 95.2634 81.9188 95.3044C82.5588 95.3274 83.2658 95.2044 83.7188 95.8584C82.0368 96.4584 80.3038 96.0534 78.5968 96.0914C77.6818 96.1114 77.1578 96.2614 77.1338 97.3404C77.0938 98.9994 75.6787 100.013 75.0337 101.401C74.0842 103.574 73.3445 105.832 72.8247 108.145C71.8967 108.483 71.2247 107.88 70.5247 107.477C67.6867 105.846 64.7457 104.401 61.9487 102.703C59.9707 101.503 57.6767 101.327 55.5938 100.491C56.8277 97.7014 58.1667 94.9424 58.1167 91.7764C58.1598 91.1783 58.0475 90.5793 57.7908 90.0374" fill="#F8C6A9"/>
<path d="M87.9054 83.2688C87.0354 83.8828 85.6894 84.1688 85.8564 85.6878C85.8444 86.0458 85.8304 86.4048 85.8304 86.7628C85.744 86.843 85.6446 86.9079 85.5364 86.9548C83.1054 87.7608 83.1444 87.7608 83.4364 90.2318C83.5634 91.3068 83.8574 92.0748 85.1244 92.0318C85.2748 92.0313 85.4213 92.0799 85.5416 92.1701C85.662 92.2603 85.7497 92.3873 85.7914 92.5318C86.0074 94.2088 85.7644 95.5908 83.7174 95.8598C82.1554 95.8338 80.6074 95.7598 79.0454 95.7828C77.5813 95.8063 76.1284 95.5237 74.7799 94.953C73.4313 94.3823 72.2169 93.5361 71.2144 92.4688C69.3064 90.5998 69.0754 88.0398 68.5144 85.6208C68.4364 85.2748 68.4364 85.0318 68.8604 85.0208C69.2064 84.9948 69.4234 85.0848 69.3464 85.5208C69.1914 86.4428 69.7304 87.0828 70.4604 87.9018C70.8606 85.8331 71.0947 83.7358 71.1604 81.6298C72.0054 82.2298 72.9784 81.9878 73.9124 82.0298C74.0322 80.4781 73.9589 78.9175 73.6944 77.3838C73.4357 76.1728 73.5933 74.91 74.1415 73.7997C74.6898 72.6894 75.5967 71.7966 76.7154 71.2658C79.0454 69.9478 79.0094 69.1168 78.2044 66.5568C77.2044 63.4078 73.9174 62.2668 71.7624 62.2168C75.0592 62.5556 78.2565 63.5428 81.1704 65.1218C82.5844 67.636 83.6604 70.3259 84.3704 73.1218C83.3464 73.6338 82.1174 73.0588 81.3114 73.6988C82.2334 73.4548 83.3584 73.0448 84.3324 74.0688C83.6664 75.3998 84.4084 76.3598 85.2274 77.2558C86.2014 78.3058 87.2374 79.3038 88.2354 80.3278C89.3114 81.4418 89.1834 82.3628 87.9034 83.2718" fill="#F6C6A9"/>
<path d="M140.98 361.373C133.035 362.885 125.097 364.431 117.142 365.89C113.606 366.539 110.042 367.055 106.48 367.553C103.934 367.909 103.923 367.853 103.371 365.253C103.285 364.846 103.251 364.429 103.193 364.017C103.709 363.186 104.593 363.176 105.409 363.029C109.959 362.207 114.549 361.649 119.125 360.995C119.683 360.943 120.216 360.738 120.665 360.402C121.114 360.067 121.462 359.615 121.67 359.095C122.69 357.077 123.144 354.757 124.779 353.057L125.151 352.725C125.29 352.599 125.458 352.509 125.639 352.465C125.821 352.42 126.011 352.421 126.192 352.468C126.979 352.702 127.869 352.698 128.442 353.431C128.46 353.565 128.437 353.702 128.375 353.822C128.313 353.943 128.216 354.042 128.096 354.106C126.35 354.841 126.278 356.684 125.537 358.066C125.168 358.752 124.258 359.547 124.85 360.293C125.338 360.906 126.321 360.317 127.072 360.228C131.708 359.594 136.304 358.699 140.839 357.548C142.027 357.266 142.317 356.738 141.857 355.678C141.873 355.508 141.937 355.347 142.041 355.213C143.678 355.777 144.619 355.753 146.827 355.1C146.94 355.067 147.059 355.064 147.173 355.09C147.287 355.117 147.393 355.171 147.48 355.25C148.371 357.675 148.286 357.865 146.19 359.091C144.494 359.942 142.756 360.705 140.981 361.378" fill="#253237"/>
<path d="M38.6393 358.147C38.7699 358.915 38.7635 359.699 38.6203 360.464C37.8533 362.407 38.9113 362.938 40.4573 363.381C40.9233 363.514 42.1213 363.281 41.7103 364.345C41.3963 365.159 40.8973 366.196 39.6163 365.878C37.4607 365.34 35.4195 364.418 33.5903 363.157C31.6193 361.81 29.7323 360.339 27.8083 358.922C21.3083 353.729 14.7513 348.604 8.42626 343.195C8.15326 342.961 7.87726 342.732 7.60826 342.495C4.83426 340.044 4.83426 340.044 7.29126 337.224C8.14226 336.789 8.63226 337.452 9.15626 337.883C12.5123 340.654 15.8743 343.421 19.0463 346.405C19.4208 346.825 19.9095 347.127 20.4527 347.274C20.9958 347.421 21.57 347.407 22.1053 347.233C24.2313 346.647 26.3883 346.171 28.5623 345.785C28.9011 345.721 29.2478 345.709 29.5903 345.749C29.9007 345.886 30.1474 346.137 30.2803 346.449C30.4111 346.747 30.5618 347.035 30.7313 347.312C31.6403 348.784 32.2753 350.403 33.1773 351.881C33.3773 352.269 33.5773 352.658 33.2313 353.07C31.7723 353.116 31.6313 351.817 31.1633 350.94C29.8913 348.561 29.9273 348.54 27.3403 349.175C26.1773 349.462 25.0093 349.734 23.8523 350.048C23.7002 350.098 23.572 350.202 23.4923 350.341C24.9588 352.043 26.6214 353.566 28.4453 354.878C30.8889 356.91 33.437 358.812 36.0793 360.578C36.4603 360.83 36.8653 361.269 37.3653 360.901C37.7843 360.593 37.7493 360.06 37.8033 359.581C37.9273 358.481 36.7683 357.831 36.8263 356.757C36.9113 356.656 37.0233 356.58 37.1493 356.54C37.2753 356.5 37.4102 356.496 37.5383 356.529C38.1743 356.886 38.8083 357.244 38.6383 358.148" fill="#253237"/>
<path d="M28.7951 346.202C26.5811 346.695 24.3451 347.108 22.1601 347.71C21.6124 347.911 21.0175 347.946 20.4501 347.811C19.8826 347.675 19.3678 347.375 18.9701 346.948C15.6541 343.927 12.2021 341.054 8.78906 338.138C8.34506 337.758 7.95706 337.254 7.28906 337.222C9.24306 334.776 11.2171 332.353 14.0411 330.822C14.1501 330.763 14.1471 330.498 14.1961 330.329C15.566 331.348 16.5702 332.782 17.0591 334.418C17.6671 336.911 19.9041 337.896 22.2311 338.289C24.2981 338.638 26.1311 339.162 27.1311 341.206C27.2011 341.265 27.2711 341.323 27.3411 341.379C27.9121 342.367 28.3741 343.412 28.8531 344.444C29.1141 345.007 29.5381 345.644 28.7981 346.203" fill="#B0BDC5"/>
<path d="M82.2376 63.6851C81.3716 62.2961 79.6186 62.4981 78.4106 61.5061C76.3856 59.8451 73.5216 60.2061 71.0576 59.6801C69.9816 59.4481 68.3416 59.0901 67.1206 59.6681C65.9206 60.2351 66.6276 59.0681 66.2536 58.9561C65.1756 59.9221 65.1756 59.9221 63.0476 58.9961C62.1106 60.2521 60.6826 57.4701 59.8256 59.3891C58.7256 58.7401 57.3486 59.3721 56.2676 58.6291C57.7877 57.2574 59.7063 56.407 61.7436 56.2021C64.4154 56.8776 67.1995 56.9826 69.9146 56.5101C70.4754 56.4738 71.033 56.6194 71.5046 56.9251C72.7346 58.4881 74.3936 57.7351 75.7486 57.5821C76.8646 57.4571 77.5226 58.1271 78.4136 58.3231C80.3006 58.7361 82.2496 59.2051 83.2796 61.1581C83.2471 62.0983 82.8772 62.9954 82.2376 63.6851Z" fill="#292929"/>
<path d="M55.5987 100.493C58.3237 100.4 60.6637 101.504 62.9687 102.788C66.2367 104.608 69.5397 106.363 72.8297 108.146C73.7677 108.773 74.9387 109.179 75.0977 110.546C74.226 110.703 73.3272 110.52 72.5867 110.034C68.0683 107.882 63.6864 105.455 59.4657 102.766C57.4067 101.436 55.1727 102.095 53.0137 101.898C53.2507 100.28 54.8557 101.181 55.5997 100.498" fill="#10385F"/>
<path d="M83.2782 61.1577C81.9932 61.2097 81.8422 59.4937 80.5342 59.4477C79.7632 59.4207 79.0172 58.8407 78.2432 58.7937C77.2842 58.7357 77.2772 58.8637 77.0162 57.8607C75.7991 58.2775 74.4869 58.3303 73.2402 58.0127C72.5912 57.7327 72.9402 58.2717 72.8152 58.3887C72.6152 58.5817 72.4772 58.9747 72.1762 58.5667C71.8252 58.0907 71.8502 57.6717 70.8222 57.6237C69.0862 57.5407 68.6722 57.1067 67.3902 57.5237C67.2813 57.5683 67.1762 57.6218 67.0762 57.6837C66.5532 55.9367 65.4032 57.4227 64.5832 57.2837C63.5162 57.1057 62.7352 56.4137 61.7422 56.1967C68.3852 55.2325 75.1631 55.9064 81.4862 58.1597C83.0912 58.7167 83.7232 59.5327 83.2782 61.1597" fill="black"/>
<path d="M124.15 349.22C122.96 352.031 122.958 352.036 120.068 351.23C119.28 351.01 118.503 350.746 117.59 350.463C118.417 349.632 119.13 348.695 119.711 347.677L124.15 349.221" fill="#B0BDC4"/>
<path d="M85.7914 92.5319C85.0524 92.0019 83.8614 93.2369 83.4144 92.1039C82.8523 90.5464 82.6068 88.8924 82.6924 87.2389C82.7064 86.6889 83.2924 86.7789 83.6924 86.7689C84.4044 86.7499 85.1174 86.7589 85.8284 86.7559C85.188 88.6255 85.175 90.6541 85.7914 92.5319Z" fill="#F6C6A9"/>
<path d="M147.481 355.246C146.598 355.278 146.013 355.937 145.335 356.346C144.212 357.026 143.373 357.177 142.79 355.746C142.69 355.505 142.38 355.352 142.167 355.158C141.354 355.058 140.71 354.758 140.611 353.829C141.362 353.721 142.116 353.615 142.868 353.505C144.726 353.235 146.394 353.465 147.482 355.242" fill="#AFBCC3"/>
<path d="M127.992 353.828L128.358 353.502C128.436 353.402 128.538 353.324 128.655 353.276C128.772 353.228 128.899 353.211 129.024 353.227C129.774 353.338 130.51 353.53 131.218 353.799C131.126 353.457 131.14 353.096 131.257 352.762C131.373 352.428 131.588 352.137 131.873 351.928C132.085 351.74 132.335 351.366 132.498 351.401C132.954 351.501 133.046 351.939 133.034 352.372C133.167 352.791 132.974 353.185 132.934 353.663C134.199 353.852 135.512 353.49 136.752 353.947C137.085 354.154 137.493 354.305 137.407 354.825C135.91 355.359 134.321 355.587 132.735 355.497C131.148 355.407 129.595 355 128.168 354.3C127.985 354.217 128.012 354 127.988 353.828" fill="#47535A"/>
<path d="M136.694 354.229H132.105L133.037 352.374C135.43 352.958 137.851 353.42 140.29 353.76C139.785 354.149 139.186 354.397 138.554 354.479C137.921 354.562 137.278 354.475 136.69 354.228" fill="#B1BEC5"/>
<path d="M129.102 353.452L128.358 353.506C127.672 353.192 126.837 353.281 126.238 352.728C126.246 352.645 126.253 352.562 126.26 352.478C126.616 351.548 127.086 350.667 127.66 349.854C128.126 350.417 128.516 351.106 129.433 350.916C129.798 351.73 129.224 352.462 129.233 353.247C129.192 353.316 129.149 353.384 129.105 353.447" fill="#ACB8BF"/>
<path d="M126.239 352.731L125.15 352.721L123.838 352.178C124.196 351.14 125.007 350.278 125.138 349.132C125.498 349.61 125.985 349.979 126.543 350.196C127.143 351.142 126.387 351.909 126.204 352.751L126.239 352.731Z" fill="#AFBCC3"/>
<path d="M131.874 351.929C131.692 352.643 131.512 353.356 131.31 354.152C130.531 354.087 129.776 353.848 129.102 353.452L129.088 353.475C129.516 352.711 129.407 351.602 130.505 351.275C130.829 351.769 131.468 351.613 131.875 351.935" fill="#A7B3BB"/>
<path d="M84.3385 74.0627C82.8276 73.7514 81.2599 73.8663 79.8105 74.3947C80.3579 73.7519 81.0843 73.2866 81.8971 73.0581C82.71 72.8296 83.5724 72.8483 84.3745 73.1117C84.4631 73.2561 84.5069 73.4234 84.5005 73.5926C84.4941 73.7619 84.4377 73.9254 84.3385 74.0627Z" fill="#282622"/>
<path d="M136.693 354.228L140.293 353.76C140.396 353.796 140.504 353.82 140.612 353.83L142.17 355.16C142.098 355.232 142.027 355.303 141.956 355.376C140.483 354.908 138.879 355.162 137.429 354.565L136.693 354.228Z" fill="#253237"/>
<path d="M126.204 352.75C125.519 351.793 126.818 351.099 126.543 350.197C126.593 350.101 126.662 350.015 126.746 349.946C126.829 349.876 126.925 349.824 127.029 349.792C127.133 349.76 127.242 349.749 127.35 349.76C127.458 349.77 127.563 349.802 127.659 349.854C127.485 350.977 127.335 352.109 126.204 352.754" fill="#253237"/>
<path d="M130.506 351.27C129.959 351.957 129.977 353.006 129.089 353.47C128.279 352.493 129.333 351.77 129.432 350.911C130.05 350.243 130.279 350.748 130.506 351.266" fill="#47535A"/>
<path d="M102.416 358.107C102.348 357.491 102.703 356.785 102.033 356.297C103.667 355.964 105.269 355.487 106.819 354.871C107.191 354.681 107.613 354.611 108.026 354.671C109.561 354.965 111.146 354.849 112.622 354.338C114.098 353.826 115.414 352.935 116.437 351.754C116.665 351.465 116.983 351.26 117.341 351.173C117.699 351.086 118.076 351.121 118.411 351.273C120.518 351.921 122.654 352.473 124.78 353.057C123.963 355.695 122.543 358.071 121.507 360.613C121.182 361.413 120.52 361.334 119.874 361.426C114.302 362.22 108.701 362.811 103.195 364.019C102.916 362.053 102.311 360.129 102.417 358.112" fill="#B0BDC5"/>
<path d="M31.0925 341.585C30.8365 342.55 31.6795 342.833 32.1765 343.331C31.8155 343.831 31.1965 343.631 30.7765 343.863C30.4925 343.855 30.7765 344.163 30.7095 343.936C30.6975 343.896 30.7535 343.892 30.8725 343.881C31.2245 343.845 31.5725 343.798 31.8235 344.138L32.5235 345.522C32.2582 345.941 31.8758 346.272 31.4237 346.476C30.9716 346.679 30.4698 346.745 29.9805 346.665C29.8372 346.411 29.6945 346.156 29.5525 345.9C28.5916 344.409 27.7718 342.831 27.1035 341.187L27.1305 341.205C27.1885 340.757 27.2305 340.376 27.8615 340.753C28.8226 341.368 29.954 341.659 31.0925 341.585Z" fill="#ACB9C0"/>
<path d="M137.424 354.566C139 354.466 140.648 353.952 141.951 355.377C143.29 357.312 143.291 357.315 141.088 357.905C136.007 359.262 130.839 360.268 125.621 360.915C124.974 360.955 124.325 360.958 123.678 360.925C124.693 358.684 125.688 356.525 126.644 354.351C126.944 353.676 127.454 353.775 127.99 353.83C130.999 354.972 134.273 355.228 137.423 354.565" fill="#B0BDC5"/>
<path d="M36.832 356.685C38.019 357.975 38.676 359.379 38.001 361.185C37.759 361.83 37.568 362.118 36.891 361.665C31.6552 358.252 26.7653 354.337 22.291 349.973C24.806 349.373 27.058 348.912 29.265 348.287C30.225 348.016 30.371 348.602 30.697 349.164C31.488 350.521 31.773 352.208 33.258 353.114C33.33 353.152 33.401 353.191 33.474 353.228C34.5173 354.348 35.6007 355.43 36.724 356.473C36.761 356.545 36.798 356.618 36.834 356.691" fill="#B0BDC5"/>
<path d="M32.8685 346.589C33.1327 347.026 33.2631 347.53 33.2435 348.04C32.6435 348.94 33.6235 348.807 33.9435 349.105C34.0286 349.4 34.1736 349.675 34.3694 349.912C34.5651 350.148 34.8076 350.342 35.0815 350.481C34.6365 351.249 33.5665 351.126 33.1055 351.872C33.0349 351.914 32.9632 351.955 32.8905 351.995C31.6575 350.636 31.2165 348.834 30.2695 347.314C30.3867 347.09 30.5485 346.892 30.7451 346.733C30.9416 346.574 31.1687 346.457 31.4124 346.389C31.656 346.32 31.911 346.303 32.1617 346.337C32.4123 346.372 32.6532 346.457 32.8695 346.588" fill="#ACB9C0"/>
<path d="M35.0711 351.347C35.5291 353.317 36.8321 354.908 37.5081 356.78L36.8311 356.68L36.8591 356.708C35.5162 355.637 34.2982 354.418 33.2281 353.075L33.2561 353.103C33.1334 352.732 33.0114 352.361 32.8901 351.992L32.8711 352.023C33.4871 351.414 34.1341 350.911 35.0711 351.342" fill="#B0BCC2"/>
<path d="M32.8695 346.589L30.2695 347.315L29.9805 346.666C30.7045 346.009 31.7165 345.991 32.5235 345.522C33.4525 345.614 33.4555 346.006 32.8695 346.589Z" fill="#333F45"/>
<path d="M27.1021 341.187C28.3181 342.55 28.8091 344.287 29.5511 345.901L28.7961 346.201C29.0881 344.968 28.0631 344.176 27.7681 343.138C27.5821 342.478 26.9801 341.955 27.1021 341.186" fill="#1B364B"/>
<path d="M31.826 344.139C30.97 344.039 30.171 344.828 29.166 344.263C29.5437 343.86 30.0197 343.562 30.5473 343.399C31.0748 343.236 31.6358 343.213 32.175 343.332C32.3 343.704 32.062 343.923 31.826 344.139Z" fill="#29373D"/>
<path d="M35.0708 351.346L32.8708 352.027C32.8128 350.376 34.2458 350.855 35.0798 350.481C35.5568 350.775 35.3798 351.061 35.0708 351.346Z" fill="#38454A"/>
<path d="M33.9417 349.107C33.8257 349.115 33.7077 349.133 33.5907 349.129C32.9907 349.111 32.1587 349.96 31.8747 349.229C31.4967 348.259 32.9527 348.671 33.2417 348.043C33.9137 348.11 34.9057 347.965 33.9417 349.107Z" fill="#3A454D"/>
<path d="M33.2324 353.081C34.6178 354.103 35.8418 355.328 36.8634 356.714C35.2989 355.918 34.0274 354.646 33.2324 353.081Z" fill="#253237"/>
<path d="M38.4333 107.855C38.2787 107.334 19.1098 114.416 15.6414 122.584C12.1729 130.751 9.01282 178.626 8.93666 179.311C8.91772 179.852 9.0203 180.39 9.23686 180.886C9.78243 182.475 10.8268 183.846 12.2144 184.794C13.7551 185.904 15.1588 187.202 16.6263 188.413C19.7279 190.87 23.3067 192.655 27.1353 193.654C29.0175 194.177 31.0026 194.209 32.9005 193.746C36.7137 192.875 40.2655 191.111 43.2636 188.599C45.7233 186.645 47.6869 184.138 48.9944 181.282C49.2489 180.754 49.3548 180.166 49.3007 179.583C49.15 177.407 49.443 175.224 50.1621 173.166C51.0905 170.321 52.2732 167.565 53.6961 164.933C55.9548 160.693 58.4746 156.597 61.2408 152.67C61.9932 151.593 62.7086 150.486 63.5267 149.46C63.7444 149.233 63.8691 148.933 63.8764 148.619C63.8837 148.304 63.7729 147.999 63.566 147.762C62.6771 146.348 53.848 149.029 53.3322 148.824C52.9248 149.075 45.2799 115.984 48.4686 109.213C48.9991 108.058 49.826 107.064 50.8653 106.332C52.4465 105.115 54.2165 104.166 56.105 103.522C58.3772 102.821 60.8248 102.949 63.0115 103.883C64.936 104.701 66.6958 105.862 68.2046 107.309C70.5864 109.606 72.781 112.089 74.7676 114.736C76.0513 116.377 77.3313 118.023 78.6314 119.65C78.8446 120.015 79.1363 120.327 79.4852 120.565C79.6907 120.54 79.7227 120.481 79.7082 120.362C79.3257 116.155 78.0696 112.073 76.0202 108.379C74.6689 105.946 72.7312 103.89 70.3831 102.397C68.035 100.903 65.351 100.021 62.575 99.8283C59.2286 99.5481 55.8589 99.8494 52.6153 100.719C48.2604 101.812 44.1113 103.603 40.3291 106.023" fill="#1D1D1D"/>
<path d="M22.2332 132.141C22.3177 132.181 22.4037 132.258 22.4729 132.247C22.948 132.17 23.4353 132.248 23.8622 132.471C24.289 132.693 24.6324 133.048 24.841 133.482C26.0503 135.368 26.5775 137.611 26.3347 139.838C26.3122 139.972 26.2796 140.104 26.2371 140.233C26.185 140.711 25.9592 141.154 25.6025 141.477C25.2457 141.801 24.7829 141.982 24.3015 141.987C23.757 142.008 23.7547 142.063 23.7513 142.544C23.7494 142.816 23.7849 143.089 23.7697 143.359C23.7978 143.813 23.7265 144.267 23.5609 144.691C23.3952 145.114 23.1391 145.497 22.8104 145.811C22.6834 145.908 22.5899 146.043 22.5428 146.196C22.4957 146.349 22.4973 146.512 22.5475 146.664C22.5834 146.793 22.6092 146.978 22.6987 147.027C22.88 147.124 23.0137 146.966 23.1377 146.836C23.4446 146.512 23.6487 145.885 24.0556 145.917C24.5839 145.953 24.6294 146.643 24.8377 147.068C26.1372 149.709 27.4089 152.36 28.6911 155.008C28.848 155.334 29.0098 155.659 29.1563 155.99C29.1853 156.039 29.2028 156.093 29.2077 156.15C29.2126 156.206 29.2046 156.263 29.1844 156.315C29.1642 156.368 29.1323 156.415 29.0911 156.454C29.0499 156.493 29.0004 156.521 28.9465 156.538C28.6995 156.652 28.4613 156.788 28.2063 156.878C27.3437 157.358 26.4101 157.698 25.4405 157.885C25.3703 157.888 25.2565 158.077 25.2487 158.186C25.2347 158.457 25.2421 158.729 25.2709 158.998C25.3358 159.765 25.3831 160.536 25.4849 161.299C25.7769 163.685 25.7435 166.099 25.3857 168.475C25.2686 169.327 25.2027 170.185 25.1244 171.041C25.1049 171.251 25.0507 171.482 25.246 171.654C25.2946 171.648 25.3555 171.659 25.382 171.637C27.1301 170.121 28.6182 168.329 29.7873 166.332C30.1268 165.691 30.4933 165.066 30.8404 164.43C30.9759 164.18 31.5555 162.869 31.3839 162.604C31.177 162.322 31.0363 161.997 30.9723 161.653C30.9082 161.309 30.9225 160.955 31.014 160.618C31.1985 159.749 30.9849 160.38 31.1152 160.416C31.619 160.555 33.3114 161.817 33.8077 161.511C34.2181 161.259 34.0478 158.978 34.1066 158.497C34.508 155.217 39.2274 111.172 38.2688 108.781C38.4046 108.495 38.5237 108.202 38.6255 107.903C38.6367 107.872 38.6397 107.839 38.6341 107.807C38.6286 107.775 38.6147 107.745 38.5939 107.72C38.5731 107.694 38.5461 107.675 38.5155 107.664C38.4849 107.652 38.4519 107.649 38.4196 107.654C38.2412 107.683 38.0692 107.743 37.9114 107.831C36.791 108.421 35.6679 109.007 34.5571 109.618C33.523 110.186 32.5919 110.925 31.8029 111.803C31.5298 112.106 31.2305 112.385 30.9529 112.684C29.8645 113.909 28.4974 114.854 26.967 115.439C26.4214 115.599 25.9325 115.911 25.5569 116.338C25.1813 116.764 24.9345 117.289 24.8451 117.851C24.7837 118.115 24.6876 118.37 24.5594 118.609C23.5371 120.84 23.01 123.265 23.0144 125.719C23.054 127.487 22.8358 129.251 22.3667 130.955C22.1874 131.324 22.1396 131.743 22.2332 132.141Z" fill="#00ACF3"/>
<path d="M47.2302 116.747C46.9306 117.646 46.6163 118.541 46.3336 119.447C45.0058 123.634 44.0715 127.936 43.5427 132.296C43.1436 135.811 43.295 139.367 43.9915 142.836C44.4492 145.143 44.8105 147.471 45.1491 149.802C45.3647 151.6 45.4812 153.409 45.4981 155.221C45.5493 156.713 45.6479 158.205 45.7451 159.694C45.7542 159.85 45.7095 160.093 45.9688 160.121C46.1798 160.141 46.2719 159.956 46.3682 159.813C47.2181 158.529 48.0903 157.255 48.9166 155.951C51.9945 151.077 51.7179 152.123 52.6937 146.711C52.9971 146.097 50.9873 133.823 49.275 130.168C47.9666 127.372 48.7306 123.075 48.0347 120.065C47.8716 119.361 47.7782 118.641 47.6631 117.926C47.6015 117.538 47.5675 117.147 47.5198 116.759L47.2302 116.747Z" fill="#FF6664"/>
<path d="M12.1238 145.985C11.5606 153.149 10.9824 160.313 10.4486 167.478C10.2887 169.045 10.2633 170.623 10.3727 172.194C10.7032 172.333 10.7874 172.075 10.9171 171.925C11.1489 171.647 11.3494 171.343 11.5928 171.078C11.6202 171.041 11.6571 171.013 11.6994 170.996C11.7418 170.98 11.7879 170.975 11.8328 170.983C11.8776 170.991 11.9194 171.011 11.9536 171.041C11.9877 171.071 12.0129 171.11 12.0263 171.153C12.2193 171.56 12.3935 171.978 12.5629 172.397C13.3616 174.365 14.1543 176.333 14.9554 178.303C15.1015 178.672 15.2881 179.027 15.455 179.385C15.9818 179.183 16.4756 178.904 16.9201 178.557C18.143 177.784 19.3469 176.988 20.5776 176.221C21.4535 175.674 21.3061 175.59 21.1284 174.79C20.7747 173.109 20.2582 171.467 19.5861 169.886C18.056 166.509 16.7028 163.056 15.5319 159.539C14.5989 156.751 13.8256 153.913 13.2156 151.037C12.8245 149.682 12.8523 148.267 12.5881 146.895C12.5267 146.575 12.7843 146.023 12.1238 145.985Z" fill="#00ACF3"/>
<path d="M77.0839 117.502C77.0839 117.502 61.9887 146.774 60.3841 147.679C58.7795 148.584 52.5548 166.355 52.5548 166.355C52.5548 166.355 81.2973 122.532 79.6805 120.457C78.895 119.405 78.0267 118.416 77.0839 117.502Z" fill="#1D1D1D"/>
<path d="M49.0778 150.528L48.3858 150.579C46.2558 150.456 47.6678 148.893 47.3508 148.033C54.0068 147.814 60.6448 148.504 67.2988 148.421C67.8528 148.413 68.8108 148.105 68.6708 149.243C68.5758 150.012 68.3048 150.954 67.2918 150.733C66.5288 150.567 66.2118 151.109 65.6738 151.267C61.0568 150.983 56.4348 151.194 51.8158 151.122C50.8592 151.279 49.8787 151.067 49.0728 150.528" fill="#11385F"/>
<path d="M89.9135 200.497C91.9265 201.564 93.0365 203.415 94.0885 205.315C92.6684 208.159 90.3426 210.449 87.4775 211.826C85.6175 212.696 84.9895 212.378 84.2225 210.482C83.6658 209.109 83.1125 207.734 82.5625 206.358C82.6391 205.783 82.939 205.261 83.3973 204.906C83.8556 204.55 84.4355 204.389 85.0115 204.458C85.6762 204.503 86.3358 204.315 86.8777 203.928C87.4195 203.54 87.81 202.977 87.9825 202.333C88.3075 201.426 88.7245 200.533 89.9135 200.498" fill="#F8C6A9"/>
<path d="M89.9132 200.497C89.0377 201.083 88.4164 201.978 88.1742 203.003C88.0632 203.6 87.726 204.131 87.2329 204.485C86.7399 204.839 86.1291 204.989 85.5282 204.903C84.947 204.84 84.3598 204.943 83.8348 205.2C83.3098 205.457 82.8685 205.858 82.5622 206.356C82.1502 205.956 82.2862 205.186 81.6162 204.962C81.4782 204.55 81.3392 204.137 81.1992 203.723C81.5912 202.732 82.2332 201.875 82.6502 200.883C82.8433 200.337 83.1928 199.86 83.6552 199.512C84.1176 199.163 84.6723 198.958 85.2502 198.923C86.3096 198.839 87.3604 198.669 88.3922 198.414C88.814 198.585 89.1797 198.87 89.4478 199.238C89.7158 199.606 89.8757 200.041 89.9092 200.495" fill="#373737"/>
<path d="M88.3977 198.418C88.0701 198.787 87.6543 199.067 87.1891 199.231C86.724 199.396 86.2246 199.44 85.7377 199.36C85.3947 199.293 85.0413 199.3 84.7012 199.38C84.361 199.461 84.0421 199.613 83.7656 199.827C83.4891 200.041 83.2615 200.312 83.0981 200.62C82.9346 200.929 82.839 201.27 82.8177 201.619C82.7633 202.084 82.584 202.525 82.2987 202.896C82.0135 203.267 81.633 203.554 81.1977 203.727C72.6417 192.15 63.3087 181.153 55.3467 169.127C51.6037 163.476 48.9467 157.477 49.0747 150.527C54.2747 150.28 59.4747 150.492 64.6697 150.517C65.2247 150.517 65.5917 150.678 65.6757 151.266C65.6027 153.123 65.5427 154.98 65.4457 156.836C65.4302 157.072 65.4649 157.309 65.5476 157.531C65.6304 157.753 65.7592 157.955 65.9257 158.124C69.7602 162.668 72.9564 167.715 75.4257 173.124C79.5447 181.659 83.4547 190.3 88.3967 198.412" fill="#F8C6A9"/>
<path d="M52.3979 105.63C38.7299 113.352 47.3639 147.986 47.3639 147.986L68.3119 148.563L66.3049 128.797C66.3049 128.797 66.0669 97.9079 52.3979 105.63Z" fill="#08599C"/>
<path d="M373.293 67.5224C373.12 68.1124 372.742 68.6207 372.226 68.9544C370.417 69.1694 369.033 68.0164 367.607 67.2854C365.225 66.0644 367.067 67.2074 364.516 66.9564C363.749 66.8804 361.255 65.6124 362.938 65.8704C367.18 66.5214 368.67 67.6914 369.878 71.7584C370.311 73.2114 370.102 74.4364 368.694 75.1354C365.572 76.6844 364.646 79.1094 365.38 82.4354C365.586 83.0338 365.66 83.6699 365.596 84.2997C365.532 84.9295 365.332 85.5378 365.01 86.0824C364.561 86.3348 364.047 86.4473 363.534 86.4056C363.021 86.3639 362.532 86.1699 362.13 85.8484C361.425 84.8364 361.43 83.5854 361.019 82.4714C360.742 81.4252 360.088 80.5181 359.184 79.9244C356.671 78.4674 355.774 78.7244 354.329 81.2624C353.417 82.88 352.913 84.6953 352.86 86.5514C352.795 88.8379 352.038 91.051 350.69 92.8984C350.257 93.4874 349.866 94.3124 348.852 93.8774C347.552 88.9774 344.709 84.7774 342.657 80.2204C340.057 74.4384 341.933 69.2424 345.357 64.4084C345.889 63.6574 346.349 62.7904 347.322 62.4694C349.904 62.6924 352.571 61.6974 355.08 63.0134C357.761 62.0434 366.14 62.0674 366.14 62.0674C366.14 62.0674 369.407 65.4924 372.401 66.1674C372.549 66.1961 372.69 66.2541 372.815 66.338C372.94 66.4218 373.048 66.5299 373.131 66.6559C373.214 66.7819 373.271 66.9231 373.298 67.0714C373.326 67.2197 373.324 67.372 373.292 67.5194" fill="black"/>
<path d="M348.851 93.8753C349.54 94.0153 349.783 93.4753 350.081 93.0473C351.558 91.1418 352.366 88.8036 352.381 86.3933C352.298 83.7283 353.541 81.5743 354.849 79.4313C355.067 79.03 355.423 78.7206 355.85 78.56C356.278 78.3993 356.749 78.398 357.177 78.5563C359.252 79.1693 361.106 80.0383 361.545 82.4973C361.723 83.4973 361.994 84.4733 362.222 85.4613C363.041 87.2363 362.322 89.0053 362.182 90.7743C362.151 91.1853 362.034 91.6493 361.546 91.7623C360.959 91.8983 360.685 91.4483 360.459 91.0203C360.293 90.7053 360.153 90.3713 360.17 90.4203C360.441 91.0273 360.608 92.0923 360.984 93.0953C361.63 94.8173 362.771 96.3092 364.265 97.3817C365.759 98.4543 367.537 99.0594 369.375 99.1203C370.575 99.1583 371.775 99.1023 372.975 99.1433C373.615 99.1663 374.322 99.0433 374.775 99.6973C373.093 100.297 371.36 99.8923 369.653 99.9303C368.738 99.9503 368.214 100.1 368.19 101.179C368.15 102.838 366.735 103.852 366.09 105.24C365.141 107.413 364.401 109.671 363.881 111.984C362.953 112.322 362.281 111.719 361.581 111.316C358.743 109.685 355.802 108.24 353.005 106.542C351.027 105.342 348.733 105.166 346.65 104.33C347.884 101.54 349.223 98.7813 349.173 95.6153C349.216 95.0172 349.104 94.4182 348.847 93.8763" fill="#F8C6A9"/>
<path d="M378.96 87.1077C378.09 87.7217 376.744 88.0077 376.911 89.5267C376.899 89.8847 376.885 90.2437 376.885 90.6017C376.799 90.6819 376.699 90.7468 376.591 90.7937C374.16 91.5997 374.199 91.5997 374.491 94.0707C374.618 95.1457 374.912 95.9137 376.179 95.8707C376.33 95.8702 376.476 95.9187 376.596 96.009C376.717 96.0992 376.804 96.2262 376.846 96.3707C377.062 98.0477 376.819 99.4297 374.772 99.6987C373.21 99.6727 371.662 99.5987 370.1 99.6217C368.636 99.6452 367.183 99.3625 365.835 98.7918C364.486 98.2211 363.272 97.375 362.269 96.3077C360.361 94.4387 360.13 91.8787 359.569 89.4597C359.491 89.1137 359.491 88.8707 359.915 88.8597C360.261 88.8337 360.478 88.9237 360.401 89.3597C360.246 90.2817 360.785 90.9217 361.515 91.7407C361.915 89.672 362.149 87.5746 362.215 85.4687C363.06 86.0687 364.033 85.8267 364.967 85.8687C365.087 84.3169 365.014 82.7564 364.749 81.2227C364.49 80.0117 364.648 78.7489 365.196 77.6386C365.744 76.5283 366.651 75.6355 367.77 75.1047C370.1 73.7867 370.064 72.9557 369.259 70.3957C368.259 67.2467 364.972 66.1057 362.817 66.0557C366.114 66.3944 369.311 67.3817 372.225 68.9607C373.639 71.4749 374.715 74.1648 375.425 76.9607C374.401 77.4727 373.172 76.8977 372.366 77.5377C373.288 77.2937 374.413 76.8837 375.387 77.9077C374.721 79.2387 375.463 80.1987 376.282 81.0947C377.256 82.1447 378.292 83.1427 379.29 84.1667C380.366 85.2807 380.238 86.2017 378.958 87.1107" fill="#F6C6A9"/>
<path d="M373.292 67.524C372.426 66.135 370.673 66.337 369.465 65.345C367.44 63.684 364.576 64.045 362.112 63.519C361.036 63.287 359.396 62.929 358.175 63.507C356.975 64.074 357.682 62.907 357.308 62.795C356.23 63.761 356.23 63.761 354.102 62.835C353.165 64.091 351.737 61.309 350.88 63.228C349.78 62.579 348.403 63.211 347.322 62.468C348.842 61.0962 350.761 60.2459 352.798 60.041C355.47 60.7165 358.254 60.8214 360.969 60.349C361.53 60.3127 362.088 60.4582 362.559 60.764C363.789 62.327 365.448 61.574 366.803 61.421C367.919 61.296 368.577 61.966 369.468 62.162C371.355 62.575 373.304 63.044 374.334 64.997C374.302 65.9372 373.932 66.8342 373.292 67.524Z" fill="#292929"/>
<path d="M374.335 64.9966C373.05 65.0486 372.899 63.3326 371.591 63.2866C370.82 63.2596 370.074 62.6796 369.3 62.6326C368.341 62.5746 368.334 62.7026 368.073 61.6996C366.856 62.1164 365.543 62.1692 364.297 61.8516C363.648 61.5716 363.997 62.1106 363.872 62.2276C363.672 62.4206 363.534 62.8136 363.233 62.4056C362.882 61.9296 362.907 61.5106 361.879 61.4626C360.143 61.3796 359.729 60.9456 358.447 61.3626C358.338 61.4071 358.233 61.4606 358.133 61.5226C357.61 59.7756 356.46 61.2616 355.64 61.1226C354.573 60.9446 353.792 60.2526 352.799 60.0356C359.442 59.0714 366.22 59.7452 372.543 61.9986C374.148 62.5556 374.78 63.3716 374.335 64.9986" fill="black"/>
<path d="M376.846 96.3707C376.107 95.8407 374.916 97.0757 374.469 95.9427C373.907 94.3853 373.661 92.7313 373.747 91.0777C373.761 90.5277 374.347 90.6177 374.747 90.6077C375.459 90.5887 376.172 90.5977 376.883 90.5947C376.243 92.4644 376.23 94.493 376.846 96.3707Z" fill="#F6C6A9"/>
<path d="M375.395 77.9016C373.884 77.5903 372.317 77.7052 370.867 78.2336C371.415 77.5907 372.141 77.1254 372.954 76.8969C373.767 76.6685 374.629 76.6871 375.431 76.9506C375.52 77.0949 375.564 77.2623 375.557 77.4315C375.551 77.6007 375.494 77.7643 375.395 77.9016Z" fill="#282622"/>
<path d="M379.795 157.726C380.165 157.155 380.382 156.498 380.427 155.819C380.471 155.139 380.34 154.46 380.047 153.845C377.269 147.296 374.903 140.571 372.384 133.916C371.577 129.659 369.131 126.06 367.638 122.077C363.703 114.526 359.782 106.967 353.295 101.148C351.408 99.4483 349.495 98.0053 346.749 98.7423C345.701 99.1073 346.103 100.217 345.639 100.881C345.589 101.307 345.41 101.707 345.127 102.028C344.844 102.35 344.47 102.577 344.055 102.681C342.843 103.104 341.675 103.568 341.855 105.204C342.106 106.207 342.71 107.085 343.555 107.679C348.63 111.092 349.513 116.032 349.608 121.767C349.813 130.776 348.363 139.746 345.329 148.231C340.696 161.25 337.329 174.586 337.914 188.765C338.202 196.334 337.38 203.904 335.475 211.235C334.915 213.029 334.126 214.743 333.128 216.335C331.858 219.153 331.847 221.764 334.406 223.943C338.623 225.276 378.772 229.105 378.984 227.243C379.539 220.88 380.884 209.865 382.133 203.56C382.097 201.987 381.909 200.421 381.574 198.883C381.174 197.482 381.002 196.027 381.063 194.571C381.495 182.972 379.624 171.426 380.219 159.815C380.322 159.091 380.172 158.353 379.795 157.726Z" fill="#223659"/>
<path d="M379.03 222.368C378.701 223.832 378.549 225.944 378.22 227.408C373.558 228.383 335.06 222.867 333.534 223.933C333.092 224.513 333.519 226.114 333.534 226.826C334.078 228.44 333.508 230.59 335.71 231.419C335.975 231.305 336.191 231.101 336.321 230.844C336.451 230.586 336.487 230.291 336.422 230.01C336.674 230.101 336.605 230.357 336.663 230.528C339.529 239.184 344.516 246.745 349.244 254.404C352.164 258.926 354.831 263.606 357.235 268.422C363.708 282.74 370.294 297.004 376.81 311.296C382.359 323.475 387.638 335.771 393.282 347.913C394.446 349.077 395.924 349.879 397.535 350.22C403.535 350.914 408.666 348.61 413.474 345.43C415.325 344.203 416.705 342.462 416.256 339.936C416.194 338.286 403.712 305.188 402.62 304.469C402.271 303.279 401.685 302.173 400.897 301.216C397.527 294.466 396.48 287.033 394.603 279.841C394.34 278.841 395.081 278.275 395.563 277.596C395.715 277.418 395.825 277.208 395.886 276.982C395.948 276.756 395.958 276.52 395.917 276.289C395.417 262.135 388.966 249.715 384.344 236.762C383.288 234.05 382.488 231.245 381.955 228.384C381.312 226.215 381.937 223.437 379.034 222.368" fill="#4A4444"/>
<path d="M380.73 228.37C382.23 237.161 386.217 245.123 389.273 253.378C391.65 259.796 394.245 266.061 393.804 273.078C393.684 273.8 393.793 274.542 394.116 275.198C394.438 275.855 394.959 276.394 395.604 276.74C398.645 276.587 456.265 246.468 456.886 245.304C457.664 244.104 457.992 242.913 456.886 241.715C456.173 240.6 436.496 201.664 434.911 200.624L431.892 201.61C429.647 201.979 418.91 208.963 414.923 210.467C413.616 209.73 412.769 211.584 411.499 211.073C410.86 210.449 410.221 209.821 409.582 209.197C408.368 207.997 406.853 207.147 405.196 206.735C404.922 206.804 404.638 206.827 404.356 206.804C404.032 207.09 403.801 207.467 403.693 207.886C403.584 208.306 403.605 208.747 403.75 209.155C404.203 210.049 404.84 210.837 405.619 211.466C406.813 212.726 406.513 213.766 405.119 214.598C403.768 215.408 402.333 216.066 400.924 216.77C395.441 219.53 395.441 219.526 394.407 213.357C393.918 212.306 393.242 211.535 391.932 211.74C389.69 213.14 389.789 215.475 390.081 217.53C390.57 220.965 389.092 222.878 386.208 224.35C384.196 225.372 381.953 226.219 380.73 228.37Z" fill="#261D1A"/>
<path d="M357.889 267.951C356.301 262.544 352.895 258.141 349.967 253.461C345.41 246.174 341.251 238.646 337.507 230.91C337.328 230.541 337.445 228.847 336.127 229.975C335.886 230.175 336.003 230.811 335.955 231.245C335.181 231.588 334.214 231.38 333.56 232.077C332.905 232.725 332.464 233.558 332.297 234.465C331.348 237.553 333.184 240.503 332.739 243.565C332.666 244.492 307.184 345.253 308.878 347.607C309.034 348.039 309.328 348.408 309.714 348.658C310.101 348.907 310.558 349.023 311.017 348.987C314.365 348.674 317.736 348.719 321.075 349.122C325.175 348.804 328.906 347.731 331.388 344.095C331.603 334.727 356.524 275.936 357.63 272.931C358.23 271.317 359.03 269.671 357.889 267.948" fill="#332F30"/>
<path d="M335.665 212.084C335.954 212.075 336.238 212.007 336.5 211.885C336.762 211.763 336.997 211.59 337.191 211.375C337.385 211.16 337.533 210.909 337.627 210.635C337.721 210.362 337.759 210.072 337.739 209.784C338.29 202.139 339.626 194.476 339.36 186.865C338.82 171.66 343.336 157.623 348.392 143.75C351.922 134.05 350.842 124.295 350.539 114.493C350.439 111.215 347.739 109.185 345.293 107.334C344.136 106.458 342.807 105.819 342.142 104.428C340.276 103.639 339.442 104.866 338.67 106.202C337.794 106.802 336.919 107.404 336.045 108.009C334.111 108.753 332.388 109.959 331.028 111.522C329.667 113.085 328.71 114.957 328.24 116.975C325.093 128.595 324.757 140.654 322.694 152.442C321.759 153.194 322.599 154.37 322.033 155.209C321.664 160.142 321.298 165.076 320.933 170.009C320.159 174.759 321.247 179.585 320.316 184.327C320.249 186.26 320.183 188.19 320.116 190.117C319.105 193.226 318.535 196.462 318.422 199.729C318.947 202.11 319.12 204.556 318.937 206.987C318.926 208.838 318.718 210.762 320.302 212.204C320.724 212.463 321.2 212.623 321.693 212.671C325.437 212.147 329.237 212.169 332.974 212.737C333.442 212.846 333.929 212.844 334.396 212.731C334.864 212.618 335.298 212.398 335.665 212.087" fill="#3C557E"/>
<path d="M397.352 349.352L394.032 347.533C392.865 346.632 391.436 346.136 389.961 346.12C373.627 346.32 357.276 345.247 340.961 346.752C339.651 346.819 338.357 347.07 337.117 347.497C334.269 349.373 336.442 350.697 337.781 351.787C339.961 353.558 342.691 354.251 345.36 355.003C347.025 355.474 348.825 355.514 350.46 356.603C350.131 358.257 348.649 358.253 347.507 358.503C340.22 360.089 332.644 359.727 325.542 357.452C323.381 356.788 321.391 356.335 319.179 357.032C316.565 357.85 313.988 356.996 311.417 356.594C309.749 356.331 309.017 355.13 308.58 353.641C308.222 352.414 308.226 351.005 306.955 350.202C306.42 350.963 305.729 351.602 304.928 352.075C304.126 352.548 303.233 352.844 302.308 352.944C301.042 353.186 299.804 353.557 298.613 354.05C296.397 354.744 293.433 355.572 293.613 357.989C293.803 360.446 296.613 361.461 299.199 361.621C299.885 362.292 300.716 362.795 301.627 363.093C302.539 363.39 303.507 363.474 304.456 363.337C310.896 364.122 317.175 366.071 323.732 365.987C325.332 367.247 327.332 365.98 328.996 366.834C330.745 366.845 332.496 366.855 334.249 366.863C336.483 367.987 339.028 366.534 341.255 367.714C343.589 367.718 345.924 367.724 348.261 367.732C353.179 368.889 358.246 367.382 363.161 368.586H385.914C390.828 367.386 395.895 368.886 400.814 367.735C403.735 367.728 406.653 367.719 409.569 367.709C411.497 366.563 413.775 367.957 415.71 366.862C420.719 367.344 425.618 366.033 430.591 365.957C431.606 365.011 433.132 366.205 434.11 365.11C441.328 364.643 448.421 363.569 455.142 360.718C456.153 359.648 458.154 359.327 457.767 357.218C455.821 353.618 452.067 353.68 448.779 352.899C446.968 352.468 445.066 352.406 443.679 350.931C442.007 349.931 440.598 350.953 439.152 351.544C432.128 354.428 425.093 357.151 417.222 356.195C414.838 355.903 412.717 357.126 410.607 358.152C402.959 361.865 400.462 360.686 398.658 352.53C398.528 351.371 398.078 350.272 397.358 349.354" fill="#BFBBBC"/>
<path d="M397.354 349.351C397.174 350.201 397.094 351.07 397.117 351.939C398.555 361.909 402.122 363.782 411.267 359.328C412.859 358.554 414.388 357.419 416.097 357.594C426.097 358.594 434.935 355.002 443.675 350.928C445.358 347.85 444.624 346.073 440.948 345.928C438.374 345.828 435.797 345.775 433.219 345.702C431.762 344.884 430.065 345.749 428.59 345.052C427.268 345.395 426.334 344.592 425.341 343.952C423.741 343.273 422.749 341.411 420.719 341.564C419.342 340.907 417.966 340.248 416.59 339.589C416.269 339.246 415.977 339.271 415.721 339.669C414.761 345.503 409.537 346.434 405.342 348.131C402.824 349.2 400.076 349.617 397.354 349.343" fill="#261D1A"/>
<path d="M306.961 350.203C307.161 357.552 311.579 360.593 319.381 358.303C321.717 357.617 323.393 358.203 325.525 358.814C333.757 361.318 342.537 361.392 350.81 359.026C352.029 358.672 353.596 358.179 353.366 356.573C353.147 355.025 351.475 354.919 350.245 354.715C344.911 353.824 339.698 352.715 335.737 348.596C334.77 346.336 333.62 344.281 330.772 344.087C327.934 346.408 324.503 347.417 321.082 348.461C317.619 347.766 314.052 347.768 310.59 348.468C310.017 348.183 309.447 347.895 308.874 347.61C308.235 348.477 307.596 349.341 306.957 350.202" fill="#261D1A"/>
<path d="M327.157 223C327.314 221.627 323.057 211.769 322.017 210.718C320.089 208.487 318.507 198.106 318.507 198.106L316.133 222.043" fill="#283B5B"/>
<path d="M387.065 205.725C388.284 203.702 391.923 208.47 390.66 207.547C388.035 205.619 388.937 204.126 390.667 202.347C391.645 201.336 392.836 200.394 392.941 198.798C392.218 197.243 391.751 195.531 390.291 194.421C386.399 196.389 382.156 201.245 382.145 203.089" fill="#F0F0F0"/>
<path d="M333.366 233.894C333.676 233.35 333.983 232.806 334.293 232.266C334.653 231.266 334.484 223.628 334.253 223.366C333.565 221.05 333.448 218.603 333.91 216.232C330.128 213.468 326.05 213.863 321.892 215.111C320.486 217.177 322.301 223.53 320.541 225.205C318.657 227.64 318.756 229.958 320.935 232.163L321.035 232.254C321.681 233.568 322.135 235.036 323.715 235.602L323.73 235.613C324.63 236.77 326.147 236.643 327.282 237.313L327.271 237.291C331.071 239.314 331.842 235.929 333.371 233.891" fill="#F8C6A9"/>
<path d="M350.897 93.0257C350.633 92.8944 350.332 92.8547 350.043 92.9127C349.492 92.9897 349.404 93.5127 349.143 93.8547C348.249 95.3037 349.362 97.9547 346.507 98.2247C346.42 98.2931 346.355 98.3857 346.321 98.4909C346.286 98.5961 346.284 98.7092 346.314 98.8157C346.383 99.0157 346.449 99.1157 346.514 99.1157C349.581 98.5427 351.26 100.816 353.133 102.486C359.361 108.039 362.599 115.632 366.674 122.649C369.189 120.7 369.288 119.885 367.579 115.315C367.126 114.315 366.379 113.315 367.517 112.267C367.231 111.523 367.163 110.713 367.32 109.932C367.478 109.151 367.855 108.431 368.408 107.857C368.351 107.779 368.279 107.714 368.195 107.667C368.111 107.62 368.018 107.592 367.922 107.585C367.826 107.578 367.729 107.591 367.639 107.625C367.549 107.659 367.467 107.711 367.4 107.78C363.245 101.362 356.977 97.3017 350.9 93.0307" fill="#EBEBEB"/>
<path d="M392.936 198.799C392.498 199.157 392.027 199.482 391.622 199.876C390.001 201.464 387.734 202.804 386.945 204.739C385.845 207.433 389.99 206.886 390.61 208.952C391.018 209.999 391.52 211.007 392.11 211.964C393.11 211.997 393.362 212.869 393.837 213.494C397.82 217.094 402.986 215.046 404.41 209.288C404.392 208.463 404.37 207.634 404.352 206.806C403.136 204.444 393.173 198.913 392.932 198.8" fill="#F8C6A9"/>
<path d="M381.641 203.283C385.102 200.892 387.548 197.515 390.286 194.423C390.074 193.057 380.472 181.957 380.472 181.957C380.472 181.957 379.838 194.038 380.593 199.624C380.819 200.88 380.293 202.351 381.641 203.286" fill="#12213A"/>
<path d="M365.846 114.886C367.573 117.317 368.507 119.833 366.667 122.644C368.208 126.583 369.788 130.508 372.391 133.91C372.497 132.516 372.605 131.12 372.716 129.723C373.468 126.28 371.968 123.254 370.927 120.143L370.945 120.172C370.27 118.434 371.281 116.163 369.262 114.849C369.253 114.387 369.072 113.944 368.755 113.608C368.438 113.271 368.007 113.064 367.546 113.027C366.646 113.345 366.462 114.313 365.846 114.886Z" fill="#B43F2F"/>
<path d="M380.592 199.617C380.625 193.779 380.658 187.942 380.692 182.104C380.991 181.835 381.23 181.508 381.395 181.141C381.559 180.775 381.646 180.378 381.648 179.977C381.65 179.575 381.568 179.177 381.407 178.809C381.246 178.441 381.01 178.111 380.714 177.84C380.645 172.663 380.614 167.487 380.491 162.31C380.451 160.769 380.841 159.127 379.797 157.721C379.8 170.75 379.806 183.778 379.815 196.806C379.815 197.806 379.684 198.858 380.589 199.617" fill="#495870"/>
<path d="M346.508 99.1078C346.508 98.8078 346.508 98.5168 346.501 98.2248C345.628 97.9478 344.53 96.8778 343.901 98.0568C343.087 99.5828 345.661 99.5358 345.646 100.879C345.934 100.288 346.223 99.6998 346.511 99.1078" fill="#F0F0F0"/>
<path d="M457.762 357.215C456.889 358.383 456.015 359.55 455.141 360.716C456.985 360.274 458.857 359.85 457.762 357.215Z" fill="#F0F0F0"/>
<path d="M365.847 114.887C366.084 114.887 366.318 114.838 366.535 114.742C366.751 114.647 366.946 114.507 367.106 114.332C367.266 114.158 367.387 113.952 367.463 113.727C367.539 113.503 367.568 113.265 367.547 113.029C367.547 112.774 367.536 112.518 367.514 112.262C365.13 111.977 365.606 113.507 365.847 114.887Z" fill="#C33C29"/>
<path d="M321.206 212.017C321.323 213.317 320.596 214.839 322.199 215.744C326.109 215.491 330.035 215.654 333.911 216.23C336.404 215.653 335.839 213.784 335.667 212.083L333.338 211.973C329.596 211.35 325.782 211.297 322.024 211.817C321.771 211.948 321.491 212.019 321.206 212.025" fill="#DEDEDF"/>
<path d="M334.355 226.548C334.333 228.454 334.312 230.36 334.293 232.265C334.925 232.053 335.742 232.145 335.954 231.246C334.691 229.928 335.854 227.785 334.354 226.546" fill="#E2AA7F"/>
<path d="M310.588 348.468C314.085 348.464 317.583 348.461 321.08 348.461C317.717 347.085 313.949 347.087 310.588 348.468Z" fill="#554E4D"/>
<path d="M322.023 211.814L333.337 211.978C329.588 210.47 325.809 210.726 322.023 211.814Z" fill="#43536B"/>
<path d="M183.276 167.881C183.336 167.256 183.347 166.627 183.309 165.999V165.927C183.369 163.309 183.418 160.664 183.467 158.055C183.926 137.211 184.626 116.566 186.074 96.5355C187.495 77.0465 189.298 58.3354 192.189 41.5154C192.856 37.2482 193.815 33.0317 195.058 28.8955C195.185 28.2536 195.444 27.6452 195.818 27.1084C195.823 28.8202 195.66 30.5284 195.332 32.2085C193.091 47.9744 191.348 64.6935 189.725 81.5825C189.195 86.7735 188.872 92.0174 188.763 97.2824C188.631 98.5097 188.632 99.7476 188.768 100.974C188.861 99.9184 188.905 99.4484 188.943 98.9744C191.495 75.6935 194.681 53.8935 198.933 34.7195C201.206 24.4105 203.775 15.2845 206.901 8.69445C213.055 -4.33755 219.334 -2.27855 225.614 11.9205C230.86 23.7465 234.243 41.5385 236.593 62.3735C238.631 80.3914 239.67 99.1954 240.173 118.287H240.178C240.648 136.143 240.872 154.016 240.378 171.565C239.017 220.636 236.323 268.182 230.508 311.711C228.251 328.492 225.442 343.685 221.485 355.249C218.971 362.642 216.168 367.797 212.916 369.467C212.856 369.476 206.316 368.979 205.616 368.519C201.402 365.675 198.156 356.269 195.232 344.814C190.443 326.045 187.49 303.622 185.626 279.185C183.834 255.715 183.2 231.974 183.143 208.034C183.127 194.634 183.198 181.242 183.274 167.881M190.943 263.09C191.623 278.822 193.137 294.506 195.479 310.076C198.979 331.669 203.726 346.166 210.459 348.748C212.694 349.597 214.831 348.604 216.659 343.684C217.06 342.791 217.306 341.836 217.386 340.859C217.107 340.408 216.921 340.922 216.708 341.148C216.288 341.65 215.764 342.053 215.172 342.331C214.58 342.608 213.935 342.753 213.281 342.755C209.481 342.62 206.297 336.463 203.641 325.901C199.87 310.835 197.378 293.024 195.662 273.751C195.107 268.061 194.882 262.344 194.99 256.627C195.547 259.562 195.948 262.524 196.19 265.501C197.551 280.177 200.021 294.728 203.579 309.03C208.268 327.084 213.579 329.93 218.799 316.875C221.613 309.834 223.899 300.689 225.734 289.938C228.199 274.926 230.073 259.661 231.334 244.252C234.554 206.248 235.446 168.083 234.006 129.969C233.307 110.561 232.097 91.4901 230.377 72.7554C230.361 71.8514 230.26 70.9509 230.077 70.0655C230.03 70.9559 230.08 71.8487 230.225 72.7284C230.383 77.0704 230.553 81.4395 230.7 85.7725C231.481 107.347 231.935 128.931 231.421 150.361C231.295 159.984 230.661 169.593 229.521 179.148C229.493 180.211 229.255 181.257 228.821 182.226C228.805 181.326 228.783 180.673 228.777 180.026C228.771 179.379 228.777 178.717 228.788 178.067C229.241 158.081 229.205 137.966 228.679 117.721C228.236 100.687 227.389 83.9785 225.504 67.9375C224.313 57.6885 222.909 47.8484 220.422 40.9995C216.717 30.8624 212.869 27.7204 208.822 35.2994C205.374 41.7625 202.51 50.7994 200.193 62.2994C197.051 77.9794 195.1 95.9794 193.673 115.026C192.591 129.469 191.773 144.211 191.318 159.304C191.213 160.073 191.18 160.85 191.218 161.624C190.781 172.15 190.568 182.802 190.327 193.463C189.819 216.59 189.72 239.772 190.945 263.089" fill="#4285F4"/>
<path d="M195.212 263.092C195.919 279.512 196.972 295.445 198.901 310.078C201.746 331.671 205.608 346.168 211.084 348.75C212.902 349.599 214.64 348.606 216.129 343.686C216.459 342.777 216.658 341.825 216.72 340.86C216.493 340.409 216.342 340.923 216.169 341.149C215.872 341.625 215.463 342.021 214.977 342.301C214.491 342.581 213.943 342.738 213.382 342.756C210.293 342.621 207.702 336.464 205.541 325.902C202.474 310.836 200.447 293.025 199.052 273.752C198.603 268.092 198.416 262.36 198.505 256.628C198.954 259.528 199.283 262.496 199.483 265.502C200.582 280.122 202.589 294.66 205.492 309.031C209.306 327.085 213.622 329.931 217.871 316.876C220.16 309.835 222.022 300.69 223.511 289.939C225.511 274.927 227.04 259.662 228.067 244.253C230.685 206.402 231.409 168.118 230.241 129.97C229.673 110.562 228.689 91.4906 227.29 72.7559C227.278 71.8545 227.198 70.9552 227.05 70.0659C227.012 70.9554 227.052 71.8465 227.17 72.7289C227.299 77.0709 227.437 81.4399 227.557 85.7729C228.193 107.348 228.557 128.932 228.144 150.362C227.944 160.409 227.566 170.204 226.602 179.149C226.581 180.199 226.387 181.239 226.029 182.227C226.016 181.327 225.998 180.674 225.993 180.027C225.988 179.38 225.993 178.718 226.002 178.068C226.371 158.082 226.341 137.967 225.913 117.722C225.553 100.688 224.864 83.9789 223.331 67.9379C222.352 57.6889 221.21 47.8489 219.187 40.9979C216.173 30.8609 213.044 27.7189 209.751 35.2979C206.951 41.7609 204.617 50.7979 202.733 62.2979C200.177 77.9779 198.59 95.9779 197.433 115.025C196.553 129.468 195.915 144.228 195.517 159.303C195.433 160.073 195.406 160.849 195.437 161.623C195.081 172.149 194.908 182.801 194.713 193.462C194.3 216.589 194.22 239.771 195.213 263.088" fill="#E8EFF9"/>
<path d="M198.699 250.678C199.29 264.512 200.17 277.935 201.782 290.264C204.159 308.456 207.387 320.67 211.964 322.845C213.483 323.56 214.936 322.723 216.18 318.578C216.455 317.812 216.622 317.01 216.674 316.198C216.485 315.818 216.358 316.251 216.213 316.441C215.966 316.841 215.625 317.174 215.218 317.411C214.812 317.647 214.353 317.779 213.884 317.795C211.302 317.681 209.137 312.495 207.332 303.595C204.769 290.902 203.075 275.895 201.909 259.659C201.534 254.89 201.378 250.059 201.452 245.232C201.827 247.673 202.102 250.175 202.269 252.708C203.187 265.024 204.864 277.271 207.291 289.381C210.478 304.592 214.085 306.987 217.636 295.99C219.842 288.571 221.418 280.98 222.35 273.296C224.025 260.648 225.299 247.788 226.157 234.806C228.345 202.917 228.95 170.663 227.973 138.523C227.497 122.172 226.675 106.105 225.507 90.3229C225.497 89.5636 225.43 88.8061 225.307 88.0569C225.274 88.8064 225.308 89.5572 225.407 90.3009C225.515 93.9589 225.63 97.6399 225.73 101.291C226.261 119.468 226.569 137.652 226.22 155.707C226.057 164.172 225.737 172.423 224.931 179.96C224.913 180.844 224.751 181.72 224.452 182.553C224.441 181.792 224.426 181.245 224.422 180.697C224.418 180.149 224.422 179.597 224.429 179.047C224.737 162.209 224.712 145.262 224.355 128.206C224.054 113.854 223.479 99.7779 222.199 86.2619C221.382 77.6299 220.427 69.3399 218.737 63.5679C216.219 55.0269 213.603 52.3809 210.851 58.7679C208.507 64.2129 206.561 71.8259 204.986 81.5149C202.85 94.7249 201.524 109.89 200.555 125.938C199.821 138.107 199.288 150.54 198.955 163.238C198.884 163.887 198.861 164.54 198.888 165.193C198.588 174.061 198.446 183.035 198.283 192.017C197.938 211.502 197.871 231.032 198.703 250.677" fill="#BFD7F9"/>
<path d="M242.211 52.5762C238.729 53.7502 213.293 66.0566 213.293 66.0566L211.203 277.027L245.348 315.119L242.211 52.5762Z" fill="url(#paint0_linear_655_1685)"/>
<path d="M209.088 369.965C214.611 369.965 219.088 369.741 219.088 369.465C219.088 369.189 214.611 368.965 209.088 368.965C203.565 368.965 199.088 369.189 199.088 369.465C199.088 369.741 203.565 369.965 209.088 369.965Z" fill="#BFBBBC"/>
<path d="M218.588 369.465C218.588 369.465 214.335 369.465 209.088 369.465C203.841 369.465 199.588 369.465 199.588 369.465C199.588 369.465 203.841 369.465 209.088 369.465C214.335 369.465 218.588 369.465 218.588 369.465Z" stroke="#707070"/>
<defs>
<linearGradient id="paint0_linear_655_1685" x1="200.857" y1="165.995" x2="248.797" y2="166.021" gradientUnits="userSpaceOnUse">
<stop stop-color="#4285F4"/>
<stop offset="0.268" stop-color="#5D97F6" stop-opacity="0.941"/>
<stop offset="1" stop-color="white" stop-opacity="0.58"/>
</linearGradient>
</defs>
</svg>
