<svg width="14" height="14" viewBox="0 0 14 14" fill="none" xmlns="http://www.w3.org/2000/svg">
<path d="M13.9253 12.5353C12.9305 10.8211 11.3379 9.53453 9.453 8.92209C10.3562 8.38484 11.058 7.56591 11.4507 6.59112C11.8434 5.61632 11.9052 4.53956 11.6266 3.52625C11.348 2.51293 10.7444 1.6191 9.90859 0.982062C9.07277 0.345021 8.05092 0 7 0C5.94908 0 4.92723 0.345021 4.09141 0.982062C3.25558 1.6191 2.65202 2.51293 2.37342 3.52625C2.09483 4.53956 2.15661 5.61632 2.54928 6.59112C2.94196 7.56591 3.6438 8.38484 4.54701 8.92209C2.66209 9.53453 1.06954 10.8211 0.0746729 12.5353C0.025831 12.6156 0 12.7079 0 12.8019C0 12.8959 0.025831 12.9882 0.0746729 13.0685C0.120169 13.1503 0.186921 13.2183 0.267874 13.2653C0.348827 13.3123 0.440974 13.3366 0.53458 13.3356H13.4654C13.559 13.3366 13.6512 13.3123 13.7321 13.2653C13.8131 13.2183 13.8798 13.1503 13.9253 13.0685C13.9742 12.9882 14 12.8959 14 12.8019C14 12.7079 13.9742 12.6156 13.9253 12.5353Z" fill="#4285F4"/>
</svg>
