<svg width="27" height="31" viewBox="0 0 27 31" fill="none" xmlns="http://www.w3.org/2000/svg">
<path d="M1.91183 3.60609C1.8081 3.61234 1.67562 3.64983 1.67437 3.46987C1.67437 3.35489 1.67437 3.23616 1.68187 3.11994C1.68812 2.86999 1.68187 2.62004 1.67188 2.36134C1.68998 2.34201 1.71473 2.33024 1.74115 2.32838C1.76757 2.32653 1.79372 2.33473 1.81435 2.35135C1.81435 2.35135 1.98931 3.0562 2.07679 3.41488C2.11303 3.56485 2.01555 3.59859 1.90683 3.60609" fill="#B8A80F"/>
<path d="M6.08999 0.0199959C6.03375 0.0849825 6.00001 0.124974 5.95877 0.164966C5.2839 0.748596 4.60779 1.32973 3.93543 1.91461C3.88334 1.96448 3.82014 2.00126 3.75104 2.0219C3.68194 2.04254 3.60893 2.04646 3.53801 2.03333C2.92064 1.95335 2.30327 1.88336 1.6834 1.80838L1.4047 1.78463C1.54592 1.9371 1.65465 2.07332 1.76963 2.1933C1.72845 2.21572 1.69197 2.24584 1.66215 2.28203C1.51551 2.1154 1.36013 1.95293 1.196 1.79463L1.10352 1.70215C1.21224 1.61342 1.30972 1.52968 1.41095 1.4522C1.94334 1.03479 2.47198 0.624871 3.00562 0.208707C3.07726 0.150011 3.16379 0.112369 3.25557 0.0999794C4.15289 0.0612374 5.0452 0.0312436 5.93627 0C5.98798 0.00229222 6.03941 0.00898166 6.08999 0.0199959Z" fill="black"/>
<path d="M4.14339 2.6784C3.91172 2.55135 3.6432 2.50843 3.38347 2.55696C3.12375 2.60549 2.88884 2.74246 2.71868 2.9446L2.375 1.96105C2.66113 1.98777 2.94536 2.03201 3.22608 2.09352C3.4007 2.15483 3.59036 2.15866 3.76732 2.10447C3.94428 2.05028 4.09927 1.94091 4.20962 1.79234C4.48366 1.51265 4.77279 1.24814 5.07569 1L5.42687 1.99979C5.29832 1.95643 5.1623 1.93968 5.02707 1.95056C4.89184 1.96145 4.76024 1.99974 4.64029 2.06311C4.52033 2.12648 4.41453 2.2136 4.32932 2.31916C4.24411 2.42473 4.18127 2.54653 4.14464 2.67715" fill="black"/>
<path d="M13.0197 18.1941C11.6362 16.067 9.99781 14.876 8.38939 15.0797C5.00009 15.5071 3.0155 21.9533 3.96281 29.4905C4.01405 29.8766 4.06528 30.2541 4.13527 30.6302C2.89635 28.8341 1.91965 26.8706 1.23462 24.7989C-0.443787 19.7912 -0.362553 14.9272 1.18463 11.9553C1.18404 11.9488 1.1857 11.9423 1.18934 11.9368C1.19298 11.9314 1.19837 11.9273 1.20462 11.9253C1.60138 11.3376 2.11375 10.8369 2.71044 10.4538C3.30713 10.0707 3.97564 9.81322 4.67516 9.69705C8.01322 9.27964 11.3413 12.8627 13.0197 18.1953" fill="#4285F4"/>
<path d="M5.27501 8.88846C4.68575 8.88821 4.10979 8.71323 3.61997 8.38565C3.13015 8.05806 2.74846 7.59259 2.52319 7.04808C2.29792 6.50358 2.23917 5.9045 2.35437 5.3266C2.46957 4.7487 2.75355 4.21795 3.1704 3.80145C3.58725 3.38495 4.11825 3.10141 4.69624 2.98669C5.27423 2.87198 5.87326 2.93123 6.41758 3.15696C6.9619 3.38269 7.42705 3.76476 7.75422 4.25486C8.0814 4.74495 8.2559 5.32106 8.25565 5.91032C8.25548 6.30158 8.17826 6.68898 8.02838 7.05039C7.8785 7.4118 7.6589 7.74016 7.38212 8.0167C7.10534 8.29325 6.77681 8.51257 6.41527 8.66215C6.05373 8.81172 5.66627 8.88863 5.27501 8.88846Z" fill="#EA4335"/>
<path d="M13.6172 18.1941C15.0007 16.0695 16.6403 14.876 18.2412 15.0797C21.6305 15.5071 23.6151 21.9533 22.6678 29.4905C22.6166 29.8766 22.5653 30.2541 22.4954 30.6302C23.7378 28.8347 24.7179 26.8712 25.406 24.7989C27.0857 19.7912 27.0032 14.926 25.456 11.9553C25.4566 11.9488 25.4549 11.9423 25.4513 11.9368C25.4476 11.9314 25.4423 11.9273 25.436 11.9253C25.0392 11.3376 24.5269 10.8369 23.9302 10.4538C23.3335 10.0707 22.665 9.81322 21.9655 9.69705C18.6274 9.27964 15.2993 12.8627 13.6209 18.1953" fill="#34A853"/>
<path d="M21.3531 8.88846C20.7638 8.88822 20.1878 8.7132 19.698 8.38556C19.2081 8.05792 18.8264 7.59237 18.6012 7.04779C18.376 6.50321 18.3173 5.90407 18.4326 5.32614C18.5479 4.74821 18.832 4.21746 19.249 3.80101C19.6659 3.38456 20.1971 3.10112 20.7751 2.98654C21.3532 2.87196 21.9523 2.9314 22.4966 3.15732C23.0409 3.38324 23.5059 3.76551 23.833 4.25577C24.16 4.74603 24.3343 5.32225 24.3338 5.91157C24.3331 6.70154 24.0187 7.45891 23.4598 8.01715C22.9009 8.57538 22.1431 8.88879 21.3531 8.88846Z" fill="#EA4335"/>
<path d="M17.2094 17.5373H15.7997V16.9787C15.8005 16.937 15.7931 16.8955 15.7778 16.8566C15.7625 16.8178 15.7397 16.7824 15.7107 16.7524C15.6816 16.7224 15.6469 16.6985 15.6086 16.682C15.5702 16.6655 15.529 16.6567 15.4873 16.6562H13.9988C13.9146 16.6582 13.8345 16.693 13.7757 16.7533C13.7168 16.8136 13.6839 16.8945 13.6839 16.9787V17.5373H12.2817C12.2352 17.538 12.1907 17.5567 12.1578 17.5896C12.1249 17.6226 12.1061 17.667 12.1055 17.7135V20.8866C12.1051 20.9325 12.123 20.9766 12.155 21.0094C12.1871 21.0422 12.2308 21.0609 12.2767 21.0616H17.2094C17.2553 21.0623 17.2995 21.0448 17.3326 21.0129C17.3656 20.9811 17.3847 20.9375 17.3856 20.8916V17.7135C17.385 17.667 17.3662 17.6226 17.3333 17.5896C17.3004 17.5567 17.256 17.538 17.2094 17.5373ZM14.0376 17.0087H15.4473V17.5373H14.0376V17.0087Z" fill="#353535"/>
</svg>
