<svg width="15" height="16" viewBox="0 0 15 16" fill="none" xmlns="http://www.w3.org/2000/svg">
<path d="M0.7 8.63389L10.505 7.99889L0.7 7.36589C0.504058 7.33256 0.32625 7.23092 0.198112 7.07898C0.0699733 6.92705 -0.000213164 6.73464 4.86333e-07 6.53589V0.374886C0.000193491 0.309756 0.017301 0.245793 0.0496471 0.189264C0.0819932 0.132734 0.128469 0.085575 0.184521 0.0524076C0.240573 0.0192401 0.304279 0.0012012 0.369399 5.79451e-05C0.434519 -0.00108531 0.498819 0.0147063 0.556 0.0458858L14.42 7.67089C14.479 7.70318 14.5283 7.75076 14.5626 7.80865C14.5969 7.86654 14.615 7.93259 14.615 7.99989C14.615 8.06718 14.5969 8.13323 14.5626 8.19112C14.5283 8.24901 14.479 8.29659 14.42 8.32889L0.556 15.9529C0.512811 15.9767 0.465343 15.9918 0.416316 15.9973C0.367289 16.0027 0.317666 15.9985 0.270291 15.9847C0.222915 15.971 0.178717 15.948 0.14023 15.9171C0.101742 15.8863 0.0697208 15.8481 0.0460005 15.8049C0.0159709 15.7496 0.000162675 15.6878 4.86333e-07 15.6249V9.46289C2.31296e-05 9.2643 0.0703167 9.07213 0.198434 8.92041C0.326552 8.76868 0.504228 8.66718 0.7 8.63389Z" fill="white"/>
</svg>
