<svg xmlns="http://www.w3.org/2000/svg" xmlns:xlink="http://www.w3.org/1999/xlink" width="1920" height="790" viewBox="0 0 1920 790">
  <defs>
    <linearGradient id="linear-gradient" y1="0.159" x2="1.035" y2="0.913" gradientUnits="objectBoundingBox">
      <stop offset="0" stop-color="#fff"/>
      <stop offset="1" stop-color="#e3e3e3"/>
    </linearGradient>
    <linearGradient id="linear-gradient-2" y1="-0.019" x2="1.016" y2="1.025" gradientUnits="objectBoundingBox">
      <stop offset="0" stop-color="#e9f1ff"/>
      <stop offset="1" stop-color="#fff"/>
    </linearGradient>
    <filter id="Path_5992" x="-48.432" y="13.028" width="972.553" height="761.518" filterUnits="userSpaceOnUse">
      <feOffset dx="4" input="SourceAlpha"/>
      <feGaussianBlur stdDeviation="17.5" result="blur"/>
      <feFlood flood-opacity="0.161"/>
      <feComposite operator="in" in2="blur"/>
      <feComposite in="SourceGraphic"/>
    </filter>
    <clipPath id="clip-_1">
      <rect width="1920" height="790"/>
    </clipPath>
  </defs>
  <g id="_1" data-name="1" clip-path="url(#clip-_1)">
    <g id="Group_5076" data-name="Group 5076" transform="translate(0 0)">
      <path id="Path_5994" data-name="Path 5994" d="M1965.068-.038,532.457-2,0,787.686H1965.068Z" transform="translate(-45 1.995)" fill="url(#linear-gradient)"/>
      <g transform="matrix(1, 0, 0, 1, 0, 0)" filter="url(#Path_5992)">
        <path id="Path_5992-2" data-name="Path 5992" d="M0-.368,632.48-2,867.553,654.522H0Z" transform="translate(0.07 67.52)" fill="url(#linear-gradient-2)"/>
      </g>
      <g id="Group_5059" data-name="Group 5059" transform="translate(0 -164)">
        <path id="Polygon_2" data-name="Polygon 2" d="M304.839,0a41,41,0,0,1,35.5,20.487l85.809,148.5a41,41,0,0,1,0,41.026l-85.809,148.5A41,41,0,0,1,304.839,379H133.161a41,41,0,0,1-35.5-20.487l-85.809-148.5a41,41,0,0,1,0-41.026l85.809-148.5A41,41,0,0,1,133.161,0Z" transform="translate(-168 369)" fill="#b9cff3"/>
        <path id="Polygon_1" data-name="Polygon 1" d="M304.839,0a41,41,0,0,1,35.5,20.487l85.809,148.5a41,41,0,0,1,0,41.026l-85.809,148.5A41,41,0,0,1,304.839,379H133.161a41,41,0,0,1-35.5-20.487l-85.809-148.5a41,41,0,0,1,0-41.026l85.809-148.5A41,41,0,0,1,133.161,0Z" transform="translate(-200 369)" fill="#4285f4"/>
      </g>
    </g>
  </g>
</svg>
