<svg width="221" height="413" viewBox="0 0 221 413" fill="none" xmlns="http://www.w3.org/2000/svg">
<g clip-path="url(#clip0_304_8)">
<mask id="mask0_304_8" style="mask-type:luminance" maskUnits="userSpaceOnUse" x="0" y="0" width="274" height="413">
<path d="M274 0H0V413H274V0Z" fill="white"/>
</mask>
<g mask="url(#mask0_304_8)">
<path d="M73.4875 17C80.682 16.9999 87.7499 18.893 93.9812 22.4891C100.213 26.0852 105.388 31.2577 108.987 37.487L194.796 185.987C198.4 192.223 200.297 199.298 200.297 206.5C200.297 213.702 198.4 220.777 194.796 227.013L108.987 375.513C105.388 381.742 100.213 386.915 93.9812 390.511C87.7499 394.107 80.682 396 73.4875 396H-98.1905C-105.385 396 -112.453 394.107 -118.684 390.511C-124.916 386.915 -130.091 381.742 -133.691 375.513L-219.5 227.013C-223.103 220.777 -225 213.702 -225 206.5C-225 199.298 -223.103 192.223 -219.5 185.987L-133.691 37.487C-130.091 31.2577 -124.916 26.0852 -118.684 22.4891C-112.453 18.893 -105.385 16.9999 -98.1905 17H73.4875Z" fill="#B9CFF3"/>
<path d="M41.4875 17C48.682 16.9999 55.7499 18.893 61.9812 22.4891C68.2126 26.0852 73.3879 31.2577 76.9875 37.487L162.796 185.987C166.4 192.223 168.297 199.298 168.297 206.5C168.297 213.702 166.4 220.777 162.796 227.013L76.9875 375.513C73.3879 381.742 68.2126 386.915 61.9812 390.511C55.7499 394.107 48.682 396 41.4875 396H-130.191C-137.385 396 -144.453 394.107 -150.684 390.511C-156.916 386.915 -162.091 381.742 -165.691 375.513L-251.5 227.013C-255.103 220.777 -257 213.702 -257 206.5C-257 199.298 -255.103 192.223 -251.5 185.987L-165.691 37.487C-162.091 31.2577 -156.916 26.0852 -150.684 22.4891C-144.453 18.893 -137.385 16.9999 -130.191 17H41.4875Z" fill="#4285F4"/>
</g>
</g>
<defs>
<clipPath id="clip0_304_8">
<rect width="221" height="413" fill="white"/>
</clipPath>
</defs>
</svg>
