<svg xmlns="http://www.w3.org/2000/svg" xmlns:xlink="http://www.w3.org/1999/xlink" width="32" height="32" viewBox="0 0 32 32">
  <defs>
    <clipPath id="clip-call">
      <rect width="32" height="32"/>
    </clipPath>
  </defs>
  <g id="call" clip-path="url(#clip-call)">
    <path id="Path_6013" data-name="Path 6013" d="M22.038,18.015a13.443,13.443,0,0,1-4.257-.688,1.991,1.991,0,0,0-2.007.47l-2.386,2.4A18.191,18.191,0,0,1,6.115,12.92l2.4-2.387a1.981,1.981,0,0,0,.481-1.992V8.528a13.762,13.762,0,0,1-.677-4.257A1.969,1.969,0,0,0,6.356,2.309H1.962A1.96,1.96,0,0,0,0,4.269v0A22.038,22.038,0,0,0,22.036,26.309h0A1.961,1.961,0,0,0,24,24.35V19.964a1.958,1.958,0,0,0-1.962-1.951Z" transform="translate(4 1.691)" fill="#25d366" fill-rule="evenodd"/>
  </g>
</svg>
