<svg xmlns="http://www.w3.org/2000/svg" xmlns:xlink="http://www.w3.org/1999/xlink" width="32" height="32" viewBox="0 0 32 32">
  <defs>
    <clipPath id="clip-FAQ">
      <rect width="32" height="32"/>
    </clipPath>
  </defs>
  <g id="FAQ" clip-path="url(#clip-FAQ)">
    <g id="Group_5061" data-name="Group 5061" transform="matrix(0.966, 0.259, -0.259, 0.966, 6.929, 2)">
      <g id="Group_5063" data-name="Group 5063">
        <path id="Path_6014" data-name="Path 6014" d="M9.344,0h4.672a9.344,9.344,0,1,1,0,18.688v4.088C8.176,20.44,0,16.936,0,9.344A9.344,9.344,0,0,1,9.344,0" transform="translate(0.64 0.131)" fill="#6fb983"/>
        <path id="Path_5995" data-name="Path 5995" d="M9.344,0h4.672a9.344,9.344,0,1,1,0,18.688v4.088C8.176,20.44,0,16.936,0,9.344A9.344,9.344,0,0,1,9.344,0" fill="#34a853"/>
        <path id="Path_5996" data-name="Path 5996" d="M77.663,39.9A2.509,2.509,0,0,1,76,39.4a1.651,1.651,0,0,1-.593-1.328,1.949,1.949,0,0,1,.271-1.034,3.357,3.357,0,0,1,.7-.813q.432-.367.919-.717.459-.34.877-.7a3.428,3.428,0,0,0,.689-.795,1.833,1.833,0,0,0,.271-.988,1.32,1.32,0,0,0-.519-1.13,2.4,2.4,0,0,0-1.456-.386,4.6,4.6,0,0,0-.859.083,6.061,6.061,0,0,0-.891.243,6.69,6.69,0,0,0-.9.4l-.092-1.369q.248-.11.57-.225t.708-.22a6.968,6.968,0,0,1,.822-.17,6.278,6.278,0,0,1,.914-.064,4.568,4.568,0,0,1,1.691.285,2.36,2.36,0,0,1,1.112.864,2.485,2.485,0,0,1,.4,1.433,2.874,2.874,0,0,1-.363,1.47,4.315,4.315,0,0,1-.9,1.093q-.537.468-1.07.854a10.214,10.214,0,0,0-1.047.859,1.3,1.3,0,0,0-.45.96.862.862,0,0,0,.372.8,1.644,1.644,0,0,0,.868.225,2.439,2.439,0,0,0,.62-.074,4.018,4.018,0,0,0,.464-.147l.064.845a2.6,2.6,0,0,1-.409.115q-.244.051-.528.087a4.512,4.512,0,0,1-.579.037m-.358,4.254a1.257,1.257,0,0,1-.639-.156,1.118,1.118,0,0,1-.423-.423,1.241,1.241,0,0,1-.152-.625,1.149,1.149,0,0,1,.331-.864,1.224,1.224,0,0,1,.891-.322,1.342,1.342,0,0,1,.648.147,1.026,1.026,0,0,1,.418.413,1.273,1.273,0,0,1,.147.625,1.2,1.2,0,0,1-.322.868,1.189,1.189,0,0,1-.9.335" transform="translate(-66.328 -26.906)" fill="#fff"/>
      </g>
    </g>
  </g>
</svg>
