<svg width="274" height="413" viewBox="0 0 274 413" fill="none" xmlns="http://www.w3.org/2000/svg">
<g clip-path="url(#clip0_239_1112)">
<mask id="mask0_239_1112" style="mask-type:luminance" maskUnits="userSpaceOnUse" x="0" y="0" width="274" height="413">
<path d="M274 0H0V413H274V0Z" fill="white"/>
</mask>
<g mask="url(#mask0_239_1112)">
<path d="M145.839 17C153.034 16.9999 160.101 18.893 166.333 22.4891C172.564 26.0852 177.739 31.2577 181.339 37.487L267.148 185.987C270.751 192.223 272.648 199.298 272.648 206.5C272.648 213.702 270.751 220.777 267.148 227.013L181.339 375.513C177.739 381.742 172.564 386.915 166.333 390.511C160.101 394.107 153.034 396 145.839 396H-25.839C-33.0335 396 -40.1014 394.107 -46.3327 390.511C-52.5641 386.915 -57.7394 381.742 -61.339 375.513L-147.148 227.013C-150.751 220.777 -152.648 213.702 -152.648 206.5C-152.648 199.298 -150.751 192.223 -147.148 185.987L-61.339 37.487C-57.7394 31.2577 -52.5641 26.0852 -46.3327 22.4891C-40.1014 18.893 -33.0335 16.9999 -25.839 17H145.839Z" fill="#B9CFF3"/>
<path d="M113.839 17C121.034 16.9999 128.101 18.893 134.333 22.4891C140.564 26.0852 145.739 31.2577 149.339 37.487L235.148 185.987C238.751 192.223 240.648 199.298 240.648 206.5C240.648 213.702 238.751 220.777 235.148 227.013L149.339 375.513C145.739 381.742 140.564 386.915 134.333 390.511C128.101 394.107 121.034 396 113.839 396H-57.839C-65.0335 396 -72.1014 394.107 -78.3327 390.511C-84.5641 386.915 -89.7394 381.742 -93.339 375.513L-179.148 227.013C-182.751 220.777 -184.648 213.702 -184.648 206.5C-184.648 199.298 -182.751 192.223 -179.148 185.987L-93.339 37.487C-89.7394 31.2577 -84.5641 26.0852 -78.3327 22.4891C-72.1014 18.893 -65.0335 16.9999 -57.839 17H113.839Z" fill="#4285F4"/>
</g>
</g>
<defs>
<clipPath id="clip0_239_1112">
<rect width="274" height="413" fill="white"/>
</clipPath>
</defs>
</svg>
