<svg xmlns="http://www.w3.org/2000/svg" xmlns:xlink="http://www.w3.org/1999/xlink" width="32" height="32" viewBox="0 0 32 32">
  <defs>
    <clipPath id="clip-mail">
      <rect width="32" height="32"/>
    </clipPath>
  </defs>
  <g id="mail" clip-path="url(#clip-mail)">
    <path id="Path_4861" data-name="Path 4861" d="M3.41,8.439A3,3,0,0,0,2,10.983V22.821a3,3,0,0,0,3,3H23a3,3,0,0,0,3-3V10.983a3,3,0,0,0-1.41-2.544l-9-5.625a3,3,0,0,0-3.18,0l-9,5.625Zm3.923,3.634a1.5,1.5,0,0,0-1.665,2.5l7.5,5a1.5,1.5,0,0,0,1.665,0l7.5-5a1.5,1.5,0,1,0-1.665-2.5L14,16.518Z" transform="translate(2 1.642)" fill="#4285f4" fill-rule="evenodd"/>
  </g>
</svg>
