<svg width="25" height="24" viewBox="0 0 25 24" fill="none" xmlns="http://www.w3.org/2000/svg">
<path d="M15.5821 9.02528H22.5908C23.8004 9.02528 24.7809 10.0058 24.7809 11.2154V13.5198C24.7809 13.8059 24.7249 14.0892 24.616 14.3537L21.2274 22.5831C21.0585 22.9934 20.6586 23.2611 20.2148 23.2611H1.78452C1.17974 23.2611 0.689453 22.7709 0.689453 22.1661V11.2154C0.689453 10.6106 1.17974 10.1204 1.78452 10.1204H5.59737C5.95319 10.1204 6.28681 9.94747 6.49201 9.65679L12.4638 1.19668C12.6199 0.975617 12.914 0.901691 13.156 1.0227L15.1426 2.01596C16.2942 2.59178 16.8889 3.89226 16.5713 5.14001L15.5821 9.02528ZM7.25986 11.8587V21.071H19.4815L22.5908 13.5198V11.2154H15.5821C14.1534 11.2154 13.1073 9.86952 13.4597 8.48496L14.4489 4.59969C14.5124 4.35014 14.3935 4.09004 14.163 3.97488L13.4391 3.61288L8.28128 10.9198C8.00762 11.3075 7.65781 11.6253 7.25986 11.8587ZM5.06972 12.3105H2.87959V21.071H5.06972V12.3105Z" fill="black"/>
</svg>
