<svg width="36" height="33" viewBox="0 0 36 33" fill="none" xmlns="http://www.w3.org/2000/svg">
<path d="M1.64 12.8309H6.55V32.4709H1.64C0.74 32.4709 0 31.7409 0 30.8309V14.4709C0 13.5709 0.73 12.8309 1.64 12.8309ZM10.3 10.7109L20.77 0.240889C21.06 -0.0491111 21.51 -0.0791111 21.84 0.160889L23.24 1.21089C24.03 1.80089 24.39 2.82089 24.15 3.78089L22.26 11.1909H32.73C34.54 11.1909 36 12.6609 36 14.4609V17.9009C36 18.3309 35.92 18.7509 35.75 19.1509L30.69 31.4509C30.44 32.0609 29.84 32.4609 29.18 32.4609H11.45C10.55 32.4609 9.81 31.7309 9.81 30.8209V11.8709C9.81 11.4409 9.98 11.0209 10.29 10.7109H10.3Z" fill="#25D366"/>
</svg>
