<svg width="50" height="50" viewBox="0 0 50 50" fill="none" xmlns="http://www.w3.org/2000/svg">
<rect x="3" y="3" width="44" height="44" rx="2" fill="#006699"/>
<path d="M18.4481 36.9401V21.4615H13.3033V36.9401H18.4486H18.4481ZM15.8767 19.3486C17.6705 19.3486 18.7872 18.16 18.7872 16.6746C18.7536 15.1554 17.6705 14 15.9109 14C14.15 14 13 15.1554 13 16.6745C13 18.1599 14.1163 19.3484 15.843 19.3484H15.8763L15.8767 19.3486ZM21.2958 36.9401H26.4403V28.2971C26.4403 27.8351 26.4738 27.3719 26.6097 27.0419C26.9815 26.1172 27.828 25.1601 29.2496 25.1601C31.1107 25.1601 31.8557 26.5794 31.8557 28.6604V36.9401H37V28.0652C37 23.311 34.4622 21.0987 31.0774 21.0987C28.3023 21.0987 27.0836 22.6497 26.4064 23.7061H26.4407V21.4621H21.2961C21.3632 22.9141 21.2957 36.9406 21.2957 36.9406L21.2958 36.9401Z" fill="white"/>
</svg>
