<svg width="41" height="35" viewBox="0 0 41 35" fill="none" xmlns="http://www.w3.org/2000/svg">
<path d="M40.2946 18.8595L25.2379 33.9162C24.924 34.2301 24.4983 34.4065 24.0543 34.4065C23.6104 34.4065 23.1846 34.2301 22.8707 33.9162C22.5568 33.6023 22.3804 33.1765 22.3804 32.7326C22.3804 32.2886 22.5568 31.8629 22.8707 31.5489L35.0729 19.3489H2.30578C1.86208 19.3489 1.43655 19.1726 1.12281 18.8589C0.809071 18.5451 0.632812 18.1196 0.632812 17.6759C0.632812 17.2322 0.809071 16.8067 1.12281 16.4929C1.43655 16.1792 1.86208 16.0029 2.30578 16.0029H35.0729L22.8707 3.80283C22.5568 3.48891 22.3804 3.06315 22.3804 2.61921C22.3804 2.17526 22.5568 1.7495 22.8707 1.43558C23.1846 1.12167 23.6104 0.945313 24.0543 0.945312C24.4983 0.945312 24.924 1.12167 25.2379 1.43558L40.2946 16.4923C40.4502 16.6476 40.5736 16.8321 40.6577 17.0352C40.7419 17.2383 40.7853 17.456 40.7853 17.6759C40.7853 17.8957 40.7419 18.1134 40.6577 18.3165C40.5736 18.5196 40.4502 18.7041 40.2946 18.8595Z" fill="black"/>
</svg>
