<svg width="16" height="16" viewBox="0 0 16 16" fill="none" xmlns="http://www.w3.org/2000/svg">
<path d="M15.8119 14.9475L11.9663 11.0999C14.356 8.2296 13.969 3.95795 11.1002 1.56706C8.22525 -0.82383 3.95586 -0.436616 1.56623 2.43983C-0.823395 5.31013 -0.436385 9.57563 2.43854 11.9727C4.94489 14.0624 8.58769 14.0624 11.1002 11.9727L14.9457 15.8202C15.1853 16.0599 15.5723 16.0599 15.818 15.8202C16.0637 15.5805 16.0576 15.1933 15.818 14.9475H15.8119ZM1.2468 6.77908C1.2468 3.7244 3.72243 1.24746 6.7755 1.24746C9.82858 1.24746 12.3042 3.7244 12.3042 6.77908C12.3042 9.83377 9.82858 12.3107 6.7755 12.3107C3.72243 12.3107 1.25294 9.83377 1.2468 6.77908Z" fill="white"/>
</svg>
