<svg width="23" height="24" viewBox="0 0 23 24" fill="none" xmlns="http://www.w3.org/2000/svg">
<path d="M13.9906 18.6586L7.5357 15.1377C6.73657 15.9309 5.63605 16.4211 4.42105 16.4211C1.97937 16.4211 0 14.4417 0 12C0 9.55832 1.97937 7.57895 4.42105 7.57895C5.63597 7.57895 6.73643 8.069 7.53554 8.86223L13.9906 5.34133C13.9278 5.04447 13.8947 4.73663 13.8947 4.42105C13.8947 1.97937 15.8741 0 18.3158 0C20.7575 0 22.7368 1.97937 22.7368 4.42105C22.7368 6.86274 20.7575 8.8421 18.3158 8.8421C17.1008 8.8421 16.0003 8.35201 15.2012 7.55872L8.74615 11.0795C8.80904 11.3765 8.8421 11.6843 8.8421 12C8.8421 12.3155 8.80905 12.6234 8.74621 12.9202L15.2012 16.4413C16.0004 15.648 17.1009 15.1579 18.3158 15.1579C20.7575 15.1579 22.7368 17.1373 22.7368 19.5789C22.7368 22.0206 20.7575 24 18.3158 24C15.8741 24 13.8947 22.0206 13.8947 19.5789C13.8947 19.2634 13.9278 18.9555 13.9906 18.6586Z" fill="black"/>
</svg>
