<svg width="272" height="205" viewBox="0 0 272 205" fill="none" xmlns="http://www.w3.org/2000/svg">
<circle cx="169.934" cy="102.274" r="101.755" fill="#D2E2FC"/>
<path d="M181.008 168.555L185.804 155.938L204.609 106.451L209.405 93.8352C212.312 86.1619 208.458 77.5865 200.789 74.6631L62.1907 21.9936C54.5174 19.0869 45.942 22.9408 43.0185 30.6098L43.011 30.6392L14.6374 105.302L14.6299 105.331C11.7191 113.004 15.5729 121.579 23.2419 124.502L161.837 177.167C169.51 180.073 178.086 176.219 181.009 168.55L181.008 168.555Z" fill="white"/>
<path d="M175.39 92.8728L98.2414 63.5575C96.4457 62.8766 95.5424 60.87 96.2275 59.0754C96.9084 57.2797 98.915 56.3764 100.71 57.0615L177.858 86.3767C179.654 87.0576 180.552 89.0673 179.872 90.8588C179.191 92.6546 177.185 93.5537 175.39 92.8728Z" fill="#E6E6E6"/>
<path d="M184.633 108.933L94.0852 74.5243C92.2894 73.8434 91.3861 71.8368 92.0712 70.0422C92.7521 68.2465 94.7587 67.3432 96.5534 68.0283L187.101 102.437C188.896 103.122 189.795 105.128 189.11 106.923C188.426 108.713 186.425 109.613 184.633 108.933Z" fill="#E6E6E6"/>
<path d="M176.302 130.793L42.8033 80.0663C41.0076 79.3854 40.1096 77.3757 40.7894 75.5842C41.4703 73.7885 43.4758 72.8894 45.2715 73.5703L178.771 124.297C180.566 124.978 181.47 126.985 180.784 128.779C180.104 130.575 178.097 131.478 176.302 130.793Z" fill="#E6E6E6"/>
<path d="M172.558 141.925L38.6315 91.0312C36.8357 90.3503 35.9377 88.3406 36.6175 86.549C37.2984 84.7533 39.3039 83.8542 41.0997 84.5351L175.027 135.425C176.823 136.106 177.721 138.115 177.041 139.907C176.36 141.703 174.355 142.602 172.559 141.921L172.558 141.925Z" fill="#E6E6E6"/>
<path d="M168.131 152.282L34.632 101.556C32.8363 100.875 31.933 98.8681 32.6181 97.0734C33.299 95.2777 35.3056 94.3744 37.1002 95.0595L170.599 145.786C172.394 146.472 173.292 148.481 172.603 150.275C171.92 152.061 169.918 152.961 168.126 152.286L168.131 152.282Z" fill="#E6E6E6"/>
<path d="M164.399 163.41L30.4674 112.519C28.6717 111.839 27.7736 109.829 28.4535 108.037C29.1344 106.242 31.1399 105.342 32.9356 106.023L166.863 156.913C168.66 157.59 169.563 159.596 168.886 161.393C168.21 163.19 166.203 164.093 164.406 163.417C164.402 163.415 164.398 163.414 164.394 163.413L164.399 163.41Z" fill="#E6E6E6"/>
<path d="M74.9031 72.9363L47.601 62.5624C46.7399 62.2358 46.3096 61.2715 46.6351 60.4146L55.8696 36.1116C56.1962 35.2505 57.1605 34.8202 58.0174 35.1458L85.3196 45.5197C86.1807 45.8463 86.6109 46.8106 86.2854 47.6675L77.0509 71.9705C76.7243 72.8316 75.76 73.2618 74.9031 72.9363Z" fill="#D2E2FC"/>
<path d="M177.852 153.001L179.387 139.592L185.402 86.9952L186.937 73.5858C187.861 65.4326 182.011 58.073 173.858 57.1319L26.5494 40.2834C18.3962 39.3597 11.0367 45.2101 10.0956 53.3632V53.3936L1.01866 132.748V132.779C0.0905873 140.932 5.94094 148.292 14.0941 149.233L161.398 166.077C169.551 167.001 176.911 161.15 177.852 152.997V153.001Z" fill="white"/>
<path d="M153.741 81.046L71.7449 71.6698C69.8367 71.453 68.4663 69.7312 68.6875 67.8231C68.9043 65.9149 70.626 64.5444 72.5342 64.7656L154.53 74.1418C156.438 74.3586 157.804 76.0847 157.588 77.9885C157.371 79.8967 155.649 81.2628 153.741 81.046Z" fill="#E6E6E6"/>
<path d="M166.649 94.327L70.4109 83.3202C68.5028 83.1033 67.1323 81.3816 67.3535 79.4734C67.5703 77.5652 69.2921 76.1948 71.2002 76.416L167.438 87.4228C169.346 87.644 170.713 89.3657 170.491 91.2739C170.27 93.1777 168.553 94.5438 166.649 94.327Z" fill="#E6E6E6"/>
<path d="M163.973 117.569L22.0859 101.345C20.1777 101.128 18.8116 99.4019 19.0285 97.498C19.2453 95.5898 20.967 94.2238 22.8752 94.4406L164.762 110.665C166.671 110.881 168.041 112.603 167.82 114.511C167.603 116.42 165.881 117.79 163.973 117.569Z" fill="#E6E6E6"/>
<path d="M163.096 129.277L20.7539 112.997C18.8457 112.78 17.4796 111.054 17.6965 109.15C17.9133 107.242 19.635 105.876 21.5432 106.093L163.886 122.369C165.794 122.586 167.16 124.312 166.943 126.216C166.726 128.124 165.005 129.49 163.096 129.273V129.277Z" fill="#E6E6E6"/>
<path d="M161.363 140.409L19.4754 124.185C17.5672 123.969 16.1968 122.247 16.4179 120.339C16.6348 118.43 18.3565 117.06 20.2647 117.281L162.152 133.505C164.06 133.726 165.426 135.452 165.201 137.361C164.98 139.26 163.262 140.626 161.358 140.414L161.363 140.409Z" fill="#E6E6E6"/>
<path d="M160.488 152.111L18.1406 135.835C16.2324 135.618 14.8663 133.892 15.0832 131.988C15.3 130.08 17.0217 128.714 18.9299 128.931L161.272 145.207C163.181 145.419 164.551 147.141 164.339 149.049C164.126 150.957 162.404 152.328 160.496 152.115C160.492 152.115 160.488 152.115 160.483 152.115L160.488 152.111Z" fill="#E6E6E6"/>
<path d="M51.4376 86.5144L22.4201 83.1967C21.505 83.0926 20.8501 82.2643 20.9542 81.3536L23.9076 55.5236C24.0117 54.6085 24.84 53.9537 25.7507 54.0577L54.7683 57.3754C55.6834 57.4795 56.3382 58.3078 56.2341 59.2185L53.2808 85.0485C53.1767 85.9636 52.3484 86.6185 51.4376 86.5144Z" fill="#4285F4"/>
</svg>
