<svg width="254" height="217" viewBox="0 0 254 217" fill="none" xmlns="http://www.w3.org/2000/svg">
<path d="M75.1752 214.641C79.2351 211.209 81.7062 205.788 81.0566 200.508C80.407 195.228 76.3997 190.378 71.203 189.254C66.0063 188.131 60.0765 191.238 58.5008 196.317C57.6318 186.524 56.6311 176.324 51.4255 167.989C46.7116 160.44 38.5478 155.037 29.7037 154.071C20.8596 153.105 11.5414 156.753 6.02427 163.736C0.507118 170.719 -0.844738 180.871 3.02209 188.886C5.87065 194.794 11.1157 199.187 16.6109 202.764C34.3693 214.22 55.6654 218.881 76.5841 215.883L75.1796 214.637L75.1752 214.641Z" fill="#25D366"/>
<path d="M14.7775 156.951C22.0766 162.898 28.7744 169.548 34.77 176.803C44.154 188.122 51.7516 200.816 57.2907 214.435C57.6945 215.427 56.0837 215.862 55.6799 214.879C52.1554 206.267 47.797 198.02 42.6661 190.26C34.6647 178.133 24.8593 167.3 13.5924 158.131C12.7585 157.451 13.9479 156.279 14.7731 156.951H14.7775Z" fill="white"/>
<path d="M77.9768 214.641C73.9169 211.209 71.4458 205.788 72.0954 200.508C72.745 195.228 76.7523 190.378 81.949 189.254C87.1458 188.131 93.0755 191.238 94.6512 196.317C95.5202 186.524 96.521 176.324 101.726 167.989C106.44 160.44 114.604 155.037 123.448 154.071C132.292 153.105 141.611 156.753 147.128 163.736C152.645 170.719 153.997 180.871 150.13 188.886C147.281 194.794 142.036 199.187 136.541 202.764C118.783 214.22 97.4866 218.881 76.5679 215.883L77.9725 214.637L77.9768 214.641Z" fill="#25D366"/>
<path d="M138.38 156.953C131.081 162.901 124.383 169.55 118.388 176.805C109.004 188.125 101.406 200.818 95.8671 214.438C95.4633 215.43 97.0742 215.864 97.478 214.881C106.542 192.742 121.013 173.233 139.561 158.13C140.395 157.449 139.206 156.277 138.38 156.949V156.953Z" fill="white"/>
<path d="M103.637 84.1278C103.637 91.642 97.5444 97.7342 90.0302 97.7342C82.516 97.7342 76.4238 91.642 76.4238 84.1278C76.4238 79.5587 78.6755 75.5163 82.1297 73.0496C84.3594 71.4564 87.0851 70.5215 90.0302 70.5215C92.9753 70.5215 95.7009 71.4564 97.9306 73.0496C101.385 75.5163 103.637 79.5587 103.637 84.1278Z" fill="#F2F2F2"/>
<path d="M141.832 37.2266V42.3531H60.058C39.8372 42.3531 23.4438 58.7465 23.4438 78.9673V137.238H13.1864C12.7518 137.238 12.348 137.071 12.0452 136.799C11.6941 136.487 11.4746 136.035 11.4746 135.526V73.8408C11.4746 53.62 27.868 37.2266 48.0888 37.2266H141.832Z" fill="#BCD5FF"/>
<path d="M66.1113 214.925V137.018H88.9349V214.925C88.9349 216.013 88.0483 216.9 86.9597 216.9H68.0864C66.9979 216.9 66.1113 216.013 66.1113 214.925Z" fill="#3F3D56"/>
<path d="M44.6754 34.0938C23.6778 34.1157 6.6611 51.1324 6.63477 72.1344V135.483C6.63477 136.694 7.61793 137.677 8.82934 137.677H141.381V34.0938H44.6754ZM140.504 136.8H8.82934C8.10513 136.8 7.51259 136.211 7.51259 135.483V72.1344C7.53893 51.6196 24.1606 34.9935 44.6754 34.9716H140.504V136.8Z" fill="#3F3D56"/>
<path d="M82.1369 34.9688V37.2248H48.0859C27.8652 37.2248 11.4717 53.6182 11.4717 73.839V135.524C11.4717 136.033 11.6912 136.485 12.0423 136.797H8.83823C8.11402 136.797 7.52148 136.209 7.52148 135.48V72.1316C7.54782 51.6168 24.1695 34.9907 44.6843 34.9688H82.1369Z" fill="#9EC1FA"/>
<path d="M125.542 42.3516C122.017 46.6441 119.897 52.1393 119.884 58.1261V136.797H23.4414V78.9658C23.4414 58.745 39.8348 42.3516 60.0556 42.3516H82.1374V73.0492C78.6831 75.5159 76.4315 79.5583 76.4315 84.1274C76.4315 91.6416 82.5236 97.7337 90.0378 97.7337C97.552 97.7337 103.644 91.6416 103.644 84.1274C103.644 79.5583 101.393 75.5159 97.9383 73.0492V42.3516H125.542Z" fill="#9EC1FA"/>
<path d="M96.9268 2.48949V83.2497C96.9224 87.6125 93.3892 91.1457 89.0264 91.1501C84.668 91.1457 81.1303 87.6125 81.1259 83.2497V26.6298C81.1259 25.9012 80.5378 25.313 79.8092 25.313H49.0852C47.8738 25.313 46.895 24.3299 46.8906 23.1185V2.48949C46.8906 1.27809 47.8738 0.294922 49.0852 0.294922H94.7323C95.9437 0.294922 96.9268 1.27809 96.9268 2.48949Z" fill="#4285F4"/>
<path d="M226.533 137.678H119.877V58.1296C119.89 52.1428 122.01 46.6476 125.535 42.355C127.167 40.3624 129.103 38.633 131.271 37.2285C132.636 36.3375 134.093 35.5826 135.625 34.9725C136.481 34.6345 137.363 34.3361 138.263 34.0947C140.374 33.5153 142.6 33.2125 144.895 33.2168C151.509 33.2037 157.531 35.7625 162.008 39.9542C162.153 40.0902 162.298 40.2263 162.438 40.3711C162.553 40.4765 162.662 40.5862 162.772 40.7003C166.564 44.5628 169.11 49.6586 169.751 55.3337C169.856 56.2511 169.913 57.1859 169.913 58.1296V130.248H219.072C223.184 130.239 226.524 133.566 226.533 137.678Z" fill="#3F3D56"/>
<path d="M138.895 74.2843L144.075 95.6857L245.411 71.1548L240.232 49.7534C240.105 49.2223 239.714 48.7921 239.196 48.6122C239.007 48.5463 238.81 48.5156 238.612 48.5244L180.035 18.1954C179.324 17.8311 178.459 18.0418 177.99 18.687L149.759 58.0532L139.115 72.8973C139.075 72.95 139.062 73.0158 139.075 73.0816C138.86 73.4416 138.795 73.8717 138.891 74.2843H138.895Z" fill="white"/>
<path d="M139.078 73.0816C139.086 73.1387 139.122 73.187 139.165 73.2221C139.223 73.2616 139.288 73.2748 139.354 73.2616C139.407 73.2484 139.455 73.2133 139.486 73.1694L139.521 73.1167L140.074 72.3399L150.138 58.3122L178.36 18.9548C178.694 18.4939 179.313 18.3447 179.818 18.6036L237.943 48.7L238.465 48.9721C238.465 48.9721 238.509 48.9896 238.531 48.994C238.571 48.9853 238.61 48.9853 238.65 48.9809C238.702 48.9633 238.751 48.9238 238.777 48.8755C238.838 48.7614 238.795 48.6253 238.68 48.5639L238.61 48.5244L180.033 18.1954C179.322 17.8311 178.457 18.0418 177.987 18.687L149.756 58.0532L139.113 72.8973C139.073 72.95 139.06 73.0158 139.073 73.0816H139.078Z" fill="#3F3D56"/>
<path d="M169.517 75.2648L171.773 75.5149L188.513 77.3716L199.614 78.6005L200.268 78.6751L214.115 67.8603L214.646 67.4477L217.916 64.8932L229.552 55.8033L229.622 55.1669L233.761 17.8109C233.88 16.74 233.107 15.7744 232.036 15.6559L176.794 9.53739C175.723 9.41889 174.758 10.1914 174.639 11.2623L171.721 37.6147L170.101 52.2262L168.653 65.297L167.981 71.3672L167.783 73.1273C167.665 74.1982 168.437 75.1638 169.508 75.2823L169.517 75.2648Z" fill="#E6E6E6"/>
<path d="M184.692 42.5187L208.621 45.1697L217.105 46.109C218.681 46.2846 220.099 45.1478 220.274 43.5721C220.45 41.9964 219.313 40.5787 217.737 40.4031L207.181 39.2356L185.324 36.8128C183.748 36.6372 182.33 37.774 182.155 39.3541C181.979 40.9298 183.116 42.3475 184.692 42.5231V42.5187Z" fill="white"/>
<path d="M183.335 53.1033C183.396 53.1164 183.458 53.1252 183.519 53.1296L211.298 56.2064L215.937 56.7199C217.513 56.8955 218.931 55.7587 219.106 54.183C219.282 52.6073 218.145 51.1896 216.569 51.014L209.863 50.2723L187.86 47.8363L184.155 47.4281C182.58 47.2525 181.162 48.3849 180.986 49.9606C180.82 51.4661 181.847 52.8399 183.335 53.1033Z" fill="white"/>
<path d="M180.179 62.4886C180.64 63.2567 181.434 63.7615 182.321 63.8624L193.706 65.1221L213.984 67.3694H213.988L214.638 67.4396L217.908 64.8851C217.93 64.692 217.93 64.4945 217.908 64.3014C217.767 62.9583 216.71 61.8961 215.367 61.7469L212.549 61.4352L201.374 60.1975L193.333 59.3065L182.948 58.1566C181.373 57.981 179.955 59.1178 179.779 60.6935C179.709 61.3211 179.85 61.9532 180.174 62.493L180.179 62.4886Z" fill="white"/>
<path d="M196.174 29.5792L202.126 30.2376L204.755 30.5317L208.727 30.9706C210.303 31.1462 211.72 30.0094 211.896 28.4337C212.071 26.858 210.935 25.4403 209.359 25.2647L196.806 23.8734C195.23 23.6978 193.813 24.8346 193.637 26.4103C193.461 27.986 194.598 29.4037 196.174 29.5792Z" fill="white"/>
<path d="M147.497 45.4712L154.757 75.4534L166.871 77.7577L178.077 79.8908L190.098 82.1776L193.939 82.9106C194.395 82.9983 194.865 82.8842 195.229 82.5989L198.311 80.1937L200.264 78.6706L214.111 67.8558L205.307 31.483C205.219 31.1231 205.03 30.7939 204.763 30.5349C204.284 30.0741 203.599 29.8897 202.954 30.0433L148.937 43.1186C147.888 43.3732 147.247 44.4266 147.497 45.4756V45.4712Z" fill="#4285F4"/>
<path d="M164.133 69.3268C164.506 70.8674 166.059 71.8111 167.6 71.4424L199.294 63.7702C200.835 63.3971 201.778 61.8433 201.41 60.3028C201.401 60.2676 201.392 60.2281 201.379 60.193C200.957 58.7095 199.443 57.8229 197.942 58.1872L166.248 65.8594C164.708 66.2325 163.764 67.7862 164.133 69.3268Z" fill="white"/>
<path d="M166.874 77.7589L178.079 79.892L201.815 74.1466C203.356 73.7735 204.304 72.2242 203.931 70.6792C203.558 69.1386 202.004 68.1905 200.464 68.5636L168.77 76.2358C168.107 76.3938 167.523 76.7845 167.124 77.3375C167.027 77.4692 166.944 77.6096 166.869 77.7545L166.874 77.7589Z" fill="white"/>
<path d="M190.105 82.1831L193.946 82.9161C194.402 83.0039 194.872 82.8898 195.236 82.6045L198.318 80.1992L190.105 82.1875V82.1831Z" fill="white"/>
<path d="M170.514 53.2493C170.887 54.7898 172.441 55.7335 173.982 55.3648L186.258 52.3934C187.799 52.0203 188.742 50.4665 188.374 48.926C188.277 48.5265 188.097 48.1578 187.847 47.8331C187.154 46.9464 186.004 46.547 184.911 46.8104L172.634 49.7818C171.094 50.1549 170.146 51.7087 170.519 53.2493H170.514Z" fill="white"/>
<path d="M178.069 79.8926L190.095 82.1794L193.935 82.9123C194.392 82.9957 194.861 82.8816 195.226 82.6007L198.311 80.1911L197.227 80.4544L194.94 82.2364C194.681 82.4383 194.343 82.5217 194.019 82.4603L191.175 81.9204L179.148 79.6337L178.064 79.897L178.069 79.8926ZM213.989 67.366L214.108 67.8488L214.643 67.4362L213.994 67.366H213.989ZM178.069 79.8926L190.095 82.1794L193.935 82.9123C194.392 82.9957 194.861 82.8816 195.226 82.6007L198.311 80.1911L197.227 80.4544L194.94 82.2364C194.681 82.4383 194.343 82.5217 194.019 82.4603L191.175 81.9204L179.148 79.6337L178.064 79.897L178.069 79.8926ZM178.069 79.8926L190.095 82.1794L193.935 82.9123C194.392 82.9957 194.861 82.8816 195.226 82.6007L198.311 80.1911L197.227 80.4544L194.94 82.2364C194.681 82.4383 194.343 82.5217 194.019 82.4603L191.175 81.9204L179.148 79.6337L178.064 79.897L178.069 79.8926ZM138.891 74.2789L152.462 130.333C152.673 131.197 153.542 131.724 154.402 131.518L252.614 107.742C253.478 107.531 254.005 106.662 253.799 105.802L240.228 49.748C240.1 49.2169 239.71 48.7868 239.192 48.6068C239.003 48.541 238.805 48.5103 238.608 48.519C238.375 48.5278 238.147 48.5849 237.945 48.6946C237.849 48.7385 237.761 48.7956 237.677 48.8614L229.619 55.1554L217.913 64.298L213.994 67.3616L199.61 78.5891L197.232 80.45L194.945 82.232C194.686 82.4339 194.348 82.5173 194.023 82.4559L191.179 81.916L179.153 79.6293L167.118 77.3381L140.756 72.3214C140.533 72.2775 140.3 72.2819 140.076 72.3345C139.778 72.4091 139.506 72.5671 139.29 72.791C139.207 72.8788 139.137 72.9753 139.075 73.0763C138.86 73.4362 138.795 73.8663 138.891 74.2789ZM178.069 79.8926L190.095 82.1794L193.935 82.9123C194.392 82.9957 194.861 82.8816 195.226 82.6007L198.311 80.1911L197.227 80.4544L194.94 82.2364C194.681 82.4383 194.343 82.5217 194.019 82.4603L191.175 81.9204L179.148 79.6337L178.064 79.897L178.069 79.8926ZM178.069 79.8926L190.095 82.1794L193.935 82.9123C194.392 82.9957 194.861 82.8816 195.226 82.6007L198.311 80.1911L197.227 80.4544L194.94 82.2364C194.681 82.4383 194.343 82.5217 194.019 82.4603L191.175 81.9204L179.148 79.6337L178.064 79.897L178.069 79.8926ZM178.069 79.8926L190.095 82.1794L193.935 82.9123C194.392 82.9957 194.861 82.8816 195.226 82.6007L198.311 80.1911L197.227 80.4544L194.94 82.2364C194.681 82.4383 194.343 82.5217 194.019 82.4603L191.175 81.9204L179.148 79.6337L178.064 79.897L178.069 79.8926Z" fill="white"/>
<path d="M178.073 79.8941L190.099 82.1808L193.94 82.9138C194.396 82.9972 194.866 82.8831 195.23 82.6022L198.316 80.1926L197.232 80.4559L194.945 82.2379C194.686 82.4398 194.348 82.5232 194.023 82.4617L191.179 81.9219L179.153 79.6351L178.069 79.8985L178.073 79.8941ZM213.994 67.3675L214.112 67.8503L214.648 67.4377L213.998 67.3675H213.994ZM178.073 79.8941L190.099 82.1808L193.94 82.9138C194.396 82.9972 194.866 82.8831 195.23 82.6022L198.316 80.1926L197.232 80.4559L194.945 82.2379C194.686 82.4398 194.348 82.5232 194.023 82.4617L191.179 81.9219L179.153 79.6351L178.069 79.8985L178.073 79.8941ZM178.073 79.8941L190.099 82.1808L193.94 82.9138C194.396 82.9972 194.866 82.8831 195.23 82.6022L198.316 80.1926L197.232 80.4559L194.945 82.2379C194.686 82.4398 194.348 82.5232 194.023 82.4617L191.179 81.9219L179.153 79.6351L178.069 79.8985L178.073 79.8941ZM139.523 73.1173L139.585 73.1611C139.585 73.1611 139.611 73.1304 139.624 73.1129C139.896 72.832 140.287 72.7047 140.673 72.7749L166.872 77.7566L178.077 79.8897L190.104 82.1764L193.944 82.9094C194.401 82.9928 194.87 82.8787 195.234 82.5978L198.32 80.1882L197.236 80.4515L194.949 82.2335C194.69 82.4354 194.352 82.5188 194.027 82.4574L191.183 81.9175L179.157 79.6307L167.122 77.3396L140.761 72.3228C140.537 72.2789 140.304 72.2833 140.081 72.336L139.527 73.1129L139.523 73.1173ZM138.891 74.2848L152.462 130.338C152.673 131.203 153.542 131.73 154.402 131.524L252.614 107.748C253.478 107.537 254.005 106.668 253.799 105.808L240.228 49.7539C240.1 49.2228 239.71 48.7926 239.192 48.6127C239.003 48.5469 238.805 48.5161 238.608 48.5249C238.375 48.5337 238.147 48.5907 237.945 48.7005C237.849 48.7444 237.761 48.8014 237.677 48.8673L229.619 55.1613L217.913 64.3039L213.994 67.3675L199.61 78.5949L197.232 80.4559L194.945 82.2379C194.686 82.4398 194.348 82.5232 194.023 82.4617L191.179 81.9219L179.153 79.6351L167.118 77.344L140.756 72.3272C140.533 72.2833 140.3 72.2877 140.076 72.3404C139.778 72.415 139.506 72.573 139.29 72.7969C139.207 72.8846 139.137 72.9812 139.075 73.0821C138.86 73.4421 138.795 73.8722 138.891 74.2848ZM139.339 74.175C139.26 73.8415 139.33 73.486 139.541 73.2138C139.549 73.1919 139.563 73.1743 139.58 73.1611C139.589 73.1436 139.606 73.1304 139.62 73.1129C139.892 72.832 140.282 72.7047 140.669 72.7749L166.867 77.7566L178.073 79.8897L190.099 82.1764L193.94 82.9094C194.396 82.9928 194.866 82.8787 195.23 82.5978L198.316 80.1882L200.264 78.6651L214.112 67.8459L214.648 67.4333L217.918 64.8788L229.558 55.7889L237.972 49.2184C238.099 49.1174 238.248 49.0472 238.406 49.0077C238.45 48.9989 238.494 48.9902 238.542 48.9858C238.582 48.977 238.621 48.977 238.661 48.9726C238.797 48.9726 238.928 48.9945 239.056 49.0384C239.424 49.1657 239.701 49.473 239.797 49.8504L253.369 105.904C253.518 106.523 253.14 107.142 252.522 107.291L154.31 131.067C153.691 131.216 153.072 130.834 152.923 130.22L139.352 74.1663L139.339 74.175ZM178.069 79.8941L190.095 82.1808L193.935 82.9138C194.392 82.9972 194.861 82.8831 195.226 82.6022L198.311 80.1926L197.227 80.4559L194.94 82.2379C194.681 82.4398 194.343 82.5232 194.019 82.4617L191.175 81.9219L179.148 79.6351L178.064 79.8985L178.069 79.8941ZM178.069 79.8941L190.095 82.1808L193.935 82.9138C194.392 82.9972 194.861 82.8831 195.226 82.6022L198.311 80.1926L197.227 80.4559L194.94 82.2379C194.681 82.4398 194.343 82.5232 194.019 82.4617L191.175 81.9219L179.148 79.6351L178.064 79.8985L178.069 79.8941ZM178.069 79.8941L190.095 82.1808L193.935 82.9138C194.392 82.9972 194.861 82.8831 195.226 82.6022L198.311 80.1926L197.227 80.4559L194.94 82.2379C194.681 82.4398 194.343 82.5232 194.019 82.4617L191.175 81.9219L179.148 79.6351L178.064 79.8985L178.069 79.8941Z" fill="#3F3D56"/>
<path d="M227.018 96.7336C226.557 94.8199 227.733 92.8975 229.643 92.4322L242.038 89.4301C243.951 88.9736 245.874 90.1543 246.33 92.0723C246.782 93.9772 245.615 95.8909 243.714 96.3605L231.319 99.3627C229.406 99.8236 227.483 98.6473 227.018 96.738V96.7336Z" fill="#4285F4"/>
<path d="M90.0353 86.3206C91.7321 86.3206 93.1077 84.945 93.1077 83.2482C93.1077 81.5513 91.7321 80.1758 90.0353 80.1758C88.3385 80.1758 86.9629 81.5513 86.9629 83.2482C86.9629 84.945 88.3385 86.3206 90.0353 86.3206Z" fill="white"/>
</svg>
