<svg width="50" height="50" viewBox="0 0 50 50" fill="none" xmlns="http://www.w3.org/2000/svg">
<rect x="3" y="3" width="44" height="44" rx="2" fill="#00E676"/>
<path d="M19.2747 33.7573L19.664 33.9513C21.2515 34.8952 23.0646 35.388 24.9122 35.3779C30.5972 35.365 35.2664 30.6828 35.2664 24.9993C35.2664 22.2523 34.176 19.6146 32.235 17.6693C30.2969 15.7039 27.6506 14.5977 24.8921 14.5977C19.2344 14.5977 14.5781 19.254 14.5781 24.9116C14.5781 24.9562 14.5781 25.0007 14.5781 25.0453C14.5954 26.969 15.1327 28.8525 16.1355 30.4946L16.3955 30.884L15.3582 34.7113L19.2747 33.7573Z" fill="#00E676"/>
<path d="M33.3866 16.5028C31.1784 14.25 28.1484 12.9858 24.9935 13.0001H24.9734C18.4752 13.0001 13.1293 18.3475 13.1293 24.8442C13.1293 24.8743 13.1293 24.9045 13.1293 24.9347C13.1537 27.0006 13.6882 29.0278 14.6867 30.838L13 37L19.2855 35.378C21.0225 36.3319 22.9735 36.8233 24.9547 36.8046C31.4758 36.7687 36.8232 31.3912 36.8189 24.8686C36.8347 21.7381 35.5977 18.7239 33.3866 16.5028ZM24.9935 34.7961C23.2378 34.8047 21.5124 34.3335 20.0053 33.4341L19.616 33.2402L15.8734 34.2128L16.846 30.5148L16.586 30.1254C15.622 28.5695 15.1119 26.7751 15.1119 24.9447C15.1119 19.5471 19.5542 15.1049 24.9518 15.1049C30.3494 15.1049 34.7917 19.5471 34.7917 24.9447C34.7917 28.344 33.0303 31.5104 30.1426 33.3048C28.6154 34.2832 26.8382 34.8019 25.0251 34.7961M30.7273 27.5954L30.0133 27.2707C30.0133 27.2707 28.976 26.8168 28.3266 26.4921C28.2619 26.4921 28.1973 26.4274 28.1326 26.4274C27.9732 26.4317 27.8166 26.4763 27.6786 26.5567C27.5407 26.6372 27.614 26.6214 26.706 27.6601C26.6442 27.7808 26.5178 27.8569 26.3813 27.854H26.3167C26.219 27.8382 26.1285 27.7923 26.0566 27.7247L25.7319 27.5954C25.0366 27.3009 24.3987 26.8828 23.8513 26.3628C23.722 26.2335 23.5266 26.1027 23.3973 25.9734C22.9175 25.5137 22.5023 24.9893 22.1646 24.416L22.1 24.2867C22.044 24.2077 21.9994 24.1201 21.9707 24.0267C21.9534 23.9146 21.9764 23.7997 22.0353 23.702C22.0942 23.6043 22.2954 23.3773 22.4893 23.1834C22.6833 22.9894 22.6833 22.8587 22.814 22.7294C22.9491 22.5426 22.9965 22.3056 22.9433 22.08C22.6416 21.241 22.2939 20.4177 21.906 19.6146C21.8012 19.4523 21.6388 19.3359 21.452 19.2899H20.738C20.6087 19.2899 20.478 19.3546 20.3487 19.3546L20.284 19.4192C20.1547 19.4839 20.024 19.6132 19.8947 19.6793C19.7654 19.7439 19.7007 19.9393 19.57 20.0686C19.116 20.6419 18.866 21.3487 18.8559 22.08C18.8631 22.5943 18.9738 23.1015 19.1806 23.5713L19.2453 23.7652C19.8271 25.0108 20.6417 26.1329 21.646 27.0739L21.906 27.334C22.0942 27.4906 22.2681 27.6644 22.4247 27.8526C23.7694 29.0221 25.3656 29.8654 27.0882 30.318C27.2821 30.3826 27.5422 30.3826 27.7361 30.4473H28.3855C28.7246 30.43 29.0564 30.3424 29.3581 30.1872C29.5176 30.1154 29.6685 30.0278 29.8121 29.9272L29.9414 29.7979C30.0707 29.6686 30.2015 29.6039 30.3308 29.4732C30.4572 29.3597 30.5664 29.229 30.6555 29.0838C30.7805 28.7936 30.8681 28.4891 30.9155 28.1759V27.7219C30.8566 27.6701 30.7919 27.6256 30.7216 27.5926" fill="white"/>
</svg>
