<svg width="256" height="232" viewBox="0 0 256 232" fill="none" xmlns="http://www.w3.org/2000/svg">
<path d="M109.498 231.526H109.464C107.513 231.526 105.538 231.477 103.602 231.385C103.174 231.366 102.843 231.002 102.863 230.57C102.882 230.144 103.247 229.809 103.68 229.833C105.592 229.925 107.542 229.979 109.469 229.979H110.237C110.665 229.979 111.011 230.323 111.016 230.75C111.016 231.177 110.675 231.526 110.242 231.526H109.503H109.498ZM116.828 231.298C116.42 231.298 116.079 230.983 116.055 230.57C116.031 230.144 116.352 229.775 116.78 229.751C118.954 229.615 121.153 229.411 123.308 229.159C123.736 229.111 124.12 229.411 124.169 229.838C124.218 230.265 123.916 230.648 123.488 230.697C121.304 230.958 119.076 231.162 116.872 231.298H116.824H116.828ZM97.0644 230.881C97.0352 230.881 97.0109 230.881 96.9817 230.881C94.7879 230.648 92.5697 230.352 90.4002 229.993C89.977 229.925 89.69 229.523 89.7581 229.101C89.8262 228.679 90.2299 228.398 90.6531 228.461C92.7983 228.815 94.9825 229.106 97.1471 229.334C97.5752 229.377 97.8816 229.76 97.8378 230.187C97.7941 230.585 97.4584 230.881 97.0644 230.881ZM129.928 229.741C129.559 229.741 129.233 229.479 129.165 229.101C129.092 228.679 129.369 228.276 129.792 228.204C131.937 227.825 134.092 227.374 136.208 226.87C136.622 226.768 137.045 227.03 137.142 227.442C137.244 227.854 136.982 228.276 136.568 228.373C134.423 228.883 132.239 229.339 130.065 229.722C130.016 229.731 129.972 229.731 129.928 229.731V229.741ZM84.0521 228.752C83.9937 228.752 83.9402 228.742 83.8819 228.732C81.7269 228.252 79.5623 227.699 77.4462 227.098C77.0328 226.981 76.7944 226.555 76.916 226.142C77.0376 225.73 77.4657 225.492 77.8743 225.614C79.9611 226.21 82.0966 226.753 84.2224 227.229C84.6407 227.321 84.9034 227.733 84.811 228.155C84.7283 228.514 84.4121 228.756 84.0521 228.756V228.752ZM142.761 226.69C142.425 226.69 142.119 226.472 142.021 226.142C141.895 225.73 142.128 225.303 142.542 225.177C144.629 224.551 146.72 223.858 148.758 223.116C149.162 222.97 149.61 223.174 149.756 223.577C149.902 223.979 149.697 224.425 149.294 224.571C147.226 225.327 145.105 226.031 142.989 226.661C142.916 226.686 142.839 226.695 142.766 226.695L142.761 226.69ZM71.3657 225.129C71.283 225.129 71.1955 225.114 71.1079 225.085C69.0259 224.357 66.9391 223.562 64.9058 222.713C64.5069 222.548 64.3221 222.092 64.4875 221.7C64.6529 221.302 65.1101 221.118 65.5041 221.287C67.5131 222.122 69.5708 222.907 71.6235 223.625C72.0273 223.771 72.2413 224.212 72.1003 224.615C71.9884 224.93 71.6868 225.133 71.3657 225.133V225.129ZM155.145 222.17C154.849 222.17 154.562 221.995 154.43 221.704C154.26 221.312 154.44 220.856 154.834 220.686C156.833 219.823 158.828 218.887 160.769 217.912C161.148 217.718 161.62 217.873 161.815 218.251C162.009 218.634 161.853 219.1 161.474 219.294C159.509 220.283 157.485 221.234 155.462 222.107C155.359 222.151 155.257 222.175 155.155 222.175L155.145 222.17ZM59.195 220.051C59.0831 220.051 58.9664 220.021 58.8545 219.973C56.8698 219.003 54.89 217.965 52.9783 216.888C52.6037 216.68 52.4724 216.209 52.6815 215.831C52.8907 215.458 53.3626 215.327 53.742 215.535C55.6342 216.602 57.58 217.626 59.5404 218.576C59.9246 218.765 60.0852 219.226 59.8955 219.614C59.7593 219.891 59.482 220.046 59.195 220.046V220.051ZM166.917 216.224C166.65 216.224 166.387 216.083 166.246 215.841C166.027 215.472 166.158 214.997 166.523 214.779C168.401 213.687 170.264 212.528 172.074 211.325C172.429 211.088 172.91 211.185 173.149 211.539C173.387 211.898 173.29 212.373 172.935 212.611C171.106 213.828 169.213 215.007 167.306 216.112C167.18 216.185 167.049 216.214 166.912 216.214L166.917 216.224ZM47.7004 213.581C47.5593 213.581 47.4085 213.542 47.2821 213.454C45.4287 212.257 43.5802 210.991 41.8096 209.686C41.4642 209.429 41.3913 208.949 41.6491 208.604C41.9069 208.26 42.3885 208.187 42.7387 208.439C44.4899 209.725 46.3043 210.981 48.1333 212.16C48.4933 212.392 48.5954 212.872 48.3619 213.231C48.216 213.459 47.9631 213.585 47.7101 213.585L47.7004 213.581ZM177.872 208.939C177.638 208.939 177.405 208.832 177.249 208.633C176.987 208.294 177.06 207.809 177.4 207.547C179.137 206.233 180.849 204.855 182.488 203.449C182.814 203.172 183.305 203.211 183.583 203.531C183.865 203.856 183.821 204.346 183.5 204.622C181.836 206.053 180.095 207.455 178.334 208.779C178.193 208.886 178.028 208.939 177.862 208.939H177.872ZM37.0668 205.767C36.8917 205.767 36.7117 205.709 36.5706 205.583C34.8729 204.171 33.1996 202.682 31.5992 201.174C31.2879 200.878 31.2733 200.388 31.57 200.078C31.8667 199.768 32.3532 199.753 32.6694 200.049C34.2454 201.538 35.8945 203.003 37.5678 204.395C37.8986 204.671 37.9424 205.156 37.6651 205.486C37.5095 205.67 37.2906 205.767 37.0668 205.767ZM187.863 200.379C187.659 200.379 187.46 200.301 187.309 200.146C187.012 199.84 187.017 199.35 187.324 199.05C188.885 197.536 190.412 195.955 191.867 194.355C192.154 194.04 192.645 194.015 192.966 194.301C193.282 194.588 193.307 195.077 193.02 195.393C191.546 197.018 189.989 198.623 188.408 200.16C188.257 200.306 188.063 200.383 187.863 200.383V200.379ZM27.4888 196.712C27.2796 196.712 27.0753 196.63 26.9196 196.465C25.4117 194.85 23.9378 193.171 22.5417 191.469C22.2693 191.139 22.3179 190.654 22.6487 190.383C22.9795 190.111 23.4659 190.16 23.7383 190.489C25.1101 192.163 26.5645 193.821 28.053 195.412C28.3449 195.727 28.3303 196.212 28.0141 196.508C27.8633 196.649 27.6736 196.717 27.4839 196.717L27.4888 196.712ZM196.717 190.635C196.546 190.635 196.376 190.581 196.235 190.465C195.899 190.198 195.841 189.708 196.109 189.379C197.466 187.681 198.779 185.916 200.02 184.145C200.263 183.791 200.749 183.709 201.1 183.951C201.455 184.194 201.537 184.679 201.294 185.028C200.039 186.827 198.706 188.617 197.325 190.339C197.169 190.533 196.945 190.63 196.717 190.63V190.64V190.635ZM19.1317 186.532C18.8934 186.532 18.6501 186.42 18.4993 186.212C17.2103 184.417 15.9699 182.564 14.8024 180.697C14.5786 180.333 14.6856 179.858 15.0505 179.63C15.4153 179.407 15.892 179.514 16.1158 179.877C17.2589 181.711 18.4847 183.539 19.7544 185.305C20.0024 185.654 19.9246 186.139 19.5744 186.386C19.4382 186.483 19.2777 186.532 19.122 186.532H19.1317ZM204.247 179.848C204.111 179.848 203.97 179.814 203.848 179.737C203.478 179.518 203.361 179.038 203.585 178.674C204.709 176.817 205.784 174.896 206.776 172.976C206.976 172.597 207.438 172.447 207.822 172.641C208.202 172.84 208.352 173.301 208.158 173.684C207.146 175.633 206.056 177.583 204.913 179.47C204.767 179.708 204.509 179.843 204.252 179.843L204.247 179.848ZM12.1659 175.372C11.8886 175.372 11.6211 175.226 11.48 174.959C10.439 173.014 9.45155 171.016 8.54677 169.013C8.37165 168.62 8.54677 168.164 8.93592 167.99C9.32994 167.815 9.78719 167.99 9.96717 168.378C10.8574 170.347 11.8254 172.316 12.8518 174.232C13.0561 174.605 12.9101 175.081 12.5356 175.279C12.4188 175.342 12.2972 175.372 12.1707 175.372H12.1659ZM210.288 168.155C210.186 168.155 210.084 168.135 209.982 168.087C209.588 167.917 209.408 167.461 209.578 167.068C210.444 165.075 211.247 163.033 211.976 160.991C212.122 160.589 212.565 160.375 212.969 160.521C213.372 160.661 213.586 161.103 213.441 161.505C212.701 163.581 211.884 165.657 211.008 167.679C210.882 167.97 210.595 168.15 210.293 168.15L210.288 168.155ZM6.76153 163.392C6.44534 163.392 6.14861 163.198 6.03187 162.887C5.26329 160.826 4.55795 158.716 3.9353 156.607C3.81369 156.194 4.04719 155.768 4.46066 155.646C4.87414 155.525 5.30221 155.758 5.42382 156.17C6.03673 158.246 6.73234 160.327 7.48632 162.354C7.63226 162.757 7.43281 163.203 7.02907 163.348C6.94151 163.382 6.84909 163.397 6.75666 163.397H6.76639L6.76153 163.392ZM214.696 155.748C214.627 155.748 214.554 155.738 214.486 155.719C214.073 155.603 213.83 155.176 213.946 154.768C214.53 152.683 215.046 150.549 215.484 148.429C215.566 148.012 215.98 147.741 216.398 147.828C216.816 147.915 217.089 148.323 217.006 148.74C216.563 150.898 216.033 153.066 215.445 155.186C215.347 155.525 215.036 155.753 214.696 155.753V155.748ZM3.03053 150.787C2.67543 150.787 2.35437 150.539 2.27168 150.18C1.79497 148.032 1.38636 145.835 1.06044 143.662C0.997204 143.24 1.28907 142.847 1.71227 142.784C2.13547 142.721 2.52949 143.012 2.59273 143.434C2.91378 145.573 3.31753 147.731 3.78451 149.85C3.87693 150.268 3.61426 150.685 3.19592 150.777C3.13754 150.787 3.08404 150.796 3.03053 150.796V150.787ZM217.347 142.866C217.313 142.866 217.279 142.866 217.24 142.857C216.816 142.798 216.52 142.41 216.573 141.984C216.86 139.845 217.079 137.657 217.22 135.489C217.244 135.063 217.614 134.738 218.042 134.767C218.47 134.796 218.796 135.16 218.767 135.586C218.626 137.783 218.402 140.01 218.11 142.182C218.057 142.57 217.726 142.852 217.342 142.852V142.861L217.347 142.866ZM1.07503 137.783C0.676152 137.783 0.335646 137.478 0.301595 137.07C0.126476 134.878 0.024322 132.652 0 130.445C0 130.018 0.335645 129.669 0.768577 129.664C1.20151 129.64 1.54688 129.999 1.55175 130.431C1.57607 132.604 1.67822 134.796 1.84848 136.949C1.88253 137.376 1.56634 137.749 1.13827 137.783H1.07017H1.07503ZM218.198 129.752C217.77 129.752 217.42 129.407 217.42 128.981C217.41 126.808 217.332 124.62 217.176 122.462C217.147 122.035 217.468 121.662 217.896 121.633C218.329 121.604 218.694 121.924 218.728 122.35C218.889 124.543 218.966 126.774 218.981 128.981C218.981 129.407 218.636 129.757 218.208 129.757H218.198V129.752ZM0.924238 124.635H0.875595C0.447527 124.611 0.116747 124.242 0.145934 123.82C0.272408 121.623 0.476714 119.397 0.753985 117.219C0.807493 116.792 1.19665 116.492 1.61985 116.55C2.04792 116.603 2.34464 116.991 2.29114 117.413C2.01873 119.557 1.81929 121.744 1.69768 123.907C1.67336 124.32 1.33285 124.64 0.924238 124.64V124.635ZM217.244 116.632C216.865 116.632 216.529 116.351 216.476 115.968C216.169 113.824 215.79 111.661 215.333 109.546C215.245 109.129 215.513 108.717 215.931 108.63C216.349 108.542 216.763 108.809 216.85 109.226C217.308 111.38 217.702 113.572 218.013 115.754C218.076 116.176 217.775 116.569 217.352 116.627C217.313 116.627 217.279 116.637 217.244 116.637V116.632ZM2.57327 111.593C2.52463 111.593 2.47112 111.593 2.42248 111.578C2.00414 111.496 1.72687 111.089 1.80956 110.667C2.23763 108.508 2.74353 106.34 3.32239 104.211C3.43427 103.799 3.86234 103.552 4.27095 103.663C4.68442 103.775 4.93251 104.201 4.82063 104.614C4.25149 106.709 3.75532 108.843 3.33212 110.967C3.25915 111.336 2.9381 111.588 2.57327 111.588V111.593ZM214.501 103.779C214.165 103.779 213.854 103.561 213.757 103.217C213.163 101.141 212.482 99.0555 211.743 97.0184C211.597 96.6159 211.806 96.1697 212.21 96.029C212.614 95.8835 213.061 96.0921 213.202 96.4946C213.956 98.5656 214.642 100.685 215.25 102.795C215.367 103.207 215.128 103.634 214.72 103.75C214.652 103.77 214.574 103.779 214.506 103.779H214.501ZM6.00754 98.8954C5.91998 98.8954 5.83729 98.8809 5.7546 98.8518C5.35085 98.7111 5.13195 98.2698 5.27302 97.8672C5.99295 95.7865 6.79558 93.7058 7.65658 91.6736C7.82197 91.2808 8.27922 91.0965 8.67324 91.2614C9.06726 91.4263 9.2521 91.8822 9.08671 92.2751C8.23544 94.2781 7.44741 96.3249 6.73721 98.3716C6.62532 98.6917 6.32373 98.8954 6.00268 98.8954H6.00754ZM210.016 91.4311C209.719 91.4311 209.432 91.2565 209.306 90.9704C208.43 88.9916 207.477 87.0176 206.47 85.0921C206.27 84.7138 206.416 84.2433 206.796 84.0493C207.175 83.8505 207.647 83.996 207.846 84.3743C208.873 86.324 209.841 88.3319 210.731 90.3447C210.906 90.7376 210.731 91.1935 210.337 91.3681C210.235 91.4166 210.128 91.436 210.021 91.436L210.016 91.4311ZM11.1492 86.7799C11.0325 86.7799 10.9109 86.7508 10.799 86.6926C10.4147 86.4986 10.2639 86.033 10.4585 85.6498C11.4508 83.6904 12.5259 81.7358 13.6544 79.8346C13.8733 79.466 14.35 79.3447 14.7197 79.563C15.0894 79.7812 15.211 80.2565 14.9921 80.6251C13.883 82.4924 12.8226 84.4179 11.8448 86.3483C11.7086 86.6199 11.4314 86.7751 11.1492 86.7751V86.7799ZM203.901 79.7909C203.639 79.7909 203.386 79.66 203.235 79.4175C202.106 77.5744 200.895 75.7411 199.635 73.9611C199.387 73.6119 199.47 73.1269 199.82 72.8796C200.17 72.6322 200.657 72.7147 200.905 73.0639C202.184 74.8681 203.41 76.7305 204.558 78.6027C204.782 78.9664 204.665 79.4417 204.3 79.6697C204.174 79.7473 204.033 79.7812 203.897 79.7812L203.901 79.7909ZM17.867 75.4695C17.7162 75.4695 17.5654 75.4258 17.4292 75.3337C17.0741 75.096 16.9865 74.611 17.2249 74.257C18.4702 72.443 19.7933 70.6485 21.1553 68.917C21.418 68.5775 21.9093 68.5242 22.2449 68.7861C22.5806 69.048 22.639 69.5378 22.3763 69.8725C21.0337 71.5797 19.73 73.3549 18.5042 75.1348C18.3534 75.3579 18.1102 75.4695 17.8621 75.4695H17.867ZM196.298 69.0431C196.075 69.0431 195.846 68.9461 195.695 68.757C194.333 67.074 192.893 65.4104 191.419 63.805C191.127 63.4898 191.152 62.9999 191.468 62.7089C191.784 62.4179 192.275 62.4422 192.567 62.7574C194.061 64.3822 195.525 66.0749 196.906 67.7821C197.174 68.1168 197.125 68.6018 196.79 68.8685C196.644 68.9849 196.473 69.0383 196.303 69.0383L196.298 69.0431ZM26.0003 65.1291C25.8154 65.1291 25.6306 65.0612 25.4846 64.9303C25.1636 64.6441 25.1344 64.1543 25.4214 63.839C26.8856 62.1997 28.4276 60.5846 29.9988 59.0374C30.3053 58.7367 30.7966 58.7416 31.0982 59.0471C31.3998 59.3527 31.3949 59.8425 31.0884 60.1432C29.5415 61.6662 28.019 63.257 26.5791 64.8721C26.4235 65.0418 26.2143 65.134 26.0003 65.134V65.1291ZM187.372 59.3478C187.178 59.3478 186.983 59.2751 186.832 59.1296C185.266 57.626 183.627 56.1516 181.963 54.7451C181.637 54.4686 181.593 53.9788 181.875 53.6538C182.153 53.3289 182.644 53.2852 182.97 53.5665C184.653 54.9924 186.317 56.4911 187.907 58.0092C188.219 58.305 188.223 58.7949 187.932 59.1053C187.781 59.2654 187.576 59.343 187.372 59.343V59.3478ZM35.374 55.8994C35.1551 55.8994 34.941 55.8121 34.7854 55.6326C34.5033 55.3125 34.5373 54.8178 34.8583 54.5414C36.5171 53.1009 38.244 51.6895 39.9903 50.346C40.3308 50.089 40.8172 50.1472 41.0751 50.4916C41.3377 50.8311 41.2745 51.3161 40.934 51.578C39.212 52.902 37.5094 54.294 35.875 55.7102C35.7291 55.8363 35.5442 55.8994 35.3643 55.8994H35.374ZM177.303 50.8408C177.137 50.8408 176.977 50.7923 176.836 50.6856C175.094 49.3906 173.285 48.1247 171.466 46.9316C171.11 46.6939 171.008 46.2138 171.247 45.8597C171.485 45.5057 171.967 45.4038 172.322 45.6366C174.17 46.8491 176.004 48.1296 177.77 49.4488C178.11 49.7058 178.183 50.186 177.925 50.5304C177.775 50.7341 177.541 50.8408 177.303 50.8408ZM45.813 47.8968C45.5649 47.8968 45.3217 47.7755 45.1709 47.5572C44.9277 47.2032 45.025 46.723 45.3752 46.4805C47.1945 45.2486 49.0819 44.0555 50.979 42.94C51.3487 42.7217 51.8254 42.843 52.0443 43.2116C52.2632 43.5802 52.1416 44.0555 51.7719 44.2737C49.904 45.3796 48.0458 46.5533 46.2459 47.7658C46.1146 47.8531 45.9638 47.8968 45.813 47.8968ZM166.265 43.6093C166.134 43.6093 166.003 43.5753 165.881 43.5074C163.999 42.4259 162.053 41.3879 160.102 40.4276C159.718 40.2385 159.562 39.7729 159.752 39.3897C159.942 39.0065 160.409 38.8513 160.793 39.0405C162.768 40.0202 164.743 41.0727 166.65 42.1688C167.024 42.3822 167.151 42.8527 166.937 43.2261C166.791 43.4735 166.533 43.6141 166.261 43.6141L166.265 43.6093ZM57.1519 41.1988C56.8698 41.1988 56.6023 41.0436 56.4612 40.7817C56.2617 40.4034 56.4125 39.9329 56.7968 39.7389C58.7523 38.7349 60.771 37.7746 62.7898 36.8822C63.1838 36.7076 63.6411 36.8822 63.8162 37.2751C63.9913 37.6679 63.8162 38.1238 63.4222 38.2984C61.4277 39.1763 59.4431 40.1269 57.507 41.1163C57.3952 41.1745 57.2687 41.2036 57.1519 41.2036V41.1988ZM154.455 37.7504C154.353 37.7504 154.25 37.731 154.153 37.6873C152.154 36.8386 150.101 36.0383 148.048 35.3059C147.645 35.1653 147.435 34.7191 147.581 34.3165C147.722 33.914 148.17 33.7054 148.574 33.8461C150.651 34.5881 152.738 35.3981 154.761 36.2614C155.155 36.4263 155.34 36.8871 155.175 37.2751C155.048 37.5709 154.761 37.7455 154.46 37.7455L154.455 37.7504ZM69.2157 35.8782C68.8995 35.8782 68.6076 35.6842 68.4909 35.3738C68.3401 34.9761 68.5444 34.5251 68.9433 34.3796C71.0106 33.6132 73.1267 32.8906 75.2329 32.2455C75.6464 32.1194 76.0745 32.3522 76.2058 32.7548C76.3323 33.167 76.0988 33.5987 75.6951 33.7248C73.6131 34.365 71.5311 35.0731 69.4881 35.8297C69.4005 35.8637 69.3032 35.8782 69.2157 35.8782ZM142.036 33.3174C141.963 33.3174 141.89 33.3077 141.817 33.2883C139.73 32.682 137.6 32.1243 135.474 31.6296C135.055 31.5326 134.793 31.1203 134.89 30.6983C134.987 30.2812 135.401 30.0193 135.824 30.1163C137.974 30.611 140.139 31.1785 142.25 31.7945C142.663 31.9157 142.897 32.3425 142.78 32.7548C142.678 33.0894 142.372 33.3125 142.036 33.3125V33.3174ZM81.8194 32.0079C81.4691 32.0079 81.1529 31.7702 81.0654 31.421C80.9632 31.0088 81.2162 30.5868 81.6345 30.4849C83.7748 29.9611 85.959 29.4955 88.1285 29.093C88.5517 29.0154 88.9554 29.2967 89.0333 29.7138C89.1111 30.1357 88.829 30.5383 88.4106 30.6159C86.2703 31.0088 84.1154 31.4695 82.0042 31.9885C81.941 32.003 81.8777 32.0127 81.8194 32.0127V32.0079ZM129.184 30.354C129.14 30.354 129.097 30.354 129.053 30.3443C126.912 29.9805 124.733 29.6701 122.564 29.4276C122.136 29.3791 121.829 28.996 121.883 28.574C121.931 28.1472 122.316 27.8465 122.739 27.895C124.933 28.1424 127.146 28.4576 129.315 28.8262C129.739 28.899 130.021 29.2967 129.948 29.7186C129.88 30.0969 129.554 30.3588 129.184 30.3588V30.354ZM94.7879 29.6119C94.4036 29.6119 94.0679 29.3258 94.0193 28.9329C93.9658 28.5061 94.2674 28.1181 94.6906 28.0648C96.8747 27.7883 99.0977 27.5749 101.296 27.4197C101.72 27.3906 102.094 27.7155 102.123 28.1424C102.153 28.5692 101.827 28.9378 101.399 28.9669C99.2242 29.1172 97.0304 29.3306 94.8754 29.6022C94.8414 29.6022 94.8073 29.6119 94.7781 29.6119H94.7879ZM116.075 28.8747H116.031C113.355 28.7244 110.631 28.6662 107.956 28.7001C107.533 28.7147 107.173 28.3655 107.168 27.9386C107.168 27.5118 107.508 27.1578 107.931 27.1529C110.646 27.119 113.404 27.1772 116.113 27.3275C116.542 27.3518 116.872 27.7204 116.848 28.1424C116.824 28.5546 116.483 28.8747 116.07 28.8747H116.075Z" fill="#969696"/>
<path d="M13.3671 170.139C13.3671 170.139 29.27 154.236 31.0121 150.508C32.7542 146.781 37.8443 138.454 44.5549 128.518C51.2654 118.576 81.7038 87.0182 82.4483 85.1544C83.1928 83.2906 87.9131 80.4341 90.7745 76.0837C93.631 71.7333 96.8621 62.7891 101.709 66.6432C106.556 70.4973 106.677 81.3052 96.3658 96.2154C86.0542 111.126 86.5506 111.997 86.5506 111.997C85.3291 111.68 108.921 88.5024 113.51 85.1593C117.432 82.3028 130.099 65.5921 131.957 63.7916C133.816 61.9911 143.14 62.176 140.342 70.7503C137.549 79.3246 122.366 102.722 120.133 104.381C117.899 106.04 105.967 118.547 105.967 119.126C105.967 119.705 107.957 122.522 108.702 122.109C109.446 121.695 124.191 109.023 125.845 106.868C127.5 104.712 146.303 72.9888 149.038 72.1615C151.773 71.3343 164.196 72.9061 158.561 84.916C158.561 84.916 157.924 84.4196 156.887 84.0936C154.756 83.4171 150.946 83.4512 147.544 89.972C147.544 89.972 146.177 95.1399 144.731 99.6363C143.899 102.23 143.043 104.595 142.405 105.627C141.306 107.403 138.858 112.444 136.824 116.216C136.035 117.676 135.315 118.941 134.756 119.758C134.468 120.177 134.225 120.474 134.04 120.62C132.551 121.778 120.707 130.892 118.716 132.133C116.726 133.374 120.123 133.209 120.371 132.547C120.619 131.885 133.159 121.043 134.274 119.695C135.388 118.347 143.87 103.807 144.712 100.95C145.554 98.0938 146.873 78.4195 159.588 85.2955C159.588 85.2955 163.977 89.2712 161.578 95.2373C159.179 101.203 158.143 104.97 158.143 104.97C158.143 104.97 153.588 97.2665 146.629 105.632C145.714 105.49 140.488 119.773 139.009 121.204C137.189 122.96 121.198 139.841 120.785 141.744C120.371 143.647 135.32 124.805 137.121 123.354C138.921 121.904 146.172 103.962 149.865 102.41C153.559 100.858 159.496 102.722 158.936 108.094C158.936 108.094 155.072 117.267 154.576 119.875C154.079 122.483 136.975 149.029 131.758 153.258C126.541 157.486 117.344 174.752 100.823 179.35C84.2975 183.949 75.8497 189.414 72.6185 193.389C69.3873 197.365 51.3725 217.988 48.516 218.363C45.6595 218.738 24.4135 198.236 19.9414 187.175C19.9414 187.175 10.8707 176.615 13.3574 170.153L13.3671 170.139Z" fill="#EDBBAE"/>
<path d="M99.4319 69.8307C99.4319 69.8307 77.8939 107.768 68.4534 115.885C59.0129 124.002 39.7961 144.708 41.1197 150.012C42.4433 155.316 82.8672 156.562 85.6799 140.615C88.4926 124.668 89.5729 114.727 87.6264 111.914C85.6799 109.096 102.269 90.1716 103.315 83.0571C103.846 79.461 107.486 72.4877 101.184 66.2783C101.184 66.2783 100.259 68.3951 99.4319 69.8355V69.8307Z" fill="#A97867"/>
<path d="M33.3299 202.523C33.3299 202.523 56.8534 180.489 62.3181 177.842C67.7829 175.194 118.032 168.946 120.368 166.333C122.703 163.72 112.762 179.253 86.2114 184.431C86.2114 184.431 75.1699 187.895 67.6856 199.146C60.2013 210.397 50.1671 218.776 47.9043 218.353C45.043 217.818 31.6803 204.81 31.8652 203.857C31.9333 203.506 33.3251 202.528 33.3251 202.528L33.3299 202.523Z" fill="#A97867"/>
<path d="M159.863 77.8696C159.863 77.8696 151.323 79.6263 146.948 91.3345C142.573 103.043 137.668 113.111 133.502 115.281C129.337 117.452 118.719 132.119 118.719 132.119C118.719 132.119 132.685 121.603 133.799 120.177C134.914 118.751 144.062 103.894 144.646 99.8894C145.186 96.1667 146.403 89.4708 151.556 84.6726C151.556 84.6726 155.97 82.4682 158.564 84.9062C159.537 84.9305 160.364 79.4171 159.863 77.8696Z" fill="#A97867"/>
<path d="M156.288 100.644C156.288 100.644 145.85 98.9066 142.288 112.157C138.725 125.408 120.336 139.739 120.336 139.739L120.793 141.73C120.793 141.73 141.334 119.637 150.531 103.729C150.531 103.729 155.772 99.6511 158.152 104.95C158.152 104.95 158.254 102.59 156.288 100.644Z" fill="#A97867"/>
<path d="M193.462 90.1524H135.563C130.459 90.1524 126.317 86.0064 126.312 80.9017V53.5339C126.312 48.4292 130.459 44.2881 135.563 44.2832H193.462C198.567 44.2832 202.708 48.4292 202.713 53.5339V80.8968C202.713 86.0015 198.567 90.1427 193.462 90.1476V90.1524Z" fill="#4285F4"/>
<path d="M135.524 70.5513L139.812 69.9333C139.987 70.926 140.473 71.437 141.247 71.437C142.22 71.437 142.639 70.6632 142.639 69.7776V59.3735H147.057V69.6024C147.057 72.9406 144.848 75.3932 141.354 75.3932C138.327 75.3932 136.162 73.5586 135.52 70.5562H135.524V70.5513Z" fill="white"/>
<path d="M148.934 67.2373C148.934 62.4879 152.647 58.9307 157.44 58.9307C162.233 58.9307 165.902 62.3127 165.902 67.1935C165.902 72.0744 162.214 75.5002 157.396 75.5002C152.578 75.5002 148.934 72.0987 148.934 67.2373ZM157.42 71.4369C159.785 71.4369 161.333 69.5585 161.333 67.2179C161.333 64.8772 159.853 62.9988 157.42 62.9988C154.987 62.9988 153.508 64.8772 153.508 67.2179C153.508 69.5585 154.987 71.4369 157.42 71.4369Z" fill="white"/>
<path d="M174.131 59.3735C176.759 59.3735 179.591 60.3906 179.591 63.505C179.591 64.9405 178.949 66.0695 177.688 66.7751C179.348 67.3931 180.253 68.8092 180.253 70.5562C180.253 73.8701 177.138 75.0623 174.243 75.0623H167.902V59.3735H174.131ZM173.732 65.5391C174.662 65.5391 175.392 65.14 175.392 64.123C175.392 63.106 174.686 62.6875 173.732 62.6875H171.985V65.5391H173.732ZM174.175 71.7484C175.236 71.7484 176.029 71.3056 176.029 70.1571C176.029 69.651 175.873 69.252 175.567 68.9649C175.236 68.7021 174.773 68.5659 174.175 68.5659H171.985V71.7484H174.175Z" fill="white"/>
<path d="M185.312 70.264C185.624 71.2129 186.441 71.8747 187.454 71.8747C188.247 71.8747 189.2 71.5195 189.2 70.5949C189.2 70.3078 189.132 70.0645 188.982 69.865C188.582 69.3589 187.371 69.1156 186.772 69.0037L186.31 68.9161C183.857 68.4732 181.648 66.8625 181.648 64.1423C181.648 60.9403 184.543 59.0376 187.57 59.0376C190.334 59.0376 192.607 60.4537 193.274 63.281L189.298 64.0547C189.079 63.169 188.412 62.551 187.488 62.551C186.758 62.551 185.94 62.9501 185.94 63.7871C185.94 64.0498 186.008 64.2737 186.159 64.4489C186.315 64.6484 186.558 64.8041 186.889 64.9112C187.22 65.0425 187.663 65.1545 188.237 65.2664L188.68 65.354C191.22 65.8601 193.517 67.3199 193.517 70.1716C193.517 73.5098 190.534 75.3882 187.395 75.3882C184.524 75.3882 181.979 73.9721 181.254 71.0134L185.322 70.264H185.312Z" fill="white"/>
<path d="M116.816 45.8692H59.1609C54.0659 45.8692 49.915 41.7135 49.9102 36.6185V9.25073C49.915 4.15578 54.0659 0.00486625 59.1609 0H117.059C122.154 0 126.305 4.15578 126.31 9.25073V36.6136C126.305 41.7086 122.154 45.8595 117.059 45.8644H116.816V45.8692ZM59.1609 0.486625C54.3336 0.486625 50.4016 4.42342 50.3968 9.25073V36.6185C50.3968 41.4458 54.3336 45.3777 59.1609 45.3826H117.059C121.887 45.3729 125.819 41.441 125.824 36.6136V9.25073C125.824 4.42342 121.887 0.491491 117.059 0.486625H59.1609Z" fill="#4285F4"/>
<path d="M65.9697 26.2193L70.2569 25.6013C70.4321 26.594 70.9187 27.1049 71.6924 27.1049C72.6657 27.1049 73.0842 26.3312 73.0842 25.4455V15.0415H77.5027V25.2704C77.5027 28.6086 75.2934 31.0612 71.7995 31.0612C68.7727 31.0612 66.6072 29.2266 65.9648 26.2241L65.9697 26.2193Z" fill="#8AB3F9"/>
<path d="M79.3828 22.9053C79.3828 18.1559 83.0957 14.5986 87.889 14.5986C92.6823 14.5986 96.3514 17.9807 96.3514 22.8615C96.3514 27.7424 92.6628 31.1682 87.8452 31.1682C83.0276 31.1682 79.3828 27.7667 79.3828 22.9053ZM87.8695 27.1049C90.2345 27.1049 91.782 25.2265 91.782 22.8858C91.782 20.5452 90.3027 18.6668 87.8695 18.6668C85.4364 18.6668 83.9571 20.5452 83.9571 22.8858C83.9571 25.2265 85.4364 27.1049 87.8695 27.1049Z" fill="#8AB3F9"/>
<path d="M104.58 15.0415C107.208 15.0415 110.04 16.0585 110.04 19.1729C110.04 20.6085 109.398 21.7375 108.138 22.4431C109.797 23.0611 110.702 24.4772 110.702 26.2241C110.702 29.538 107.588 30.7303 104.692 30.7303H98.3516V15.0415H104.58ZM104.181 21.207C105.111 21.207 105.841 20.808 105.841 19.791C105.841 18.7739 105.135 18.3554 104.181 18.3554H102.434V21.207H104.181ZM104.624 27.4164C105.685 27.4164 106.478 26.9735 106.478 25.8251C106.478 25.319 106.322 24.92 106.016 24.6329C105.685 24.3701 105.223 24.2338 104.624 24.2338H102.434V27.4164H104.624Z" fill="#8AB3F9"/>
<path d="M246.506 141.004H188.607C183.376 141.004 179.118 136.741 179.113 131.51V104.142C179.113 98.9113 183.376 94.6533 188.607 94.6484H246.506C251.737 94.6484 255.995 98.9113 256 104.142V131.505C255.995 136.654 251.869 140.863 246.749 140.995L246.506 141.004ZM188.607 95.1351C183.644 95.1351 179.605 99.1789 179.6 104.142V131.51C179.6 136.474 183.644 140.513 188.607 140.518H246.263H246.506C251.469 140.518 255.508 136.474 255.513 131.51V104.147C255.513 99.1838 251.469 95.1448 246.506 95.1399H188.607V95.1351Z" fill="#4285F4"/>
<path d="M195.411 121.111L199.698 120.493C199.873 121.486 200.36 121.997 201.134 121.997C202.107 121.997 202.526 121.223 202.526 120.338V109.934H206.944V120.162C206.944 123.501 204.735 125.953 201.241 125.953C198.214 125.953 196.049 124.119 195.406 121.116H195.411V121.111Z" fill="#BCD5FE"/>
<path d="M208.824 117.797C208.824 113.048 212.537 109.491 217.33 109.491C222.124 109.491 225.793 112.873 225.793 117.754C225.793 122.634 222.104 126.06 217.287 126.06C212.469 126.06 208.824 122.659 208.824 117.797ZM217.311 121.997C219.676 121.997 221.223 120.119 221.223 117.778C221.223 115.437 219.744 113.559 217.311 113.559C214.878 113.559 213.398 115.437 213.398 117.778C213.398 120.119 214.878 121.997 217.311 121.997Z" fill="#BCD5FE"/>
<path d="M234.022 109.934C236.65 109.934 239.482 110.951 239.482 114.065C239.482 115.501 238.839 116.63 237.579 117.335C239.238 117.953 240.144 119.369 240.144 121.116C240.144 124.43 237.029 125.622 234.134 125.622H227.793V109.934H234.022ZM233.623 116.099C234.552 116.099 235.282 115.7 235.282 114.683C235.282 113.666 234.577 113.248 233.623 113.248H231.876V116.099H233.623ZM234.066 122.308C235.126 122.308 235.92 121.866 235.92 120.717C235.92 120.211 235.764 119.812 235.457 119.525C235.126 119.262 234.664 119.126 234.066 119.126H231.876V122.308H234.066Z" fill="#BCD5FE"/>
<path d="M140.535 70.7214C140.219 71.6946 139.742 72.8528 139.143 74.1521C134.467 84.3177 122.306 102.887 120.325 104.352C119.839 104.712 118.885 105.593 117.698 106.751C113.445 110.907 106.165 118.644 106.165 119.097C106.165 119.394 106.685 120.274 107.289 121.004L101.152 126.673C101.152 126.673 82.0319 159.37 73.989 164.114C65.9462 168.858 40.9618 167.467 15.1172 168.548C19.161 164.445 29.8035 153.496 31.205 150.489C32.9422 146.761 38.0372 138.435 44.7478 128.498C51.4583 118.557 81.8967 86.999 82.6412 85.1352C83.3858 83.2714 88.1109 80.4149 90.9674 76.0645C93.7217 71.8795 96.8215 63.4171 101.376 66.2541C101.551 66.3612 101.727 66.4829 101.902 66.624C105.167 69.2177 106.286 74.9696 103.513 83.0038C103.513 83.0135 103.508 83.0232 103.508 83.033C102.671 85.4564 101.478 88.089 99.8823 90.9066C99.8677 90.9309 99.8531 90.9552 99.8385 90.9844C98.8945 92.6584 97.7996 94.3957 96.5587 96.1913C93.6195 100.44 91.5562 103.549 90.1109 105.826C90.072 105.89 90.033 105.948 89.9941 106.011C87.707 109.627 87.0208 111.063 86.8165 111.622C86.9868 111.335 87.3323 110.887 87.8335 110.299C87.8335 110.299 87.8384 110.299 87.8384 110.289C92.4759 104.853 109.834 87.9576 113.702 85.1352C117.625 82.2787 130.292 65.568 132.155 63.7675C134.019 61.9621 143.338 62.1519 140.54 70.7214H140.535Z" fill="#E3AFA2"/>
<path d="M99.6155 69.8112C99.6155 69.8112 78.0775 107.748 68.637 115.865C59.1965 123.982 39.9797 144.688 41.3033 149.992C42.6269 155.296 83.0508 156.542 85.8635 140.596C88.6762 124.649 89.7565 114.707 87.81 111.894C85.8635 109.082 102.453 90.1521 103.499 83.0376C104.029 79.4414 107.669 72.4681 101.367 66.2588C101.367 66.2588 100.443 68.3756 99.6155 69.816V69.8112Z" fill="#CB9E8E"/>
<path d="M210.7 59.8557L201.371 54.5417L192.043 59.8557L194.126 49.1937L186.281 41.8116L196.899 40.5318L201.357 30.6582L205.834 40.5318L216.452 41.8116L208.608 49.1937L210.69 59.8557H210.705H210.7Z" fill="#F5A937"/>
</svg>
