<svg width="257" height="228" viewBox="0 0 257 228" fill="none" xmlns="http://www.w3.org/2000/svg">
<path d="M127.841 227.45H127.802C125.633 227.45 123.434 227.394 121.277 227.291C120.802 227.269 120.435 226.864 120.456 226.386C120.478 225.912 120.884 225.542 121.364 225.568C123.494 225.671 125.663 225.727 127.806 225.727C128.087 225.727 128.372 225.727 128.658 225.727H128.662C129.137 225.727 129.522 226.11 129.526 226.584C129.526 227.058 129.146 227.45 128.666 227.45C128.39 227.45 128.117 227.45 127.841 227.45ZM135.999 227.196C135.545 227.196 135.165 226.843 135.139 226.386C135.109 225.912 135.472 225.503 135.947 225.473C138.367 225.322 140.812 225.098 143.21 224.814C143.686 224.758 144.114 225.094 144.17 225.568C144.226 226.042 143.889 226.468 143.414 226.524C140.981 226.813 138.505 227.041 136.051 227.192C136.033 227.192 136.016 227.192 135.994 227.192L135.999 227.196ZM114.001 226.726C113.971 226.726 113.94 226.726 113.91 226.722C111.469 226.464 109.002 226.132 106.586 225.736C106.115 225.658 105.795 225.214 105.873 224.745C105.951 224.275 106.396 223.961 106.867 224.034C109.252 224.426 111.685 224.753 114.096 225.008C114.571 225.059 114.913 225.482 114.865 225.955C114.818 226.399 114.442 226.726 114.005 226.726H114.001ZM150.573 225.456C150.163 225.456 149.8 225.163 149.722 224.745C149.64 224.275 149.951 223.827 150.422 223.745C152.807 223.323 155.21 222.824 157.56 222.264C158.023 222.152 158.489 222.44 158.602 222.901C158.714 223.362 158.424 223.827 157.962 223.939C155.577 224.504 153.144 225.012 150.725 225.438C150.673 225.447 150.621 225.451 150.573 225.451V225.456ZM99.5171 224.349C99.4523 224.349 99.3918 224.34 99.327 224.327C96.9289 223.793 94.5178 223.177 92.1629 222.509C91.7048 222.38 91.437 221.902 91.5709 221.445C91.7049 220.988 92.1801 220.721 92.6382 220.855C94.9628 221.518 97.3393 222.121 99.7029 222.651C100.17 222.755 100.463 223.216 100.355 223.681C100.265 224.081 99.9103 224.353 99.5128 224.353L99.5171 224.349ZM164.854 222.061C164.482 222.061 164.141 221.82 164.029 221.449C163.89 220.993 164.15 220.515 164.608 220.377C166.928 219.683 169.257 218.908 171.526 218.081C171.975 217.917 172.472 218.145 172.636 218.593C172.8 219.041 172.571 219.537 172.122 219.7C169.819 220.54 167.46 221.324 165.105 222.027C165.023 222.052 164.936 222.065 164.854 222.065V222.061ZM85.4006 220.325C85.3055 220.325 85.2105 220.308 85.1154 220.278C82.7994 219.468 80.4747 218.58 78.2106 217.637C77.7698 217.452 77.5624 216.948 77.7439 216.508C77.9297 216.069 78.4352 215.862 78.876 216.047C81.1099 216.978 83.4 217.852 85.6858 218.649C86.1352 218.809 86.3728 219.3 86.2173 219.748C86.0919 220.101 85.7592 220.325 85.4006 220.325ZM178.638 217.034C178.305 217.034 177.985 216.84 177.843 216.517C177.653 216.082 177.856 215.573 178.292 215.384C180.517 214.423 182.738 213.381 184.895 212.295C185.318 212.08 185.841 212.252 186.057 212.674C186.273 213.101 186.1 213.618 185.677 213.833C183.49 214.936 181.239 215.991 178.983 216.965C178.871 217.012 178.754 217.038 178.642 217.038L178.638 217.034ZM71.8545 214.682C71.7292 214.682 71.5995 214.651 71.4742 214.595C69.2662 213.518 67.0625 212.364 64.9323 211.162C64.5175 210.929 64.3706 210.404 64.6039 209.986C64.8373 209.572 65.3644 209.426 65.7835 209.659C67.8878 210.843 70.057 211.985 72.2347 213.045C72.6625 213.256 72.8396 213.768 72.6322 214.199C72.481 214.505 72.1742 214.682 71.8545 214.682ZM191.739 210.421C191.441 210.421 191.151 210.266 190.991 209.995C190.749 209.585 190.892 209.056 191.302 208.814C193.389 207.599 195.468 206.307 197.477 204.972C197.875 204.709 198.41 204.817 198.674 205.209C198.938 205.605 198.83 206.139 198.436 206.402C196.401 207.755 194.293 209.068 192.175 210.301C192.037 210.382 191.89 210.417 191.739 210.417V210.421ZM59.0645 207.475C58.9046 207.475 58.7404 207.431 58.5978 207.337C56.5324 206.006 54.48 204.593 52.5053 203.141C52.1207 202.856 52.0386 202.318 52.3238 201.935C52.609 201.551 53.1491 201.469 53.5337 201.754C55.4824 203.184 57.5046 204.58 59.5398 205.894C59.9416 206.152 60.054 206.686 59.7947 207.087C59.6305 207.341 59.3497 207.479 59.0688 207.479L59.0645 207.475ZM203.928 202.314C203.669 202.314 203.41 202.197 203.237 201.973C202.947 201.594 203.025 201.056 203.405 200.767C205.337 199.307 207.242 197.773 209.07 196.205C209.433 195.895 209.978 195.938 210.289 196.296C210.6 196.657 210.557 197.2 210.198 197.51C208.344 199.1 206.408 200.659 204.451 202.137C204.296 202.253 204.11 202.314 203.928 202.314ZM47.2294 198.781C47.035 198.781 46.8362 198.717 46.6763 198.579C44.7881 197.006 42.9258 195.352 41.1455 193.672C40.7999 193.345 40.7826 192.798 41.111 192.453C41.4394 192.108 41.9838 192.091 42.3338 192.418C44.0881 194.077 45.9245 195.705 47.7868 197.256C48.1541 197.562 48.2016 198.105 47.8949 198.471C47.722 198.674 47.48 198.781 47.2294 198.781ZM215.046 192.785C214.821 192.785 214.597 192.698 214.428 192.526C214.095 192.186 214.104 191.639 214.445 191.307C216.182 189.623 217.881 187.865 219.501 186.082C219.821 185.728 220.369 185.702 220.724 186.021C221.078 186.34 221.104 186.887 220.784 187.236C219.142 189.045 217.414 190.829 215.651 192.539C215.482 192.703 215.266 192.785 215.046 192.785ZM36.5653 188.705C36.332 188.705 36.103 188.615 35.9345 188.429C34.2537 186.633 32.616 184.763 31.0648 182.872C30.7623 182.506 30.8185 181.963 31.1858 181.662C31.5531 181.36 32.0975 181.412 32.4 181.782C33.9296 183.643 35.5456 185.487 37.2005 187.258C37.5246 187.607 37.5073 188.149 37.1573 188.477C36.9888 188.632 36.7771 188.709 36.5697 188.709L36.5653 188.705ZM224.893 181.946C224.703 181.946 224.513 181.886 224.358 181.756C223.986 181.459 223.921 180.916 224.219 180.546C225.732 178.655 227.192 176.695 228.571 174.722C228.843 174.33 229.383 174.235 229.772 174.506C230.165 174.778 230.26 175.316 229.988 175.704C228.592 177.707 227.106 179.697 225.572 181.614C225.399 181.83 225.148 181.937 224.893 181.937V181.946ZM27.2624 177.38C26.9945 177.38 26.7266 177.255 26.5581 177.022C25.1235 175.028 23.7408 172.964 22.4445 170.888C22.1939 170.483 22.3149 169.953 22.7211 169.703C23.1272 169.453 23.6587 169.574 23.9093 169.979C25.184 172.021 26.5451 174.054 27.958 176.018C28.2346 176.406 28.1482 176.945 27.7593 177.22C27.608 177.328 27.4309 177.38 27.2581 177.38H27.2624ZM233.272 169.94C233.121 169.94 232.965 169.901 232.827 169.815C232.416 169.569 232.287 169.04 232.533 168.63C233.782 166.563 234.979 164.426 236.085 162.289C236.305 161.867 236.824 161.699 237.247 161.919C237.67 162.138 237.839 162.655 237.619 163.077C236.495 165.249 235.281 167.415 234.011 169.518C233.846 169.785 233.561 169.936 233.272 169.936V169.94ZM19.5106 164.956C19.2038 164.956 18.9014 164.792 18.7458 164.499C17.5878 162.332 16.4903 160.109 15.4835 157.882C15.2891 157.447 15.4835 156.939 15.9156 156.745C16.352 156.551 16.8619 156.745 17.0606 157.176C18.0501 159.368 19.1304 161.557 20.2711 163.689C20.4958 164.107 20.3359 164.633 19.9168 164.857C19.7871 164.926 19.6489 164.96 19.5106 164.96V164.956ZM239.995 156.93C239.878 156.93 239.766 156.909 239.654 156.857C239.217 156.667 239.014 156.159 239.204 155.724C240.168 153.505 241.062 151.231 241.87 148.96C242.03 148.512 242.523 148.276 242.972 148.435C243.422 148.594 243.659 149.085 243.499 149.533C242.678 151.842 241.767 154.151 240.79 156.405C240.648 156.728 240.332 156.926 239.995 156.926V156.93ZM13.4915 151.627C13.1415 151.627 12.8088 151.412 12.6792 151.067C11.8237 148.775 11.0416 146.423 10.3459 144.075C10.2119 143.619 10.4712 143.141 10.9292 143.007C11.3872 142.873 11.8669 143.132 12.0008 143.589C12.6835 145.898 13.457 148.211 14.2952 150.468C14.4594 150.916 14.2347 151.412 13.7854 151.575C13.686 151.614 13.5866 151.631 13.4829 151.631L13.4915 151.627ZM244.899 143.128C244.822 143.128 244.744 143.119 244.666 143.097C244.208 142.968 243.936 142.494 244.065 142.038C244.714 139.716 245.288 137.342 245.777 134.981C245.872 134.516 246.33 134.215 246.796 134.309C247.263 134.404 247.565 134.861 247.47 135.326C246.978 137.726 246.39 140.138 245.733 142.499C245.625 142.878 245.28 143.128 244.899 143.128ZM9.34344 137.605C8.94591 137.605 8.5916 137.329 8.50086 136.929C7.96938 134.538 7.51568 132.095 7.15272 129.674C7.08359 129.204 7.40766 128.765 7.87864 128.696C8.34962 128.627 8.79036 128.95 8.8595 129.42C9.21813 131.802 9.66319 134.202 10.186 136.558C10.2897 137.023 9.9959 137.484 9.52924 137.588C9.46443 137.601 9.40393 137.609 9.34344 137.609V137.605ZM247.851 128.795C247.812 128.795 247.773 128.795 247.734 128.787C247.263 128.722 246.93 128.291 246.991 127.817C247.31 125.435 247.552 123.001 247.712 120.593C247.743 120.119 248.153 119.757 248.628 119.787C249.104 119.818 249.467 120.227 249.436 120.701C249.277 123.148 249.03 125.62 248.706 128.041C248.646 128.472 248.278 128.787 247.851 128.787V128.795ZM7.16569 123.139C6.72063 123.139 6.34039 122.799 6.30582 122.346C6.11138 119.908 5.99471 117.431 5.96879 114.976C5.96447 114.502 6.34471 114.11 6.82433 114.105C7.30396 114.08 7.69284 114.48 7.69716 114.958C7.72309 117.375 7.83543 119.813 8.02988 122.213C8.06876 122.687 7.71445 123.105 7.23914 123.139C7.21754 123.139 7.19161 123.139 7.17001 123.139H7.16569ZM248.797 114.2C248.322 114.2 247.933 113.817 247.933 113.343C247.924 110.926 247.833 108.488 247.66 106.088C247.626 105.615 247.985 105.201 248.46 105.166C248.939 105.132 249.35 105.49 249.385 105.963C249.562 108.402 249.652 110.883 249.665 113.339C249.665 113.812 249.281 114.2 248.806 114.204L248.797 114.2ZM6.99717 108.509C6.99717 108.509 6.9626 108.509 6.94532 108.509C6.47002 108.484 6.10274 108.074 6.13298 107.6C6.27125 105.154 6.50026 102.681 6.80705 100.255C6.86754 99.7816 7.29963 99.4456 7.77062 99.5102C8.24592 99.5705 8.57863 100.001 8.51814 100.471C8.21568 102.857 7.99531 105.291 7.85704 107.7C7.83111 108.156 7.45087 108.514 6.99717 108.514V108.509ZM247.738 99.6093C247.315 99.6093 246.943 99.2991 246.883 98.8683C246.541 96.4818 246.118 94.078 245.612 91.7216C245.513 91.2563 245.811 90.7997 246.278 90.7006C246.744 90.6015 247.202 90.8988 247.302 91.364C247.812 93.7592 248.248 96.2018 248.594 98.6271C248.663 99.0967 248.33 99.5361 247.859 99.6007C247.816 99.605 247.777 99.6093 247.738 99.6093ZM8.83357 94.0004C8.7774 94.0004 8.72122 93.9961 8.66505 93.9832C8.19839 93.8927 7.89161 93.4404 7.98235 92.9708C8.45765 90.5713 9.02369 88.1546 9.66319 85.7853C9.7885 85.3243 10.2638 85.0529 10.7218 85.1779C11.1842 85.3028 11.4564 85.7767 11.3311 86.2333C10.7002 88.5639 10.1428 90.9418 9.67615 93.3026C9.59405 93.7118 9.23542 93.9961 8.82925 93.9961L8.83357 94.0004ZM244.683 85.3028C244.307 85.3028 243.962 85.0573 243.854 84.6782C243.193 82.3691 242.436 80.0472 241.615 77.7812C241.451 77.3332 241.685 76.8378 242.134 76.6784C242.583 76.5147 243.08 76.7473 243.24 77.1954C244.078 79.5001 244.843 81.8565 245.517 84.2043C245.647 84.6609 245.383 85.1391 244.925 85.2683C244.848 85.2899 244.765 85.3028 244.688 85.3028H244.683ZM12.6576 79.8662C12.5625 79.8662 12.4675 79.849 12.3767 79.8189C11.9274 79.6638 11.6854 79.1727 11.8409 78.7247C12.6403 76.4113 13.5347 74.0937 14.494 71.832C14.6798 71.3926 15.1854 71.1902 15.6261 71.3754C16.0668 71.5606 16.2699 72.0647 16.0841 72.5041C15.1378 74.7312 14.2607 77.0101 13.4699 79.289C13.3446 79.6465 13.0119 79.8706 12.6533 79.8706L12.6576 79.8662ZM239.697 71.5649C239.364 71.5649 239.049 71.3711 238.906 71.0523C237.934 68.851 236.871 66.6539 235.748 64.5129C235.527 64.0908 235.687 63.5695 236.111 63.3498C236.534 63.1301 237.057 63.2895 237.277 63.7117C238.418 65.8828 239.498 68.1186 240.488 70.3544C240.682 70.7895 240.483 71.2979 240.047 71.4917C239.935 71.5434 239.814 71.5649 239.697 71.5649ZM18.3828 66.3869C18.2532 66.3869 18.1193 66.3567 17.994 66.2921C17.5662 66.0767 17.3977 65.5597 17.6137 65.1333C18.7199 62.9535 19.9168 60.778 21.1699 58.6628C21.4118 58.2536 21.9433 58.12 22.3538 58.3613C22.7643 58.6025 22.8982 59.1324 22.6562 59.5416C21.4205 61.6223 20.2408 63.7634 19.1563 65.9087C19.0051 66.2102 18.6983 66.3825 18.3828 66.3825V66.3869ZM232.892 58.6068C232.602 58.6068 232.317 58.4604 232.153 58.1933C230.895 56.1427 229.547 54.1008 228.147 52.1234C227.871 51.7357 227.966 51.1972 228.355 50.9215C228.743 50.6458 229.284 50.7406 229.56 51.1283C230.982 53.1358 232.347 55.2079 233.626 57.2929C233.877 57.6979 233.747 58.2277 233.341 58.4776C233.198 58.5637 233.043 58.6025 232.892 58.6025V58.6068ZM25.8581 53.7949C25.6895 53.7949 25.521 53.7475 25.3698 53.6441C24.9766 53.377 24.8772 52.8386 25.1451 52.4465C26.5278 50.4304 28.0013 48.4316 29.5179 46.5016C29.8117 46.1269 30.3562 46.0622 30.7321 46.3552C31.108 46.6481 31.1728 47.1909 30.879 47.5657C29.3839 49.4655 27.9364 51.4385 26.571 53.4201C26.4025 53.6657 26.1346 53.7949 25.8581 53.7949ZM224.431 46.6438C224.18 46.6438 223.93 46.5361 223.757 46.325C222.24 44.4511 220.642 42.5987 219 40.8152C218.676 40.4663 218.702 39.9192 219.052 39.5961C219.402 39.273 219.95 39.2989 220.274 39.6478C221.938 41.4571 223.567 43.3397 225.105 45.2394C225.403 45.6099 225.347 46.1527 224.976 46.45C224.816 46.5792 224.626 46.6395 224.435 46.6395L224.431 46.6438ZM34.9104 42.2842C34.7073 42.2842 34.4999 42.211 34.3357 42.0645C33.9814 41.7457 33.9469 41.2029 34.2666 40.8497C35.8956 39.0275 37.611 37.2311 39.361 35.5079C39.7024 35.1719 40.2468 35.1762 40.5838 35.5165C40.9209 35.8569 40.9165 36.3996 40.5752 36.7357C38.8511 38.433 37.1616 40.2035 35.5586 41.9956C35.3857 42.1851 35.1524 42.2842 34.9148 42.2842H34.9104ZM214.497 35.8525C214.281 35.8525 214.065 35.7707 213.897 35.6113C212.151 33.9398 210.332 32.2985 208.478 30.7348C208.115 30.4289 208.068 29.8818 208.379 29.5199C208.686 29.1581 209.234 29.1107 209.597 29.4209C211.473 31.0062 213.322 32.6733 215.094 34.3663C215.439 34.698 215.448 35.2408 215.119 35.5855C214.951 35.7621 214.722 35.8482 214.497 35.8482V35.8525ZM45.3412 32.0099C45.0992 32.0099 44.8616 31.9108 44.6887 31.7127C44.3733 31.3551 44.4122 30.808 44.7708 30.4978C46.6159 28.8953 48.5387 27.3229 50.4831 25.8281C50.8633 25.5395 51.4035 25.6084 51.693 25.9875C51.9825 26.3666 51.9133 26.9051 51.5331 27.1937C49.6146 28.667 47.722 30.2135 45.9029 31.7945C45.7387 31.9367 45.5356 32.0056 45.3369 32.0056L45.3412 32.0099ZM203.289 26.3752C203.107 26.3752 202.926 26.3192 202.77 26.2029C200.834 24.7597 198.821 23.351 196.794 22.0242C196.397 21.7614 196.285 21.2273 196.548 20.8309C196.812 20.4346 197.347 20.3226 197.745 20.5854C199.802 21.9338 201.841 23.3597 203.807 24.8243C204.188 25.1087 204.27 25.6472 203.98 26.0306C203.812 26.2589 203.552 26.3752 203.289 26.3752ZM56.9559 23.0969C56.6793 23.0969 56.4071 22.9633 56.2386 22.7178C55.9707 22.3258 56.0744 21.7873 56.4676 21.5202C58.4941 20.1503 60.5941 18.8235 62.7027 17.5785C63.1132 17.3372 63.6447 17.4708 63.8867 17.88C64.1286 18.2893 63.9947 18.8191 63.5842 19.0604C61.5058 20.2881 59.4361 21.5977 57.4355 22.9461C57.2886 23.0452 57.1201 23.0926 56.9515 23.0926L56.9559 23.0969ZM191.004 18.3237C190.857 18.3237 190.711 18.285 190.577 18.2074C188.481 17.0055 186.316 15.851 184.147 14.7784C183.719 14.5673 183.546 14.0503 183.758 13.6238C183.97 13.1974 184.488 13.025 184.916 13.2361C187.115 14.326 189.311 15.4978 191.436 16.7169C191.851 16.9538 191.994 17.4794 191.756 17.893C191.596 18.1687 191.307 18.3237 191.004 18.3237ZM69.573 15.6399C69.2576 15.6399 68.9594 15.4676 68.8039 15.1747C68.5835 14.7525 68.752 14.2312 69.1755 14.0159C71.3532 12.8958 73.6001 11.8274 75.847 10.8366C76.2834 10.6428 76.7933 10.8409 76.9877 11.276C77.1822 11.7111 76.9834 12.2195 76.547 12.4133C74.3304 13.3912 72.118 14.4466 69.9662 15.5495C69.8409 15.6141 69.7026 15.6442 69.573 15.6442V15.6399ZM177.86 11.8059C177.748 11.8059 177.631 11.7844 177.523 11.737C175.298 10.7936 173.012 9.90182 170.73 9.08763C170.281 8.92824 170.048 8.43283 170.208 7.98481C170.368 7.53679 170.864 7.30416 171.314 7.46355C173.626 8.29067 175.946 9.19102 178.201 10.1517C178.642 10.3369 178.845 10.8452 178.659 11.2803C178.521 11.6077 178.201 11.8059 177.864 11.8059H177.86ZM82.9982 9.72089C82.6482 9.72089 82.3198 9.50549 82.1901 9.16086C82.0216 8.71715 82.2506 8.21744 82.6957 8.05374C84.9944 7.20078 87.3493 6.39951 89.6956 5.68009C90.1536 5.53793 90.6332 5.7964 90.7758 6.24873C90.9141 6.70537 90.6592 7.18785 90.2055 7.3257C87.8895 8.03651 85.5691 8.82485 83.3006 9.6692C83.2012 9.70797 83.0975 9.72519 82.9982 9.72519V9.72089ZM164.037 6.87337C163.955 6.87337 163.873 6.86045 163.795 6.83891C161.475 6.16257 159.103 5.54224 156.739 4.99513C156.273 4.88744 155.983 4.4265 156.091 3.96124C156.199 3.49599 156.661 3.20736 157.128 3.31506C159.522 3.86647 161.929 4.49542 164.279 5.18468C164.737 5.31823 165.001 5.7964 164.867 6.25304C164.755 6.62782 164.413 6.87337 164.037 6.87337ZM97.0239 5.413C96.635 5.413 96.2807 5.15022 96.1857 4.7582C96.0733 4.29726 96.3542 3.8277 96.8208 3.71569C99.2017 3.13413 101.634 2.61287 104.05 2.16485C104.521 2.07869 104.97 2.38886 105.057 2.85411C105.143 3.32367 104.832 3.77169 104.365 3.85785C101.984 4.29726 99.5862 4.8099 97.2356 5.38715C97.1665 5.40439 97.0974 5.413 97.0282 5.413H97.0239ZM149.735 3.57353C149.688 3.57353 149.636 3.57353 149.588 3.56061C147.207 3.15567 144.779 2.81104 142.368 2.53964C141.893 2.48794 141.551 2.06146 141.607 1.58759C141.659 1.11373 142.091 0.777712 142.562 0.829407C145.004 1.10511 147.467 1.45405 149.882 1.8633C150.353 1.94515 150.668 2.38886 150.586 2.85842C150.513 3.27628 150.15 3.57353 149.735 3.57353ZM111.456 2.74642C111.028 2.74642 110.656 2.42763 110.6 1.99254C110.54 1.51867 110.877 1.08788 111.348 1.02757C113.776 0.721706 116.252 0.480469 118.702 0.312461C119.173 0.277998 119.592 0.639861 119.622 1.11373C119.657 1.5876 119.294 2.00115 118.819 2.0313C116.399 2.19931 113.958 2.43625 111.56 2.7378C111.521 2.74211 111.486 2.74642 111.452 2.74642H111.456ZM135.148 1.92792C135.148 1.92792 135.113 1.92792 135.1 1.92792C132.123 1.75991 129.094 1.69529 126.112 1.73406C125.641 1.75129 125.244 1.35928 125.235 0.885411C125.231 0.411544 125.611 0.0195196 126.087 0.0109039C129.107 -0.0278671 132.179 0.0367565 135.191 0.204764C135.666 0.230611 136.033 0.639861 136.007 1.11373C135.982 1.57037 135.601 1.92792 135.143 1.92792H135.148Z" fill="#969696"/>
<path d="M254.762 154.836C254.003 153.871 252.923 153.155 251.625 152.827C251.546 152.803 251.467 152.785 251.382 152.767L166.105 134.563C165.705 134.479 165.292 134.436 164.88 134.436C164.685 134.436 164.485 134.436 164.291 134.466L68.9118 144.151C67.2371 144.32 65.7869 145.158 64.8343 146.426C64.3549 147.063 64.003 147.803 63.8088 148.629C63.6935 149.114 63.6389 149.593 63.645 150.067C63.6632 152.014 64.6522 153.823 66.3755 154.909L102.054 177.493C102.988 178.088 104.068 178.403 105.179 178.403C105.367 178.403 105.555 178.391 105.743 178.373L250.726 164.302C253.663 164.016 255.829 161.765 255.999 158.816C256.084 157.299 255.623 155.91 254.762 154.836ZM249.252 158.373L104.269 172.445C104.159 172.457 104.05 172.463 103.941 172.463C103.298 172.463 102.661 172.281 102.115 171.935L66.4301 149.345C66.3391 149.29 66.2541 149.229 66.1752 149.169C66.4908 147.858 67.5466 146.723 69.1545 146.566L164.54 136.881C164.655 136.869 164.77 136.863 164.88 136.863C165.122 136.863 165.359 136.887 165.596 136.936L250.872 155.139C250.872 155.139 250.884 155.139 250.89 155.139C251.788 155.333 252.158 156.45 251.582 157.166C251.066 157.809 250.284 158.27 249.252 158.373Z" fill="#494949"/>
<path d="M250.887 155.145C251.785 155.339 252.155 156.456 251.579 157.172C251.063 157.815 250.28 158.276 249.249 158.379L104.265 172.451C104.156 172.463 104.047 172.469 103.938 172.469C103.294 172.469 102.657 172.287 102.111 171.941L66.4267 149.351C66.3357 149.296 66.2508 149.235 66.1719 149.175C66.4874 147.864 67.5432 146.729 69.1512 146.571L164.536 136.887C164.652 136.875 164.767 136.869 164.876 136.869C165.119 136.869 165.356 136.893 165.592 136.942L250.869 155.145C250.869 155.145 250.881 155.145 250.887 155.145Z" fill="#919191"/>
<path d="M100.115 145.734L93.0585 146.45L92.3789 144.836L99.0231 144.162L100.115 145.734Z" fill="white"/>
<path d="M114.923 144.241L107.805 144.963L106.258 143.428L112.957 142.748L114.923 144.241Z" fill="white"/>
<path d="M122.638 143.464L115.485 144.186L113.488 142.693L120.217 142.008L122.638 143.464Z" fill="white"/>
<path d="M130.388 142.682L123.204 143.404L120.746 141.954L127.506 141.274L130.388 142.682Z" fill="white"/>
<path d="M138.184 141.893L130.963 142.621L128.051 141.219L134.835 140.527L138.184 141.893Z" fill="white"/>
<path d="M146.016 141.104L138.765 141.838L135.379 140.473L142.199 139.781L146.016 141.104Z" fill="white"/>
<path d="M153.885 140.309L146.597 141.049L142.738 139.726L149.589 139.035L153.885 140.309Z" fill="white"/>
<path d="M161.777 139.514L154.453 140.254L150.121 138.98L157.002 138.282L161.777 139.514Z" fill="white"/>
<path d="M169.721 138.713L162.366 139.453L157.555 138.222L164.466 137.524L169.721 138.713Z" fill="white"/>
<path d="M105.239 149.01L94.5784 150.078L93.5469 147.608L103.358 146.619L105.239 149.01Z" fill="white"/>
<path d="M115.302 148.009L107.25 148.81L105.211 146.437L112.614 145.691L115.302 148.009Z" fill="white"/>
<path d="M124.036 147.141L115.941 147.948L113.211 145.63L120.65 144.884L124.036 147.141Z" fill="white"/>
<path d="M132.815 146.261L124.684 147.074L121.25 144.823L128.725 144.071L132.815 146.261Z" fill="white"/>
<path d="M141.63 145.382L133.457 146.201L129.312 144.01L136.83 143.258L141.63 145.382Z" fill="white"/>
<path d="M150.508 144.496L142.286 145.315L137.426 143.197L144.98 142.439L150.508 144.496Z" fill="white"/>
<path d="M159.419 143.61L151.154 144.435L145.578 142.378L153.163 141.614L159.419 143.61Z" fill="white"/>
<path d="M168.387 142.712L160.08 143.543L153.77 141.553L161.397 140.788L168.387 142.712Z" fill="white"/>
<path d="M181.595 141.395L169.052 142.645L162.008 140.728L173.512 139.569L181.595 141.395Z" fill="white"/>
<path d="M108.83 153.591L96.5484 154.799L95.1953 151.571L106.366 150.46L108.83 153.591Z" fill="white"/>
<path d="M120.446 152.451L111.162 153.367L108.492 150.248L116.926 149.411L120.446 152.451Z" fill="white"/>
<path d="M130.526 151.461L121.188 152.378L117.602 149.344L126.084 148.506L130.526 151.461Z" fill="white"/>
<path d="M140.655 150.466L131.256 151.389L126.754 148.44L135.285 147.59L140.655 150.466Z" fill="white"/>
<path d="M150.859 149.465L141.405 150.394L135.969 147.524L144.549 146.674L150.859 149.465Z" fill="white"/>
<path d="M161.124 148.458L151.61 149.393L145.227 146.602L153.855 145.746L161.124 148.458Z" fill="white"/>
<path d="M171.454 147.439L161.879 148.379L154.543 145.679L163.22 144.817L171.454 147.439Z" fill="white"/>
<path d="M181.844 146.419L172.215 147.366L163.914 144.75L172.633 143.883L181.844 146.419Z" fill="white"/>
<path d="M197.162 144.914L182.606 146.346L173.328 143.816L186.501 142.505L197.162 144.914Z" fill="white"/>
<path d="M113.715 159.805L99.2313 161.2L97.3867 156.789L110.354 155.527L113.715 159.805Z" fill="white"/>
<path d="M127.426 158.488L116.461 159.544L112.809 155.284L122.614 154.332L127.426 158.488Z" fill="white"/>
<path d="M139.348 157.341L128.305 158.403L123.402 154.252L133.269 153.288L139.348 157.341Z" fill="white"/>
<path d="M151.342 156.188L140.22 157.256L134.043 153.215L143.976 152.244L151.342 156.188Z" fill="white"/>
<path d="M163.434 155.023L152.227 156.103L144.77 152.165L154.769 151.188L163.434 155.023Z" fill="white"/>
<path d="M175.604 153.852L164.324 154.938L155.562 151.116L165.623 150.133L175.604 153.852Z" fill="white"/>
<path d="M187.861 152.675L176.497 153.767L166.418 150.054L176.539 149.065L187.861 152.675Z" fill="white"/>
<path d="M200.213 151.486L188.763 152.584L177.344 148.986L187.538 147.991L200.213 151.486Z" fill="white"/>
<path d="M218.454 149.726L201.124 151.395L188.352 147.912L203.758 146.407L218.454 149.726Z" fill="white"/>
<path d="M120.731 168.718L103.08 170.369L100.41 163.992L115.853 162.517L120.731 168.718Z" fill="white"/>
<path d="M137.468 167.159L124.076 168.409L118.785 162.238L130.484 161.122L137.468 167.159Z" fill="white"/>
<path d="M152.027 165.8L138.52 167.062L131.402 161.037L143.192 159.914L152.027 165.8Z" fill="white"/>
<path d="M166.735 164.428L153.113 165.696L144.145 159.823L156.025 158.688L166.735 164.428Z" fill="white"/>
<path d="M181.554 163.045L167.81 164.325L156.961 158.597L168.927 157.457L181.554 163.045Z" fill="white"/>
<path d="M196.516 161.643L182.652 162.942L169.879 157.366L181.948 156.219L196.516 161.643Z" fill="white"/>
<path d="M211.611 160.235L197.624 161.54L182.91 156.127L195.064 154.962L211.611 160.235Z" fill="white"/>
<path d="M226.837 158.816L212.724 160.132L196.031 154.872L208.282 153.707L226.837 158.816Z" fill="white"/>
<path d="M249.37 156.716L227.963 158.712L209.262 153.609L227.817 151.844L249.37 156.716Z" fill="white"/>
<path d="M101.834 175.025C101.083 176.14 99.8554 176.801 98.5517 176.801C97.8358 176.801 97.1257 176.598 96.4971 176.211L46.8396 145.564C46.0713 145.093 45.4777 144.36 45.1634 143.502L14.8403 60.3926C14.3864 59.1412 14.5552 57.7409 15.3001 56.6504C16.0451 55.5539 17.2674 54.8984 18.5652 54.8984H56.3672C58.0085 54.8984 59.4984 55.9532 60.0804 57.5204L102.271 171.277C102.742 172.552 102.579 173.917 101.834 175.025Z" fill="#919191"/>
<path d="M101.812 177.268C101.029 178.403 99.7485 179.077 98.3894 179.077C97.643 179.077 96.9027 178.87 96.2474 178.476L44.4772 147.269C43.6763 146.79 43.0574 146.044 42.7297 145.17L11.1166 60.5427C10.6433 59.2685 10.8193 57.8426 11.596 56.7322C12.3727 55.6157 13.6469 54.9482 15 54.9482H54.4102C56.1213 54.9482 57.6746 56.0222 58.2814 57.6181L102.267 173.452C102.758 174.75 102.588 176.14 101.812 177.268Z" fill="#4A4A4A"/>
<path d="M228.476 211.824L176.609 116.669C175.674 114.958 174.133 114.133 172.537 114.127C171.888 114.127 171.233 114.254 170.602 114.515L170.541 114.546C170.395 114.606 170.25 114.679 170.11 114.752L164.358 117.501C164.358 117.501 165.468 118.581 165.529 118.581C165.547 118.581 166.245 118.374 167.173 118.101L127.405 201.812C125.773 205.253 127.818 210.004 131.137 210.404L220.539 221.199L218.579 224.026L225.278 221.217C225.618 221.108 225.94 220.974 226.249 220.81L226.279 220.798C229.162 219.251 230.436 215.404 228.476 211.818V211.824Z" fill="#D3D04F"/>
<path d="M161.988 120.25L122.038 204.343C120.406 207.783 122.45 212.534 125.77 212.935L217.229 223.978C222.453 224.609 225.779 219.233 223.115 214.348L171.247 119.194C169.154 115.359 164.015 115.99 161.994 120.243L161.988 120.25Z" fill="#FFFF00"/>
<path d="M166.562 136.942C168.37 136.808 170.19 137.7 171.24 139.672L205.668 204.494C208.138 209.148 205.055 214.391 200.207 213.893L137.576 207.443C134.044 207.079 131.872 202.213 133.607 198.639L161.986 140.273C162.994 138.198 164.772 137.069 166.562 136.936M166.562 134.727C163.946 134.933 161.628 136.638 160.348 139.29L132.188 197.504C131.083 199.792 131.083 202.625 132.188 205.107C133.298 207.607 135.313 209.245 137.576 209.494L200.207 216.278C203.302 216.612 206.111 215.222 207.695 212.54C209.291 209.84 209.291 206.424 207.695 203.438L172.975 138.428C171.622 135.892 169.219 134.515 166.568 134.721L166.562 134.727Z" fill="#231F20"/>
<path d="M171.311 158.664L168.605 190.872C168.502 192.073 167.622 192.923 166.56 192.862C165.498 192.801 164.637 191.849 164.54 190.647L161.918 158.858C161.87 158.264 162.04 157.687 162.398 157.22C163.059 156.37 164.461 155.909 166.56 155.855C168.66 155.8 170.128 156.188 170.814 157.02C171.19 157.475 171.366 158.063 171.311 158.67V158.664Z" fill="#231F20"/>
<path d="M169.131 199.536C169.131 201.15 167.978 202.364 166.558 202.249C165.138 202.133 164.016 200.744 164.016 199.148C164.016 197.552 165.15 196.339 166.558 196.436C167.966 196.533 169.131 197.922 169.131 199.542V199.536Z" fill="#231F20"/>
<path d="M188.103 4.46766L80.1123 9.46594C78.5056 9.5403 77.2624 10.8812 77.3355 12.4608L80.6058 83.1175C80.6789 84.6972 82.0407 85.9174 83.6474 85.8431L191.638 80.8448C193.245 80.7704 194.488 79.4296 194.415 77.8499L191.145 7.19325C191.072 5.61358 189.71 4.39329 188.103 4.46766Z" fill="#DDDDDD"/>
<path d="M166.567 48.9085C166.608 49.844 165.884 50.6413 164.948 50.6901L127.553 52.4228C126.609 52.4635 125.82 51.7395 125.771 50.804C125.73 49.8685 126.454 49.0712 127.39 49.0224L164.786 47.2897C165.721 47.249 166.518 47.973 166.559 48.9085H166.567Z" fill="#F2F2F2"/>
<path d="M141.803 42.8158C141.843 43.7513 141.119 44.5485 140.184 44.5973L127.225 45.1993C126.282 45.2399 125.493 44.5159 125.444 43.5804C125.395 42.6449 126.127 41.8477 127.063 41.7989L140.029 41.1969C140.965 41.1563 141.762 41.8803 141.803 42.8158Z" fill="#F2F2F2"/>
<path d="M187.62 4.58227L78.3286 9.63398C77.7022 9.66652 77.2304 10.1871 77.2548 10.8054L77.4745 15.5317L189.011 10.3742L188.791 5.64793C188.759 5.02968 188.238 4.54973 187.62 4.57413V4.58227ZM80.9968 13.7827C80.2484 13.8153 79.622 13.2458 79.5814 12.4974C79.5407 11.749 80.1264 11.1227 80.8667 11.0901C81.6069 11.0576 82.2414 11.627 82.274 12.3754C82.3065 13.1238 81.729 13.7502 80.9887 13.7827H80.9968ZM84.869 13.6038C84.1287 13.6363 83.4942 13.0669 83.4617 12.3185C83.4291 11.5701 84.0067 10.9437 84.747 10.9111C85.4872 10.8786 86.1217 11.448 86.1543 12.1964C86.1868 12.9448 85.6174 13.5712 84.869 13.6038ZM88.7412 13.4248C87.9927 13.4573 87.3664 12.8879 87.3338 12.1395C87.3013 11.3911 87.8707 10.7647 88.6191 10.7322C89.3675 10.6996 89.9939 11.2691 90.0265 12.0175C90.059 12.7659 89.4814 13.3923 88.7412 13.4248Z" fill="white"/>
<path d="M82.2848 12.3755C82.3173 13.1239 81.7397 13.7503 80.9995 13.7828C80.2592 13.8154 79.6247 13.2459 79.584 12.4975C79.5434 11.7491 80.1291 11.1227 80.8693 11.0902C81.6096 11.0577 82.2441 11.6271 82.2766 12.3755H82.2848Z" fill="#FF0000"/>
<path d="M86.1471 12.1963C86.1796 12.9447 85.6102 13.5711 84.8618 13.6036C84.1134 13.6362 83.487 13.0667 83.4544 12.3183C83.4219 11.5699 83.9995 10.9435 84.7397 10.911C85.48 10.8785 86.1145 11.4479 86.1471 12.1963Z" fill="#FFFF00"/>
<path d="M90.0182 12.0176C90.0507 12.766 89.4731 13.3924 88.7329 13.4249C87.9926 13.4574 87.3581 12.888 87.3255 12.1396C87.293 11.3912 87.8624 10.7648 88.6108 10.7323C89.3592 10.6997 89.9856 11.2692 90.0182 12.0176Z" fill="#0A993A"/>
<path d="M77.1644 15.4068L80.3532 84.2923C80.3858 84.9106 80.9064 85.3905 81.5246 85.3661L190.816 80.3063C190.995 80.2981 191.166 80.2412 191.32 80.1517C191.491 80.0541 191.629 79.9158 191.727 79.7531C191.841 79.566 191.898 79.3464 191.881 79.1267L188.693 10.2412L77.1562 15.3987L77.1644 15.4068ZM172.081 52.0541C172.171 54.0471 170.633 55.7392 168.632 55.8368L101.276 58.9524C99.2829 59.0419 97.5909 57.5044 97.5014 55.5033L96.8099 40.6328C96.7205 38.6398 98.2579 36.9478 100.251 36.8583L167.607 33.7427C169.6 33.6532 171.292 35.1906 171.39 37.1837L172.081 52.0541Z" fill="#F4F4F4"/>
<path d="M189.248 10.3549L77.2617 15.5381L77.2824 15.985L189.268 10.8018L189.248 10.3549Z" fill="#AFCDFF"/>
<path d="M110.721 55.2672C114.711 55.0825 117.795 51.6985 117.611 47.7087C117.426 43.7189 114.042 40.6343 110.052 40.819C106.062 41.0036 102.978 44.3877 103.162 48.3774C103.347 52.3672 106.731 55.4518 110.721 55.2672Z" fill="#34A853"/>
<path d="M167.942 34.3149L100.586 37.4306C98.593 37.52 97.0474 39.2121 97.145 41.2051L97.8365 56.0755C97.926 58.0686 99.618 59.6142 101.611 59.5247L168.967 56.4091C170.96 56.3114 172.506 54.6275 172.416 52.6264L171.725 37.7559C171.627 35.7629 169.943 34.2173 167.942 34.3149ZM171.985 52.6508C172.067 54.4079 170.708 55.9047 168.943 55.986L101.587 59.1017C99.8295 59.183 98.3408 57.8245 98.2513 56.0593L97.5599 41.1888C97.4867 39.4317 98.837 37.943 100.602 37.8536L167.958 34.7379C169.716 34.6647 171.212 36.0151 171.294 37.7804L171.985 52.6508Z" fill="#E1FFE9"/>
<path d="M167.972 34.7382L100.616 37.8538C98.8584 37.9433 97.4999 39.432 97.5731 41.1891L98.2646 56.0595C98.3541 57.8166 99.8427 59.1833 101.6 59.1019C127.917 58.1306 142.718 58.6114 168.956 55.9863C170.713 55.9049 172.08 54.4081 171.998 52.651L171.307 37.7806C171.226 36.0235 169.729 34.665 167.972 34.7382ZM127.062 41.7992L140.029 41.1972C140.964 41.1565 141.761 41.8805 141.802 42.816C141.843 43.7515 141.119 44.5487 140.183 44.5976L127.224 45.1995C126.281 45.2402 125.492 44.5162 125.443 43.5807C125.394 42.6452 126.126 41.848 127.062 41.7992ZM110.719 55.2786C106.725 55.4657 103.349 52.3826 103.162 48.3884C102.975 44.3942 106.058 41.0182 110.052 40.8311C114.046 40.644 117.422 43.7353 117.609 47.7213C117.796 51.7074 114.713 55.0915 110.719 55.2786ZM164.954 50.6987L127.558 52.4314C126.614 52.472 125.825 51.748 125.777 50.8125C125.736 49.877 126.46 49.0798 127.395 49.031L164.791 47.2983C165.727 47.2576 166.524 47.9816 166.564 48.9171C166.605 49.8526 165.881 50.6498 164.946 50.6987H164.954Z" fill="#BEF9CE"/>
<path d="M243.783 84.0753C243.669 85.0027 242.823 85.6778 241.896 85.564L204.728 81.1061C203.792 80.9922 203.125 80.1462 203.239 79.2107C203.353 78.2833 204.199 77.6081 205.135 77.722L242.303 82.1799C243.23 82.2938 243.897 83.1398 243.783 84.0753Z" fill="#F2F2F2"/>
<path d="M220.368 73.9799C220.254 74.9073 219.408 75.5743 218.481 75.4686L205.595 73.923C204.66 73.8091 203.993 72.9631 204.106 72.0276C204.212 71.1002 205.066 70.425 205.994 70.5389L218.879 72.0845C219.807 72.1984 220.482 73.0444 220.36 73.9799H220.368Z" fill="#F2F2F2"/>
<path d="M195.675 74.8103C196.151 70.8447 193.322 67.2443 189.356 66.7686C185.39 66.2929 181.79 69.1221 181.314 73.0877C180.839 77.0533 183.668 80.6537 187.633 81.1294C191.599 81.605 195.199 78.7759 195.675 74.8103Z" fill="#E7E700"/>
<path d="M247.556 69.9042L180.615 61.867C178.638 61.6311 176.832 63.0465 176.596 65.0233L174.823 79.8042C174.587 81.7891 176.002 83.5869 177.979 83.831L244.92 91.8682C246.905 92.1041 248.703 90.6886 248.947 88.7037L250.72 73.9228C250.956 71.946 249.541 70.1401 247.556 69.9042ZM248.516 88.6549C248.304 90.4039 246.718 91.6485 244.969 91.4451L178.028 83.408C176.279 83.1964 175.034 81.6102 175.237 79.8612L177.011 65.0802C177.222 63.3313 178.809 62.0866 180.558 62.29L247.499 70.3272C249.248 70.5387 250.493 72.125 250.289 73.874L248.516 88.6549Z" fill="#DDDDDD"/>
<path d="M247.514 70.327L180.572 62.2898C178.823 62.0865 177.237 63.3311 177.026 65.0801L175.252 79.861C175.049 81.61 176.293 83.1963 178.042 83.4078L244.984 91.445C246.733 91.6565 248.319 90.4037 248.531 88.6547L250.304 73.8738C250.515 72.1248 249.263 70.5385 247.514 70.327ZM206.002 70.5385L218.887 72.0841C219.815 72.198 220.49 73.044 220.368 73.9795C220.254 74.9069 219.408 75.574 218.481 75.4682L205.595 73.9226C204.66 73.8087 203.993 72.9627 204.106 72.0272C204.212 71.0998 205.066 70.4246 205.994 70.5385H206.002ZM187.658 81.13C183.688 80.6501 180.865 77.0545 181.337 73.0847C181.809 69.1149 185.413 66.2922 189.382 66.764C193.352 67.2439 196.175 70.8395 195.703 74.8093C195.231 78.7791 191.628 81.6019 187.658 81.13ZM241.909 85.5554L204.741 81.0975C203.805 80.9836 203.138 80.1376 203.252 79.2021C203.366 78.2747 204.212 77.5995 205.148 77.7134L242.316 82.1713C243.243 82.2852 243.91 83.1312 243.796 84.0667C243.682 85.0022 242.836 85.6693 241.909 85.5554Z" fill="#FEFAEC"/>
<path d="M153.634 99.7023C153.537 100.516 152.797 101.101 151.983 101.004L119.476 97.0991C118.655 97.0015 118.077 96.2613 118.175 95.4396C118.272 94.6262 119.013 94.0405 119.826 94.1381L152.333 98.0428C153.146 98.1404 153.724 98.8807 153.626 99.6941L153.634 99.7023Z" fill="#F2F2F2"/>
<path d="M133.156 90.8761C133.059 91.6896 132.318 92.2672 131.505 92.1777L120.238 90.8273C119.416 90.7297 118.839 89.9895 118.937 89.176C119.034 88.3625 119.774 87.7768 120.588 87.8744L131.855 89.2248C132.668 89.3224 133.254 90.0627 133.148 90.8761H133.156Z" fill="#F2F2F2"/>
<path d="M105.293 97.181C108.784 97.181 111.614 94.3511 111.614 90.8603C111.614 87.3694 108.784 84.5396 105.293 84.5396C101.803 84.5396 98.9727 87.3694 98.9727 90.8603C98.9727 94.3511 101.803 97.181 105.293 97.181Z" fill="#F3F3F3"/>
<path d="M156.931 87.3131L98.3844 80.2847C96.6517 80.0732 95.0817 81.3178 94.8701 83.0424L93.3164 95.9686C93.1049 97.7013 94.3495 99.2713 96.0741 99.4828L154.62 106.511C156.353 106.715 157.923 105.478 158.143 103.745L159.696 90.8192C159.9 89.0865 158.663 87.5165 156.931 87.305V87.3131ZM157.768 103.713C157.581 105.242 156.198 106.332 154.669 106.153L96.1229 99.1249C94.5936 98.9378 93.5035 97.5548 93.6825 96.0255L95.2362 83.0993C95.4233 81.57 96.8062 80.4799 98.3356 80.6589L156.882 87.6873C158.411 87.8744 159.501 89.2573 159.322 90.7867L157.768 103.713Z" fill="#AFCDFF"/>
<path d="M156.879 87.679L98.3325 80.6506C96.8032 80.4716 95.4202 81.5617 95.2331 83.091L93.6794 96.0172C93.5004 97.5466 94.5905 98.9376 96.1198 99.1166L154.666 106.145C156.195 106.332 157.586 105.234 157.765 103.705L159.319 90.7784C159.506 89.2491 158.408 87.8661 156.879 87.679ZM120.573 87.8662L131.84 89.2165C132.653 89.3141 133.239 90.0544 133.133 90.8679C133.036 91.6814 132.295 92.2589 131.482 92.1695L120.215 90.8191C119.394 90.7215 118.816 89.9812 118.914 89.1677C119.011 88.3542 119.751 87.7685 120.565 87.8662H120.573ZM104.531 97.1317C101.058 96.7168 98.5928 93.5686 99.0077 90.0951C99.4226 86.6215 102.571 84.1567 106.044 84.5716C109.518 84.9864 111.983 88.1427 111.568 91.6082C111.153 95.0736 108.005 97.5466 104.531 97.1317ZM151.973 101.004L119.467 97.0992C118.645 97.0015 118.068 96.2613 118.165 95.4397C118.263 94.6262 119.003 94.0405 119.817 94.1381L152.323 98.0428C153.137 98.1404 153.714 98.8807 153.617 99.6942C153.519 100.508 152.779 101.093 151.965 100.996L151.973 101.004Z" fill="#4285F4"/>
<path d="M94.7786 138.382L12.1751 170.002C11.0518 170.432 9.80198 170.395 8.70312 169.905C7.60338 169.416 6.74312 168.51 6.31313 167.387L4.83773 163.532C4.40775 162.409 4.44273 161.16 4.93463 160.06C5.42457 158.96 6.32979 158.1 7.45451 157.67L90.058 126.05C91.1813 125.62 92.4306 125.655 93.53 126.147C94.6288 126.637 95.4891 127.544 95.9205 128.667L97.3959 132.521C97.8259 133.645 97.7909 134.894 97.299 135.993C96.8085 137.092 95.9019 137.952 94.7791 138.384L94.7786 138.382Z" fill="#B9D3FE"/>
<path d="M89.5911 135.993C89.5356 135.899 89.4434 135.832 89.3376 135.806L86.6879 135.151C86.7522 134.525 86.6169 133.892 86.2895 133.346C85.8907 132.682 85.2461 132.203 84.4945 132.013C83.9338 131.872 83.3441 131.901 82.8001 132.096C82.256 132.292 81.7818 132.644 81.4377 133.107C81.0941 133.571 80.8943 134.127 80.8668 134.704C80.8379 135.282 80.982 135.854 81.2794 136.351C81.5762 136.846 82.0137 137.242 82.5373 137.49C83.0604 137.736 83.6441 137.823 84.2161 137.739C84.7875 137.653 85.3214 137.402 85.7494 137.014C86.075 136.719 86.3283 136.354 86.4921 135.95L89.1378 136.604C89.2436 136.63 89.3557 136.613 89.4497 136.557C89.5438 136.502 89.6108 136.41 89.6369 136.304C89.663 136.198 89.6461 136.086 89.5906 135.992L89.5911 135.993ZM84.914 136.728C84.5431 136.951 84.1133 137.059 83.6798 137.038C83.2463 137.017 82.8302 136.868 82.4814 136.61C82.1326 136.352 81.8697 135.996 81.7232 135.588C81.5766 135.18 81.5553 134.738 81.6607 134.317C81.8021 133.753 82.1626 133.269 82.6603 132.97C83.158 132.671 83.7556 132.582 84.3197 132.723C84.7401 132.828 85.1198 133.057 85.4113 133.377C85.7029 133.697 85.8918 134.098 85.9553 134.527C86.0188 134.955 85.9539 135.393 85.7695 135.785C85.585 136.177 85.2869 136.506 84.9154 136.727L84.914 136.728Z" fill="black"/>
</svg>
