<svg width="256" height="234" viewBox="0 0 256 234" fill="none" xmlns="http://www.w3.org/2000/svg">
<path d="M124.872 227.45H124.833C122.664 227.45 120.465 227.394 118.309 227.291C117.833 227.269 117.466 226.864 117.488 226.386C117.509 225.912 117.915 225.542 118.395 225.568C120.525 225.671 122.694 225.727 124.838 225.727C125.118 225.727 125.404 225.727 125.689 225.727H125.693C126.168 225.727 126.553 226.11 126.557 226.584C126.557 227.058 126.177 227.45 125.697 227.45C125.421 227.45 125.149 227.45 124.872 227.45ZM133.03 227.196C132.576 227.196 132.196 226.843 132.17 226.386C132.14 225.912 132.503 225.503 132.978 225.473C135.398 225.322 137.844 225.098 140.242 224.814C140.717 224.758 141.145 225.094 141.201 225.568C141.257 226.042 140.92 226.468 140.445 226.524C138.012 226.813 135.536 227.041 133.082 227.192C133.065 227.192 133.047 227.192 133.026 227.192L133.03 227.196ZM111.032 226.726C111.002 226.726 110.972 226.726 110.941 226.722C108.5 226.464 106.033 226.132 103.617 225.736C103.146 225.658 102.827 225.214 102.904 224.745C102.982 224.275 103.427 223.961 103.898 224.034C106.283 224.426 108.716 224.753 111.127 225.008C111.603 225.059 111.944 225.482 111.896 225.955C111.849 226.399 111.473 226.726 111.036 226.726H111.032ZM147.605 225.456C147.194 225.456 146.831 225.163 146.753 224.745C146.671 224.275 146.982 223.827 147.453 223.745C149.838 223.323 152.241 222.824 154.592 222.264C155.054 222.152 155.521 222.44 155.633 222.901C155.745 223.362 155.456 223.827 154.993 223.939C152.608 224.504 150.176 225.012 147.756 225.438C147.704 225.447 147.652 225.451 147.605 225.451V225.456ZM96.5484 224.349C96.4835 224.349 96.423 224.34 96.3582 224.327C93.9601 223.793 91.549 223.177 89.1941 222.509C88.7361 222.38 88.4682 221.902 88.6022 221.445C88.7361 220.988 89.2114 220.721 89.6694 220.855C91.9941 221.518 94.3706 222.121 96.7342 222.651C97.2008 222.755 97.4946 223.216 97.3866 223.681C97.2959 224.081 96.9416 224.353 96.544 224.353L96.5484 224.349ZM161.885 222.061C161.514 222.061 161.172 221.82 161.06 221.449C160.922 220.993 161.181 220.515 161.639 220.377C163.959 219.683 166.288 218.908 168.557 218.081C169.006 217.917 169.503 218.145 169.667 218.593C169.831 219.041 169.602 219.537 169.153 219.7C166.85 220.54 164.491 221.324 162.136 222.027C162.054 222.052 161.967 222.065 161.885 222.065V222.061ZM82.4318 220.325C82.3368 220.325 82.2417 220.308 82.1467 220.278C79.8307 219.468 77.506 218.58 75.2418 217.637C74.8011 217.452 74.5937 216.948 74.7752 216.508C74.961 216.069 75.4665 215.862 75.9072 216.047C78.1412 216.978 80.4313 217.852 82.717 218.649C83.1664 218.809 83.4041 219.3 83.2485 219.748C83.1232 220.101 82.7905 220.325 82.4318 220.325ZM175.669 217.034C175.336 217.034 175.017 216.84 174.874 216.517C174.684 216.082 174.887 215.573 175.323 215.384C177.549 214.423 179.77 213.381 181.926 212.295C182.349 212.08 182.872 212.252 183.088 212.674C183.304 213.101 183.131 213.618 182.708 213.833C180.521 214.936 178.27 215.991 176.015 216.965C175.902 217.012 175.786 217.038 175.673 217.038L175.669 217.034ZM68.8857 214.682C68.7604 214.682 68.6308 214.651 68.5055 214.595C66.2975 213.518 64.0938 212.364 61.9636 211.162C61.5487 210.929 61.4018 210.404 61.6352 209.986C61.8685 209.572 62.3957 209.426 62.8148 209.659C64.9191 210.843 67.0882 211.985 69.266 213.045C69.6937 213.256 69.8709 213.768 69.6635 214.199C69.5122 214.505 69.2055 214.682 68.8857 214.682ZM188.77 210.421C188.472 210.421 188.182 210.266 188.023 209.995C187.781 209.585 187.923 209.056 188.334 208.814C190.421 207.599 192.499 206.307 194.508 204.972C194.906 204.709 195.442 204.817 195.705 205.209C195.969 205.605 195.861 206.139 195.468 206.402C193.432 207.755 191.324 209.068 189.207 210.301C189.068 210.382 188.921 210.417 188.77 210.417V210.421ZM56.0957 207.475C55.9359 207.475 55.7717 207.431 55.6291 207.337C53.5637 206.006 51.5112 204.593 49.5365 203.141C49.152 202.856 49.0699 202.318 49.3551 201.935C49.6402 201.551 50.1804 201.469 50.5649 201.754C52.5137 203.184 54.5359 204.58 56.571 205.894C56.9729 206.152 57.0852 206.686 56.826 207.087C56.6618 207.341 56.3809 207.479 56.1 207.479L56.0957 207.475ZM200.96 202.314C200.7 202.314 200.441 202.197 200.268 201.973C199.979 201.594 200.056 201.056 200.437 200.767C202.368 199.307 204.274 197.773 206.101 196.205C206.464 195.895 207.009 195.938 207.32 196.296C207.631 196.657 207.588 197.2 207.229 197.51C205.376 199.1 203.44 200.659 201.482 202.137C201.327 202.253 201.141 202.314 200.96 202.314ZM44.2607 198.781C44.0662 198.781 43.8675 198.717 43.7076 198.579C41.8193 197.006 39.957 195.352 38.1768 193.672C37.8311 193.345 37.8138 192.798 38.1422 192.453C38.4706 192.108 39.0151 192.091 39.3651 192.418C41.1194 194.077 42.9558 195.705 44.8181 197.256C45.1854 197.562 45.2329 198.105 44.9261 198.471C44.7533 198.674 44.5113 198.781 44.2607 198.781ZM212.077 192.785C211.853 192.785 211.628 192.698 211.459 192.526C211.127 192.186 211.135 191.639 211.477 191.307C213.214 189.623 214.912 187.865 216.532 186.082C216.852 185.728 217.401 185.702 217.755 186.021C218.109 186.34 218.135 186.887 217.815 187.236C216.174 189.045 214.445 190.829 212.682 192.539C212.514 192.703 212.298 192.785 212.077 192.785ZM33.5966 188.705C33.3633 188.705 33.1343 188.615 32.9657 188.429C31.2849 186.633 29.6473 184.763 28.096 182.872C27.7936 182.506 27.8498 181.963 28.217 181.662C28.5843 181.36 29.1287 181.412 29.4312 181.782C30.9608 183.643 32.5769 185.487 34.2318 187.258C34.5558 187.607 34.5386 188.149 34.1886 188.477C34.0201 188.632 33.8083 188.709 33.6009 188.709L33.5966 188.705ZM221.925 181.946C221.735 181.946 221.544 181.886 221.389 181.756C221.017 181.459 220.952 180.916 221.251 180.546C222.763 178.655 224.223 176.695 225.602 174.722C225.874 174.33 226.414 174.235 226.803 174.506C227.196 174.778 227.291 175.316 227.019 175.704C225.623 177.707 224.137 179.697 222.603 181.614C222.43 181.83 222.18 181.937 221.925 181.937V181.946ZM24.2936 177.38C24.0257 177.38 23.7578 177.255 23.5893 177.022C22.1548 175.028 20.7721 172.964 19.4758 170.888C19.2252 170.483 19.3461 169.953 19.7523 169.703C20.1585 169.453 20.69 169.574 20.9406 169.979C22.2153 172.021 23.5763 174.054 24.9893 176.018C25.2658 176.406 25.1794 176.945 24.7905 177.22C24.6393 177.328 24.4621 177.38 24.2893 177.38H24.2936ZM230.303 169.94C230.152 169.94 229.996 169.901 229.858 169.815C229.447 169.569 229.318 169.04 229.564 168.63C230.813 166.563 232.01 164.426 233.116 162.289C233.336 161.867 233.855 161.699 234.278 161.919C234.702 162.138 234.87 162.655 234.65 163.077C233.526 165.249 232.312 167.415 231.042 169.518C230.878 169.785 230.593 169.936 230.303 169.936V169.94ZM16.5419 164.956C16.2351 164.956 15.9326 164.792 15.7771 164.499C14.619 162.332 13.5215 160.109 12.5147 157.882C12.3203 157.447 12.5147 156.939 12.9468 156.745C13.3833 156.551 13.8931 156.745 14.0919 157.176C15.0814 159.368 16.1616 161.557 17.3023 163.689C17.527 164.107 17.3672 164.633 16.948 164.857C16.8184 164.926 16.6801 164.96 16.5419 164.96V164.956ZM237.026 156.93C236.91 156.93 236.797 156.909 236.685 156.857C236.249 156.667 236.046 156.159 236.236 155.724C237.199 153.505 238.094 151.231 238.902 148.96C239.062 148.512 239.554 148.276 240.004 148.435C240.453 148.594 240.691 149.085 240.531 149.533C239.71 151.842 238.798 154.151 237.821 156.405C237.679 156.728 237.363 156.926 237.026 156.926V156.93ZM10.5228 151.627C10.1728 151.627 9.84008 151.412 9.71045 151.067C8.85491 148.775 8.07282 146.423 7.37715 144.075C7.2432 143.619 7.50245 143.141 7.96047 143.007C8.41849 142.873 8.89812 143.132 9.03207 143.589C9.71478 145.898 10.4882 148.211 11.3265 150.468C11.4907 150.916 11.266 151.412 10.8166 151.575C10.7172 151.614 10.6179 151.631 10.5141 151.631L10.5228 151.627ZM241.931 143.128C241.853 143.128 241.775 143.119 241.697 143.097C241.239 142.968 240.967 142.494 241.097 142.038C241.745 139.716 242.32 137.342 242.808 134.981C242.903 134.516 243.361 134.215 243.828 134.309C244.294 134.404 244.597 134.861 244.502 135.326C244.009 137.726 243.421 140.138 242.765 142.499C242.657 142.878 242.311 143.128 241.931 143.128ZM6.37469 137.605C5.97716 137.605 5.62285 137.329 5.53211 136.929C5.00063 134.538 4.54693 132.095 4.18397 129.674C4.11484 129.204 4.43891 128.765 4.90989 128.696C5.38087 128.627 5.82161 128.95 5.89075 129.42C6.24938 131.802 6.69444 134.202 7.21727 136.558C7.32097 137.023 7.02715 137.484 6.56049 137.588C6.49568 137.601 6.43518 137.609 6.37469 137.609V137.605ZM244.882 128.795C244.843 128.795 244.804 128.795 244.765 128.787C244.294 128.722 243.961 128.291 244.022 127.817C244.342 125.435 244.584 123.001 244.744 120.593C244.774 120.119 245.184 119.757 245.66 119.787C246.135 119.818 246.498 120.227 246.468 120.701C246.308 123.148 246.061 125.62 245.737 128.041C245.677 128.472 245.31 128.787 244.882 128.787V128.795ZM4.19694 123.139C3.75188 123.139 3.37164 122.799 3.33707 122.346C3.14263 119.908 3.02596 117.431 3.00004 114.976C2.99572 114.502 3.37596 114.11 3.85558 114.105C4.33521 114.08 4.72409 114.48 4.72841 114.958C4.75434 117.375 4.86668 119.813 5.06113 122.213C5.10001 122.687 4.7457 123.105 4.27039 123.139C4.24879 123.139 4.22286 123.139 4.20126 123.139H4.19694ZM245.828 114.2C245.353 114.2 244.964 113.817 244.964 113.343C244.955 110.926 244.865 108.488 244.692 106.088C244.657 105.615 245.016 105.201 245.491 105.166C245.971 105.132 246.381 105.49 246.416 105.963C246.593 108.402 246.684 110.883 246.697 113.339C246.697 113.812 246.312 114.2 245.837 114.204L245.828 114.2ZM4.02842 108.509C4.02842 108.509 3.99385 108.509 3.97657 108.509C3.50127 108.484 3.13399 108.074 3.16423 107.6C3.3025 105.154 3.53151 102.681 3.8383 100.255C3.89879 99.7816 4.33088 99.4456 4.80187 99.5102C5.27717 99.5705 5.60988 100.001 5.54939 100.471C5.24693 102.857 5.02656 105.291 4.88829 107.7C4.86236 108.156 4.48212 108.514 4.02842 108.514V108.509ZM244.77 99.6093C244.346 99.6093 243.974 99.2991 243.914 98.8683C243.573 96.4818 243.149 94.078 242.644 91.7216C242.544 91.2563 242.842 90.7997 243.309 90.7006C243.776 90.6015 244.234 90.8988 244.333 91.364C244.843 93.7592 245.279 96.2018 245.625 98.6271C245.694 99.0967 245.361 99.5361 244.891 99.6007C244.847 99.605 244.808 99.6093 244.77 99.6093ZM5.86482 94.0004C5.80865 94.0004 5.75247 93.9961 5.6963 93.9832C5.22964 93.8927 4.92286 93.4404 5.0136 92.9708C5.4889 90.5713 6.05494 88.1546 6.69444 85.7853C6.81975 85.3243 7.29505 85.0529 7.75307 85.1779C8.21541 85.3028 8.48763 85.7767 8.36232 86.2333C7.73147 88.5639 7.17406 90.9418 6.7074 93.3026C6.6253 93.7118 6.26667 93.9961 5.8605 93.9961L5.86482 94.0004ZM241.715 85.3028C241.339 85.3028 240.993 85.0573 240.885 84.6782C240.224 82.3691 239.468 80.0472 238.647 77.7812C238.483 77.3332 238.716 76.8378 239.165 76.6784C239.615 76.5147 240.112 76.7473 240.271 77.1954C241.11 79.5001 241.874 81.8565 242.549 84.2043C242.678 84.6609 242.415 85.1391 241.957 85.2683C241.879 85.2899 241.797 85.3028 241.719 85.3028H241.715ZM9.68885 79.8662C9.59379 79.8662 9.49873 79.849 9.40799 79.8189C8.95861 79.6638 8.71664 79.1727 8.87219 78.7247C9.67156 76.4113 10.566 74.0937 11.5252 71.832C11.711 71.3926 12.2166 71.1902 12.6573 71.3754C13.0981 71.5606 13.3012 72.0647 13.1154 72.5041C12.1691 74.7312 11.2919 77.0101 10.5012 79.289C10.3759 79.6465 10.0432 79.8706 9.68453 79.8706L9.68885 79.8662ZM236.728 71.5649C236.396 71.5649 236.08 71.3711 235.938 71.0523C234.965 68.851 233.902 66.6539 232.779 64.5129C232.559 64.0908 232.718 63.5695 233.142 63.3498C233.565 63.1301 234.088 63.2895 234.309 63.7117C235.449 65.8828 236.529 68.1186 237.519 70.3544C237.713 70.7895 237.515 71.2979 237.078 71.4917C236.966 71.5434 236.845 71.5649 236.728 71.5649ZM15.4141 66.3869C15.2845 66.3869 15.1505 66.3567 15.0252 66.2921C14.5974 66.0767 14.4289 65.5597 14.645 65.1333C15.7511 62.9535 16.948 60.778 18.2011 58.6628C18.4431 58.2536 18.9745 58.12 19.385 58.3613C19.7955 58.6025 19.9295 59.1324 19.6875 59.5416C18.4517 61.6223 17.2721 63.7634 16.1875 65.9087C16.0363 66.2102 15.7295 66.3825 15.4141 66.3825V66.3869ZM229.923 58.6068C229.633 58.6068 229.348 58.4604 229.184 58.1933C227.926 56.1427 226.578 54.1008 225.178 52.1234C224.902 51.7357 224.997 51.1972 225.386 50.9215C225.775 50.6458 226.315 50.7406 226.591 51.1283C228.013 53.1358 229.378 55.2079 230.657 57.2929C230.908 57.6979 230.778 58.2277 230.372 58.4776C230.23 58.5637 230.074 58.6025 229.923 58.6025V58.6068ZM22.8893 53.7949C22.7208 53.7949 22.5523 53.7475 22.401 53.6441C22.0078 53.377 21.9085 52.8386 22.1764 52.4465C23.5591 50.4304 25.0325 48.4316 26.5492 46.5016C26.843 46.1269 27.3874 46.0622 27.7633 46.3552C28.1393 46.6481 28.2041 47.1909 27.9102 47.5657C26.4152 49.4655 24.9677 51.4385 23.6023 53.4201C23.4338 53.6657 23.1659 53.7949 22.8893 53.7949ZM221.462 46.6438C221.212 46.6438 220.961 46.5361 220.788 46.325C219.272 44.4511 217.673 42.5987 216.031 40.8152C215.707 40.4663 215.733 39.9192 216.083 39.5961C216.433 39.273 216.982 39.2989 217.306 39.6478C218.969 41.4571 220.598 43.3397 222.136 45.2394C222.435 45.6099 222.378 46.1527 222.007 46.45C221.847 46.5792 221.657 46.6395 221.467 46.6395L221.462 46.6438ZM31.9417 42.2842C31.7386 42.2842 31.5312 42.211 31.367 42.0645C31.0127 41.7457 30.9781 41.2029 31.2979 40.8497C32.9269 39.0275 34.6423 37.2311 36.3922 35.5079C36.7336 35.1719 37.278 35.1762 37.6151 35.5165C37.9521 35.8569 37.9478 36.3996 37.6064 36.7357C35.8824 38.433 34.1929 40.2035 32.5898 41.9956C32.417 42.1851 32.1837 42.2842 31.946 42.2842H31.9417ZM211.529 35.8525C211.312 35.8525 211.096 35.7707 210.928 35.6113C209.182 33.9398 207.363 32.2985 205.509 30.7348C205.146 30.4289 205.099 29.8818 205.41 29.5199C205.717 29.1581 206.266 29.1107 206.629 29.4209C208.504 31.0062 210.353 32.6733 212.125 34.3663C212.47 34.698 212.479 35.2408 212.151 35.5855C211.982 35.7621 211.753 35.8482 211.529 35.8482V35.8525ZM42.3724 32.0099C42.1305 32.0099 41.8928 31.9108 41.72 31.7127C41.4045 31.3551 41.4434 30.808 41.8021 30.4978C43.6471 28.8953 45.5699 27.3229 47.5143 25.8281C47.8946 25.5395 48.4347 25.6084 48.7242 25.9875C49.0137 26.3666 48.9446 26.9051 48.5643 27.1937C46.6458 28.667 44.7533 30.2135 42.9341 31.7945C42.77 31.9367 42.5669 32.0056 42.3681 32.0056L42.3724 32.0099ZM200.32 26.3752C200.139 26.3752 199.957 26.3192 199.801 26.2029C197.866 24.7597 195.852 23.351 193.826 22.0242C193.428 21.7614 193.316 21.2273 193.579 20.8309C193.843 20.4346 194.379 20.3226 194.776 20.5854C196.833 21.9338 198.872 23.3597 200.839 24.8243C201.219 25.1087 201.301 25.6472 201.011 26.0306C200.843 26.2589 200.584 26.3752 200.32 26.3752ZM53.9871 23.0969C53.7106 23.0969 53.4383 22.9633 53.2698 22.7178C53.0019 22.3258 53.1056 21.7873 53.4988 21.5202C55.5254 20.1503 57.6253 18.8235 59.734 17.5785C60.1445 17.3372 60.6759 17.4708 60.9179 17.88C61.1599 18.2893 61.0259 18.8191 60.6154 19.0604C58.5371 20.2881 56.4673 21.5977 54.4667 22.9461C54.3198 23.0452 54.1513 23.0926 53.9828 23.0926L53.9871 23.0969ZM188.036 18.3237C187.889 18.3237 187.742 18.285 187.608 18.2074C185.512 17.0055 183.347 15.851 181.178 14.7784C180.75 14.5673 180.578 14.0503 180.789 13.6238C181.001 13.1974 181.52 13.025 181.947 13.2361C184.147 14.326 186.342 15.4978 188.468 16.7169C188.882 16.9538 189.025 17.4794 188.787 17.893C188.628 18.1687 188.338 18.3237 188.036 18.3237ZM66.6043 15.6399C66.2888 15.6399 65.9907 15.4676 65.8351 15.1747C65.6148 14.7525 65.7833 14.2312 66.2067 14.0159C68.3845 12.8958 70.6314 11.8274 72.8783 10.8366C73.3147 10.6428 73.8245 10.8409 74.019 11.276C74.2134 11.7111 74.0147 12.2195 73.5782 12.4133C71.3616 13.3912 69.1493 14.4466 66.9975 15.5495C66.8722 15.6141 66.7339 15.6442 66.6043 15.6442V15.6399ZM174.891 11.8059C174.779 11.8059 174.662 11.7844 174.554 11.737C172.329 10.7936 170.043 9.90182 167.762 9.08763C167.312 8.92824 167.079 8.43283 167.239 7.98481C167.399 7.53679 167.896 7.30416 168.345 7.46355C170.657 8.29067 172.977 9.19102 175.233 10.1517C175.673 10.3369 175.876 10.8452 175.691 11.2803C175.552 11.6077 175.233 11.8059 174.896 11.8059H174.891ZM80.0294 9.72089C79.6794 9.72089 79.351 9.50549 79.2214 9.16086C79.0529 8.71715 79.2819 8.21744 79.7269 8.05374C82.0257 7.20078 84.3806 6.39951 86.7269 5.68009C87.1849 5.53793 87.6645 5.7964 87.8071 6.24873C87.9454 6.70537 87.6904 7.18785 87.2367 7.3257C84.9207 8.03651 82.6004 8.82485 80.3319 9.6692C80.2325 9.70797 80.1288 9.72519 80.0294 9.72519V9.72089ZM161.069 6.87337C160.987 6.87337 160.904 6.86045 160.827 6.83891C158.506 6.16257 156.134 5.54224 153.771 4.99513C153.304 4.88744 153.014 4.4265 153.122 3.96124C153.23 3.49599 153.693 3.20736 154.159 3.31506C156.553 3.86647 158.96 4.49542 161.311 5.18468C161.769 5.31823 162.032 5.7964 161.898 6.25304C161.786 6.62782 161.445 6.87337 161.069 6.87337ZM94.0552 5.413C93.6663 5.413 93.312 5.15022 93.2169 4.7582C93.1046 4.29726 93.3854 3.8277 93.8521 3.71569C96.2329 3.13413 98.6656 2.61287 101.081 2.16485C101.552 2.07869 102.001 2.38886 102.088 2.85411C102.174 3.32367 101.863 3.77169 101.396 3.85785C99.0156 4.29726 96.6175 4.8099 94.2669 5.38715C94.1978 5.40439 94.1286 5.413 94.0595 5.413H94.0552ZM146.766 3.57353C146.719 3.57353 146.667 3.57353 146.619 3.56061C144.239 3.15567 141.81 2.81104 139.399 2.53964C138.924 2.48794 138.582 2.06146 138.639 1.58759C138.69 1.11373 139.123 0.777712 139.594 0.829407C142.035 1.10511 144.498 1.45405 146.913 1.8633C147.384 1.94515 147.7 2.38886 147.618 2.85842C147.544 3.27628 147.181 3.57353 146.766 3.57353ZM108.487 2.74642C108.059 2.74642 107.688 2.42763 107.632 1.99254C107.571 1.51867 107.908 1.08788 108.379 1.02757C110.807 0.721706 113.283 0.480469 115.733 0.312461C116.204 0.277998 116.623 0.639861 116.654 1.11373C116.688 1.5876 116.325 2.00115 115.85 2.0313C113.43 2.19931 110.989 2.43625 108.591 2.7378C108.552 2.74211 108.517 2.74642 108.483 2.74642H108.487ZM132.179 1.92792C132.179 1.92792 132.144 1.92792 132.131 1.92792C129.154 1.75991 126.125 1.69529 123.144 1.73406C122.673 1.75129 122.275 1.35928 122.267 0.885411C122.262 0.411544 122.642 0.0195196 123.118 0.0109039C126.138 -0.0278671 129.21 0.0367565 132.222 0.204764C132.697 0.230611 133.065 0.639861 133.039 1.11373C133.013 1.57037 132.633 1.92792 132.174 1.92792H132.179Z" fill="#969696"/>
<path d="M74.9097 158.343C66.6817 150.115 55.5297 145.493 43.8872 145.493L43.8718 145.478C35.1917 145.478 26.7146 148.049 19.4907 152.871C12.286 157.699 6.66013 164.548 3.33751 172.569C0.0149023 180.59 -0.847365 189.412 0.842683 197.919C2.53656 206.427 6.71761 214.245 12.8455 220.388C18.9887 226.528 26.8066 230.697 35.3143 232.387C43.822 234.081 52.644 233.219 60.6688 229.896C68.6899 226.574 75.5382 220.948 80.3631 213.743C85.188 206.519 87.7594 198.042 87.7594 189.362C87.7594 177.719 83.1377 166.563 74.9097 158.335V158.343ZM64.7388 181.686L40.028 205.3C39.3842 205.894 38.5411 206.239 37.6635 206.228C37.2419 206.228 36.8012 206.151 36.4103 205.99C36.0194 205.833 35.6439 205.599 35.3488 205.3L22.9858 193.485C22.6409 193.206 22.3419 192.845 22.1388 192.451C21.9165 192.044 21.7939 191.604 21.7633 191.167C21.7173 190.711 21.7633 190.255 21.9204 189.833C22.0622 189.412 22.2806 189.005 22.5795 188.66C22.8746 188.316 23.2349 188.032 23.6411 187.844C24.0511 187.641 24.488 187.534 24.9441 187.499C25.3963 187.465 25.8523 187.545 26.2739 187.702C26.6993 187.86 27.0902 188.093 27.4197 188.408C27.4849 188.469 27.5615 188.53 27.6267 188.591L37.6558 198.168L60.094 176.78C60.7378 176.171 61.6154 175.826 62.5084 175.853C63.4013 175.868 64.2482 176.263 64.8729 176.903C65.4822 177.547 65.8271 178.424 65.7965 179.317C65.7811 180.206 65.3903 181.057 64.7464 181.682L64.7388 181.686Z" fill="#6CD038"/>
<path d="M65.7964 179.325C65.7811 180.214 65.3902 181.065 64.7464 181.69L40.0356 205.304C39.3918 205.898 38.5487 206.243 37.6711 206.232C37.2496 206.232 36.8088 206.155 36.4179 205.994C36.027 205.837 35.6515 205.603 35.3564 205.304L22.9934 193.489C22.6485 193.21 22.3495 192.849 22.1464 192.455C21.9242 192.048 21.8015 191.608 21.7709 191.171C21.7249 190.715 21.7709 190.259 21.928 189.837C22.0698 189.416 22.2882 189.009 22.5871 188.664C22.8822 188.32 23.2425 188.036 23.6487 187.848C24.0588 187.645 24.4956 187.538 24.9517 187.503C25.4039 187.469 25.8599 187.549 26.2815 187.706C26.7069 187.864 27.0978 188.097 27.4274 188.412C27.4925 188.473 27.5691 188.534 27.6305 188.596L37.6596 198.172L60.0978 176.784C60.7416 176.175 61.6192 175.83 62.5121 175.857C63.4051 175.872 64.252 176.267 64.8767 176.907C65.486 177.551 65.8309 178.428 65.8003 179.321L65.7964 179.325Z" fill="white"/>
<path d="M62.2697 65.766C80.1551 65.766 94.6527 51.2684 94.6527 33.383C94.6527 15.4976 80.1551 1 62.2697 1C44.3843 1 29.8867 15.4976 29.8867 33.383C29.8867 51.2684 44.3843 65.766 62.2697 65.766Z" fill="#F3CB2B"/>
<path d="M73.8151 31.0722V37.3227C73.8151 40.4806 72.5735 43.5004 70.3431 45.7117C68.1127 47.9421 65.1082 49.2106 61.9542 49.2106C58.8002 49.2106 55.7956 47.9497 53.5652 45.7117C51.3348 43.5004 50.0932 40.4767 50.0932 37.3227V24.2201C50.074 23.8828 50.1392 23.5418 50.2503 23.2275C50.3614 22.9094 50.5415 22.6412 50.7906 22.3959C51.0168 22.1468 51.3118 21.9667 51.6031 21.8325C51.9212 21.6946 52.2584 21.6294 52.5957 21.6294C52.9137 21.6294 53.251 21.6946 53.5652 21.8325C53.8833 21.9667 54.1516 22.1506 54.3777 22.3959C54.6268 22.645 54.8069 22.9133 54.918 23.2275C55.0292 23.5456 55.0982 23.8828 55.0752 24.2201V31.0761C55.0752 31.0761 55.0943 31.2562 55.1212 31.3482C55.1403 31.4133 55.1863 31.5053 55.2553 31.5513C55.3013 31.6164 55.3664 31.6624 55.4584 31.7084C55.5235 31.7084 55.6155 31.7544 55.7075 31.7544C55.7995 31.7544 55.8876 31.7352 55.9566 31.7084C56.0486 31.6624 56.1137 31.6164 56.1597 31.5513C56.2249 31.5053 56.2708 31.4171 56.2938 31.3482C56.2938 31.2562 56.3398 31.168 56.3398 31.0761V19.2151C56.3207 18.8778 56.3858 18.5598 56.497 18.2455C56.6081 17.9274 56.7882 17.6362 57.0373 17.3871C57.2634 17.161 57.5317 16.9578 57.8498 16.8237C58.1678 16.6896 58.5051 16.6206 58.8193 16.6206C59.1566 16.6206 59.4977 16.6858 59.8119 16.8237C60.13 16.9617 60.3982 17.161 60.6244 17.3871C60.8735 17.6362 61.0536 17.9274 61.1647 18.2455C61.2758 18.5636 61.3448 18.8778 61.3218 19.2151V29.8382C61.3218 29.8382 61.3218 30.0184 61.3678 30.0873C61.3678 30.1793 61.433 30.2445 61.5058 30.3134C61.5518 30.3786 61.6169 30.4246 61.7089 30.4476C61.774 30.4936 61.866 30.5127 61.958 30.5127C62.05 30.5127 62.1381 30.5127 62.2071 30.4476C62.2991 30.4476 62.3642 30.3824 62.4102 30.3134C62.4754 30.2483 62.5213 30.1755 62.5482 30.0873C62.5673 30.0222 62.5942 29.9302 62.5942 29.8382V21.7176C62.575 21.3803 62.6401 21.0393 62.7513 20.725C62.8624 20.4069 63.0464 20.1387 63.2916 19.8934C63.5177 19.6443 63.786 19.4642 64.1041 19.33C64.4222 19.1959 64.7364 19.1269 65.0737 19.1269C65.4109 19.1269 65.752 19.1921 66.0662 19.33C66.3575 19.468 66.6526 19.6481 66.8787 19.8934C67.1278 20.1425 67.3079 20.4146 67.419 20.725C67.5302 21.0431 67.5991 21.3803 67.5762 21.7176V33.6054C65.8861 33.7625 64.2842 34.5558 63.1345 35.8358C61.9848 37.0966 61.3333 38.7445 61.3333 40.4614C61.3333 40.5534 61.3333 40.6185 61.3793 40.7105C61.3793 40.8025 61.4445 40.8676 61.5173 40.9366C61.5633 41.0018 61.6284 41.0477 61.7204 41.0746C61.7855 41.1206 61.8775 41.1397 61.9695 41.1397C62.0615 41.1397 62.1496 41.1206 62.2186 41.0746C62.3106 41.0746 62.3757 41.0094 62.4217 40.9366C62.4869 40.8715 62.5328 40.7986 62.5597 40.7105C62.5827 40.6185 62.6057 40.5534 62.6057 40.4614C62.6057 38.9706 63.192 37.5297 64.2535 36.495C65.2921 35.4334 66.7369 34.8509 68.22 34.8509C68.3771 34.8509 68.5381 34.7857 68.6492 34.6478C68.7872 34.5366 68.8523 34.3757 68.8523 34.2186V31.0837C68.8715 30.4514 69.1436 29.8421 69.5958 29.3937C70.071 28.9453 70.6995 28.6924 71.3318 28.6924C71.9642 28.6924 72.6195 28.9415 73.0679 29.3937C73.5431 29.8421 73.8113 30.4552 73.8343 31.0837H73.842L73.8151 31.0722Z" fill="white"/>
<path d="M228.6 131.682C243.734 131.682 256.001 119.415 256.001 104.281C256.001 89.1471 243.734 76.8799 228.6 76.8799C213.466 76.8799 201.199 89.1471 201.199 104.281C201.199 119.415 213.466 131.682 228.6 131.682Z" fill="#FF0000"/>
<path d="M240.04 113.275C240.117 113.685 240.071 114.099 239.918 114.478C239.749 114.858 239.492 115.179 239.155 115.406C238.806 115.636 238.412 115.754 237.998 115.754C237.726 115.754 237.45 115.712 237.208 115.601C236.951 115.494 236.721 115.34 236.537 115.145L228.271 106.879L220.005 115.145C219.806 115.344 219.58 115.513 219.334 115.616C219.078 115.739 218.802 115.8 218.529 115.8C218.257 115.8 217.966 115.754 217.721 115.647C217.46 115.544 217.219 115.386 217.02 115.191C216.82 114.992 216.671 114.766 216.564 114.505C216.472 114.248 216.414 113.972 216.414 113.7C216.429 113.424 216.491 113.152 216.594 112.892C216.701 112.631 216.87 112.405 217.069 112.221L225.336 103.955L217.069 95.6884C216.701 95.2936 216.506 94.7725 216.506 94.2244C216.521 93.6918 216.736 93.1744 217.115 92.7912C217.499 92.4118 218.016 92.1971 218.549 92.1818C219.097 92.1818 219.614 92.3811 220.013 92.7452L228.279 101.011L236.545 92.7452C236.725 92.5459 236.955 92.3773 237.216 92.27C237.476 92.1473 237.749 92.0898 238.024 92.0898C238.3 92.0898 238.572 92.1358 238.829 92.2393C239.086 92.3466 239.331 92.4999 239.515 92.6953C239.711 92.8946 239.879 93.1207 239.971 93.3813C240.079 93.6419 240.14 93.914 240.125 94.19C240.125 94.4812 240.063 94.7533 239.956 94.9986C239.833 95.2592 239.68 95.4853 239.469 95.6846L231.203 103.951L239.469 112.217C239.757 112.505 239.956 112.869 240.048 113.267L240.04 113.275Z" fill="white"/>
<path d="M99.2627 87.5259V101.874C99.2627 104.097 98.6303 105.806 97.3657 107.009C96.1202 108.209 94.4378 108.811 92.3109 108.811C90.1839 108.811 88.2984 108.178 86.9533 106.921C85.6082 105.66 84.9375 103.871 84.9375 101.548H90.0536C90.0536 102.43 90.2338 103.1 90.594 103.56C90.9542 104.001 91.4754 104.219 92.1576 104.219C92.7784 104.219 93.2613 104.02 93.6023 103.618C93.9434 103.219 94.1159 102.637 94.1159 101.878V87.5297H99.2627V87.5259Z" fill="#545454"/>
<path d="M113.408 108.811C111.422 108.811 109.594 108.351 107.931 107.431C106.287 106.511 104.973 105.231 103.988 103.587C103.026 101.928 102.543 100.065 102.543 98.0035C102.543 95.9417 103.026 94.0907 103.988 92.4505C104.973 90.8103 106.283 89.5303 107.931 88.6067C109.598 87.6869 111.422 87.2271 113.408 87.2271C115.393 87.2271 117.209 87.6869 118.853 88.6067C120.517 89.5264 121.823 90.8064 122.766 92.4505C123.728 94.0907 124.211 95.9417 124.211 98.0035C124.211 100.065 123.728 101.928 122.766 103.587C121.804 105.227 120.497 106.507 118.853 107.431C117.209 108.351 115.393 108.811 113.408 108.811ZM113.408 104.128C115.094 104.128 116.439 103.568 117.439 102.445C118.462 101.326 118.976 99.843 118.976 98.0035C118.976 96.164 118.462 94.6617 117.439 93.5619C116.435 92.4428 115.094 91.8795 113.408 91.8795C111.721 91.8795 110.338 92.4313 109.315 93.5312C108.311 94.6311 107.809 96.1218 107.809 98.0035C107.809 99.8852 108.311 101.357 109.315 102.476C110.338 103.576 111.702 104.128 113.408 104.128Z" fill="#545454"/>
<path d="M139.87 97.7926C141.093 98.0532 142.078 98.6626 142.817 99.6245C143.561 100.563 143.933 101.644 143.933 102.867C143.933 104.629 143.312 106.028 142.066 107.071C140.844 108.09 139.127 108.6 136.919 108.6H127.078V87.5259H136.59C138.736 87.5259 140.411 88.0164 141.614 88.9975C142.837 89.9786 143.45 91.3084 143.45 92.9908C143.45 94.2324 143.12 95.2633 142.457 96.0834C141.817 96.9035 140.951 97.4746 139.87 97.7926ZM132.225 96.0528H135.594C136.437 96.0528 137.077 95.8726 137.521 95.5124C137.981 95.133 138.215 94.5812 138.215 93.8607C138.215 93.1402 137.985 92.5884 137.521 92.209C137.08 91.8296 136.437 91.6379 135.594 91.6379H132.225V96.0489V96.0528ZM136.019 104.457C136.881 104.457 137.544 104.265 138.004 103.886C138.487 103.487 138.725 102.916 138.725 102.177C138.725 101.437 138.475 100.855 137.973 100.437C137.491 100.015 136.82 99.8084 135.958 99.8084H132.225V104.461H136.019V104.457Z" fill="#545454"/>
<path d="M66.1104 141.646C64.566 141.646 63.1825 141.396 61.9562 140.894C60.7337 140.392 59.7488 139.653 59.0053 138.672C58.281 137.691 57.9016 136.51 57.8633 135.131H63.3396C63.4201 135.912 63.6922 136.51 64.1521 136.932C64.612 137.33 65.2136 137.534 65.9571 137.534C66.7006 137.534 67.3214 137.365 67.7621 137.024C68.2029 136.664 68.4251 136.173 68.4251 135.552C68.4251 135.031 68.245 134.602 67.8848 134.261C67.5437 133.92 67.1106 133.64 66.5894 133.421C66.0874 133.203 65.3669 132.95 64.4242 132.67C63.0599 132.249 61.9447 131.831 61.0824 131.409C60.2201 130.988 59.4767 130.367 58.8558 129.547C58.235 128.727 57.9246 127.654 57.9246 126.335C57.9246 124.373 58.6374 122.844 60.063 121.744C61.4886 120.625 63.3435 120.062 65.6314 120.062C67.9193 120.062 69.8354 120.622 71.261 121.744C72.6867 122.844 73.4493 124.385 73.5489 126.366H67.9806C67.9423 125.684 67.6893 125.155 67.2294 124.776C66.7696 124.377 66.1756 124.174 65.4551 124.174C64.8342 124.174 64.3322 124.343 63.949 124.684C63.5696 125.006 63.378 125.473 63.378 126.094C63.378 126.776 63.6999 127.305 64.3399 127.684C64.9799 128.064 65.9839 128.474 67.3482 128.915C68.7125 129.375 69.8163 129.815 70.6594 130.237C71.5216 130.658 72.2651 131.268 72.8859 132.069C73.5068 132.87 73.8172 133.9 73.8172 135.161C73.8172 136.422 73.5068 137.453 72.8859 138.434C72.2843 139.415 71.4028 140.197 70.2378 140.776C69.0728 141.354 67.7008 141.646 66.1142 141.646H66.1104Z" fill="#545454"/>
<path d="M92.1846 120.361V124.473H86.5856V141.435H81.4388V124.473H75.8398V120.361H92.1808H92.1846Z" fill="#545454"/>
<path d="M107.915 137.714H100.028L98.7632 141.435H93.375L101.02 120.361H106.98L114.625 141.435H109.179L107.915 137.714ZM106.589 133.751L103.971 126.036L101.385 133.751H106.593H106.589Z" fill="#545454"/>
<path d="M132.153 120.361V124.473H126.554V141.435H121.408V124.473H115.809V120.361H132.15H132.153Z" fill="#545454"/>
<path d="M139.787 120.361V132.969C139.787 134.23 140.098 135.2 140.719 135.882C141.34 136.56 142.255 136.901 143.459 136.901C144.662 136.901 145.586 136.56 146.226 135.882C146.87 135.2 147.188 134.23 147.188 132.969V120.361H152.334V132.938C152.334 134.82 151.932 136.411 151.131 137.71C150.33 139.013 149.246 139.99 147.881 140.653C146.536 141.312 145.034 141.645 143.367 141.645C141.7 141.645 140.205 141.324 138.883 140.684C137.58 140.024 136.545 139.043 135.783 137.74C135.02 136.418 134.641 134.82 134.641 132.938V120.361H139.787Z" fill="#545454"/>
<path d="M163.599 141.646C162.054 141.646 160.671 141.396 159.444 140.894C158.222 140.392 157.237 139.653 156.494 138.672C155.773 137.691 155.39 136.51 155.352 135.131H160.828C160.908 135.912 161.181 136.51 161.64 136.932C162.1 137.33 162.706 137.534 163.445 137.534C164.185 137.534 164.81 137.365 165.25 137.024C165.691 136.664 165.913 136.173 165.913 135.552C165.913 135.031 165.733 134.602 165.373 134.261C165.032 133.92 164.599 133.64 164.078 133.421C163.576 133.203 162.855 132.95 161.912 132.67C160.548 132.249 159.433 131.831 158.571 131.409C157.708 130.988 156.965 130.367 156.344 129.547C155.723 128.727 155.413 127.654 155.413 126.335C155.413 124.373 156.126 122.844 157.551 121.744C158.977 120.625 160.832 120.062 163.12 120.062C165.408 120.062 167.324 120.622 168.745 121.744C170.171 122.844 170.934 124.385 171.033 126.366H165.465C165.423 125.684 165.174 125.155 164.714 124.776C164.254 124.377 163.66 124.174 162.94 124.174C162.319 124.174 161.817 124.343 161.433 124.684C161.054 125.006 160.862 125.473 160.862 126.094C160.862 126.776 161.184 127.305 161.824 127.684C162.464 128.064 163.468 128.474 164.833 128.915C166.197 129.375 167.301 129.815 168.144 130.237C169.006 130.658 169.75 131.268 170.37 132.069C170.991 132.87 171.302 133.9 171.302 135.161C171.302 136.422 170.991 137.453 170.37 138.434C169.769 139.415 168.883 140.197 167.722 140.776C166.557 141.354 165.185 141.646 163.599 141.646Z" fill="#545454"/>
<path d="M173.495 56.952C186.042 56.952 196.213 46.781 196.213 34.234C196.213 21.6871 186.042 11.5161 173.495 11.5161C160.948 11.5161 150.777 21.6871 150.777 34.234C150.777 46.781 160.948 56.952 173.495 56.952Z" fill="#EFEFEF"/>
<path d="M172.566 56.0164C185.113 56.0164 195.284 45.8455 195.284 33.2985C195.284 20.7515 185.113 10.5806 172.566 10.5806C160.019 10.5806 149.848 20.7515 149.848 33.2985C149.848 45.8455 160.019 56.0164 172.566 56.0164Z" fill="white"/>
<path d="M174.517 41.2966V41.3042C173.421 42.3581 172.179 43.2511 170.838 43.9524C170.048 44.4007 169.182 44.6882 168.285 44.8108C168.086 44.8261 167.891 44.7686 167.726 44.6537C165.702 43.1361 163.69 41.6108 161.671 40.0971C161.579 40.0281 161.502 39.9399 161.452 39.8365C161.402 39.733 161.372 39.618 161.372 39.4992C161.307 37.7325 161.399 35.9582 161.648 34.2106C161.908 32.2293 162.292 30.2634 162.805 28.328C162.909 27.987 163.039 27.6612 163.196 27.3431L163.265 27.1898C163.353 27.0174 163.483 26.8641 163.641 26.7453C163.798 26.6303 163.978 26.5499 164.169 26.5115C164.434 26.4426 164.71 26.4387 164.978 26.4924C165.246 26.5499 165.499 26.661 165.714 26.8296C165.917 27.0021 166.07 27.2205 166.17 27.4696C166.27 27.7149 166.3 27.987 166.262 28.2476C166.193 28.8799 166.082 29.5007 165.974 30.0756C165.925 30.3745 165.867 30.6849 165.806 31.003L165.679 31.712C165.676 31.7503 165.679 31.7924 165.699 31.8231C165.718 31.8538 165.748 31.8844 165.783 31.9036C165.817 31.9113 165.848 31.9113 165.882 31.9036C165.917 31.8959 165.94 31.8729 165.955 31.8423C166.331 31.3556 166.691 30.8574 167.067 30.3592L169.424 27.2128H169.431L171.244 24.7947C171.619 24.2965 171.987 23.7868 172.359 23.3077C172.566 23.0663 172.842 22.8823 173.149 22.7904C173.455 22.6984 173.781 22.6907 174.091 22.775C174.402 22.8593 174.681 23.0318 174.896 23.2694C175.114 23.507 175.252 23.8021 175.31 24.1163C175.348 24.3616 175.337 24.6145 175.272 24.8521C175.21 25.0936 175.099 25.3197 174.946 25.5151C174.114 26.5958 173.298 27.6881 172.482 28.7918L171.497 30.1062C171.428 30.1982 171.397 30.3247 171.497 30.3937C171.524 30.4167 171.566 30.4511 171.715 30.3898C172.06 30.2519 172.443 30.2365 172.804 30.3438C173.16 30.455 173.467 30.6887 173.674 31.003C173.823 31.2138 173.903 31.4705 173.892 31.7273C173.888 31.9841 173.8 32.237 173.639 32.4401C173.601 32.4976 173.574 32.5627 173.555 32.6279C173.555 32.6509 173.555 32.6739 173.562 32.6969C173.57 32.7199 173.589 32.739 173.608 32.7467C173.635 32.7659 173.662 32.7735 173.697 32.7774C173.731 32.7774 173.762 32.7774 173.788 32.7582C173.892 32.7122 174.011 32.6547 174.133 32.6011C174.302 32.5359 174.482 32.5168 174.658 32.5436C174.835 32.5704 175.003 32.6432 175.145 32.7544C175.295 32.8578 175.421 32.9881 175.517 33.1414C175.613 33.2947 175.678 33.4633 175.708 33.6473C175.735 33.8236 175.731 34.0075 175.685 34.1838C175.643 34.3601 175.563 34.5249 175.452 34.6705C175.367 34.797 175.387 34.8468 175.394 34.8813C175.421 34.9388 175.452 34.9694 175.574 34.9848C176.007 35.0269 176.417 35.2224 176.716 35.5405C177.019 35.8585 177.195 36.2724 177.215 36.7093C177.211 37.3071 177.057 37.8897 176.77 38.407C176.188 39.4992 175.421 40.4726 174.501 41.3004" fill="#4285F4"/>
<path d="M187.413 219.826C194.821 219.826 200.826 213.821 200.826 206.413C200.826 199.005 194.821 193 187.413 193C180.005 193 174 199.005 174 206.413C174 213.821 180.005 219.826 187.413 219.826Z" fill="#EFEFEF"/>
</svg>
