<svg xmlns="http://www.w3.org/2000/svg" xmlns:xlink="http://www.w3.org/1999/xlink" width="256" height="256" viewBox="0 0 256 256">
  <defs>
    <clipPath id="clip-img">
      <rect width="256" height="256"/>
    </clipPath>
  </defs>
  <g id="img" clip-path="url(#clip-img)">
    <g id="Group_3649" data-name="Group 3649" transform="translate(6472 -2856.951)">
      <path id="Path_1811" data-name="Path 1811" d="M424.76,17.132c.546-.889.663-2.059,1.492-2.752-.022.374-.041.75-.068,1.124.281.218.565.436.846.66a7.4,7.4,0,0,0,.267,1.672c.035.417.063.835.076,1.255a7.9,7.9,0,0,1-1.579-3.074,2.223,2.223,0,0,0-.145,2.605,5.485,5.485,0,0,1,3.792,3.322c-.747-.51-1.468-1.058-2.248-1.519.33,1.26,1.549,1.866,2.493,2.61.117-.278.235-.554.355-.829l.147-.341a19.083,19.083,0,0,1,2.7,4.645c-.567-.649-1.056-1.364-1.56-2.062.188,1.961,1.68,3.344,2.359,5.106l.106.254c-.281-.076-.559-.161-.832-.251-.019-1.058-.977-1.718-1.41-2.608-.734.884.652,1.375,1.11,1.983-.18.734-1.217,2.095-.052,2.4-.314.106-.622.218-.927.333.747.09,1.6.322,2.226-.248a2.975,2.975,0,0,1,1.6-.633c-.987,2.223-3.415,1.225-5.281,1.3a10.045,10.045,0,0,0-1.372-.046,1.672,1.672,0,0,0-.516-.974,3.53,3.53,0,0,0-.256,1.476c.03.237.087.712.117.947-.554-.6-1.1-1.206-1.661-1.8a5.522,5.522,0,0,0-1.345-1.067c-.1-.06-.292-.177-.387-.237-.286-.172-.567-.344-.848-.516q-.176.7-.341,1.41c.319-.172.641-.344.955-.532.027.128.076.379.1.507.112.434.24.865.368,1.3-.521.2-1.037.406-1.552.611l.068-.286.254-1.042a3.766,3.766,0,0,0-1.915-.055c.134.262.273.524.42.786a5.149,5.149,0,0,1-4.651.142,2.64,2.64,0,0,1,.979-3.4c1.9-4.1,4.583-7.88,6.116-12.171m1.233,2.3a1.789,1.789,0,0,0,1.091,1.427c.106-.75-.551-1.1-1.091-1.427m-.728,1.206c-1.154.753.889.728,0,0m.436.4c.03.153.087.458.115.611.949.166,1.59.919,2.392,1.378-.518-.985-1.708-1.282-2.507-1.989m-3.022,4.045-.406.03c.082.262.158.526.232.794a8.694,8.694,0,0,0-2.2,2.8c.254.175.507.346.764.526.873-2.76,2.758-5.071,3.871-7.739-1.187.813-1.489,2.422-2.261,3.592m2.687-2.859a18.365,18.365,0,0,0-1.424,2.763c1.05-.191,1.293-1.421,1.8-2.2.259-.281,0-.761-.379-.562m-.24,3.358c.977-.5,1.009-1.819,1.429-2.73a8.98,8.98,0,0,0-1.429,2.73m3.47-2.31a24.44,24.44,0,0,0,1.852,2.087c-.109-.341-.216-.679-.322-1.02.166-.262.333-.521.5-.78a17.68,17.68,0,0,0-2.032-.286M427.018,24.8c.57-.235.554-.87.649-1.38-.712.112-.736.821-.649,1.38m1.121-.676a8.482,8.482,0,0,0,1.522,2.226c.025-.207.074-.625.1-.835-.535-.469-1.069-.944-1.62-1.391m-1.77.8a12.443,12.443,0,0,0-.273,1.257c.529.447.726-.374,1.034-.679-.256-.194-.507-.385-.761-.578m-2.7.237c-.139.357-.275.717-.412,1.077.125.087.382.267.507.357q.262-.368.54-.72c-.213-.24-.426-.477-.636-.715m7.215.281a14.078,14.078,0,0,0-.794,1.413c.767-.033.837-.821.794-1.413M427.046,27c.155.109.464.33.619.439q.164-.8.273-1.607A4.233,4.233,0,0,0,427.046,27m-2.335-.723a.681.681,0,0,0-.319.914c.5.262,1.072-1.124.319-.914m-2.256.636c.025.521.06,1.039.112,1.558-.7-.207-.769.532-.979.993.153.1.461.308.616.412a5.327,5.327,0,0,0,.4-.977c.194-.281.385-.565.57-.851.025-.229.071-.69.093-.919-.273-.074-.543-.145-.813-.215m2.6.687c.556,1.257,1.533-.142.881-.835a4.336,4.336,0,0,0-.881.835m3.071.057c.246.254.5.5.747.758.128-.6.652-1.394-.106-1.8-.218.346-.428.693-.641,1.039m-4.323-.041c-.232.453-.286.933.2,1.238.106-.278.21-.559.308-.843l-.5-.4m3.071-.025c-.2.352-.4.706-.592,1.058.251.194.5.387.758.578.156-.567.491-1.257-.166-1.637m2.785.1c-.027.406-.055.813-.079,1.219.131.106.4.316.526.42q.119-.827.237-1.656c-.172.005-.513.014-.685.016m1.271.57a1.988,1.988,0,0,0,.415,2.4c.112-.619.224-1.236.338-1.855-.254-.183-.5-.363-.753-.546m-6.337.109c.082.45.183.895.3,1.337.745-.521.57-1.162-.3-1.337m2.78,1.222c.235.183.472.363.712.546.177-.368.36-.736.543-1.1-.627-.862-1.045-.169-1.255.559m-4.2,1.17c.155-.518.3-1.042.409-1.574-.764.12-1.184,1.151-.409,1.574m2.67-1.517c-.1.306-.191.614-.281.922.382-.041.758-.085,1.14-.131-.286-.267-.573-.529-.859-.791m3.189.079c-.483.827-.336,1.754.649,2.038.076-.761.123-1.607-.649-2.038m-8.718.5c-.93.657.93.559,0,0m.8.256q-.172.421-.336.851c.57.09,1.14.175,1.713.267q-.7-.548-1.378-1.118m5.914.292c.15.447.27.963.78,1.124-.014-.314-.03-.625-.049-.938l-.731-.185m-8.753,2.089a11.237,11.237,0,0,0,.963-1.926c-.5.48-1.822,1.173-.963,1.926M430.406,30.7c-.671.477.824.829.927.276a.7.7,0,0,0-.927-.276m-10.914.507C418.543,31.865,420.431,31.742,419.492,31.207Z" transform="translate(-6784.936 2866.571)" fill="#fff" opacity="0.7"/>
      <path id="Path_1812" data-name="Path 1812" d="M437.4,79.13C438.336,79.708,436.459,79.755,437.4,79.13Z" transform="translate(-6799.304 2819.483)" fill="#fff" opacity="0.7"/>
      <path id="Path_1813" data-name="Path 1813" d="M391.4,79.32c.554.636,1.069,1.3,1.563,1.989.363-.055.726-.115,1.091-.177-.573,1.339-.213,2.829-.655,4.182-.1,2.627-.349,5.316-1.945,7.575a1.55,1.55,0,0,0-.2,1.148c-1.23,4.111-2.1,8.41-3.77,12.4.316.207.633.412.952.622l-.881.076a21.146,21.146,0,0,0-1.167,2.968c.761.341,1.975.393,2.1,1.424-.881-.245-1.735-.565-2.591-.878-.03.464-.063.927-.09,1.391.761.068,1.71-.068,2.111.767a19.6,19.6,0,0,1-2.259-.256,22.224,22.224,0,0,0-1.2,3.68,4.983,4.983,0,0,1,3.546,1.549c-1.358.145-2.27-1.23-3.65-1.02,1,1.585-.175,4.375,1.762,5.259l.155.046c.3.093.6.185.9.284-.355,1.244.917,1.607,1.893,1.519.194-.183.387-.368.584-.551-.758-.45-1.735-.736-2.073-1.639,1.427.308,2.485,1.413,3.876,1.817-.065.112-.191.333-.256.442.633.442,1.533.734,1.642,1.618a9.356,9.356,0,0,1-2.537-1.328,4.375,4.375,0,0,1-1.146.75,18.046,18.046,0,0,0,3.862,2.572c.128-.586.286-1.167.434-1.748.406.311.807.63,1.2.966-.18.093-.537.281-.715.374.1.085.306.251.409.336.327-.082.657-.166.987-.248.076.125.229.371.306.5-.188.035-.567.112-.758.147,2.087,1.765,4.959,2.057,7.158,3.661.908.816,2.537.327,3.009,1.683a15.089,15.089,0,0,1-5.325-2.111c-3.721-1.5-7.608-2.905-10.723-5.507.273.521.562,1.034.821,1.566-1.6-.99-2.321-2.949-4.073-3.723a3.7,3.7,0,0,1-1.65-2.392,5.33,5.33,0,0,0-.565-1.495,7.559,7.559,0,0,0,.033-2.016c-.289-2.144.644-4.209,1.484-6.127a10.882,10.882,0,0,0,.968-2.9c-.295.554-.556,1.127-.816,1.7l-.494.019a28.59,28.59,0,0,1,1.32-4.31c.308.041.616.085.927.128a18.671,18.671,0,0,1,1.378-4.484c1.061-4.236,2.589-8.369,3.235-12.709-.1-.09-.308-.27-.412-.36-.436,1.028-1.129,2.087-.731,3.246l-.767-.172c.022,1.064.076,2.125.033,3.186a2.72,2.72,0,0,1-.772-2.07,25.828,25.828,0,0,1,1.765-4.828c-.1-.338-.207-.679-.308-1.015-.889,1.778-1.107,3.789-1.817,5.636-.336,1.318-1.219,2.441-1.375,3.811.7-.865,1-1.967,1.727-2.815-.251,1.819-2.054,3.2-1.266,5.169.366-1,.046-2.28.881-3.047a4.39,4.39,0,0,1-.985,3.961c-.254-.518-.5-1.039-.747-1.558-.453.739-.895,1.487-1.339,2.231.153.717.314,1.432.447,2.155-.546-.15-.81-.644-1.08-1.088a4.771,4.771,0,0,0-.957,2.3c-.24.065-.477.134-.712.2.36,1.053-.191,2.079-.516,3.061a2.77,2.77,0,0,1-.044-2.144c-1.495,1.7-2.905,3.617-2.867,6-.224-.475-.423-.96-.6-1.448a5.149,5.149,0,0,1-2.182,3.358c-.9,1.517-1.912,2.973-2.9,4.441-1.187,1.65-2.774,3.175-3.129,5.265-.275,1.38-1.1,2.725-.679,4.171.567,2.253,1,4.834,2.96,6.339a21.765,21.765,0,0,0,9.964,5.8c7.87,2.283,15.682,4.825,23.688,6.637a50.24,50.24,0,0,1,14.206,5.938c2.455,1.069,4.558,2.722,6.893,4.013a23.1,23.1,0,0,1,5.131,5.826c1.08,2.531.578,5.385.821,8.058l-.832-.33a30.26,30.26,0,0,0,.027-5.423,6.618,6.618,0,0,0-3.369-4.539c.125-.087.379-.259.5-.346-1.2-.813-1.776-2.28-3.091-2.941-3.221-1.89-6.317-4.051-9.765-5.5-6.249-3.835-13.737-4.441-20.6-6.639-5.483-1.754-11.075-3.134-16.492-5.09a20.3,20.3,0,0,1-9.615-7.343c-.554-1.792-1.5-3.576-1.364-5.5a16.364,16.364,0,0,1,.376-2.384,43.43,43.43,0,0,1,2.837-6.421c.371-1.009,1.648-1.072,2.073-2.049,1.1-1.9,2.943-3.224,3.928-5.191.363-.611.734-1.217,1.1-1.828,1.448-2.409,3.186-4.7,4-7.433a14.616,14.616,0,0,1,3.069-5.087,18.327,18.327,0,0,0,1.645-4.163c.164-.537.333-1.072.5-1.607a6.4,6.4,0,0,1,1.227-2.867q-.524.082-1.047.155c1.541-.7,1.658-2.428,1.454-3.9.27.115.537.229.807.346-.008-.09-.025-.27-.035-.36a10.8,10.8,0,0,1,.172-3.339m.7,1.77a3.61,3.61,0,0,0,.851,2.106,2.139,2.139,0,0,0-.851-2.106m-.175,1.874c-.166.229-.333.461-.494.693A5.935,5.935,0,0,1,392,86.306c-.385-.447-.753-.908-1.116-1.372-.115.406-.226.813-.338,1.219a7.5,7.5,0,0,1,1.446,1.9c.016-1.688,1.421-3.707-.074-5.087m-6.285,15.919a2.975,2.975,0,0,0,1.1-2.016,3.247,3.247,0,0,0-1.1,2.016m-.185.093c-.325.142-.685.576-.532.941.42.164,1-.764.532-.941m-12.068,17.158a.765.765,0,0,0-.445.955C373.357,117.258,373.848,116.276,373.379,116.134Z" transform="translate(-6749.966 2819.345)" fill="#fff" opacity="0.7"/>
      <path id="Path_1814" data-name="Path 1814" d="M442.67,95.767a10.566,10.566,0,0,1,.355-2c.1.786.161,1.574.221,2.362Z" transform="translate(-6803.334 2808.837)" fill="#fff" opacity="0.7"/>
      <path id="Path_1815" data-name="Path 1815" d="M421.549,166.6c.125.289.616.54.382.895a13.931,13.931,0,0,1-2.321,3.745A46.7,46.7,0,0,1,421.549,166.6Z" transform="translate(-6786.565 2755.873)" fill="#fff" opacity="0.7"/>
      <path id="Path_1816" data-name="Path 1816" d="M433.46,187.75a2.689,2.689,0,0,1,1.718.592C434.581,188.252,433.632,188.571,433.46,187.75Z" transform="translate(-6796.637 2740.492)" fill="#fff" opacity="0.7"/>
      <path id="Path_1817" data-name="Path 1817" d="M389.54,198.175c.54-.461,1.075-.933,1.631-1.375-.374.627-.788,1.23-1.2,1.83C389.824,198.478,389.682,198.328,389.54,198.175Z" transform="translate(-6764.697 2733.911)" fill="#fff" opacity="0.7"/>
      <path id="Path_1818" data-name="Path 1818" d="M406.972,199c.248-.6.376-1.628,1.271-1.391a25.948,25.948,0,0,1-2.283,5.164A15.631,15.631,0,0,1,406.972,199Z" transform="translate(-6776.638 2733.349)" fill="#fff" opacity="0.7"/>
      <path id="Path_1819" data-name="Path 1819" d="M383.888,203.915l.75-.065a10.272,10.272,0,0,1-1.989,2.008A22.264,22.264,0,0,1,383.888,203.915Z" transform="translate(-6759.687 2728.784)" fill="#fff" opacity="0.7"/>
      <path id="Path_1820" data-name="Path 1820" d="M428.74,207.738c.761,0,2.049-.038,2.079,1A4.69,4.69,0,0,1,428.74,207.738Z" transform="translate(-6793.205 2725.957)" fill="#fff" opacity="0.7"/>
      <path id="Path_1821" data-name="Path 1821" d="M374.23,215.774a8.072,8.072,0,0,0,1.656-1.244,12.405,12.405,0,0,1-1.378,1.885C374.418,216.2,374.325,215.987,374.23,215.774Z" transform="translate(-6753.563 2721.017)" fill="#fff" opacity="0.7"/>
      <path id="Path_1822" data-name="Path 1822" d="M357.79,227.651a12.787,12.787,0,0,1,4.105-6.541l.2.608a7.885,7.885,0,0,1-1.735,2.106,18.858,18.858,0,0,1-.9,2.616,6.473,6.473,0,0,0-.235,1.023c-.025.145-.076.434-.1.576-.087.074-.265.218-.355.289-.286.221-.581.428-.884.625l-.038-.319C357.823,228.306,357.8,227.978,357.79,227.651Z" transform="translate(-6741.608 2716.232)" fill="#fff" opacity="0.7"/>
      <path id="Path_1823" data-name="Path 1823" d="M400.189,226.082c-.134-1.869,0-4.064,1.23-5.562A14.077,14.077,0,0,1,400.189,226.082Z" transform="translate(-6772.411 2716.661)" fill="#fff" opacity="0.7"/>
      <path id="Path_1824" data-name="Path 1824" d="M426.76,222.613l.573-1.173c1.3.584,2.785.987,3.732,2.125C429.581,223.442,428.279,221.923,426.76,222.613Z" transform="translate(-6791.765 2715.992)" fill="#fff" opacity="0.7"/>
      <path id="Path_1825" data-name="Path 1825" d="M430.27,227.49A3.233,3.233,0,0,1,432.755,229C431.8,228.775,430.5,228.666,430.27,227.49Z" transform="translate(-6794.317 2711.595)" fill="#fff" opacity="0.7"/>
      <path id="Path_1826" data-name="Path 1826" d="M444.98,245.891C445.8,245.49,444.994,246.808,444.98,245.891Z" transform="translate(-6805.015 2698.267)" fill="#fff" opacity="0.7"/>
      <path id="Path_1827" data-name="Path 1827" d="M449.322,248.379a.69.69,0,0,1,.75.54C449.884,249.569,448.632,248.682,449.322,248.379Z" transform="translate(-6808.022 2696.404)" fill="#fff" opacity="0.7"/>
      <path id="Path_1828" data-name="Path 1828" d="M401.81,249.85a5.34,5.34,0,0,1,2.1,3.208c-.57-.221-1.132-.456-1.7-.674A6.344,6.344,0,0,1,401.81,249.85Z" transform="translate(-6773.604 2695.332)" fill="#fff" opacity="0.7"/>
      <path id="Path_1829" data-name="Path 1829" d="M362.653,252.825l.914-.145c-.06.783-.128,1.566-.188,2.351l-.878.09A18.992,18.992,0,0,1,362.653,252.825Z" transform="translate(-6745.033 2693.273)" fill="#fff" opacity="0.7"/>
      <path id="Path_1830" data-name="Path 1830" d="M354.872,255.529c.475-.207.75.859.232.922A.606.606,0,0,1,354.872,255.529Z" transform="translate(-6739.396 2691.221)" fill="#fff" opacity="0.7"/>
      <path id="Path_1831" data-name="Path 1831" d="M470.63,255.31a7.709,7.709,0,0,1,3.08,1.107C472.643,256.262,471.366,256.2,470.63,255.31Z" transform="translate(-6823.668 2691.361)" fill="#fff" opacity="0.7"/>
      <path id="Path_1832" data-name="Path 1832" d="M482.6,258.71c2.965.513,5.753,1.727,8.674,2.441,2.278.873,5.025.911,6.836,2.725-4.757-1.675-9.752-2.58-14.473-4.359A1.436,1.436,0,0,1,482.6,258.71Z" transform="translate(-6832.373 2688.888)" fill="#fff" opacity="0.7"/>
      <path id="Path_1833" data-name="Path 1833" d="M355.68,260.37c.974.259.832,1.506,1.1,2.283A3.2,3.2,0,0,1,355.68,260.37Z" transform="translate(-6740.073 2687.681)" fill="#fff" opacity="0.7"/>
      <path id="Path_1834" data-name="Path 1834" d="M479.38,261.05a23.841,23.841,0,0,1,4.073,1.459,26.565,26.565,0,0,1,5.726,2.027,58.778,58.778,0,0,1-8.47-2.474A2.418,2.418,0,0,1,479.38,261.05Z" transform="translate(-6830.031 2687.187)" fill="#fff" opacity="0.7"/>
      <path id="Path_1835" data-name="Path 1835" d="M325.828,266.388c.352-.295.685-.606,1.026-.908a46.33,46.33,0,0,0,2.447,4.07l1.012.27-.979.54c.246.131.488.267.737.409-.09.147-.267.442-.355.589a16.167,16.167,0,0,1-4.2-1.132c-.226-.376-.453-.747-.693-1.113-.038.1-.112.306-.15.406.093.117.284.352.376.469a94.34,94.34,0,0,1-10.911-.862,11.459,11.459,0,0,1-3.677-.835c4.482.344,8.95,1.075,13.453,1.1.112-.243.226-.483.344-.723a3.925,3.925,0,0,0,1.795.12,15.035,15.035,0,0,0,1.9.48c-1.6-1.688-4.272-.687-6.279-1.443.949-.458,2-.049,3-.065-1.236-1.361-3.391.3-4.667-.963,1.4-.008,2.8-.085,4.193-.2.262-.014.526-.03.791-.049.281-.044.562-.1.84-.166m-.925,1.3a22.072,22.072,0,0,0,2.463.336,4.285,4.285,0,0,0-1.14-1.361,8.754,8.754,0,0,0-1.323,1.026m.649,1.718c.1.131.306.393.409.524a8.366,8.366,0,0,1,3.031.556C328.049,269.651,326.723,269.64,325.553,269.4Z" transform="translate(-6707.188 2683.965)" fill="#fff" opacity="0.7"/>
      <path id="Path_1836" data-name="Path 1836" d="M423.64,269.43a10.681,10.681,0,0,1,4.449,2.744C426.529,271.563,424.2,271.241,423.64,269.43Z" transform="translate(-6789.496 2681.093)" fill="#fff" opacity="0.7"/>
      <path id="Path_1837" data-name="Path 1837" d="M291.2,273.69c.764-.9,2.079-.106,3.044-.033A12.356,12.356,0,0,1,291.2,273.69Z" transform="translate(-6693.182 2678.305)" fill="#fff" opacity="0.7"/>
      <path id="Path_1838" data-name="Path 1838" d="M516.86,273.1a10.069,10.069,0,0,1,1.77.633C518.03,273.616,516.983,273.935,516.86,273.1Z" transform="translate(-6857.288 2678.424)" fill="#fff" opacity="0.7"/>
      <path id="Path_1839" data-name="Path 1839" d="M303.17,274.724a3.344,3.344,0,0,1,2.144.423A2.881,2.881,0,0,1,303.17,274.724Z" transform="translate(-6701.887 2677.25)" fill="#fff" opacity="0.7"/>
      <path id="Path_1840" data-name="Path 1840" d="M541.255,275.03a1.107,1.107,0,0,1,1.217.349C542.3,275.843,541.2,275.5,541.255,275.03Z" transform="translate(-6875.026 2677.069)" fill="#fff" opacity="0.7"/>
      <path id="Path_1841" data-name="Path 1841" d="M500.5,276.28c1.768.458,3.682.944,4.945,2.362A23.753,23.753,0,0,1,500.5,276.28Z" transform="translate(-6845.39 2676.111)" fill="#fff" opacity="0.7"/>
      <path id="Path_1842" data-name="Path 1842" d="M549.46,276.926C550.265,276.495,549.512,277.837,549.46,276.926Z" transform="translate(-6880.995 2675.705)" fill="#fff" opacity="0.7"/>
      <path id="Path_1843" data-name="Path 1843" d="M520.2,278.18a1.864,1.864,0,0,1,1.4.349C521.373,278.982,520.271,278.649,520.2,278.18Z" transform="translate(-6859.716 2674.751)" fill="#fff" opacity="0.7"/>
      <path id="Path_1844" data-name="Path 1844" d="M551.7,281.72c3.014.325,5.537,2.3,8.546,2.769,1.74,1.034,3.86,1.113,5.586,2.109-3.366-.4-6.517-1.694-9.787-2.5-1.187-.3-2.545-.1-3.59-.832,1,.093,1.991.336,3,.423C554.245,282.931,552.679,282.882,551.7,281.72Z" transform="translate(-6882.624 2672.155)" fill="#fff" opacity="0.7"/>
      <path id="Path_1845" data-name="Path 1845" d="M327.869,283.3c2.447-.128,4.771.854,7.209.843,1.481-.011,2.878.548,4.343.679.341.038.685.079,1.026.139.671.131,1.339.276,2.016.4-.2-.33-.39-.657-.586-.985,2.834,1.915,5.922,3.475,8.661,5.5-2.84-.985-5.134-2.957-7.709-4.43-.374.169-.75.33-1.127.491.338.387.685.772,1.009,1.17a8.96,8.96,0,0,0-5.117-1.92,5.048,5.048,0,0,0-3.292-.09l-.284.074a73.833,73.833,0,0,0-9.787-.979c0-.093.005-.276.008-.366,2.158.191,4.326.175,6.489.256C329.838,283.6,328.764,283.763,327.869,283.3Z" transform="translate(-6717.202 2671.015)" fill="#fff" opacity="0.7"/>
      <path id="Path_1846" data-name="Path 1846" d="M536.55,282.782C537.466,282.146,536.771,283.862,536.55,282.782Z" transform="translate(-6871.606 2671.489)" fill="#fff" opacity="0.7"/>
      <path id="Path_1847" data-name="Path 1847" d="M520.16,284.47a11.058,11.058,0,0,1,3.219,1.5C522.225,285.774,520.643,285.771,520.16,284.47Z" transform="translate(-6859.688 2670.155)" fill="#fff" opacity="0.7"/>
      <path id="Path_1848" data-name="Path 1848" d="M466.213,287.76a18.683,18.683,0,0,1,3.538,1.408,5.4,5.4,0,0,1-3.811-.548C466.03,288.33,466.12,288.046,466.213,287.76Z" transform="translate(-6820.257 2667.762)" fill="#fff" opacity="0.7"/>
      <path id="Path_1849" data-name="Path 1849" d="M312.37,289.764c1.274-.12,2.63-.458,3.865.025C314.972,289.808,313.54,290.4,312.37,289.764Z" transform="translate(-6708.577 2666.47)" fill="#fff" opacity="0.7"/>
      <path id="Path_1850" data-name="Path 1850" d="M533.222,289.126a.726.726,0,0,1,.966.475C533.983,290.114,533,289.6,533.222,289.126Z" transform="translate(-6869.163 2666.813)" fill="#fff" opacity="0.7"/>
      <path id="Path_1851" data-name="Path 1851" d="M326.44,290.01c2.534-.379,5.112.21,7.657.185-.357.145-.715.286-1.075.423,4.8,1.124,9.771,1.176,14.569,2.144-.112.12-.333.363-.445.483.145.256.286.51.431.769a31.81,31.81,0,0,0-7.755-1.361c.025-.158.074-.477.1-.636-1.77-.273-3.538-.6-5.327-.7C331.95,290.441,329.151,290.536,326.44,290.01Z" transform="translate(-6718.809 2666.219)" fill="#fff" opacity="0.7"/>
      <path id="Path_1852" data-name="Path 1852" d="M538.65,290.96c1.648.646,3.47.955,4.97,1.915-1.732.117-3.134-.987-4.76-1.309C538.808,291.413,538.7,291.113,538.65,290.96Z" transform="translate(-6873.134 2665.435)" fill="#fff" opacity="0.7"/>
      <path id="Path_1853" data-name="Path 1853" d="M378.79,293.03a3.472,3.472,0,0,1,2.387.783C380.388,293.644,379.213,293.9,378.79,293.03Z" transform="translate(-6756.879 2663.93)" fill="#fff" opacity="0.7"/>
      <path id="Path_1854" data-name="Path 1854" d="M482.685,293.4a5.573,5.573,0,0,1,1.566.728C483.585,294.172,482.568,294.445,482.685,293.4Z" transform="translate(-6832.428 2663.661)" fill="#fff" opacity="0.7"/>
      <path id="Path_1855" data-name="Path 1855" d="M344.95,296.047a13.744,13.744,0,0,1,2.616.035,14.087,14.087,0,0,1,3.816.761C349.265,296.565,346.884,297.029,344.95,296.047Z" transform="translate(-6732.27 2661.77)" fill="#fff" opacity="0.7"/>
      <path id="Path_1856" data-name="Path 1856" d="M562.68,298.64c4.724.723,8.991,3.1,13.688,3.933a51.17,51.17,0,0,1,20.8,8.669c2.616,2.469,5.622,4.659,7.52,7.78,4.094,5.5,5.507,12.359,8.052,18.611-.295-.093-.595-.175-.889-.254-.867-2.66-1.814-5.295-2.875-7.883a34.1,34.1,0,0,0-8.2-14.2c-2.436-2.07-4.716-4.55-7.818-5.605-2.07-2.081-5.046-2.834-7.679-3.969-3.86-1.678-8-2.409-12.092-3.243a60.445,60.445,0,0,0-9.994-3.1Q562.934,299.012,562.68,298.64Z" transform="translate(-6890.609 2659.85)" fill="#fff" opacity="0.7"/>
      <path id="Path_1857" data-name="Path 1857" d="M617.41,299.515a4.446,4.446,0,0,0,2.376-.085c0,.172.005.516.005.685A17.788,17.788,0,0,1,617.41,299.515Z" transform="translate(-6930.41 2659.276)" fill="#fff" opacity="0.7"/>
      <path id="Path_1858" data-name="Path 1858" d="M627.229,301.1C628.623,300.727,627.2,302.462,627.229,301.1Z" transform="translate(-6937.55 2658.102)" fill="#fff" opacity="0.7"/>
      <path id="Path_1859" data-name="Path 1859" d="M390.991,302.72c1.98.507,3.631,1.836,5.63,2.319l-.169.106c-.082.055-.248.161-.33.213a86.519,86.519,0,0,0-10.262-.938c-.005-.142-.022-.428-.03-.57,2.561.229,5.131.011,7.684.349C392.8,303.473,391.43,303.661,390.991,302.72Z" transform="translate(-6761.999 2656.883)" fill="#fff" opacity="0.7"/>
      <path id="Path_1860" data-name="Path 1860" d="M632.22,302.81c2.911.322,5.676,1.388,8.508,2.1.8.306,2.171.316,2.095,1.495a16.052,16.052,0,0,1-4.22-1.247C636.623,304,634.086,304.179,632.22,302.81Z" transform="translate(-6941.18 2656.818)" fill="#fff" opacity="0.7"/>
      <path id="Path_1861" data-name="Path 1861" d="M517.03,304.564c.068-.325.136-.649.2-.974,1.227.753,2.894.9,3.764,2.144C519.649,305.434,518.375,304.88,517.03,304.564Z" transform="translate(-6857.411 2656.25)" fill="#fff" opacity="0.7"/>
      <path id="Path_1862" data-name="Path 1862" d="M363.55,304.86a17.19,17.19,0,0,1,2.924.494C365.495,305.343,364.278,305.725,363.55,304.86Z" transform="translate(-6745.796 2655.327)" fill="#fff" opacity="0.7"/>
      <path id="Path_1863" data-name="Path 1863" d="M376.07,306.771a1.946,1.946,0,0,1,2.515.15C377.745,306.91,376.9,306.864,376.07,306.771Z" transform="translate(-6754.901 2654.231)" fill="#fff" opacity="0.7"/>
      <path id="Path_1864" data-name="Path 1864" d="M632.37,305.713C633.177,305.29,632.411,306.624,632.37,305.713Z" transform="translate(-6941.289 2654.769)" fill="#fff" opacity="0.7"/>
      <path id="Path_1865" data-name="Path 1865" d="M659.431,306.21C660.356,306.824,658.471,306.791,659.431,306.21Z" transform="translate(-6960.764 2654.345)" fill="#fff" opacity="0.7"/>
      <path id="Path_1866" data-name="Path 1866" d="M636.16,306.84a32.358,32.358,0,0,1,3.254.944c-.019.117-.06.355-.082.472C638.252,307.857,636.992,307.71,636.16,306.84Z" transform="translate(-6944.045 2653.887)" fill="#fff" opacity="0.7"/>
      <path id="Path_1867" data-name="Path 1867" d="M392.21,310.96c3.1.439,6.124,1.247,9.258,1.375-.551-.259-1.1-.521-1.631-.821l.649.022c.4.033.813.076,1.217.125,2.051.366,4.179.374,6.148,1.121-3.205,1.249-6.675-.431-9.989.019-1.65.025-3.442.406-5-.259a33.237,33.237,0,0,1,4.484-.175C395.775,311.563,393.377,312.338,392.21,310.96Z" transform="translate(-6766.639 2650.891)" fill="#fff" opacity="0.7"/>
      <path id="Path_1868" data-name="Path 1868" d="M649.37,310.883C650.183,310.46,649.411,311.794,649.37,310.883Z" transform="translate(-6953.652 2651.009)" fill="#fff" opacity="0.7"/>
      <path id="Path_1869" data-name="Path 1869" d="M661.733,313.636c.158-.827,1-.513,1.538-.316,1.181.447,2.275,1.1,3.475,1.506.627,1.02,1.866,1.309,2.916,1.7-.076.139-.235.415-.311.554.96.884,1.869,1.825,2.878,2.657-.112.183-.33.546-.442.728-1.353-.606-2.013-2.062-3.4-2.6.256.4.507.8.753,1.214-2.122-1.1-4.053-2.548-6.274-3.47-1.566-.788-3.366-1.077-4.8-2.125a29.73,29.73,0,0,1,9.37,3.963c-.005-.4-.008-.8-.005-1.195a7.049,7.049,0,0,0-5-1.98c.082-.281.169-.562.259-.84Z" transform="translate(-6959.979 2649.339)" fill="#fff" opacity="0.7"/>
      <path id="Path_1870" data-name="Path 1870" d="M425.99,320.64c2.583.314,5.218-.1,7.755.646.461.022.458.567.616.878a13.1,13.1,0,0,0-3.614-.436c-.112.368-.224.736-.333,1.1-2.327-.322-4.681-.183-7.01-.4a1.068,1.068,0,0,1-.974-.565c2.6-.155,5.213.254,7.8-.052-.079-.087-.235-.259-.314-.344-1.165.03-2.324-.115-3.486-.172C426.322,321.134,426.1,320.8,425.99,320.64Z" transform="translate(-6788.616 2643.851)" fill="#fff" opacity="0.7"/>
      <path id="Path_1871" data-name="Path 1871" d="M416.8,323.168c.431-.794,1.519-.5,2.264-.608A8.044,8.044,0,0,1,416.8,323.168Z" transform="translate(-6784.521 2642.455)" fill="#fff" opacity="0.7"/>
      <path id="Path_1872" data-name="Path 1872" d="M579.549,323.79c1.59,1.132,3.764,1.62,4.883,3.292-1.688-.816-3.606-1.328-4.992-2.638Z" transform="translate(-6902.797 2641.561)" fill="#fff" opacity="0.7"/>
      <path id="Path_1873" data-name="Path 1873" d="M702.26,326.38a5.947,5.947,0,0,1,3.3.971A5.477,5.477,0,0,1,702.26,326.38Z" transform="translate(-6992.115 2639.677)" fill="#fff" opacity="0.7"/>
      <path id="Path_1874" data-name="Path 1874" d="M464.28,328.08c1.858.166,3.729.207,5.586.371.636.1,1.263.259,1.888.417.049.123.15.368.2.491a34.567,34.567,0,0,0-5.846-.619C465.472,328.661,464.528,328.849,464.28,328.08Z" transform="translate(-6819.05 2638.441)" fill="#fff" opacity="0.7"/>
      <path id="Path_1875" data-name="Path 1875" d="M502.81,330.86c4.146.84,8.041,2.572,12.062,3.849,4.945,1.729,10.049,5.022,11.44,10.4.7,4.662-.971,9.446-3.571,13.249.21-1.7,1.53-3.028,1.383-4.809-2.916.281-5.756,1.3-8.71,1.072,3.039-1.116,6.533-.955,9.514-2.278.1-.592.21-1.181.333-1.768-2.169.791-4.561.827-6.828,1.282l-.065-.477c2.34-.412,4.7-.728,7.021-1.236a2.117,2.117,0,0,1,.644-1.525c-1.923.488-3.9.676-5.859,1a3.391,3.391,0,0,1-2.362-.191,64.24,64.24,0,0,0,8.251-1.664c.027-.971.025-1.942-.022-2.91-2.523-.18-5.038.153-7.542.147,2.286-.731,4.784-.439,7.038-1.307q-.548-.679-1.1-1.353a19.051,19.051,0,0,1-8.884-.363c2.856-.052,5.709.276,8.568.071-.1-.42-.2-.84-.295-1.258-.136-.06-.412-.177-.551-.237-1.435.316-2.856-.305-4.3-.254-1.282-.153-2.687.3-3.86-.4a29.231,29.231,0,0,1,7.591.215c-1.012-.99-2.16-2.376-3.732-2.13-2.572.044-5.128-.349-7.706-.27v-.551c2.589.2,5.191.022,7.785.235-1.271-1.064-2.968-.295-4.424-.807-1.912-.556-4.228.055-5.911-1.039,2.537.016,5.052.494,7.591.488-4.266-1.71-8.682-3.028-12.992-4.624C503.189,331.275,502.935,331,502.81,330.86Z" transform="translate(-6847.07 2636.419)" fill="#fff" opacity="0.7"/>
      <path id="Path_1876" data-name="Path 1876" d="M472.61,335.21c4.105.2,8.26.295,12.34.843.041.164.117.488.158.649q-5.516-.655-11.053-1.023A2.816,2.816,0,0,1,472.61,335.21Z" transform="translate(-6825.108 2633.256)" fill="#fff" opacity="0.7"/>
      <path id="Path_1877" data-name="Path 1877" d="M711.44,336.97c1.473.276,3.453-.161,4.46,1.192C714.4,337.919,712.689,337.922,711.44,336.97Z" transform="translate(-6998.791 2631.976)" fill="#fff" opacity="0.7"/>
      <path id="Path_1878" data-name="Path 1878" d="M708.36,340.11c.532.2,1.064.4,1.6.589l.147.052c.019.341.044.682.071,1.026.273-.229.546-.458.824-.685.368.6.731,1.214,1.064,1.844-.516-.363-1.045-.7-1.582-1.028a10.968,10.968,0,0,0,1.628,1.907,3.728,3.728,0,0,1,.611.977C710.9,343.681,709.877,341.6,708.36,340.11Z" transform="translate(-6996.551 2629.692)" fill="#fff" opacity="0.7"/>
      <path id="Path_1879" data-name="Path 1879" d="M496.24,341.03c3.565.161,7.092.745,10.644,1.053-.226.2-.453.4-.676.6-2.559-.153-5.065-.734-7.608-1.017A4.192,4.192,0,0,1,496.24,341.03Z" transform="translate(-6842.292 2629.023)" fill="#fff" opacity="0.7"/>
      <path id="Path_1880" data-name="Path 1880" d="M722.36,346.97c1.476.1,3.325.158,4.362,1.345C725.243,348.086,723.492,348.042,722.36,346.97Z" transform="translate(-7006.732 2624.703)" fill="#fff" opacity="0.7"/>
      <path id="Path_1881" data-name="Path 1881" d="M733.03,358.24a8.324,8.324,0,0,1,4.337,1.323,10.466,10.466,0,0,1-4.266-.908C733.085,358.551,733.049,358.344,733.03,358.24Z" transform="translate(-7014.492 2616.508)" fill="#fff" opacity="0.7"/>
      <path id="Path_1882" data-name="Path 1882" d="M726.83,358.77l.6.142c.36.368.72.731,1.083,1.1a38.069,38.069,0,0,1,4.569,7.084c1.4.758,3.161.633,4.474,1.6a12.1,12.1,0,0,1-3.9-.434c.2.412.409.824.606,1.241-1.579-1.446-2.193-3.59-3.53-5.226C729.6,362.316,727.834,360.808,726.83,358.77Z" transform="translate(-7009.983 2616.122)" fill="#fff" opacity="0.7"/>
      <path id="Path_1883" data-name="Path 1883" d="M741.31,371.828a2.783,2.783,0,0,1,3.554.788A10.323,10.323,0,0,1,741.31,371.828Z" transform="translate(-7020.513 2606.894)" fill="#fff" opacity="0.7"/>
      <path id="Path_1884" data-name="Path 1884" d="M747.14,380.45a5.257,5.257,0,0,1,3.426,1.107C749.453,381.3,747.4,381.912,747.14,380.45Z" transform="translate(-7024.753 2600.356)" fill="#fff" opacity="0.7"/>
      <path id="Path_1885" data-name="Path 1885" d="M556.212,385.182a27.546,27.546,0,0,0,7.531-1.462c.112.483.229.968.355,1.451-2.687-.426-5.445.526-8.178.507C555.994,385.556,556.141,385.308,556.212,385.182Z" transform="translate(-6885.693 2597.978)" fill="#fff" opacity="0.7"/>
      <path id="Path_1886" data-name="Path 1886" d="M741.9,385.6c1.525,1.176,2.051,3.268,3.557,4.473,1.762.668,3.707.895,5.363,1.825a15,15,0,0,1-4.664-.81c.453,1.009.914,2.016,1.328,3.041a17.25,17.25,0,0,1,3.674,1.151c.666.3,1.631.3,1.888,1.121-2.084-.224-3.991-1.208-6.061-1.473C746.256,391.35,743.452,388.778,741.9,385.6Z" transform="translate(-7020.942 2596.611)" fill="#fff" opacity="0.7"/>
      <path id="Path_1887" data-name="Path 1887" d="M664.67,395.39c2.141.936,2.384,3.691,2.321,5.736-.022.458-.025.919-.036,1.383-.022.136-.065.412-.087.551a59.331,59.331,0,0,0-1.68-6.844c-.115-.016-.349-.044-.466-.06C664.711,395.966,664.684,395.584,664.67,395.39Z" transform="translate(-6964.779 2589.491)" fill="#fff" opacity="0.7"/>
      <path id="Path_1888" data-name="Path 1888" d="M589.274,400.76a9.171,9.171,0,0,1-.551,5.551A28.4,28.4,0,0,1,589.274,400.76Z" transform="translate(-6909.538 2585.586)" fill="#fff" opacity="0.7"/>
      <path id="Path_1889" data-name="Path 1889" d="M563.025,419.362c1.473-.115,2.935-.355,4.411-.472-1.015,1.457-2.976.7-4.435,1.238C563.005,419.872,563.014,419.616,563.025,419.362Z" transform="translate(-6890.842 2572.401)" fill="#fff" opacity="0.7"/>
      <path id="Path_1890" data-name="Path 1890" d="M553.3,422.034c.622-.663,1.588-.548,2.409-.7-.016.158-.044.472-.057.63C554.866,422,554.083,422.047,553.3,422.034Z" transform="translate(-6883.788 2570.627)" fill="#fff" opacity="0.7"/>
      <path id="Path_1891" data-name="Path 1891" d="M761.44,420.14c1.083.537,1.233,1.825,1.574,2.856a6.53,6.53,0,0,1,4.233,1.249,36.867,36.867,0,0,1-3.74-.586c.071.117.21.355.281.472a7.028,7.028,0,0,1,4.386,1.517c-1.484.215-2.818-.581-4.184-1,.172.417.355.835.537,1.252a9.433,9.433,0,0,1,5.755,1.718c-1.839-.434-3.775-.491-5.532-1.222.014.349.03.7.049,1.05,1.413.857,3.271,1.067,4.321,2.436-1.342-.3-2.572-.966-3.931-1.211.355,1.217.731,2.425,1.039,3.652.314-.284.633-.565.949-.848,1.039.423,2.272.589,3.044,1.487a8.891,8.891,0,0,1-2.758-.652c-.117.325-.229.649-.338.974,1.672.895,3.519,1.394,5.185,2.3-1.678.491-3.429-.758-4.992-1.339-.551,1.9.668,3.644.305,5.513.005.919.276,1.817.276,2.739l-.357.156c-.655-1.432-.3-3.066-.777-4.547a35.838,35.838,0,0,0-1.4-4.752,37.833,37.833,0,0,0-1.558-7.564C763.033,423.912,761.735,422.18,761.44,420.14Z" transform="translate(-7035.152 2571.492)" fill="#fff" opacity="0.7"/>
      <path id="Path_1892" data-name="Path 1892" d="M487.217,421.944c.3-.125.608-.251.917-.374-.761,4.474-3.762,8.194-6.8,11.394-3.944,5.657-10.177,8.952-15.469,13.145-7.04,4.962-13.505,10.756-20.9,15.2.025-.153.076-.458.1-.614,2.564-1.74,4.962-3.723,7.578-5.409,2.458-2.245,5.625-3.538,7.853-6.061,2.673-1.721,5.057-3.854,7.643-5.736,2.96-2,6.148-3.764,8.494-6.517,2.42-1.658,3.816-4.332,6-6.244C484.476,428,486.86,425.375,487.217,421.944Z" transform="translate(-6805.007 2570.452)" fill="#fff" opacity="0.7"/>
      <path id="Path_1893" data-name="Path 1893" d="M567.537,428.1c.248-.2.881.03.6.393C567.826,428.967,566.819,428.449,567.537,428.1Z" transform="translate(-6893.957 2565.759)" fill="#fff" opacity="0.7"/>
      <path id="Path_1894" data-name="Path 1894" d="M548.61,432.221c1.508-.829,3.4-1.8,5.153-1.279A21.964,21.964,0,0,1,548.61,432.221Z" transform="translate(-6880.377 2563.743)" fill="#fff" opacity="0.7"/>
      <path id="Path_1895" data-name="Path 1895" d="M498.93,430.53l.06.306c.2.764-.412,1.416-.731,2.057-.987,1.841-1.871,3.833-3.519,5.194a10.964,10.964,0,0,1-2.5,3.028c-.041-.406-.074-.81-.1-1.214-3.813,3.693-8.262,6.6-12.329,9.992-2.493,1.178-4.817,2.668-7.256,3.952-.54-.6-1.511.262-.458.45a3.876,3.876,0,0,1-1.195.442q0-.434.025-.859c-.259-.142-.513-.281-.769-.417,3.432-.81,6.358-2.7,9.378-4.411.049.123.145.363.191.486,1.457-2.029,3.764-3.2,5.516-4.94-1.784.175-3.587-.093-5.314.535a21.867,21.867,0,0,0-5.221.136c1.3-.859,2.946-.374,4.4-.652,2.275-.4,4.58-.581,6.86-.952.445-.109.543.284.57.646.259-1.315,1.833-1.32,2.578-2.25-2.55.376-5.025,1.331-7.635,1.252-2.891.226-5.685,1.1-8.546,1.552-.014-.125-.038-.371-.052-.494,4.864-.927,9.784-1.618,14.583-2.864,1.124-.477,2.583-.281,3.366-1.378-1.806-.314-3.489.7-5.286.616a1.944,1.944,0,0,0-1.137.2,14.6,14.6,0,0,1-4.768.616c3.115-1.195,6.582-1.026,9.787-1.939,1.353-.445,2.99-.423,3.947-1.634.276-.275.546-.559.821-.835a12.94,12.94,0,0,0,1.626-1.934,8.759,8.759,0,0,1-5.772,1.067,17.892,17.892,0,0,1,2.886-.854c.093.1.278.314.374.417.955-1.129,2.414-.857,3.614-1.331A24.9,24.9,0,0,1,498.93,430.53Z" transform="translate(-6823.319 2563.937)" fill="#fff" opacity="0.7"/>
      <path id="Path_1896" data-name="Path 1896" d="M530.315,436.762c3.322-.524,6.738-.728,9.91-1.937.374-.246.551.308.786.491-.48.055-.96.1-1.437.145.289.125.581.251.87.379a19.137,19.137,0,0,1-4.318.537c-.8.071-1.6.2-2.387.349-1.345.18-2.692.382-4.048.445A.851.851,0,0,1,530.315,436.762Z" transform="translate(-6866.618 2560.858)" fill="#fff" opacity="0.7"/>
      <path id="Path_1897" data-name="Path 1897" d="M744.73,445.075l.854-.085c.914,3.65,2.1,7.256,2.73,10.979.134,2.2,1.206,4.321,1.077,6.525-.1.172-.3.521-.4.7A121.934,121.934,0,0,0,744.73,445.075Z" transform="translate(-7023 2553.421)" fill="#fff" opacity="0.7"/>
      <path id="Path_1898" data-name="Path 1898" d="M520.58,453c1.754-1.378,4.149-1.448,6.257-1.9-.488.638-1.337.608-2.046.775C523.349,452.1,522.007,452.709,520.58,453Z" transform="translate(-6859.993 2548.978)" fill="#fff" opacity="0.7"/>
      <path id="Path_1899" data-name="Path 1899" d="M513.743,457.966c2.82-.477,5.573-1.274,8.385-1.806-.09.131-.267.4-.355.526-3.464.554-6.784,1.912-10.314,2.073C512.046,458.138,512.971,458.184,513.743,457.966Z" transform="translate(-6853.36 2545.298)" fill="#fff" opacity="0.7"/>
      <path id="Path_1900" data-name="Path 1900" d="M665.028,469.69a2.368,2.368,0,0,1,.818,1.994,29.649,29.649,0,0,1-2.676,10.742c.248-3.445,1.779-6.7,1.768-10.183A13.314,13.314,0,0,1,665.028,469.69Z" transform="translate(-6963.688 2535.458)" fill="#fff" opacity="0.7"/>
      <path id="Path_1901" data-name="Path 1901" d="M784.51,481.1c1.195-.712,2.924.376,3.688,1.383C786.916,482.162,785.765,481.5,784.51,481.1Z" transform="translate(-7051.929 2527.327)" fill="#fff" opacity="0.7"/>
      <path id="Path_1902" data-name="Path 1902" d="M480.11,489.886a11.347,11.347,0,0,1,2.319-.846c.014.1.044.3.057.406A18.964,18.964,0,0,0,480.11,489.886Z" transform="translate(-6830.562 2521.387)" fill="#fff" opacity="0.7"/>
      <path id="Path_1903" data-name="Path 1903" d="M460.73,495.1a2.373,2.373,0,0,1,1.811-.606A5.934,5.934,0,0,1,460.73,495.1Z" transform="translate(-6816.468 2517.423)" fill="#fff" opacity="0.7"/>
      <path id="Path_1904" data-name="Path 1904" d="M785.66,495.654c.979-.537,2.089-.06,3.052.27,1.372.543,2.943.848,3.961,2.013A42.035,42.035,0,0,1,785.66,495.654Z" transform="translate(-7052.766 2516.753)" fill="#fff" opacity="0.7"/>
      <path id="Path_1905" data-name="Path 1905" d="M455.136,495.881a1.017,1.017,0,0,1,1.1-.057C456.243,496.224,454.787,496.443,455.136,495.881Z" transform="translate(-6812.361 2516.553)" fill="#fff" opacity="0.7"/>
      <path id="Path_1906" data-name="Path 1906" d="M483.78,503.023a4.59,4.59,0,0,1,2.741-1.5A3.183,3.183,0,0,1,483.78,503.023Z" transform="translate(-6833.231 2512.311)" fill="#fff" opacity="0.7"/>
      <path id="Path_1907" data-name="Path 1907" d="M444.74,504.85c.524.049,1.047.1,1.571.177a4.391,4.391,0,0,1-1.533.458C444.767,505.327,444.748,505.011,444.74,504.85Z" transform="translate(-6804.84 2509.889)" fill="#fff" opacity="0.7"/>
      <path id="Path_1908" data-name="Path 1908" d="M786.99,506.488a2.537,2.537,0,0,1,1.639-.005,44.736,44.736,0,0,1,6.934,3.328c-2.927-.551-5.633-1.978-8.483-2.856C787.058,506.837,787.012,506.6,786.99,506.488Z" transform="translate(-7053.733 2508.805)" fill="#fff" opacity="0.7"/>
      <path id="Path_1909" data-name="Path 1909" d="M434.58,507.873c2.417-.625,4.945-.387,7.411-.633,0,.087,0,.262,0,.349C439.512,507.477,437.049,508.312,434.58,507.873Z" transform="translate(-6797.451 2508.151)" fill="#fff" opacity="0.7"/>
      <path id="Path_1910" data-name="Path 1910" d="M463.51,506.847a.99.99,0,0,1,1.219.1C464.577,507.322,463.565,507.251,463.51,506.847Z" transform="translate(-6818.49 2508.555)" fill="#fff" opacity="0.7"/>
      <path id="Path_1911" data-name="Path 1911" d="M783.68,512.626c.289-.306.578-.611.846-.936.145,1.746.526,3.461.608,5.215,1.972,1.121,4.435,1.277,6.162,2.84a39.915,39.915,0,0,1-5.434-1.615c.2.832.379,1.672.537,2.515a4.325,4.325,0,0,1,3.227.881c1.023.794,2.439.889,3.328,1.882a60.76,60.76,0,0,1-7.1-2.681c.712,1.656.535,3.554,1.4,5.174,1.418-.453,2.807.466,3.947,1.219,1.656,1.176,4,1.028,5.51,2.349-3.243-.657-6.192-2.275-9.394-3.055.175.51.346,1.026.491,1.549-.39-.466-.769-.941-1.176-1.386.1,1.009.6,2.261,1.792,2.3,2.624.243,4.6,2.24,7.122,2.785.8.251,1.743.259,2.362.908-3.56-.393-6.691-2.343-10.115-3.284.423,1.858,1.511,3.434,2.2,5.185a12.529,12.529,0,0,1,3.691,1.416c1.934,1.293,4.389,1.4,6.353,2.621-3.276-.42-6.255-2.054-9.383-3.036a5.5,5.5,0,0,0-1.372.035c-.117-.136-.355-.409-.475-.543.188-.284.385-.559.573-.84l.1-.145a3.928,3.928,0,0,0-.69-.657c-.96-1.421-1.266-3.164-1.939-4.724-.846-1.784-.284-3.819-.908-5.663a7.633,7.633,0,0,0-.608-1.8c-1.214-1.5-.456-3.516-1.1-5.21A13.81,13.81,0,0,1,783.68,512.626Z" transform="translate(-7051.326 2504.915)" fill="#fff" opacity="0.7"/>
      <path id="Path_1912" data-name="Path 1912" d="M437.63,517.616a10.169,10.169,0,0,1,4.026-.387A12.676,12.676,0,0,1,437.63,517.616Z" transform="translate(-6799.669 2500.901)" fill="#fff" opacity="0.7"/>
      <path id="Path_1913" data-name="Path 1913" d="M458.85,520.912a10.954,10.954,0,0,1,3.827-1.642,4.9,4.9,0,0,1,.355.633c-1.4.191-2.46,1.178-3.7,1.757,0-.131-.005-.4-.005-.529Z" transform="translate(-6815.101 2499.403)" fill="#fff" opacity="0.7"/>
      <path id="Path_1914" data-name="Path 1914" d="M792.354,521.69c2.119.671,4.5,1.017,6.233,2.5-1.678-.076-3.17-.919-4.787-1.274C793.173,522.713,792.177,522.587,792.354,521.69Z" transform="translate(-7057.619 2497.643)" fill="#fff" opacity="0.7"/>
      <path id="Path_1915" data-name="Path 1915" d="M419.46,525.728a21.919,21.919,0,0,1,6.577-.668l.742.24A65.8,65.8,0,0,1,419.46,525.728Z" transform="translate(-6786.456 2495.192)" fill="#fff" opacity="0.7"/>
      <path id="Path_1916" data-name="Path 1916" d="M424.7,528.393a18.848,18.848,0,0,1,1.942-.363c-3.052,1.939-6.222,3.691-9.111,5.865.147-.409.281-.824.412-1.238-.295.15-.589.3-.881.456-.69.093-1.375.194-2.059.3-.371.019-.739.035-1.107.046.224-.175.453-.341.685-.5,1.631-.606,3.5-.521,5.046-1.378a3.823,3.823,0,0,1,1.7-1.345C422.612,529.893,423.379,528.619,424.7,528.393Z" transform="translate(-6782.413 2493.032)" fill="#fff" opacity="0.7"/>
      <path id="Path_1917" data-name="Path 1917" d="M381,542.926c2.935-.153,5.856-.469,8.781-.726-.215.45-.737.363-1.146.42-3.052.237-6.094.687-9.152.78A2.35,2.35,0,0,1,381,542.926Z" transform="translate(-6757.381 2482.727)" fill="#fff" opacity="0.7"/>
      <path id="Path_1918" data-name="Path 1918" d="M393.81,547.808c1.446-.731,3.115-.608,4.673-.878-.314.164-.622.336-.938.5A9.206,9.206,0,0,1,393.81,547.808Z" transform="translate(-6767.802 2479.288)" fill="#fff" opacity="0.7"/>
      <path id="Path_1919" data-name="Path 1919" d="M793.41,550.13a12.622,12.622,0,0,1,4.258,1.844c1.3.982,2.992,1.151,4.351,2.024-2.493-.155-4.487-1.874-6.882-2.381l.8-.221c-.548-.185-1.1-.357-1.648-.532A1.162,1.162,0,0,1,793.41,550.13Z" transform="translate(-7058.401 2476.96)" fill="#fff" opacity="0.7"/>
      <path id="Path_1920" data-name="Path 1920" d="M351.987,552.458c.428-.488,1.582-1.514,1.7-.3-.859,1.176-2.406,1.326-3.721,1.6-5.7,1.5-11.716.548-17.406,2.089.526-.507,1.091-.977,1.664-1.429,1.023.655,2.259.147,3.371.082a116.493,116.493,0,0,0,12.229-1.514,2.714,2.714,0,0,0,1.244-.791C351.373,552.278,351.679,552.369,351.987,552.458Z" transform="translate(-6723.26 2475.9)" fill="#fff" opacity="0.7"/>
      <path id="Path_1921" data-name="Path 1921" d="M790.152,556c.554-.292.737.911.188.968C789.942,556.86,789.893,556.26,790.152,556Z" transform="translate(-7055.916 2472.726)" fill="#fff" opacity="0.7"/>
      <path id="Path_1922" data-name="Path 1922" d="M324.478,565.436c1.293-.3,2.73-.008,3.9-.756.237.191.48.387.72.584-2.139,1.528-4.664,2.493-6.822,4.032a35.205,35.205,0,0,1-4.163,2.463c-.567.093-1.143.147-1.71.237a130.6,130.6,0,0,1-13.047,1.244c.646-.859,1.92-.374,2.842-.622,5.1-.75,10.693-.63,15.112-3.6,1.056.134,1.749-.66,2.3-1.437a11.285,11.285,0,0,1,2.357-1.451c-3.153.136-6.189,1.247-9.353,1.427-3.2.057-6.279,1.042-9.441,1.44.69-.7,1.751-.649,2.646-.878q7.34-1.277,14.656-2.681m2.038.526C326.36,567.132,327.833,565.367,326.516,565.962Z" transform="translate(-6702.025 2466.379)" fill="#fff" opacity="0.7"/>
      <path id="Path_1923" data-name="Path 1923" d="M275.53,570.428a20.185,20.185,0,0,1,2.717-1.328A171.374,171.374,0,0,1,261.6,581.157c-7.6,4.926-15.2,9.869-22.627,15.063-6.4,4.31-13.044,8.243-19.648,12.237-1.045.682-2,1.481-3.025,2.193.145-.428.295-.854.466-1.268a23.3,23.3,0,0,1,4.812-3.025c6.718-4.394,13.772-8.3,20.254-13.06,9.435-6.4,19.152-12.351,28.494-18.892C272.126,573.164,273.615,571.506,275.53,570.428Z" transform="translate(-6638.713 2463.165)" fill="#fff" opacity="0.7"/>
      <path id="Path_1924" data-name="Path 1924" d="M337.61,575.06c3.587-.608,7.359-.745,10.625-2.49-.049.136-.15.409-.2.546a2.005,2.005,0,0,1-1.609,1.206C343.546,574.692,340.414,575.811,337.61,575.06Z" transform="translate(-6726.932 2460.641)" fill="#fff" opacity="0.7"/>
      <path id="Path_1925" data-name="Path 1925" d="M333.67,581.655C334.827,580.9,334.164,582.675,333.67,581.655Z" transform="translate(-6724.067 2454.175)" fill="#fff" opacity="0.7"/>
      <path id="Path_1926" data-name="Path 1926" d="M808.23,584.88c2.635.344,5.019,1.694,7.417,2.755-1.6-.065-3.05-.851-4.577-1.26C810.071,586,808.792,585.925,808.23,584.88Z" transform="translate(-7069.179 2451.689)" fill="#fff" opacity="0.7"/>
      <path id="Path_1927" data-name="Path 1927" d="M805.73,588.17c2.526.739,4.975,1.721,7.422,2.665-1.623.142-3.047-.78-4.574-1.154C807.558,589.351,806.2,589.307,805.73,588.17Z" transform="translate(-7067.361 2449.297)" fill="#fff" opacity="0.7"/>
      <path id="Path_1928" data-name="Path 1928" d="M288.58,595.945a11.651,11.651,0,0,1,2.447-.125A3.114,3.114,0,0,1,288.58,595.945Z" transform="translate(-6691.276 2443.745)" fill="#fff" opacity="0.7"/>
      <path id="Path_1929" data-name="Path 1929" d="M314.975,596.344c1.252-.123,2.34-1.675,3.579-.887a3.774,3.774,0,0,1-2.5,1.443,36.191,36.191,0,0,1-7.3.876C310.651,596.827,312.975,597.157,314.975,596.344Z" transform="translate(-6705.945 2444.159)" fill="#fff" opacity="0.7"/>
      <path id="Path_1930" data-name="Path 1930" d="M287,612.749a36.06,36.06,0,0,0,7.826-1.639c.464.1.919.226,1.378.357-.491.153-.985.295-1.481.434a30.283,30.283,0,0,1-7.67,1.238C287.038,613.044,287.014,612.848,287,612.749Z" transform="translate(-6690.127 2432.614)" fill="#fff" opacity="0.7"/>
      <path id="Path_1931" data-name="Path 1931" d="M827.33,617.14a3.623,3.623,0,0,1,2.316.854A4.862,4.862,0,0,1,827.33,617.14Z" transform="translate(-7083.069 2428.229)" fill="#fff" opacity="0.7"/>
      <path id="Path_1932" data-name="Path 1932" d="M247.78,622.407c4.937-1.162,10.385-1.061,14.932-3.677-.3,1.522-1.811,1.9-3.107,2.2A47.331,47.331,0,0,1,247.78,622.407Z" transform="translate(-6661.606 2427.073)" fill="#fff" opacity="0.7"/>
      <path id="Path_1933" data-name="Path 1933" d="M811.77,619.726a2.734,2.734,0,0,1,3.044,1.1C813.731,620.623,812.9,619.769,811.77,619.726Z" transform="translate(-7071.753 2426.434)" fill="#fff" opacity="0.7"/>
      <path id="Path_1934" data-name="Path 1934" d="M835.17,619.69c1.421.319,3.069.442,4.209,1.421A11.372,11.372,0,0,1,835.17,619.69Z" transform="translate(-7088.771 2426.375)" fill="#fff" opacity="0.7"/>
      <path id="Path_1935" data-name="Path 1935" d="M853.948,624.29C854.859,624.336,853.52,625.1,853.948,624.29Z" transform="translate(-7102.363 2423.029)" fill="#fff" opacity="0.7"/>
      <path id="Path_1936" data-name="Path 1936" d="M828.48,624.8a43.889,43.889,0,0,1,7.147,1.661A19.281,19.281,0,0,1,828.48,624.8Z" transform="translate(-7083.905 2422.658)" fill="#fff" opacity="0.7"/>
      <path id="Path_1937" data-name="Path 1937" d="M819.28,629.44a8.088,8.088,0,0,1,2.321.477c-.011.183-.033.548-.044.728A6.053,6.053,0,0,1,819.28,629.44Z" transform="translate(-7077.215 2419.284)" fill="#fff" opacity="0.7"/>
      <path id="Path_1938" data-name="Path 1938" d="M218.64,632.478c2.621-.783,5.434-.7,8.123-1.178C224.256,632.465,221.346,632.247,218.64,632.478Z" transform="translate(-6640.415 2417.932)" fill="#fff" opacity="0.7"/>
      <path id="Path_1939" data-name="Path 1939" d="M822.66,634.456c1.549-.044,2.911.777,4.293,1.353C825.513,635.448,823.838,635.448,822.66,634.456Z" transform="translate(-7079.673 2415.638)" fill="#fff" opacity="0.7"/>
      <path id="Path_1940" data-name="Path 1940" d="M818.04,634.7c.633.644.737,2.084,1.874,1.95a9.3,9.3,0,0,1,5.4,1.713c-1.95-.082-3.868-1.225-5.813-.693l-.229.046-.139.027C818.757,636.732,818.335,635.737,818.04,634.7Z" transform="translate(-7076.313 2415.459)" fill="#fff" opacity="0.7"/>
      <path id="Path_1941" data-name="Path 1941" d="M839.59,636.02a44.971,44.971,0,0,1,6.5,1.6A17.188,17.188,0,0,1,839.59,636.02Z" transform="translate(-7091.985 2414.499)" fill="#fff" opacity="0.7"/>
      <path id="Path_1942" data-name="Path 1942" d="M227.38,640.9c3.636-.963,7.553-.9,11.159-2.182.03.276.063.556.1.84q-.442.086-.876.18A42.484,42.484,0,0,1,227.38,640.9Z" transform="translate(-6646.771 2412.536)" fill="#fff" opacity="0.7"/>
      <path id="Path_1943" data-name="Path 1943" d="M846.42,641.09c1.5.134,2.949.559,4.449.7,0,.076-.005.226-.005.3A24.72,24.72,0,0,1,846.42,641.09Z" transform="translate(-7096.952 2410.812)" fill="#fff" opacity="0.7"/>
      <path id="Path_1944" data-name="Path 1944" d="M216.02,646.623a21.617,21.617,0,0,1,3.137-.333A6.308,6.308,0,0,1,216.02,646.623Z" transform="translate(-6638.509 2407.031)" fill="#fff" opacity="0.7"/>
      <path id="Path_1945" data-name="Path 1945" d="M844.24,646.88c.957.2,1.9.472,2.872.641.115.131.346.4.464.526C846.477,647.761,844.878,647.982,844.24,646.88Z" transform="translate(-7095.366 2406.601)" fill="#fff" opacity="0.7"/>
      <path id="Path_1946" data-name="Path 1946" d="M217.46,652.374c3.167-1.448,6.9-1.555,9.842-3.614q-.131.749-.259,1.5c-.633.461-1.348.968-2.149.576-.423.243-.832.507-1.257.75C221.552,651.4,219.552,652.453,217.46,652.374Z" transform="translate(-6639.556 2405.234)" fill="#fff" opacity="0.7"/>
      <path id="Path_1947" data-name="Path 1947" d="M830.39,649.99a3.327,3.327,0,0,1,2.711,1.047A5.483,5.483,0,0,1,830.39,649.99Z" transform="translate(-7085.294 2404.34)" fill="#fff" opacity="0.7"/>
      <path id="Path_1948" data-name="Path 1948" d="M856.72,650.15a14.267,14.267,0,0,1,3.4.826C859,650.936,857.446,651.116,856.72,650.15Z" transform="translate(-7104.442 2404.223)" fill="#fff" opacity="0.7"/>
      <path id="Path_1949" data-name="Path 1949" d="M820.68,652.438c.191-.245.385-.488.584-.728.112.554.237,1.1.36,1.659C821.3,653.057,820.994,652.747,820.68,652.438Z" transform="translate(-7078.233 2403.089)" fill="#fff" opacity="0.7"/>
      <path id="Path_1950" data-name="Path 1950" d="M840.21,652.29c1.519,1.326,3.863.556,5.33,1.669C843.726,653.662,841.626,653.6,840.21,652.29Z" transform="translate(-7092.436 2402.667)" fill="#fff" opacity="0.7"/>
      <path id="Path_1951" data-name="Path 1951" d="M835.38,658.947a5.164,5.164,0,0,1,2.428.573c-.016.18-.049.543-.068.723A22.2,22.2,0,0,1,835.38,658.947Z" transform="translate(-7088.923 2397.829)" fill="#fff" opacity="0.7"/>
      <path id="Path_1952" data-name="Path 1952" d="M154.55,667.782c6.143-.933,12.5-1,18.377-3.232-.076.366-.153.737-.232,1.107a33.916,33.916,0,0,1-9.847,1.639c-2.6-.134-5.117.644-7.7.764A.713.713,0,0,1,154.55,667.782Z" transform="translate(-6593.807 2393.751)" fill="#fff" opacity="0.7"/>
      <path id="Path_1953" data-name="Path 1953" d="M855.67,665.31a29.739,29.739,0,0,1,4.8.884A10.373,10.373,0,0,1,855.67,665.31Z" transform="translate(-7103.679 2393.199)" fill="#fff" opacity="0.7"/>
      <path id="Path_1954" data-name="Path 1954" d="M875.41,675.271a3.606,3.606,0,0,1,2.16.4C876.858,675.634,875.906,675.947,875.41,675.271Z" transform="translate(-7118.034 2385.957)" fill="#fff" opacity="0.7"/>
      <path id="Path_1955" data-name="Path 1955" d="M144.7,676.892a7.962,7.962,0,0,1,2.586-.295A3.436,3.436,0,0,1,144.7,676.892Z" transform="translate(-6586.644 2384.999)" fill="#fff" opacity="0.7"/>
      <path id="Path_1956" data-name="Path 1956" d="M168.58,678.874c3.331-.794,6.795-1.026,10.054-2.174.011.248.019.5.027.753-.109.131-.33.393-.442.524C174.974,677.777,171.81,679.31,168.58,678.874Z" transform="translate(-6604.009 2384.916)" fill="#fff" opacity="0.7"/>
      <path id="Path_1957" data-name="Path 1957" d="M129.76,679.106a8.556,8.556,0,0,1,3.17-.486A7.086,7.086,0,0,1,129.76,679.106Z" transform="translate(-6575.779 2383.519)" fill="#fff" opacity="0.7"/>
      <path id="Path_1958" data-name="Path 1958" d="M846.34,679.78l.24.044c1.121,1.492,2.245,2.984,3.5,4.375.191-.147.385-.292.584-.434a7.184,7.184,0,0,1,3.4.8c2.6,1.058,5.646.867,8.175,2.046-4.029-.355-7.932-1.631-11.948-2.068.9,1.391,2.6,1.4,4.029,1.874,2.758.84,5.766.682,8.464,1.675a78.58,78.58,0,0,1-10.284-1.5l-.142-.139a2.472,2.472,0,0,0-.262.666c.218.387.45.769.685,1.154.251-.038.5-.076.761-.112.314.344.611.7.938,1.042,1.009-.125,2.291-.155,3,.7-.775.42-1.6-.128-2.376-.259a18.122,18.122,0,0,0,.925,1.669,12.955,12.955,0,0,1,1.743.169c-.166.305-.33.616-.491.927.39.346.717.887,1.3.919,1.577.125,2.921,1.167,4.547,1.012.085.115.254.346.338.464-1.514-.041-2.987-.4-4.484-.548,1.506,1.9,3.89,3.606,4.171,6.116-2.215-1.795-3.718-4.356-6.143-5.906-1.574-1.6-2.376-3.884-4.078-5.363-.922-.7-1.765-1.5-2.665-2.229a4.288,4.288,0,0,1-1.2-1.686l.843.436c.595.693,1.555.153.483-.335a3.217,3.217,0,0,0-1.631-.447c-.213-.4-1.339-1.154-.589-1.437.379.409.747.835,1.151,1.222a2.937,2.937,0,0,0-1.146-1.719c-.243.09-.486.183-.723.276a7.931,7.931,0,0,1-.75-1.478C846.542,681.076,846.449,680.427,846.34,679.78Z" transform="translate(-7096.894 2382.676)" fill="#fff" opacity="0.7"/>
      <path id="Path_1959" data-name="Path 1959" d="M864.54,682.72c2.229.693,4.779.622,6.825,1.675A20.582,20.582,0,0,1,864.54,682.72Z" transform="translate(-7110.129 2380.538)" fill="#fff" opacity="0.7"/>
      <path id="Path_1960" data-name="Path 1960" d="M155.34,687.626a74.365,74.365,0,0,0,8.243-2.106c-.237.458-.409,1.069-1.02,1.124a23.975,23.975,0,0,1-7.218,1.11Z" transform="translate(-6594.381 2378.501)" fill="#fff" opacity="0.7"/>
      <path id="Path_1961" data-name="Path 1961" d="M855.26,687.928a9.647,9.647,0,0,1,2.624.385c-.049.125-.145.376-.194.5-.355.076-.706.153-1.056.235.136-.164.278-.322.423-.48C856.433,688.441,855.666,688.517,855.26,687.928Z" transform="translate(-7103.38 2376.751)" fill="#fff" opacity="0.7"/>
      <path id="Path_1962" data-name="Path 1962" d="M600.96,690.652a5.481,5.481,0,0,1,1.227-2.452A3.97,3.97,0,0,1,600.96,690.652Z" transform="translate(-6918.447 2376.552)" fill="#fff" opacity="0.7"/>
      <path id="Path_1963" data-name="Path 1963" d="M867.72,691.45a42.288,42.288,0,0,1,7.638,1.5C872.8,692.579,870.1,692.5,867.72,691.45Z" transform="translate(-7112.441 2374.189)" fill="#fff" opacity="0.7"/>
      <path id="Path_1964" data-name="Path 1964" d="M182.25,695.25Z" transform="translate(-6613.951 2371.426)" fill="#fff" opacity="0.7"/>
      <path id="Path_1965" data-name="Path 1965" d="M898.31,695.986C899.117,695.555,898.356,696.9,898.31,695.986Z" transform="translate(-7134.688 2370.955)" fill="#fff" opacity="0.7"/>
      <path id="Path_1966" data-name="Path 1966" d="M93.869,699.591c6.236-.592,12.75-.224,18.691-2.441a2.1,2.1,0,0,1-1.639,1.47c-4.263.966-8.666.707-12.987,1.173-1.612.055-3.3.608-4.861-.027-.382-.941.985-.734,1.511-.906Z" transform="translate(-6549.051 2370.044)" fill="#fff" opacity="0.7"/>
      <path id="Path_1967" data-name="Path 1967" d="M69.72,711.777c7.024-1.6,14.46-1.35,21.328-3.737.3.18.608.36.914.546a22.227,22.227,0,0,1-1.942,1.159,2.115,2.115,0,0,0-1.492-.2,63.018,63.018,0,0,1-6.421,1.017C77.941,710.528,73.883,711.744,69.72,711.777Z" transform="translate(-6532.116 2362.124)" fill="#fff" opacity="0.7"/>
      <path id="Path_1968" data-name="Path 1968" d="M866.68,713.87c.123.071.374.21.5.278,1.083.971,2.231,2.169,2.234,3.726C868.047,716.961,867.466,715.256,866.68,713.87Z" transform="translate(-7111.685 2357.885)" fill="#fff" opacity="0.7"/>
      <path id="Path_1969" data-name="Path 1969" d="M56.06,718.146c.42-1.012,1.7-.8,2.586-.977A4.314,4.314,0,0,1,56.06,718.146Z" transform="translate(-6522.182 2355.485)" fill="#fff" opacity="0.7"/>
      <path id="Path_1970" data-name="Path 1970" d="M887.194,717.2c3,.693,6.1.851,9.1,1.522-3.137.207-6.285-.7-9.383-1.181C886.981,717.456,887.123,717.287,887.194,717.2Z" transform="translate(-7126.397 2355.463)" fill="#fff" opacity="0.7"/>
      <path id="Path_1971" data-name="Path 1971" d="M68.1,720.6c4.3-.649,8.677-.824,12.924-1.822.025.207.076.619.1.827-1.558.36-3.047,1.015-4.681.783-3.933.543-7.9.51-11.838.979C65.54,720.5,66.942,720.837,68.1,720.6Z" transform="translate(-6528.4 2354.314)" fill="#fff" opacity="0.7"/>
      <path id="Path_1972" data-name="Path 1972" d="M56,721.139l.851-.049c-.09.079-.27.237-.363.316.055.254.106.507.161.764-.57.1-1.146.18-1.718.27a6.275,6.275,0,0,0-1.71.51c-.267.106-.529.218-.794.333.085-.333.166-.663.254-.993a25.52,25.52,0,0,0,3.582-.456Q56.134,721.483,56,721.139Z" transform="translate(-6519.542 2352.634)" fill="#fff" opacity="0.7"/>
      <path id="Path_1973" data-name="Path 1973" d="M163.96,729.1a153.175,153.175,0,0,1,13.363-8.279l.914.164c-3.508,2.441-7.449,4.234-10.8,6.9a10.323,10.323,0,0,1-3.415,2.087C164.006,729.753,163.974,729.317,163.96,729.1Z" transform="translate(-6600.65 2352.83)" fill="#fff" opacity="0.7"/>
      <path id="Path_1974" data-name="Path 1974" d="M888.416,724.09C889.373,724.676,887.48,724.687,888.416,724.09Z" transform="translate(-7127.297 2350.452)" fill="#fff" opacity="0.7"/>
      <path id="Path_1975" data-name="Path 1975" d="M890.43,725.22a50.872,50.872,0,0,1,5.638,1.083L896,726.7C894.164,726.18,892.086,726.175,890.43,725.22Z" transform="translate(-7128.957 2349.631)" fill="#fff" opacity="0.7"/>
      <path id="Path_1976" data-name="Path 1976" d="M58.429,731.433a2.85,2.85,0,0,1,2.37.434c-5.049.706-10.12,2.019-15.289,2.111a3.367,3.367,0,0,1,2.28-1.285c-.254.267-.51.532-.769.8C50.835,732.868,54.6,731.962,58.429,731.433Z" transform="translate(-6514.51 2345.152)" fill="#fff" opacity="0.7"/>
      <path id="Path_1977" data-name="Path 1977" d="M909.68,734.327a10.712,10.712,0,0,1,3.459.338A6.254,6.254,0,0,1,909.68,734.327Z" transform="translate(-7142.956 2343.022)" fill="#fff" opacity="0.7"/>
      <path id="Path_1978" data-name="Path 1978" d="M99.02,735.6c.355-.243.709-.483,1.067-.715.194.218.387.442.578.668a6.744,6.744,0,0,1-1.293.824C99.285,736.186,99.11,735.8,99.02,735.6Z" transform="translate(-6553.424 2342.598)" fill="#fff" opacity="0.7"/>
      <path id="Path_1979" data-name="Path 1979" d="M55.34,735.889C56.158,735.474,55.367,736.8,55.34,735.889Z" transform="translate(-6521.659 2341.932)" fill="#fff" opacity="0.7"/>
      <path id="Path_1980" data-name="Path 1980" d="M927.65,735.85a.991.991,0,0,1,1.217.134C928.7,736.369,927.707,736.24,927.65,735.85Z" transform="translate(-7156.024 2342.006)" fill="#fff" opacity="0.7"/>
      <path id="Path_1981" data-name="Path 1981" d="M572.214,744.265c.33-.014.663-.027,1-.035a35,35,0,0,0-3.707,6.746c-.076-.093-.229-.281-.305-.376C570.119,748.45,570.744,746.131,572.214,744.265Z" transform="translate(-6895.351 2335.806)" fill="#fff" opacity="0.7"/>
      <path id="Path_1982" data-name="Path 1982" d="M940.04,745.97C941.532,745.316,940.075,747.473,940.04,745.97Z" transform="translate(-7165.035 2334.633)" fill="#fff" opacity="0.7"/>
      <path id="Path_1983" data-name="Path 1983" d="M909.1,749.271a1.686,1.686,0,0,1,1.356-.456c4.162.2,8.126,1.612,12.258,2-.016.1-.046.284-.06.376-3.519-.3-6.98-1.056-10.507-1.277l-.155-.109C911.208,749.058,910.074,749.268,909.1,749.271Z" transform="translate(-7142.534 2332.483)" fill="#fff" opacity="0.7"/>
      <path id="Path_1984" data-name="Path 1984" d="M446.789,22.985a2.223,2.223,0,0,1,.145-2.605,7.9,7.9,0,0,0,1.579,3.074c-.014-.42-.041-.837-.076-1.255.925,1.47,2.515,2.518,2.744,4.37-.12.276-.237.551-.355.829-.944-.745-2.163-1.35-2.493-2.61.78.461,1.5,1.009,2.248,1.519A5.485,5.485,0,0,0,446.789,22.985Z" transform="translate(-6806.076 2862.208)" fill="#fff" opacity="0.36"/>
      <path id="Path_1985" data-name="Path 1985" d="M468.52,51.29c.5.7.993,1.413,1.56,2.062a7.1,7.1,0,0,1,1.307,2.5l-.507.54C470.2,54.634,468.708,53.251,468.52,51.29Z" transform="translate(-6822.133 2839.729)" fill="#fff" opacity="0.36"/>
      <path id="Path_1986" data-name="Path 1986" d="M436.01,60.32q.36.565.72,1.135c-.185.286-.376.57-.57.851-.008-.106-.027-.322-.038-.428C436.07,61.359,436.035,60.841,436.01,60.32Z" transform="translate(-6798.491 2833.163)" fill="#fff" opacity="0.36"/>
      <path id="Path_1987" data-name="Path 1987" d="M444,73.04c.1.06.289.177.387.237a.519.519,0,0,1-.36.726l-.161-.093c-.025-.128-.074-.379-.1-.507C443.83,73.313,443.947,73.133,444,73.04Z" transform="translate(-6804.135 2823.912)" fill="#fff" opacity="0.36"/>
      <path id="Path_1988" data-name="Path 1988" d="M419.9,75.556c-.859-.753.461-1.446.963-1.926A11.236,11.236,0,0,1,419.9,75.556Z" transform="translate(-6786.572 2823.483)" fill="#fff" opacity="0.36"/>
      <path id="Path_1989" data-name="Path 1989" d="M446.067,75.981C447.166,75.741,445.8,77.064,446.067,75.981Z" transform="translate(-6805.78 2821.795)" fill="#fff" opacity="0.36"/>
      <path id="Path_1990" data-name="Path 1990" d="M470.747,76.244c.426-.235.873-.027,1.3.085-.625.57-1.478.338-2.226.248C470.125,76.462,470.434,76.351,470.747,76.244Z" transform="translate(-6823.079 2821.66)" fill="#fff" opacity="0.36"/>
      <path id="Path_1991" data-name="Path 1991" d="M433.96,77.891a3.766,3.766,0,0,1,1.915.055l-.254,1.042c-.4-.106-1.009.128-1.241-.311-.147-.262-.286-.524-.42-.786m1.135.267C434.156,78.783,436.033,78.737,435.095,78.158Z" transform="translate(-6797 2820.455)" fill="#fff" opacity="0.36"/>
      <path id="Path_1992" data-name="Path 1992" d="M444.37,77.82c.556.595,1.107,1.2,1.661,1.8-.03-.235-.087-.709-.117-.947.289.12.578.243.87.366.022.333.044.668.068,1-.366.063-.728.123-1.091.177-.494-.685-1.009-1.353-1.563-1.989a10.8,10.8,0,0,0-.172,3.339,2.993,2.993,0,0,1-.7-1.225q-.691.491-1.4.957c-.019-.584-.027-1.167-.038-1.754.153-.125.456-.376.608-.5.011.292.033.876.044,1.17C443.78,80.016,443.756,78.649,444.37,77.82Z" transform="translate(-6802.768 2820.436)" fill="#fff" opacity="0.36"/>
      <path id="Path_1993" data-name="Path 1993" d="M459.26,79.087a10.045,10.045,0,0,1,1.372.046C460.412,79.6,458.813,79.794,459.26,79.087Z" transform="translate(-6815.342 2819.521)" fill="#fff" opacity="0.36"/>
      <path id="Path_1994" data-name="Path 1994" d="M442.239,93.454c-.087-.922-.543-2.471.614-2.864-.09.286-.175.578-.259.867A10.566,10.566,0,0,0,442.239,93.454Z" transform="translate(-6802.904 2811.149)" fill="#fff" opacity="0.36"/>
      <path id="Path_1995" data-name="Path 1995" d="M438.07,114.71c.256.1.516.207.772.314-.166.535-.336,1.069-.5,1.607A13.848,13.848,0,0,1,438.07,114.71Z" transform="translate(-6799.989 2793.609)" fill="#fff" opacity="0.36"/>
      <path id="Path_1996" data-name="Path 1996" d="M449.737,130.208a1.55,1.55,0,0,1,.2-1.148C450.552,129.185,450.37,130.342,449.737,130.208Z" transform="translate(-6808.457 2783.173)" fill="#fff" opacity="0.36"/>
      <path id="Path_1997" data-name="Path 1997" d="M430.64,165.2a10.619,10.619,0,0,1,2.3-4.356,18.669,18.669,0,0,0-1.378,4.484C431.256,165.281,430.948,165.237,430.64,165.2Z" transform="translate(-6794.586 2760.062)" fill="#fff" opacity="0.36"/>
      <path id="Path_1998" data-name="Path 1998" d="M402.636,184.738c-.616-.865.524-1.413,1.1-1.828C403.37,183.521,403,184.127,402.636,184.738Z" transform="translate(-6774.092 2744.012)" fill="#fff" opacity="0.36"/>
      <path id="Path_1999" data-name="Path 1999" d="M426.382,186.32a10.881,10.881,0,0,1-.968,2.9l-.614.194c.085-.461.18-.919.273-1.375l.494-.019C425.826,187.447,426.087,186.874,426.382,186.32Z" transform="translate(-6790.339 2741.532)" fill="#fff" opacity="0.36"/>
      <path id="Path_2000" data-name="Path 2000" d="M382.967,214.28c.469.142-.022,1.124-.445.955A.765.765,0,0,1,382.967,214.28Z" transform="translate(-6759.553 2721.199)" fill="#fff" opacity="0.36"/>
      <path id="Path_2001" data-name="Path 2001" d="M420.5,218.42l.027.267a7.559,7.559,0,0,1-.033,2.016,5.33,5.33,0,0,1,.565,1.495C419.618,221.511,420.183,219.62,420.5,218.42Z" transform="translate(-6786.936 2718.188)" fill="#fff" opacity="0.36"/>
      <path id="Path_2002" data-name="Path 2002" d="M430.214,234.246c-.919-.758.775-.851.155.046Z" transform="translate(-6794.073 2707.114)" fill="#fff" opacity="0.36"/>
      <path id="Path_2003" data-name="Path 2003" d="M363.315,240.226c.922-.685.382,1.067-.235,1.023A6.472,6.472,0,0,1,363.315,240.226Z" transform="translate(-6745.455 2702.446)" fill="#fff" opacity="0.36"/>
      <path id="Path_2004" data-name="Path 2004" d="M366.414,239.8c.15-.027.447-.082.595-.112a16.364,16.364,0,0,0-.376,2.384c-.338-.139-.676-.281-1.012-.42C365.86,241.027,366.125,240.407,366.414,239.8Z" transform="translate(-6747.302 2702.72)" fill="#fff" opacity="0.36"/>
      <path id="Path_2005" data-name="Path 2005" d="M355.84,246.713c.169-.546.341-1.088.532-1.623.011.327.033.655.063.982.011.158.03.475.038.633Z" transform="translate(-6740.189 2698.793)" fill="#fff" opacity="0.36"/>
      <path id="Path_2006" data-name="Path 2006" d="M360.978,246.8c.09-.071.267-.215.355-.289a4.959,4.959,0,0,0,.627,1.609c.005-.366.011-.728.016-1.091,1.181.278.434,1.508.546,2.324a10.812,10.812,0,0,0,.955,2.332c-.341.3-.674.614-1.026.908-.1-.655-.215-1.307-.355-1.95-.2.7-.349,1.4-.486,2.117-.265.019-.529.035-.791.049a27.067,27.067,0,0,0,.158-6.009m.453,1.538a18.992,18.992,0,0,0-.153,2.3l.878-.09c.06-.786.128-1.568.188-2.351Z" transform="translate(-6743.811 2697.76)" fill="#fff" opacity="0.36"/>
      <path id="Path_2007" data-name="Path 2007" d="M445.057,254.344C446.151,254.129,444.828,255.427,445.057,254.344Z" transform="translate(-6805.051 2692.081)" fill="#fff" opacity="0.36"/>
      <path id="Path_2008" data-name="Path 2008" d="M523.84,275.02a5.426,5.426,0,0,1,2.092.616C525.248,275.5,524.118,275.863,523.84,275.02Z" transform="translate(-6862.363 2677.027)" fill="#fff" opacity="0.36"/>
      <path id="Path_2009" data-name="Path 2009" d="M554.32,278c.777.147,1.735.115,2.245.835C555.779,278.715,554.8,278.753,554.32,278Z" transform="translate(-6884.529 2674.86)" fill="#fff" opacity="0.36"/>
      <path id="Path_2010" data-name="Path 2010" d="M562.6,279.99c1.1.3,2.493.142,3.333,1.034C564.869,280.669,563.227,281.032,562.6,279.99Z" transform="translate(-6890.551 2673.413)" fill="#fff" opacity="0.36"/>
      <path id="Path_2011" data-name="Path 2011" d="M540.481,283.3c.311-.079.766.087.8.453C541.125,284.379,539.8,283.639,540.481,283.3Z" transform="translate(-6874.324 2671.021)" fill="#fff" opacity="0.36"/>
      <path id="Path_2012" data-name="Path 2012" d="M380.583,284.87c.385.016.772.038,1.162.063-.262.4-.526.791-.8,1.178-.341-.06-.685-.1-1.026-.139.076-.128.232-.385.308-.513C380.316,285.312,380.493,285.017,380.583,284.87Z" transform="translate(-6757.701 2669.864)" fill="#fff" opacity="0.36"/>
      <path id="Path_2013" data-name="Path 2013" d="M544.44,284.76c.766.15,1.918-.011,2.234.908C545.913,285.475,544.765,285.666,544.44,284.76Z" transform="translate(-6877.344 2669.944)" fill="#fff" opacity="0.36"/>
      <path id="Path_2014" data-name="Path 2014" d="M361.15,289.281a5.048,5.048,0,0,1,3.292.09l.21.406c.259.038.518.079.78.117.085.139.254.417.336.556A21.642,21.642,0,0,1,361.15,289.281Z" transform="translate(-6744.051 2666.828)" fill="#fff" opacity="0.36"/>
      <path id="Path_2015" data-name="Path 2015" d="M588.43,292.61a17.267,17.267,0,0,1,2.6.483c-.076.093-.229.276-.305.366A7.4,7.4,0,0,1,588.43,292.61Z" transform="translate(-6909.335 2664.235)" fill="#fff" opacity="0.36"/>
      <path id="Path_2016" data-name="Path 2016" d="M355.031,295.13c1.789.1,3.557.431,5.327.7-.027.158-.076.477-.1.636a4.406,4.406,0,0,1-1.9-.259,14.085,14.085,0,0,0-3.816-.761Z" transform="translate(-6739.244 2662.403)" fill="#fff" opacity="0.36"/>
      <path id="Path_2017" data-name="Path 2017" d="M608.675,296.905a.849.849,0,0,1,1.167.191C609.708,297.56,608.62,297.377,608.675,296.905Z" transform="translate(-6924.056 2661.219)" fill="#fff" opacity="0.36"/>
      <path id="Path_2018" data-name="Path 2018" d="M515.3,303.884c-.927-.4-.873-1.318.251-1.222l-.049.248C515.439,303.234,515.371,303.559,515.3,303.884Z" transform="translate(-6855.684 2656.931)" fill="#fff" opacity="0.36"/>
      <path id="Path_2019" data-name="Path 2019" d="M423.156,310.818a1.382,1.382,0,0,1,1.506-.139c-.3.224-.595.445-.895.663-.4-.049-.813-.093-1.217-.125l.276-.185C422.907,310.979,423.074,310.872,423.156,310.818Z" transform="translate(-6788.703 2651.21)" fill="#fff" opacity="0.36"/>
      <path id="Path_2020" data-name="Path 2020" d="M450.47,314.09a.566.566,0,0,1,.835.262C451.25,314.835,450.29,314.519,450.47,314.09Z" transform="translate(-6808.991 2648.688)" fill="#fff" opacity="0.36"/>
      <path id="Path_2021" data-name="Path 2021" d="M450.79,317.914c.376-.213,1.211-.052,1.255.428C451.663,318.536,450.869,318.356,450.79,317.914Z" transform="translate(-6809.24 2645.9)" fill="#fff" opacity="0.36"/>
      <path id="Path_2022" data-name="Path 2022" d="M467.59,322.27c3.107,1.159,6.574,1.069,9.607,2.343.125.139.379.415.507.554-1.208.226-2.362-.371-3.543-.524-.625-.158-1.252-.316-1.888-.417l1.05-.251C471.442,323.547,469.128,323.628,467.59,322.27Z" transform="translate(-6821.457 2642.666)" fill="#fff" opacity="0.36"/>
      <path id="Path_2023" data-name="Path 2023" d="M708.36,338.168c.112-.183.33-.546.442-.728a3.484,3.484,0,0,1,1.159,1.318C709.424,338.564,708.892,338.367,708.36,338.168Z" transform="translate(-6996.551 2631.634)" fill="#fff" opacity="0.36"/>
      <path id="Path_2024" data-name="Path 2024" d="M716.15,346.7c.537.325,1.067.666,1.582,1.028,1.088.576,1.672,2.188,3.022,2.119.019.1.055.311.071.415a7.236,7.236,0,0,1-.079.971c-.363-.368-.723-.731-1.083-1.1-.532-.6-.887-1.724-1.885-1.528A10.968,10.968,0,0,1,716.15,346.7Z" transform="translate(-7002.216 2624.9)" fill="#fff" opacity="0.36"/>
      <path id="Path_2025" data-name="Path 2025" d="M633.028,355.3a.577.577,0,0,1,.96-.412,5.438,5.438,0,0,1,2.155,2.507A10.642,10.642,0,0,1,633.028,355.3Z" transform="translate(-6941.767 2619.043)" fill="#fff" opacity="0.36"/>
      <path id="Path_2026" data-name="Path 2026" d="M740.078,382.344C741.461,382.276,739.661,383.721,740.078,382.344Z" transform="translate(-7019.57 2598.98)" fill="#fff" opacity="0.36"/>
      <path id="Path_2027" data-name="Path 2027" d="M600.718,407.25l.832.33c-.093.649-.221,1.29-.368,1.926l-.679.229c.7.235.338.911.248,1.421-.308.123-.614.248-.917.374A14.921,14.921,0,0,1,600.718,407.25Z" transform="translate(-6917.625 2580.866)" fill="#fff" opacity="0.36"/>
      <path id="Path_2028" data-name="Path 2028" d="M673.085,416.42c.524.079.546,1.378-.035,1.383C673.061,417.339,673.064,416.878,673.085,416.42Z" transform="translate(-6970.873 2574.198)" fill="#fff" opacity="0.36"/>
      <path id="Path_2029" data-name="Path 2029" d="M544.53,441.029c.791-.15,1.585-.278,2.387-.349A1.989,1.989,0,0,1,544.53,441.029Z" transform="translate(-6877.41 2556.555)" fill="#fff" opacity="0.36"/>
      <path id="Path_2030" data-name="Path 2030" d="M742.95,440.66c.295.079.595.161.889.254.349.134.3.636.45.927l-.854.085Q743.182,441.3,742.95,440.66Z" transform="translate(-7021.706 2556.57)" fill="#fff" opacity="0.36"/>
      <path id="Path_2031" data-name="Path 2031" d="M550.69,455.281a4.51,4.51,0,0,1,2.07-.491c-.276.275-.546.559-.821.835Z" transform="translate(-6881.89 2546.294)" fill="#fff" opacity="0.36"/>
      <path id="Path_2032" data-name="Path 2032" d="M522.4,468.133a1.944,1.944,0,0,1,1.137-.2C523.576,468.468,522.635,468.526,522.4,468.133Z" transform="translate(-6861.316 2536.743)" fill="#fff" opacity="0.36"/>
      <path id="Path_2033" data-name="Path 2033" d="M472.71,492.814C473.831,492.067,473.152,493.886,472.71,492.814Z" transform="translate(-6825.181 2518.777)" fill="#fff" opacity="0.36"/>
      <path id="Path_2034" data-name="Path 2034" d="M464.949,493.842a6.074,6.074,0,0,1,2.035-.166c-.99,1.249-2.744.952-4.133,1.35-.033.09-.1.27-.125.36a9.447,9.447,0,0,0-3.219.4c-.082.156-.245.466-.33.622a26.027,26.027,0,0,1-7.957.589c.854-.668,1.989-.513,2.99-.726A78,78,0,0,0,464.949,493.842Z" transform="translate(-6809.552 2518.025)" fill="#fff" opacity="0.36"/>
      <path id="Path_2035" data-name="Path 2035" d="M782.9,501.928l.155-.068c.115.453.248.908.352,1.369.022.115.068.349.09.466a1.236,1.236,0,0,1-.147.846c-.267.325-.556.63-.846.936-.188-1.061-.349-2.128-.439-3.2l.477-.194Z" transform="translate(-7050.155 2512.063)" fill="#fff" opacity="0.36"/>
      <path id="Path_2036" data-name="Path 2036" d="M469.65,506.653a1.374,1.374,0,0,1,1.342-.933A1.945,1.945,0,0,1,469.65,506.653Z" transform="translate(-6822.955 2509.256)" fill="#fff" opacity="0.36"/>
      <path id="Path_2037" data-name="Path 2037" d="M760.31,509.856c.1-.175.3-.524.4-.7a39.381,39.381,0,0,1,1.956,10.385c1.058,4.839,1.007,9.82,1.969,14.67a.547.547,0,0,1-.807.518c-.633-3.715-.857-7.488-1.388-11.217-.8-3.352-.608-6.86-1.536-10.188A14.152,14.152,0,0,1,760.31,509.856Z" transform="translate(-7034.319 2506.755)" fill="#fff" opacity="0.36"/>
      <path id="Path_2038" data-name="Path 2038" d="M476.008,515.9c-1.053-.188-.082-1.047.458-.45Z" transform="translate(-6827.238 2502.335)" fill="#fff" opacity="0.36"/>
      <path id="Path_2039" data-name="Path 2039" d="M443.57,524.478a9.008,9.008,0,0,1,4.168.063l.48.218c0,.134.005.4.005.529a18.866,18.866,0,0,0-1.942.363c.232-.262.466-.521.7-.78a10.052,10.052,0,0,1-2.67-.153Z" transform="translate(-6803.989 2495.774)" fill="#fff" opacity="0.36"/>
      <path id="Path_2040" data-name="Path 2040" d="M410.68,534.781c2.679-.936,5.584-.633,8.374-.7C416.512,535.359,413.438,534.836,410.68,534.781Z" transform="translate(-6780.071 2488.632)" fill="#fff" opacity="0.36"/>
      <path id="Path_2041" data-name="Path 2041" d="M403.528,535.856c.262-.194.985-.005.685.406C403.9,536.77,402.764,536.243,403.528,535.856Z" transform="translate(-6774.681 2487.396)" fill="#fff" opacity="0.36"/>
      <path id="Path_2042" data-name="Path 2042" d="M384.058,539.058C385.321,538.78,383.78,540.321,384.058,539.058Z" transform="translate(-6760.686 2485.037)" fill="#fff" opacity="0.36"/>
      <path id="Path_2043" data-name="Path 2043" d="M403.388,545.445c.292-.153.586-.305.881-.456-.131.415-.265.829-.412,1.238-2.422,1.915-5.434,3.041-8.047,4.716-.24-.2-.483-.393-.72-.584C397.72,548.5,400.788,547.358,403.388,545.445Z" transform="translate(-6768.733 2480.698)" fill="#fff" opacity="0.36"/>
      <path id="Path_2044" data-name="Path 2044" d="M408.438,546.319a2.773,2.773,0,0,1,1.492-.229c-.232.164-.461.33-.685.5.368-.011.737-.027,1.107-.046a4.49,4.49,0,0,1-2.853.267C407.816,546.655,408.125,546.483,408.438,546.319Z" transform="translate(-6777.758 2479.898)" fill="#fff" opacity="0.36"/>
      <path id="Path_2045" data-name="Path 2045" d="M788.12,545.46c.109.057.33.175.439.235a7.633,7.633,0,0,1,.608,1.8c-.093.183-.278.551-.374.736A8.913,8.913,0,0,1,788.12,545.46Z" transform="translate(-7054.555 2480.356)" fill="#fff" opacity="0.36"/>
      <path id="Path_2046" data-name="Path 2046" d="M796.63,552.82c.548.175,1.1.346,1.648.532l-.8.221C796.99,553.734,796.723,553.2,796.63,552.82Z" transform="translate(-7060.743 2475.004)" fill="#fff" opacity="0.36"/>
      <path id="Path_2047" data-name="Path 2047" d="M639.742,555.989c.158-.8,1.1.049.859.57a34.417,34.417,0,0,1-3.707,9.081c-.66,1.192-.668,2.771-1.784,3.677C636.2,564.721,638.659,560.591,639.742,555.989Z" transform="translate(-6943.282 2472.939)" fill="#fff" opacity="0.36"/>
      <path id="Path_2048" data-name="Path 2048" d="M433.44,567.447A9.553,9.553,0,0,1,436.686,565c-.025.156-.076.461-.1.614-.011.09-.038.265-.049.352l-.379.153A20.183,20.183,0,0,0,433.44,567.447Z" transform="translate(-6796.623 2466.146)" fill="#fff" opacity="0.36"/>
      <path id="Path_2049" data-name="Path 2049" d="M369.382,575.776a2.005,2.005,0,0,0,1.609-1.206l.488.2c-.551.777-1.244,1.571-2.3,1.438Z" transform="translate(-6749.891 2459.187)" fill="#fff" opacity="0.36"/>
      <path id="Path_2050" data-name="Path 2050" d="M279.486,590.867c.567-.09,1.143-.145,1.71-.237-.93,1.137-2.365,1.618-3.532,2.444a120.573,120.573,0,0,1-14.182,8.448c-3.672,2.084-7.291,4.261-10.892,6.465q.127-.753.259-1.5c1.143-.45,2.147-1.173,3.243-1.718q.434-.094.876-.18c-.033-.284-.065-.565-.1-.84l-.016-.145c.75-.06,1.5-.125,2.25-.18l-.076-.412c1.337-.876,2.79-1.558,4.073-2.52,1.3-.3,2.807-.674,3.107-2.2.117.18.235.363.355.546a12.367,12.367,0,0,1,3.224-1.618c-.022-.055-.068-.161-.09-.216.5-.139.99-.281,1.481-.434-.458-.131-.914-.259-1.378-.357,2.188.139,3.631-1.727,5.406-2.665a3.774,3.774,0,0,0,2.5-1.443A5.737,5.737,0,0,1,279.486,590.867Z" transform="translate(-6665.104 2447.508)" fill="#fff" opacity="0.36"/>
      <path id="Path_2051" data-name="Path 2051" d="M801.947,590.99a3.93,3.93,0,0,1,.69.657l-.1.145C802.056,592.182,801.486,591.339,801.947,590.99Z" transform="translate(-7064.486 2447.246)" fill="#fff" opacity="0.36"/>
      <path id="Path_2052" data-name="Path 2052" d="M809.43,602.02a5.7,5.7,0,0,1,3.393,1.347c2.267.925,4.806,1.249,6.956,2.452-2.365-.011-4.433-1.356-6.686-1.89A6.57,6.57,0,0,1,809.43,602.02Z" transform="translate(-7070.052 2439.225)" fill="#fff" opacity="0.36"/>
      <path id="Path_2053" data-name="Path 2053" d="M773.33,603.9a.968.968,0,0,1,1.009,1.118c.45,5.355,2.354,10.442,3.071,15.794.2.78.979,1.634.259,2.368.1-.038.289-.115.387-.156,1.189,3.958,3.688,7.321,5.42,11.034,1.309,3.287,3.658,5.957,5.676,8.794-4.045-2.368-5.769-7.04-7.829-11.009a33.319,33.319,0,0,1-5.065-12.111C775.479,614.411,773.783,609.27,773.33,603.9Z" transform="translate(-7043.799 2437.859)" fill="#fff" opacity="0.36"/>
      <path id="Path_2054" data-name="Path 2054" d="M797.02,604.27a19.984,19.984,0,0,1,3.41,6.233l-.742-.232c1.727,2.147,2.3,5.038,4.37,6.939-.2.24-.393.483-.584.728C800.937,613.588,798.321,609.177,797.02,604.27Z" transform="translate(-7061.027 2437.588)" fill="#fff" opacity="0.36"/>
      <path id="Path_2055" data-name="Path 2055" d="M808.37,609.98a6.944,6.944,0,0,1,5.172,2.139A17.83,17.83,0,0,1,808.37,609.98Z" transform="translate(-7069.281 2433.436)" fill="#fff" opacity="0.36"/>
      <path id="Path_2056" data-name="Path 2056" d="M815.355,628.18C816.555,628.259,814.916,629.413,815.355,628.18Z" transform="translate(-7074.305 2420.2)" fill="#fff" opacity="0.36"/>
      <path id="Path_2057" data-name="Path 2057" d="M831.51,634c.766.131,1.847-.014,2.22.859A6.543,6.543,0,0,1,831.51,634Z" transform="translate(-7086.109 2415.968)" fill="#fff" opacity="0.36"/>
      <path id="Path_2058" data-name="Path 2058" d="M838.39,639.031a4.219,4.219,0,0,1,2.223.518A2.991,2.991,0,0,1,838.39,639.031Z" transform="translate(-7091.112 2412.312)" fill="#fff" opacity="0.36"/>
      <path id="Path_2059" data-name="Path 2059" d="M822.55,645.636l.229-.046a21.9,21.9,0,0,0,1.658,1.642c-.049.164-.1.333-.136.5,1.241,1.157,1.817,2.8,2.82,4.133a3.006,3.006,0,0,1,3.385.183c1.746,1.258,4.572.333,6,1.863-3.077-.458-6.1-1.225-9.182-1.678.483.775.756,2.2,1.942,2.024,1.416-.1,3.216-.068,3.991,1.353-1.364.011-2.624-.592-3.98-.655l-.24-.044c.109.646.2,1.3.349,1.937a15.041,15.041,0,0,1-2.706-4.348A30.217,30.217,0,0,1,822.55,645.636Z" transform="translate(-7079.593 2407.54)" fill="#fff" opacity="0.36"/>
      <path id="Path_2060" data-name="Path 2060" d="M609.394,649.75q.5.008,1.007.033a14.124,14.124,0,0,1-2.61,6.127c-.93,1.339-1.075,3.178-2.4,4.253C606.53,656.616,608.461,653.372,609.394,649.75Z" transform="translate(-6921.668 2404.514)" fill="#fff" opacity="0.36"/>
      <path id="Path_2061" data-name="Path 2061" d="M151.15,693.127c.027-.442.846-.526,1.143-.27l.005.128A1.043,1.043,0,0,1,151.15,693.127Z" transform="translate(-6591.334 2373.271)" fill="#fff" opacity="0.36"/>
      <path id="Path_2062" data-name="Path 2062" d="M859.853,700.02c1.072.488.112,1.028-.483.336C859.49,700.271,859.73,700.1,859.853,700.02Z" transform="translate(-7106.369 2367.957)" fill="#fff" opacity="0.36"/>
      <path id="Path_2063" data-name="Path 2063" d="M867.43,704.936a2.47,2.47,0,0,1,.262-.666l.142.139c.229.278.431.584.638.884-.123.265-.243.529-.357.8C867.88,705.7,867.648,705.323,867.43,704.936Z" transform="translate(-7112.23 2364.866)" fill="#fff" opacity="0.36"/>
      <path id="Path_2064" data-name="Path 2064" d="M860.69,705.83c.9.728,1.743,1.525,2.665,2.229-.131.063-.4.183-.532.243-.125-.068-.376-.207-.5-.278A3.818,3.818,0,0,1,860.69,705.83Z" transform="translate(-7107.329 2363.731)" fill="#fff" opacity="0.36"/>
      <path id="Path_2065" data-name="Path 2065" d="M212.95,717.875a8.286,8.286,0,0,1,1.38-1.1c-.172.415-.322.84-.466,1.268Z" transform="translate(-6636.276 2355.776)" fill="#fff" opacity="0.36"/>
      <path id="Path_2066" data-name="Path 2066" d="M55.34,726.55a6.275,6.275,0,0,1,1.71-.51C58.837,726.8,56,727.2,55.34,726.55Z" transform="translate(-6521.659 2349.034)" fill="#fff" opacity="0.36"/>
      <path id="Path_2067" data-name="Path 2067" d="M922.925,734.892c.262-.371,1,.016.679.428C923.334,735.683,922.593,735.3,922.925,734.892Z" transform="translate(-7152.527 2342.706)" fill="#fff" opacity="0.36"/>
      <path id="Path_2068" data-name="Path 2068" d="M900.44,740.09a11.774,11.774,0,0,1,5.049.78c1.718.783,3.835.115,5.447,1.045-1.945.45-3.969-.243-5.917-.488C903.481,741.067,901.586,741.4,900.44,740.09Z" transform="translate(-7136.236 2338.817)" fill="#fff" opacity="0.36"/>
      <path id="Path_2069" data-name="Path 2069" d="M909.1,750.453c.974,0,2.109-.213,2.891.537A3.415,3.415,0,0,1,909.1,750.453Z" transform="translate(-7142.534 2331.302)" fill="#fff" opacity="0.36"/>
      <path id="Path_2070" data-name="Path 2070" d="M960.062,756.172C961.333,755.866,959.789,757.424,960.062,756.172Z" transform="translate(-7179.571 2327.151)" fill="#fff" opacity="0.36"/>
      <path id="Path_2071" data-name="Path 2071" d="M565.941,776.289C567.3,776.2,565.322,777.669,565.941,776.289Z" transform="translate(-6892.891 2312.495)" fill="#fff" opacity="0.36"/>
    </g>
  </g>
</svg>
